<svg width="303" height="180" viewBox="0 0 303 180" fill="none" xmlns="http://www.w3.org/2000/svg">
<path d="M154.574 22.5751C151.748 17.9005 148.399 12.9094 143.154 11.383C137.079 9.61539 130.84 13.1269 125.547 16.592C109.719 26.9551 94.4764 38.1858 79.8888 50.2325L79.9048 50.414C91.2617 49.6308 102.619 48.8476 113.976 48.0644C122.181 47.4985 130.668 46.8546 137.92 42.9729C140.671 41.5 143.354 39.5324 146.472 39.3953C150.346 39.225 153.723 41.9305 156.378 44.7572C172.08 61.4777 176.624 87.0474 194.24 101.738C183.132 74.343 169.868 47.8724 154.574 22.5751Z" fill="#F2F2F2"/>
<path d="M42.2166 20.538C42.0318 20.6713 41.8471 20.8046 41.6624 20.9348C40.3023 21.6194 38.9665 22.3494 37.6369 23.0854C35.141 24.4666 32.6774 25.9084 30.2463 27.4107C25.409 30.4003 20.7231 33.6181 16.1888 37.064C13.8383 38.8511 11.5362 40.6967 9.28271 42.601C9.11929 42.4222 8.96163 42.2375 8.80722 42.0497C8.77084 42.0042 8.73149 41.9588 8.69822 41.9103C6.9666 39.7498 5.70262 37.2532 4.98636 34.5786C4.27009 31.9041 4.11716 29.1099 4.53724 26.3732C4.95733 23.6364 5.94128 21.0167 7.42674 18.6801C8.91221 16.3436 10.8668 14.341 13.1667 12.7993C15.4666 11.2576 18.0616 10.2104 20.7874 9.72411C23.5132 9.23779 26.3102 9.32294 29.0014 9.97415C31.6925 10.6254 34.219 11.8284 36.4209 13.5072C38.6228 15.1859 40.4519 17.3036 41.7925 19.7263C41.8138 19.7626 41.835 19.802 41.8532 19.8383C41.9804 20.0685 42.1015 20.3018 42.2166 20.538Z" fill="#00B0FF"/>
<path d="M44.1587 135.794C52.3833 136.019 60.5837 136.792 68.7052 138.109C93.1327 142.083 116.553 150.774 137.66 163.696C144.68 167.992 151.405 172.751 157.79 177.942C158.573 178.579 159.351 179.223 160.123 179.873C160.619 180.291 161.34 179.577 160.84 179.157C154.501 173.825 147.813 168.92 140.823 164.476C133.84 160.039 126.575 156.063 119.074 152.573C111.563 149.076 103.834 146.066 95.9354 143.562C88.0488 141.062 80.0077 139.078 71.8631 137.624C63.7391 136.172 55.5278 135.259 47.2832 134.892C46.242 134.846 45.2005 134.809 44.1587 134.781C43.5063 134.763 43.5067 135.776 44.1587 135.794Z" fill="#E4E4E4"/>
<path d="M42.2149 103.758C56.9376 104.788 71.6659 105.835 86.3302 107.528C101.01 109.223 115.637 111.577 129.969 115.215C142.639 118.431 155.052 122.665 166.864 128.286C177.908 133.541 188.444 139.949 197.956 147.654C207.334 155.252 215.719 164.12 222.427 174.17C223.272 175.437 224.091 176.72 224.882 178.021C225.221 178.577 226.098 178.068 225.757 177.509C219.361 167.135 211.402 157.81 202.161 149.863C192.899 141.826 182.555 135.075 171.638 129.51C160.216 123.753 148.251 119.144 135.918 115.752C121.652 111.76 107.04 109.136 92.3571 107.249C77.5427 105.345 62.6453 104.19 47.7504 103.134C45.9053 103.003 44.0602 102.873 42.2149 102.745C41.564 102.699 41.5668 103.713 42.2149 103.758H42.2149Z" fill="#E4E4E4"/>
<path d="M252.106 166.085C250.37 163.892 248.646 161.689 246.934 159.477C232.988 141.439 219.879 122.793 207.609 103.537C199.274 90.4588 191.353 77.1297 183.845 63.5496C180.271 57.0934 176.794 50.5866 173.416 44.0291C170.794 38.9445 168.231 33.8296 165.726 28.6843C165.01 27.2147 164.314 25.7383 163.622 24.2585C161.99 20.7788 160.388 17.2821 158.669 13.8496C156.709 9.93739 154.324 5.83599 150.726 3.20757C149.089 1.9623 147.131 1.20883 145.081 1.03524C142.152 0.84605 139.449 2.05553 136.908 3.37649C118.32 13.0692 100.918 25.2214 85.1781 39.0493C69.3977 52.9082 55.2926 68.5655 43.1504 85.7019C42.7789 86.2323 41.9005 85.7256 42.2754 85.1918C43.7518 83.1039 45.2575 81.0386 46.7924 78.9958C65.8781 53.6123 89.28 31.7839 115.928 14.5084C120.412 11.603 124.979 8.83377 129.631 6.20086C131.976 4.87314 134.331 3.56231 136.726 2.33256C139.074 1.12646 141.567 0.0419863 144.25 0.00144522C153.378 -0.140449 158.105 10.1975 161.351 17.1537C162.372 19.3429 163.404 21.5254 164.449 23.7011C168.399 31.9613 172.5 40.1461 176.754 48.2555C179.379 53.2623 182.061 58.2399 184.801 63.1881C193.328 78.5971 202.391 93.6942 211.991 108.479C224.707 128.064 238.318 147.027 252.822 165.369C253.221 165.875 252.508 166.598 252.106 166.085Z" fill="#E4E4E4"/>
<path d="M84.2759 33.9445C83.7456 33.3533 83.2185 32.7621 82.6847 32.1708C78.4752 27.5154 73.9583 22.914 68.1777 20.245C65.4215 18.9322 62.4127 18.2348 59.36 18.2011C56.2046 18.2112 53.1202 19.0389 50.2046 20.1977C48.8262 20.7484 47.4781 21.3734 46.1505 22.0389C44.6335 22.8025 43.1436 23.6167 41.6606 24.4376C38.8767 25.9782 36.1289 27.5863 33.4173 29.262C28.0218 32.5965 22.7954 36.1855 17.7379 40.0291C15.1162 42.0223 12.5486 44.0809 10.035 46.2048C7.69718 48.1778 5.40663 50.2037 3.16337 52.2826C2.68365 52.7252 1.9674 52.009 2.4471 51.5664C3.03832 51.0157 3.63631 50.4684 4.23429 49.9278C5.9235 48.4008 7.63976 46.903 9.38308 45.4345C12.5621 42.7521 15.8234 40.1732 19.167 37.6979C24.3664 33.8465 29.7449 30.2564 35.3023 26.9275C38.0794 25.2653 40.8948 23.673 43.7483 22.1504C44.6099 21.691 45.4816 21.2416 46.3633 20.816C48.364 19.8068 50.4429 18.9605 52.5796 18.2855C55.6064 17.3064 58.8088 16.9918 61.9682 17.3632C65.0188 17.8069 67.9579 18.8237 70.6306 20.3599C76.3062 23.5322 80.7083 28.4377 84.9922 33.2249C85.4247 33.7114 84.7117 34.431 84.2759 33.9445Z" fill="#E4E4E4"/>
<path d="M200.569 82.1875L214.17 77.2131L220.922 74.7433C223.122 73.9389 225.315 73.0232 227.589 72.4472C229.599 71.938 231.641 71.8546 233.623 72.5241C235.372 73.1713 236.972 74.1635 238.33 75.4416C239.716 76.7187 241.007 78.0966 242.19 79.5642C243.66 81.331 245.108 83.1163 246.563 84.8957C252.568 92.2395 258.534 99.6152 264.46 107.023C270.387 114.43 276.273 121.869 282.12 129.339C287.982 136.828 293.803 144.348 299.583 151.899C300.291 152.824 300.999 153.75 301.706 154.676C302.096 155.187 302.977 154.683 302.581 154.164C296.758 146.537 290.894 138.941 284.989 131.376C279.07 123.793 273.11 116.243 267.109 108.724C261.109 101.206 255.068 93.7202 248.986 86.2671C247.471 84.4103 245.953 82.5555 244.433 80.7028C243.15 79.14 241.883 77.5603 240.476 76.1057C237.894 73.4356 234.669 71.076 230.808 71.012C228.538 70.9743 226.341 71.6947 224.232 72.4577C221.958 73.2802 219.69 74.1182 217.419 74.9487L203.724 79.9579L200.3 81.2102C199.692 81.4325 199.955 82.4123 200.569 82.1875Z" fill="#E4E4E4"/>
<path d="M45.8714 14.6809L45.063 15.2921C41.8296 11.0078 37.2785 7.904 32.1094 6.45797C26.9403 5.01193 21.4394 5.3037 16.4522 7.28841C11.4651 9.27311 7.26786 12.8409 4.50581 17.4433C1.74375 22.0456 0.569775 27.4278 1.16436 32.7623C1.75299 38.2164 4.17386 43.3096 8.03147 47.2099L7.30876 47.9206C3.29133 43.8588 0.770122 38.5546 0.15705 32.8747C-0.462167 27.3195 0.760315 21.7147 3.63655 16.922C6.51279 12.1292 10.8836 8.41378 16.077 6.34687C21.2703 4.27997 26.9988 3.97601 32.3818 5.48172C37.7647 6.98743 42.5042 10.2195 45.8714 14.6809Z" fill="#E4E4E4"/>
<path d="M123.232 79.5851C122.941 79.4102 122.692 79.1738 122.503 78.8923C122.313 78.6108 122.187 78.2912 122.135 77.956C122.082 77.6208 122.103 77.278 122.197 76.952C122.292 76.6259 122.456 76.3244 122.679 76.0688L119.663 45.7978L124.7 46.132L126.095 75.9398C126.5 76.3432 126.742 76.881 126.777 77.4513C126.811 78.0216 126.636 78.5848 126.283 79.0342C125.93 79.4835 125.424 79.7878 124.862 79.8893C124.3 79.9908 123.72 79.8826 123.232 79.5851V79.5851Z" fill="#9E616A"/>
<path d="M126.74 44.6765L125.42 54.7134L125.603 60.8649L120.063 61.3721L118.953 56.2559L118.341 42.7111C118.295 41.6895 118.638 40.6884 119.301 39.9095C119.963 39.1306 120.896 38.6319 121.912 38.5138C122.966 38.3912 124.026 38.688 124.863 39.34C125.7 39.9919 126.247 40.9469 126.386 41.9987L126.74 44.6765Z" fill="#2F2E41"/>
<path d="M105.524 132.989H102.164L100.565 120.027L105.525 120.027L105.524 132.989Z" fill="#9E616A"/>
<path d="M106.381 136.247L95.5454 136.246V136.109C95.5455 134.991 95.9899 133.918 96.7808 133.127C97.5718 132.336 98.6445 131.892 99.763 131.892H99.7633L106.381 131.892L106.381 136.247Z" fill="#2F2E41"/>
<path d="M133.273 132.989H129.913L128.314 120.027L133.274 120.027L133.273 132.989Z" fill="#9E616A"/>
<path d="M134.13 136.247L123.295 136.246V136.109C123.295 134.991 123.739 133.918 124.53 133.127C125.321 132.336 126.394 131.892 127.512 131.892H127.512L134.131 131.892L134.13 136.247Z" fill="#2F2E41"/>
<path d="M120.205 33.7426C124.229 33.7426 127.491 30.4806 127.491 26.4566C127.491 22.4327 124.229 19.1706 120.205 19.1706C116.181 19.1706 112.919 22.4327 112.919 26.4566C112.919 30.4806 116.181 33.7426 120.205 33.7426Z" fill="#9E616A"/>
<path d="M119.264 36.7007L124.32 37.2785C125.55 39.0223 126.347 41.0334 126.646 43.1459C126.945 45.2585 126.738 47.4119 126.041 49.4284L122.225 60.4654C122.225 60.4654 127.522 71.0829 127.522 80.9407C127.522 90.7986 137.608 125.986 137.608 125.986L123.41 127.467L117.216 89.9823L108.679 127.316L98.9332 125.729L104.301 76.7811L107.848 60.6701L107.999 52.8132C107.999 52.8132 106.491 46.9177 110.265 43.1432L114.874 36.7217L119.264 36.7007Z" fill="#2F2E41"/>
<path d="M111.712 23.8546H122.419V19.1876C120.069 18.254 117.769 17.46 116.379 19.1876C115.141 19.1876 113.954 19.6793 113.079 20.5545C112.204 21.4298 111.712 22.6168 111.712 23.8546Z" fill="#2F2E41"/>
<path d="M123.011 18.364C129.412 18.364 131.204 26.3869 131.204 30.913C131.204 33.4372 130.062 34.34 128.268 34.6455L127.635 31.2668L126.151 34.7909C125.647 34.7934 125.118 34.7836 124.569 34.7735L124.066 33.7376L122.944 34.7549C118.451 34.7615 114.819 35.4165 114.819 30.913C114.819 26.3869 116.391 18.364 123.011 18.364Z" fill="#2F2E41"/>
<path opacity="0.2" d="M113.546 62.6779L113.275 50.9254L112.557 45.7081L110.782 50.8764L113.546 62.6779Z" fill="black"/>
<path d="M127.011 61.1104H118.966V37.4614H127.011C128.551 37.4631 130.026 38.0754 131.115 39.1638C132.203 40.2522 132.816 41.728 132.817 43.2672V55.3045C132.816 56.8438 132.203 58.3195 131.115 59.408C130.026 60.4964 128.551 61.1086 127.011 61.1104Z" fill="#00B0FF"/>
<path d="M125.891 48.4413C125.623 48.441 125.365 48.3341 125.175 48.1441C124.985 47.9541 124.878 47.6965 124.878 47.4278V38.6439H126.905V47.4278C126.905 47.6965 126.798 47.9541 126.608 48.1441C126.418 48.3341 126.16 48.441 125.891 48.4413Z" fill="#3F3D56"/>
<path d="M128.328 59.2522H122.441C122.102 59.2518 121.777 59.1169 121.537 58.877C121.297 58.6371 121.162 58.3119 121.162 57.9726V54.4507C121.162 54.1114 121.297 53.7862 121.537 53.5463C121.777 53.3064 122.102 53.1715 122.441 53.1711H128.328C128.667 53.1715 128.993 53.3064 129.233 53.5463C129.472 53.7862 129.607 54.1114 129.608 54.4507V57.9726C129.607 58.3119 129.472 58.6371 129.233 58.877C128.993 59.1169 128.667 59.2518 128.328 59.2522Z" fill="#3F3D56"/>
<path d="M111.566 52.0586C110.042 50.2609 109.168 47.6494 109.168 44.894C109.168 39.6779 112.275 35.4344 116.094 35.4344C118.144 35.4344 120.076 36.6598 121.394 38.7962L120.818 39.1508C119.627 37.2185 117.905 36.1101 116.094 36.1101C112.648 36.1101 109.844 40.0506 109.844 44.894C109.844 47.492 110.66 49.9442 112.082 51.6218L111.566 52.0586Z" fill="#00B0FF"/>
<path d="M114.85 80.8083C114.542 80.5997 114.284 80.3262 114.093 80.007C113.902 79.6878 113.784 79.3306 113.746 78.9607C113.708 78.5908 113.752 78.2171 113.874 77.866C113.997 77.5149 114.195 77.1948 114.454 76.9284L112.953 43.6308L118.444 44.296L118.199 76.9903C118.618 77.4557 118.851 78.0586 118.855 78.6846C118.859 79.3106 118.633 79.9163 118.22 80.3869C117.807 80.8575 117.236 81.1603 116.615 81.238C115.994 81.3157 115.366 81.1628 114.85 80.8083V80.8083Z" fill="#9E616A"/>
<path d="M120.763 42.8249L118.722 53.7273L118.557 60.4682L112.466 60.6939L111.555 55.0304L111.691 40.1752C111.701 39.0548 112.136 37.9799 112.907 37.1671C113.678 36.3544 114.729 35.8642 115.847 35.7954C117.008 35.724 118.15 36.1117 119.027 36.8747C119.904 37.6378 120.445 38.7151 120.535 39.8741L120.763 42.8249Z" fill="#2F2E41"/>
<path d="M134.029 146.058C134.482 144.833 132.011 142.792 128.51 141.499C125.009 140.206 121.805 140.151 121.352 141.376C120.9 142.601 123.371 144.642 126.871 145.935C130.372 147.228 133.576 147.283 134.029 146.058Z" fill="#E6E6E6"/>
<path d="M155.84 147.095C156.493 145.964 154.403 143.535 151.171 141.669C147.939 139.803 144.79 139.207 144.137 140.339C143.484 141.47 145.574 143.899 148.806 145.765C152.038 147.631 155.187 148.226 155.84 147.095Z" fill="#E6E6E6"/>
<path d="M166.46 161.692C167.061 160.533 164.863 158.2 161.55 156.483C158.237 154.765 155.064 154.312 154.463 155.472C153.862 156.631 156.06 158.964 159.373 160.682C162.686 162.399 165.859 162.852 166.46 161.692Z" fill="#E6E6E6"/>
<path d="M188.082 166.76C188.683 165.6 186.485 163.268 183.172 161.55C179.859 159.832 176.686 159.38 176.085 160.539C175.484 161.699 177.682 164.031 180.995 165.749C184.308 167.467 187.481 167.919 188.082 166.76Z" fill="#E6E6E6"/>
<path d="M66.3879 26.103C59.4765 22.5509 50.6254 23.2466 44.2743 27.6845C56.3886 29.7745 68.3703 32.5709 80.1582 36.0596C75.2632 33.191 71.4341 28.6965 66.3879 26.103Z" fill="#F2F2F2"/>
<path d="M44.2063 27.6722L42.8757 28.7537C43.3258 28.3752 43.7937 28.0203 44.2743 27.6844C44.2516 27.6805 44.229 27.6761 44.2063 27.6722Z" fill="#F2F2F2"/>
<path d="M237.818 82.2373C236.479 80.6076 235.031 78.9013 233.029 78.2393L231.159 78.3131C245.391 103.461 264.612 125.435 287.643 142.887C271.034 122.67 254.426 102.454 237.818 82.2373Z" fill="#F2F2F2"/>
</svg>
