<svg width="306" height="155" viewBox="0 0 306 155" fill="none" xmlns="http://www.w3.org/2000/svg">
<path d="M0 0H306V150C306 152.761 303.761 155 301 155H5.00001C2.23859 155 0 152.761 0 150V0Z" fill="#F2F2F2"/>
<path d="M26.41 34.9566C25.9833 34.9566 25.77 34.7366 25.77 34.2966V28.4766C25.77 28.0433 25.9867 27.8266 26.42 27.8266H28.83C29.6033 27.8266 30.2 28.0199 30.62 28.4066C31.04 28.7933 31.25 29.3333 31.25 30.0266C31.25 30.7199 31.04 31.2633 30.62 31.6566C30.2 32.0433 29.6033 32.2366 28.83 32.2366H27.05V34.2966C27.05 34.7366 26.8367 34.9566 26.41 34.9566ZM27.05 31.2266H28.63C29.55 31.2266 30.01 30.8266 30.01 30.0266C30.01 29.2333 29.55 28.8366 28.63 28.8366H27.05V31.2266ZM32.7158 34.9566C32.2891 34.9566 32.0758 34.7433 32.0758 34.3166V30.5366C32.0758 30.1166 32.2791 29.9066 32.6858 29.9066C33.0924 29.9066 33.2958 30.1166 33.2958 30.5366V30.8466C33.5358 30.2733 34.0491 29.9533 34.8358 29.8866C35.1224 29.8533 35.2824 30.0166 35.3158 30.3766C35.3491 30.7299 35.1758 30.9266 34.7958 30.9666L34.5758 30.9866C33.7558 31.0666 33.3458 31.4866 33.3458 32.2466V34.3166C33.3458 34.7433 33.1358 34.9566 32.7158 34.9566ZM36.6118 28.9866C36.3785 28.9866 36.1951 28.9299 36.0618 28.8166C35.9351 28.6966 35.8718 28.5333 35.8718 28.3266C35.8718 28.1133 35.9351 27.9499 36.0618 27.8366C36.1951 27.7233 36.3785 27.6666 36.6118 27.6666C37.1051 27.6666 37.3518 27.8866 37.3518 28.3266C37.3518 28.7666 37.1051 28.9866 36.6118 28.9866ZM36.6118 34.9466C36.4118 34.9466 36.2585 34.8866 36.1518 34.7666C36.0451 34.6466 35.9918 34.4799 35.9918 34.2666V30.5966C35.9918 30.1433 36.1985 29.9166 36.6118 29.9166C37.0318 29.9166 37.2418 30.1433 37.2418 30.5966V34.2666C37.2418 34.4799 37.1885 34.6466 37.0818 34.7666C36.9751 34.8866 36.8185 34.9466 36.6118 34.9466ZM39.1806 34.9566C38.7673 34.9566 38.5606 34.7433 38.5606 34.3166V30.5366C38.5606 30.1166 38.764 29.9066 39.1706 29.9066C39.5773 29.9066 39.7806 30.1166 39.7806 30.5366V30.7366C39.9273 30.4699 40.1306 30.2633 40.3906 30.1166C40.6506 29.9633 40.9506 29.8866 41.2906 29.8866C42.024 29.8866 42.504 30.2066 42.7306 30.8466C42.884 30.5466 43.104 30.3133 43.3906 30.1466C43.6773 29.9733 44.004 29.8866 44.3706 29.8866C45.4706 29.8866 46.0206 30.5566 46.0206 31.8966V34.3166C46.0206 34.7433 45.8106 34.9566 45.3906 34.9566C44.9773 34.9566 44.7706 34.7433 44.7706 34.3166V31.9466C44.7706 31.5733 44.7073 31.2999 44.5806 31.1266C44.4606 30.9533 44.254 30.8666 43.9606 30.8666C43.634 30.8666 43.3773 30.9833 43.1906 31.2166C43.004 31.4433 42.9106 31.7599 42.9106 32.1666V34.3166C42.9106 34.7433 42.704 34.9566 42.2906 34.9566C41.8706 34.9566 41.6606 34.7433 41.6606 34.3166V31.9466C41.6606 31.5733 41.5973 31.2999 41.4706 31.1266C41.3506 30.9533 41.1473 30.8666 40.8606 30.8666C40.534 30.8666 40.2773 30.9833 40.0906 31.2166C39.904 31.4433 39.8106 31.7599 39.8106 32.1666V34.3166C39.8106 34.7433 39.6006 34.9566 39.1806 34.9566ZM48.9202 34.9766C48.5668 34.9766 48.2502 34.9099 47.9702 34.7766C47.6968 34.6366 47.4802 34.4499 47.3202 34.2166C47.1668 33.9833 47.0902 33.7199 47.0902 33.4266C47.0902 33.0666 47.1835 32.7833 47.3702 32.5766C47.5568 32.3633 47.8602 32.2099 48.2802 32.1166C48.7002 32.0233 49.2635 31.9766 49.9702 31.9766H50.3202V31.7666C50.3202 31.4333 50.2468 31.1933 50.1002 31.0466C49.9535 30.8999 49.7068 30.8266 49.3602 30.8266C49.1668 30.8266 48.9568 30.8499 48.7302 30.8966C48.5102 30.9433 48.2768 31.0233 48.0302 31.1366C47.8702 31.2099 47.7368 31.2199 47.6302 31.1666C47.5235 31.1066 47.4502 31.0166 47.4102 30.8966C47.3768 30.7699 47.3835 30.6433 47.4302 30.5166C47.4835 30.3899 47.5868 30.2966 47.7402 30.2366C48.0468 30.1099 48.3402 30.0199 48.6202 29.9666C48.9068 29.9133 49.1668 29.8866 49.4002 29.8866C50.1135 29.8866 50.6435 30.0533 50.9902 30.3866C51.3368 30.7133 51.5102 31.2233 51.5102 31.9166V34.3166C51.5102 34.7433 51.3168 34.9566 50.9302 34.9566C50.5368 34.9566 50.3402 34.7433 50.3402 34.3166V34.0966C50.2268 34.3699 50.0468 34.5866 49.8002 34.7466C49.5535 34.8999 49.2602 34.9766 48.9202 34.9766ZM49.1802 34.1166C49.5068 34.1166 49.7768 34.0033 49.9902 33.7766C50.2102 33.5499 50.3202 33.2633 50.3202 32.9166V32.6966H49.9802C49.3535 32.6966 48.9168 32.7466 48.6702 32.8466C48.4302 32.9399 48.3102 33.1133 48.3102 33.3666C48.3102 33.5866 48.3868 33.7666 48.5402 33.9066C48.6935 34.0466 48.9068 34.1166 49.1802 34.1166ZM53.4189 34.9566C52.9922 34.9566 52.7789 34.7433 52.7789 34.3166V30.5366C52.7789 30.1166 52.9822 29.9066 53.3889 29.9066C53.7956 29.9066 53.9989 30.1166 53.9989 30.5366V30.8466C54.2389 30.2733 54.7522 29.9533 55.5389 29.8866C55.8256 29.8533 55.9856 30.0166 56.0189 30.3766C56.0522 30.7299 55.8789 30.9266 55.4989 30.9666L55.2789 30.9866C54.4589 31.0666 54.0489 31.4866 54.0489 32.2466V34.3166C54.0489 34.7433 53.8389 34.9566 53.4189 34.9566ZM58.2377 36.7566C58.011 36.7566 57.8543 36.6733 57.7677 36.5066C57.681 36.3399 57.6843 36.1499 57.7777 35.9366L58.3477 34.6766L56.6377 30.7366C56.5443 30.5166 56.5443 30.3233 56.6377 30.1566C56.731 29.9899 56.9143 29.9066 57.1877 29.9066C57.341 29.9066 57.4643 29.9433 57.5577 30.0166C57.651 30.0833 57.7343 30.2133 57.8077 30.4066L59.0077 33.4066L60.2377 30.3966C60.311 30.2099 60.3977 30.0833 60.4977 30.0166C60.5977 29.9433 60.731 29.9066 60.8977 29.9066C61.111 29.9066 61.261 29.9899 61.3477 30.1566C61.4343 30.3233 61.431 30.5133 61.3377 30.7266L58.9077 36.2766C58.821 36.4633 58.7277 36.5899 58.6277 36.6566C58.5277 36.7233 58.3977 36.7566 58.2377 36.7566ZM27.98 48.9466C27.7067 48.9466 27.57 48.7999 27.57 48.5066V45.5366L25.24 42.3366C25.1467 42.2099 25.1267 42.0833 25.18 41.9566C25.24 41.8233 25.3533 41.7566 25.52 41.7566C25.6933 41.7566 25.8433 41.8466 25.97 42.0266L28 44.8166L30.02 42.0266C30.1533 41.8466 30.3033 41.7566 30.47 41.7566C30.63 41.7566 30.7367 41.8199 30.79 41.9466C30.8433 42.0666 30.82 42.1999 30.72 42.3466L28.39 45.5566V48.5066C28.39 48.7999 28.2533 48.9466 27.98 48.9466ZM33.116 48.9666C32.3493 48.9666 31.7427 48.7433 31.296 48.2966C30.8493 47.8433 30.626 47.2299 30.626 46.4566C30.626 45.9566 30.726 45.5166 30.926 45.1366C31.126 44.7499 31.3993 44.4533 31.746 44.2466C32.0993 44.0333 32.506 43.9266 32.966 43.9266C33.626 43.9266 34.1427 44.1399 34.516 44.5666C34.8893 44.9866 35.076 45.5666 35.076 46.3066C35.076 46.5133 34.9593 46.6166 34.726 46.6166H31.416C31.4427 47.1699 31.6027 47.5933 31.896 47.8866C32.1893 48.1733 32.596 48.3166 33.116 48.3166C33.336 48.3166 33.5593 48.2899 33.786 48.2366C34.0127 48.1766 34.2327 48.0733 34.446 47.9266C34.5993 47.8266 34.726 47.8066 34.826 47.8666C34.9327 47.9266 34.986 48.0199 34.986 48.1466C34.9927 48.2666 34.926 48.3733 34.786 48.4666C34.566 48.6266 34.3027 48.7499 33.996 48.8366C33.696 48.9233 33.4027 48.9666 33.116 48.9666ZM32.986 44.5266C32.526 44.5266 32.1627 44.6699 31.896 44.9566C31.6293 45.2433 31.4727 45.6199 31.426 46.0866H34.376C34.356 45.5933 34.226 45.2099 33.986 44.9366C33.7527 44.6633 33.4193 44.5266 32.986 44.5266ZM37.8883 48.9666C37.5883 48.9666 37.2849 48.9299 36.9783 48.8566C36.6783 48.7766 36.3983 48.6499 36.1383 48.4766C36.0183 48.4033 35.9583 48.3099 35.9583 48.1966C35.9649 48.0766 36.0116 47.9833 36.0983 47.9166C36.1849 47.8499 36.2949 47.8499 36.4283 47.9166C36.6883 48.0766 36.9383 48.1899 37.1783 48.2566C37.4249 48.3166 37.6683 48.3466 37.9083 48.3466C38.2883 48.3466 38.5749 48.2766 38.7683 48.1366C38.9616 47.9966 39.0583 47.8066 39.0583 47.5666C39.0583 47.3799 38.9949 47.2333 38.8683 47.1266C38.7416 47.0133 38.5416 46.9266 38.2683 46.8666L37.3583 46.6666C36.5316 46.4866 36.1183 46.0599 36.1183 45.3866C36.1183 44.9466 36.2916 44.5933 36.6383 44.3266C36.9916 44.0599 37.4516 43.9266 38.0183 43.9266C38.3049 43.9266 38.5816 43.9666 38.8483 44.0466C39.1149 44.1199 39.3549 44.2399 39.5683 44.4066C39.6816 44.4866 39.7316 44.5833 39.7183 44.6966C39.7049 44.8099 39.6516 44.8999 39.5583 44.9666C39.4716 45.0266 39.3649 45.0166 39.2383 44.9366C39.0383 44.8033 38.8349 44.7066 38.6283 44.6466C38.4216 44.5799 38.2183 44.5466 38.0183 44.5466C37.6449 44.5466 37.3616 44.6199 37.1683 44.7666C36.9749 44.9133 36.8783 45.1066 36.8783 45.3466C36.8783 45.7199 37.1249 45.9599 37.6183 46.0666L38.5283 46.2566C38.9549 46.3499 39.2783 46.4999 39.4983 46.7066C39.7183 46.9066 39.8283 47.1799 39.8283 47.5266C39.8283 47.9733 39.6516 48.3266 39.2983 48.5866C38.9449 48.8399 38.4749 48.9666 37.8883 48.9666ZM28.11 76.9566C27.6833 76.9566 27.47 76.7366 27.47 76.2966V70.8966H25.52C25.1533 70.8966 24.97 70.7166 24.97 70.3566C24.97 70.0033 25.1533 69.8266 25.52 69.8266H30.7C31.0667 69.8266 31.25 70.0033 31.25 70.3566C31.25 70.7166 31.0667 70.8966 30.7 70.8966H28.75V76.2966C28.75 76.7366 28.5367 76.9566 28.11 76.9566ZM32.349 78.7566C32.1223 78.7566 31.9657 78.6733 31.879 78.5066C31.7923 78.3399 31.7957 78.1499 31.889 77.9366L32.459 76.6766L30.749 72.7366C30.6557 72.5166 30.6557 72.3233 30.749 72.1566C30.8423 71.9899 31.0257 71.9066 31.299 71.9066C31.4523 71.9066 31.5757 71.9433 31.669 72.0166C31.7623 72.0833 31.8457 72.2133 31.919 72.4066L33.119 75.4066L34.349 72.3966C34.4223 72.2099 34.509 72.0833 34.609 72.0166C34.709 71.9433 34.8423 71.9066 35.009 71.9066C35.2223 71.9066 35.3723 71.9899 35.459 72.1566C35.5457 72.3233 35.5423 72.5133 35.449 72.7266L33.019 78.2766C32.9323 78.4633 32.839 78.5899 32.739 78.6566C32.639 78.7233 32.509 78.7566 32.349 78.7566ZM36.9927 78.7566C36.5793 78.7566 36.3727 78.5466 36.3727 78.1266V72.5366C36.3727 72.1166 36.576 71.9066 36.9827 71.9066C37.396 71.9066 37.6027 72.1166 37.6027 72.5366V72.7466C37.7427 72.4866 37.9527 72.2799 38.2327 72.1266C38.5127 71.9666 38.8327 71.8866 39.1927 71.8866C39.6193 71.8866 39.9927 71.9899 40.3127 72.1966C40.6393 72.4033 40.8927 72.6966 41.0727 73.0766C41.2527 73.4499 41.3427 73.8999 41.3427 74.4266C41.3427 74.9466 41.2527 75.3999 41.0727 75.7866C40.8927 76.1666 40.6427 76.4599 40.3227 76.6666C40.0027 76.8733 39.626 76.9766 39.1927 76.9766C38.846 76.9766 38.5327 76.9033 38.2527 76.7566C37.9793 76.6033 37.7693 76.3999 37.6227 76.1466V78.1266C37.6227 78.5466 37.4127 78.7566 36.9927 78.7566ZM38.8427 76.0266C39.216 76.0266 39.516 75.8933 39.7427 75.6266C39.9693 75.3533 40.0827 74.9533 40.0827 74.4266C40.0827 73.8933 39.9693 73.4966 39.7427 73.2366C39.516 72.9699 39.216 72.8366 38.8427 72.8366C38.4693 72.8366 38.1693 72.9699 37.9427 73.2366C37.716 73.4966 37.6027 73.8933 37.6027 74.4266C37.6027 74.9533 37.716 75.3533 37.9427 75.6266C38.1693 75.8933 38.4693 76.0266 38.8427 76.0266ZM44.7788 76.9766C44.2254 76.9766 43.7488 76.8733 43.3488 76.6666C42.9488 76.4599 42.6388 76.1666 42.4188 75.7866C42.2054 75.4066 42.0988 74.9566 42.0988 74.4366C42.0988 73.9299 42.2021 73.4866 42.4088 73.1066C42.6221 72.7266 42.9121 72.4299 43.2788 72.2166C43.6521 71.9966 44.0754 71.8866 44.5488 71.8866C45.2421 71.8866 45.7888 72.1066 46.1888 72.5466C46.5954 72.9866 46.7988 73.5866 46.7988 74.3466C46.7988 74.5933 46.6388 74.7166 46.3188 74.7166H43.2988C43.3921 75.5899 43.8921 76.0266 44.7988 76.0266C44.9721 76.0266 45.1654 76.0066 45.3788 75.9666C45.5988 75.9199 45.8054 75.8433 45.9988 75.7366C46.1721 75.6366 46.3188 75.6066 46.4388 75.6466C46.5588 75.6799 46.6421 75.7499 46.6888 75.8566C46.7421 75.9633 46.7488 76.0833 46.7088 76.2166C46.6754 76.3433 46.5821 76.4533 46.4288 76.5466C46.1954 76.6933 45.9254 76.8033 45.6188 76.8766C45.3188 76.9433 45.0388 76.9766 44.7788 76.9766ZM44.5988 72.7366C44.2321 72.7366 43.9354 72.8499 43.7088 73.0766C43.4821 73.3033 43.3454 73.6099 43.2988 73.9966H45.7588C45.7321 73.5899 45.6188 73.2799 45.4188 73.0666C45.2254 72.8466 44.9521 72.7366 44.5988 72.7366ZM28.13 90.9466C27.91 90.9466 27.7533 90.8199 27.66 90.5666L25.45 84.2566C25.4033 84.1099 25.4133 83.9899 25.48 83.8966C25.5467 83.8033 25.66 83.7566 25.82 83.7566C26.0333 83.7566 26.18 83.8733 26.26 84.1066L28.15 89.6766L30.09 84.1366C30.1767 83.8833 30.3233 83.7566 30.53 83.7566C30.6367 83.7566 30.72 83.7899 30.78 83.8566C30.8467 83.9166 30.9033 84.0099 30.95 84.1366L32.87 89.7266L34.81 84.1066C34.8833 83.8733 35.0267 83.7566 35.24 83.7566C35.38 83.7566 35.48 83.8033 35.54 83.8966C35.6067 83.9899 35.6167 84.1099 35.57 84.2566L33.35 90.5666C33.3033 90.6933 33.2433 90.7899 33.17 90.8566C33.1033 90.9166 33.0067 90.9466 32.88 90.9466C32.76 90.9466 32.6633 90.9166 32.59 90.8566C32.5167 90.7899 32.4567 90.6933 32.41 90.5666L30.51 85.0766L28.59 90.5666C28.5433 90.6933 28.4867 90.7899 28.42 90.8566C28.3533 90.9166 28.2567 90.9466 28.13 90.9466ZM37.4002 84.8466C37.0469 84.8466 36.8702 84.6799 36.8702 84.3466C36.8702 84.0199 37.0469 83.8566 37.4002 83.8566C37.7536 83.8566 37.9302 84.0199 37.9302 84.3466C37.9302 84.6799 37.7536 84.8466 37.4002 84.8466ZM37.4002 90.9266C37.1336 90.9266 37.0002 90.7799 37.0002 90.4866V86.3966C37.0002 86.1099 37.1336 85.9666 37.4002 85.9666C37.6736 85.9666 37.8102 86.1099 37.8102 86.3966V90.4866C37.8102 90.7799 37.6736 90.9266 37.4002 90.9266ZM41.2745 90.9666C40.7011 90.9666 40.2711 90.8166 39.9845 90.5166C39.6978 90.2099 39.5545 89.7699 39.5545 89.1966V86.6466H38.8845C38.6511 86.6466 38.5345 86.5399 38.5345 86.3266C38.5345 86.1199 38.6511 86.0166 38.8845 86.0166H39.5545V84.8666C39.5545 84.5933 39.6911 84.4566 39.9645 84.4566C40.2311 84.4566 40.3645 84.5933 40.3645 84.8666V86.0166H41.6245C41.8578 86.0166 41.9745 86.1199 41.9745 86.3266C41.9745 86.5399 41.8578 86.6466 41.6245 86.6466H40.3645V89.1166C40.3645 89.4966 40.4445 89.7866 40.6045 89.9866C40.7645 90.1799 41.0245 90.2766 41.3845 90.2766C41.5111 90.2766 41.6178 90.2633 41.7045 90.2366C41.7911 90.2099 41.8678 90.1966 41.9345 90.1966C41.9945 90.1899 42.0445 90.2099 42.0845 90.2566C42.1245 90.3033 42.1445 90.3833 42.1445 90.4966C42.1445 90.5766 42.1278 90.6499 42.0945 90.7166C42.0678 90.7833 42.0178 90.8299 41.9445 90.8566C41.8645 90.8833 41.7578 90.9066 41.6245 90.9266C41.4978 90.9533 41.3811 90.9666 41.2745 90.9666ZM43.2791 90.9466C43.0125 90.9466 42.8791 90.8066 42.8791 90.5266V84.1666C42.8791 83.8933 43.0125 83.7566 43.2791 83.7566C43.5525 83.7566 43.6891 83.8933 43.6891 84.1666V86.8166C43.8491 86.5233 44.0725 86.3033 44.3591 86.1566C44.6525 86.0033 44.9791 85.9266 45.3391 85.9266C46.4925 85.9266 47.0691 86.5666 47.0691 87.8466V90.5266C47.0691 90.8066 46.9358 90.9466 46.6691 90.9466C46.3958 90.9466 46.2591 90.8066 46.2591 90.5266V87.8966C46.2591 87.4433 46.1691 87.1133 45.9891 86.9066C45.8158 86.6933 45.5358 86.5866 45.1491 86.5866C44.7025 86.5866 44.3458 86.7266 44.0791 87.0066C43.8191 87.2799 43.6891 87.6466 43.6891 88.1066V90.5266C43.6891 90.8066 43.5525 90.9466 43.2791 90.9466ZM51.6609 90.9466C51.3875 90.9466 51.2509 90.8033 51.2509 90.5166V84.2466C51.2509 83.9666 51.3909 83.8266 51.6709 83.8266H54.0409C54.8009 83.8266 55.3809 84.0099 55.7809 84.3766C56.1875 84.7433 56.3909 85.2666 56.3909 85.9466C56.3909 86.6199 56.1875 87.1433 55.7809 87.5166C55.3809 87.8833 54.8009 88.0666 54.0409 88.0666H52.0709V90.5166C52.0709 90.8033 51.9342 90.9466 51.6609 90.9466ZM52.0709 87.3766H53.9409C55.0342 87.3766 55.5809 86.8999 55.5809 85.9466C55.5809 84.9866 55.0342 84.5066 53.9409 84.5066H52.0709V87.3766ZM58.7548 90.9666C58.4215 90.9666 58.1215 90.9033 57.8548 90.7766C57.5948 90.6433 57.3882 90.4633 57.2348 90.2366C57.0815 90.0099 57.0048 89.7566 57.0048 89.4766C57.0048 89.1233 57.0948 88.8433 57.2748 88.6366C57.4615 88.4299 57.7648 88.2833 58.1848 88.1966C58.6115 88.1033 59.1915 88.0566 59.9248 88.0566H60.2448V87.7466C60.2448 87.3333 60.1582 87.0366 59.9848 86.8566C59.8182 86.6699 59.5482 86.5766 59.1748 86.5766C58.9415 86.5766 58.7048 86.6066 58.4648 86.6666C58.2315 86.7266 57.9882 86.8233 57.7348 86.9566C57.6215 87.0166 57.5248 87.0299 57.4448 86.9966C57.3715 86.9566 57.3182 86.8966 57.2848 86.8166C57.2582 86.7299 57.2582 86.6433 57.2848 86.5566C57.3182 86.4633 57.3848 86.3933 57.4848 86.3466C57.7715 86.1999 58.0582 86.0933 58.3448 86.0266C58.6382 85.9599 58.9148 85.9266 59.1748 85.9266C59.8015 85.9266 60.2648 86.0799 60.5648 86.3866C60.8715 86.6933 61.0248 87.1699 61.0248 87.8166V90.5266C61.0248 90.8066 60.9015 90.9466 60.6548 90.9466C60.3948 90.9466 60.2648 90.8066 60.2648 90.5266V90.0366C60.1382 90.3233 59.9415 90.5499 59.6748 90.7166C59.4148 90.8833 59.1082 90.9666 58.7548 90.9666ZM58.8848 90.3566C59.2848 90.3566 59.6115 90.2199 59.8648 89.9466C60.1182 89.6666 60.2448 89.3133 60.2448 88.8866V88.5866H59.9348C59.3948 88.5866 58.9682 88.6133 58.6548 88.6666C58.3482 88.7133 58.1315 88.7999 58.0048 88.9266C57.8848 89.0466 57.8248 89.2133 57.8248 89.4266C57.8248 89.6999 57.9182 89.9233 58.1048 90.0966C58.2982 90.2699 58.5582 90.3566 58.8848 90.3566ZM62.9376 90.9466C62.6642 90.9466 62.5276 90.8066 62.5276 90.5266V86.3566C62.5276 86.0833 62.6576 85.9466 62.9176 85.9466C63.1842 85.9466 63.3176 86.0833 63.3176 86.3566V86.8866C63.4509 86.5799 63.6576 86.3466 63.9376 86.1866C64.2176 86.0199 64.5509 85.9299 64.9376 85.9166C65.1509 85.8966 65.2642 86.0033 65.2776 86.2366C65.2976 86.4699 65.1776 86.5999 64.9176 86.6266L64.7576 86.6466C64.2976 86.6866 63.9476 86.8333 63.7076 87.0866C63.4676 87.3333 63.3476 87.6733 63.3476 88.1066V90.5266C63.3476 90.8066 63.2109 90.9466 62.9376 90.9466ZM68.243 90.9666C67.4763 90.9666 66.8696 90.7433 66.423 90.2966C65.9763 89.8433 65.753 89.2299 65.753 88.4566C65.753 87.9566 65.853 87.5166 66.053 87.1366C66.253 86.7499 66.5263 86.4533 66.873 86.2466C67.2263 86.0333 67.633 85.9266 68.093 85.9266C68.753 85.9266 69.2696 86.1399 69.643 86.5666C70.0163 86.9866 70.203 87.5666 70.203 88.3066C70.203 88.5133 70.0863 88.6166 69.853 88.6166H66.543C66.5696 89.1699 66.7296 89.5933 67.023 89.8866C67.3163 90.1733 67.723 90.3166 68.243 90.3166C68.463 90.3166 68.6863 90.2899 68.913 90.2366C69.1396 90.1766 69.3596 90.0733 69.573 89.9266C69.7263 89.8266 69.853 89.8066 69.953 89.8666C70.0596 89.9266 70.113 90.0199 70.113 90.1466C70.1196 90.2666 70.053 90.3733 69.913 90.4666C69.693 90.6266 69.4296 90.7499 69.123 90.8366C68.823 90.9233 68.5296 90.9666 68.243 90.9666ZM68.113 86.5266C67.653 86.5266 67.2896 86.6699 67.023 86.9566C66.7563 87.2433 66.5996 87.6199 66.553 88.0866H69.503C69.483 87.5933 69.353 87.2099 69.113 86.9366C68.8796 86.6633 68.5463 86.5266 68.113 86.5266ZM71.7752 90.9466C71.5086 90.9466 71.3752 90.8066 71.3752 90.5266V86.3566C71.3752 86.0833 71.5052 85.9466 71.7652 85.9466C72.0319 85.9466 72.1652 86.0833 72.1652 86.3566V86.8466C72.3252 86.5399 72.5519 86.3099 72.8452 86.1566C73.1386 86.0033 73.4686 85.9266 73.8352 85.9266C74.9886 85.9266 75.5652 86.5666 75.5652 87.8466V90.5266C75.5652 90.8066 75.4319 90.9466 75.1652 90.9466C74.8919 90.9466 74.7552 90.8066 74.7552 90.5266V87.8966C74.7552 87.4433 74.6652 87.1133 74.4852 86.9066C74.3119 86.6933 74.0319 86.5866 73.6452 86.5866C73.1986 86.5866 72.8419 86.7266 72.5752 87.0066C72.3152 87.2799 72.1852 87.6466 72.1852 88.1066V90.5266C72.1852 90.8066 72.0486 90.9466 71.7752 90.9466ZM79.0088 90.9666C78.4355 90.9666 78.0055 90.8166 77.7188 90.5166C77.4322 90.2099 77.2888 89.7699 77.2888 89.1966V86.6466H76.6188C76.3855 86.6466 76.2688 86.5399 76.2688 86.3266C76.2688 86.1199 76.3855 86.0166 76.6188 86.0166H77.2888V84.8666C77.2888 84.5933 77.4255 84.4566 77.6988 84.4566C77.9655 84.4566 78.0988 84.5933 78.0988 84.8666V86.0166H79.3588C79.5922 86.0166 79.7088 86.1199 79.7088 86.3266C79.7088 86.5399 79.5922 86.6466 79.3588 86.6466H78.0988V89.1166C78.0988 89.4966 78.1788 89.7866 78.3388 89.9866C78.4988 90.1799 78.7588 90.2766 79.1188 90.2766C79.2455 90.2766 79.3522 90.2633 79.4388 90.2366C79.5255 90.2099 79.6022 90.1966 79.6688 90.1966C79.7288 90.1899 79.7788 90.2099 79.8188 90.2566C79.8588 90.3033 79.8788 90.3833 79.8788 90.4966C79.8788 90.5766 79.8622 90.6499 79.8288 90.7166C79.8022 90.7833 79.7522 90.8299 79.6788 90.8566C79.5988 90.8833 79.4922 90.9066 79.3588 90.9266C79.2322 90.9533 79.1155 90.9666 79.0088 90.9666ZM26.06 118.877C25.84 118.877 25.6733 118.82 25.56 118.707C25.4533 118.587 25.4067 118.433 25.42 118.247C25.44 118.06 25.5233 117.867 25.67 117.667L29.19 112.897H25.96C25.58 112.897 25.39 112.717 25.39 112.357C25.39 112.003 25.58 111.827 25.96 111.827H30.1C30.32 111.827 30.4833 111.887 30.59 112.007C30.7033 112.12 30.7533 112.27 30.74 112.457C30.7267 112.637 30.6433 112.83 30.49 113.037L26.97 117.807H30.35C30.73 117.807 30.92 117.983 30.92 118.337C30.92 118.697 30.73 118.877 30.35 118.877H26.06ZM32.3247 112.987C32.0914 112.987 31.908 112.93 31.7747 112.817C31.648 112.697 31.5847 112.533 31.5847 112.327C31.5847 112.113 31.648 111.95 31.7747 111.837C31.908 111.723 32.0914 111.667 32.3247 111.667C32.818 111.667 33.0647 111.887 33.0647 112.327C33.0647 112.767 32.818 112.987 32.3247 112.987ZM32.3247 118.947C32.1247 118.947 31.9714 118.887 31.8647 118.767C31.758 118.647 31.7047 118.48 31.7047 118.267V114.597C31.7047 114.143 31.9114 113.917 32.3247 113.917C32.7447 113.917 32.9547 114.143 32.9547 114.597V118.267C32.9547 118.48 32.9014 118.647 32.7947 118.767C32.688 118.887 32.5314 118.947 32.3247 118.947ZM34.8735 120.757C34.4602 120.757 34.2535 120.547 34.2535 120.127V114.537C34.2535 114.117 34.4568 113.907 34.8635 113.907C35.2768 113.907 35.4835 114.117 35.4835 114.537V114.747C35.6235 114.487 35.8335 114.28 36.1135 114.127C36.3935 113.967 36.7135 113.887 37.0735 113.887C37.5002 113.887 37.8735 113.99 38.1935 114.197C38.5202 114.403 38.7735 114.697 38.9535 115.077C39.1335 115.45 39.2235 115.9 39.2235 116.427C39.2235 116.947 39.1335 117.4 38.9535 117.787C38.7735 118.167 38.5235 118.46 38.2035 118.667C37.8835 118.873 37.5068 118.977 37.0735 118.977C36.7268 118.977 36.4135 118.903 36.1335 118.757C35.8602 118.603 35.6502 118.4 35.5035 118.147V120.127C35.5035 120.547 35.2935 120.757 34.8735 120.757ZM36.7235 118.027C37.0968 118.027 37.3968 117.893 37.6235 117.627C37.8502 117.353 37.9635 116.953 37.9635 116.427C37.9635 115.893 37.8502 115.497 37.6235 115.237C37.3968 114.97 37.0968 114.837 36.7235 114.837C36.3502 114.837 36.0502 114.97 35.8235 115.237C35.5968 115.497 35.4835 115.893 35.4835 116.427C35.4835 116.953 35.5968 117.353 35.8235 117.627C36.0502 117.893 36.3502 118.027 36.7235 118.027ZM46.3645 118.977C45.6311 118.977 45.0011 118.83 44.4745 118.537C43.9545 118.237 43.5545 117.817 43.2745 117.277C42.9945 116.73 42.8545 116.087 42.8545 115.347C42.8545 114.607 42.9945 113.967 43.2745 113.427C43.5545 112.887 43.9545 112.47 44.4745 112.177C45.0011 111.877 45.6311 111.727 46.3645 111.727C46.7311 111.727 47.0911 111.773 47.4445 111.867C47.7978 111.96 48.1078 112.093 48.3745 112.267C48.5478 112.38 48.6511 112.517 48.6845 112.677C48.7178 112.83 48.6978 112.973 48.6245 113.107C48.5511 113.233 48.4411 113.32 48.2945 113.367C48.1478 113.407 47.9845 113.367 47.8045 113.247C47.5978 113.113 47.3745 113.017 47.1345 112.957C46.8945 112.897 46.6511 112.867 46.4045 112.867C45.6911 112.867 45.1478 113.083 44.7745 113.517C44.4011 113.943 44.2145 114.553 44.2145 115.347C44.2145 116.14 44.4011 116.753 44.7745 117.187C45.1478 117.62 45.6911 117.837 46.4045 117.837C46.6578 117.837 46.9078 117.807 47.1545 117.747C47.4011 117.68 47.6345 117.58 47.8545 117.447C48.0345 117.333 48.1945 117.297 48.3345 117.337C48.4745 117.377 48.5778 117.46 48.6445 117.587C48.7178 117.707 48.7411 117.84 48.7145 117.987C48.6878 118.133 48.5978 118.263 48.4445 118.377C48.1778 118.57 47.8578 118.72 47.4845 118.827C47.1178 118.927 46.7445 118.977 46.3645 118.977ZM51.6398 118.977C51.1331 118.977 50.6931 118.873 50.3198 118.667C49.9464 118.46 49.6564 118.167 49.4498 117.787C49.2431 117.4 49.1398 116.947 49.1398 116.427C49.1398 115.907 49.2431 115.457 49.4498 115.077C49.6564 114.697 49.9464 114.403 50.3198 114.197C50.6931 113.99 51.1331 113.887 51.6398 113.887C52.1464 113.887 52.5864 113.99 52.9598 114.197C53.3331 114.403 53.6231 114.697 53.8298 115.077C54.0364 115.457 54.1398 115.907 54.1398 116.427C54.1398 116.947 54.0364 117.4 53.8298 117.787C53.6231 118.167 53.3331 118.46 52.9598 118.667C52.5864 118.873 52.1464 118.977 51.6398 118.977ZM51.6398 118.027C52.0131 118.027 52.3131 117.893 52.5398 117.627C52.7664 117.353 52.8798 116.953 52.8798 116.427C52.8798 115.893 52.7664 115.497 52.5398 115.237C52.3131 114.97 52.0131 114.837 51.6398 114.837C51.2664 114.837 50.9664 114.97 50.7398 115.237C50.5131 115.497 50.3998 115.893 50.3998 116.427C50.3998 116.953 50.5131 117.353 50.7398 117.627C50.9664 117.893 51.2664 118.027 51.6398 118.027ZM57.0515 118.977C56.6248 118.977 56.2482 118.873 55.9215 118.667C55.6015 118.46 55.3515 118.167 55.1715 117.787C54.9915 117.4 54.9015 116.947 54.9015 116.427C54.9015 115.9 54.9915 115.45 55.1715 115.077C55.3515 114.697 55.6015 114.403 55.9215 114.197C56.2482 113.99 56.6248 113.887 57.0515 113.887C57.3982 113.887 57.7115 113.963 57.9915 114.117C58.2715 114.27 58.4815 114.473 58.6215 114.727V112.377C58.6215 111.957 58.8282 111.747 59.2415 111.747C59.6615 111.747 59.8715 111.957 59.8715 112.377V118.317C59.8715 118.743 59.6648 118.957 59.2515 118.957C58.8382 118.957 58.6315 118.743 58.6315 118.317V118.107C58.4915 118.373 58.2815 118.587 58.0015 118.747C57.7215 118.9 57.4048 118.977 57.0515 118.977ZM57.4015 118.027C57.7748 118.027 58.0748 117.893 58.3015 117.627C58.5282 117.353 58.6415 116.953 58.6415 116.427C58.6415 115.893 58.5282 115.497 58.3015 115.237C58.0748 114.97 57.7748 114.837 57.4015 114.837C57.0282 114.837 56.7282 114.97 56.5015 115.237C56.2748 115.497 56.1615 115.893 56.1615 116.427C56.1615 116.953 56.2748 117.353 56.5015 117.627C56.7282 117.893 57.0282 118.027 57.4015 118.027ZM63.5776 118.977C63.0242 118.977 62.5476 118.873 62.1476 118.667C61.7476 118.46 61.4376 118.167 61.2176 117.787C61.0042 117.407 60.8976 116.957 60.8976 116.437C60.8976 115.93 61.0009 115.487 61.2076 115.107C61.4209 114.727 61.7109 114.43 62.0776 114.217C62.4509 113.997 62.8742 113.887 63.3476 113.887C64.0409 113.887 64.5876 114.107 64.9876 114.547C65.3942 114.987 65.5976 115.587 65.5976 116.347C65.5976 116.593 65.4376 116.717 65.1176 116.717H62.0976C62.1909 117.59 62.6909 118.027 63.5976 118.027C63.7709 118.027 63.9642 118.007 64.1776 117.967C64.3976 117.92 64.6042 117.843 64.7976 117.737C64.9709 117.637 65.1176 117.607 65.2376 117.647C65.3576 117.68 65.4409 117.75 65.4876 117.857C65.5409 117.963 65.5476 118.083 65.5076 118.217C65.4742 118.343 65.3809 118.453 65.2276 118.547C64.9942 118.693 64.7242 118.803 64.4176 118.877C64.1176 118.943 63.8376 118.977 63.5776 118.977ZM63.3976 114.737C63.0309 114.737 62.7342 114.85 62.5076 115.077C62.2809 115.303 62.1442 115.61 62.0976 115.997H64.5576C64.5309 115.59 64.4176 115.28 64.2176 115.067C64.0242 114.847 63.7509 114.737 63.3976 114.737ZM28 132.967C27.2067 132.967 26.59 132.797 26.15 132.457C25.71 132.11 25.49 131.627 25.49 131.007C25.49 130.573 25.6067 130.203 25.84 129.897C26.08 129.59 26.3967 129.38 26.79 129.267C26.4367 129.133 26.16 128.92 25.96 128.627C25.76 128.333 25.66 127.997 25.66 127.617C25.66 127.023 25.87 126.563 26.29 126.237C26.7167 125.903 27.2867 125.737 28 125.737C28.7133 125.737 29.2833 125.903 29.71 126.237C30.1367 126.563 30.35 127.023 30.35 127.617C30.35 127.997 30.2467 128.337 30.04 128.637C29.84 128.93 29.5667 129.14 29.22 129.267C29.6133 129.38 29.9267 129.59 30.16 129.897C30.3933 130.203 30.51 130.573 30.51 131.007C30.51 131.627 30.29 132.11 29.85 132.457C29.41 132.797 28.7933 132.967 28 132.967ZM28 128.967C28.4867 128.967 28.8667 128.853 29.14 128.627C29.42 128.393 29.56 128.08 29.56 127.687C29.56 127.287 29.42 126.977 29.14 126.757C28.8667 126.53 28.4867 126.417 28 126.417C27.5133 126.417 27.1333 126.53 26.86 126.757C26.5867 126.977 26.45 127.287 26.45 127.687C26.45 128.08 26.5867 128.393 26.86 128.627C27.1333 128.853 27.5133 128.967 28 128.967ZM28 132.287C29.1467 132.287 29.72 131.843 29.72 130.957C29.72 130.083 29.1467 129.647 28 129.647C26.8533 129.647 26.28 130.083 26.28 130.957C26.28 131.843 26.8533 132.287 28 132.287ZM33.9961 132.967C33.1894 132.967 32.5761 132.657 32.1561 132.037C31.7361 131.417 31.5261 130.52 31.5261 129.347C31.5261 128.167 31.7361 127.27 32.1561 126.657C32.5761 126.043 33.1894 125.737 33.9961 125.737C34.8094 125.737 35.4228 126.043 35.8361 126.657C36.2561 127.263 36.4661 128.157 36.4661 129.337C36.4661 130.517 36.2528 131.417 35.8261 132.037C35.4061 132.657 34.7961 132.967 33.9961 132.967ZM33.9961 132.257C34.5561 132.257 34.9694 132.02 35.2361 131.547C35.5094 131.067 35.6461 130.33 35.6461 129.337C35.6461 128.337 35.5128 127.607 35.2461 127.147C34.9794 126.68 34.5628 126.447 33.9961 126.447C33.4361 126.447 33.0194 126.68 32.7461 127.147C32.4794 127.613 32.3461 128.343 32.3461 129.337C32.3461 130.33 32.4794 131.067 32.7461 131.547C33.0194 132.02 33.4361 132.257 33.9961 132.257ZM38.5422 132.877C38.2889 132.877 38.1622 132.757 38.1622 132.517C38.1622 132.29 38.2889 132.177 38.5422 132.177H39.8422V126.787L38.8222 127.467C38.7155 127.533 38.6155 127.553 38.5222 127.527C38.4355 127.493 38.3689 127.437 38.3222 127.357C38.2755 127.277 38.2589 127.19 38.2722 127.097C38.2922 127.003 38.3555 126.92 38.4622 126.847L39.8422 125.937C39.9289 125.883 40.0122 125.84 40.0922 125.807C40.1722 125.773 40.2522 125.757 40.3322 125.757C40.4255 125.757 40.5022 125.787 40.5622 125.847C40.6289 125.9 40.6622 125.987 40.6622 126.107V132.177H41.8622C42.1155 132.177 42.2422 132.29 42.2422 132.517C42.2422 132.757 42.1155 132.877 41.8622 132.877H38.5422ZM44.5383 132.877C44.2849 132.877 44.1583 132.757 44.1583 132.517C44.1583 132.29 44.2849 132.177 44.5383 132.177H45.8383V126.787L44.8183 127.467C44.7116 127.533 44.6116 127.553 44.5183 127.527C44.4316 127.493 44.3649 127.437 44.3183 127.357C44.2716 127.277 44.2549 127.19 44.2683 127.097C44.2883 127.003 44.3516 126.92 44.4583 126.847L45.8383 125.937C45.9249 125.883 46.0083 125.84 46.0883 125.807C46.1683 125.773 46.2483 125.757 46.3283 125.757C46.4216 125.757 46.4983 125.787 46.5583 125.847C46.6249 125.9 46.6583 125.987 46.6583 126.107V132.177H47.8583C48.1116 132.177 48.2383 132.29 48.2383 132.517C48.2383 132.757 48.1116 132.877 47.8583 132.877H44.5383ZM50.5344 132.877C50.281 132.877 50.1544 132.757 50.1544 132.517C50.1544 132.29 50.281 132.177 50.5344 132.177H51.8344V126.787L50.8144 127.467C50.7077 127.533 50.6077 127.553 50.5144 127.527C50.4277 127.493 50.361 127.437 50.3144 127.357C50.2677 127.277 50.251 127.19 50.2644 127.097C50.2844 127.003 50.3477 126.92 50.4544 126.847L51.8344 125.937C51.921 125.883 52.0044 125.84 52.0844 125.807C52.1644 125.773 52.2444 125.757 52.3244 125.757C52.4177 125.757 52.4944 125.787 52.5544 125.847C52.621 125.9 52.6544 125.987 52.6544 126.107V132.177H53.8544C54.1077 132.177 54.2344 132.29 54.2344 132.517C54.2344 132.757 54.1077 132.877 53.8544 132.877H50.5344Z" fill="#231F21"/>
<path d="M124.84 34.9566C124.607 34.9566 124.44 34.8766 124.34 34.7166C124.24 34.5566 124.243 34.3633 124.35 34.1366L126.99 28.2866C127.077 28.0933 127.18 27.9566 127.3 27.8766C127.427 27.7899 127.57 27.7466 127.73 27.7466C127.883 27.7466 128.02 27.7899 128.14 27.8766C128.267 27.9566 128.373 28.0933 128.46 28.2866L131.11 34.1366C131.217 34.3699 131.223 34.5666 131.13 34.7266C131.037 34.8799 130.877 34.9566 130.65 34.9566C130.463 34.9566 130.317 34.9133 130.21 34.8266C130.11 34.7333 130.02 34.5933 129.94 34.4066L129.44 33.2466H126L125.51 34.4066C125.423 34.5999 125.333 34.7399 125.24 34.8266C125.147 34.9133 125.013 34.9566 124.84 34.9566ZM127.71 29.2166L126.44 32.2266H129L127.73 29.2166H127.71ZM133.923 34.9766C133.496 34.9766 133.119 34.8733 132.793 34.6666C132.473 34.4599 132.223 34.1666 132.043 33.7866C131.863 33.3999 131.773 32.9466 131.773 32.4266C131.773 31.8999 131.863 31.4499 132.043 31.0766C132.223 30.6966 132.473 30.4033 132.793 30.1966C133.119 29.9899 133.496 29.8866 133.923 29.8866C134.269 29.8866 134.583 29.9633 134.863 30.1166C135.143 30.2699 135.353 30.4733 135.493 30.7266V28.3766C135.493 27.9566 135.699 27.7466 136.113 27.7466C136.533 27.7466 136.743 27.9566 136.743 28.3766V34.3166C136.743 34.7433 136.536 34.9566 136.123 34.9566C135.709 34.9566 135.503 34.7433 135.503 34.3166V34.1066C135.363 34.3733 135.153 34.5866 134.873 34.7466C134.593 34.8999 134.276 34.9766 133.923 34.9766ZM134.273 34.0266C134.646 34.0266 134.946 33.8933 135.173 33.6266C135.399 33.3533 135.513 32.9533 135.513 32.4266C135.513 31.8933 135.399 31.4966 135.173 31.2366C134.946 30.9699 134.646 30.8366 134.273 30.8366C133.899 30.8366 133.599 30.9699 133.373 31.2366C133.146 31.4966 133.033 31.8933 133.033 32.4266C133.033 32.9533 133.146 33.3533 133.373 33.6266C133.599 33.8933 133.899 34.0266 134.273 34.0266ZM139.919 34.9766C139.492 34.9766 139.115 34.8733 138.789 34.6666C138.469 34.4599 138.219 34.1666 138.039 33.7866C137.859 33.3999 137.769 32.9466 137.769 32.4266C137.769 31.8999 137.859 31.4499 138.039 31.0766C138.219 30.6966 138.469 30.4033 138.789 30.1966C139.115 29.9899 139.492 29.8866 139.919 29.8866C140.265 29.8866 140.579 29.9633 140.859 30.1166C141.139 30.2699 141.349 30.4733 141.489 30.7266V28.3766C141.489 27.9566 141.695 27.7466 142.109 27.7466C142.529 27.7466 142.739 27.9566 142.739 28.3766V34.3166C142.739 34.7433 142.532 34.9566 142.119 34.9566C141.705 34.9566 141.499 34.7433 141.499 34.3166V34.1066C141.359 34.3733 141.149 34.5866 140.869 34.7466C140.589 34.8999 140.272 34.9766 139.919 34.9766ZM140.269 34.0266C140.642 34.0266 140.942 33.8933 141.169 33.6266C141.395 33.3533 141.509 32.9533 141.509 32.4266C141.509 31.8933 141.395 31.4966 141.169 31.2366C140.942 30.9699 140.642 30.8366 140.269 30.8366C139.895 30.8366 139.595 30.9699 139.369 31.2366C139.142 31.4966 139.029 31.8933 139.029 32.4266C139.029 32.9533 139.142 33.3533 139.369 33.6266C139.595 33.8933 139.895 34.0266 140.269 34.0266ZM144.675 34.9566C144.248 34.9566 144.035 34.7433 144.035 34.3166V30.5366C144.035 30.1166 144.238 29.9066 144.645 29.9066C145.051 29.9066 145.255 30.1166 145.255 30.5366V30.8466C145.495 30.2733 146.008 29.9533 146.795 29.8866C147.081 29.8533 147.241 30.0166 147.275 30.3766C147.308 30.7299 147.135 30.9266 146.755 30.9666L146.535 30.9866C145.715 31.0666 145.305 31.4866 145.305 32.2466V34.3166C145.305 34.7433 145.095 34.9566 144.675 34.9566ZM150.283 34.9766C149.729 34.9766 149.253 34.8733 148.853 34.6666C148.453 34.4599 148.143 34.1666 147.923 33.7866C147.709 33.4066 147.603 32.9566 147.603 32.4366C147.603 31.9299 147.706 31.4866 147.913 31.1066C148.126 30.7266 148.416 30.4299 148.783 30.2166C149.156 29.9966 149.579 29.8866 150.053 29.8866C150.746 29.8866 151.293 30.1066 151.693 30.5466C152.099 30.9866 152.303 31.5866 152.303 32.3466C152.303 32.5933 152.143 32.7166 151.823 32.7166H148.803C148.896 33.5899 149.396 34.0266 150.303 34.0266C150.476 34.0266 150.669 34.0066 150.883 33.9666C151.103 33.9199 151.309 33.8433 151.503 33.7366C151.676 33.6366 151.823 33.6066 151.943 33.6466C152.063 33.6799 152.146 33.7499 152.193 33.8566C152.246 33.9633 152.253 34.0833 152.213 34.2166C152.179 34.3433 152.086 34.4533 151.933 34.5466C151.699 34.6933 151.429 34.8033 151.123 34.8766C150.823 34.9433 150.543 34.9766 150.283 34.9766ZM150.103 30.7366C149.736 30.7366 149.439 30.8499 149.213 31.0766C148.986 31.3033 148.849 31.6099 148.803 31.9966H151.263C151.236 31.5899 151.123 31.2799 150.923 31.0666C150.729 30.8466 150.456 30.7366 150.103 30.7366ZM155.083 34.9766C154.796 34.9766 154.493 34.9466 154.173 34.8866C153.853 34.8266 153.566 34.7233 153.313 34.5766C153.173 34.4966 153.086 34.3999 153.053 34.2866C153.019 34.1666 153.023 34.0566 153.063 33.9566C153.109 33.8499 153.183 33.7733 153.283 33.7266C153.389 33.6799 153.513 33.6899 153.653 33.7566C153.919 33.8833 154.169 33.9733 154.403 34.0266C154.636 34.0733 154.866 34.0966 155.093 34.0966C155.413 34.0966 155.649 34.0433 155.803 33.9366C155.963 33.8233 156.043 33.6766 156.043 33.4966C156.043 33.2166 155.836 33.0366 155.423 32.9566L154.423 32.7666C153.576 32.6066 153.153 32.1666 153.153 31.4466C153.153 31.1266 153.239 30.8499 153.413 30.6166C153.593 30.3833 153.839 30.2033 154.153 30.0766C154.466 29.9499 154.826 29.8866 155.233 29.8866C155.819 29.8866 156.343 30.0166 156.803 30.2766C156.929 30.3433 157.003 30.4366 157.023 30.5566C157.049 30.6699 157.036 30.7799 156.983 30.8866C156.936 30.9866 156.859 31.0599 156.753 31.1066C156.646 31.1466 156.523 31.1333 156.383 31.0666C156.176 30.9599 155.976 30.8833 155.783 30.8366C155.596 30.7899 155.416 30.7666 155.243 30.7666C154.916 30.7666 154.673 30.8233 154.513 30.9366C154.359 31.0499 154.283 31.1999 154.283 31.3866C154.283 31.6799 154.473 31.8599 154.853 31.9266L155.853 32.1166C156.286 32.1966 156.613 32.3433 156.833 32.5566C157.059 32.7699 157.173 33.0566 157.173 33.4166C157.173 33.9033 156.983 34.2866 156.603 34.5666C156.223 34.8399 155.716 34.9766 155.083 34.9766ZM159.965 34.9766C159.679 34.9766 159.375 34.9466 159.055 34.8866C158.735 34.8266 158.449 34.7233 158.195 34.5766C158.055 34.4966 157.969 34.3999 157.935 34.2866C157.902 34.1666 157.905 34.0566 157.945 33.9566C157.992 33.8499 158.065 33.7733 158.165 33.7266C158.272 33.6799 158.395 33.6899 158.535 33.7566C158.802 33.8833 159.052 33.9733 159.285 34.0266C159.519 34.0733 159.749 34.0966 159.975 34.0966C160.295 34.0966 160.532 34.0433 160.685 33.9366C160.845 33.8233 160.925 33.6766 160.925 33.4966C160.925 33.2166 160.719 33.0366 160.305 32.9566L159.305 32.7666C158.459 32.6066 158.035 32.1666 158.035 31.4466C158.035 31.1266 158.122 30.8499 158.295 30.6166C158.475 30.3833 158.722 30.2033 159.035 30.0766C159.349 29.9499 159.709 29.8866 160.115 29.8866C160.702 29.8866 161.225 30.0166 161.685 30.2766C161.812 30.3433 161.885 30.4366 161.905 30.5566C161.932 30.6699 161.919 30.7799 161.865 30.8866C161.819 30.9866 161.742 31.0599 161.635 31.1066C161.529 31.1466 161.405 31.1333 161.265 31.0666C161.059 30.9599 160.859 30.8833 160.665 30.8366C160.479 30.7899 160.299 30.7666 160.125 30.7666C159.799 30.7666 159.555 30.8233 159.395 30.9366C159.242 31.0499 159.165 31.1999 159.165 31.3866C159.165 31.6799 159.355 31.8599 159.735 31.9266L160.735 32.1166C161.169 32.1966 161.495 32.3433 161.715 32.5566C161.942 32.7699 162.055 33.0566 162.055 33.4166C162.055 33.9033 161.865 34.2866 161.485 34.5666C161.105 34.8399 160.599 34.9766 159.965 34.9766ZM128.09 48.9666C126.957 48.9666 126.093 48.6466 125.5 48.0066C124.907 47.3666 124.61 46.4833 124.61 45.3566C124.61 44.6099 124.743 43.9666 125.01 43.4266C125.277 42.8866 125.66 42.4699 126.16 42.1766C126.66 41.8833 127.263 41.7366 127.97 41.7366C128.39 41.7366 128.797 41.7966 129.19 41.9166C129.583 42.0299 129.933 42.2133 130.24 42.4666C130.333 42.5333 130.387 42.6166 130.4 42.7166C130.413 42.8099 130.393 42.8999 130.34 42.9866C130.293 43.0666 130.223 43.1199 130.13 43.1466C130.043 43.1733 129.95 43.1533 129.85 43.0866C129.577 42.8733 129.287 42.7199 128.98 42.6266C128.673 42.5266 128.333 42.4766 127.96 42.4766C127.16 42.4766 126.547 42.7299 126.12 43.2366C125.693 43.7366 125.48 44.4433 125.48 45.3566C125.48 46.2899 125.7 47.0033 126.14 47.4966C126.58 47.9899 127.237 48.2366 128.11 48.2366C128.677 48.2366 129.22 48.1399 129.74 47.9466V45.8566H128.31C128.07 45.8566 127.95 45.7466 127.95 45.5266C127.95 45.3133 128.07 45.2066 128.31 45.2066H130.1C130.333 45.2066 130.45 45.3233 130.45 45.5566V48.1666C130.45 48.3733 130.377 48.5066 130.23 48.5666C129.95 48.6866 129.613 48.7833 129.22 48.8566C128.833 48.9299 128.457 48.9666 128.09 48.9666ZM133.546 48.9666C133.213 48.9666 132.913 48.9033 132.646 48.7766C132.386 48.6433 132.179 48.4633 132.026 48.2366C131.873 48.0099 131.796 47.7566 131.796 47.4766C131.796 47.1233 131.886 46.8433 132.066 46.6366C132.253 46.4299 132.556 46.2833 132.976 46.1966C133.403 46.1033 133.983 46.0566 134.716 46.0566H135.036V45.7466C135.036 45.3333 134.949 45.0366 134.776 44.8566C134.609 44.6699 134.339 44.5766 133.966 44.5766C133.733 44.5766 133.496 44.6066 133.256 44.6666C133.023 44.7266 132.779 44.8233 132.526 44.9566C132.413 45.0166 132.316 45.0299 132.236 44.9966C132.163 44.9566 132.109 44.8966 132.076 44.8166C132.049 44.7299 132.049 44.6433 132.076 44.5566C132.109 44.4633 132.176 44.3933 132.276 44.3466C132.563 44.1999 132.849 44.0933 133.136 44.0266C133.429 43.9599 133.706 43.9266 133.966 43.9266C134.593 43.9266 135.056 44.0799 135.356 44.3866C135.663 44.6933 135.816 45.1699 135.816 45.8166V48.5266C135.816 48.8066 135.693 48.9466 135.446 48.9466C135.186 48.9466 135.056 48.8066 135.056 48.5266V48.0366C134.929 48.3233 134.733 48.5499 134.466 48.7166C134.206 48.8833 133.899 48.9666 133.546 48.9666ZM133.676 48.3566C134.076 48.3566 134.403 48.2199 134.656 47.9466C134.909 47.6666 135.036 47.3133 135.036 46.8866V46.5866H134.726C134.186 46.5866 133.759 46.6133 133.446 46.6666C133.139 46.7133 132.923 46.7999 132.796 46.9266C132.676 47.0466 132.616 47.2133 132.616 47.4266C132.616 47.6999 132.709 47.9233 132.896 48.0966C133.089 48.2699 133.349 48.3566 133.676 48.3566ZM137.719 48.9466C137.452 48.9466 137.319 48.8066 137.319 48.5266V44.3566C137.319 44.0833 137.449 43.9466 137.709 43.9466C137.975 43.9466 138.109 44.0833 138.109 44.3566V44.8466C138.269 44.5399 138.495 44.3099 138.789 44.1566C139.082 44.0033 139.412 43.9266 139.779 43.9266C140.932 43.9266 141.509 44.5666 141.509 45.8466V48.5266C141.509 48.8066 141.375 48.9466 141.109 48.9466C140.835 48.9466 140.699 48.8066 140.699 48.5266V45.8966C140.699 45.4433 140.609 45.1133 140.429 44.9066C140.255 44.6933 139.975 44.5866 139.589 44.5866C139.142 44.5866 138.785 44.7266 138.519 45.0066C138.259 45.2799 138.129 45.6466 138.129 46.1066V48.5266C138.129 48.8066 137.992 48.9466 137.719 48.9466ZM145.152 50.7666C144.799 50.7666 144.452 50.7233 144.112 50.6366C143.779 50.5566 143.476 50.4266 143.202 50.2466C143.102 50.1866 143.042 50.1133 143.022 50.0266C143.009 49.9466 143.022 49.8666 143.062 49.7866C143.102 49.7133 143.159 49.6599 143.232 49.6266C143.312 49.5933 143.396 49.5999 143.482 49.6466C143.776 49.8266 144.056 49.9499 144.322 50.0166C144.589 50.0833 144.852 50.1166 145.112 50.1166C146.072 50.1166 146.552 49.6233 146.552 48.6366V47.7766C146.412 48.0833 146.192 48.3266 145.892 48.5066C145.599 48.6799 145.262 48.7666 144.882 48.7666C144.436 48.7666 144.049 48.6633 143.722 48.4566C143.396 48.2499 143.142 47.9666 142.962 47.6066C142.789 47.2399 142.702 46.8166 142.702 46.3366C142.702 45.8566 142.789 45.4366 142.962 45.0766C143.142 44.7099 143.396 44.4266 143.722 44.2266C144.049 44.0266 144.436 43.9266 144.882 43.9266C145.262 43.9266 145.599 44.0099 145.892 44.1766C146.186 44.3433 146.402 44.5766 146.542 44.8766V44.3566C146.542 44.0833 146.676 43.9466 146.942 43.9466C147.209 43.9466 147.342 44.0833 147.342 44.3566V48.5266C147.342 49.2733 147.156 49.8333 146.782 50.2066C146.416 50.5799 145.872 50.7666 145.152 50.7666ZM145.032 48.1066C145.499 48.1066 145.869 47.9466 146.142 47.6266C146.416 47.3066 146.552 46.8766 146.552 46.3366C146.552 45.7966 146.416 45.3699 146.142 45.0566C145.869 44.7366 145.499 44.5766 145.032 44.5766C144.572 44.5766 144.206 44.7366 143.932 45.0566C143.659 45.3699 143.522 45.7966 143.522 46.3366C143.522 46.8766 143.659 47.3066 143.932 47.6266C144.206 47.9466 144.572 48.1066 145.032 48.1066ZM153.83 48.9666C153.35 48.9666 152.896 48.9099 152.47 48.7966C152.05 48.6766 151.686 48.5033 151.38 48.2766C151.273 48.2033 151.21 48.1166 151.19 48.0166C151.17 47.9166 151.18 47.8233 151.22 47.7366C151.266 47.6499 151.333 47.5933 151.42 47.5666C151.506 47.5333 151.606 47.5533 151.72 47.6266C152.02 47.8466 152.34 48.0033 152.68 48.0966C153.02 48.1899 153.403 48.2366 153.83 48.2366C154.43 48.2366 154.873 48.1266 155.16 47.9066C155.453 47.6799 155.6 47.3833 155.6 47.0166C155.6 46.7233 155.493 46.4899 155.28 46.3166C155.073 46.1433 154.723 46.0066 154.23 45.9066L153.19 45.6966C152.563 45.5633 152.093 45.3466 151.78 45.0466C151.473 44.7399 151.32 44.3333 151.32 43.8266C151.32 43.4066 151.426 43.0399 151.64 42.7266C151.86 42.4133 152.163 42.1699 152.55 41.9966C152.936 41.8233 153.383 41.7366 153.89 41.7366C154.31 41.7366 154.7 41.7966 155.06 41.9166C155.426 42.0299 155.756 42.2033 156.05 42.4366C156.143 42.5099 156.196 42.5966 156.21 42.6966C156.23 42.7899 156.216 42.8766 156.17 42.9566C156.123 43.0366 156.056 43.0899 155.97 43.1166C155.883 43.1366 155.78 43.1099 155.66 43.0366C155.393 42.8299 155.113 42.6833 154.82 42.5966C154.533 42.5099 154.22 42.4666 153.88 42.4666C153.353 42.4666 152.933 42.5899 152.62 42.8366C152.306 43.0766 152.15 43.3966 152.15 43.7966C152.15 44.1166 152.246 44.3699 152.44 44.5566C152.64 44.7433 152.963 44.8799 153.41 44.9666L154.45 45.1866C155.123 45.3266 155.62 45.5399 155.94 45.8266C156.266 46.1066 156.43 46.4899 156.43 46.9766C156.43 47.3699 156.323 47.7166 156.11 48.0166C155.903 48.3166 155.603 48.5499 155.21 48.7166C154.823 48.8833 154.363 48.9666 153.83 48.9666ZM159.122 48.9666C158.789 48.9666 158.489 48.9033 158.222 48.7766C157.962 48.6433 157.755 48.4633 157.602 48.2366C157.449 48.0099 157.372 47.7566 157.372 47.4766C157.372 47.1233 157.462 46.8433 157.642 46.6366C157.829 46.4299 158.132 46.2833 158.552 46.1966C158.979 46.1033 159.559 46.0566 160.292 46.0566H160.612V45.7466C160.612 45.3333 160.525 45.0366 160.352 44.8566C160.185 44.6699 159.915 44.5766 159.542 44.5766C159.309 44.5766 159.072 44.6066 158.832 44.6666C158.599 44.7266 158.355 44.8233 158.102 44.9566C157.989 45.0166 157.892 45.0299 157.812 44.9966C157.739 44.9566 157.685 44.8966 157.652 44.8166C157.625 44.7299 157.625 44.6433 157.652 44.5566C157.685 44.4633 157.752 44.3933 157.852 44.3466C158.139 44.1999 158.425 44.0933 158.712 44.0266C159.005 43.9599 159.282 43.9266 159.542 43.9266C160.169 43.9266 160.632 44.0799 160.932 44.3866C161.239 44.6933 161.392 45.1699 161.392 45.8166V48.5266C161.392 48.8066 161.269 48.9466 161.022 48.9466C160.762 48.9466 160.632 48.8066 160.632 48.5266V48.0366C160.505 48.3233 160.309 48.5499 160.042 48.7166C159.782 48.8833 159.475 48.9666 159.122 48.9666ZM159.252 48.3566C159.652 48.3566 159.979 48.2199 160.232 47.9466C160.485 47.6666 160.612 47.3133 160.612 46.8866V46.5866H160.302C159.762 46.5866 159.335 46.6133 159.022 46.6666C158.715 46.7133 158.499 46.7999 158.372 46.9266C158.252 47.0466 158.192 47.2133 158.192 47.4266C158.192 47.6999 158.285 47.9233 158.472 48.0966C158.665 48.2699 158.925 48.3566 159.252 48.3566ZM164.526 48.9466C164.279 48.9466 164.109 48.8199 164.016 48.5666L162.526 44.5166C162.459 44.3433 162.459 44.2066 162.526 44.1066C162.599 43.9999 162.713 43.9466 162.866 43.9466C162.966 43.9466 163.046 43.9699 163.106 44.0166C163.173 44.0633 163.226 44.1499 163.266 44.2766L164.546 47.9266L165.866 44.2766C165.946 44.0566 166.096 43.9466 166.316 43.9466C166.529 43.9466 166.676 44.0566 166.756 44.2766L168.056 47.9366L169.356 44.2566C169.403 44.1366 169.456 44.0566 169.516 44.0166C169.583 43.9699 169.666 43.9466 169.766 43.9466C169.926 43.9466 170.029 44.0066 170.076 44.1266C170.123 44.2399 170.116 44.3699 170.056 44.5166L168.566 48.5666C168.466 48.8199 168.296 48.9466 168.056 48.9466C167.809 48.9466 167.643 48.8199 167.556 48.5666L166.296 45.1066L165.036 48.5666C164.943 48.8199 164.773 48.9466 164.526 48.9466ZM171.654 42.8466C171.301 42.8466 171.124 42.6799 171.124 42.3466C171.124 42.0199 171.301 41.8566 171.654 41.8566C172.007 41.8566 172.184 42.0199 172.184 42.3466C172.184 42.6799 172.007 42.8466 171.654 42.8466ZM171.654 48.9266C171.387 48.9266 171.254 48.7799 171.254 48.4866V44.3966C171.254 44.1099 171.387 43.9666 171.654 43.9666C171.927 43.9666 172.064 44.1099 172.064 44.3966V48.4866C172.064 48.7799 171.927 48.9266 171.654 48.9266ZM175.528 48.9666C174.955 48.9666 174.525 48.8166 174.238 48.5166C173.952 48.2099 173.808 47.7699 173.808 47.1966V44.6466H173.138C172.905 44.6466 172.788 44.5399 172.788 44.3266C172.788 44.1199 172.905 44.0166 173.138 44.0166H173.808V42.8666C173.808 42.5933 173.945 42.4566 174.218 42.4566C174.485 42.4566 174.618 42.5933 174.618 42.8666V44.0166H175.878C176.112 44.0166 176.228 44.1199 176.228 44.3266C176.228 44.5399 176.112 44.6466 175.878 44.6466H174.618V47.1166C174.618 47.4966 174.698 47.7866 174.858 47.9866C175.018 48.1799 175.278 48.2766 175.638 48.2766C175.765 48.2766 175.872 48.2633 175.958 48.2366C176.045 48.2099 176.122 48.1966 176.188 48.1966C176.248 48.1899 176.298 48.2099 176.338 48.2566C176.378 48.3033 176.398 48.3833 176.398 48.4966C176.398 48.5766 176.382 48.6499 176.348 48.7166C176.322 48.7833 176.272 48.8299 176.198 48.8566C176.118 48.8833 176.012 48.9066 175.878 48.9266C175.752 48.9533 175.635 48.9666 175.528 48.9666ZM180.173 48.9466C179.899 48.9466 179.763 48.8033 179.763 48.5166V42.2466C179.763 41.9666 179.903 41.8266 180.183 41.8266H182.553C183.313 41.8266 183.893 42.0033 184.293 42.3566C184.699 42.7099 184.903 43.2133 184.903 43.8666C184.903 44.3866 184.759 44.8133 184.473 45.1466C184.193 45.4799 183.793 45.6966 183.273 45.7966C183.579 45.9033 183.843 46.1633 184.063 46.5766L185.023 48.3666C185.096 48.5066 185.109 48.6399 185.063 48.7666C185.016 48.8866 184.909 48.9466 184.743 48.9466C184.629 48.9466 184.536 48.9233 184.463 48.8766C184.389 48.8233 184.326 48.7433 184.273 48.6366L183.183 46.6166C183.029 46.3299 182.853 46.1399 182.653 46.0466C182.453 45.9466 182.189 45.8966 181.863 45.8966H180.583V48.5166C180.583 48.8033 180.446 48.9466 180.173 48.9466ZM180.583 45.2466H182.433C183.539 45.2466 184.093 44.7866 184.093 43.8666C184.093 42.9599 183.539 42.5066 182.433 42.5066H180.583V45.2466ZM188.605 48.9466C188.385 48.9466 188.228 48.8199 188.135 48.5666L185.925 42.2566C185.878 42.1099 185.888 41.9899 185.955 41.8966C186.021 41.8033 186.135 41.7566 186.295 41.7566C186.508 41.7566 186.655 41.8733 186.735 42.1066L188.625 47.6766L190.565 42.1366C190.651 41.8833 190.798 41.7566 191.005 41.7566C191.111 41.7566 191.195 41.7899 191.255 41.8566C191.321 41.9166 191.378 42.0099 191.425 42.1366L193.345 47.7266L195.285 42.1066C195.358 41.8733 195.501 41.7566 195.715 41.7566C195.855 41.7566 195.955 41.8033 196.015 41.8966C196.081 41.9899 196.091 42.1099 196.045 42.2566L193.825 48.5666C193.778 48.6933 193.718 48.7899 193.645 48.8566C193.578 48.9166 193.481 48.9466 193.355 48.9466C193.235 48.9466 193.138 48.9166 193.065 48.8566C192.991 48.7899 192.931 48.6933 192.885 48.5666L190.985 43.0766L189.065 48.5666C189.018 48.6933 188.961 48.7899 188.895 48.8566C188.828 48.9166 188.731 48.9466 188.605 48.9466ZM200.349 48.8766C200.195 48.8766 200.085 48.8433 200.019 48.7766C199.952 48.7033 199.919 48.6066 199.919 48.4866C199.919 48.3466 199.989 48.2033 200.129 48.0566L202.369 45.6566C202.709 45.2899 202.952 44.9533 203.099 44.6466C203.252 44.3333 203.329 44.0166 203.329 43.6966C203.329 42.8766 202.852 42.4666 201.899 42.4666C201.305 42.4666 200.765 42.6566 200.279 43.0366C200.172 43.1166 200.075 43.1466 199.989 43.1266C199.902 43.0999 199.835 43.0466 199.789 42.9666C199.749 42.8866 199.732 42.7999 199.739 42.7066C199.752 42.6066 199.809 42.5199 199.909 42.4466C200.169 42.2333 200.482 42.0633 200.849 41.9366C201.215 41.8033 201.589 41.7366 201.969 41.7366C202.675 41.7366 203.215 41.9033 203.589 42.2366C203.969 42.5633 204.159 43.0299 204.159 43.6366C204.159 44.0566 204.055 44.4699 203.849 44.8766C203.649 45.2766 203.332 45.7033 202.899 46.1566L200.999 48.1766H204.139C204.392 48.1766 204.519 48.2899 204.519 48.5166C204.519 48.7566 204.392 48.8766 204.139 48.8766H200.349ZM208.913 48.9466C208.639 48.9466 208.503 48.8033 208.503 48.5166V42.2466C208.503 41.9666 208.643 41.8266 208.923 41.8266H211.293C212.053 41.8266 212.633 42.0033 213.033 42.3566C213.439 42.7099 213.643 43.2133 213.643 43.8666C213.643 44.3866 213.499 44.8133 213.213 45.1466C212.933 45.4799 212.533 45.6966 212.013 45.7966C212.319 45.9033 212.583 46.1633 212.803 46.5766L213.763 48.3666C213.836 48.5066 213.849 48.6399 213.803 48.7666C213.756 48.8866 213.649 48.9466 213.483 48.9466C213.369 48.9466 213.276 48.9233 213.203 48.8766C213.129 48.8233 213.066 48.7433 213.013 48.6366L211.923 46.6166C211.769 46.3299 211.593 46.1399 211.393 46.0466C211.193 45.9466 210.929 45.8966 210.603 45.8966H209.323V48.5166C209.323 48.8033 209.186 48.9466 208.913 48.9466ZM209.323 45.2466H211.173C212.279 45.2466 212.833 44.7866 212.833 43.8666C212.833 42.9599 212.279 42.5066 211.173 42.5066H209.323V45.2466ZM217.137 48.9466C216.864 48.9466 216.727 48.8033 216.727 48.5166V42.5366H214.477C214.224 42.5366 214.097 42.4166 214.097 42.1766C214.097 41.9433 214.224 41.8266 214.477 41.8266H219.807C220.06 41.8266 220.187 41.9433 220.187 42.1766C220.187 42.4166 220.06 42.5366 219.807 42.5366H217.557V48.5166C217.557 48.8033 217.417 48.9466 217.137 48.9466ZM225.641 48.9666C225.247 48.9666 224.857 48.9099 224.471 48.7966C224.084 48.6833 223.747 48.5166 223.461 48.2966C223.354 48.2166 223.291 48.1299 223.271 48.0366C223.257 47.9366 223.271 47.8466 223.311 47.7666C223.357 47.6866 223.427 47.6366 223.521 47.6166C223.614 47.5899 223.717 47.6133 223.831 47.6866C224.124 47.8799 224.417 48.0199 224.711 48.1066C225.004 48.1933 225.307 48.2366 225.621 48.2366C226.127 48.2366 226.514 48.1266 226.781 47.9066C227.054 47.6799 227.191 47.3499 227.191 46.9166C227.191 46.5033 227.054 46.1899 226.781 45.9766C226.507 45.7633 226.111 45.6566 225.591 45.6566H224.881C224.621 45.6566 224.491 45.5366 224.491 45.2966C224.491 45.0633 224.621 44.9466 224.881 44.9466H225.521C225.974 44.9466 226.331 44.8299 226.591 44.5966C226.857 44.3566 226.991 44.0299 226.991 43.6166C226.991 43.2499 226.867 42.9666 226.621 42.7666C226.381 42.5666 226.037 42.4666 225.591 42.4666C225.284 42.4666 224.997 42.5099 224.731 42.5966C224.471 42.6833 224.211 42.8299 223.951 43.0366C223.851 43.1099 223.754 43.1366 223.661 43.1166C223.574 43.0966 223.504 43.0499 223.451 42.9766C223.404 42.8966 223.387 42.8066 223.401 42.7066C223.421 42.6066 223.484 42.5166 223.591 42.4366C223.851 42.2166 224.161 42.0466 224.521 41.9266C224.881 41.7999 225.254 41.7366 225.641 41.7366C226.321 41.7366 226.851 41.8966 227.231 42.2166C227.617 42.5366 227.811 42.9799 227.811 43.5466C227.811 43.9399 227.711 44.2866 227.511 44.5866C227.311 44.8799 227.034 45.0933 226.681 45.2266C227.101 45.3399 227.427 45.5499 227.661 45.8566C227.894 46.1566 228.011 46.5299 228.011 46.9766C228.011 47.5833 227.797 48.0666 227.371 48.4266C226.951 48.7866 226.374 48.9666 225.641 48.9666ZM128.05 76.9766C127.317 76.9766 126.687 76.8299 126.16 76.5366C125.64 76.2366 125.24 75.8166 124.96 75.2766C124.68 74.7299 124.54 74.0866 124.54 73.3466C124.54 72.6066 124.68 71.9666 124.96 71.4266C125.24 70.8866 125.64 70.4699 126.16 70.1766C126.687 69.8766 127.317 69.7266 128.05 69.7266C128.417 69.7266 128.777 69.7733 129.13 69.8666C129.483 69.9599 129.793 70.0933 130.06 70.2666C130.233 70.3799 130.337 70.5166 130.37 70.6766C130.403 70.8299 130.383 70.9733 130.31 71.1066C130.237 71.2333 130.127 71.3199 129.98 71.3666C129.833 71.4066 129.67 71.3666 129.49 71.2466C129.283 71.1133 129.06 71.0166 128.82 70.9566C128.58 70.8966 128.337 70.8666 128.09 70.8666C127.377 70.8666 126.833 71.0833 126.46 71.5166C126.087 71.9433 125.9 72.5533 125.9 73.3466C125.9 74.1399 126.087 74.7533 126.46 75.1866C126.833 75.6199 127.377 75.8366 128.09 75.8366C128.343 75.8366 128.593 75.8066 128.84 75.7466C129.087 75.6799 129.32 75.5799 129.54 75.4466C129.72 75.3333 129.88 75.2966 130.02 75.3366C130.16 75.3766 130.263 75.4599 130.33 75.5866C130.403 75.7066 130.427 75.8399 130.4 75.9866C130.373 76.1333 130.283 76.2633 130.13 76.3766C129.863 76.5699 129.543 76.7199 129.17 76.8266C128.803 76.9266 128.43 76.9766 128.05 76.9766ZM132.067 70.9866C131.834 70.9866 131.65 70.9299 131.517 70.8166C131.39 70.6966 131.327 70.5333 131.327 70.3266C131.327 70.1133 131.39 69.9499 131.517 69.8366C131.65 69.7233 131.834 69.6666 132.067 69.6666C132.56 69.6666 132.807 69.8866 132.807 70.3266C132.807 70.7666 132.56 70.9866 132.067 70.9866ZM132.067 76.9466C131.867 76.9466 131.714 76.8866 131.607 76.7666C131.5 76.6466 131.447 76.4799 131.447 76.2666V72.5966C131.447 72.1433 131.654 71.9166 132.067 71.9166C132.487 71.9166 132.697 72.1433 132.697 72.5966V76.2666C132.697 76.4799 132.644 76.6466 132.537 76.7666C132.43 76.8866 132.274 76.9466 132.067 76.9466ZM136.236 76.9766C134.942 76.9766 134.296 76.3366 134.296 75.0566V72.9266H133.776C133.442 72.9266 133.276 72.7699 133.276 72.4566C133.276 72.1433 133.442 71.9866 133.776 71.9866H134.296V71.0766C134.296 70.6566 134.506 70.4466 134.926 70.4466C135.339 70.4466 135.546 70.6566 135.546 71.0766V71.9866H136.606C136.939 71.9866 137.106 72.1433 137.106 72.4566C137.106 72.7699 136.939 72.9266 136.606 72.9266H135.546V74.9866C135.546 75.3066 135.616 75.5466 135.756 75.7066C135.896 75.8666 136.122 75.9466 136.436 75.9466C136.549 75.9466 136.649 75.9366 136.736 75.9166C136.822 75.8966 136.899 75.8833 136.966 75.8766C137.046 75.8699 137.112 75.8966 137.166 75.9566C137.219 76.0099 137.246 76.1233 137.246 76.2966C137.246 76.4299 137.222 76.5499 137.176 76.6566C137.136 76.7566 137.059 76.8266 136.946 76.8666C136.859 76.8933 136.746 76.9166 136.606 76.9366C136.466 76.9633 136.342 76.9766 136.236 76.9766ZM139.152 78.7566C138.925 78.7566 138.768 78.6733 138.682 78.5066C138.595 78.3399 138.598 78.1499 138.692 77.9366L139.262 76.6766L137.552 72.7366C137.458 72.5166 137.458 72.3233 137.552 72.1566C137.645 71.9899 137.828 71.9066 138.102 71.9066C138.255 71.9066 138.378 71.9433 138.472 72.0166C138.565 72.0833 138.648 72.2133 138.722 72.4066L139.922 75.4066L141.152 72.3966C141.225 72.2099 141.312 72.0833 141.412 72.0166C141.512 71.9433 141.645 71.9066 141.812 71.9066C142.025 71.9066 142.175 71.9899 142.262 72.1566C142.348 72.3233 142.345 72.5133 142.252 72.7266L139.822 78.2766C139.735 78.4633 139.642 78.5899 139.542 78.6566C139.442 78.7233 139.312 78.7566 139.152 78.7566ZM124.28 90.9366C124.153 90.9433 124.057 90.9099 123.99 90.8366C123.917 90.7633 123.88 90.6733 123.88 90.5666C123.88 90.4866 123.907 90.4166 123.96 90.3566C124.007 90.2899 124.083 90.2499 124.19 90.2366L124.5 90.2166C124.84 90.1899 125.1 90.0733 125.28 89.8666C125.46 89.6533 125.55 89.3633 125.55 88.9966V84.1766C125.55 83.8966 125.687 83.7566 125.96 83.7566C126.233 83.7566 126.37 83.8966 126.37 84.1766V89.0066C126.37 89.5866 126.22 90.0399 125.92 90.3666C125.62 90.6866 125.183 90.8666 124.61 90.9066L124.28 90.9366ZM129.532 90.9666C129.199 90.9666 128.899 90.9033 128.632 90.7766C128.372 90.6433 128.166 90.4633 128.012 90.2366C127.859 90.0099 127.782 89.7566 127.782 89.4766C127.782 89.1233 127.872 88.8433 128.052 88.6366C128.239 88.4299 128.542 88.2833 128.962 88.1966C129.389 88.1033 129.969 88.0566 130.702 88.0566H131.022V87.7466C131.022 87.3333 130.936 87.0366 130.762 86.8566C130.596 86.6699 130.326 86.5766 129.952 86.5766C129.719 86.5766 129.482 86.6066 129.242 86.6666C129.009 86.7266 128.766 86.8233 128.512 86.9566C128.399 87.0166 128.302 87.0299 128.222 86.9966C128.149 86.9566 128.096 86.8966 128.062 86.8166C128.036 86.7299 128.036 86.6433 128.062 86.5566C128.096 86.4633 128.162 86.3933 128.262 86.3466C128.549 86.1999 128.836 86.0933 129.122 86.0266C129.416 85.9599 129.692 85.9266 129.952 85.9266C130.579 85.9266 131.042 86.0799 131.342 86.3866C131.649 86.6933 131.802 87.1699 131.802 87.8166V90.5266C131.802 90.8066 131.679 90.9466 131.432 90.9466C131.172 90.9466 131.042 90.8066 131.042 90.5266V90.0366C130.916 90.3233 130.719 90.5499 130.452 90.7166C130.192 90.8833 129.886 90.9666 129.532 90.9666ZM129.662 90.3566C130.062 90.3566 130.389 90.2199 130.642 89.9466C130.896 89.6666 131.022 89.3133 131.022 88.8866V88.5866H130.712C130.172 88.5866 129.746 88.6133 129.432 88.6666C129.126 88.7133 128.909 88.7999 128.782 88.9266C128.662 89.0466 128.602 89.2133 128.602 89.4266C128.602 89.6999 128.696 89.9233 128.882 90.0966C129.076 90.2699 129.336 90.3566 129.662 90.3566ZM133.705 90.9466C133.438 90.9466 133.305 90.8066 133.305 90.5266V84.1666C133.305 83.8933 133.438 83.7566 133.705 83.7566C133.978 83.7566 134.115 83.8933 134.115 84.1666V88.1766H134.135L136.185 86.2166C136.272 86.1299 136.352 86.0633 136.425 86.0166C136.498 85.9699 136.595 85.9466 136.715 85.9466C136.875 85.9466 136.978 86.0099 137.025 86.1366C137.078 86.2566 137.045 86.3799 136.925 86.5066L134.975 88.3566L137.115 90.3666C137.255 90.4999 137.292 90.6299 137.225 90.7566C137.165 90.8833 137.062 90.9466 136.915 90.9466C136.795 90.9466 136.695 90.9233 136.615 90.8766C136.542 90.8233 136.455 90.7466 136.355 90.6466L134.135 88.5966H134.115V90.5266C134.115 90.8066 133.978 90.9466 133.705 90.9466ZM139.786 90.9666C139.453 90.9666 139.153 90.9033 138.886 90.7766C138.626 90.6433 138.419 90.4633 138.266 90.2366C138.113 90.0099 138.036 89.7566 138.036 89.4766C138.036 89.1233 138.126 88.8433 138.306 88.6366C138.493 88.4299 138.796 88.2833 139.216 88.1966C139.643 88.1033 140.223 88.0566 140.956 88.0566H141.276V87.7466C141.276 87.3333 141.189 87.0366 141.016 86.8566C140.849 86.6699 140.579 86.5766 140.206 86.5766C139.973 86.5766 139.736 86.6066 139.496 86.6666C139.263 86.7266 139.019 86.8233 138.766 86.9566C138.653 87.0166 138.556 87.0299 138.476 86.9966C138.403 86.9566 138.349 86.8966 138.316 86.8166C138.289 86.7299 138.289 86.6433 138.316 86.5566C138.349 86.4633 138.416 86.3933 138.516 86.3466C138.803 86.1999 139.089 86.0933 139.376 86.0266C139.669 85.9599 139.946 85.9266 140.206 85.9266C140.833 85.9266 141.296 86.0799 141.596 86.3866C141.903 86.6933 142.056 87.1699 142.056 87.8166V90.5266C142.056 90.8066 141.933 90.9466 141.686 90.9466C141.426 90.9466 141.296 90.8066 141.296 90.5266V90.0366C141.169 90.3233 140.973 90.5499 140.706 90.7166C140.446 90.8833 140.139 90.9666 139.786 90.9666ZM139.916 90.3566C140.316 90.3566 140.643 90.2199 140.896 89.9466C141.149 89.6666 141.276 89.3133 141.276 88.8866V88.5866H140.966C140.426 88.5866 139.999 88.6133 139.686 88.6666C139.379 88.7133 139.163 88.7999 139.036 88.9266C138.916 89.0466 138.856 89.2133 138.856 89.4266C138.856 89.6999 138.949 89.9233 139.136 90.0966C139.329 90.2699 139.589 90.3566 139.916 90.3566ZM143.969 90.9466C143.695 90.9466 143.559 90.8066 143.559 90.5266V86.3566C143.559 86.0833 143.689 85.9466 143.949 85.9466C144.215 85.9466 144.349 86.0833 144.349 86.3566V86.8866C144.482 86.5799 144.689 86.3466 144.969 86.1866C145.249 86.0199 145.582 85.9299 145.969 85.9166C146.182 85.8966 146.295 86.0033 146.309 86.2366C146.329 86.4699 146.209 86.5999 145.949 86.6266L145.789 86.6466C145.329 86.6866 144.979 86.8333 144.739 87.0866C144.499 87.3333 144.379 87.6733 144.379 88.1066V90.5266C144.379 90.8066 144.242 90.9466 143.969 90.9466ZM149.356 90.9666C148.783 90.9666 148.353 90.8166 148.066 90.5166C147.78 90.2099 147.636 89.7699 147.636 89.1966V86.6466H146.966C146.733 86.6466 146.616 86.5399 146.616 86.3266C146.616 86.1199 146.733 86.0166 146.966 86.0166H147.636V84.8666C147.636 84.5933 147.773 84.4566 148.046 84.4566C148.313 84.4566 148.446 84.5933 148.446 84.8666V86.0166H149.706C149.94 86.0166 150.056 86.1199 150.056 86.3266C150.056 86.5399 149.94 86.6466 149.706 86.6466H148.446V89.1166C148.446 89.4966 148.526 89.7866 148.686 89.9866C148.846 90.1799 149.106 90.2766 149.466 90.2766C149.593 90.2766 149.7 90.2633 149.786 90.2366C149.873 90.2099 149.95 90.1966 150.016 90.1966C150.076 90.1899 150.126 90.2099 150.166 90.2566C150.206 90.3033 150.226 90.3833 150.226 90.4966C150.226 90.5766 150.21 90.6499 150.176 90.7166C150.15 90.7833 150.1 90.8299 150.026 90.8566C149.946 90.8833 149.84 90.9066 149.706 90.9266C149.58 90.9533 149.463 90.9666 149.356 90.9666ZM152.433 90.9666C152.099 90.9666 151.799 90.9033 151.533 90.7766C151.273 90.6433 151.066 90.4633 150.913 90.2366C150.759 90.0099 150.683 89.7566 150.683 89.4766C150.683 89.1233 150.773 88.8433 150.953 88.6366C151.139 88.4299 151.443 88.2833 151.863 88.1966C152.289 88.1033 152.869 88.0566 153.603 88.0566H153.923V87.7466C153.923 87.3333 153.836 87.0366 153.663 86.8566C153.496 86.6699 153.226 86.5766 152.853 86.5766C152.619 86.5766 152.383 86.6066 152.143 86.6666C151.909 86.7266 151.666 86.8233 151.413 86.9566C151.299 87.0166 151.203 87.0299 151.123 86.9966C151.049 86.9566 150.996 86.8966 150.963 86.8166C150.936 86.7299 150.936 86.6433 150.963 86.5566C150.996 86.4633 151.063 86.3933 151.163 86.3466C151.449 86.1999 151.736 86.0933 152.023 86.0266C152.316 85.9599 152.593 85.9266 152.853 85.9266C153.479 85.9266 153.943 86.0799 154.243 86.3866C154.549 86.6933 154.703 87.1699 154.703 87.8166V90.5266C154.703 90.8066 154.579 90.9466 154.333 90.9466C154.073 90.9466 153.943 90.8066 153.943 90.5266V90.0366C153.816 90.3233 153.619 90.5499 153.353 90.7166C153.093 90.8833 152.786 90.9666 152.433 90.9666ZM152.563 90.3566C152.963 90.3566 153.289 90.2199 153.543 89.9466C153.796 89.6666 153.923 89.3133 153.923 88.8866V88.5866H153.613C153.073 88.5866 152.646 88.6133 152.333 88.6666C152.026 88.7133 151.809 88.7999 151.683 88.9266C151.563 89.0466 151.503 89.2133 151.503 89.4266C151.503 89.6999 151.596 89.9233 151.783 90.0966C151.976 90.2699 152.236 90.3566 152.563 90.3566ZM125.41 118.957C124.983 118.957 124.77 118.737 124.77 118.297V112.477C124.77 112.043 124.987 111.827 125.42 111.827H127.83C128.603 111.827 129.2 112.02 129.62 112.407C130.04 112.793 130.25 113.333 130.25 114.027C130.25 114.72 130.04 115.263 129.62 115.657C129.2 116.043 128.603 116.237 127.83 116.237H126.05V118.297C126.05 118.737 125.837 118.957 125.41 118.957ZM126.05 115.227H127.63C128.55 115.227 129.01 114.827 129.01 114.027C129.01 113.233 128.55 112.837 127.63 112.837H126.05V115.227ZM131.716 118.957C131.289 118.957 131.076 118.743 131.076 118.317V114.537C131.076 114.117 131.279 113.907 131.686 113.907C132.092 113.907 132.296 114.117 132.296 114.537V114.847C132.536 114.273 133.049 113.953 133.836 113.887C134.122 113.853 134.282 114.017 134.316 114.377C134.349 114.73 134.176 114.927 133.796 114.967L133.576 114.987C132.756 115.067 132.346 115.487 132.346 116.247V118.317C132.346 118.743 132.136 118.957 131.716 118.957ZM137.144 118.977C136.637 118.977 136.197 118.873 135.824 118.667C135.45 118.46 135.16 118.167 134.954 117.787C134.747 117.4 134.644 116.947 134.644 116.427C134.644 115.907 134.747 115.457 134.954 115.077C135.16 114.697 135.45 114.403 135.824 114.197C136.197 113.99 136.637 113.887 137.144 113.887C137.65 113.887 138.09 113.99 138.464 114.197C138.837 114.403 139.127 114.697 139.334 115.077C139.54 115.457 139.644 115.907 139.644 116.427C139.644 116.947 139.54 117.4 139.334 117.787C139.127 118.167 138.837 118.46 138.464 118.667C138.09 118.873 137.65 118.977 137.144 118.977ZM137.144 118.027C137.517 118.027 137.817 117.893 138.044 117.627C138.27 117.353 138.384 116.953 138.384 116.427C138.384 115.893 138.27 115.497 138.044 115.237C137.817 114.97 137.517 114.837 137.144 114.837C136.77 114.837 136.47 114.97 136.244 115.237C136.017 115.497 135.904 115.893 135.904 116.427C135.904 116.953 136.017 117.353 136.244 117.627C136.47 117.893 136.77 118.027 137.144 118.027ZM142.558 118.957C142.224 118.957 141.978 118.78 141.818 118.427L140.228 114.737C140.134 114.517 140.131 114.323 140.218 114.157C140.311 113.99 140.494 113.907 140.768 113.907C140.921 113.907 141.044 113.943 141.138 114.017C141.231 114.083 141.314 114.213 141.388 114.407L142.588 117.407L143.828 114.397C143.901 114.21 143.984 114.083 144.078 114.017C144.178 113.943 144.311 113.907 144.478 113.907C144.691 113.907 144.841 113.99 144.928 114.157C145.014 114.323 145.011 114.513 144.918 114.727L143.298 118.427C143.151 118.78 142.904 118.957 142.558 118.957ZM146.471 112.987C146.238 112.987 146.055 112.93 145.921 112.817C145.795 112.697 145.731 112.533 145.731 112.327C145.731 112.113 145.795 111.95 145.921 111.837C146.055 111.723 146.238 111.667 146.471 111.667C146.965 111.667 147.211 111.887 147.211 112.327C147.211 112.767 146.965 112.987 146.471 112.987ZM146.471 118.947C146.271 118.947 146.118 118.887 146.011 118.767C145.905 118.647 145.851 118.48 145.851 118.267V114.597C145.851 114.143 146.058 113.917 146.471 113.917C146.891 113.917 147.101 114.143 147.101 114.597V118.267C147.101 118.48 147.048 118.647 146.941 118.767C146.835 118.887 146.678 118.947 146.471 118.947ZM149.02 118.957C148.607 118.957 148.4 118.743 148.4 118.317V114.537C148.4 114.117 148.603 113.907 149.01 113.907C149.417 113.907 149.62 114.117 149.62 114.537V114.747C149.787 114.467 150.01 114.253 150.29 114.107C150.577 113.96 150.897 113.887 151.25 113.887C152.403 113.887 152.98 114.557 152.98 115.897V118.317C152.98 118.743 152.773 118.957 152.36 118.957C151.94 118.957 151.73 118.743 151.73 118.317V115.957C151.73 115.577 151.657 115.3 151.51 115.127C151.37 114.953 151.15 114.867 150.85 114.867C150.483 114.867 150.19 114.983 149.97 115.217C149.757 115.443 149.65 115.747 149.65 116.127V118.317C149.65 118.743 149.44 118.957 149.02 118.957ZM156.51 118.977C155.996 118.977 155.55 118.873 155.17 118.667C154.79 118.453 154.496 118.153 154.29 117.767C154.083 117.38 153.98 116.927 153.98 116.407C153.98 115.887 154.083 115.44 154.29 115.067C154.496 114.687 154.79 114.397 155.17 114.197C155.55 113.99 155.996 113.887 156.51 113.887C156.73 113.887 156.966 113.917 157.22 113.977C157.48 114.037 157.723 114.137 157.95 114.277C158.083 114.357 158.16 114.46 158.18 114.587C158.206 114.713 158.19 114.83 158.13 114.937C158.076 115.043 157.993 115.12 157.88 115.167C157.773 115.213 157.65 115.197 157.51 115.117C157.203 114.943 156.906 114.857 156.62 114.857C156.186 114.857 155.85 114.993 155.61 115.267C155.376 115.533 155.26 115.917 155.26 116.417C155.26 116.91 155.376 117.3 155.61 117.587C155.85 117.867 156.186 118.007 156.62 118.007C156.906 118.007 157.203 117.923 157.51 117.757C157.65 117.677 157.773 117.66 157.88 117.707C157.986 117.753 158.063 117.833 158.11 117.947C158.156 118.053 158.166 118.17 158.14 118.297C158.113 118.417 158.036 118.517 157.91 118.597C157.69 118.73 157.456 118.827 157.21 118.887C156.963 118.947 156.73 118.977 156.51 118.977ZM161.279 118.977C160.725 118.977 160.249 118.873 159.849 118.667C159.449 118.46 159.139 118.167 158.919 117.787C158.705 117.407 158.599 116.957 158.599 116.437C158.599 115.93 158.702 115.487 158.909 115.107C159.122 114.727 159.412 114.43 159.779 114.217C160.152 113.997 160.575 113.887 161.049 113.887C161.742 113.887 162.289 114.107 162.689 114.547C163.095 114.987 163.299 115.587 163.299 116.347C163.299 116.593 163.139 116.717 162.819 116.717H159.799C159.892 117.59 160.392 118.027 161.299 118.027C161.472 118.027 161.665 118.007 161.879 117.967C162.099 117.92 162.305 117.843 162.499 117.737C162.672 117.637 162.819 117.607 162.939 117.647C163.059 117.68 163.142 117.75 163.189 117.857C163.242 117.963 163.249 118.083 163.209 118.217C163.175 118.343 163.082 118.453 162.929 118.547C162.695 118.693 162.425 118.803 162.119 118.877C161.819 118.943 161.539 118.977 161.279 118.977ZM161.099 114.737C160.732 114.737 160.435 114.85 160.209 115.077C159.982 115.303 159.845 115.61 159.799 115.997H162.259C162.232 115.59 162.119 115.28 161.919 115.067C161.725 114.847 161.452 114.737 161.099 114.737ZM124.28 132.937C124.153 132.943 124.057 132.91 123.99 132.837C123.917 132.763 123.88 132.673 123.88 132.567C123.88 132.487 123.907 132.417 123.96 132.357C124.007 132.29 124.083 132.25 124.19 132.237L124.5 132.217C124.84 132.19 125.1 132.073 125.28 131.867C125.46 131.653 125.55 131.363 125.55 130.997V126.177C125.55 125.897 125.687 125.757 125.96 125.757C126.233 125.757 126.37 125.897 126.37 126.177V131.007C126.37 131.587 126.22 132.04 125.92 132.367C125.62 132.687 125.183 132.867 124.61 132.907L124.28 132.937ZM129.532 132.967C129.199 132.967 128.899 132.903 128.632 132.777C128.372 132.643 128.166 132.463 128.012 132.237C127.859 132.01 127.782 131.757 127.782 131.477C127.782 131.123 127.872 130.843 128.052 130.637C128.239 130.43 128.542 130.283 128.962 130.197C129.389 130.103 129.969 130.057 130.702 130.057H131.022V129.747C131.022 129.333 130.936 129.037 130.762 128.857C130.596 128.67 130.326 128.577 129.952 128.577C129.719 128.577 129.482 128.607 129.242 128.667C129.009 128.727 128.766 128.823 128.512 128.957C128.399 129.017 128.302 129.03 128.222 128.997C128.149 128.957 128.096 128.897 128.062 128.817C128.036 128.73 128.036 128.643 128.062 128.557C128.096 128.463 128.162 128.393 128.262 128.347C128.549 128.2 128.836 128.093 129.122 128.027C129.416 127.96 129.692 127.927 129.952 127.927C130.579 127.927 131.042 128.08 131.342 128.387C131.649 128.693 131.802 129.17 131.802 129.817V132.527C131.802 132.807 131.679 132.947 131.432 132.947C131.172 132.947 131.042 132.807 131.042 132.527V132.037C130.916 132.323 130.719 132.55 130.452 132.717C130.192 132.883 129.886 132.967 129.532 132.967ZM129.662 132.357C130.062 132.357 130.389 132.22 130.642 131.947C130.896 131.667 131.022 131.313 131.022 130.887V130.587H130.712C130.172 130.587 129.746 130.613 129.432 130.667C129.126 130.713 128.909 130.8 128.782 130.927C128.662 131.047 128.602 131.213 128.602 131.427C128.602 131.7 128.696 131.923 128.882 132.097C129.076 132.27 129.336 132.357 129.662 132.357ZM133.705 132.947C133.438 132.947 133.305 132.807 133.305 132.527V126.167C133.305 125.893 133.438 125.757 133.705 125.757C133.978 125.757 134.115 125.893 134.115 126.167V130.177H134.135L136.185 128.217C136.272 128.13 136.352 128.063 136.425 128.017C136.498 127.97 136.595 127.947 136.715 127.947C136.875 127.947 136.978 128.01 137.025 128.137C137.078 128.257 137.045 128.38 136.925 128.507L134.975 130.357L137.115 132.367C137.255 132.5 137.292 132.63 137.225 132.757C137.165 132.883 137.062 132.947 136.915 132.947C136.795 132.947 136.695 132.923 136.615 132.877C136.542 132.823 136.455 132.747 136.355 132.647L134.135 130.597H134.115V132.527C134.115 132.807 133.978 132.947 133.705 132.947ZM139.786 132.967C139.453 132.967 139.153 132.903 138.886 132.777C138.626 132.643 138.419 132.463 138.266 132.237C138.113 132.01 138.036 131.757 138.036 131.477C138.036 131.123 138.126 130.843 138.306 130.637C138.493 130.43 138.796 130.283 139.216 130.197C139.643 130.103 140.223 130.057 140.956 130.057H141.276V129.747C141.276 129.333 141.189 129.037 141.016 128.857C140.849 128.67 140.579 128.577 140.206 128.577C139.973 128.577 139.736 128.607 139.496 128.667C139.263 128.727 139.019 128.823 138.766 128.957C138.653 129.017 138.556 129.03 138.476 128.997C138.403 128.957 138.349 128.897 138.316 128.817C138.289 128.73 138.289 128.643 138.316 128.557C138.349 128.463 138.416 128.393 138.516 128.347C138.803 128.2 139.089 128.093 139.376 128.027C139.669 127.96 139.946 127.927 140.206 127.927C140.833 127.927 141.296 128.08 141.596 128.387C141.903 128.693 142.056 129.17 142.056 129.817V132.527C142.056 132.807 141.933 132.947 141.686 132.947C141.426 132.947 141.296 132.807 141.296 132.527V132.037C141.169 132.323 140.973 132.55 140.706 132.717C140.446 132.883 140.139 132.967 139.786 132.967ZM139.916 132.357C140.316 132.357 140.643 132.22 140.896 131.947C141.149 131.667 141.276 131.313 141.276 130.887V130.587H140.966C140.426 130.587 139.999 130.613 139.686 130.667C139.379 130.713 139.163 130.8 139.036 130.927C138.916 131.047 138.856 131.213 138.856 131.427C138.856 131.7 138.949 131.923 139.136 132.097C139.329 132.27 139.589 132.357 139.916 132.357ZM143.969 132.947C143.695 132.947 143.559 132.807 143.559 132.527V128.357C143.559 128.083 143.689 127.947 143.949 127.947C144.215 127.947 144.349 128.083 144.349 128.357V128.887C144.482 128.58 144.689 128.347 144.969 128.187C145.249 128.02 145.582 127.93 145.969 127.917C146.182 127.897 146.295 128.003 146.309 128.237C146.329 128.47 146.209 128.6 145.949 128.627L145.789 128.647C145.329 128.687 144.979 128.833 144.739 129.087C144.499 129.333 144.379 129.673 144.379 130.107V132.527C144.379 132.807 144.242 132.947 143.969 132.947ZM149.356 132.967C148.783 132.967 148.353 132.817 148.066 132.517C147.78 132.21 147.636 131.77 147.636 131.197V128.647H146.966C146.733 128.647 146.616 128.54 146.616 128.327C146.616 128.12 146.733 128.017 146.966 128.017H147.636V126.867C147.636 126.593 147.773 126.457 148.046 126.457C148.313 126.457 148.446 126.593 148.446 126.867V128.017H149.706C149.94 128.017 150.056 128.12 150.056 128.327C150.056 128.54 149.94 128.647 149.706 128.647H148.446V131.117C148.446 131.497 148.526 131.787 148.686 131.987C148.846 132.18 149.106 132.277 149.466 132.277C149.593 132.277 149.7 132.263 149.786 132.237C149.873 132.21 149.95 132.197 150.016 132.197C150.076 132.19 150.126 132.21 150.166 132.257C150.206 132.303 150.226 132.383 150.226 132.497C150.226 132.577 150.21 132.65 150.176 132.717C150.15 132.783 150.1 132.83 150.026 132.857C149.946 132.883 149.84 132.907 149.706 132.927C149.58 132.953 149.463 132.967 149.356 132.967ZM152.433 132.967C152.099 132.967 151.799 132.903 151.533 132.777C151.273 132.643 151.066 132.463 150.913 132.237C150.759 132.01 150.683 131.757 150.683 131.477C150.683 131.123 150.773 130.843 150.953 130.637C151.139 130.43 151.443 130.283 151.863 130.197C152.289 130.103 152.869 130.057 153.603 130.057H153.923V129.747C153.923 129.333 153.836 129.037 153.663 128.857C153.496 128.67 153.226 128.577 152.853 128.577C152.619 128.577 152.383 128.607 152.143 128.667C151.909 128.727 151.666 128.823 151.413 128.957C151.299 129.017 151.203 129.03 151.123 128.997C151.049 128.957 150.996 128.897 150.963 128.817C150.936 128.73 150.936 128.643 150.963 128.557C150.996 128.463 151.063 128.393 151.163 128.347C151.449 128.2 151.736 128.093 152.023 128.027C152.316 127.96 152.593 127.927 152.853 127.927C153.479 127.927 153.943 128.08 154.243 128.387C154.549 128.693 154.703 129.17 154.703 129.817V132.527C154.703 132.807 154.579 132.947 154.333 132.947C154.073 132.947 153.943 132.807 153.943 132.527V132.037C153.816 132.323 153.619 132.55 153.353 132.717C153.093 132.883 152.786 132.967 152.433 132.967ZM152.563 132.357C152.963 132.357 153.289 132.22 153.543 131.947C153.796 131.667 153.923 131.313 153.923 130.887V130.587H153.613C153.073 130.587 152.646 130.613 152.333 130.667C152.026 130.713 151.809 130.8 151.683 130.927C151.563 131.047 151.503 131.213 151.503 131.427C151.503 131.7 151.596 131.923 151.783 132.097C151.976 132.27 152.236 132.357 152.563 132.357Z" fill="#231F21"/>
</svg>
