<svg width="306" height="155" viewBox="0 0 306 155" fill="none" xmlns="http://www.w3.org/2000/svg">
<path d="M0 0H306V150C306 152.761 303.761 155 301 155H5.00001C2.23859 155 0 152.761 0 150V0Z" fill="#F2F2F2"/>
<path d="M26.45 31C25.9967 31 25.77 30.7733 25.77 30.32V24.63C25.77 24.1767 25.9967 23.95 26.45 23.95H30.02C30.3667 23.95 30.54 24.1167 30.54 24.45C30.54 24.7967 30.3667 24.97 30.02 24.97H27V26.91H29.8C30.1467 26.91 30.32 27.08 30.32 27.42C30.32 27.76 30.1467 27.93 29.8 27.93H27V29.98H30.02C30.3667 29.98 30.54 30.15 30.54 30.49C30.54 30.83 30.3667 31 30.02 31H26.45ZM32.2568 31.08C31.8435 31.08 31.6368 30.8667 31.6368 30.44V26.66C31.6368 26.24 31.8401 26.03 32.2468 26.03C32.6535 26.03 32.8568 26.24 32.8568 26.66V26.86C33.0035 26.5933 33.2068 26.3867 33.4668 26.24C33.7268 26.0867 34.0268 26.01 34.3668 26.01C35.1001 26.01 35.5801 26.33 35.8068 26.97C35.9601 26.67 36.1801 26.4367 36.4668 26.27C36.7535 26.0967 37.0801 26.01 37.4468 26.01C38.5468 26.01 39.0968 26.68 39.0968 28.02V30.44C39.0968 30.8667 38.8868 31.08 38.4668 31.08C38.0535 31.08 37.8468 30.8667 37.8468 30.44V28.07C37.8468 27.6967 37.7835 27.4233 37.6568 27.25C37.5368 27.0767 37.3301 26.99 37.0368 26.99C36.7101 26.99 36.4535 27.1067 36.2668 27.34C36.0801 27.5667 35.9868 27.8833 35.9868 28.29V30.44C35.9868 30.8667 35.7801 31.08 35.3668 31.08C34.9468 31.08 34.7368 30.8667 34.7368 30.44V28.07C34.7368 27.6967 34.6735 27.4233 34.5468 27.25C34.4268 27.0767 34.2235 26.99 33.9368 26.99C33.6101 26.99 33.3535 27.1067 33.1668 27.34C32.9801 27.5667 32.8868 27.8833 32.8868 28.29V30.44C32.8868 30.8667 32.6768 31.08 32.2568 31.08ZM41.0063 32.88C40.593 32.88 40.3863 32.67 40.3863 32.25V26.66C40.3863 26.24 40.5897 26.03 40.9963 26.03C41.4097 26.03 41.6163 26.24 41.6163 26.66V26.87C41.7563 26.61 41.9663 26.4033 42.2463 26.25C42.5263 26.09 42.8463 26.01 43.2063 26.01C43.633 26.01 44.0063 26.1133 44.3263 26.32C44.653 26.5267 44.9063 26.82 45.0863 27.2C45.2663 27.5733 45.3563 28.0233 45.3563 28.55C45.3563 29.07 45.2663 29.5233 45.0863 29.91C44.9063 30.29 44.6563 30.5833 44.3363 30.79C44.0163 30.9967 43.6397 31.1 43.2063 31.1C42.8597 31.1 42.5463 31.0267 42.2663 30.88C41.993 30.7267 41.783 30.5233 41.6363 30.27V32.25C41.6363 32.67 41.4263 32.88 41.0063 32.88ZM42.8563 30.15C43.2297 30.15 43.5297 30.0167 43.7563 29.75C43.983 29.4767 44.0963 29.0767 44.0963 28.55C44.0963 28.0167 43.983 27.62 43.7563 27.36C43.5297 27.0933 43.2297 26.96 42.8563 26.96C42.483 26.96 42.183 27.0933 41.9563 27.36C41.7297 27.62 41.6163 28.0167 41.6163 28.55C41.6163 29.0767 41.7297 29.4767 41.9563 29.75C42.183 30.0167 42.483 30.15 42.8563 30.15ZM48.0524 31.1C46.9391 31.1 46.3824 30.4767 46.3824 29.23V24.5C46.3824 24.08 46.5891 23.87 47.0024 23.87C47.4224 23.87 47.6324 24.08 47.6324 24.5V29.17C47.6324 29.77 47.8824 30.07 48.3824 30.07C48.4358 30.07 48.4858 30.07 48.5324 30.07C48.5791 30.0633 48.6258 30.0567 48.6724 30.05C48.7658 30.0367 48.8291 30.0633 48.8624 30.13C48.8958 30.19 48.9124 30.3167 48.9124 30.51C48.9124 30.6767 48.8791 30.8067 48.8124 30.9C48.7458 30.9933 48.6358 31.05 48.4824 31.07C48.3424 31.09 48.1991 31.1 48.0524 31.1ZM51.757 31.1C51.2503 31.1 50.8103 30.9967 50.437 30.79C50.0636 30.5833 49.7736 30.29 49.567 29.91C49.3603 29.5233 49.257 29.07 49.257 28.55C49.257 28.03 49.3603 27.58 49.567 27.2C49.7736 26.82 50.0636 26.5267 50.437 26.32C50.8103 26.1133 51.2503 26.01 51.757 26.01C52.2636 26.01 52.7036 26.1133 53.077 26.32C53.4503 26.5267 53.7403 26.82 53.947 27.2C54.1536 27.58 54.257 28.03 54.257 28.55C54.257 29.07 54.1536 29.5233 53.947 29.91C53.7403 30.29 53.4503 30.5833 53.077 30.79C52.7036 30.9967 52.2636 31.1 51.757 31.1ZM51.757 30.15C52.1303 30.15 52.4303 30.0167 52.657 29.75C52.8836 29.4767 52.997 29.0767 52.997 28.55C52.997 28.0167 52.8836 27.62 52.657 27.36C52.4303 27.0933 52.1303 26.96 51.757 26.96C51.3836 26.96 51.0836 27.0933 50.857 27.36C50.6303 27.62 50.517 28.0167 50.517 28.55C50.517 29.0767 50.6303 29.4767 50.857 29.75C51.0836 30.0167 51.3836 30.15 51.757 30.15ZM56.431 32.88C56.2043 32.88 56.0477 32.7967 55.961 32.63C55.8743 32.4633 55.8777 32.2733 55.971 32.06L56.541 30.8L54.831 26.86C54.7377 26.64 54.7377 26.4467 54.831 26.28C54.9243 26.1133 55.1077 26.03 55.381 26.03C55.5343 26.03 55.6577 26.0667 55.751 26.14C55.8443 26.2067 55.9277 26.3367 56.001 26.53L57.201 29.53L58.431 26.52C58.5043 26.3333 58.591 26.2067 58.691 26.14C58.791 26.0667 58.9243 26.03 59.091 26.03C59.3043 26.03 59.4543 26.1133 59.541 26.28C59.6277 26.4467 59.6243 26.6367 59.531 26.85L57.101 32.4C57.0143 32.5867 56.921 32.7133 56.821 32.78C56.721 32.8467 56.591 32.88 56.431 32.88ZM62.767 31.1C62.2137 31.1 61.737 30.9967 61.337 30.79C60.937 30.5833 60.627 30.29 60.407 29.91C60.1937 29.53 60.087 29.08 60.087 28.56C60.087 28.0533 60.1904 27.61 60.397 27.23C60.6104 26.85 60.9004 26.5533 61.267 26.34C61.6404 26.12 62.0637 26.01 62.537 26.01C63.2304 26.01 63.777 26.23 64.177 26.67C64.5837 27.11 64.787 27.71 64.787 28.47C64.787 28.7167 64.627 28.84 64.307 28.84H61.287C61.3804 29.7133 61.8804 30.15 62.787 30.15C62.9604 30.15 63.1537 30.13 63.367 30.09C63.587 30.0433 63.7937 29.9667 63.987 29.86C64.1604 29.76 64.307 29.73 64.427 29.77C64.547 29.8033 64.6304 29.8733 64.677 29.98C64.7304 30.0867 64.737 30.2067 64.697 30.34C64.6637 30.4667 64.5704 30.5767 64.417 30.67C64.1837 30.8167 63.9137 30.9267 63.607 31C63.307 31.0667 63.027 31.1 62.767 31.1ZM62.587 26.86C62.2204 26.86 61.9237 26.9733 61.697 27.2C61.4704 27.4267 61.3337 27.7333 61.287 28.12H63.747C63.7204 27.7133 63.607 27.4033 63.407 27.19C63.2137 26.97 62.9404 26.86 62.587 26.86ZM66.417 31.08C65.9903 31.08 65.777 30.8667 65.777 30.44V26.66C65.777 26.24 65.9803 26.03 66.387 26.03C66.7936 26.03 66.997 26.24 66.997 26.66V26.97C67.237 26.3967 67.7503 26.0767 68.537 26.01C68.8236 25.9767 68.9836 26.14 69.017 26.5C69.0503 26.8533 68.877 27.05 68.497 27.09L68.277 27.11C67.457 27.19 67.047 27.61 67.047 28.37V30.44C67.047 30.8667 66.837 31.08 66.417 31.08ZM73.1278 31.08C72.7278 31.08 72.5278 30.8733 72.5278 30.46V24.51C72.5278 24.3033 72.5778 24.1467 72.6778 24.04C72.7845 23.9267 72.9211 23.87 73.0878 23.87C73.2411 23.87 73.3545 23.9 73.4278 23.96C73.5078 24.0133 73.6011 24.1067 73.7078 24.24L77.2778 28.87V24.48C77.2778 24.0733 77.4778 23.87 77.8778 23.87C78.2711 23.87 78.4678 24.0733 78.4678 24.48V30.48C78.4678 30.6667 78.4211 30.8133 78.3278 30.92C78.2345 31.0267 78.1078 31.08 77.9478 31.08C77.7945 31.08 77.6711 31.05 77.5778 30.99C77.4911 30.93 77.3945 30.8333 77.2878 30.7L73.7178 26.06V30.46C73.7178 30.8733 73.5211 31.08 73.1278 31.08ZM81.4983 31.1C81.1449 31.1 80.8283 31.0333 80.5483 30.9C80.2749 30.76 80.0583 30.5733 79.8983 30.34C79.7449 30.1067 79.6683 29.8433 79.6683 29.55C79.6683 29.19 79.7616 28.9067 79.9483 28.7C80.1349 28.4867 80.4383 28.3333 80.8583 28.24C81.2783 28.1467 81.8416 28.1 82.5483 28.1H82.8983V27.89C82.8983 27.5567 82.8249 27.3167 82.6783 27.17C82.5316 27.0233 82.2849 26.95 81.9383 26.95C81.7449 26.95 81.5349 26.9733 81.3083 27.02C81.0883 27.0667 80.8549 27.1467 80.6083 27.26C80.4483 27.3333 80.3149 27.3433 80.2083 27.29C80.1016 27.23 80.0283 27.14 79.9883 27.02C79.9549 26.8933 79.9616 26.7667 80.0083 26.64C80.0616 26.5133 80.1649 26.42 80.3183 26.36C80.6249 26.2333 80.9183 26.1433 81.1983 26.09C81.4849 26.0367 81.7449 26.01 81.9783 26.01C82.6916 26.01 83.2216 26.1767 83.5683 26.51C83.9149 26.8367 84.0883 27.3467 84.0883 28.04V30.44C84.0883 30.8667 83.8949 31.08 83.5083 31.08C83.1149 31.08 82.9183 30.8667 82.9183 30.44V30.22C82.8049 30.4933 82.6249 30.71 82.3783 30.87C82.1316 31.0233 81.8383 31.1 81.4983 31.1ZM81.7583 30.24C82.0849 30.24 82.3549 30.1267 82.5683 29.9C82.7883 29.6733 82.8983 29.3867 82.8983 29.04V28.82H82.5583C81.9316 28.82 81.4949 28.87 81.2483 28.97C81.0083 29.0633 80.8883 29.2367 80.8883 29.49C80.8883 29.71 80.9649 29.89 81.1183 30.03C81.2716 30.17 81.4849 30.24 81.7583 30.24ZM85.997 31.08C85.5837 31.08 85.377 30.8667 85.377 30.44V26.66C85.377 26.24 85.5804 26.03 85.987 26.03C86.3937 26.03 86.597 26.24 86.597 26.66V26.86C86.7437 26.5933 86.947 26.3867 87.207 26.24C87.467 26.0867 87.767 26.01 88.107 26.01C88.8404 26.01 89.3204 26.33 89.547 26.97C89.7004 26.67 89.9204 26.4367 90.207 26.27C90.4937 26.0967 90.8204 26.01 91.187 26.01C92.287 26.01 92.837 26.68 92.837 28.02V30.44C92.837 30.8667 92.627 31.08 92.207 31.08C91.7937 31.08 91.587 30.8667 91.587 30.44V28.07C91.587 27.6967 91.5237 27.4233 91.397 27.25C91.277 27.0767 91.0704 26.99 90.777 26.99C90.4504 26.99 90.1937 27.1067 90.007 27.34C89.8204 27.5667 89.727 27.8833 89.727 28.29V30.44C89.727 30.8667 89.5204 31.08 89.107 31.08C88.687 31.08 88.477 30.8667 88.477 30.44V28.07C88.477 27.6967 88.4137 27.4233 88.287 27.25C88.167 27.0767 87.9637 26.99 87.677 26.99C87.3504 26.99 87.0937 27.1067 86.907 27.34C86.7204 27.5667 86.627 27.8833 86.627 28.29V30.44C86.627 30.8667 86.417 31.08 85.997 31.08ZM96.5366 31.1C95.9832 31.1 95.5066 30.9967 95.1066 30.79C94.7066 30.5833 94.3966 30.29 94.1766 29.91C93.9632 29.53 93.8566 29.08 93.8566 28.56C93.8566 28.0533 93.9599 27.61 94.1666 27.23C94.3799 26.85 94.6699 26.5533 95.0366 26.34C95.4099 26.12 95.8332 26.01 96.3066 26.01C96.9999 26.01 97.5466 26.23 97.9466 26.67C98.3532 27.11 98.5566 27.71 98.5566 28.47C98.5566 28.7167 98.3966 28.84 98.0766 28.84H95.0566C95.1499 29.7133 95.6499 30.15 96.5566 30.15C96.7299 30.15 96.9232 30.13 97.1366 30.09C97.3566 30.0433 97.5632 29.9667 97.7566 29.86C97.9299 29.76 98.0766 29.73 98.1966 29.77C98.3166 29.8033 98.3999 29.8733 98.4466 29.98C98.4999 30.0867 98.5066 30.2067 98.4666 30.34C98.4332 30.4667 98.3399 30.5767 98.1866 30.67C97.9532 30.8167 97.6832 30.9267 97.3766 31C97.0766 31.0667 96.7966 31.1 96.5366 31.1ZM96.3566 26.86C95.9899 26.86 95.6932 26.9733 95.4666 27.2C95.2399 27.4267 95.1032 27.7333 95.0566 28.12H97.5166C97.4899 27.7133 97.3766 27.4033 97.1766 27.19C96.9832 26.97 96.7099 26.86 96.3566 26.86ZM26.28 45.07C26.0067 45.07 25.87 44.9267 25.87 44.64V38.31C25.87 38.0233 26.0067 37.88 26.28 37.88C26.5533 37.88 26.69 38.0233 26.69 38.31V44.64C26.69 44.9267 26.5533 45.07 26.28 45.07ZM28.8884 45C28.5884 45 28.4384 44.85 28.4384 44.55V38.4C28.4384 38.1 28.5884 37.95 28.8884 37.95H30.8184C31.9584 37.95 32.8384 38.2533 33.4584 38.86C34.0784 39.46 34.3884 40.33 34.3884 41.47C34.3884 42.61 34.0784 43.4833 33.4584 44.09C32.8384 44.6967 31.9584 45 30.8184 45H28.8884ZM29.2584 44.3H30.7584C32.5984 44.3 33.5184 43.3567 33.5184 41.47C33.5184 39.59 32.5984 38.65 30.7584 38.65H29.2584V44.3ZM38.1402 45.09C37.6602 45.09 37.2069 45.0333 36.7802 44.92C36.3602 44.8 35.9969 44.6267 35.6902 44.4C35.5836 44.3267 35.5202 44.24 35.5002 44.14C35.4802 44.04 35.4902 43.9467 35.5302 43.86C35.5769 43.7733 35.6436 43.7167 35.7302 43.69C35.8169 43.6567 35.9169 43.6767 36.0302 43.75C36.3302 43.97 36.6502 44.1267 36.9902 44.22C37.3302 44.3133 37.7136 44.36 38.1402 44.36C38.7402 44.36 39.1836 44.25 39.4702 44.03C39.7636 43.8033 39.9102 43.5067 39.9102 43.14C39.9102 42.8467 39.8036 42.6133 39.5902 42.44C39.3836 42.2667 39.0336 42.13 38.5402 42.03L37.5002 41.82C36.8736 41.6867 36.4036 41.47 36.0902 41.17C35.7836 40.8633 35.6302 40.4567 35.6302 39.95C35.6302 39.53 35.7369 39.1633 35.9502 38.85C36.1702 38.5367 36.4736 38.2933 36.8602 38.12C37.2469 37.9467 37.6936 37.86 38.2002 37.86C38.6202 37.86 39.0102 37.92 39.3702 38.04C39.7369 38.1533 40.0669 38.3267 40.3602 38.56C40.4536 38.6333 40.5069 38.72 40.5202 38.82C40.5402 38.9133 40.5269 39 40.4802 39.08C40.4336 39.16 40.3669 39.2133 40.2802 39.24C40.1936 39.26 40.0902 39.2333 39.9702 39.16C39.7036 38.9533 39.4236 38.8067 39.1302 38.72C38.8436 38.6333 38.5302 38.59 38.1902 38.59C37.6636 38.59 37.2436 38.7133 36.9302 38.96C36.6169 39.2 36.4602 39.52 36.4602 39.92C36.4602 40.24 36.5569 40.4933 36.7502 40.68C36.9502 40.8667 37.2736 41.0033 37.7202 41.09L38.7602 41.31C39.4336 41.45 39.9302 41.6633 40.2502 41.95C40.5769 42.23 40.7402 42.6133 40.7402 43.1C40.7402 43.4933 40.6336 43.84 40.4202 44.14C40.2136 44.44 39.9136 44.6733 39.5202 44.84C39.1336 45.0067 38.6736 45.09 38.1402 45.09ZM43.833 45.09C43.2597 45.09 42.8297 44.94 42.543 44.64C42.2564 44.3333 42.113 43.8933 42.113 43.32V40.77H41.443C41.2097 40.77 41.093 40.6633 41.093 40.45C41.093 40.2433 41.2097 40.14 41.443 40.14H42.113V38.99C42.113 38.7167 42.2497 38.58 42.523 38.58C42.7897 38.58 42.923 38.7167 42.923 38.99V40.14H44.183C44.4164 40.14 44.533 40.2433 44.533 40.45C44.533 40.6633 44.4164 40.77 44.183 40.77H42.923V43.24C42.923 43.62 43.003 43.91 43.163 44.11C43.323 44.3033 43.583 44.4 43.943 44.4C44.0697 44.4 44.1764 44.3867 44.263 44.36C44.3497 44.3333 44.4264 44.32 44.493 44.32C44.553 44.3133 44.603 44.3333 44.643 44.38C44.683 44.4267 44.703 44.5067 44.703 44.62C44.703 44.7 44.6864 44.7733 44.653 44.84C44.6264 44.9067 44.5764 44.9533 44.503 44.98C44.423 45.0067 44.3164 45.03 44.183 45.05C44.0564 45.0767 43.9397 45.09 43.833 45.09ZM46.9091 45.09C46.5758 45.09 46.2758 45.0267 46.0091 44.9C45.7491 44.7667 45.5425 44.5867 45.3891 44.36C45.2358 44.1333 45.1591 43.88 45.1591 43.6C45.1591 43.2467 45.2491 42.9667 45.4291 42.76C45.6158 42.5533 45.9191 42.4067 46.3391 42.32C46.7658 42.2267 47.3458 42.18 48.0791 42.18H48.3991V41.87C48.3991 41.4567 48.3125 41.16 48.1391 40.98C47.9725 40.7933 47.7025 40.7 47.3291 40.7C47.0958 40.7 46.8591 40.73 46.6191 40.79C46.3858 40.85 46.1425 40.9467 45.8891 41.08C45.7758 41.14 45.6791 41.1533 45.5991 41.12C45.5258 41.08 45.4725 41.02 45.4391 40.94C45.4125 40.8533 45.4125 40.7667 45.4391 40.68C45.4725 40.5867 45.5391 40.5167 45.6391 40.47C45.9258 40.3233 46.2125 40.2167 46.4991 40.15C46.7925 40.0833 47.0691 40.05 47.3291 40.05C47.9558 40.05 48.4191 40.2033 48.7191 40.51C49.0258 40.8167 49.1791 41.2933 49.1791 41.94V44.65C49.1791 44.93 49.0558 45.07 48.8091 45.07C48.5491 45.07 48.4191 44.93 48.4191 44.65V44.16C48.2925 44.4467 48.0958 44.6733 47.8291 44.84C47.5691 45.0067 47.2625 45.09 46.9091 45.09ZM47.0391 44.48C47.4391 44.48 47.7658 44.3433 48.0191 44.07C48.2725 43.79 48.3991 43.4367 48.3991 43.01V42.71H48.0891C47.5491 42.71 47.1225 42.7367 46.8091 42.79C46.5025 42.8367 46.2858 42.9233 46.1591 43.05C46.0391 43.17 45.9791 43.3367 45.9791 43.55C45.9791 43.8233 46.0725 44.0467 46.2591 44.22C46.4525 44.3933 46.7125 44.48 47.0391 44.48ZM51.0919 45.07C50.8185 45.07 50.6819 44.93 50.6819 44.65V40.48C50.6819 40.2067 50.8119 40.07 51.0719 40.07C51.3385 40.07 51.4719 40.2067 51.4719 40.48V41.01C51.6052 40.7033 51.8119 40.47 52.0919 40.31C52.3719 40.1433 52.7052 40.0533 53.0919 40.04C53.3052 40.02 53.4185 40.1267 53.4319 40.36C53.4519 40.5933 53.3319 40.7233 53.0719 40.75L52.9119 40.77C52.4519 40.81 52.1019 40.9567 51.8619 41.21C51.6219 41.4567 51.5019 41.7967 51.5019 42.23V44.65C51.5019 44.93 51.3652 45.07 51.0919 45.07ZM60.004 45.09C59.3107 45.09 58.7173 44.9433 58.224 44.65C57.7307 44.3567 57.3507 43.94 57.084 43.4C56.824 42.86 56.694 42.2167 56.694 41.47C56.694 40.73 56.824 40.09 57.084 39.55C57.3507 39.01 57.7307 38.5933 58.224 38.3C58.7173 38.0067 59.3107 37.86 60.004 37.86C60.4173 37.86 60.8107 37.92 61.184 38.04C61.5573 38.16 61.8807 38.33 62.154 38.55C62.2673 38.63 62.3307 38.7233 62.344 38.83C62.364 38.9367 62.3473 39.0333 62.294 39.12C62.2407 39.2 62.164 39.2533 62.064 39.28C61.9707 39.3 61.864 39.2667 61.744 39.18C61.2707 38.8 60.6973 38.61 60.024 38.61C59.2307 38.61 58.624 38.86 58.204 39.36C57.784 39.86 57.574 40.5633 57.574 41.47C57.574 42.3833 57.784 43.09 58.204 43.59C58.624 44.09 59.2307 44.34 60.024 44.34C60.6973 44.34 61.2773 44.1467 61.764 43.76C61.884 43.68 61.9907 43.65 62.084 43.67C62.184 43.69 62.2573 43.74 62.304 43.82C62.3573 43.9 62.3773 43.99 62.364 44.09C62.3507 44.19 62.294 44.28 62.194 44.36C61.9073 44.6 61.5773 44.7833 61.204 44.91C60.8307 45.03 60.4307 45.09 60.004 45.09ZM63.9725 38.97C63.6192 38.97 63.4425 38.8033 63.4425 38.47C63.4425 38.1433 63.6192 37.98 63.9725 37.98C64.3258 37.98 64.5025 38.1433 64.5025 38.47C64.5025 38.8033 64.3258 38.97 63.9725 38.97ZM63.9725 45.05C63.7058 45.05 63.5725 44.9033 63.5725 44.61V40.52C63.5725 40.2333 63.7058 40.09 63.9725 40.09C64.2458 40.09 64.3825 40.2333 64.3825 40.52V44.61C64.3825 44.9033 64.2458 45.05 63.9725 45.05ZM66.2967 46.87C66.0301 46.87 65.8967 46.7333 65.8967 46.46V40.48C65.8967 40.2067 66.0267 40.07 66.2867 40.07C66.5601 40.07 66.6967 40.2067 66.6967 40.48V41C66.8367 40.7067 67.0534 40.4767 67.3467 40.31C67.6401 40.1367 67.9767 40.05 68.3567 40.05C68.7901 40.05 69.1667 40.1533 69.4867 40.36C69.8134 40.56 70.0634 40.85 70.2367 41.23C70.4167 41.6033 70.5067 42.05 70.5067 42.57C70.5067 43.0833 70.4167 43.53 70.2367 43.91C70.0634 44.2833 69.8134 44.5733 69.4867 44.78C69.1667 44.9867 68.7901 45.09 68.3567 45.09C67.9834 45.09 67.6501 45.0067 67.3567 44.84C67.0634 44.6733 66.8467 44.4433 66.7067 44.15V46.46C66.7067 46.7333 66.5701 46.87 66.2967 46.87ZM68.1867 44.44C68.6401 44.44 69.0034 44.28 69.2767 43.96C69.5501 43.6333 69.6867 43.17 69.6867 42.57C69.6867 41.9633 69.5501 41.5 69.2767 41.18C69.0034 40.86 68.6401 40.7 68.1867 40.7C67.7334 40.7 67.3701 40.86 67.0967 41.18C66.8234 41.5 66.6867 41.9633 66.6867 42.57C66.6867 43.17 66.8234 43.6333 67.0967 43.96C67.3701 44.28 67.7334 44.44 68.1867 44.44ZM73.628 45.09C73.0546 45.09 72.6246 44.94 72.338 44.64C72.0513 44.3333 71.908 43.8933 71.908 43.32V40.77H71.238C71.0046 40.77 70.888 40.6633 70.888 40.45C70.888 40.2433 71.0046 40.14 71.238 40.14H71.908V38.99C71.908 38.7167 72.0446 38.58 72.318 38.58C72.5846 38.58 72.718 38.7167 72.718 38.99V40.14H73.978C74.2113 40.14 74.328 40.2433 74.328 40.45C74.328 40.6633 74.2113 40.77 73.978 40.77H72.718V43.24C72.718 43.62 72.798 43.91 72.958 44.11C73.118 44.3033 73.378 44.4 73.738 44.4C73.8646 44.4 73.9713 44.3867 74.058 44.36C74.1446 44.3333 74.2213 44.32 74.288 44.32C74.348 44.3133 74.398 44.3333 74.438 44.38C74.478 44.4267 74.498 44.5067 74.498 44.62C74.498 44.7 74.4813 44.7733 74.448 44.84C74.4213 44.9067 74.3713 44.9533 74.298 44.98C74.218 45.0067 74.1113 45.03 73.978 45.05C73.8513 45.0767 73.7346 45.09 73.628 45.09ZM76.7041 45.09C76.3707 45.09 76.0707 45.0267 75.8041 44.9C75.5441 44.7667 75.3374 44.5867 75.1841 44.36C75.0307 44.1333 74.9541 43.88 74.9541 43.6C74.9541 43.2467 75.0441 42.9667 75.2241 42.76C75.4107 42.5533 75.7141 42.4067 76.1341 42.32C76.5607 42.2267 77.1407 42.18 77.8741 42.18H78.1941V41.87C78.1941 41.4567 78.1074 41.16 77.9341 40.98C77.7674 40.7933 77.4974 40.7 77.1241 40.7C76.8907 40.7 76.6541 40.73 76.4141 40.79C76.1807 40.85 75.9374 40.9467 75.6841 41.08C75.5707 41.14 75.4741 41.1533 75.3941 41.12C75.3207 41.08 75.2674 41.02 75.2341 40.94C75.2074 40.8533 75.2074 40.7667 75.2341 40.68C75.2674 40.5867 75.3341 40.5167 75.4341 40.47C75.7207 40.3233 76.0074 40.2167 76.2941 40.15C76.5874 40.0833 76.8641 40.05 77.1241 40.05C77.7507 40.05 78.2141 40.2033 78.5141 40.51C78.8207 40.8167 78.9741 41.2933 78.9741 41.94V44.65C78.9741 44.93 78.8507 45.07 78.6041 45.07C78.3441 45.07 78.2141 44.93 78.2141 44.65V44.16C78.0874 44.4467 77.8907 44.6733 77.6241 44.84C77.3641 45.0067 77.0574 45.09 76.7041 45.09ZM76.8341 44.48C77.2341 44.48 77.5607 44.3433 77.8141 44.07C78.0674 43.79 78.1941 43.4367 78.1941 43.01V42.71H77.8841C77.3441 42.71 76.9174 42.7367 76.6041 42.79C76.2974 42.8367 76.0807 42.9233 75.9541 43.05C75.8341 43.17 75.7741 43.3367 75.7741 43.55C75.7741 43.8233 75.8674 44.0467 76.0541 44.22C76.2474 44.3933 76.5074 44.48 76.8341 44.48ZM85.3049 45.07C85.0316 45.07 84.8949 44.9267 84.8949 44.64V38.66H82.6449C82.3916 38.66 82.2649 38.54 82.2649 38.3C82.2649 38.0667 82.3916 37.95 82.6449 37.95H87.9749C88.2283 37.95 88.3549 38.0667 88.3549 38.3C88.3549 38.54 88.2283 38.66 87.9749 38.66H85.7249V44.64C85.7249 44.9267 85.5849 45.07 85.3049 45.07ZM90.4988 45.09C89.7322 45.09 89.1255 44.8667 88.6788 44.42C88.2322 43.9667 88.0088 43.3533 88.0088 42.58C88.0088 42.08 88.1088 41.64 88.3088 41.26C88.5088 40.8733 88.7822 40.5767 89.1288 40.37C89.4822 40.1567 89.8888 40.05 90.3488 40.05C91.0088 40.05 91.5255 40.2633 91.8988 40.69C92.2722 41.11 92.4588 41.69 92.4588 42.43C92.4588 42.6367 92.3422 42.74 92.1088 42.74H88.7988C88.8255 43.2933 88.9855 43.7167 89.2788 44.01C89.5722 44.2967 89.9788 44.44 90.4988 44.44C90.7188 44.44 90.9422 44.4133 91.1688 44.36C91.3955 44.3 91.6155 44.1967 91.8288 44.05C91.9822 43.95 92.1088 43.93 92.2088 43.99C92.3155 44.05 92.3688 44.1433 92.3688 44.27C92.3755 44.39 92.3088 44.4967 92.1688 44.59C91.9488 44.75 91.6855 44.8733 91.3788 44.96C91.0788 45.0467 90.7855 45.09 90.4988 45.09ZM90.3688 40.65C89.9088 40.65 89.5455 40.7933 89.2788 41.08C89.0122 41.3667 88.8555 41.7433 88.8088 42.21H91.7588C91.7388 41.7167 91.6088 41.3333 91.3688 41.06C91.1355 40.7867 90.8022 40.65 90.3688 40.65ZM94.0311 45.07C93.7644 45.07 93.6311 44.93 93.6311 44.65V38.29C93.6311 38.0167 93.7644 37.88 94.0311 37.88C94.3044 37.88 94.4411 38.0167 94.4411 38.29V42.3H94.4611L96.5111 40.34C96.5978 40.2533 96.6778 40.1867 96.7511 40.14C96.8244 40.0933 96.9211 40.07 97.0411 40.07C97.2011 40.07 97.3044 40.1333 97.3511 40.26C97.4044 40.38 97.3711 40.5033 97.2511 40.63L95.3011 42.48L97.4411 44.49C97.5811 44.6233 97.6178 44.7533 97.5511 44.88C97.4911 45.0067 97.3878 45.07 97.2411 45.07C97.1211 45.07 97.0211 45.0467 96.9411 45C96.8678 44.9467 96.7811 44.87 96.6811 44.77L94.4611 42.72H94.4411V44.65C94.4411 44.93 94.3044 45.07 94.0311 45.07ZM99.0311 45.07C98.7644 45.07 98.6311 44.93 98.6311 44.65V40.48C98.6311 40.2067 98.7611 40.07 99.0211 40.07C99.2878 40.07 99.4211 40.2067 99.4211 40.48V40.97C99.5811 40.6633 99.8078 40.4333 100.101 40.28C100.394 40.1267 100.724 40.05 101.091 40.05C102.244 40.05 102.821 40.69 102.821 41.97V44.65C102.821 44.93 102.688 45.07 102.421 45.07C102.148 45.07 102.011 44.93 102.011 44.65V42.02C102.011 41.5667 101.921 41.2367 101.741 41.03C101.568 40.8167 101.288 40.71 100.901 40.71C100.454 40.71 100.098 40.85 99.8311 41.13C99.5711 41.4033 99.4411 41.77 99.4411 42.23V44.65C99.4411 44.93 99.3044 45.07 99.0311 45.07ZM106.335 45.09C105.861 45.09 105.451 44.9867 105.105 44.78C104.758 44.5733 104.488 44.2833 104.295 43.91C104.108 43.53 104.015 43.0833 104.015 42.57C104.015 42.0567 104.108 41.6133 104.295 41.24C104.488 40.86 104.758 40.5667 105.105 40.36C105.451 40.1533 105.861 40.05 106.335 40.05C106.801 40.05 107.208 40.1533 107.555 40.36C107.908 40.5667 108.178 40.86 108.365 41.24C108.558 41.6133 108.655 42.0567 108.655 42.57C108.655 43.0833 108.558 43.53 108.365 43.91C108.178 44.2833 107.908 44.5733 107.555 44.78C107.208 44.9867 106.801 45.09 106.335 45.09ZM106.335 44.44C106.788 44.44 107.151 44.28 107.425 43.96C107.698 43.6333 107.835 43.17 107.835 42.57C107.835 41.9633 107.698 41.5 107.425 41.18C107.151 40.86 106.788 40.7 106.335 40.7C105.875 40.7 105.508 40.86 105.235 41.18C104.968 41.5 104.835 41.9633 104.835 42.57C104.835 43.17 104.968 43.6333 105.235 43.96C105.508 44.28 105.875 44.44 106.335 44.44ZM111.351 45.09C110.871 45.09 110.505 44.9467 110.251 44.66C109.998 44.3667 109.871 43.9433 109.871 43.39V38.29C109.871 38.0167 110.005 37.88 110.271 37.88C110.545 37.88 110.681 38.0167 110.681 38.29V43.33C110.681 44.0433 110.965 44.4 111.531 44.4C111.591 44.4 111.645 44.3967 111.691 44.39C111.738 44.3833 111.785 44.38 111.831 44.38C111.905 44.3733 111.955 44.39 111.981 44.43C112.015 44.47 112.031 44.55 112.031 44.67C112.031 44.8967 111.918 45.0267 111.691 45.06C111.638 45.0733 111.581 45.08 111.521 45.08C111.461 45.0867 111.405 45.09 111.351 45.09ZM114.801 45.09C114.328 45.09 113.918 44.9867 113.571 44.78C113.225 44.5733 112.955 44.2833 112.761 43.91C112.575 43.53 112.481 43.0833 112.481 42.57C112.481 42.0567 112.575 41.6133 112.761 41.24C112.955 40.86 113.225 40.5667 113.571 40.36C113.918 40.1533 114.328 40.05 114.801 40.05C115.268 40.05 115.675 40.1533 116.021 40.36C116.375 40.5667 116.645 40.86 116.831 41.24C117.025 41.6133 117.121 42.0567 117.121 42.57C117.121 43.0833 117.025 43.53 116.831 43.91C116.645 44.2833 116.375 44.5733 116.021 44.78C115.675 44.9867 115.268 45.09 114.801 45.09ZM114.801 44.44C115.255 44.44 115.618 44.28 115.891 43.96C116.165 43.6333 116.301 43.17 116.301 42.57C116.301 41.9633 116.165 41.5 115.891 41.18C115.618 40.86 115.255 40.7 114.801 40.7C114.341 40.7 113.975 40.86 113.701 41.18C113.435 41.5 113.301 41.9633 113.301 42.57C113.301 43.17 113.435 43.6333 113.701 43.96C113.975 44.28 114.341 44.44 114.801 44.44ZM120.488 46.89C120.135 46.89 119.788 46.8467 119.448 46.76C119.115 46.68 118.811 46.55 118.538 46.37C118.438 46.31 118.378 46.2367 118.358 46.15C118.345 46.07 118.358 45.99 118.398 45.91C118.438 45.8367 118.495 45.7833 118.568 45.75C118.648 45.7167 118.731 45.7233 118.818 45.77C119.111 45.95 119.391 46.0733 119.658 46.14C119.925 46.2067 120.188 46.24 120.448 46.24C121.408 46.24 121.888 45.7467 121.888 44.76V43.9C121.748 44.2067 121.528 44.45 121.228 44.63C120.935 44.8033 120.598 44.89 120.218 44.89C119.771 44.89 119.385 44.7867 119.058 44.58C118.731 44.3733 118.478 44.09 118.298 43.73C118.125 43.3633 118.038 42.94 118.038 42.46C118.038 41.98 118.125 41.56 118.298 41.2C118.478 40.8333 118.731 40.55 119.058 40.35C119.385 40.15 119.771 40.05 120.218 40.05C120.598 40.05 120.935 40.1333 121.228 40.3C121.521 40.4667 121.738 40.7 121.878 41V40.48C121.878 40.2067 122.011 40.07 122.278 40.07C122.545 40.07 122.678 40.2067 122.678 40.48V44.65C122.678 45.3967 122.491 45.9567 122.118 46.33C121.751 46.7033 121.208 46.89 120.488 46.89ZM120.368 44.23C120.835 44.23 121.205 44.07 121.478 43.75C121.751 43.43 121.888 43 121.888 42.46C121.888 41.92 121.751 41.4933 121.478 41.18C121.205 40.86 120.835 40.7 120.368 40.7C119.908 40.7 119.541 40.86 119.268 41.18C118.995 41.4933 118.858 41.92 118.858 42.46C118.858 43 118.995 43.43 119.268 43.75C119.541 44.07 119.908 44.23 120.368 44.23ZM124.598 38.97C124.244 38.97 124.068 38.8033 124.068 38.47C124.068 38.1433 124.244 37.98 124.598 37.98C124.951 37.98 125.128 38.1433 125.128 38.47C125.128 38.8033 124.951 38.97 124.598 38.97ZM124.598 45.05C124.331 45.05 124.198 44.9033 124.198 44.61V40.52C124.198 40.2333 124.331 40.09 124.598 40.09C124.871 40.09 125.008 40.2333 125.008 40.52V44.61C125.008 44.9033 124.871 45.05 124.598 45.05ZM26.41 73.08C25.9833 73.08 25.77 72.86 25.77 72.42V66.6C25.77 66.1667 25.9867 65.95 26.42 65.95H28.83C29.6033 65.95 30.2 66.1433 30.62 66.53C31.04 66.9167 31.25 67.4567 31.25 68.15C31.25 68.8433 31.04 69.3867 30.62 69.78C30.2 70.1667 29.6033 70.36 28.83 70.36H27.05V72.42C27.05 72.86 26.8367 73.08 26.41 73.08ZM27.05 69.35H28.63C29.55 69.35 30.01 68.95 30.01 68.15C30.01 67.3567 29.55 66.96 28.63 66.96H27.05V69.35ZM34.1495 73.1C33.6429 73.1 33.2029 72.9967 32.8295 72.79C32.4562 72.5833 32.1662 72.29 31.9595 71.91C31.7529 71.5233 31.6495 71.07 31.6495 70.55C31.6495 70.03 31.7529 69.58 31.9595 69.2C32.1662 68.82 32.4562 68.5267 32.8295 68.32C33.2029 68.1133 33.6429 68.01 34.1495 68.01C34.6562 68.01 35.0962 68.1133 35.4695 68.32C35.8429 68.5267 36.1329 68.82 36.3395 69.2C36.5462 69.58 36.6495 70.03 36.6495 70.55C36.6495 71.07 36.5462 71.5233 36.3395 71.91C36.1329 72.29 35.8429 72.5833 35.4695 72.79C35.0962 72.9967 34.6562 73.1 34.1495 73.1ZM34.1495 72.15C34.5229 72.15 34.8229 72.0167 35.0495 71.75C35.2762 71.4767 35.3895 71.0767 35.3895 70.55C35.3895 70.0167 35.2762 69.62 35.0495 69.36C34.8229 69.0933 34.5229 68.96 34.1495 68.96C33.7762 68.96 33.4762 69.0933 33.2495 69.36C33.0229 69.62 32.9095 70.0167 32.9095 70.55C32.9095 71.0767 33.0229 71.4767 33.2495 71.75C33.4762 72.0167 33.7762 72.15 34.1495 72.15ZM39.4713 73.1C39.1846 73.1 38.8813 73.07 38.5613 73.01C38.2413 72.95 37.9546 72.8467 37.7013 72.7C37.5613 72.62 37.4746 72.5233 37.4413 72.41C37.4079 72.29 37.4113 72.18 37.4513 72.08C37.4979 71.9733 37.5713 71.8967 37.6713 71.85C37.7779 71.8033 37.9013 71.8133 38.0413 71.88C38.3079 72.0067 38.5579 72.0967 38.7913 72.15C39.0246 72.1967 39.2546 72.22 39.4813 72.22C39.8013 72.22 40.0379 72.1667 40.1913 72.06C40.3513 71.9467 40.4313 71.8 40.4313 71.62C40.4313 71.34 40.2246 71.16 39.8113 71.08L38.8113 70.89C37.9646 70.73 37.5413 70.29 37.5413 69.57C37.5413 69.25 37.6279 68.9733 37.8013 68.74C37.9813 68.5067 38.2279 68.3267 38.5413 68.2C38.8546 68.0733 39.2146 68.01 39.6213 68.01C40.2079 68.01 40.7313 68.14 41.1913 68.4C41.3179 68.4667 41.3913 68.56 41.4113 68.68C41.4379 68.7933 41.4246 68.9033 41.3713 69.01C41.3246 69.11 41.2479 69.1833 41.1413 69.23C41.0346 69.27 40.9113 69.2567 40.7713 69.19C40.5646 69.0833 40.3646 69.0067 40.1713 68.96C39.9846 68.9133 39.8046 68.89 39.6313 68.89C39.3046 68.89 39.0613 68.9467 38.9013 69.06C38.7479 69.1733 38.6713 69.3233 38.6713 69.51C38.6713 69.8033 38.8613 69.9833 39.2413 70.05L40.2413 70.24C40.6746 70.32 41.0013 70.4667 41.2213 70.68C41.4479 70.8933 41.5613 71.18 41.5613 71.54C41.5613 72.0267 41.3713 72.41 40.9913 72.69C40.6113 72.9633 40.1046 73.1 39.4713 73.1ZM43.1841 67.11C42.9507 67.11 42.7674 67.0533 42.6341 66.94C42.5074 66.82 42.4441 66.6567 42.4441 66.45C42.4441 66.2367 42.5074 66.0733 42.6341 65.96C42.7674 65.8467 42.9507 65.79 43.1841 65.79C43.6774 65.79 43.9241 66.01 43.9241 66.45C43.9241 66.89 43.6774 67.11 43.1841 67.11ZM43.1841 73.07C42.9841 73.07 42.8307 73.01 42.7241 72.89C42.6174 72.77 42.5641 72.6033 42.5641 72.39V68.72C42.5641 68.2667 42.7707 68.04 43.1841 68.04C43.6041 68.04 43.8141 68.2667 43.8141 68.72V72.39C43.8141 72.6033 43.7607 72.77 43.6541 72.89C43.5474 73.01 43.3907 73.07 43.1841 73.07ZM47.3529 73.1C46.0596 73.1 45.4129 72.46 45.4129 71.18V69.05H44.8929C44.5596 69.05 44.3929 68.8933 44.3929 68.58C44.3929 68.2667 44.5596 68.11 44.8929 68.11H45.4129V67.2C45.4129 66.78 45.6229 66.57 46.0429 66.57C46.4562 66.57 46.6629 66.78 46.6629 67.2V68.11H47.7229C48.0562 68.11 48.2229 68.2667 48.2229 68.58C48.2229 68.8933 48.0562 69.05 47.7229 69.05H46.6629V71.11C46.6629 71.43 46.7329 71.67 46.8729 71.83C47.0129 71.99 47.2396 72.07 47.5529 72.07C47.6662 72.07 47.7662 72.06 47.8529 72.04C47.9396 72.02 48.0162 72.0067 48.0829 72C48.1629 71.9933 48.2296 72.02 48.2829 72.08C48.3362 72.1333 48.3629 72.2467 48.3629 72.42C48.3629 72.5533 48.3396 72.6733 48.2929 72.78C48.2529 72.88 48.1762 72.95 48.0629 72.99C47.9762 73.0167 47.8629 73.04 47.7229 73.06C47.5829 73.0867 47.4596 73.1 47.3529 73.1ZM49.6977 67.11C49.4644 67.11 49.2811 67.0533 49.1477 66.94C49.0211 66.82 48.9577 66.6567 48.9577 66.45C48.9577 66.2367 49.0211 66.0733 49.1477 65.96C49.2811 65.8467 49.4644 65.79 49.6977 65.79C50.1911 65.79 50.4377 66.01 50.4377 66.45C50.4377 66.89 50.1911 67.11 49.6977 67.11ZM49.6977 73.07C49.4977 73.07 49.3444 73.01 49.2377 72.89C49.1311 72.77 49.0777 72.6033 49.0777 72.39V68.72C49.0777 68.2667 49.2844 68.04 49.6977 68.04C50.1177 68.04 50.3277 68.2667 50.3277 68.72V72.39C50.3277 72.6033 50.2744 72.77 50.1677 72.89C50.0611 73.01 49.9044 73.07 49.6977 73.07ZM53.8566 73.1C53.3499 73.1 52.9099 72.9967 52.5366 72.79C52.1632 72.5833 51.8732 72.29 51.6666 71.91C51.4599 71.5233 51.3566 71.07 51.3566 70.55C51.3566 70.03 51.4599 69.58 51.6666 69.2C51.8732 68.82 52.1632 68.5267 52.5366 68.32C52.9099 68.1133 53.3499 68.01 53.8566 68.01C54.3632 68.01 54.8032 68.1133 55.1766 68.32C55.5499 68.5267 55.8399 68.82 56.0466 69.2C56.2532 69.58 56.3566 70.03 56.3566 70.55C56.3566 71.07 56.2532 71.5233 56.0466 71.91C55.8399 72.29 55.5499 72.5833 55.1766 72.79C54.8032 72.9967 54.3632 73.1 53.8566 73.1ZM53.8566 72.15C54.2299 72.15 54.5299 72.0167 54.7566 71.75C54.9832 71.4767 55.0966 71.0767 55.0966 70.55C55.0966 70.0167 54.9832 69.62 54.7566 69.36C54.5299 69.0933 54.2299 68.96 53.8566 68.96C53.4832 68.96 53.1832 69.0933 52.9566 69.36C52.7299 69.62 52.6166 70.0167 52.6166 70.55C52.6166 71.0767 52.7299 71.4767 52.9566 71.75C53.1832 72.0167 53.4832 72.15 53.8566 72.15ZM58.0083 73.08C57.5949 73.08 57.3883 72.8667 57.3883 72.44V68.66C57.3883 68.24 57.5916 68.03 57.9983 68.03C58.4049 68.03 58.6083 68.24 58.6083 68.66V68.87C58.7749 68.59 58.9983 68.3767 59.2783 68.23C59.5649 68.0833 59.8849 68.01 60.2383 68.01C61.3916 68.01 61.9683 68.68 61.9683 70.02V72.44C61.9683 72.8667 61.7616 73.08 61.3483 73.08C60.9283 73.08 60.7183 72.8667 60.7183 72.44V70.08C60.7183 69.7 60.6449 69.4233 60.4983 69.25C60.3583 69.0767 60.1383 68.99 59.8383 68.99C59.4716 68.99 59.1783 69.1067 58.9583 69.34C58.7449 69.5667 58.6383 69.87 58.6383 70.25V72.44C58.6383 72.8667 58.4283 73.08 58.0083 73.08ZM28.65 87.09C27.7233 87.09 27.02 86.8467 26.54 86.36C26.06 85.8667 25.82 85.15 25.82 84.21V80.3C25.82 80.02 25.9567 79.88 26.23 79.88C26.5033 79.88 26.64 80.02 26.64 80.3V84.17C26.64 85.63 27.31 86.36 28.65 86.36C29.9767 86.36 30.64 85.63 30.64 84.17V80.3C30.64 80.02 30.78 79.88 31.06 79.88C31.3267 79.88 31.46 80.02 31.46 80.3V84.21C31.46 85.15 31.22 85.8667 30.74 86.36C30.2667 86.8467 29.57 87.09 28.65 87.09ZM33.5554 87.07C33.2821 87.07 33.1454 86.9267 33.1454 86.64V80.31C33.1454 80.0233 33.2821 79.88 33.5554 79.88C33.8287 79.88 33.9654 80.0233 33.9654 80.31V86.64C33.9654 86.9267 33.8287 87.07 33.5554 87.07ZM35.3938 87.34C35.3538 87.4533 35.2938 87.5267 35.2138 87.56C35.1338 87.6 35.0504 87.6067 34.9638 87.58C34.8771 87.5533 34.8104 87.5033 34.7637 87.43C34.7171 87.3567 34.7104 87.2633 34.7437 87.15L37.1238 79.77C37.1638 79.6633 37.2238 79.5933 37.3038 79.56C37.3838 79.52 37.4671 79.5133 37.5538 79.54C37.6404 79.56 37.7071 79.61 37.7538 79.69C37.8004 79.7633 37.8038 79.8533 37.7638 79.96L35.3938 87.34ZM41.3258 87.09C40.3991 87.09 39.6958 86.8467 39.2158 86.36C38.7358 85.8667 38.4958 85.15 38.4958 84.21V80.3C38.4958 80.02 38.6324 79.88 38.9058 79.88C39.1791 79.88 39.3158 80.02 39.3158 80.3V84.17C39.3158 85.63 39.9858 86.36 41.3258 86.36C42.6524 86.36 43.3158 85.63 43.3158 84.17V80.3C43.3158 80.02 43.4558 79.88 43.7358 79.88C44.0024 79.88 44.1358 80.02 44.1358 80.3V84.21C44.1358 85.15 43.8958 85.8667 43.4158 86.36C42.9424 86.8467 42.2458 87.09 41.3258 87.09ZM45.6433 87.07C45.4766 87.07 45.3566 87.01 45.2833 86.89C45.2166 86.7633 45.2366 86.6333 45.3433 86.5L47.6433 83.4L45.4833 80.47C45.3699 80.3233 45.3466 80.19 45.4133 80.07C45.4866 79.9433 45.5999 79.88 45.7533 79.88C45.9199 79.88 46.0699 79.97 46.2033 80.15L48.1233 82.78L50.0333 80.15C50.1599 79.97 50.3066 79.88 50.4733 79.88C50.6333 79.88 50.7466 79.9433 50.8133 80.07C50.8866 80.19 50.8666 80.3233 50.7533 80.47L48.5833 83.4L50.8933 86.5C50.9933 86.6333 51.0099 86.7633 50.9433 86.89C50.8766 87.01 50.7599 87.07 50.5933 87.07C50.4266 87.07 50.2766 86.98 50.1433 86.8L48.1133 84.02L46.0833 86.8C45.9566 86.98 45.8099 87.07 45.6433 87.07ZM55.2653 87C54.9653 87 54.8153 86.85 54.8153 86.55V80.4C54.8153 80.1 54.9653 79.95 55.2653 79.95H57.1953C58.3353 79.95 59.2153 80.2533 59.8353 80.86C60.4553 81.46 60.7653 82.33 60.7653 83.47C60.7653 84.61 60.4553 85.4833 59.8353 86.09C59.2153 86.6967 58.3353 87 57.1953 87H55.2653ZM55.6353 86.3H57.1353C58.9753 86.3 59.8953 85.3567 59.8953 83.47C59.8953 81.59 58.9753 80.65 57.1353 80.65H55.6353V86.3ZM64.3172 87.09C63.5505 87.09 62.9439 86.8667 62.4972 86.42C62.0505 85.9667 61.8272 85.3533 61.8272 84.58C61.8272 84.08 61.9272 83.64 62.1272 83.26C62.3272 82.8733 62.6005 82.5767 62.9472 82.37C63.3005 82.1567 63.7072 82.05 64.1672 82.05C64.8272 82.05 65.3439 82.2633 65.7172 82.69C66.0905 83.11 66.2772 83.69 66.2772 84.43C66.2772 84.6367 66.1605 84.74 65.9272 84.74H62.6172C62.6439 85.2933 62.8039 85.7167 63.0972 86.01C63.3905 86.2967 63.7972 86.44 64.3172 86.44C64.5372 86.44 64.7605 86.4133 64.9872 86.36C65.2139 86.3 65.4339 86.1967 65.6472 86.05C65.8005 85.95 65.9272 85.93 66.0272 85.99C66.1339 86.05 66.1872 86.1433 66.1872 86.27C66.1939 86.39 66.1272 86.4967 65.9872 86.59C65.7672 86.75 65.5039 86.8733 65.1972 86.96C64.8972 87.0467 64.6039 87.09 64.3172 87.09ZM64.1872 82.65C63.7272 82.65 63.3639 82.7933 63.0972 83.08C62.8305 83.3667 62.6739 83.7433 62.6272 84.21H65.5772C65.5572 83.7167 65.4272 83.3333 65.1872 83.06C64.9539 82.7867 64.6205 82.65 64.1872 82.65ZM69.0895 87.09C68.7895 87.09 68.4861 87.0533 68.1795 86.98C67.8795 86.9 67.5995 86.7733 67.3395 86.6C67.2195 86.5267 67.1595 86.4333 67.1595 86.32C67.1661 86.2 67.2128 86.1067 67.2995 86.04C67.3861 85.9733 67.4961 85.9733 67.6295 86.04C67.8895 86.2 68.1395 86.3133 68.3795 86.38C68.6261 86.44 68.8695 86.47 69.1095 86.47C69.4895 86.47 69.7761 86.4 69.9695 86.26C70.1628 86.12 70.2595 85.93 70.2595 85.69C70.2595 85.5033 70.1961 85.3567 70.0695 85.25C69.9428 85.1367 69.7428 85.05 69.4695 84.99L68.5595 84.79C67.7328 84.61 67.3195 84.1833 67.3195 83.51C67.3195 83.07 67.4928 82.7167 67.8395 82.45C68.1928 82.1833 68.6528 82.05 69.2195 82.05C69.5061 82.05 69.7828 82.09 70.0495 82.17C70.3161 82.2433 70.5561 82.3633 70.7695 82.53C70.8828 82.61 70.9328 82.7067 70.9195 82.82C70.9061 82.9333 70.8528 83.0233 70.7595 83.09C70.6728 83.15 70.5661 83.14 70.4395 83.06C70.2395 82.9267 70.0361 82.83 69.8295 82.77C69.6228 82.7033 69.4195 82.67 69.2195 82.67C68.8461 82.67 68.5628 82.7433 68.3695 82.89C68.1761 83.0367 68.0795 83.23 68.0795 83.47C68.0795 83.8433 68.3261 84.0833 68.8195 84.19L69.7295 84.38C70.1561 84.4733 70.4795 84.6233 70.6995 84.83C70.9195 85.03 71.0295 85.3033 71.0295 85.65C71.0295 86.0967 70.8528 86.45 70.4995 86.71C70.1461 86.9633 69.6761 87.09 69.0895 87.09ZM72.6639 80.97C72.3106 80.97 72.1339 80.8033 72.1339 80.47C72.1339 80.1433 72.3106 79.98 72.6639 79.98C73.0172 79.98 73.1939 80.1433 73.1939 80.47C73.1939 80.8033 73.0172 80.97 72.6639 80.97ZM72.6639 87.05C72.3972 87.05 72.2639 86.9033 72.2639 86.61V82.52C72.2639 82.2333 72.3972 82.09 72.6639 82.09C72.9372 82.09 73.0739 82.2333 73.0739 82.52V86.61C73.0739 86.9033 72.9372 87.05 72.6639 87.05ZM76.7381 88.89C76.3848 88.89 76.0381 88.8467 75.6981 88.76C75.3648 88.68 75.0615 88.55 74.7881 88.37C74.6881 88.31 74.6281 88.2367 74.6081 88.15C74.5948 88.07 74.6081 87.99 74.6481 87.91C74.6881 87.8367 74.7448 87.7833 74.8181 87.75C74.8981 87.7167 74.9815 87.7233 75.0681 87.77C75.3615 87.95 75.6415 88.0733 75.9081 88.14C76.1748 88.2067 76.4381 88.24 76.6981 88.24C77.6581 88.24 78.1381 87.7467 78.1381 86.76V85.9C77.9981 86.2067 77.7781 86.45 77.4781 86.63C77.1848 86.8033 76.8481 86.89 76.4681 86.89C76.0215 86.89 75.6348 86.7867 75.3081 86.58C74.9815 86.3733 74.7281 86.09 74.5481 85.73C74.3748 85.3633 74.2881 84.94 74.2881 84.46C74.2881 83.98 74.3748 83.56 74.5481 83.2C74.7281 82.8333 74.9815 82.55 75.3081 82.35C75.6348 82.15 76.0215 82.05 76.4681 82.05C76.8481 82.05 77.1848 82.1333 77.4781 82.3C77.7715 82.4667 77.9881 82.7 78.1281 83V82.48C78.1281 82.2067 78.2615 82.07 78.5281 82.07C78.7948 82.07 78.9281 82.2067 78.9281 82.48V86.65C78.9281 87.3967 78.7415 87.9567 78.3681 88.33C78.0015 88.7033 77.4581 88.89 76.7381 88.89ZM76.6181 86.23C77.0848 86.23 77.4548 86.07 77.7281 85.75C78.0015 85.43 78.1381 85 78.1381 84.46C78.1381 83.92 78.0015 83.4933 77.7281 83.18C77.4548 82.86 77.0848 82.7 76.6181 82.7C76.1581 82.7 75.7915 82.86 75.5181 83.18C75.2448 83.4933 75.1081 83.92 75.1081 84.46C75.1081 85 75.2448 85.43 75.5181 85.75C75.7915 86.07 76.1581 86.23 76.6181 86.23ZM80.8475 87.07C80.5808 87.07 80.4475 86.93 80.4475 86.65V82.48C80.4475 82.2067 80.5775 82.07 80.8375 82.07C81.1042 82.07 81.2375 82.2067 81.2375 82.48V82.97C81.3975 82.6633 81.6242 82.4333 81.9175 82.28C82.2108 82.1267 82.5408 82.05 82.9075 82.05C84.0608 82.05 84.6375 82.69 84.6375 83.97V86.65C84.6375 86.93 84.5042 87.07 84.2375 87.07C83.9642 87.07 83.8275 86.93 83.8275 86.65V84.02C83.8275 83.5667 83.7375 83.2367 83.5575 83.03C83.3842 82.8167 83.1042 82.71 82.7175 82.71C82.2708 82.71 81.9142 82.85 81.6475 83.13C81.3875 83.4033 81.2575 83.77 81.2575 84.23V86.65C81.2575 86.93 81.1208 87.07 80.8475 87.07ZM88.3211 87.09C87.5544 87.09 86.9478 86.8667 86.5011 86.42C86.0544 85.9667 85.8311 85.3533 85.8311 84.58C85.8311 84.08 85.9311 83.64 86.1311 83.26C86.3311 82.8733 86.6044 82.5767 86.9511 82.37C87.3044 82.1567 87.7111 82.05 88.1711 82.05C88.8311 82.05 89.3478 82.2633 89.7211 82.69C90.0944 83.11 90.2811 83.69 90.2811 84.43C90.2811 84.6367 90.1644 84.74 89.9311 84.74H86.6211C86.6478 85.2933 86.8078 85.7167 87.1011 86.01C87.3944 86.2967 87.8011 86.44 88.3211 86.44C88.5411 86.44 88.7644 86.4133 88.9911 86.36C89.2178 86.3 89.4378 86.1967 89.6511 86.05C89.8044 85.95 89.9311 85.93 90.0311 85.99C90.1378 86.05 90.1911 86.1433 90.1911 86.27C90.1978 86.39 90.1311 86.4967 89.9911 86.59C89.7711 86.75 89.5078 86.8733 89.2011 86.96C88.9011 87.0467 88.6078 87.09 88.3211 87.09ZM88.1911 82.65C87.7311 82.65 87.3678 82.7933 87.1011 83.08C86.8344 83.3667 86.6778 83.7433 86.6311 84.21H89.5811C89.5611 83.7167 89.4311 83.3333 89.1911 83.06C88.9578 82.7867 88.6244 82.65 88.1911 82.65ZM91.8634 87.07C91.59 87.07 91.4534 86.93 91.4534 86.65V82.48C91.4534 82.2067 91.5834 82.07 91.8434 82.07C92.11 82.07 92.2434 82.2067 92.2434 82.48V83.01C92.3767 82.7033 92.5834 82.47 92.8634 82.31C93.1434 82.1433 93.4767 82.0533 93.8634 82.04C94.0767 82.02 94.19 82.1267 94.2034 82.36C94.2234 82.5933 94.1034 82.7233 93.8434 82.75L93.6834 82.77C93.2234 82.81 92.8734 82.9567 92.6334 83.21C92.3934 83.4567 92.2734 83.7967 92.2734 84.23V86.65C92.2734 86.93 92.1367 87.07 91.8634 87.07ZM26.45 115C25.9967 115 25.77 114.773 25.77 114.32V108.63C25.77 108.177 25.9967 107.95 26.45 107.95H28.85C29.59 107.95 30.1633 108.113 30.57 108.44C30.9767 108.76 31.18 109.207 31.18 109.78C31.18 110.16 31.0833 110.487 30.89 110.76C30.6967 111.033 30.43 111.233 30.09 111.36C30.49 111.473 30.8 111.673 31.02 111.96C31.2467 112.24 31.36 112.597 31.36 113.03C31.36 113.657 31.1467 114.143 30.72 114.49C30.3 114.83 29.7133 115 28.96 115H26.45ZM27 110.94H28.63C29.5033 110.94 29.94 110.603 29.94 109.93C29.94 109.257 29.5033 108.92 28.63 108.92H27V110.94ZM27 114.03H28.8C29.68 114.03 30.12 113.677 30.12 112.97C30.12 112.263 29.68 111.91 28.8 111.91H27V114.03ZM34.3048 115.1C33.1048 115.1 32.5048 114.427 32.5048 113.08V110.66C32.5048 110.24 32.7114 110.03 33.1248 110.03C33.5448 110.03 33.7548 110.24 33.7548 110.66V113.1C33.7548 113.447 33.8248 113.703 33.9648 113.87C34.1048 114.037 34.3281 114.12 34.6348 114.12C34.9681 114.12 35.2414 114.007 35.4548 113.78C35.6681 113.547 35.7748 113.24 35.7748 112.86V110.66C35.7748 110.24 35.9814 110.03 36.3948 110.03C36.8148 110.03 37.0248 110.24 37.0248 110.66V114.44C37.0248 114.867 36.8214 115.08 36.4148 115.08C36.0081 115.08 35.8048 114.867 35.8048 114.44V114.27C35.4781 114.823 34.9781 115.1 34.3048 115.1ZM40.1158 115.1C39.8291 115.1 39.5258 115.07 39.2058 115.01C38.8858 114.95 38.5991 114.847 38.3458 114.7C38.2058 114.62 38.1191 114.523 38.0858 114.41C38.0524 114.29 38.0558 114.18 38.0958 114.08C38.1424 113.973 38.2158 113.897 38.3158 113.85C38.4224 113.803 38.5458 113.813 38.6858 113.88C38.9524 114.007 39.2024 114.097 39.4358 114.15C39.6691 114.197 39.8991 114.22 40.1258 114.22C40.4458 114.22 40.6824 114.167 40.8358 114.06C40.9958 113.947 41.0758 113.8 41.0758 113.62C41.0758 113.34 40.8691 113.16 40.4558 113.08L39.4558 112.89C38.6091 112.73 38.1858 112.29 38.1858 111.57C38.1858 111.25 38.2724 110.973 38.4458 110.74C38.6258 110.507 38.8724 110.327 39.1858 110.2C39.4991 110.073 39.8591 110.01 40.2658 110.01C40.8524 110.01 41.3758 110.14 41.8358 110.4C41.9624 110.467 42.0358 110.56 42.0558 110.68C42.0824 110.793 42.0691 110.903 42.0158 111.01C41.9691 111.11 41.8924 111.183 41.7858 111.23C41.6791 111.27 41.5558 111.257 41.4158 111.19C41.2091 111.083 41.0091 111.007 40.8158 110.96C40.6291 110.913 40.4491 110.89 40.2758 110.89C39.9491 110.89 39.7058 110.947 39.5458 111.06C39.3924 111.173 39.3158 111.323 39.3158 111.51C39.3158 111.803 39.5058 111.983 39.8858 112.05L40.8858 112.24C41.3191 112.32 41.6458 112.467 41.8658 112.68C42.0924 112.893 42.2058 113.18 42.2058 113.54C42.2058 114.027 42.0158 114.41 41.6358 114.69C41.2558 114.963 40.7491 115.1 40.1158 115.1ZM43.8286 109.11C43.5953 109.11 43.4119 109.053 43.2786 108.94C43.1519 108.82 43.0886 108.657 43.0886 108.45C43.0886 108.237 43.1519 108.073 43.2786 107.96C43.4119 107.847 43.5953 107.79 43.8286 107.79C44.3219 107.79 44.5686 108.01 44.5686 108.45C44.5686 108.89 44.3219 109.11 43.8286 109.11ZM43.8286 115.07C43.6286 115.07 43.4753 115.01 43.3686 114.89C43.2619 114.77 43.2086 114.603 43.2086 114.39V110.72C43.2086 110.267 43.4153 110.04 43.8286 110.04C44.2486 110.04 44.4586 110.267 44.4586 110.72V114.39C44.4586 114.603 44.4053 114.77 44.2986 114.89C44.1919 115.01 44.0353 115.07 43.8286 115.07ZM46.3774 115.08C45.9641 115.08 45.7574 114.867 45.7574 114.44V110.66C45.7574 110.24 45.9608 110.03 46.3674 110.03C46.7741 110.03 46.9774 110.24 46.9774 110.66V110.87C47.1441 110.59 47.3674 110.377 47.6474 110.23C47.9341 110.083 48.2541 110.01 48.6074 110.01C49.7608 110.01 50.3374 110.68 50.3374 112.02V114.44C50.3374 114.867 50.1308 115.08 49.7174 115.08C49.2974 115.08 49.0874 114.867 49.0874 114.44V112.08C49.0874 111.7 49.0141 111.423 48.8674 111.25C48.7274 111.077 48.5074 110.99 48.2074 110.99C47.8408 110.99 47.5474 111.107 47.3274 111.34C47.1141 111.567 47.0074 111.87 47.0074 112.25V114.44C47.0074 114.867 46.7974 115.08 46.3774 115.08ZM54.017 115.1C53.4637 115.1 52.987 114.997 52.587 114.79C52.187 114.583 51.877 114.29 51.657 113.91C51.4437 113.53 51.337 113.08 51.337 112.56C51.337 112.053 51.4404 111.61 51.647 111.23C51.8604 110.85 52.1504 110.553 52.517 110.34C52.8904 110.12 53.3137 110.01 53.787 110.01C54.4804 110.01 55.027 110.23 55.427 110.67C55.8337 111.11 56.037 111.71 56.037 112.47C56.037 112.717 55.877 112.84 55.557 112.84H52.537C52.6304 113.713 53.1304 114.15 54.037 114.15C54.2104 114.15 54.4037 114.13 54.617 114.09C54.837 114.043 55.0437 113.967 55.237 113.86C55.4104 113.76 55.557 113.73 55.677 113.77C55.797 113.803 55.8804 113.873 55.927 113.98C55.9804 114.087 55.987 114.207 55.947 114.34C55.9137 114.467 55.8204 114.577 55.667 114.67C55.4337 114.817 55.1637 114.927 54.857 115C54.557 115.067 54.277 115.1 54.017 115.1ZM53.837 110.86C53.4704 110.86 53.1737 110.973 52.947 111.2C52.7204 111.427 52.5837 111.733 52.537 112.12H54.997C54.9704 111.713 54.857 111.403 54.657 111.19C54.4637 110.97 54.1904 110.86 53.837 110.86ZM58.817 115.1C58.5303 115.1 58.227 115.07 57.907 115.01C57.587 114.95 57.3003 114.847 57.047 114.7C56.907 114.62 56.8203 114.523 56.787 114.41C56.7536 114.29 56.757 114.18 56.797 114.08C56.8436 113.973 56.917 113.897 57.017 113.85C57.1236 113.803 57.247 113.813 57.387 113.88C57.6536 114.007 57.9036 114.097 58.137 114.15C58.3703 114.197 58.6003 114.22 58.827 114.22C59.147 114.22 59.3836 114.167 59.537 114.06C59.697 113.947 59.777 113.8 59.777 113.62C59.777 113.34 59.5703 113.16 59.157 113.08L58.157 112.89C57.3103 112.73 56.887 112.29 56.887 111.57C56.887 111.25 56.9736 110.973 57.147 110.74C57.327 110.507 57.5736 110.327 57.887 110.2C58.2003 110.073 58.5603 110.01 58.967 110.01C59.5536 110.01 60.077 110.14 60.537 110.4C60.6636 110.467 60.737 110.56 60.757 110.68C60.7836 110.793 60.7703 110.903 60.717 111.01C60.6703 111.11 60.5936 111.183 60.487 111.23C60.3803 111.27 60.257 111.257 60.117 111.19C59.9103 111.083 59.7103 111.007 59.517 110.96C59.3303 110.913 59.1503 110.89 58.977 110.89C58.6503 110.89 58.407 110.947 58.247 111.06C58.0936 111.173 58.017 111.323 58.017 111.51C58.017 111.803 58.207 111.983 58.587 112.05L59.587 112.24C60.0203 112.32 60.347 112.467 60.567 112.68C60.7936 112.893 60.907 113.18 60.907 113.54C60.907 114.027 60.717 114.41 60.337 114.69C59.957 114.963 59.4503 115.1 58.817 115.1ZM63.6998 115.1C63.4131 115.1 63.1098 115.07 62.7898 115.01C62.4698 114.95 62.1831 114.847 61.9298 114.7C61.7898 114.62 61.7031 114.523 61.6698 114.41C61.6364 114.29 61.6398 114.18 61.6798 114.08C61.7264 113.973 61.7998 113.897 61.8998 113.85C62.0064 113.803 62.1298 113.813 62.2698 113.88C62.5364 114.007 62.7864 114.097 63.0198 114.15C63.2531 114.197 63.4831 114.22 63.7098 114.22C64.0298 114.22 64.2664 114.167 64.4198 114.06C64.5798 113.947 64.6598 113.8 64.6598 113.62C64.6598 113.34 64.4531 113.16 64.0398 113.08L63.0398 112.89C62.1931 112.73 61.7698 112.29 61.7698 111.57C61.7698 111.25 61.8564 110.973 62.0298 110.74C62.2098 110.507 62.4564 110.327 62.7698 110.2C63.0831 110.073 63.4431 110.01 63.8498 110.01C64.4364 110.01 64.9598 110.14 65.4198 110.4C65.5464 110.467 65.6198 110.56 65.6398 110.68C65.6664 110.793 65.6531 110.903 65.5998 111.01C65.5531 111.11 65.4764 111.183 65.3698 111.23C65.2631 111.27 65.1398 111.257 64.9998 111.19C64.7931 111.083 64.5931 111.007 64.3998 110.96C64.2131 110.913 64.0331 110.89 63.8598 110.89C63.5331 110.89 63.2898 110.947 63.1298 111.06C62.9764 111.173 62.8998 111.323 62.8998 111.51C62.8998 111.803 63.0898 111.983 63.4698 112.05L64.4698 112.24C64.9031 112.32 65.2298 112.467 65.4498 112.68C65.6764 112.893 65.7898 113.18 65.7898 113.54C65.7898 114.027 65.5998 114.41 65.2198 114.69C64.8398 114.963 64.3331 115.1 63.6998 115.1ZM71.9674 115.08C71.5408 115.08 71.3274 114.86 71.3274 114.42V109.02H69.3774C69.0108 109.02 68.8274 108.84 68.8274 108.48C68.8274 108.127 69.0108 107.95 69.3774 107.95H74.5574C74.9241 107.95 75.1074 108.127 75.1074 108.48C75.1074 108.84 74.9241 109.02 74.5574 109.02H72.6074V114.42C72.6074 114.86 72.3941 115.08 71.9674 115.08ZM76.2064 116.88C75.9797 116.88 75.8231 116.797 75.7364 116.63C75.6497 116.463 75.6531 116.273 75.7464 116.06L76.3164 114.8L74.6064 110.86C74.5131 110.64 74.5131 110.447 74.6064 110.28C74.6997 110.113 74.8831 110.03 75.1564 110.03C75.3097 110.03 75.4331 110.067 75.5264 110.14C75.6197 110.207 75.7031 110.337 75.7764 110.53L76.9764 113.53L78.2064 110.52C78.2797 110.333 78.3664 110.207 78.4664 110.14C78.5664 110.067 78.6997 110.03 78.8664 110.03C79.0797 110.03 79.2297 110.113 79.3164 110.28C79.4031 110.447 79.3997 110.637 79.3064 110.85L76.8764 116.4C76.7897 116.587 76.6964 116.713 76.5964 116.78C76.4964 116.847 76.3664 116.88 76.2064 116.88ZM80.8501 116.88C80.4367 116.88 80.2301 116.67 80.2301 116.25V110.66C80.2301 110.24 80.4334 110.03 80.8401 110.03C81.2534 110.03 81.4601 110.24 81.4601 110.66V110.87C81.6001 110.61 81.8101 110.403 82.0901 110.25C82.3701 110.09 82.6901 110.01 83.0501 110.01C83.4767 110.01 83.8501 110.113 84.1701 110.32C84.4967 110.527 84.7501 110.82 84.9301 111.2C85.1101 111.573 85.2001 112.023 85.2001 112.55C85.2001 113.07 85.1101 113.523 84.9301 113.91C84.7501 114.29 84.5001 114.583 84.1801 114.79C83.8601 114.997 83.4834 115.1 83.0501 115.1C82.7034 115.1 82.3901 115.027 82.1101 114.88C81.8367 114.727 81.6267 114.523 81.4801 114.27V116.25C81.4801 116.67 81.2701 116.88 80.8501 116.88ZM82.7001 114.15C83.0734 114.15 83.3734 114.017 83.6001 113.75C83.8267 113.477 83.9401 113.077 83.9401 112.55C83.9401 112.017 83.8267 111.62 83.6001 111.36C83.3734 111.093 83.0734 110.96 82.7001 110.96C82.3267 110.96 82.0267 111.093 81.8001 111.36C81.5734 111.62 81.4601 112.017 81.4601 112.55C81.4601 113.077 81.5734 113.477 81.8001 113.75C82.0267 114.017 82.3267 114.15 82.7001 114.15ZM88.6362 115.1C88.0828 115.1 87.6062 114.997 87.2062 114.79C86.8062 114.583 86.4962 114.29 86.2762 113.91C86.0628 113.53 85.9562 113.08 85.9562 112.56C85.9562 112.053 86.0595 111.61 86.2662 111.23C86.4795 110.85 86.7695 110.553 87.1362 110.34C87.5095 110.12 87.9328 110.01 88.4062 110.01C89.0995 110.01 89.6462 110.23 90.0462 110.67C90.4528 111.11 90.6562 111.71 90.6562 112.47C90.6562 112.717 90.4962 112.84 90.1762 112.84H87.1562C87.2495 113.713 87.7495 114.15 88.6562 114.15C88.8295 114.15 89.0228 114.13 89.2362 114.09C89.4562 114.043 89.6628 113.967 89.8562 113.86C90.0295 113.76 90.1762 113.73 90.2962 113.77C90.4162 113.803 90.4995 113.873 90.5462 113.98C90.5995 114.087 90.6062 114.207 90.5662 114.34C90.5328 114.467 90.4395 114.577 90.2862 114.67C90.0528 114.817 89.7828 114.927 89.4762 115C89.1762 115.067 88.8962 115.1 88.6362 115.1ZM88.4562 110.86C88.0895 110.86 87.7928 110.973 87.5662 111.2C87.3395 111.427 87.2028 111.733 87.1562 112.12H89.6162C89.5895 111.713 89.4762 111.403 89.2762 111.19C89.0828 110.97 88.8095 110.86 88.4562 110.86ZM26.28 129.07C26.0067 129.07 25.87 128.927 25.87 128.64V122.31C25.87 122.023 26.0067 121.88 26.28 121.88C26.5533 121.88 26.69 122.023 26.69 122.31V128.64C26.69 128.927 26.5533 129.07 26.28 129.07ZM30.5784 129.07C30.305 129.07 30.1684 128.927 30.1684 128.64V122.66H27.9184C27.665 122.66 27.5384 122.54 27.5384 122.3C27.5384 122.067 27.665 121.95 27.9184 121.95H33.2484C33.5017 121.95 33.6284 122.067 33.6284 122.3C33.6284 122.54 33.5017 122.66 33.2484 122.66H30.9984V128.64C30.9984 128.927 30.8584 129.07 30.5784 129.07ZM37.4421 129.07C37.1688 129.07 37.0321 128.927 37.0321 128.64V122.37C37.0321 122.09 37.1721 121.95 37.4521 121.95H39.8221C40.5821 121.95 41.1621 122.127 41.5621 122.48C41.9688 122.833 42.1721 123.337 42.1721 123.99C42.1721 124.51 42.0288 124.937 41.7421 125.27C41.4621 125.603 41.0621 125.82 40.5421 125.92C40.8488 126.027 41.1121 126.287 41.3321 126.7L42.2921 128.49C42.3654 128.63 42.3788 128.763 42.3321 128.89C42.2854 129.01 42.1788 129.07 42.0121 129.07C41.8988 129.07 41.8054 129.047 41.7321 129C41.6588 128.947 41.5954 128.867 41.5421 128.76L40.4521 126.74C40.2988 126.453 40.1221 126.263 39.9221 126.17C39.7221 126.07 39.4588 126.02 39.1321 126.02H37.8521V128.64C37.8521 128.927 37.7154 129.07 37.4421 129.07ZM37.8521 125.37H39.7021C40.8088 125.37 41.3621 124.91 41.3621 123.99C41.3621 123.083 40.8088 122.63 39.7021 122.63H37.8521V125.37ZM45.6941 129.09C44.9275 129.09 44.3208 128.867 43.8741 128.42C43.4275 127.967 43.2041 127.353 43.2041 126.58C43.2041 126.08 43.3041 125.64 43.5041 125.26C43.7041 124.873 43.9775 124.577 44.3241 124.37C44.6775 124.157 45.0841 124.05 45.5441 124.05C46.2041 124.05 46.7208 124.263 47.0941 124.69C47.4675 125.11 47.6541 125.69 47.6541 126.43C47.6541 126.637 47.5375 126.74 47.3041 126.74H43.9941C44.0208 127.293 44.1808 127.717 44.4741 128.01C44.7675 128.297 45.1741 128.44 45.6941 128.44C45.9141 128.44 46.1375 128.413 46.3641 128.36C46.5908 128.3 46.8108 128.197 47.0241 128.05C47.1775 127.95 47.3041 127.93 47.4041 127.99C47.5108 128.05 47.5641 128.143 47.5641 128.27C47.5708 128.39 47.5041 128.497 47.3641 128.59C47.1441 128.75 46.8808 128.873 46.5741 128.96C46.2741 129.047 45.9808 129.09 45.6941 129.09ZM45.5641 124.65C45.1041 124.65 44.7408 124.793 44.4741 125.08C44.2075 125.367 44.0508 125.743 44.0041 126.21H46.9541C46.9341 125.717 46.8041 125.333 46.5641 125.06C46.3308 124.787 45.9975 124.65 45.5641 124.65ZM50.4664 129.09C50.1664 129.09 49.8631 129.053 49.5564 128.98C49.2564 128.9 48.9764 128.773 48.7164 128.6C48.5964 128.527 48.5364 128.433 48.5364 128.32C48.5431 128.2 48.5897 128.107 48.6764 128.04C48.7631 127.973 48.8731 127.973 49.0064 128.04C49.2664 128.2 49.5164 128.313 49.7564 128.38C50.0031 128.44 50.2464 128.47 50.4864 128.47C50.8664 128.47 51.1531 128.4 51.3464 128.26C51.5397 128.12 51.6364 127.93 51.6364 127.69C51.6364 127.503 51.5731 127.357 51.4464 127.25C51.3197 127.137 51.1197 127.05 50.8464 126.99L49.9364 126.79C49.1097 126.61 48.6964 126.183 48.6964 125.51C48.6964 125.07 48.8697 124.717 49.2164 124.45C49.5697 124.183 50.0297 124.05 50.5964 124.05C50.8831 124.05 51.1597 124.09 51.4264 124.17C51.6931 124.243 51.9331 124.363 52.1464 124.53C52.2597 124.61 52.3097 124.707 52.2964 124.82C52.2831 124.933 52.2297 125.023 52.1364 125.09C52.0497 125.15 51.9431 125.14 51.8164 125.06C51.6164 124.927 51.4131 124.83 51.2064 124.77C50.9997 124.703 50.7964 124.67 50.5964 124.67C50.2231 124.67 49.9397 124.743 49.7464 124.89C49.5531 125.037 49.4564 125.23 49.4564 125.47C49.4564 125.843 49.7031 126.083 50.1964 126.19L51.1064 126.38C51.5331 126.473 51.8564 126.623 52.0764 126.83C52.2964 127.03 52.4064 127.303 52.4064 127.65C52.4064 128.097 52.2297 128.45 51.8764 128.71C51.5231 128.963 51.0531 129.09 50.4664 129.09ZM55.6609 129.09C55.1875 129.09 54.7775 128.987 54.4309 128.78C54.0842 128.573 53.8142 128.283 53.6209 127.91C53.4342 127.53 53.3409 127.083 53.3409 126.57C53.3409 126.057 53.4342 125.613 53.6209 125.24C53.8142 124.86 54.0842 124.567 54.4309 124.36C54.7775 124.153 55.1875 124.05 55.6609 124.05C56.1275 124.05 56.5342 124.153 56.8809 124.36C57.2342 124.567 57.5042 124.86 57.6909 125.24C57.8842 125.613 57.9809 126.057 57.9809 126.57C57.9809 127.083 57.8842 127.53 57.6909 127.91C57.5042 128.283 57.2342 128.573 56.8809 128.78C56.5342 128.987 56.1275 129.09 55.6609 129.09ZM55.6609 128.44C56.1142 128.44 56.4775 128.28 56.7509 127.96C57.0242 127.633 57.1609 127.17 57.1609 126.57C57.1609 125.963 57.0242 125.5 56.7509 125.18C56.4775 124.86 56.1142 124.7 55.6609 124.7C55.2009 124.7 54.8342 124.86 54.5609 125.18C54.2942 125.5 54.1609 125.963 54.1609 126.57C54.1609 127.17 54.2942 127.633 54.5609 127.96C54.8342 128.28 55.2009 128.44 55.6609 128.44ZM60.9175 129.09C59.7508 129.09 59.1675 128.447 59.1675 127.16V124.48C59.1675 124.207 59.3008 124.07 59.5675 124.07C59.8408 124.07 59.9775 124.207 59.9775 124.48V127.15C59.9775 127.583 60.0642 127.903 60.2375 128.11C60.4175 128.317 60.6975 128.42 61.0775 128.42C61.4908 128.42 61.8275 128.283 62.0875 128.01C62.3475 127.73 62.4775 127.36 62.4775 126.9V124.48C62.4775 124.207 62.6142 124.07 62.8875 124.07C63.1542 124.07 63.2875 124.207 63.2875 124.48V128.65C63.2875 128.93 63.1575 129.07 62.8975 129.07C62.6308 129.07 62.4975 128.93 62.4975 128.65V128.18C62.3442 128.473 62.1275 128.7 61.8475 128.86C61.5742 129.013 61.2642 129.09 60.9175 129.09ZM65.213 129.07C64.9396 129.07 64.803 128.93 64.803 128.65V124.48C64.803 124.207 64.933 124.07 65.193 124.07C65.4596 124.07 65.593 124.207 65.593 124.48V125.01C65.7263 124.703 65.933 124.47 66.213 124.31C66.493 124.143 66.8263 124.053 67.213 124.04C67.4263 124.02 67.5396 124.127 67.553 124.36C67.573 124.593 67.453 124.723 67.193 124.75L67.033 124.77C66.573 124.81 66.223 124.957 65.983 125.21C65.743 125.457 65.623 125.797 65.623 126.23V128.65C65.623 128.93 65.4863 129.07 65.213 129.07ZM70.3884 129.09C69.9017 129.09 69.4817 128.987 69.1284 128.78C68.775 128.567 68.5017 128.27 68.3084 127.89C68.1217 127.503 68.0284 127.053 68.0284 126.54C68.0284 125.767 68.2384 125.16 68.6584 124.72C69.0784 124.273 69.655 124.05 70.3884 124.05C70.6284 124.05 70.8784 124.09 71.1384 124.17C71.3984 124.243 71.635 124.367 71.8484 124.54C71.9617 124.62 72.0084 124.72 71.9884 124.84C71.975 124.96 71.9184 125.05 71.8184 125.11C71.725 125.17 71.615 125.157 71.4884 125.07C71.3084 124.937 71.1284 124.843 70.9484 124.79C70.775 124.737 70.605 124.71 70.4384 124.71C69.9317 124.71 69.5417 124.87 69.2684 125.19C68.995 125.503 68.8584 125.957 68.8584 126.55C68.8584 127.13 68.995 127.59 69.2684 127.93C69.5417 128.263 69.9317 128.43 70.4384 128.43C70.605 128.43 70.775 128.403 70.9484 128.35C71.1284 128.297 71.3084 128.203 71.4884 128.07C71.615 127.983 71.725 127.973 71.8184 128.04C71.9117 128.1 71.9617 128.19 71.9684 128.31C71.9817 128.43 71.935 128.527 71.8284 128.6C71.615 128.773 71.3817 128.9 71.1284 128.98C70.875 129.053 70.6284 129.09 70.3884 129.09ZM75.0496 129.09C74.2829 129.09 73.6763 128.867 73.2296 128.42C72.7829 127.967 72.5596 127.353 72.5596 126.58C72.5596 126.08 72.6596 125.64 72.8596 125.26C73.0596 124.873 73.3329 124.577 73.6796 124.37C74.0329 124.157 74.4396 124.05 74.8996 124.05C75.5596 124.05 76.0763 124.263 76.4496 124.69C76.8229 125.11 77.0096 125.69 77.0096 126.43C77.0096 126.637 76.8929 126.74 76.6596 126.74H73.3496C73.3763 127.293 73.5363 127.717 73.8296 128.01C74.1229 128.297 74.5296 128.44 75.0496 128.44C75.2696 128.44 75.4929 128.413 75.7196 128.36C75.9463 128.3 76.1663 128.197 76.3796 128.05C76.5329 127.95 76.6596 127.93 76.7596 127.99C76.8663 128.05 76.9196 128.143 76.9196 128.27C76.9263 128.39 76.8596 128.497 76.7196 128.59C76.4996 128.75 76.2363 128.873 75.9296 128.96C75.6296 129.047 75.3363 129.09 75.0496 129.09ZM74.9196 124.65C74.4596 124.65 74.0963 124.793 73.8296 125.08C73.5629 125.367 73.4063 125.743 73.3596 126.21H76.3096C76.2896 125.717 76.1596 125.333 75.9196 125.06C75.6863 124.787 75.3529 124.65 74.9196 124.65ZM79.8219 129.09C79.5219 129.09 79.2185 129.053 78.9119 128.98C78.6119 128.9 78.3319 128.773 78.0719 128.6C77.9519 128.527 77.8919 128.433 77.8919 128.32C77.8985 128.2 77.9452 128.107 78.0319 128.04C78.1185 127.973 78.2285 127.973 78.3619 128.04C78.6219 128.2 78.8719 128.313 79.1119 128.38C79.3585 128.44 79.6019 128.47 79.8419 128.47C80.2219 128.47 80.5085 128.4 80.7019 128.26C80.8952 128.12 80.9919 127.93 80.9919 127.69C80.9919 127.503 80.9285 127.357 80.8019 127.25C80.6752 127.137 80.4752 127.05 80.2019 126.99L79.2919 126.79C78.4652 126.61 78.0519 126.183 78.0519 125.51C78.0519 125.07 78.2252 124.717 78.5719 124.45C78.9252 124.183 79.3852 124.05 79.9519 124.05C80.2385 124.05 80.5152 124.09 80.7819 124.17C81.0485 124.243 81.2885 124.363 81.5019 124.53C81.6152 124.61 81.6652 124.707 81.6519 124.82C81.6385 124.933 81.5852 125.023 81.4919 125.09C81.4052 125.15 81.2985 125.14 81.1719 125.06C80.9719 124.927 80.7685 124.83 80.5619 124.77C80.3552 124.703 80.1519 124.67 79.9519 124.67C79.5785 124.67 79.2952 124.743 79.1019 124.89C78.9085 125.037 78.8119 125.23 78.8119 125.47C78.8119 125.843 79.0585 126.083 79.5519 126.19L80.4619 126.38C80.8885 126.473 81.2119 126.623 81.4319 126.83C81.6519 127.03 81.7619 127.303 81.7619 127.65C81.7619 128.097 81.5852 128.45 81.2319 128.71C80.8785 128.963 80.4085 129.09 79.8219 129.09Z" fill="#231F21"/>
<path d="M177.2 31.1C176.753 31.1 176.317 31.05 175.89 30.95C175.47 30.85 175.103 30.7 174.79 30.5C174.637 30.4 174.543 30.2767 174.51 30.13C174.477 29.9833 174.487 29.8467 174.54 29.72C174.6 29.5867 174.69 29.4967 174.81 29.45C174.937 29.3967 175.08 29.42 175.24 29.52C175.533 29.6933 175.843 29.82 176.17 29.9C176.497 29.98 176.84 30.02 177.2 30.02C177.727 30.02 178.11 29.9333 178.35 29.76C178.59 29.58 178.71 29.35 178.71 29.07C178.71 28.8367 178.623 28.6533 178.45 28.52C178.283 28.3867 177.993 28.2767 177.58 28.19L176.48 27.96C175.227 27.6933 174.6 27.05 174.6 26.03C174.6 25.59 174.717 25.2067 174.95 24.88C175.183 24.5533 175.507 24.3 175.92 24.12C176.333 23.94 176.81 23.85 177.35 23.85C177.75 23.85 178.13 23.9 178.49 24C178.85 24.1 179.173 24.2467 179.46 24.44C179.593 24.5333 179.673 24.65 179.7 24.79C179.727 24.9233 179.71 25.05 179.65 25.17C179.59 25.2833 179.493 25.3633 179.36 25.41C179.233 25.45 179.083 25.42 178.91 25.32C178.663 25.18 178.413 25.08 178.16 25.02C177.907 24.96 177.633 24.93 177.34 24.93C176.88 24.93 176.52 25.0267 176.26 25.22C176 25.4133 175.87 25.6667 175.87 25.98C175.87 26.22 175.95 26.4133 176.11 26.56C176.27 26.7 176.543 26.81 176.93 26.89L178.02 27.12C178.68 27.26 179.17 27.48 179.49 27.78C179.817 28.08 179.98 28.48 179.98 28.98C179.98 29.4 179.867 29.77 179.64 30.09C179.413 30.41 179.09 30.66 178.67 30.84C178.257 31.0133 177.767 31.1 177.2 31.1ZM183.15 31.1C181.856 31.1 181.21 30.46 181.21 29.18V27.05H180.69C180.356 27.05 180.19 26.8933 180.19 26.58C180.19 26.2667 180.356 26.11 180.69 26.11H181.21V25.2C181.21 24.78 181.42 24.57 181.84 24.57C182.253 24.57 182.46 24.78 182.46 25.2V26.11H183.52C183.853 26.11 184.02 26.2667 184.02 26.58C184.02 26.8933 183.853 27.05 183.52 27.05H182.46V29.11C182.46 29.43 182.53 29.67 182.67 29.83C182.81 29.99 183.036 30.07 183.35 30.07C183.463 30.07 183.563 30.06 183.65 30.04C183.736 30.02 183.813 30.0067 183.88 30C183.96 29.9933 184.026 30.02 184.08 30.08C184.133 30.1333 184.16 30.2467 184.16 30.42C184.16 30.5533 184.136 30.6733 184.09 30.78C184.05 30.88 183.973 30.95 183.86 30.99C183.773 31.0167 183.66 31.04 183.52 31.06C183.38 31.0867 183.256 31.1 183.15 31.1ZM186.358 31.1C186.004 31.1 185.688 31.0333 185.408 30.9C185.134 30.76 184.918 30.5733 184.758 30.34C184.604 30.1067 184.528 29.8433 184.528 29.55C184.528 29.19 184.621 28.9067 184.808 28.7C184.994 28.4867 185.298 28.3333 185.718 28.24C186.138 28.1467 186.701 28.1 187.408 28.1H187.758V27.89C187.758 27.5567 187.684 27.3167 187.538 27.17C187.391 27.0233 187.144 26.95 186.798 26.95C186.604 26.95 186.394 26.9733 186.168 27.02C185.948 27.0667 185.714 27.1467 185.468 27.26C185.308 27.3333 185.174 27.3433 185.068 27.29C184.961 27.23 184.888 27.14 184.848 27.02C184.814 26.8933 184.821 26.7667 184.868 26.64C184.921 26.5133 185.024 26.42 185.178 26.36C185.484 26.2333 185.778 26.1433 186.058 26.09C186.344 26.0367 186.604 26.01 186.838 26.01C187.551 26.01 188.081 26.1767 188.428 26.51C188.774 26.8367 188.948 27.3467 188.948 28.04V30.44C188.948 30.8667 188.754 31.08 188.368 31.08C187.974 31.08 187.778 30.8667 187.778 30.44V30.22C187.664 30.4933 187.484 30.71 187.238 30.87C186.991 31.0233 186.698 31.1 186.358 31.1ZM186.618 30.24C186.944 30.24 187.214 30.1267 187.428 29.9C187.648 29.6733 187.758 29.3867 187.758 29.04V28.82H187.418C186.791 28.82 186.354 28.87 186.108 28.97C185.868 29.0633 185.748 29.2367 185.748 29.49C185.748 29.71 185.824 29.89 185.978 30.03C186.131 30.17 186.344 30.24 186.618 30.24ZM190.856 31.08C190.43 31.08 190.216 30.8667 190.216 30.44V26.66C190.216 26.24 190.42 26.03 190.826 26.03C191.233 26.03 191.436 26.24 191.436 26.66V26.97C191.676 26.3967 192.19 26.0767 192.976 26.01C193.263 25.9767 193.423 26.14 193.456 26.5C193.49 26.8533 193.316 27.05 192.936 27.09L192.716 27.11C191.896 27.19 191.486 27.61 191.486 28.37V30.44C191.486 30.8667 191.276 31.08 190.856 31.08ZM196.656 31.1C195.362 31.1 194.716 30.46 194.716 29.18V27.05H194.196C193.862 27.05 193.696 26.8933 193.696 26.58C193.696 26.2667 193.862 26.11 194.196 26.11H194.716V25.2C194.716 24.78 194.926 24.57 195.346 24.57C195.759 24.57 195.966 24.78 195.966 25.2V26.11H197.026C197.359 26.11 197.526 26.2667 197.526 26.58C197.526 26.8933 197.359 27.05 197.026 27.05H195.966V29.11C195.966 29.43 196.036 29.67 196.176 29.83C196.316 29.99 196.542 30.07 196.856 30.07C196.969 30.07 197.069 30.06 197.156 30.04C197.242 30.02 197.319 30.0067 197.386 30C197.466 29.9933 197.532 30.02 197.586 30.08C197.639 30.1333 197.666 30.2467 197.666 30.42C197.666 30.5533 197.642 30.6733 197.596 30.78C197.556 30.88 197.479 30.95 197.366 30.99C197.279 31.0167 197.166 31.04 197.026 31.06C196.886 31.0867 196.762 31.1 196.656 31.1ZM201.768 31C201.315 31 201.088 30.7733 201.088 30.32V24.63C201.088 24.1767 201.315 23.95 201.768 23.95H203.708C204.888 23.95 205.798 24.2533 206.438 24.86C207.085 25.4667 207.408 26.3367 207.408 27.47C207.408 28.5967 207.085 29.4667 206.438 30.08C205.798 30.6933 204.888 31 203.708 31H201.768ZM202.368 29.94H203.628C205.255 29.94 206.068 29.1167 206.068 27.47C206.068 25.83 205.255 25.01 203.628 25.01H202.368V29.94ZM210.196 31.1C209.842 31.1 209.526 31.0333 209.246 30.9C208.972 30.76 208.756 30.5733 208.596 30.34C208.442 30.1067 208.366 29.8433 208.366 29.55C208.366 29.19 208.459 28.9067 208.646 28.7C208.832 28.4867 209.136 28.3333 209.556 28.24C209.976 28.1467 210.539 28.1 211.246 28.1H211.596V27.89C211.596 27.5567 211.522 27.3167 211.376 27.17C211.229 27.0233 210.982 26.95 210.636 26.95C210.442 26.95 210.232 26.9733 210.006 27.02C209.786 27.0667 209.552 27.1467 209.306 27.26C209.146 27.3333 209.012 27.3433 208.906 27.29C208.799 27.23 208.726 27.14 208.686 27.02C208.652 26.8933 208.659 26.7667 208.706 26.64C208.759 26.5133 208.862 26.42 209.016 26.36C209.322 26.2333 209.616 26.1433 209.896 26.09C210.182 26.0367 210.442 26.01 210.676 26.01C211.389 26.01 211.919 26.1767 212.266 26.51C212.612 26.8367 212.786 27.3467 212.786 28.04V30.44C212.786 30.8667 212.592 31.08 212.206 31.08C211.812 31.08 211.616 30.8667 211.616 30.44V30.22C211.502 30.4933 211.322 30.71 211.076 30.87C210.829 31.0233 210.536 31.1 210.196 31.1ZM210.456 30.24C210.782 30.24 211.052 30.1267 211.266 29.9C211.486 29.6733 211.596 29.3867 211.596 29.04V28.82H211.256C210.629 28.82 210.192 28.87 209.946 28.97C209.706 29.0633 209.586 29.2367 209.586 29.49C209.586 29.71 209.662 29.89 209.816 30.03C209.969 30.17 210.182 30.24 210.456 30.24ZM216.294 31.1C215.001 31.1 214.354 30.46 214.354 29.18V27.05H213.834C213.501 27.05 213.334 26.8933 213.334 26.58C213.334 26.2667 213.501 26.11 213.834 26.11H214.354V25.2C214.354 24.78 214.564 24.57 214.984 24.57C215.398 24.57 215.604 24.78 215.604 25.2V26.11H216.664C216.998 26.11 217.164 26.2667 217.164 26.58C217.164 26.8933 216.998 27.05 216.664 27.05H215.604V29.11C215.604 29.43 215.674 29.67 215.814 29.83C215.954 29.99 216.181 30.07 216.494 30.07C216.608 30.07 216.708 30.06 216.794 30.04C216.881 30.02 216.958 30.0067 217.024 30C217.104 29.9933 217.171 30.02 217.224 30.08C217.278 30.1333 217.304 30.2467 217.304 30.42C217.304 30.5533 217.281 30.6733 217.234 30.78C217.194 30.88 217.118 30.95 217.004 30.99C216.918 31.0167 216.804 31.04 216.664 31.06C216.524 31.0867 216.401 31.1 216.294 31.1ZM220.253 31.1C219.7 31.1 219.223 30.9967 218.823 30.79C218.423 30.5833 218.113 30.29 217.893 29.91C217.68 29.53 217.573 29.08 217.573 28.56C217.573 28.0533 217.677 27.61 217.883 27.23C218.097 26.85 218.387 26.5533 218.753 26.34C219.127 26.12 219.55 26.01 220.023 26.01C220.717 26.01 221.263 26.23 221.663 26.67C222.07 27.11 222.273 27.71 222.273 28.47C222.273 28.7167 222.113 28.84 221.793 28.84H218.773C218.867 29.7133 219.367 30.15 220.273 30.15C220.447 30.15 220.64 30.13 220.853 30.09C221.073 30.0433 221.28 29.9667 221.473 29.86C221.647 29.76 221.793 29.73 221.913 29.77C222.033 29.8033 222.117 29.8733 222.163 29.98C222.217 30.0867 222.223 30.2067 222.183 30.34C222.15 30.4667 222.057 30.5767 221.903 30.67C221.67 30.8167 221.4 30.9267 221.093 31C220.793 31.0667 220.513 31.1 220.253 31.1ZM220.073 26.86C219.707 26.86 219.41 26.9733 219.183 27.2C218.957 27.4267 218.82 27.7333 218.773 28.12H221.233C221.207 27.7133 221.093 27.4033 220.893 27.19C220.7 26.97 220.427 26.86 220.073 26.86ZM174.28 45.06C174.153 45.0667 174.057 45.0333 173.99 44.96C173.917 44.8867 173.88 44.7967 173.88 44.69C173.88 44.61 173.907 44.54 173.96 44.48C174.007 44.4133 174.083 44.3733 174.19 44.36L174.5 44.34C174.84 44.3133 175.1 44.1967 175.28 43.99C175.46 43.7767 175.55 43.4867 175.55 43.12V38.3C175.55 38.02 175.687 37.88 175.96 37.88C176.233 37.88 176.37 38.02 176.37 38.3V43.13C176.37 43.71 176.22 44.1633 175.92 44.49C175.62 44.81 175.183 44.99 174.61 45.03L174.28 45.06ZM179.722 45.09C178.556 45.09 177.972 44.4467 177.972 43.16V40.48C177.972 40.2067 178.106 40.07 178.372 40.07C178.646 40.07 178.782 40.2067 178.782 40.48V43.15C178.782 43.5833 178.869 43.9033 179.042 44.11C179.222 44.3167 179.502 44.42 179.882 44.42C180.296 44.42 180.632 44.2833 180.892 44.01C181.152 43.73 181.282 43.36 181.282 42.9V40.48C181.282 40.2067 181.419 40.07 181.692 40.07C181.959 40.07 182.092 40.2067 182.092 40.48V44.65C182.092 44.93 181.962 45.07 181.702 45.07C181.436 45.07 181.302 44.93 181.302 44.65V44.18C181.149 44.4733 180.932 44.7 180.652 44.86C180.379 45.0133 180.069 45.09 179.722 45.09ZM185.088 45.09C184.608 45.09 184.241 44.9467 183.988 44.66C183.734 44.3667 183.608 43.9433 183.608 43.39V38.29C183.608 38.0167 183.741 37.88 184.008 37.88C184.281 37.88 184.418 38.0167 184.418 38.29V43.33C184.418 44.0433 184.701 44.4 185.268 44.4C185.328 44.4 185.381 44.3967 185.428 44.39C185.474 44.3833 185.521 44.38 185.568 44.38C185.641 44.3733 185.691 44.39 185.718 44.43C185.751 44.47 185.768 44.55 185.768 44.67C185.768 44.8967 185.654 45.0267 185.428 45.06C185.374 45.0733 185.318 45.08 185.258 45.08C185.198 45.0867 185.141 45.09 185.088 45.09ZM189.675 45C189.521 45 189.411 44.9667 189.345 44.9C189.278 44.8267 189.245 44.73 189.245 44.61C189.245 44.47 189.315 44.3267 189.455 44.18L191.695 41.78C192.035 41.4133 192.278 41.0767 192.425 40.77C192.578 40.4567 192.655 40.14 192.655 39.82C192.655 39 192.178 38.59 191.225 38.59C190.631 38.59 190.091 38.78 189.605 39.16C189.498 39.24 189.401 39.27 189.315 39.25C189.228 39.2233 189.161 39.17 189.115 39.09C189.075 39.01 189.058 38.9233 189.065 38.83C189.078 38.73 189.135 38.6433 189.235 38.57C189.495 38.3567 189.808 38.1867 190.175 38.06C190.541 37.9267 190.915 37.86 191.295 37.86C192.001 37.86 192.541 38.0267 192.915 38.36C193.295 38.6867 193.485 39.1533 193.485 39.76C193.485 40.18 193.381 40.5933 193.175 41C192.975 41.4 192.658 41.8267 192.225 42.28L190.325 44.3H193.465C193.718 44.3 193.845 44.4133 193.845 44.64C193.845 44.88 193.718 45 193.465 45H189.675ZM197.381 45.09C196.574 45.09 195.961 44.78 195.541 44.16C195.121 43.54 194.911 42.6433 194.911 41.47C194.911 40.29 195.121 39.3933 195.541 38.78C195.961 38.1667 196.574 37.86 197.381 37.86C198.194 37.86 198.808 38.1667 199.221 38.78C199.641 39.3867 199.851 40.28 199.851 41.46C199.851 42.64 199.638 43.54 199.211 44.16C198.791 44.78 198.181 45.09 197.381 45.09ZM197.381 44.38C197.941 44.38 198.354 44.1433 198.621 43.67C198.894 43.19 199.031 42.4533 199.031 41.46C199.031 40.46 198.898 39.73 198.631 39.27C198.364 38.8033 197.948 38.57 197.381 38.57C196.821 38.57 196.404 38.8033 196.131 39.27C195.864 39.7367 195.731 40.4667 195.731 41.46C195.731 42.4533 195.864 43.19 196.131 43.67C196.404 44.1433 196.821 44.38 197.381 44.38ZM201.667 45C201.514 45 201.404 44.9667 201.337 44.9C201.27 44.8267 201.237 44.73 201.237 44.61C201.237 44.47 201.307 44.3267 201.447 44.18L203.687 41.78C204.027 41.4133 204.27 41.0767 204.417 40.77C204.57 40.4567 204.647 40.14 204.647 39.82C204.647 39 204.17 38.59 203.217 38.59C202.624 38.59 202.084 38.78 201.597 39.16C201.49 39.24 201.394 39.27 201.307 39.25C201.22 39.2233 201.154 39.17 201.107 39.09C201.067 39.01 201.05 38.9233 201.057 38.83C201.07 38.73 201.127 38.6433 201.227 38.57C201.487 38.3567 201.8 38.1867 202.167 38.06C202.534 37.9267 202.907 37.86 203.287 37.86C203.994 37.86 204.534 38.0267 204.907 38.36C205.287 38.6867 205.477 39.1533 205.477 39.76C205.477 40.18 205.374 40.5933 205.167 41C204.967 41.4 204.65 41.8267 204.217 42.28L202.317 44.3H205.457C205.71 44.3 205.837 44.4133 205.837 44.64C205.837 44.88 205.71 45 205.457 45H201.667ZM207.923 45C207.67 45 207.543 44.88 207.543 44.64C207.543 44.4133 207.67 44.3 207.923 44.3H209.223V38.91L208.203 39.59C208.096 39.6567 207.996 39.6767 207.903 39.65C207.816 39.6167 207.75 39.56 207.703 39.48C207.656 39.4 207.64 39.3133 207.653 39.22C207.673 39.1267 207.736 39.0433 207.843 38.97L209.223 38.06C209.31 38.0067 209.393 37.9633 209.473 37.93C209.553 37.8967 209.633 37.88 209.713 37.88C209.806 37.88 209.883 37.91 209.943 37.97C210.01 38.0233 210.043 38.11 210.043 38.23V44.3H211.243C211.496 44.3 211.623 44.4133 211.623 44.64C211.623 44.88 211.496 45 211.243 45H207.923ZM175.45 73C174.997 73 174.77 72.7733 174.77 72.32V66.63C174.77 66.1767 174.997 65.95 175.45 65.95H179.02C179.367 65.95 179.54 66.1167 179.54 66.45C179.54 66.7967 179.367 66.97 179.02 66.97H176V68.91H178.8C179.147 68.91 179.32 69.08 179.32 69.42C179.32 69.76 179.147 69.93 178.8 69.93H176V71.98H179.02C179.367 71.98 179.54 72.15 179.54 72.49C179.54 72.83 179.367 73 179.02 73H175.45ZM181.237 73.08C180.823 73.08 180.617 72.8667 180.617 72.44V68.66C180.617 68.24 180.82 68.03 181.227 68.03C181.633 68.03 181.837 68.24 181.837 68.66V68.87C182.003 68.59 182.227 68.3767 182.507 68.23C182.793 68.0833 183.113 68.01 183.467 68.01C184.62 68.01 185.197 68.68 185.197 70.02V72.44C185.197 72.8667 184.99 73.08 184.577 73.08C184.157 73.08 183.947 72.8667 183.947 72.44V70.08C183.947 69.7 183.873 69.4233 183.727 69.25C183.587 69.0767 183.367 68.99 183.067 68.99C182.7 68.99 182.407 69.1067 182.187 69.34C181.973 69.5667 181.867 69.87 181.867 70.25V72.44C181.867 72.8667 181.657 73.08 181.237 73.08ZM188.346 73.1C187.92 73.1 187.543 72.9967 187.216 72.79C186.896 72.5833 186.646 72.29 186.466 71.91C186.286 71.5233 186.196 71.07 186.196 70.55C186.196 70.0233 186.286 69.5733 186.466 69.2C186.646 68.82 186.896 68.5267 187.216 68.32C187.543 68.1133 187.92 68.01 188.346 68.01C188.693 68.01 189.006 68.0867 189.286 68.24C189.566 68.3933 189.776 68.5967 189.916 68.85V66.5C189.916 66.08 190.123 65.87 190.536 65.87C190.956 65.87 191.166 66.08 191.166 66.5V72.44C191.166 72.8667 190.96 73.08 190.546 73.08C190.133 73.08 189.926 72.8667 189.926 72.44V72.23C189.786 72.4967 189.576 72.71 189.296 72.87C189.016 73.0233 188.7 73.1 188.346 73.1ZM188.696 72.15C189.07 72.15 189.37 72.0167 189.596 71.75C189.823 71.4767 189.936 71.0767 189.936 70.55C189.936 70.0167 189.823 69.62 189.596 69.36C189.37 69.0933 189.07 68.96 188.696 68.96C188.323 68.96 188.023 69.0933 187.796 69.36C187.57 69.62 187.456 70.0167 187.456 70.55C187.456 71.0767 187.57 71.4767 187.796 71.75C188.023 72.0167 188.323 72.15 188.696 72.15ZM195.977 73C195.524 73 195.297 72.7733 195.297 72.32V66.63C195.297 66.1767 195.524 65.95 195.977 65.95H197.917C199.097 65.95 200.007 66.2533 200.647 66.86C201.294 67.4667 201.617 68.3367 201.617 69.47C201.617 70.5967 201.294 71.4667 200.647 72.08C200.007 72.6933 199.097 73 197.917 73H195.977ZM196.577 71.94H197.837C199.464 71.94 200.277 71.1167 200.277 69.47C200.277 67.83 199.464 67.01 197.837 67.01H196.577V71.94ZM204.405 73.1C204.051 73.1 203.735 73.0333 203.455 72.9C203.181 72.76 202.965 72.5733 202.805 72.34C202.651 72.1067 202.575 71.8433 202.575 71.55C202.575 71.19 202.668 70.9067 202.855 70.7C203.041 70.4867 203.345 70.3333 203.765 70.24C204.185 70.1467 204.748 70.1 205.455 70.1H205.805V69.89C205.805 69.5567 205.731 69.3167 205.585 69.17C205.438 69.0233 205.191 68.95 204.845 68.95C204.651 68.95 204.441 68.9733 204.215 69.02C203.995 69.0667 203.761 69.1467 203.515 69.26C203.355 69.3333 203.221 69.3433 203.115 69.29C203.008 69.23 202.935 69.14 202.895 69.02C202.861 68.8933 202.868 68.7667 202.915 68.64C202.968 68.5133 203.071 68.42 203.225 68.36C203.531 68.2333 203.825 68.1433 204.105 68.09C204.391 68.0367 204.651 68.01 204.885 68.01C205.598 68.01 206.128 68.1767 206.475 68.51C206.821 68.8367 206.995 69.3467 206.995 70.04V72.44C206.995 72.8667 206.801 73.08 206.415 73.08C206.021 73.08 205.825 72.8667 205.825 72.44V72.22C205.711 72.4933 205.531 72.71 205.285 72.87C205.038 73.0233 204.745 73.1 204.405 73.1ZM204.665 72.24C204.991 72.24 205.261 72.1267 205.475 71.9C205.695 71.6733 205.805 71.3867 205.805 71.04V70.82H205.465C204.838 70.82 204.401 70.87 204.155 70.97C203.915 71.0633 203.795 71.2367 203.795 71.49C203.795 71.71 203.871 71.89 204.025 72.03C204.178 72.17 204.391 72.24 204.665 72.24ZM210.503 73.1C209.21 73.1 208.563 72.46 208.563 71.18V69.05H208.043C207.71 69.05 207.543 68.8933 207.543 68.58C207.543 68.2667 207.71 68.11 208.043 68.11H208.563V67.2C208.563 66.78 208.773 66.57 209.193 66.57C209.607 66.57 209.813 66.78 209.813 67.2V68.11H210.873C211.207 68.11 211.373 68.2667 211.373 68.58C211.373 68.8933 211.207 69.05 210.873 69.05H209.813V71.11C209.813 71.43 209.883 71.67 210.023 71.83C210.163 71.99 210.39 72.07 210.703 72.07C210.817 72.07 210.917 72.06 211.003 72.04C211.09 72.02 211.167 72.0067 211.233 72C211.313 71.9933 211.38 72.02 211.433 72.08C211.487 72.1333 211.513 72.2467 211.513 72.42C211.513 72.5533 211.49 72.6733 211.443 72.78C211.403 72.88 211.327 72.95 211.213 72.99C211.127 73.0167 211.013 73.04 210.873 73.06C210.733 73.0867 210.61 73.1 210.503 73.1ZM214.462 73.1C213.909 73.1 213.432 72.9967 213.032 72.79C212.632 72.5833 212.322 72.29 212.102 71.91C211.889 71.53 211.782 71.08 211.782 70.56C211.782 70.0533 211.886 69.61 212.092 69.23C212.306 68.85 212.596 68.5533 212.962 68.34C213.336 68.12 213.759 68.01 214.232 68.01C214.926 68.01 215.472 68.23 215.872 68.67C216.279 69.11 216.482 69.71 216.482 70.47C216.482 70.7167 216.322 70.84 216.002 70.84H212.982C213.076 71.7133 213.576 72.15 214.482 72.15C214.656 72.15 214.849 72.13 215.062 72.09C215.282 72.0433 215.489 71.9667 215.682 71.86C215.856 71.76 216.002 71.73 216.122 71.77C216.242 71.8033 216.326 71.8733 216.372 71.98C216.426 72.0867 216.432 72.2067 216.392 72.34C216.359 72.4667 216.266 72.5767 216.112 72.67C215.879 72.8167 215.609 72.9267 215.302 73C215.002 73.0667 214.722 73.1 214.462 73.1ZM214.282 68.86C213.916 68.86 213.619 68.9733 213.392 69.2C213.166 69.4267 213.029 69.7333 212.982 70.12H215.442C215.416 69.7133 215.302 69.4033 215.102 69.19C214.909 68.97 214.636 68.86 214.282 68.86ZM174.28 87.06C174.153 87.0667 174.057 87.0333 173.99 86.96C173.917 86.8867 173.88 86.7967 173.88 86.69C173.88 86.61 173.907 86.54 173.96 86.48C174.007 86.4133 174.083 86.3733 174.19 86.36L174.5 86.34C174.84 86.3133 175.1 86.1967 175.28 85.99C175.46 85.7767 175.55 85.4867 175.55 85.12V80.3C175.55 80.02 175.687 79.88 175.96 79.88C176.233 79.88 176.37 80.02 176.37 80.3V85.13C176.37 85.71 176.22 86.1633 175.92 86.49C175.62 86.81 175.183 86.99 174.61 87.03L174.28 87.06ZM179.722 87.09C178.556 87.09 177.972 86.4467 177.972 85.16V82.48C177.972 82.2067 178.106 82.07 178.372 82.07C178.646 82.07 178.782 82.2067 178.782 82.48V85.15C178.782 85.5833 178.869 85.9033 179.042 86.11C179.222 86.3167 179.502 86.42 179.882 86.42C180.296 86.42 180.632 86.2833 180.892 86.01C181.152 85.73 181.282 85.36 181.282 84.9V82.48C181.282 82.2067 181.419 82.07 181.692 82.07C181.959 82.07 182.092 82.2067 182.092 82.48V86.65C182.092 86.93 181.962 87.07 181.702 87.07C181.436 87.07 181.302 86.93 181.302 86.65V86.18C181.149 86.4733 180.932 86.7 180.652 86.86C180.379 87.0133 180.069 87.09 179.722 87.09ZM185.088 87.09C184.608 87.09 184.241 86.9467 183.988 86.66C183.734 86.3667 183.608 85.9433 183.608 85.39V80.29C183.608 80.0167 183.741 79.88 184.008 79.88C184.281 79.88 184.418 80.0167 184.418 80.29V85.33C184.418 86.0433 184.701 86.4 185.268 86.4C185.328 86.4 185.381 86.3967 185.428 86.39C185.474 86.3833 185.521 86.38 185.568 86.38C185.641 86.3733 185.691 86.39 185.718 86.43C185.751 86.47 185.768 86.55 185.768 86.67C185.768 86.8967 185.654 87.0267 185.428 87.06C185.374 87.0733 185.318 87.08 185.258 87.08C185.198 87.0867 185.141 87.09 185.088 87.09ZM189.675 87C189.521 87 189.411 86.9667 189.345 86.9C189.278 86.8267 189.245 86.73 189.245 86.61C189.245 86.47 189.315 86.3267 189.455 86.18L191.695 83.78C192.035 83.4133 192.278 83.0767 192.425 82.77C192.578 82.4567 192.655 82.14 192.655 81.82C192.655 81 192.178 80.59 191.225 80.59C190.631 80.59 190.091 80.78 189.605 81.16C189.498 81.24 189.401 81.27 189.315 81.25C189.228 81.2233 189.161 81.17 189.115 81.09C189.075 81.01 189.058 80.9233 189.065 80.83C189.078 80.73 189.135 80.6433 189.235 80.57C189.495 80.3567 189.808 80.1867 190.175 80.06C190.541 79.9267 190.915 79.86 191.295 79.86C192.001 79.86 192.541 80.0267 192.915 80.36C193.295 80.6867 193.485 81.1533 193.485 81.76C193.485 82.18 193.381 82.5933 193.175 83C192.975 83.4 192.658 83.8267 192.225 84.28L190.325 86.3H193.465C193.718 86.3 193.845 86.4133 193.845 86.64C193.845 86.88 193.718 87 193.465 87H189.675ZM197.381 87.09C196.574 87.09 195.961 86.78 195.541 86.16C195.121 85.54 194.911 84.6433 194.911 83.47C194.911 82.29 195.121 81.3933 195.541 80.78C195.961 80.1667 196.574 79.86 197.381 79.86C198.194 79.86 198.808 80.1667 199.221 80.78C199.641 81.3867 199.851 82.28 199.851 83.46C199.851 84.64 199.638 85.54 199.211 86.16C198.791 86.78 198.181 87.09 197.381 87.09ZM197.381 86.38C197.941 86.38 198.354 86.1433 198.621 85.67C198.894 85.19 199.031 84.4533 199.031 83.46C199.031 82.46 198.898 81.73 198.631 81.27C198.364 80.8033 197.948 80.57 197.381 80.57C196.821 80.57 196.404 80.8033 196.131 81.27C195.864 81.7367 195.731 82.4667 195.731 83.46C195.731 84.4533 195.864 85.19 196.131 85.67C196.404 86.1433 196.821 86.38 197.381 86.38ZM201.667 87C201.514 87 201.404 86.9667 201.337 86.9C201.27 86.8267 201.237 86.73 201.237 86.61C201.237 86.47 201.307 86.3267 201.447 86.18L203.687 83.78C204.027 83.4133 204.27 83.0767 204.417 82.77C204.57 82.4567 204.647 82.14 204.647 81.82C204.647 81 204.17 80.59 203.217 80.59C202.624 80.59 202.084 80.78 201.597 81.16C201.49 81.24 201.394 81.27 201.307 81.25C201.22 81.2233 201.154 81.17 201.107 81.09C201.067 81.01 201.05 80.9233 201.057 80.83C201.07 80.73 201.127 80.6433 201.227 80.57C201.487 80.3567 201.8 80.1867 202.167 80.06C202.534 79.9267 202.907 79.86 203.287 79.86C203.994 79.86 204.534 80.0267 204.907 80.36C205.287 80.6867 205.477 81.1533 205.477 81.76C205.477 82.18 205.374 82.5933 205.167 83C204.967 83.4 204.65 83.8267 204.217 84.28L202.317 86.3H205.457C205.71 86.3 205.837 86.4133 205.837 86.64C205.837 86.88 205.71 87 205.457 87H201.667ZM209.523 87.09C209.136 87.09 208.753 87.0333 208.373 86.92C208 86.8067 207.663 86.63 207.363 86.39C207.263 86.3233 207.203 86.2433 207.183 86.15C207.17 86.05 207.186 85.96 207.233 85.88C207.28 85.8 207.346 85.7467 207.433 85.72C207.526 85.6933 207.63 85.7167 207.743 85.79C208.27 86.17 208.86 86.36 209.513 86.36C210 86.36 210.383 86.2233 210.663 85.95C210.943 85.6767 211.083 85.3167 211.083 84.87C211.083 84.41 210.95 84.0333 210.683 83.74C210.416 83.4467 210.05 83.3 209.583 83.3C209.296 83.3 209.03 83.3533 208.783 83.46C208.543 83.5667 208.326 83.7367 208.133 83.97C208.086 84.0233 208.03 84.07 207.963 84.11C207.903 84.1433 207.833 84.16 207.753 84.16C207.513 84.16 207.393 84.0433 207.393 83.81V80.33C207.393 80.0767 207.52 79.95 207.773 79.95H211.173C211.426 79.95 211.553 80.0667 211.553 80.3C211.553 80.5333 211.426 80.65 211.173 80.65H208.203V83.17C208.59 82.7833 209.1 82.59 209.733 82.59C210.173 82.59 210.556 82.6833 210.883 82.87C211.21 83.0567 211.46 83.32 211.633 83.66C211.813 83.9933 211.903 84.3833 211.903 84.83C211.903 85.27 211.806 85.66 211.613 86C211.42 86.34 211.143 86.6067 210.783 86.8C210.43 86.9933 210.01 87.09 209.523 87.09Z" fill="#231F21"/>
</svg>
