<svg width="306" height="155" viewBox="0 0 306 155" fill="none" xmlns="http://www.w3.org/2000/svg">
<path d="M0 0H306V150C306 152.761 303.761 155 301 155H5.00001C2.23859 155 0 152.761 0 150V0Z" fill="#F2F2F2"/>
<path d="M26.45 31C25.9967 31 25.77 30.7733 25.77 30.32V24.63C25.77 24.1767 25.9967 23.95 26.45 23.95H28.39C29.57 23.95 30.48 24.2533 31.12 24.86C31.7667 25.4667 32.09 26.3367 32.09 27.47C32.09 28.5967 31.7667 29.4667 31.12 30.08C30.48 30.6933 29.57 31 28.39 31H26.45ZM27.05 29.94H28.31C29.9367 29.94 30.75 29.1167 30.75 27.47C30.75 25.83 29.9367 25.01 28.31 25.01H27.05V29.94ZM35.6772 31.1C35.1239 31.1 34.6472 30.9967 34.2472 30.79C33.8472 30.5833 33.5372 30.29 33.3172 29.91C33.1039 29.53 32.9972 29.08 32.9972 28.56C32.9972 28.0533 33.1005 27.61 33.3072 27.23C33.5205 26.85 33.8105 26.5533 34.1772 26.34C34.5505 26.12 34.9739 26.01 35.4472 26.01C36.1405 26.01 36.6872 26.23 37.0872 26.67C37.4939 27.11 37.6972 27.71 37.6972 28.47C37.6972 28.7167 37.5372 28.84 37.2172 28.84H34.1972C34.2905 29.7133 34.7905 30.15 35.6972 30.15C35.8705 30.15 36.0639 30.13 36.2772 30.09C36.4972 30.0433 36.7039 29.9667 36.8972 29.86C37.0705 29.76 37.2172 29.73 37.3372 29.77C37.4572 29.8033 37.5405 29.8733 37.5872 29.98C37.6405 30.0867 37.6472 30.2067 37.6072 30.34C37.5739 30.4667 37.4805 30.5767 37.3272 30.67C37.0939 30.8167 36.8239 30.9267 36.5172 31C36.2172 31.0667 35.9372 31.1 35.6772 31.1ZM35.4972 26.86C35.1305 26.86 34.8339 26.9733 34.6072 27.2C34.3805 27.4267 34.2439 27.7333 34.1972 28.12H36.6572C36.6305 27.7133 36.5172 27.4033 36.3172 27.19C36.1239 26.97 35.8505 26.86 35.4972 26.86ZM40.9671 32.9C40.6071 32.9 40.2571 32.8667 39.9171 32.8C39.5838 32.7333 39.2804 32.63 39.0071 32.49C38.8471 32.41 38.7504 32.3067 38.7171 32.18C38.6904 32.06 38.7038 31.9433 38.7571 31.83C38.8104 31.7167 38.8904 31.6333 38.9971 31.58C39.1104 31.5333 39.2304 31.54 39.3571 31.6C39.6504 31.7467 39.9271 31.84 40.1871 31.88C40.4538 31.9267 40.6804 31.95 40.8671 31.95C41.7604 31.95 42.2071 31.52 42.2071 30.66V29.99C42.0671 30.2633 41.8504 30.48 41.5571 30.64C41.2704 30.8 40.9504 30.88 40.5971 30.88C40.1571 30.88 39.7738 30.78 39.4471 30.58C39.1204 30.3733 38.8671 30.0867 38.6871 29.72C38.5071 29.3533 38.4171 28.9267 38.4171 28.44C38.4171 27.9533 38.5071 27.53 38.6871 27.17C38.8671 26.8033 39.1204 26.52 39.4471 26.32C39.7738 26.1133 40.1571 26.01 40.5971 26.01C40.9504 26.01 41.2704 26.0867 41.5571 26.24C41.8438 26.3933 42.0538 26.6033 42.1871 26.87V26.66C42.1871 26.4533 42.2404 26.2967 42.3471 26.19C42.4604 26.0833 42.6138 26.03 42.8071 26.03C43.2204 26.03 43.4271 26.24 43.4271 26.66V30.51C43.4271 31.3033 43.2171 31.9 42.7971 32.3C42.3771 32.7 41.7671 32.9 40.9671 32.9ZM40.9371 29.93C41.3238 29.93 41.6304 29.7967 41.8571 29.53C42.0838 29.2633 42.1971 28.9 42.1971 28.44C42.1971 27.98 42.0838 27.62 41.8571 27.36C41.6304 27.0933 41.3238 26.96 40.9371 26.96C40.5504 26.96 40.2438 27.0933 40.0171 27.36C39.7904 27.62 39.6771 27.98 39.6771 28.44C39.6771 28.9 39.7904 29.2633 40.0171 29.53C40.2438 29.7967 40.5504 29.93 40.9371 29.93ZM45.3623 31.08C44.9356 31.08 44.7223 30.8667 44.7223 30.44V26.66C44.7223 26.24 44.9256 26.03 45.3323 26.03C45.7389 26.03 45.9423 26.24 45.9423 26.66V26.97C46.1823 26.3967 46.6956 26.0767 47.4823 26.01C47.7689 25.9767 47.9289 26.14 47.9623 26.5C47.9956 26.8533 47.8223 27.05 47.4423 27.09L47.2223 27.11C46.4023 27.19 45.9923 27.61 45.9923 28.37V30.44C45.9923 30.8667 45.7823 31.08 45.3623 31.08ZM50.9702 31.1C50.4168 31.1 49.9402 30.9967 49.5402 30.79C49.1402 30.5833 48.8302 30.29 48.6102 29.91C48.3968 29.53 48.2902 29.08 48.2902 28.56C48.2902 28.0533 48.3935 27.61 48.6002 27.23C48.8135 26.85 49.1035 26.5533 49.4702 26.34C49.8435 26.12 50.2668 26.01 50.7402 26.01C51.4335 26.01 51.9802 26.23 52.3802 26.67C52.7868 27.11 52.9902 27.71 52.9902 28.47C52.9902 28.7167 52.8302 28.84 52.5102 28.84H49.4902C49.5835 29.7133 50.0835 30.15 50.9902 30.15C51.1635 30.15 51.3568 30.13 51.5702 30.09C51.7902 30.0433 51.9968 29.9667 52.1902 29.86C52.3635 29.76 52.5102 29.73 52.6302 29.77C52.7502 29.8033 52.8335 29.8733 52.8802 29.98C52.9335 30.0867 52.9402 30.2067 52.9002 30.34C52.8668 30.4667 52.7735 30.5767 52.6202 30.67C52.3868 30.8167 52.1168 30.9267 51.8102 31C51.5102 31.0667 51.2302 31.1 50.9702 31.1ZM50.7902 26.86C50.4235 26.86 50.1268 26.9733 49.9002 27.2C49.6735 27.4267 49.5368 27.7333 49.4902 28.12H51.9502C51.9235 27.7133 51.8102 27.4033 51.6102 27.19C51.4168 26.97 51.1435 26.86 50.7902 26.86ZM56.3901 31.1C55.8367 31.1 55.3601 30.9967 54.9601 30.79C54.5601 30.5833 54.2501 30.29 54.0301 29.91C53.8167 29.53 53.7101 29.08 53.7101 28.56C53.7101 28.0533 53.8134 27.61 54.0201 27.23C54.2334 26.85 54.5234 26.5533 54.8901 26.34C55.2634 26.12 55.6867 26.01 56.1601 26.01C56.8534 26.01 57.4001 26.23 57.8001 26.67C58.2067 27.11 58.4101 27.71 58.4101 28.47C58.4101 28.7167 58.2501 28.84 57.9301 28.84H54.9101C55.0034 29.7133 55.5034 30.15 56.4101 30.15C56.5834 30.15 56.7767 30.13 56.9901 30.09C57.2101 30.0433 57.4167 29.9667 57.6101 29.86C57.7834 29.76 57.9301 29.73 58.0501 29.77C58.1701 29.8033 58.2534 29.8733 58.3001 29.98C58.3534 30.0867 58.3601 30.2067 58.3201 30.34C58.2867 30.4667 58.1934 30.5767 58.0401 30.67C57.8067 30.8167 57.5367 30.9267 57.2301 31C56.9301 31.0667 56.6501 31.1 56.3901 31.1ZM56.2101 26.86C55.8434 26.86 55.5467 26.9733 55.3201 27.2C55.0934 27.4267 54.9567 27.7333 54.9101 28.12H57.3701C57.3434 27.7133 57.2301 27.4033 57.0301 27.19C56.8367 26.97 56.5634 26.86 56.2101 26.86ZM26.32 45C26.02 45 25.87 44.85 25.87 44.55V38.4C25.87 38.1 26.02 37.95 26.32 37.95H28.69C29.4167 37.95 29.9767 38.1133 30.37 38.44C30.77 38.76 30.97 39.21 30.97 39.79C30.97 40.1767 30.87 40.5067 30.67 40.78C30.47 41.0533 30.1933 41.2533 29.84 41.38C30.2467 41.4867 30.5633 41.6833 30.79 41.97C31.0233 42.2567 31.14 42.62 31.14 43.06C31.14 43.6867 30.9367 44.1667 30.53 44.5C30.1233 44.8333 29.55 45 28.81 45H26.32ZM26.67 41.1H28.57C29.63 41.1 30.16 40.6867 30.16 39.86C30.16 39.0267 29.63 38.61 28.57 38.61H26.67V41.1ZM26.67 44.34H28.73C29.7967 44.34 30.33 43.91 30.33 43.05C30.33 42.19 29.7967 41.76 28.73 41.76H26.67V44.34ZM34.0478 45.09C33.7145 45.09 33.4145 45.0267 33.1478 44.9C32.8878 44.7667 32.6811 44.5867 32.5278 44.36C32.3745 44.1333 32.2978 43.88 32.2978 43.6C32.2978 43.2467 32.3878 42.9667 32.5678 42.76C32.7545 42.5533 33.0578 42.4067 33.4778 42.32C33.9045 42.2267 34.4845 42.18 35.2178 42.18H35.5378V41.87C35.5378 41.4567 35.4511 41.16 35.2778 40.98C35.1111 40.7933 34.8411 40.7 34.4678 40.7C34.2345 40.7 33.9978 40.73 33.7578 40.79C33.5245 40.85 33.2811 40.9467 33.0278 41.08C32.9145 41.14 32.8178 41.1533 32.7378 41.12C32.6645 41.08 32.6111 41.02 32.5778 40.94C32.5511 40.8533 32.5511 40.7667 32.5778 40.68C32.6111 40.5867 32.6778 40.5167 32.7778 40.47C33.0645 40.3233 33.3511 40.2167 33.6378 40.15C33.9311 40.0833 34.2078 40.05 34.4678 40.05C35.0945 40.05 35.5578 40.2033 35.8578 40.51C36.1645 40.8167 36.3178 41.2933 36.3178 41.94V44.65C36.3178 44.93 36.1945 45.07 35.9478 45.07C35.6878 45.07 35.5578 44.93 35.5578 44.65V44.16C35.4311 44.4467 35.2345 44.6733 34.9678 44.84C34.7078 45.0067 34.4011 45.09 34.0478 45.09ZM34.1778 44.48C34.5778 44.48 34.9045 44.3433 35.1578 44.07C35.4111 43.79 35.5378 43.4367 35.5378 43.01V42.71H35.2278C34.6878 42.71 34.2611 42.7367 33.9478 42.79C33.6411 42.8367 33.4245 42.9233 33.2978 43.05C33.1778 43.17 33.1178 43.3367 33.1178 43.55C33.1178 43.8233 33.2111 44.0467 33.3978 44.22C33.5911 44.3933 33.8511 44.48 34.1778 44.48ZM39.8805 45.09C39.3939 45.09 38.9739 44.9867 38.6205 44.78C38.2672 44.5667 37.9939 44.27 37.8005 43.89C37.6139 43.5033 37.5205 43.0533 37.5205 42.54C37.5205 41.7667 37.7305 41.16 38.1505 40.72C38.5705 40.2733 39.1472 40.05 39.8805 40.05C40.1205 40.05 40.3705 40.09 40.6305 40.17C40.8905 40.2433 41.1272 40.3667 41.3405 40.54C41.4539 40.62 41.5005 40.72 41.4805 40.84C41.4672 40.96 41.4105 41.05 41.3105 41.11C41.2172 41.17 41.1072 41.1567 40.9805 41.07C40.8005 40.9367 40.6205 40.8433 40.4405 40.79C40.2672 40.7367 40.0972 40.71 39.9305 40.71C39.4239 40.71 39.0339 40.87 38.7605 41.19C38.4872 41.5033 38.3505 41.9567 38.3505 42.55C38.3505 43.13 38.4872 43.59 38.7605 43.93C39.0339 44.2633 39.4239 44.43 39.9305 44.43C40.0972 44.43 40.2672 44.4033 40.4405 44.35C40.6205 44.2967 40.8005 44.2033 40.9805 44.07C41.1072 43.9833 41.2172 43.9733 41.3105 44.04C41.4039 44.1 41.4539 44.19 41.4605 44.31C41.4739 44.43 41.4272 44.5267 41.3205 44.6C41.1072 44.7733 40.8739 44.9 40.6205 44.98C40.3672 45.0533 40.1205 45.09 39.8805 45.09ZM42.8495 45.07C42.5828 45.07 42.4495 44.93 42.4495 44.65V38.29C42.4495 38.0167 42.5828 37.88 42.8495 37.88C43.1228 37.88 43.2595 38.0167 43.2595 38.29V40.94C43.4195 40.6467 43.6428 40.4267 43.9295 40.28C44.2228 40.1267 44.5495 40.05 44.9095 40.05C46.0628 40.05 46.6395 40.69 46.6395 41.97V44.65C46.6395 44.93 46.5061 45.07 46.2395 45.07C45.9661 45.07 45.8295 44.93 45.8295 44.65V42.02C45.8295 41.5667 45.7395 41.2367 45.5595 41.03C45.3861 40.8167 45.1061 40.71 44.7195 40.71C44.2728 40.71 43.9161 40.85 43.6495 41.13C43.3895 41.4033 43.2595 41.77 43.2595 42.23V44.65C43.2595 44.93 43.1228 45.07 42.8495 45.07ZM50.323 45.09C49.5564 45.09 48.9497 44.8667 48.503 44.42C48.0564 43.9667 47.833 43.3533 47.833 42.58C47.833 42.08 47.933 41.64 48.133 41.26C48.333 40.8733 48.6064 40.5767 48.953 40.37C49.3064 40.1567 49.713 40.05 50.173 40.05C50.833 40.05 51.3497 40.2633 51.723 40.69C52.0964 41.11 52.283 41.69 52.283 42.43C52.283 42.6367 52.1664 42.74 51.933 42.74H48.623C48.6497 43.2933 48.8097 43.7167 49.103 44.01C49.3964 44.2967 49.803 44.44 50.323 44.44C50.543 44.44 50.7664 44.4133 50.993 44.36C51.2197 44.3 51.4397 44.1967 51.653 44.05C51.8064 43.95 51.933 43.93 52.033 43.99C52.1397 44.05 52.193 44.1433 52.193 44.27C52.1997 44.39 52.133 44.4967 51.993 44.59C51.773 44.75 51.5097 44.8733 51.203 44.96C50.903 45.0467 50.6097 45.09 50.323 45.09ZM50.193 40.65C49.733 40.65 49.3697 40.7933 49.103 41.08C48.8364 41.3667 48.6797 41.7433 48.633 42.21H51.583C51.563 41.7167 51.433 41.3333 51.193 41.06C50.9597 40.7867 50.6264 40.65 50.193 40.65ZM54.9353 45.09C54.4553 45.09 54.0886 44.9467 53.8353 44.66C53.582 44.3667 53.4553 43.9433 53.4553 43.39V38.29C53.4553 38.0167 53.5886 37.88 53.8553 37.88C54.1286 37.88 54.2653 38.0167 54.2653 38.29V43.33C54.2653 44.0433 54.5486 44.4 55.1153 44.4C55.1753 44.4 55.2286 44.3967 55.2753 44.39C55.322 44.3833 55.3686 44.38 55.4153 44.38C55.4886 44.3733 55.5386 44.39 55.5653 44.43C55.5986 44.47 55.6153 44.55 55.6153 44.67C55.6153 44.8967 55.502 45.0267 55.2753 45.06C55.222 45.0733 55.1653 45.08 55.1053 45.08C55.0453 45.0867 54.9886 45.09 54.9353 45.09ZM58.3855 45.09C57.9121 45.09 57.5021 44.9867 57.1555 44.78C56.8088 44.5733 56.5388 44.2833 56.3455 43.91C56.1588 43.53 56.0655 43.0833 56.0655 42.57C56.0655 42.0567 56.1588 41.6133 56.3455 41.24C56.5388 40.86 56.8088 40.5667 57.1555 40.36C57.5021 40.1533 57.9121 40.05 58.3855 40.05C58.8521 40.05 59.2588 40.1533 59.6055 40.36C59.9588 40.5667 60.2288 40.86 60.4155 41.24C60.6088 41.6133 60.7055 42.0567 60.7055 42.57C60.7055 43.0833 60.6088 43.53 60.4155 43.91C60.2288 44.2833 59.9588 44.5733 59.6055 44.78C59.2588 44.9867 58.8521 45.09 58.3855 45.09ZM58.3855 44.44C58.8388 44.44 59.2021 44.28 59.4755 43.96C59.7488 43.6333 59.8855 43.17 59.8855 42.57C59.8855 41.9633 59.7488 41.5 59.4755 41.18C59.2021 40.86 58.8388 40.7 58.3855 40.7C57.9255 40.7 57.5588 40.86 57.2855 41.18C57.0188 41.5 56.8855 41.9633 56.8855 42.57C56.8855 43.17 57.0188 43.6333 57.2855 43.96C57.5588 44.28 57.9255 44.44 58.3855 44.44ZM62.3321 45.07C62.0588 45.07 61.9221 44.93 61.9221 44.65V40.48C61.9221 40.2067 62.0521 40.07 62.3121 40.07C62.5788 40.07 62.7121 40.2067 62.7121 40.48V41.01C62.8454 40.7033 63.0521 40.47 63.3321 40.31C63.6121 40.1433 63.9454 40.0533 64.3321 40.04C64.5454 40.02 64.6588 40.1267 64.6721 40.36C64.6921 40.5933 64.5721 40.7233 64.3121 40.75L64.1521 40.77C63.6921 40.81 63.3421 40.9567 63.1021 41.21C62.8621 41.4567 62.7421 41.7967 62.7421 42.23V44.65C62.7421 44.93 62.6054 45.07 62.3321 45.07ZM26.37 73.08C25.9833 73.08 25.79 72.88 25.79 72.48V66.47C25.79 66.07 25.99 65.87 26.39 65.87C26.5567 65.87 26.6867 65.9033 26.78 65.97C26.88 66.03 26.97 66.1367 27.05 66.29L29.36 70.56L31.67 66.29C31.75 66.1367 31.8367 66.03 31.93 65.97C32.0233 65.9033 32.1533 65.87 32.32 65.87C32.7067 65.87 32.9 66.07 32.9 66.47V72.48C32.9 72.88 32.7067 73.08 32.32 73.08C31.9333 73.08 31.74 72.88 31.74 72.48V68.25L29.86 71.68C29.7933 71.7933 29.7233 71.8767 29.65 71.93C29.5767 71.9833 29.4767 72.01 29.35 72.01C29.2233 72.01 29.12 71.9833 29.04 71.93C28.96 71.87 28.89 71.7867 28.83 71.68L26.95 68.27V72.48C26.95 72.88 26.7567 73.08 26.37 73.08ZM35.9416 73.1C35.5883 73.1 35.2716 73.0333 34.9916 72.9C34.7183 72.76 34.5016 72.5733 34.3416 72.34C34.1883 72.1067 34.1116 71.8433 34.1116 71.55C34.1116 71.19 34.205 70.9067 34.3916 70.7C34.5783 70.4867 34.8816 70.3333 35.3016 70.24C35.7216 70.1467 36.285 70.1 36.9916 70.1H37.3416V69.89C37.3416 69.5567 37.2683 69.3167 37.1216 69.17C36.975 69.0233 36.7283 68.95 36.3816 68.95C36.1883 68.95 35.9783 68.9733 35.7516 69.02C35.5316 69.0667 35.2983 69.1467 35.0516 69.26C34.8916 69.3333 34.7583 69.3433 34.6516 69.29C34.545 69.23 34.4716 69.14 34.4316 69.02C34.3983 68.8933 34.405 68.7667 34.4516 68.64C34.505 68.5133 34.6083 68.42 34.7616 68.36C35.0683 68.2333 35.3616 68.1433 35.6416 68.09C35.9283 68.0367 36.1883 68.01 36.4216 68.01C37.135 68.01 37.665 68.1767 38.0116 68.51C38.3583 68.8367 38.5316 69.3467 38.5316 70.04V72.44C38.5316 72.8667 38.3383 73.08 37.9516 73.08C37.5583 73.08 37.3616 72.8667 37.3616 72.44V72.22C37.2483 72.4933 37.0683 72.71 36.8216 72.87C36.575 73.0233 36.2816 73.1 35.9416 73.1ZM36.2016 72.24C36.5283 72.24 36.7983 72.1267 37.0116 71.9C37.2316 71.6733 37.3416 71.3867 37.3416 71.04V70.82H37.0016C36.375 70.82 35.9383 70.87 35.6916 70.97C35.4516 71.0633 35.3316 71.2367 35.3316 71.49C35.3316 71.71 35.4083 71.89 35.5616 72.03C35.715 72.17 35.9283 72.24 36.2016 72.24ZM40.4604 67.11C40.2271 67.11 40.0437 67.0533 39.9104 66.94C39.7837 66.82 39.7204 66.6567 39.7204 66.45C39.7204 66.2367 39.7837 66.0733 39.9104 65.96C40.0437 65.8467 40.2271 65.79 40.4604 65.79C40.9537 65.79 41.2004 66.01 41.2004 66.45C41.2004 66.89 40.9537 67.11 40.4604 67.11ZM39.2004 74.89C39.0137 74.9033 38.8737 74.8667 38.7804 74.78C38.6804 74.7 38.6237 74.6 38.6104 74.48C38.5971 74.36 38.6237 74.25 38.6904 74.15C38.7504 74.05 38.8471 73.9933 38.9804 73.98C39.2804 73.9533 39.4971 73.8667 39.6304 73.72C39.7704 73.58 39.8404 73.3633 39.8404 73.07V68.66C39.8404 68.24 40.0504 68.03 40.4704 68.03C40.8837 68.03 41.0904 68.24 41.0904 68.66V72.96C41.0904 73.6067 40.9371 74.0767 40.6304 74.37C40.3237 74.6633 39.8471 74.8367 39.2004 74.89ZM44.6183 73.1C44.1116 73.1 43.6716 72.9967 43.2983 72.79C42.9249 72.5833 42.6349 72.29 42.4283 71.91C42.2216 71.5233 42.1183 71.07 42.1183 70.55C42.1183 70.03 42.2216 69.58 42.4283 69.2C42.6349 68.82 42.9249 68.5267 43.2983 68.32C43.6716 68.1133 44.1116 68.01 44.6183 68.01C45.1249 68.01 45.5649 68.1133 45.9383 68.32C46.3116 68.5267 46.6016 68.82 46.8083 69.2C47.0149 69.58 47.1183 70.03 47.1183 70.55C47.1183 71.07 47.0149 71.5233 46.8083 71.91C46.6016 72.29 46.3116 72.5833 45.9383 72.79C45.5649 72.9967 45.1249 73.1 44.6183 73.1ZM44.6183 72.15C44.9916 72.15 45.2916 72.0167 45.5183 71.75C45.7449 71.4767 45.8583 71.0767 45.8583 70.55C45.8583 70.0167 45.7449 69.62 45.5183 69.36C45.2916 69.0933 44.9916 68.96 44.6183 68.96C44.2449 68.96 43.9449 69.0933 43.7183 69.36C43.4916 69.62 43.3783 70.0167 43.3783 70.55C43.3783 71.0767 43.4916 71.4767 43.7183 71.75C43.9449 72.0167 44.2449 72.15 44.6183 72.15ZM48.79 73.08C48.3633 73.08 48.15 72.8667 48.15 72.44V68.66C48.15 68.24 48.3533 68.03 48.76 68.03C49.1667 68.03 49.37 68.24 49.37 68.66V68.97C49.61 68.3967 50.1233 68.0767 50.91 68.01C51.1967 67.9767 51.3567 68.14 51.39 68.5C51.4233 68.8533 51.25 69.05 50.87 69.09L50.65 69.11C49.83 69.19 49.42 69.61 49.42 70.37V72.44C49.42 72.8667 49.21 73.08 48.79 73.08ZM26.28 87.07C26.0067 87.07 25.87 86.9267 25.87 86.64V80.31C25.87 80.0233 26.0067 79.88 26.28 79.88C26.5533 79.88 26.69 80.0233 26.69 80.31V86.64C26.69 86.9267 26.5533 87.07 26.28 87.07ZM28.7284 87.07C28.4617 87.07 28.3284 86.93 28.3284 86.65V82.48C28.3284 82.2067 28.4584 82.07 28.7184 82.07C28.985 82.07 29.1184 82.2067 29.1184 82.48V82.97C29.2784 82.6633 29.505 82.4333 29.7984 82.28C30.0917 82.1267 30.4217 82.05 30.7884 82.05C31.9417 82.05 32.5184 82.69 32.5184 83.97V86.65C32.5184 86.93 32.385 87.07 32.1184 87.07C31.845 87.07 31.7084 86.93 31.7084 86.65V84.02C31.7084 83.5667 31.6184 83.2367 31.4384 83.03C31.265 82.8167 30.985 82.71 30.5984 82.71C30.1517 82.71 29.795 82.85 29.5284 83.13C29.2684 83.4033 29.1384 83.77 29.1384 84.23V86.65C29.1384 86.93 29.0017 87.07 28.7284 87.07ZM34.672 87.07C34.4053 87.07 34.272 86.93 34.272 86.65V82.77H33.632C33.3986 82.77 33.282 82.6633 33.282 82.45C33.282 82.2433 33.3986 82.14 33.632 82.14H34.272V81.97C34.272 80.7233 34.882 80.0467 36.102 79.94L36.392 79.91C36.512 79.9033 36.5986 79.93 36.652 79.99C36.7053 80.05 36.732 80.1233 36.732 80.21C36.7386 80.29 36.7186 80.3633 36.672 80.43C36.6253 80.4967 36.5586 80.5333 36.472 80.54L36.242 80.56C35.8353 80.5933 35.5386 80.7167 35.352 80.93C35.172 81.1433 35.082 81.4567 35.082 81.87V82.14H36.162C36.3953 82.14 36.512 82.2433 36.512 82.45C36.512 82.6633 36.3953 82.77 36.162 82.77H35.082V86.65C35.082 86.93 34.9453 87.07 34.672 87.07ZM39.2253 87.09C38.752 87.09 38.342 86.9867 37.9953 86.78C37.6486 86.5733 37.3786 86.2833 37.1853 85.91C36.9986 85.53 36.9053 85.0833 36.9053 84.57C36.9053 84.0567 36.9986 83.6133 37.1853 83.24C37.3786 82.86 37.6486 82.5667 37.9953 82.36C38.342 82.1533 38.752 82.05 39.2253 82.05C39.692 82.05 40.0986 82.1533 40.4453 82.36C40.7986 82.5667 41.0686 82.86 41.2553 83.24C41.4486 83.6133 41.5453 84.0567 41.5453 84.57C41.5453 85.0833 41.4486 85.53 41.2553 85.91C41.0686 86.2833 40.7986 86.5733 40.4453 86.78C40.0986 86.9867 39.692 87.09 39.2253 87.09ZM39.2253 86.44C39.6786 86.44 40.042 86.28 40.3153 85.96C40.5886 85.6333 40.7253 85.17 40.7253 84.57C40.7253 83.9633 40.5886 83.5 40.3153 83.18C40.042 82.86 39.6786 82.7 39.2253 82.7C38.7653 82.7 38.3986 82.86 38.1253 83.18C37.8586 83.5 37.7253 83.9633 37.7253 84.57C37.7253 85.17 37.8586 85.6333 38.1253 85.96C38.3986 86.28 38.7653 86.44 39.2253 86.44ZM43.172 87.07C42.8986 87.07 42.762 86.93 42.762 86.65V82.48C42.762 82.2067 42.892 82.07 43.152 82.07C43.4186 82.07 43.552 82.2067 43.552 82.48V83.01C43.6853 82.7033 43.892 82.47 44.172 82.31C44.452 82.1433 44.7853 82.0533 45.172 82.04C45.3853 82.02 45.4986 82.1267 45.512 82.36C45.532 82.5933 45.412 82.7233 45.152 82.75L44.992 82.77C44.532 82.81 44.182 82.9567 43.942 83.21C43.702 83.4567 43.582 83.7967 43.582 84.23V86.65C43.582 86.93 43.4453 87.07 43.172 87.07ZM46.7659 87.07C46.4993 87.07 46.3659 86.93 46.3659 86.65V82.48C46.3659 82.2067 46.4959 82.07 46.7559 82.07C47.0226 82.07 47.1559 82.2067 47.1559 82.48V82.96C47.3026 82.6667 47.5059 82.4433 47.7659 82.29C48.0259 82.13 48.3293 82.05 48.6759 82.05C49.4359 82.05 49.9226 82.38 50.1359 83.04C50.2826 82.7333 50.4993 82.4933 50.7859 82.32C51.0726 82.14 51.4026 82.05 51.7759 82.05C52.8559 82.05 53.3959 82.69 53.3959 83.97V86.65C53.3959 86.93 53.2593 87.07 52.9859 87.07C52.7193 87.07 52.5859 86.93 52.5859 86.65V84.01C52.5859 83.5633 52.5059 83.2367 52.3459 83.03C52.1926 82.8167 51.9359 82.71 51.5759 82.71C51.1826 82.71 50.8693 82.85 50.6359 83.13C50.4026 83.41 50.2859 83.7833 50.2859 84.25V86.65C50.2859 86.93 50.1493 87.07 49.8759 87.07C49.6093 87.07 49.4759 86.93 49.4759 86.65V84.01C49.4759 83.5633 49.3959 83.2367 49.2359 83.03C49.0826 82.8167 48.8259 82.71 48.4659 82.71C48.0659 82.71 47.7493 82.85 47.5159 83.13C47.2893 83.41 47.1759 83.7833 47.1759 84.25V86.65C47.1759 86.93 47.0393 87.07 46.7659 87.07ZM56.4404 87.09C56.1071 87.09 55.8071 87.0267 55.5404 86.9C55.2804 86.7667 55.0737 86.5867 54.9204 86.36C54.7671 86.1333 54.6904 85.88 54.6904 85.6C54.6904 85.2467 54.7804 84.9667 54.9604 84.76C55.1471 84.5533 55.4504 84.4067 55.8704 84.32C56.2971 84.2267 56.8771 84.18 57.6104 84.18H57.9304V83.87C57.9304 83.4567 57.8437 83.16 57.6704 82.98C57.5037 82.7933 57.2337 82.7 56.8604 82.7C56.6271 82.7 56.3904 82.73 56.1504 82.79C55.9171 82.85 55.6737 82.9467 55.4204 83.08C55.3071 83.14 55.2104 83.1533 55.1304 83.12C55.0571 83.08 55.0037 83.02 54.9704 82.94C54.9437 82.8533 54.9437 82.7667 54.9704 82.68C55.0037 82.5867 55.0704 82.5167 55.1704 82.47C55.4571 82.3233 55.7437 82.2167 56.0304 82.15C56.3237 82.0833 56.6004 82.05 56.8604 82.05C57.4871 82.05 57.9504 82.2033 58.2504 82.51C58.5571 82.8167 58.7104 83.2933 58.7104 83.94V86.65C58.7104 86.93 58.5871 87.07 58.3404 87.07C58.0804 87.07 57.9504 86.93 57.9504 86.65V86.16C57.8237 86.4467 57.6271 86.6733 57.3604 86.84C57.1004 87.0067 56.7937 87.09 56.4404 87.09ZM56.5704 86.48C56.9704 86.48 57.2971 86.3433 57.5504 86.07C57.8037 85.79 57.9304 85.4367 57.9304 85.01V84.71H57.6204C57.0804 84.71 56.6537 84.7367 56.3404 84.79C56.0337 84.8367 55.8171 84.9233 55.6904 85.05C55.5704 85.17 55.5104 85.3367 55.5104 85.55C55.5104 85.8233 55.6037 86.0467 55.7904 86.22C55.9837 86.3933 56.2437 86.48 56.5704 86.48ZM62.1631 87.09C61.5898 87.09 61.1598 86.94 60.8731 86.64C60.5865 86.3333 60.4431 85.8933 60.4431 85.32V82.77H59.7731C59.5398 82.77 59.4231 82.6633 59.4231 82.45C59.4231 82.2433 59.5398 82.14 59.7731 82.14H60.4431V80.99C60.4431 80.7167 60.5798 80.58 60.8531 80.58C61.1198 80.58 61.2531 80.7167 61.2531 80.99V82.14H62.5131C62.7465 82.14 62.8631 82.2433 62.8631 82.45C62.8631 82.6633 62.7465 82.77 62.5131 82.77H61.2531V85.24C61.2531 85.62 61.3331 85.91 61.4931 86.11C61.6531 86.3033 61.9131 86.4 62.2731 86.4C62.3998 86.4 62.5065 86.3867 62.5931 86.36C62.6798 86.3333 62.7565 86.32 62.8231 86.32C62.8831 86.3133 62.9331 86.3333 62.9731 86.38C63.0131 86.4267 63.0331 86.5067 63.0331 86.62C63.0331 86.7 63.0165 86.7733 62.9831 86.84C62.9565 86.9067 62.9065 86.9533 62.8331 86.98C62.7531 87.0067 62.6465 87.03 62.5131 87.05C62.3865 87.0767 62.2698 87.09 62.1631 87.09ZM64.1678 80.97C63.8145 80.97 63.6378 80.8033 63.6378 80.47C63.6378 80.1433 63.8145 79.98 64.1678 79.98C64.5211 79.98 64.6978 80.1433 64.6978 80.47C64.6978 80.8033 64.5211 80.97 64.1678 80.97ZM64.1678 87.05C63.9011 87.05 63.7678 86.9033 63.7678 86.61V82.52C63.7678 82.2333 63.9011 82.09 64.1678 82.09C64.4411 82.09 64.5778 82.2333 64.5778 82.52V86.61C64.5778 86.9033 64.4411 87.05 64.1678 87.05ZM68.152 87.09C67.6654 87.09 67.2454 86.9867 66.892 86.78C66.5387 86.5667 66.2654 86.27 66.072 85.89C65.8854 85.5033 65.792 85.0533 65.792 84.54C65.792 83.7667 66.002 83.16 66.422 82.72C66.842 82.2733 67.4187 82.05 68.152 82.05C68.392 82.05 68.642 82.09 68.902 82.17C69.162 82.2433 69.3987 82.3667 69.612 82.54C69.7254 82.62 69.772 82.72 69.752 82.84C69.7387 82.96 69.682 83.05 69.582 83.11C69.4887 83.17 69.3787 83.1567 69.252 83.07C69.072 82.9367 68.892 82.8433 68.712 82.79C68.5387 82.7367 68.3687 82.71 68.202 82.71C67.6954 82.71 67.3054 82.87 67.032 83.19C66.7587 83.5033 66.622 83.9567 66.622 84.55C66.622 85.13 66.7587 85.59 67.032 85.93C67.3054 86.2633 67.6954 86.43 68.202 86.43C68.3687 86.43 68.5387 86.4033 68.712 86.35C68.892 86.2967 69.072 86.2033 69.252 86.07C69.3787 85.9833 69.4887 85.9733 69.582 86.04C69.6754 86.1 69.7254 86.19 69.732 86.31C69.7454 86.43 69.6987 86.5267 69.592 86.6C69.3787 86.7733 69.1454 86.9 68.892 86.98C68.6387 87.0533 68.392 87.09 68.152 87.09ZM72.3609 87.09C72.0609 87.09 71.7576 87.0533 71.4509 86.98C71.1509 86.9 70.8709 86.7733 70.6109 86.6C70.4909 86.5267 70.4309 86.4333 70.4309 86.32C70.4376 86.2 70.4843 86.1067 70.5709 86.04C70.6576 85.9733 70.7676 85.9733 70.9009 86.04C71.1609 86.2 71.4109 86.3133 71.6509 86.38C71.8976 86.44 72.1409 86.47 72.3809 86.47C72.7609 86.47 73.0476 86.4 73.2409 86.26C73.4343 86.12 73.5309 85.93 73.5309 85.69C73.5309 85.5033 73.4676 85.3567 73.3409 85.25C73.2143 85.1367 73.0143 85.05 72.7409 84.99L71.8309 84.79C71.0043 84.61 70.5909 84.1833 70.5909 83.51C70.5909 83.07 70.7643 82.7167 71.1109 82.45C71.4643 82.1833 71.9243 82.05 72.4909 82.05C72.7776 82.05 73.0543 82.09 73.3209 82.17C73.5876 82.2433 73.8276 82.3633 74.0409 82.53C74.1543 82.61 74.2043 82.7067 74.1909 82.82C74.1776 82.9333 74.1243 83.0233 74.0309 83.09C73.9443 83.15 73.8376 83.14 73.7109 83.06C73.5109 82.9267 73.3076 82.83 73.1009 82.77C72.8943 82.7033 72.6909 82.67 72.4909 82.67C72.1176 82.67 71.8343 82.7433 71.6409 82.89C71.4476 83.0367 71.3509 83.23 71.3509 83.47C71.3509 83.8433 71.5976 84.0833 72.0909 84.19L73.0009 84.38C73.4276 84.4733 73.7509 84.6233 73.9709 84.83C74.1909 85.03 74.3009 85.3033 74.3009 85.65C74.3009 86.0967 74.1243 86.45 73.7709 86.71C73.4176 86.9633 72.9476 87.09 72.3609 87.09ZM28.2 115.1C27.7533 115.1 27.3167 115.05 26.89 114.95C26.47 114.85 26.1033 114.7 25.79 114.5C25.6367 114.4 25.5433 114.277 25.51 114.13C25.4767 113.983 25.4867 113.847 25.54 113.72C25.6 113.587 25.69 113.497 25.81 113.45C25.9367 113.397 26.08 113.42 26.24 113.52C26.5333 113.693 26.8433 113.82 27.17 113.9C27.4967 113.98 27.84 114.02 28.2 114.02C28.7267 114.02 29.11 113.933 29.35 113.76C29.59 113.58 29.71 113.35 29.71 113.07C29.71 112.837 29.6233 112.653 29.45 112.52C29.2833 112.387 28.9933 112.277 28.58 112.19L27.48 111.96C26.2267 111.693 25.6 111.05 25.6 110.03C25.6 109.59 25.7167 109.207 25.95 108.88C26.1833 108.553 26.5067 108.3 26.92 108.12C27.3333 107.94 27.81 107.85 28.35 107.85C28.75 107.85 29.13 107.9 29.49 108C29.85 108.1 30.1733 108.247 30.46 108.44C30.5933 108.533 30.6733 108.65 30.7 108.79C30.7267 108.923 30.71 109.05 30.65 109.17C30.59 109.283 30.4933 109.363 30.36 109.41C30.2333 109.45 30.0833 109.42 29.91 109.32C29.6633 109.18 29.4133 109.08 29.16 109.02C28.9067 108.96 28.6333 108.93 28.34 108.93C27.88 108.93 27.52 109.027 27.26 109.22C27 109.413 26.87 109.667 26.87 109.98C26.87 110.22 26.95 110.413 27.11 110.56C27.27 110.7 27.5433 110.81 27.93 110.89L29.02 111.12C29.68 111.26 30.17 111.48 30.49 111.78C30.8167 112.08 30.98 112.48 30.98 112.98C30.98 113.4 30.8667 113.77 30.64 114.09C30.4133 114.41 30.09 114.66 29.67 114.84C29.2567 115.013 28.7667 115.1 28.2 115.1ZM34.2186 115.1C33.7053 115.1 33.2586 114.997 32.8786 114.79C32.4986 114.577 32.2053 114.277 31.9986 113.89C31.7919 113.503 31.6886 113.05 31.6886 112.53C31.6886 112.01 31.7919 111.563 31.9986 111.19C32.2053 110.81 32.4986 110.52 32.8786 110.32C33.2586 110.113 33.7053 110.01 34.2186 110.01C34.4386 110.01 34.6753 110.04 34.9286 110.1C35.1886 110.16 35.4319 110.26 35.6586 110.4C35.7919 110.48 35.8686 110.583 35.8886 110.71C35.9153 110.837 35.8986 110.953 35.8386 111.06C35.7853 111.167 35.7019 111.243 35.5886 111.29C35.4819 111.337 35.3586 111.32 35.2186 111.24C34.9119 111.067 34.6153 110.98 34.3286 110.98C33.8953 110.98 33.5586 111.117 33.3186 111.39C33.0853 111.657 32.9686 112.04 32.9686 112.54C32.9686 113.033 33.0853 113.423 33.3186 113.71C33.5586 113.99 33.8953 114.13 34.3286 114.13C34.6153 114.13 34.9119 114.047 35.2186 113.88C35.3586 113.8 35.4819 113.783 35.5886 113.83C35.6953 113.877 35.7719 113.957 35.8186 114.07C35.8653 114.177 35.8753 114.293 35.8486 114.42C35.8219 114.54 35.7453 114.64 35.6186 114.72C35.3986 114.853 35.1653 114.95 34.9186 115.01C34.6719 115.07 34.4386 115.1 34.2186 115.1ZM37.2954 115.08C36.8821 115.08 36.6754 114.867 36.6754 114.44V108.5C36.6754 108.08 36.8821 107.87 37.2954 107.87C37.7154 107.87 37.9254 108.08 37.9254 108.5V110.82C38.0921 110.553 38.3154 110.353 38.5954 110.22C38.8754 110.08 39.1854 110.01 39.5254 110.01C40.6787 110.01 41.2554 110.68 41.2554 112.02V114.44C41.2554 114.867 41.0487 115.08 40.6354 115.08C40.2154 115.08 40.0054 114.867 40.0054 114.44V112.08C40.0054 111.7 39.9321 111.423 39.7854 111.25C39.6454 111.077 39.4254 110.99 39.1254 110.99C38.7587 110.99 38.4654 111.107 38.2454 111.34C38.0321 111.567 37.9254 111.87 37.9254 112.25V114.44C37.9254 114.867 37.7154 115.08 37.2954 115.08ZM44.755 115.1C44.2483 115.1 43.8083 114.997 43.435 114.79C43.0617 114.583 42.7717 114.29 42.565 113.91C42.3583 113.523 42.255 113.07 42.255 112.55C42.255 112.03 42.3583 111.58 42.565 111.2C42.7717 110.82 43.0617 110.527 43.435 110.32C43.8083 110.113 44.2483 110.01 44.755 110.01C45.2617 110.01 45.7017 110.113 46.075 110.32C46.4483 110.527 46.7383 110.82 46.945 111.2C47.1517 111.58 47.255 112.03 47.255 112.55C47.255 113.07 47.1517 113.523 46.945 113.91C46.7383 114.29 46.4483 114.583 46.075 114.79C45.7017 114.997 45.2617 115.1 44.755 115.1ZM44.755 114.15C45.1283 114.15 45.4283 114.017 45.655 113.75C45.8817 113.477 45.995 113.077 45.995 112.55C45.995 112.017 45.8817 111.62 45.655 111.36C45.4283 111.093 45.1283 110.96 44.755 110.96C44.3817 110.96 44.0817 111.093 43.855 111.36C43.6283 111.62 43.515 112.017 43.515 112.55C43.515 113.077 43.6283 113.477 43.855 113.75C44.0817 114.017 44.3817 114.15 44.755 114.15ZM50.5167 115.1C50.0101 115.1 49.5701 114.997 49.1967 114.79C48.8234 114.583 48.5334 114.29 48.3267 113.91C48.1201 113.523 48.0167 113.07 48.0167 112.55C48.0167 112.03 48.1201 111.58 48.3267 111.2C48.5334 110.82 48.8234 110.527 49.1967 110.32C49.5701 110.113 50.0101 110.01 50.5167 110.01C51.0234 110.01 51.4634 110.113 51.8367 110.32C52.2101 110.527 52.5001 110.82 52.7067 111.2C52.9134 111.58 53.0167 112.03 53.0167 112.55C53.0167 113.07 52.9134 113.523 52.7067 113.91C52.5001 114.29 52.2101 114.583 51.8367 114.79C51.4634 114.997 51.0234 115.1 50.5167 115.1ZM50.5167 114.15C50.8901 114.15 51.1901 114.017 51.4167 113.75C51.6434 113.477 51.7567 113.077 51.7567 112.55C51.7567 112.017 51.6434 111.62 51.4167 111.36C51.1901 111.093 50.8901 110.96 50.5167 110.96C50.1434 110.96 49.8434 111.093 49.6167 111.36C49.3901 111.62 49.2767 112.017 49.2767 112.55C49.2767 113.077 49.3901 113.477 49.6167 113.75C49.8434 114.017 50.1434 114.15 50.5167 114.15ZM55.7184 115.1C54.6051 115.1 54.0484 114.477 54.0484 113.23V108.5C54.0484 108.08 54.2551 107.87 54.6684 107.87C55.0884 107.87 55.2984 108.08 55.2984 108.5V113.17C55.2984 113.77 55.5484 114.07 56.0484 114.07C56.1018 114.07 56.1518 114.07 56.1984 114.07C56.2451 114.063 56.2918 114.057 56.3384 114.05C56.4318 114.037 56.4951 114.063 56.5284 114.13C56.5618 114.19 56.5784 114.317 56.5784 114.51C56.5784 114.677 56.5451 114.807 56.4784 114.9C56.4118 114.993 56.3018 115.05 56.1484 115.07C56.0084 115.09 55.8651 115.1 55.7184 115.1ZM28.15 129.09C27.67 129.09 27.2167 129.033 26.79 128.92C26.37 128.8 26.0067 128.627 25.7 128.4C25.5933 128.327 25.53 128.24 25.51 128.14C25.49 128.04 25.5 127.947 25.54 127.86C25.5867 127.773 25.6533 127.717 25.74 127.69C25.8267 127.657 25.9267 127.677 26.04 127.75C26.34 127.97 26.66 128.127 27 128.22C27.34 128.313 27.7233 128.36 28.15 128.36C28.75 128.36 29.1933 128.25 29.48 128.03C29.7733 127.803 29.92 127.507 29.92 127.14C29.92 126.847 29.8133 126.613 29.6 126.44C29.3933 126.267 29.0433 126.13 28.55 126.03L27.51 125.82C26.8833 125.687 26.4133 125.47 26.1 125.17C25.7933 124.863 25.64 124.457 25.64 123.95C25.64 123.53 25.7467 123.163 25.96 122.85C26.18 122.537 26.4833 122.293 26.87 122.12C27.2567 121.947 27.7033 121.86 28.21 121.86C28.63 121.86 29.02 121.92 29.38 122.04C29.7467 122.153 30.0767 122.327 30.37 122.56C30.4633 122.633 30.5167 122.72 30.53 122.82C30.55 122.913 30.5367 123 30.49 123.08C30.4433 123.16 30.3767 123.213 30.29 123.24C30.2033 123.26 30.1 123.233 29.98 123.16C29.7133 122.953 29.4333 122.807 29.14 122.72C28.8533 122.633 28.54 122.59 28.2 122.59C27.6733 122.59 27.2533 122.713 26.94 122.96C26.6267 123.2 26.47 123.52 26.47 123.92C26.47 124.24 26.5667 124.493 26.76 124.68C26.96 124.867 27.2833 125.003 27.73 125.09L28.77 125.31C29.4433 125.45 29.94 125.663 30.26 125.95C30.5867 126.23 30.75 126.613 30.75 127.1C30.75 127.493 30.6433 127.84 30.43 128.14C30.2233 128.44 29.9233 128.673 29.53 128.84C29.1433 129.007 28.6833 129.09 28.15 129.09ZM34.0159 129.07C33.7425 129.07 33.6059 128.927 33.6059 128.64V122.66H31.3559C31.1025 122.66 30.9759 122.54 30.9759 122.3C30.9759 122.067 31.1025 121.95 31.3559 121.95H36.6859C36.9392 121.95 37.0659 122.067 37.0659 122.3C37.0659 122.54 36.9392 122.66 36.6859 122.66H34.4359V128.64C34.4359 128.927 34.2959 129.07 34.0159 129.07ZM38.2915 129.07C38.0382 129.07 37.9115 128.937 37.9115 128.67V122.28C37.9115 122.013 38.0382 121.88 38.2915 121.88C38.3982 121.88 38.4815 121.903 38.5415 121.95C38.6082 121.99 38.6682 122.06 38.7215 122.16L41.3115 127.04L43.8915 122.16C43.9448 122.06 44.0015 121.99 44.0615 121.95C44.1215 121.903 44.2082 121.88 44.3215 121.88C44.5682 121.88 44.6915 122.013 44.6915 122.28V128.67C44.6915 128.937 44.5648 129.07 44.3115 129.07C44.0582 129.07 43.9315 128.937 43.9315 128.67V123.49L41.6715 127.74C41.6248 127.827 41.5748 127.89 41.5215 127.93C41.4748 127.963 41.4048 127.98 41.3115 127.98C41.2182 127.98 41.1448 127.96 41.0915 127.92C41.0382 127.88 40.9915 127.82 40.9515 127.74L38.6615 123.5V128.67C38.6615 128.937 38.5382 129.07 38.2915 129.07ZM46.8562 129.07C46.5828 129.07 46.4462 128.927 46.4462 128.64V122.31C46.4462 122.023 46.5828 121.88 46.8562 121.88C47.1295 121.88 47.2662 122.023 47.2662 122.31V128.64C47.2662 128.927 47.1295 129.07 46.8562 129.07ZM49.4245 129.07C49.1512 129.07 49.0145 128.927 49.0145 128.64V122.3C49.0145 122.02 49.1512 121.88 49.4245 121.88C49.6979 121.88 49.8345 122.02 49.8345 122.3V125.15H49.8545L53.1145 122.11C53.2745 121.957 53.4412 121.88 53.6145 121.88C53.7945 121.88 53.9012 121.947 53.9345 122.08C53.9745 122.207 53.9345 122.327 53.8145 122.44L50.6445 125.37L53.9745 128.45C54.1212 128.59 54.1679 128.73 54.1145 128.87C54.0612 129.003 53.9445 129.07 53.7645 129.07C53.6645 129.07 53.5779 129.047 53.5045 129C53.4379 128.96 53.3612 128.897 53.2745 128.81L49.8545 125.68H49.8345V128.64C49.8345 128.927 49.6979 129.07 49.4245 129.07ZM58.2527 129.07C57.9793 129.07 57.8427 128.927 57.8427 128.64V122.37C57.8427 122.09 57.9827 121.95 58.2627 121.95H60.6327C61.3927 121.95 61.9727 122.133 62.3727 122.5C62.7793 122.867 62.9827 123.39 62.9827 124.07C62.9827 124.743 62.7793 125.267 62.3727 125.64C61.9727 126.007 61.3927 126.19 60.6327 126.19H58.6627V128.64C58.6627 128.927 58.526 129.07 58.2527 129.07ZM58.6627 125.5H60.5327C61.626 125.5 62.1727 125.023 62.1727 124.07C62.1727 123.11 61.626 122.63 60.5327 122.63H58.6627V125.5ZM64.3731 129.07C64.0998 129.07 63.9631 128.93 63.9631 128.65V124.48C63.9631 124.207 64.0931 124.07 64.3531 124.07C64.6198 124.07 64.7531 124.207 64.7531 124.48V125.01C64.8865 124.703 65.0931 124.47 65.3731 124.31C65.6531 124.143 65.9865 124.053 66.3731 124.04C66.5865 124.02 66.6998 124.127 66.7131 124.36C66.7331 124.593 66.6131 124.723 66.3531 124.75L66.1931 124.77C65.7331 124.81 65.3831 124.957 65.1431 125.21C64.9031 125.457 64.7831 125.797 64.7831 126.23V128.65C64.7831 128.93 64.6465 129.07 64.3731 129.07ZM67.9471 122.97C67.5938 122.97 67.4171 122.803 67.4171 122.47C67.4171 122.143 67.5938 121.98 67.9471 121.98C68.3004 121.98 68.4771 122.143 68.4771 122.47C68.4771 122.803 68.3004 122.97 67.9471 122.97ZM67.9471 129.05C67.6804 129.05 67.5471 128.903 67.5471 128.61V124.52C67.5471 124.233 67.6804 124.09 67.9471 124.09C68.2204 124.09 68.3571 124.233 68.3571 124.52V128.61C68.3571 128.903 68.2204 129.05 67.9471 129.05ZM70.2913 129.07C70.0247 129.07 69.8913 128.93 69.8913 128.65V124.48C69.8913 124.207 70.0213 124.07 70.2813 124.07C70.548 124.07 70.6813 124.207 70.6813 124.48V124.96C70.828 124.667 71.0313 124.443 71.2913 124.29C71.5513 124.13 71.8547 124.05 72.2013 124.05C72.9613 124.05 73.448 124.38 73.6613 125.04C73.808 124.733 74.0247 124.493 74.3113 124.32C74.598 124.14 74.928 124.05 75.3013 124.05C76.3813 124.05 76.9213 124.69 76.9213 125.97V128.65C76.9213 128.93 76.7847 129.07 76.5113 129.07C76.2447 129.07 76.1113 128.93 76.1113 128.65V126.01C76.1113 125.563 76.0313 125.237 75.8713 125.03C75.718 124.817 75.4613 124.71 75.1013 124.71C74.708 124.71 74.3947 124.85 74.1613 125.13C73.928 125.41 73.8113 125.783 73.8113 126.25V128.65C73.8113 128.93 73.6747 129.07 73.4013 129.07C73.1347 129.07 73.0013 128.93 73.0013 128.65V126.01C73.0013 125.563 72.9213 125.237 72.7613 125.03C72.608 124.817 72.3513 124.71 71.9913 124.71C71.5913 124.71 71.2747 124.85 71.0413 125.13C70.8147 125.41 70.7013 125.783 70.7013 126.25V128.65C70.7013 128.93 70.5647 129.07 70.2913 129.07ZM79.9658 129.09C79.6324 129.09 79.3324 129.027 79.0658 128.9C78.8058 128.767 78.5991 128.587 78.4458 128.36C78.2924 128.133 78.2158 127.88 78.2158 127.6C78.2158 127.247 78.3058 126.967 78.4858 126.76C78.6724 126.553 78.9758 126.407 79.3958 126.32C79.8224 126.227 80.4024 126.18 81.1358 126.18H81.4558V125.87C81.4558 125.457 81.3691 125.16 81.1958 124.98C81.0291 124.793 80.7591 124.7 80.3858 124.7C80.1524 124.7 79.9158 124.73 79.6758 124.79C79.4424 124.85 79.1991 124.947 78.9458 125.08C78.8324 125.14 78.7358 125.153 78.6558 125.12C78.5824 125.08 78.5291 125.02 78.4958 124.94C78.4691 124.853 78.4691 124.767 78.4958 124.68C78.5291 124.587 78.5958 124.517 78.6958 124.47C78.9824 124.323 79.2691 124.217 79.5558 124.15C79.8491 124.083 80.1258 124.05 80.3858 124.05C81.0124 124.05 81.4758 124.203 81.7758 124.51C82.0824 124.817 82.2358 125.293 82.2358 125.94V128.65C82.2358 128.93 82.1124 129.07 81.8658 129.07C81.6058 129.07 81.4758 128.93 81.4758 128.65V128.16C81.3491 128.447 81.1524 128.673 80.8858 128.84C80.6258 129.007 80.3191 129.09 79.9658 129.09ZM80.0958 128.48C80.4958 128.48 80.8224 128.343 81.0758 128.07C81.3291 127.79 81.4558 127.437 81.4558 127.01V126.71H81.1458C80.6058 126.71 80.1791 126.737 79.8658 126.79C79.5591 126.837 79.3424 126.923 79.2158 127.05C79.0958 127.17 79.0358 127.337 79.0358 127.55C79.0358 127.823 79.1291 128.047 79.3158 128.22C79.5091 128.393 79.7691 128.48 80.0958 128.48ZM84.1385 129.07C83.8718 129.07 83.7385 128.93 83.7385 128.65V122.29C83.7385 122.017 83.8718 121.88 84.1385 121.88C84.4118 121.88 84.5485 122.017 84.5485 122.29V126.3H84.5685L86.6185 124.34C86.7052 124.253 86.7852 124.187 86.8585 124.14C86.9318 124.093 87.0285 124.07 87.1485 124.07C87.3085 124.07 87.4118 124.133 87.4585 124.26C87.5118 124.38 87.4785 124.503 87.3585 124.63L85.4085 126.48L87.5485 128.49C87.6885 128.623 87.7252 128.753 87.6585 128.88C87.5985 129.007 87.4952 129.07 87.3485 129.07C87.2285 129.07 87.1285 129.047 87.0485 129C86.9752 128.947 86.8885 128.87 86.7885 128.77L84.5685 126.72H84.5485V128.65C84.5485 128.93 84.4118 129.07 84.1385 129.07ZM90.2197 129.09C89.8864 129.09 89.5864 129.027 89.3197 128.9C89.0597 128.767 88.853 128.587 88.6997 128.36C88.5464 128.133 88.4697 127.88 88.4697 127.6C88.4697 127.247 88.5597 126.967 88.7397 126.76C88.9264 126.553 89.2297 126.407 89.6497 126.32C90.0764 126.227 90.6564 126.18 91.3897 126.18H91.7097V125.87C91.7097 125.457 91.623 125.16 91.4497 124.98C91.283 124.793 91.013 124.7 90.6397 124.7C90.4064 124.7 90.1697 124.73 89.9297 124.79C89.6964 124.85 89.453 124.947 89.1997 125.08C89.0864 125.14 88.9897 125.153 88.9097 125.12C88.8364 125.08 88.783 125.02 88.7497 124.94C88.723 124.853 88.723 124.767 88.7497 124.68C88.783 124.587 88.8497 124.517 88.9497 124.47C89.2364 124.323 89.523 124.217 89.8097 124.15C90.103 124.083 90.3797 124.05 90.6397 124.05C91.2664 124.05 91.7297 124.203 92.0297 124.51C92.3364 124.817 92.4897 125.293 92.4897 125.94V128.65C92.4897 128.93 92.3664 129.07 92.1197 129.07C91.8597 129.07 91.7297 128.93 91.7297 128.65V128.16C91.603 128.447 91.4064 128.673 91.1397 128.84C90.8797 129.007 90.573 129.09 90.2197 129.09ZM90.3497 128.48C90.7497 128.48 91.0764 128.343 91.3297 128.07C91.583 127.79 91.7097 127.437 91.7097 127.01V126.71H91.3997C90.8597 126.71 90.433 126.737 90.1197 126.79C89.813 126.837 89.5964 126.923 89.4697 127.05C89.3497 127.17 89.2897 127.337 89.2897 127.55C89.2897 127.823 89.383 128.047 89.5697 128.22C89.763 128.393 90.023 128.48 90.3497 128.48ZM94.4024 129.07C94.1291 129.07 93.9924 128.93 93.9924 128.65V124.48C93.9924 124.207 94.1224 124.07 94.3824 124.07C94.6491 124.07 94.7824 124.207 94.7824 124.48V125.01C94.9158 124.703 95.1224 124.47 95.4024 124.31C95.6824 124.143 96.0158 124.053 96.4024 124.04C96.6158 124.02 96.7291 124.127 96.7424 124.36C96.7624 124.593 96.6424 124.723 96.3824 124.75L96.2224 124.77C95.7624 124.81 95.4124 124.957 95.1724 125.21C94.9324 125.457 94.8124 125.797 94.8124 126.23V128.65C94.8124 128.93 94.6758 129.07 94.4024 129.07ZM99.0576 129.09C98.7242 129.09 98.4242 129.027 98.1576 128.9C97.8976 128.767 97.6909 128.587 97.5376 128.36C97.3842 128.133 97.3076 127.88 97.3076 127.6C97.3076 127.247 97.3976 126.967 97.5776 126.76C97.7642 126.553 98.0676 126.407 98.4876 126.32C98.9142 126.227 99.4942 126.18 100.228 126.18H100.548V125.87C100.548 125.457 100.461 125.16 100.288 124.98C100.121 124.793 99.8509 124.7 99.4776 124.7C99.2442 124.7 99.0076 124.73 98.7676 124.79C98.5342 124.85 98.2909 124.947 98.0376 125.08C97.9242 125.14 97.8276 125.153 97.7476 125.12C97.6742 125.08 97.6209 125.02 97.5876 124.94C97.5609 124.853 97.5609 124.767 97.5876 124.68C97.6209 124.587 97.6876 124.517 97.7876 124.47C98.0742 124.323 98.3609 124.217 98.6476 124.15C98.9409 124.083 99.2176 124.05 99.4776 124.05C100.104 124.05 100.568 124.203 100.868 124.51C101.174 124.817 101.328 125.293 101.328 125.94V128.65C101.328 128.93 101.204 129.07 100.958 129.07C100.698 129.07 100.568 128.93 100.568 128.65V128.16C100.441 128.447 100.244 128.673 99.9776 128.84C99.7176 129.007 99.4109 129.09 99.0576 129.09ZM99.1876 128.48C99.5876 128.48 99.9142 128.343 100.168 128.07C100.421 127.79 100.548 127.437 100.548 127.01V126.71H100.238C99.6976 126.71 99.2709 126.737 98.9576 126.79C98.6509 126.837 98.4342 126.923 98.3076 127.05C98.1876 127.17 98.1276 127.337 98.1276 127.55C98.1276 127.823 98.2209 128.047 98.4076 128.22C98.6009 128.393 98.8609 128.48 99.1876 128.48Z" fill="#231F21"/>
<path d="M134.46 31.07C134.273 31.0767 134.127 31.0267 134.02 30.92C133.913 30.8133 133.86 30.6767 133.86 30.51C133.86 30.3833 133.9 30.2733 133.98 30.18C134.053 30.08 134.163 30.0267 134.31 30.02L134.61 30C135.203 29.96 135.5 29.6333 135.5 29.02V24.52C135.5 24.0867 135.713 23.87 136.14 23.87C136.567 23.87 136.78 24.0867 136.78 24.52V29.01C136.78 29.6367 136.613 30.1233 136.28 30.47C135.947 30.8167 135.453 31.01 134.8 31.05L134.46 31.07ZM140.415 31.1C139.908 31.1 139.468 30.9967 139.095 30.79C138.722 30.5833 138.432 30.29 138.225 29.91C138.018 29.5233 137.915 29.07 137.915 28.55C137.915 28.03 138.018 27.58 138.225 27.2C138.432 26.82 138.722 26.5267 139.095 26.32C139.468 26.1133 139.908 26.01 140.415 26.01C140.922 26.01 141.362 26.1133 141.735 26.32C142.108 26.5267 142.398 26.82 142.605 27.2C142.812 27.58 142.915 28.03 142.915 28.55C142.915 29.07 142.812 29.5233 142.605 29.91C142.398 30.29 142.108 30.5833 141.735 30.79C141.362 30.9967 140.922 31.1 140.415 31.1ZM140.415 30.15C140.788 30.15 141.088 30.0167 141.315 29.75C141.542 29.4767 141.655 29.0767 141.655 28.55C141.655 28.0167 141.542 27.62 141.315 27.36C141.088 27.0933 140.788 26.96 140.415 26.96C140.042 26.96 139.742 27.0933 139.515 27.36C139.288 27.62 139.175 28.0167 139.175 28.55C139.175 29.0767 139.288 29.4767 139.515 29.75C139.742 30.0167 140.042 30.15 140.415 30.15ZM144.567 25.11C144.334 25.11 144.15 25.0533 144.017 24.94C143.89 24.82 143.827 24.6567 143.827 24.45C143.827 24.2367 143.89 24.0733 144.017 23.96C144.15 23.8467 144.334 23.79 144.567 23.79C145.06 23.79 145.307 24.01 145.307 24.45C145.307 24.89 145.06 25.11 144.567 25.11ZM144.567 31.07C144.367 31.07 144.214 31.01 144.107 30.89C144 30.77 143.947 30.6033 143.947 30.39V26.72C143.947 26.2667 144.154 26.04 144.567 26.04C144.987 26.04 145.197 26.2667 145.197 26.72V30.39C145.197 30.6033 145.144 30.77 145.037 30.89C144.93 31.01 144.774 31.07 144.567 31.07ZM147.116 31.08C146.702 31.08 146.496 30.8667 146.496 30.44V26.66C146.496 26.24 146.699 26.03 147.106 26.03C147.512 26.03 147.716 26.24 147.716 26.66V26.87C147.882 26.59 148.106 26.3767 148.386 26.23C148.672 26.0833 148.992 26.01 149.346 26.01C150.499 26.01 151.076 26.68 151.076 28.02V30.44C151.076 30.8667 150.869 31.08 150.456 31.08C150.036 31.08 149.826 30.8667 149.826 30.44V28.08C149.826 27.7 149.752 27.4233 149.606 27.25C149.466 27.0767 149.246 26.99 148.946 26.99C148.579 26.99 148.286 27.1067 148.066 27.34C147.852 27.5667 147.746 27.87 147.746 28.25V30.44C147.746 30.8667 147.536 31.08 147.116 31.08ZM154.755 31.1C154.202 31.1 153.725 30.9967 153.325 30.79C152.925 30.5833 152.615 30.29 152.395 29.91C152.182 29.53 152.075 29.08 152.075 28.56C152.075 28.0533 152.179 27.61 152.385 27.23C152.599 26.85 152.889 26.5533 153.255 26.34C153.629 26.12 154.052 26.01 154.525 26.01C155.219 26.01 155.765 26.23 156.165 26.67C156.572 27.11 156.775 27.71 156.775 28.47C156.775 28.7167 156.615 28.84 156.295 28.84H153.275C153.369 29.7133 153.869 30.15 154.775 30.15C154.949 30.15 155.142 30.13 155.355 30.09C155.575 30.0433 155.782 29.9667 155.975 29.86C156.149 29.76 156.295 29.73 156.415 29.77C156.535 29.8033 156.619 29.8733 156.665 29.98C156.719 30.0867 156.725 30.2067 156.685 30.34C156.652 30.4667 156.559 30.5767 156.405 30.67C156.172 30.8167 155.902 30.9267 155.595 31C155.295 31.0667 155.015 31.1 154.755 31.1ZM154.575 26.86C154.209 26.86 153.912 26.9733 153.685 27.2C153.459 27.4267 153.322 27.7333 153.275 28.12H155.735C155.709 27.7133 155.595 27.4033 155.395 27.19C155.202 26.97 154.929 26.86 154.575 26.86ZM159.645 31.1C159.219 31.1 158.842 30.9967 158.515 30.79C158.195 30.5833 157.945 30.29 157.765 29.91C157.585 29.5233 157.495 29.07 157.495 28.55C157.495 28.0233 157.585 27.5733 157.765 27.2C157.945 26.82 158.195 26.5267 158.515 26.32C158.842 26.1133 159.219 26.01 159.645 26.01C159.992 26.01 160.305 26.0867 160.585 26.24C160.865 26.3933 161.075 26.5967 161.215 26.85V24.5C161.215 24.08 161.422 23.87 161.835 23.87C162.255 23.87 162.465 24.08 162.465 24.5V30.44C162.465 30.8667 162.259 31.08 161.845 31.08C161.432 31.08 161.225 30.8667 161.225 30.44V30.23C161.085 30.4967 160.875 30.71 160.595 30.87C160.315 31.0233 159.999 31.1 159.645 31.1ZM159.995 30.15C160.369 30.15 160.669 30.0167 160.895 29.75C161.122 29.4767 161.235 29.0767 161.235 28.55C161.235 28.0167 161.122 27.62 160.895 27.36C160.669 27.0933 160.369 26.96 159.995 26.96C159.622 26.96 159.322 27.0933 159.095 27.36C158.869 27.62 158.755 28.0167 158.755 28.55C158.755 29.0767 158.869 29.4767 159.095 29.75C159.322 30.0167 159.622 30.15 159.995 30.15ZM134.28 45.06C134.153 45.0667 134.057 45.0333 133.99 44.96C133.917 44.8867 133.88 44.7967 133.88 44.69C133.88 44.61 133.907 44.54 133.96 44.48C134.007 44.4133 134.083 44.3733 134.19 44.36L134.5 44.34C134.84 44.3133 135.1 44.1967 135.28 43.99C135.46 43.7767 135.55 43.4867 135.55 43.12V38.3C135.55 38.02 135.687 37.88 135.96 37.88C136.233 37.88 136.37 38.02 136.37 38.3V43.13C136.37 43.71 136.22 44.1633 135.92 44.49C135.62 44.81 135.183 44.99 134.61 45.03L134.28 45.06ZM139.722 45.09C138.556 45.09 137.972 44.4467 137.972 43.16V40.48C137.972 40.2067 138.106 40.07 138.372 40.07C138.646 40.07 138.782 40.2067 138.782 40.48V43.15C138.782 43.5833 138.869 43.9033 139.042 44.11C139.222 44.3167 139.502 44.42 139.882 44.42C140.296 44.42 140.632 44.2833 140.892 44.01C141.152 43.73 141.282 43.36 141.282 42.9V40.48C141.282 40.2067 141.419 40.07 141.692 40.07C141.959 40.07 142.092 40.2067 142.092 40.48V44.65C142.092 44.93 141.962 45.07 141.702 45.07C141.436 45.07 141.302 44.93 141.302 44.65V44.18C141.149 44.4733 140.932 44.7 140.652 44.86C140.379 45.0133 140.069 45.09 139.722 45.09ZM145.088 45.09C144.608 45.09 144.241 44.9467 143.988 44.66C143.734 44.3667 143.608 43.9433 143.608 43.39V38.29C143.608 38.0167 143.741 37.88 144.008 37.88C144.281 37.88 144.418 38.0167 144.418 38.29V43.33C144.418 44.0433 144.701 44.4 145.268 44.4C145.328 44.4 145.381 44.3967 145.428 44.39C145.474 44.3833 145.521 44.38 145.568 44.38C145.641 44.3733 145.691 44.39 145.718 44.43C145.751 44.47 145.768 44.55 145.768 44.67C145.768 44.8967 145.654 45.0267 145.428 45.06C145.374 45.0733 145.318 45.08 145.258 45.08C145.198 45.0867 145.141 45.09 145.088 45.09ZM149.675 45C149.521 45 149.411 44.9667 149.345 44.9C149.278 44.8267 149.245 44.73 149.245 44.61C149.245 44.47 149.315 44.3267 149.455 44.18L151.695 41.78C152.035 41.4133 152.278 41.0767 152.425 40.77C152.578 40.4567 152.655 40.14 152.655 39.82C152.655 39 152.178 38.59 151.225 38.59C150.631 38.59 150.091 38.78 149.605 39.16C149.498 39.24 149.401 39.27 149.315 39.25C149.228 39.2233 149.161 39.17 149.115 39.09C149.075 39.01 149.058 38.9233 149.065 38.83C149.078 38.73 149.135 38.6433 149.235 38.57C149.495 38.3567 149.808 38.1867 150.175 38.06C150.541 37.9267 150.915 37.86 151.295 37.86C152.001 37.86 152.541 38.0267 152.915 38.36C153.295 38.6867 153.485 39.1533 153.485 39.76C153.485 40.18 153.381 40.5933 153.175 41C152.975 41.4 152.658 41.8267 152.225 42.28L150.325 44.3H153.465C153.718 44.3 153.845 44.4133 153.845 44.64C153.845 44.88 153.718 45 153.465 45H149.675ZM157.381 45.09C156.574 45.09 155.961 44.78 155.541 44.16C155.121 43.54 154.911 42.6433 154.911 41.47C154.911 40.29 155.121 39.3933 155.541 38.78C155.961 38.1667 156.574 37.86 157.381 37.86C158.194 37.86 158.808 38.1667 159.221 38.78C159.641 39.3867 159.851 40.28 159.851 41.46C159.851 42.64 159.638 43.54 159.211 44.16C158.791 44.78 158.181 45.09 157.381 45.09ZM157.381 44.38C157.941 44.38 158.354 44.1433 158.621 43.67C158.894 43.19 159.031 42.4533 159.031 41.46C159.031 40.46 158.898 39.73 158.631 39.27C158.364 38.8033 157.948 38.57 157.381 38.57C156.821 38.57 156.404 38.8033 156.131 39.27C155.864 39.7367 155.731 40.4667 155.731 41.46C155.731 42.4533 155.864 43.19 156.131 43.67C156.404 44.1433 156.821 44.38 157.381 44.38ZM161.927 45C161.674 45 161.547 44.88 161.547 44.64C161.547 44.4133 161.674 44.3 161.927 44.3H163.227V38.91L162.207 39.59C162.1 39.6567 162 39.6767 161.907 39.65C161.82 39.6167 161.754 39.56 161.707 39.48C161.66 39.4 161.644 39.3133 161.657 39.22C161.677 39.1267 161.74 39.0433 161.847 38.97L163.227 38.06C163.314 38.0067 163.397 37.9633 163.477 37.93C163.557 37.8967 163.637 37.88 163.717 37.88C163.81 37.88 163.887 37.91 163.947 37.97C164.014 38.0233 164.047 38.11 164.047 38.23V44.3H165.247C165.5 44.3 165.627 44.4133 165.627 44.64C165.627 44.88 165.5 45 165.247 45H161.927ZM169.613 45.09C168.78 45.09 168.136 44.79 167.683 44.19C167.236 43.5833 167.013 42.7367 167.013 41.65C167.013 40.43 167.263 39.4933 167.763 38.84C168.263 38.1867 168.963 37.86 169.863 37.86C170.17 37.86 170.483 37.92 170.803 38.04C171.13 38.16 171.416 38.33 171.663 38.55C171.75 38.6233 171.796 38.7067 171.803 38.8C171.816 38.8933 171.8 38.98 171.753 39.06C171.706 39.14 171.64 39.1933 171.553 39.22C171.473 39.24 171.38 39.21 171.273 39.13C171.046 38.9367 170.813 38.8 170.573 38.72C170.333 38.6333 170.09 38.59 169.843 38.59C169.19 38.59 168.686 38.8333 168.333 39.32C167.986 39.8067 167.813 40.53 167.813 41.49V41.98C167.94 41.54 168.173 41.1967 168.513 40.95C168.86 40.7033 169.266 40.58 169.733 40.58C170.146 40.58 170.513 40.6767 170.833 40.87C171.153 41.0567 171.403 41.3167 171.583 41.65C171.763 41.9833 171.853 42.3667 171.853 42.8C171.853 43.2467 171.756 43.6433 171.563 43.99C171.376 44.33 171.113 44.6 170.773 44.8C170.44 44.9933 170.053 45.09 169.613 45.09ZM169.563 44.39C170.01 44.39 170.37 44.2467 170.643 43.96C170.923 43.6733 171.063 43.2967 171.063 42.83C171.063 42.37 170.923 41.9967 170.643 41.71C170.37 41.4167 170.01 41.27 169.563 41.27C169.116 41.27 168.753 41.4167 168.473 41.71C168.2 41.9967 168.063 42.37 168.063 42.83C168.063 43.2967 168.2 43.6733 168.473 43.96C168.753 44.2467 169.116 44.39 169.563 44.39ZM138.05 73.1C137.317 73.1 136.687 72.9533 136.16 72.66C135.64 72.36 135.24 71.94 134.96 71.4C134.68 70.8533 134.54 70.21 134.54 69.47C134.54 68.73 134.68 68.09 134.96 67.55C135.24 67.01 135.64 66.5933 136.16 66.3C136.687 66 137.317 65.85 138.05 65.85C138.417 65.85 138.777 65.8967 139.13 65.99C139.483 66.0833 139.793 66.2167 140.06 66.39C140.233 66.5033 140.337 66.64 140.37 66.8C140.403 66.9533 140.383 67.0967 140.31 67.23C140.237 67.3567 140.127 67.4433 139.98 67.49C139.833 67.53 139.67 67.49 139.49 67.37C139.283 67.2367 139.06 67.14 138.82 67.08C138.58 67.02 138.337 66.99 138.09 66.99C137.377 66.99 136.833 67.2067 136.46 67.64C136.087 68.0667 135.9 68.6767 135.9 69.47C135.9 70.2633 136.087 70.8767 136.46 71.31C136.833 71.7433 137.377 71.96 138.09 71.96C138.343 71.96 138.593 71.93 138.84 71.87C139.087 71.8033 139.32 71.7033 139.54 71.57C139.72 71.4567 139.88 71.42 140.02 71.46C140.16 71.5 140.263 71.5833 140.33 71.71C140.403 71.83 140.427 71.9633 140.4 72.11C140.373 72.2567 140.283 72.3867 140.13 72.5C139.863 72.6933 139.543 72.8433 139.17 72.95C138.803 73.05 138.43 73.1 138.05 73.1ZM142.067 67.11C141.834 67.11 141.65 67.0533 141.517 66.94C141.39 66.82 141.327 66.6567 141.327 66.45C141.327 66.2367 141.39 66.0733 141.517 65.96C141.65 65.8467 141.834 65.79 142.067 65.79C142.56 65.79 142.807 66.01 142.807 66.45C142.807 66.89 142.56 67.11 142.067 67.11ZM142.067 73.07C141.867 73.07 141.714 73.01 141.607 72.89C141.5 72.77 141.447 72.6033 141.447 72.39V68.72C141.447 68.2667 141.654 68.04 142.067 68.04C142.487 68.04 142.697 68.2667 142.697 68.72V72.39C142.697 72.6033 142.644 72.77 142.537 72.89C142.43 73.01 142.274 73.07 142.067 73.07ZM146.236 73.1C144.942 73.1 144.296 72.46 144.296 71.18V69.05H143.776C143.442 69.05 143.276 68.8933 143.276 68.58C143.276 68.2667 143.442 68.11 143.776 68.11H144.296V67.2C144.296 66.78 144.506 66.57 144.926 66.57C145.339 66.57 145.546 66.78 145.546 67.2V68.11H146.606C146.939 68.11 147.106 68.2667 147.106 68.58C147.106 68.8933 146.939 69.05 146.606 69.05H145.546V71.11C145.546 71.43 145.616 71.67 145.756 71.83C145.896 71.99 146.122 72.07 146.436 72.07C146.549 72.07 146.649 72.06 146.736 72.04C146.822 72.02 146.899 72.0067 146.966 72C147.046 71.9933 147.112 72.02 147.166 72.08C147.219 72.1333 147.246 72.2467 147.246 72.42C147.246 72.5533 147.222 72.6733 147.176 72.78C147.136 72.88 147.059 72.95 146.946 72.99C146.859 73.0167 146.746 73.04 146.606 73.06C146.466 73.0867 146.342 73.1 146.236 73.1ZM149.152 74.88C148.925 74.88 148.768 74.7967 148.682 74.63C148.595 74.4633 148.598 74.2733 148.692 74.06L149.262 72.8L147.552 68.86C147.458 68.64 147.458 68.4467 147.552 68.28C147.645 68.1133 147.828 68.03 148.102 68.03C148.255 68.03 148.378 68.0667 148.472 68.14C148.565 68.2067 148.648 68.3367 148.722 68.53L149.922 71.53L151.152 68.52C151.225 68.3333 151.312 68.2067 151.412 68.14C151.512 68.0667 151.645 68.03 151.812 68.03C152.025 68.03 152.175 68.1133 152.262 68.28C152.348 68.4467 152.345 68.6367 152.252 68.85L149.822 74.4C149.735 74.5867 149.642 74.7133 149.542 74.78C149.442 74.8467 149.312 74.88 149.152 74.88ZM135.32 87C135.02 87 134.87 86.85 134.87 86.55V80.4C134.87 80.1 135.02 79.95 135.32 79.95H137.25C138.39 79.95 139.27 80.2533 139.89 80.86C140.51 81.46 140.82 82.33 140.82 83.47C140.82 84.61 140.51 85.4833 139.89 86.09C139.27 86.6967 138.39 87 137.25 87H135.32ZM135.69 86.3H137.19C139.03 86.3 139.95 85.3567 139.95 83.47C139.95 81.59 139.03 80.65 137.19 80.65H135.69V86.3ZM144.372 87.09C143.605 87.09 142.999 86.8667 142.552 86.42C142.105 85.9667 141.882 85.3533 141.882 84.58C141.882 84.08 141.982 83.64 142.182 83.26C142.382 82.8733 142.655 82.5767 143.002 82.37C143.355 82.1567 143.762 82.05 144.222 82.05C144.882 82.05 145.399 82.2633 145.772 82.69C146.145 83.11 146.332 83.69 146.332 84.43C146.332 84.6367 146.215 84.74 145.982 84.74H142.672C142.699 85.2933 142.859 85.7167 143.152 86.01C143.445 86.2967 143.852 86.44 144.372 86.44C144.592 86.44 144.815 86.4133 145.042 86.36C145.269 86.3 145.489 86.1967 145.702 86.05C145.855 85.95 145.982 85.93 146.082 85.99C146.189 86.05 146.242 86.1433 146.242 86.27C146.249 86.39 146.182 86.4967 146.042 86.59C145.822 86.75 145.559 86.8733 145.252 86.96C144.952 87.0467 144.659 87.09 144.372 87.09ZM144.242 82.65C143.782 82.65 143.419 82.7933 143.152 83.08C142.885 83.3667 142.729 83.7433 142.682 84.21H145.632C145.612 83.7167 145.482 83.3333 145.242 83.06C145.009 82.7867 144.675 82.65 144.242 82.65ZM147.904 87.07C147.637 87.07 147.504 86.93 147.504 86.65V82.48C147.504 82.2067 147.634 82.07 147.894 82.07C148.161 82.07 148.294 82.2067 148.294 82.48V82.97C148.454 82.6633 148.681 82.4333 148.974 82.28C149.267 82.1267 149.597 82.05 149.964 82.05C151.117 82.05 151.694 82.69 151.694 83.97V86.65C151.694 86.93 151.561 87.07 151.294 87.07C151.021 87.07 150.884 86.93 150.884 86.65V84.02C150.884 83.5667 150.794 83.2367 150.614 83.03C150.441 82.8167 150.161 82.71 149.774 82.71C149.327 82.71 148.971 82.85 148.704 83.13C148.444 83.4033 148.314 83.77 148.314 84.23V86.65C148.314 86.93 148.177 87.07 147.904 87.07ZM153.588 88.87C153.321 88.87 153.188 88.7333 153.188 88.46V82.48C153.188 82.2067 153.318 82.07 153.578 82.07C153.851 82.07 153.988 82.2067 153.988 82.48V83C154.128 82.7067 154.344 82.4767 154.638 82.31C154.931 82.1367 155.268 82.05 155.648 82.05C156.081 82.05 156.458 82.1533 156.778 82.36C157.104 82.56 157.354 82.85 157.528 83.23C157.708 83.6033 157.798 84.05 157.798 84.57C157.798 85.0833 157.708 85.53 157.528 85.91C157.354 86.2833 157.104 86.5733 156.778 86.78C156.458 86.9867 156.081 87.09 155.648 87.09C155.274 87.09 154.941 87.0067 154.648 86.84C154.354 86.6733 154.138 86.4433 153.998 86.15V88.46C153.998 88.7333 153.861 88.87 153.588 88.87ZM155.478 86.44C155.931 86.44 156.294 86.28 156.568 85.96C156.841 85.6333 156.978 85.17 156.978 84.57C156.978 83.9633 156.841 83.5 156.568 83.18C156.294 82.86 155.931 82.7 155.478 82.7C155.024 82.7 154.661 82.86 154.388 83.18C154.114 83.5 153.978 83.9633 153.978 84.57C153.978 85.17 154.114 85.6333 154.388 85.96C154.661 86.28 155.024 86.44 155.478 86.44ZM160.548 87.09C160.214 87.09 159.914 87.0267 159.648 86.9C159.388 86.7667 159.181 86.5867 159.028 86.36C158.874 86.1333 158.798 85.88 158.798 85.6C158.798 85.2467 158.888 84.9667 159.068 84.76C159.254 84.5533 159.558 84.4067 159.978 84.32C160.404 84.2267 160.984 84.18 161.718 84.18H162.038V83.87C162.038 83.4567 161.951 83.16 161.778 82.98C161.611 82.7933 161.341 82.7 160.968 82.7C160.734 82.7 160.498 82.73 160.258 82.79C160.024 82.85 159.781 82.9467 159.528 83.08C159.414 83.14 159.318 83.1533 159.238 83.12C159.164 83.08 159.111 83.02 159.078 82.94C159.051 82.8533 159.051 82.7667 159.078 82.68C159.111 82.5867 159.178 82.5167 159.278 82.47C159.564 82.3233 159.851 82.2167 160.138 82.15C160.431 82.0833 160.708 82.05 160.968 82.05C161.594 82.05 162.058 82.2033 162.358 82.51C162.664 82.8167 162.818 83.2933 162.818 83.94V86.65C162.818 86.93 162.694 87.07 162.448 87.07C162.188 87.07 162.058 86.93 162.058 86.65V86.16C161.931 86.4467 161.734 86.6733 161.468 86.84C161.208 87.0067 160.901 87.09 160.548 87.09ZM160.678 86.48C161.078 86.48 161.404 86.3433 161.658 86.07C161.911 85.79 162.038 85.4367 162.038 85.01V84.71H161.728C161.188 84.71 160.761 84.7367 160.448 84.79C160.141 84.8367 159.924 84.9233 159.798 85.05C159.678 85.17 159.618 85.3367 159.618 85.55C159.618 85.8233 159.711 86.0467 159.898 86.22C160.091 86.3933 160.351 86.48 160.678 86.48ZM165.961 87.09C165.661 87.09 165.357 87.0533 165.051 86.98C164.751 86.9 164.471 86.7733 164.211 86.6C164.091 86.5267 164.031 86.4333 164.031 86.32C164.037 86.2 164.084 86.1067 164.171 86.04C164.257 85.9733 164.367 85.9733 164.501 86.04C164.761 86.2 165.011 86.3133 165.251 86.38C165.497 86.44 165.741 86.47 165.981 86.47C166.361 86.47 166.647 86.4 166.841 86.26C167.034 86.12 167.131 85.93 167.131 85.69C167.131 85.5033 167.067 85.3567 166.941 85.25C166.814 85.1367 166.614 85.05 166.341 84.99L165.431 84.79C164.604 84.61 164.191 84.1833 164.191 83.51C164.191 83.07 164.364 82.7167 164.711 82.45C165.064 82.1833 165.524 82.05 166.091 82.05C166.377 82.05 166.654 82.09 166.921 82.17C167.187 82.2433 167.427 82.3633 167.641 82.53C167.754 82.61 167.804 82.7067 167.791 82.82C167.777 82.9333 167.724 83.0233 167.631 83.09C167.544 83.15 167.437 83.14 167.311 83.06C167.111 82.9267 166.907 82.83 166.701 82.77C166.494 82.7033 166.291 82.67 166.091 82.67C165.717 82.67 165.434 82.7433 165.241 82.89C165.047 83.0367 164.951 83.23 164.951 83.47C164.951 83.8433 165.197 84.0833 165.691 84.19L166.601 84.38C167.027 84.4733 167.351 84.6233 167.571 84.83C167.791 85.03 167.901 85.3033 167.901 85.65C167.901 86.0967 167.724 86.45 167.371 86.71C167.017 86.9633 166.547 87.09 165.961 87.09ZM170.665 87.09C170.332 87.09 170.032 87.0267 169.765 86.9C169.505 86.7667 169.298 86.5867 169.145 86.36C168.992 86.1333 168.915 85.88 168.915 85.6C168.915 85.2467 169.005 84.9667 169.185 84.76C169.372 84.5533 169.675 84.4067 170.095 84.32C170.522 84.2267 171.102 84.18 171.835 84.18H172.155V83.87C172.155 83.4567 172.068 83.16 171.895 82.98C171.728 82.7933 171.458 82.7 171.085 82.7C170.852 82.7 170.615 82.73 170.375 82.79C170.142 82.85 169.898 82.9467 169.645 83.08C169.532 83.14 169.435 83.1533 169.355 83.12C169.282 83.08 169.228 83.02 169.195 82.94C169.168 82.8533 169.168 82.7667 169.195 82.68C169.228 82.5867 169.295 82.5167 169.395 82.47C169.682 82.3233 169.968 82.2167 170.255 82.15C170.548 82.0833 170.825 82.05 171.085 82.05C171.712 82.05 172.175 82.2033 172.475 82.51C172.782 82.8167 172.935 83.2933 172.935 83.94V86.65C172.935 86.93 172.812 87.07 172.565 87.07C172.305 87.07 172.175 86.93 172.175 86.65V86.16C172.048 86.4467 171.852 86.6733 171.585 86.84C171.325 87.0067 171.018 87.09 170.665 87.09ZM170.795 86.48C171.195 86.48 171.522 86.3433 171.775 86.07C172.028 85.79 172.155 85.4367 172.155 85.01V84.71H171.845C171.305 84.71 170.878 84.7367 170.565 84.79C170.258 84.8367 170.042 84.9233 169.915 85.05C169.795 85.17 169.735 85.3367 169.735 85.55C169.735 85.8233 169.828 86.0467 170.015 86.22C170.208 86.3933 170.468 86.48 170.795 86.48ZM174.848 87.07C174.574 87.07 174.438 86.93 174.438 86.65V82.48C174.438 82.2067 174.568 82.07 174.828 82.07C175.094 82.07 175.228 82.2067 175.228 82.48V83.01C175.361 82.7033 175.568 82.47 175.848 82.31C176.128 82.1433 176.461 82.0533 176.848 82.04C177.061 82.02 177.174 82.1267 177.188 82.36C177.208 82.5933 177.088 82.7233 176.828 82.75L176.668 82.77C176.208 82.81 175.858 82.9567 175.618 83.21C175.378 83.4567 175.258 83.7967 175.258 84.23V86.65C175.258 86.93 175.121 87.07 174.848 87.07ZM135.41 115.08C134.983 115.08 134.77 114.86 134.77 114.42V108.6C134.77 108.167 134.987 107.95 135.42 107.95H137.83C138.603 107.95 139.2 108.143 139.62 108.53C140.04 108.917 140.25 109.457 140.25 110.15C140.25 110.843 140.04 111.387 139.62 111.78C139.2 112.167 138.603 112.36 137.83 112.36H136.05V114.42C136.05 114.86 135.837 115.08 135.41 115.08ZM136.05 111.35H137.63C138.55 111.35 139.01 110.95 139.01 110.15C139.01 109.357 138.55 108.96 137.63 108.96H136.05V111.35ZM141.716 115.08C141.289 115.08 141.076 114.867 141.076 114.44V110.66C141.076 110.24 141.279 110.03 141.686 110.03C142.092 110.03 142.296 110.24 142.296 110.66V110.97C142.536 110.397 143.049 110.077 143.836 110.01C144.122 109.977 144.282 110.14 144.316 110.5C144.349 110.853 144.176 111.05 143.796 111.09L143.576 111.11C142.756 111.19 142.346 111.61 142.346 112.37V114.44C142.346 114.867 142.136 115.08 141.716 115.08ZM147.144 115.1C146.637 115.1 146.197 114.997 145.824 114.79C145.45 114.583 145.16 114.29 144.954 113.91C144.747 113.523 144.644 113.07 144.644 112.55C144.644 112.03 144.747 111.58 144.954 111.2C145.16 110.82 145.45 110.527 145.824 110.32C146.197 110.113 146.637 110.01 147.144 110.01C147.65 110.01 148.09 110.113 148.464 110.32C148.837 110.527 149.127 110.82 149.334 111.2C149.54 111.58 149.644 112.03 149.644 112.55C149.644 113.07 149.54 113.523 149.334 113.91C149.127 114.29 148.837 114.583 148.464 114.79C148.09 114.997 147.65 115.1 147.144 115.1ZM147.144 114.15C147.517 114.15 147.817 114.017 148.044 113.75C148.27 113.477 148.384 113.077 148.384 112.55C148.384 112.017 148.27 111.62 148.044 111.36C147.817 111.093 147.517 110.96 147.144 110.96C146.77 110.96 146.47 111.093 146.244 111.36C146.017 111.62 145.904 112.017 145.904 112.55C145.904 113.077 146.017 113.477 146.244 113.75C146.47 114.017 146.77 114.15 147.144 114.15ZM152.558 115.08C152.224 115.08 151.978 114.903 151.818 114.55L150.228 110.86C150.134 110.64 150.131 110.447 150.218 110.28C150.311 110.113 150.494 110.03 150.768 110.03C150.921 110.03 151.044 110.067 151.138 110.14C151.231 110.207 151.314 110.337 151.388 110.53L152.588 113.53L153.828 110.52C153.901 110.333 153.984 110.207 154.078 110.14C154.178 110.067 154.311 110.03 154.478 110.03C154.691 110.03 154.841 110.113 154.928 110.28C155.014 110.447 155.011 110.637 154.918 110.85L153.298 114.55C153.151 114.903 152.904 115.08 152.558 115.08ZM156.471 109.11C156.238 109.11 156.055 109.053 155.921 108.94C155.795 108.82 155.731 108.657 155.731 108.45C155.731 108.237 155.795 108.073 155.921 107.96C156.055 107.847 156.238 107.79 156.471 107.79C156.965 107.79 157.211 108.01 157.211 108.45C157.211 108.89 156.965 109.11 156.471 109.11ZM156.471 115.07C156.271 115.07 156.118 115.01 156.011 114.89C155.905 114.77 155.851 114.603 155.851 114.39V110.72C155.851 110.267 156.058 110.04 156.471 110.04C156.891 110.04 157.101 110.267 157.101 110.72V114.39C157.101 114.603 157.048 114.77 156.941 114.89C156.835 115.01 156.678 115.07 156.471 115.07ZM159.02 115.08C158.607 115.08 158.4 114.867 158.4 114.44V110.66C158.4 110.24 158.603 110.03 159.01 110.03C159.417 110.03 159.62 110.24 159.62 110.66V110.87C159.787 110.59 160.01 110.377 160.29 110.23C160.577 110.083 160.897 110.01 161.25 110.01C162.403 110.01 162.98 110.68 162.98 112.02V114.44C162.98 114.867 162.773 115.08 162.36 115.08C161.94 115.08 161.73 114.867 161.73 114.44V112.08C161.73 111.7 161.657 111.423 161.51 111.25C161.37 111.077 161.15 110.99 160.85 110.99C160.483 110.99 160.19 111.107 159.97 111.34C159.757 111.567 159.65 111.87 159.65 112.25V114.44C159.65 114.867 159.44 115.08 159.02 115.08ZM166.51 115.1C165.996 115.1 165.55 114.997 165.17 114.79C164.79 114.577 164.496 114.277 164.29 113.89C164.083 113.503 163.98 113.05 163.98 112.53C163.98 112.01 164.083 111.563 164.29 111.19C164.496 110.81 164.79 110.52 165.17 110.32C165.55 110.113 165.996 110.01 166.51 110.01C166.73 110.01 166.966 110.04 167.22 110.1C167.48 110.16 167.723 110.26 167.95 110.4C168.083 110.48 168.16 110.583 168.18 110.71C168.206 110.837 168.19 110.953 168.13 111.06C168.076 111.167 167.993 111.243 167.88 111.29C167.773 111.337 167.65 111.32 167.51 111.24C167.203 111.067 166.906 110.98 166.62 110.98C166.186 110.98 165.85 111.117 165.61 111.39C165.376 111.657 165.26 112.04 165.26 112.54C165.26 113.033 165.376 113.423 165.61 113.71C165.85 113.99 166.186 114.13 166.62 114.13C166.906 114.13 167.203 114.047 167.51 113.88C167.65 113.8 167.773 113.783 167.88 113.83C167.986 113.877 168.063 113.957 168.11 114.07C168.156 114.177 168.166 114.293 168.14 114.42C168.113 114.54 168.036 114.64 167.91 114.72C167.69 114.853 167.456 114.95 167.21 115.01C166.963 115.07 166.73 115.1 166.51 115.1ZM171.279 115.1C170.725 115.1 170.249 114.997 169.849 114.79C169.449 114.583 169.139 114.29 168.919 113.91C168.705 113.53 168.599 113.08 168.599 112.56C168.599 112.053 168.702 111.61 168.909 111.23C169.122 110.85 169.412 110.553 169.779 110.34C170.152 110.12 170.575 110.01 171.049 110.01C171.742 110.01 172.289 110.23 172.689 110.67C173.095 111.11 173.299 111.71 173.299 112.47C173.299 112.717 173.139 112.84 172.819 112.84H169.799C169.892 113.713 170.392 114.15 171.299 114.15C171.472 114.15 171.665 114.13 171.879 114.09C172.099 114.043 172.305 113.967 172.499 113.86C172.672 113.76 172.819 113.73 172.939 113.77C173.059 113.803 173.142 113.873 173.189 113.98C173.242 114.087 173.249 114.207 173.209 114.34C173.175 114.467 173.082 114.577 172.929 114.67C172.695 114.817 172.425 114.927 172.119 115C171.819 115.067 171.539 115.1 171.279 115.1ZM171.099 110.86C170.732 110.86 170.435 110.973 170.209 111.2C169.982 111.427 169.845 111.733 169.799 112.12H172.259C172.232 111.713 172.119 111.403 171.919 111.19C171.725 110.97 171.452 110.86 171.099 110.86ZM134.28 129.06C134.153 129.067 134.057 129.033 133.99 128.96C133.917 128.887 133.88 128.797 133.88 128.69C133.88 128.61 133.907 128.54 133.96 128.48C134.007 128.413 134.083 128.373 134.19 128.36L134.5 128.34C134.84 128.313 135.1 128.197 135.28 127.99C135.46 127.777 135.55 127.487 135.55 127.12V122.3C135.55 122.02 135.687 121.88 135.96 121.88C136.233 121.88 136.37 122.02 136.37 122.3V127.13C136.37 127.71 136.22 128.163 135.92 128.49C135.62 128.81 135.183 128.99 134.61 129.03L134.28 129.06ZM139.532 129.09C139.199 129.09 138.899 129.027 138.632 128.9C138.372 128.767 138.166 128.587 138.012 128.36C137.859 128.133 137.782 127.88 137.782 127.6C137.782 127.247 137.872 126.967 138.052 126.76C138.239 126.553 138.542 126.407 138.962 126.32C139.389 126.227 139.969 126.18 140.702 126.18H141.022V125.87C141.022 125.457 140.936 125.16 140.762 124.98C140.596 124.793 140.326 124.7 139.952 124.7C139.719 124.7 139.482 124.73 139.242 124.79C139.009 124.85 138.766 124.947 138.512 125.08C138.399 125.14 138.302 125.153 138.222 125.12C138.149 125.08 138.096 125.02 138.062 124.94C138.036 124.853 138.036 124.767 138.062 124.68C138.096 124.587 138.162 124.517 138.262 124.47C138.549 124.323 138.836 124.217 139.122 124.15C139.416 124.083 139.692 124.05 139.952 124.05C140.579 124.05 141.042 124.203 141.342 124.51C141.649 124.817 141.802 125.293 141.802 125.94V128.65C141.802 128.93 141.679 129.07 141.432 129.07C141.172 129.07 141.042 128.93 141.042 128.65V128.16C140.916 128.447 140.719 128.673 140.452 128.84C140.192 129.007 139.886 129.09 139.532 129.09ZM139.662 128.48C140.062 128.48 140.389 128.343 140.642 128.07C140.896 127.79 141.022 127.437 141.022 127.01V126.71H140.712C140.172 126.71 139.746 126.737 139.432 126.79C139.126 126.837 138.909 126.923 138.782 127.05C138.662 127.17 138.602 127.337 138.602 127.55C138.602 127.823 138.696 128.047 138.882 128.22C139.076 128.393 139.336 128.48 139.662 128.48ZM143.705 129.07C143.438 129.07 143.305 128.93 143.305 128.65V122.29C143.305 122.017 143.438 121.88 143.705 121.88C143.978 121.88 144.115 122.017 144.115 122.29V126.3H144.135L146.185 124.34C146.272 124.253 146.352 124.187 146.425 124.14C146.498 124.093 146.595 124.07 146.715 124.07C146.875 124.07 146.978 124.133 147.025 124.26C147.078 124.38 147.045 124.503 146.925 124.63L144.975 126.48L147.115 128.49C147.255 128.623 147.292 128.753 147.225 128.88C147.165 129.007 147.062 129.07 146.915 129.07C146.795 129.07 146.695 129.047 146.615 129C146.542 128.947 146.455 128.87 146.355 128.77L144.135 126.72H144.115V128.65C144.115 128.93 143.978 129.07 143.705 129.07ZM149.786 129.09C149.453 129.09 149.153 129.027 148.886 128.9C148.626 128.767 148.419 128.587 148.266 128.36C148.113 128.133 148.036 127.88 148.036 127.6C148.036 127.247 148.126 126.967 148.306 126.76C148.493 126.553 148.796 126.407 149.216 126.32C149.643 126.227 150.223 126.18 150.956 126.18H151.276V125.87C151.276 125.457 151.189 125.16 151.016 124.98C150.849 124.793 150.579 124.7 150.206 124.7C149.973 124.7 149.736 124.73 149.496 124.79C149.263 124.85 149.019 124.947 148.766 125.08C148.653 125.14 148.556 125.153 148.476 125.12C148.403 125.08 148.349 125.02 148.316 124.94C148.289 124.853 148.289 124.767 148.316 124.68C148.349 124.587 148.416 124.517 148.516 124.47C148.803 124.323 149.089 124.217 149.376 124.15C149.669 124.083 149.946 124.05 150.206 124.05C150.833 124.05 151.296 124.203 151.596 124.51C151.903 124.817 152.056 125.293 152.056 125.94V128.65C152.056 128.93 151.933 129.07 151.686 129.07C151.426 129.07 151.296 128.93 151.296 128.65V128.16C151.169 128.447 150.973 128.673 150.706 128.84C150.446 129.007 150.139 129.09 149.786 129.09ZM149.916 128.48C150.316 128.48 150.643 128.343 150.896 128.07C151.149 127.79 151.276 127.437 151.276 127.01V126.71H150.966C150.426 126.71 149.999 126.737 149.686 126.79C149.379 126.837 149.163 126.923 149.036 127.05C148.916 127.17 148.856 127.337 148.856 127.55C148.856 127.823 148.949 128.047 149.136 128.22C149.329 128.393 149.589 128.48 149.916 128.48ZM153.969 129.07C153.695 129.07 153.559 128.93 153.559 128.65V124.48C153.559 124.207 153.689 124.07 153.949 124.07C154.215 124.07 154.349 124.207 154.349 124.48V125.01C154.482 124.703 154.689 124.47 154.969 124.31C155.249 124.143 155.582 124.053 155.969 124.04C156.182 124.02 156.295 124.127 156.309 124.36C156.329 124.593 156.209 124.723 155.949 124.75L155.789 124.77C155.329 124.81 154.979 124.957 154.739 125.21C154.499 125.457 154.379 125.797 154.379 126.23V128.65C154.379 128.93 154.242 129.07 153.969 129.07ZM159.356 129.09C158.783 129.09 158.353 128.94 158.066 128.64C157.78 128.333 157.636 127.893 157.636 127.32V124.77H156.966C156.733 124.77 156.616 124.663 156.616 124.45C156.616 124.243 156.733 124.14 156.966 124.14H157.636V122.99C157.636 122.717 157.773 122.58 158.046 122.58C158.313 122.58 158.446 122.717 158.446 122.99V124.14H159.706C159.94 124.14 160.056 124.243 160.056 124.45C160.056 124.663 159.94 124.77 159.706 124.77H158.446V127.24C158.446 127.62 158.526 127.91 158.686 128.11C158.846 128.303 159.106 128.4 159.466 128.4C159.593 128.4 159.7 128.387 159.786 128.36C159.873 128.333 159.95 128.32 160.016 128.32C160.076 128.313 160.126 128.333 160.166 128.38C160.206 128.427 160.226 128.507 160.226 128.62C160.226 128.7 160.21 128.773 160.176 128.84C160.15 128.907 160.1 128.953 160.026 128.98C159.946 129.007 159.84 129.03 159.706 129.05C159.58 129.077 159.463 129.09 159.356 129.09ZM162.433 129.09C162.099 129.09 161.799 129.027 161.533 128.9C161.273 128.767 161.066 128.587 160.913 128.36C160.759 128.133 160.683 127.88 160.683 127.6C160.683 127.247 160.773 126.967 160.953 126.76C161.139 126.553 161.443 126.407 161.863 126.32C162.289 126.227 162.869 126.18 163.603 126.18H163.923V125.87C163.923 125.457 163.836 125.16 163.663 124.98C163.496 124.793 163.226 124.7 162.853 124.7C162.619 124.7 162.383 124.73 162.143 124.79C161.909 124.85 161.666 124.947 161.413 125.08C161.299 125.14 161.203 125.153 161.123 125.12C161.049 125.08 160.996 125.02 160.963 124.94C160.936 124.853 160.936 124.767 160.963 124.68C160.996 124.587 161.063 124.517 161.163 124.47C161.449 124.323 161.736 124.217 162.023 124.15C162.316 124.083 162.593 124.05 162.853 124.05C163.479 124.05 163.943 124.203 164.243 124.51C164.549 124.817 164.703 125.293 164.703 125.94V128.65C164.703 128.93 164.579 129.07 164.333 129.07C164.073 129.07 163.943 128.93 163.943 128.65V128.16C163.816 128.447 163.619 128.673 163.353 128.84C163.093 129.007 162.786 129.09 162.433 129.09ZM162.563 128.48C162.963 128.48 163.289 128.343 163.543 128.07C163.796 127.79 163.923 127.437 163.923 127.01V126.71H163.613C163.073 126.71 162.646 126.737 162.333 126.79C162.026 126.837 161.809 126.923 161.683 127.05C161.563 127.17 161.503 127.337 161.503 127.55C161.503 127.823 161.596 128.047 161.783 128.22C161.976 128.393 162.236 128.48 162.563 128.48Z" fill="#231F21"/>
<path d="M228.16 31.1C227.38 31.1 226.72 30.9533 226.18 30.66C225.647 30.3667 225.24 29.95 224.96 29.41C224.68 28.87 224.54 28.23 224.54 27.49C224.54 26.7433 224.683 26.1 224.97 25.56C225.257 25.0133 225.67 24.5933 226.21 24.3C226.75 24 227.397 23.85 228.15 23.85C228.523 23.85 228.897 23.8967 229.27 23.99C229.65 24.0767 230.007 24.2267 230.34 24.44C230.487 24.5267 230.57 24.6433 230.59 24.79C230.617 24.93 230.597 25.0633 230.53 25.19C230.463 25.3167 230.363 25.4067 230.23 25.46C230.097 25.5067 229.95 25.4833 229.79 25.39C229.537 25.2433 229.28 25.1367 229.02 25.07C228.76 25.0033 228.47 24.97 228.15 24.97C227.403 24.97 226.837 25.1867 226.45 25.62C226.07 26.0533 225.88 26.6767 225.88 27.49C225.88 28.31 226.077 28.9333 226.47 29.36C226.863 29.7867 227.447 30 228.22 30C228.44 30 228.663 29.9833 228.89 29.95C229.123 29.91 229.353 29.8533 229.58 29.78V28.14H228.48C228.133 28.14 227.96 27.98 227.96 27.66C227.96 27.3467 228.133 27.19 228.48 27.19H230.13C230.477 27.19 230.65 27.3633 230.65 27.71V30.14C230.65 30.4467 230.53 30.6433 230.29 30.73C229.997 30.8367 229.66 30.9267 229.28 31C228.9 31.0667 228.527 31.1 228.16 31.1ZM232.653 31.08C232.227 31.08 232.013 30.8667 232.013 30.44V26.66C232.013 26.24 232.217 26.03 232.623 26.03C233.03 26.03 233.233 26.24 233.233 26.66V26.97C233.473 26.3967 233.987 26.0767 234.773 26.01C235.06 25.9767 235.22 26.14 235.253 26.5C235.287 26.8533 235.113 27.05 234.733 27.09L234.513 27.11C233.693 27.19 233.283 27.61 233.283 28.37V30.44C233.283 30.8667 233.073 31.08 232.653 31.08ZM237.49 31.1C237.137 31.1 236.82 31.0333 236.54 30.9C236.267 30.76 236.05 30.5733 235.89 30.34C235.737 30.1067 235.66 29.8433 235.66 29.55C235.66 29.19 235.754 28.9067 235.94 28.7C236.127 28.4867 236.43 28.3333 236.85 28.24C237.27 28.1467 237.834 28.1 238.54 28.1H238.89V27.89C238.89 27.5567 238.817 27.3167 238.67 27.17C238.524 27.0233 238.277 26.95 237.93 26.95C237.737 26.95 237.527 26.9733 237.3 27.02C237.08 27.0667 236.847 27.1467 236.6 27.26C236.44 27.3333 236.307 27.3433 236.2 27.29C236.094 27.23 236.02 27.14 235.98 27.02C235.947 26.8933 235.954 26.7667 236 26.64C236.054 26.5133 236.157 26.42 236.31 26.36C236.617 26.2333 236.91 26.1433 237.19 26.09C237.477 26.0367 237.737 26.01 237.97 26.01C238.684 26.01 239.214 26.1767 239.56 26.51C239.907 26.8367 240.08 27.3467 240.08 28.04V30.44C240.08 30.8667 239.887 31.08 239.5 31.08C239.107 31.08 238.91 30.8667 238.91 30.44V30.22C238.797 30.4933 238.617 30.71 238.37 30.87C238.124 31.0233 237.83 31.1 237.49 31.1ZM237.75 30.24C238.077 30.24 238.347 30.1267 238.56 29.9C238.78 29.6733 238.89 29.3867 238.89 29.04V28.82H238.55C237.924 28.82 237.487 28.87 237.24 28.97C237 29.0633 236.88 29.2367 236.88 29.49C236.88 29.71 236.957 29.89 237.11 30.03C237.264 30.17 237.477 30.24 237.75 30.24ZM243.229 31.1C242.803 31.1 242.426 30.9967 242.099 30.79C241.779 30.5833 241.529 30.29 241.349 29.91C241.169 29.5233 241.079 29.07 241.079 28.55C241.079 28.0233 241.169 27.5733 241.349 27.2C241.529 26.82 241.779 26.5267 242.099 26.32C242.426 26.1133 242.803 26.01 243.229 26.01C243.576 26.01 243.889 26.0867 244.169 26.24C244.449 26.3933 244.659 26.5967 244.799 26.85V24.5C244.799 24.08 245.006 23.87 245.419 23.87C245.839 23.87 246.049 24.08 246.049 24.5V30.44C246.049 30.8667 245.843 31.08 245.429 31.08C245.016 31.08 244.809 30.8667 244.809 30.44V30.23C244.669 30.4967 244.459 30.71 244.179 30.87C243.899 31.0233 243.583 31.1 243.229 31.1ZM243.579 30.15C243.953 30.15 244.253 30.0167 244.479 29.75C244.706 29.4767 244.819 29.0767 244.819 28.55C244.819 28.0167 244.706 27.62 244.479 27.36C244.253 27.0933 243.953 26.96 243.579 26.96C243.206 26.96 242.906 27.0933 242.679 27.36C242.453 27.62 242.339 28.0167 242.339 28.55C242.339 29.0767 242.453 29.4767 242.679 29.75C242.906 30.0167 243.206 30.15 243.579 30.15ZM249.115 31.1C247.915 31.1 247.315 30.4267 247.315 29.08V26.66C247.315 26.24 247.522 26.03 247.935 26.03C248.355 26.03 248.565 26.24 248.565 26.66V29.1C248.565 29.4467 248.635 29.7033 248.775 29.87C248.915 30.0367 249.139 30.12 249.445 30.12C249.779 30.12 250.052 30.0067 250.265 29.78C250.479 29.5467 250.585 29.24 250.585 28.86V26.66C250.585 26.24 250.792 26.03 251.205 26.03C251.625 26.03 251.835 26.24 251.835 26.66V30.44C251.835 30.8667 251.632 31.08 251.225 31.08C250.819 31.08 250.615 30.8667 250.615 30.44V30.27C250.289 30.8233 249.789 31.1 249.115 31.1ZM254.746 31.1C254.393 31.1 254.076 31.0333 253.796 30.9C253.523 30.76 253.306 30.5733 253.146 30.34C252.993 30.1067 252.916 29.8433 252.916 29.55C252.916 29.19 253.01 28.9067 253.196 28.7C253.383 28.4867 253.686 28.3333 254.106 28.24C254.526 28.1467 255.09 28.1 255.796 28.1H256.146V27.89C256.146 27.5567 256.073 27.3167 255.926 27.17C255.78 27.0233 255.533 26.95 255.186 26.95C254.993 26.95 254.783 26.9733 254.556 27.02C254.336 27.0667 254.103 27.1467 253.856 27.26C253.696 27.3333 253.563 27.3433 253.456 27.29C253.35 27.23 253.276 27.14 253.236 27.02C253.203 26.8933 253.21 26.7667 253.256 26.64C253.31 26.5133 253.413 26.42 253.566 26.36C253.873 26.2333 254.166 26.1433 254.446 26.09C254.733 26.0367 254.993 26.01 255.226 26.01C255.94 26.01 256.47 26.1767 256.816 26.51C257.163 26.8367 257.336 27.3467 257.336 28.04V30.44C257.336 30.8667 257.143 31.08 256.756 31.08C256.363 31.08 256.166 30.8667 256.166 30.44V30.22C256.053 30.4933 255.873 30.71 255.626 30.87C255.38 31.0233 255.086 31.1 254.746 31.1ZM255.006 30.24C255.333 30.24 255.603 30.1267 255.816 29.9C256.036 29.6733 256.146 29.3867 256.146 29.04V28.82H255.806C255.18 28.82 254.743 28.87 254.496 28.97C254.256 29.0633 254.136 29.2367 254.136 29.49C254.136 29.71 254.213 29.89 254.366 30.03C254.52 30.17 254.733 30.24 255.006 30.24ZM260.845 31.1C259.552 31.1 258.905 30.46 258.905 29.18V27.05H258.385C258.052 27.05 257.885 26.8933 257.885 26.58C257.885 26.2667 258.052 26.11 258.385 26.11H258.905V25.2C258.905 24.78 259.115 24.57 259.535 24.57C259.948 24.57 260.155 24.78 260.155 25.2V26.11H261.215C261.548 26.11 261.715 26.2667 261.715 26.58C261.715 26.8933 261.548 27.05 261.215 27.05H260.155V29.11C260.155 29.43 260.225 29.67 260.365 29.83C260.505 29.99 260.732 30.07 261.045 30.07C261.158 30.07 261.258 30.06 261.345 30.04C261.432 30.02 261.508 30.0067 261.575 30C261.655 29.9933 261.722 30.02 261.775 30.08C261.828 30.1333 261.855 30.2467 261.855 30.42C261.855 30.5533 261.832 30.6733 261.785 30.78C261.745 30.88 261.668 30.95 261.555 30.99C261.468 31.0167 261.355 31.04 261.215 31.06C261.075 31.0867 260.952 31.1 260.845 31.1ZM264.804 31.1C264.251 31.1 263.774 30.9967 263.374 30.79C262.974 30.5833 262.664 30.29 262.444 29.91C262.231 29.53 262.124 29.08 262.124 28.56C262.124 28.0533 262.227 27.61 262.434 27.23C262.647 26.85 262.937 26.5533 263.304 26.34C263.677 26.12 264.101 26.01 264.574 26.01C265.267 26.01 265.814 26.23 266.214 26.67C266.621 27.11 266.824 27.71 266.824 28.47C266.824 28.7167 266.664 28.84 266.344 28.84H263.324C263.417 29.7133 263.917 30.15 264.824 30.15C264.997 30.15 265.191 30.13 265.404 30.09C265.624 30.0433 265.831 29.9667 266.024 29.86C266.197 29.76 266.344 29.73 266.464 29.77C266.584 29.8033 266.667 29.8733 266.714 29.98C266.767 30.0867 266.774 30.2067 266.734 30.34C266.701 30.4667 266.607 30.5767 266.454 30.67C266.221 30.8167 265.951 30.9267 265.644 31C265.344 31.0667 265.064 31.1 264.804 31.1ZM264.624 26.86C264.257 26.86 263.961 26.9733 263.734 27.2C263.507 27.4267 263.371 27.7333 263.324 28.12H265.784C265.757 27.7133 265.644 27.4033 265.444 27.19C265.251 26.97 264.977 26.86 264.624 26.86ZM269.694 31.1C269.267 31.1 268.891 30.9967 268.564 30.79C268.244 30.5833 267.994 30.29 267.814 29.91C267.634 29.5233 267.544 29.07 267.544 28.55C267.544 28.0233 267.634 27.5733 267.814 27.2C267.994 26.82 268.244 26.5267 268.564 26.32C268.891 26.1133 269.267 26.01 269.694 26.01C270.041 26.01 270.354 26.0867 270.634 26.24C270.914 26.3933 271.124 26.5967 271.264 26.85V24.5C271.264 24.08 271.471 23.87 271.884 23.87C272.304 23.87 272.514 24.08 272.514 24.5V30.44C272.514 30.8667 272.307 31.08 271.894 31.08C271.481 31.08 271.274 30.8667 271.274 30.44V30.23C271.134 30.4967 270.924 30.71 270.644 30.87C270.364 31.0233 270.047 31.1 269.694 31.1ZM270.044 30.15C270.417 30.15 270.717 30.0167 270.944 29.75C271.171 29.4767 271.284 29.0767 271.284 28.55C271.284 28.0167 271.171 27.62 270.944 27.36C270.717 27.0933 270.417 26.96 270.044 26.96C269.671 26.96 269.371 27.0933 269.144 27.36C268.917 27.62 268.804 28.0167 268.804 28.55C268.804 29.0767 268.917 29.4767 269.144 29.75C269.371 30.0167 269.671 30.15 270.044 30.15ZM224.28 45.06C224.153 45.0667 224.057 45.0333 223.99 44.96C223.917 44.8867 223.88 44.7967 223.88 44.69C223.88 44.61 223.907 44.54 223.96 44.48C224.007 44.4133 224.083 44.3733 224.19 44.36L224.5 44.34C224.84 44.3133 225.1 44.1967 225.28 43.99C225.46 43.7767 225.55 43.4867 225.55 43.12V38.3C225.55 38.02 225.687 37.88 225.96 37.88C226.233 37.88 226.37 38.02 226.37 38.3V43.13C226.37 43.71 226.22 44.1633 225.92 44.49C225.62 44.81 225.183 44.99 224.61 45.03L224.28 45.06ZM229.722 45.09C228.556 45.09 227.972 44.4467 227.972 43.16V40.48C227.972 40.2067 228.106 40.07 228.372 40.07C228.646 40.07 228.782 40.2067 228.782 40.48V43.15C228.782 43.5833 228.869 43.9033 229.042 44.11C229.222 44.3167 229.502 44.42 229.882 44.42C230.296 44.42 230.632 44.2833 230.892 44.01C231.152 43.73 231.282 43.36 231.282 42.9V40.48C231.282 40.2067 231.419 40.07 231.692 40.07C231.959 40.07 232.092 40.2067 232.092 40.48V44.65C232.092 44.93 231.962 45.07 231.702 45.07C231.436 45.07 231.302 44.93 231.302 44.65V44.18C231.149 44.4733 230.932 44.7 230.652 44.86C230.379 45.0133 230.069 45.09 229.722 45.09ZM235.088 45.09C234.608 45.09 234.241 44.9467 233.988 44.66C233.734 44.3667 233.608 43.9433 233.608 43.39V38.29C233.608 38.0167 233.741 37.88 234.008 37.88C234.281 37.88 234.418 38.0167 234.418 38.29V43.33C234.418 44.0433 234.701 44.4 235.268 44.4C235.328 44.4 235.381 44.3967 235.428 44.39C235.474 44.3833 235.521 44.38 235.568 44.38C235.641 44.3733 235.691 44.39 235.718 44.43C235.751 44.47 235.768 44.55 235.768 44.67C235.768 44.8967 235.654 45.0267 235.428 45.06C235.374 45.0733 235.318 45.08 235.258 45.08C235.198 45.0867 235.141 45.09 235.088 45.09ZM239.675 45C239.521 45 239.411 44.9667 239.345 44.9C239.278 44.8267 239.245 44.73 239.245 44.61C239.245 44.47 239.315 44.3267 239.455 44.18L241.695 41.78C242.035 41.4133 242.278 41.0767 242.425 40.77C242.578 40.4567 242.655 40.14 242.655 39.82C242.655 39 242.178 38.59 241.225 38.59C240.631 38.59 240.091 38.78 239.605 39.16C239.498 39.24 239.401 39.27 239.315 39.25C239.228 39.2233 239.161 39.17 239.115 39.09C239.075 39.01 239.058 38.9233 239.065 38.83C239.078 38.73 239.135 38.6433 239.235 38.57C239.495 38.3567 239.808 38.1867 240.175 38.06C240.541 37.9267 240.915 37.86 241.295 37.86C242.001 37.86 242.541 38.0267 242.915 38.36C243.295 38.6867 243.485 39.1533 243.485 39.76C243.485 40.18 243.381 40.5933 243.175 41C242.975 41.4 242.658 41.8267 242.225 42.28L240.325 44.3H243.465C243.718 44.3 243.845 44.4133 243.845 44.64C243.845 44.88 243.718 45 243.465 45H239.675ZM247.381 45.09C246.574 45.09 245.961 44.78 245.541 44.16C245.121 43.54 244.911 42.6433 244.911 41.47C244.911 40.29 245.121 39.3933 245.541 38.78C245.961 38.1667 246.574 37.86 247.381 37.86C248.194 37.86 248.808 38.1667 249.221 38.78C249.641 39.3867 249.851 40.28 249.851 41.46C249.851 42.64 249.638 43.54 249.211 44.16C248.791 44.78 248.181 45.09 247.381 45.09ZM247.381 44.38C247.941 44.38 248.354 44.1433 248.621 43.67C248.894 43.19 249.031 42.4533 249.031 41.46C249.031 40.46 248.898 39.73 248.631 39.27C248.364 38.8033 247.948 38.57 247.381 38.57C246.821 38.57 246.404 38.8033 246.131 39.27C245.864 39.7367 245.731 40.4667 245.731 41.46C245.731 42.4533 245.864 43.19 246.131 43.67C246.404 44.1433 246.821 44.38 247.381 44.38ZM251.667 45C251.514 45 251.404 44.9667 251.337 44.9C251.27 44.8267 251.237 44.73 251.237 44.61C251.237 44.47 251.307 44.3267 251.447 44.18L253.687 41.78C254.027 41.4133 254.27 41.0767 254.417 40.77C254.57 40.4567 254.647 40.14 254.647 39.82C254.647 39 254.17 38.59 253.217 38.59C252.624 38.59 252.084 38.78 251.597 39.16C251.49 39.24 251.394 39.27 251.307 39.25C251.22 39.2233 251.154 39.17 251.107 39.09C251.067 39.01 251.05 38.9233 251.057 38.83C251.07 38.73 251.127 38.6433 251.227 38.57C251.487 38.3567 251.8 38.1867 252.167 38.06C252.534 37.9267 252.907 37.86 253.287 37.86C253.994 37.86 254.534 38.0267 254.907 38.36C255.287 38.6867 255.477 39.1533 255.477 39.76C255.477 40.18 255.374 40.5933 255.167 41C254.967 41.4 254.65 41.8267 254.217 42.28L252.317 44.3H255.457C255.71 44.3 255.837 44.4133 255.837 44.64C255.837 44.88 255.71 45 255.457 45H251.667ZM259.373 45.09C258.566 45.09 257.953 44.78 257.533 44.16C257.113 43.54 256.903 42.6433 256.903 41.47C256.903 40.29 257.113 39.3933 257.533 38.78C257.953 38.1667 258.566 37.86 259.373 37.86C260.186 37.86 260.8 38.1667 261.213 38.78C261.633 39.3867 261.843 40.28 261.843 41.46C261.843 42.64 261.63 43.54 261.203 44.16C260.783 44.78 260.173 45.09 259.373 45.09ZM259.373 44.38C259.933 44.38 260.346 44.1433 260.613 43.67C260.886 43.19 261.023 42.4533 261.023 41.46C261.023 40.46 260.89 39.73 260.623 39.27C260.356 38.8033 259.94 38.57 259.373 38.57C258.813 38.57 258.396 38.8033 258.123 39.27C257.856 39.7367 257.723 40.4667 257.723 41.46C257.723 42.4533 257.856 43.19 258.123 43.67C258.396 44.1433 258.813 44.38 259.373 44.38ZM228.16 73.1C227.38 73.1 226.72 72.9533 226.18 72.66C225.647 72.3667 225.24 71.95 224.96 71.41C224.68 70.87 224.54 70.23 224.54 69.49C224.54 68.7433 224.683 68.1 224.97 67.56C225.257 67.0133 225.67 66.5933 226.21 66.3C226.75 66 227.397 65.85 228.15 65.85C228.523 65.85 228.897 65.8967 229.27 65.99C229.65 66.0767 230.007 66.2267 230.34 66.44C230.487 66.5267 230.57 66.6433 230.59 66.79C230.617 66.93 230.597 67.0633 230.53 67.19C230.463 67.3167 230.363 67.4067 230.23 67.46C230.097 67.5067 229.95 67.4833 229.79 67.39C229.537 67.2433 229.28 67.1367 229.02 67.07C228.76 67.0033 228.47 66.97 228.15 66.97C227.403 66.97 226.837 67.1867 226.45 67.62C226.07 68.0533 225.88 68.6767 225.88 69.49C225.88 70.31 226.077 70.9333 226.47 71.36C226.863 71.7867 227.447 72 228.22 72C228.44 72 228.663 71.9833 228.89 71.95C229.123 71.91 229.353 71.8533 229.58 71.78V70.14H228.48C228.133 70.14 227.96 69.98 227.96 69.66C227.96 69.3467 228.133 69.19 228.48 69.19H230.13C230.477 69.19 230.65 69.3633 230.65 69.71V72.14C230.65 72.4467 230.53 72.6433 230.29 72.73C229.997 72.8367 229.66 72.9267 229.28 73C228.9 73.0667 228.527 73.1 228.16 73.1ZM232.773 73.08C232.347 73.08 232.133 72.86 232.133 72.42V66.6C232.133 66.1667 232.35 65.95 232.783 65.95H235.193C235.967 65.95 236.563 66.1433 236.983 66.53C237.403 66.9167 237.613 67.4567 237.613 68.15C237.613 68.8433 237.403 69.3867 236.983 69.78C236.563 70.1667 235.967 70.36 235.193 70.36H233.413V72.42C233.413 72.86 233.2 73.08 232.773 73.08ZM233.413 69.35H234.993C235.913 69.35 236.373 68.95 236.373 68.15C236.373 67.3567 235.913 66.96 234.993 66.96H233.413V69.35ZM237.994 73.08C237.761 73.08 237.594 73 237.494 72.84C237.394 72.68 237.398 72.4867 237.504 72.26L240.144 66.41C240.231 66.2167 240.334 66.08 240.454 66C240.581 65.9133 240.724 65.87 240.884 65.87C241.038 65.87 241.174 65.9133 241.294 66C241.421 66.08 241.528 66.2167 241.614 66.41L244.264 72.26C244.371 72.4933 244.378 72.69 244.284 72.85C244.191 73.0033 244.031 73.08 243.804 73.08C243.618 73.08 243.471 73.0367 243.364 72.95C243.264 72.8567 243.174 72.7167 243.094 72.53L242.594 71.37H239.154L238.664 72.53C238.578 72.7233 238.488 72.8633 238.394 72.95C238.301 73.0367 238.168 73.08 237.994 73.08ZM240.864 67.34L239.594 70.35H242.154L240.884 67.34H240.864ZM226.92 87.09C226.527 87.09 226.137 87.0333 225.75 86.92C225.363 86.8067 225.027 86.64 224.74 86.42C224.633 86.34 224.57 86.2533 224.55 86.16C224.537 86.06 224.55 85.97 224.59 85.89C224.637 85.81 224.707 85.76 224.8 85.74C224.893 85.7133 224.997 85.7367 225.11 85.81C225.403 86.0033 225.697 86.1433 225.99 86.23C226.283 86.3167 226.587 86.36 226.9 86.36C227.407 86.36 227.793 86.25 228.06 86.03C228.333 85.8033 228.47 85.4733 228.47 85.04C228.47 84.6267 228.333 84.3133 228.06 84.1C227.787 83.8867 227.39 83.78 226.87 83.78H226.16C225.9 83.78 225.77 83.66 225.77 83.42C225.77 83.1867 225.9 83.07 226.16 83.07H226.8C227.253 83.07 227.61 82.9533 227.87 82.72C228.137 82.48 228.27 82.1533 228.27 81.74C228.27 81.3733 228.147 81.09 227.9 80.89C227.66 80.69 227.317 80.59 226.87 80.59C226.563 80.59 226.277 80.6333 226.01 80.72C225.75 80.8067 225.49 80.9533 225.23 81.16C225.13 81.2333 225.033 81.26 224.94 81.24C224.853 81.22 224.783 81.1733 224.73 81.1C224.683 81.02 224.667 80.93 224.68 80.83C224.7 80.73 224.763 80.64 224.87 80.56C225.13 80.34 225.44 80.17 225.8 80.05C226.16 79.9233 226.533 79.86 226.92 79.86C227.6 79.86 228.13 80.02 228.51 80.34C228.897 80.66 229.09 81.1033 229.09 81.67C229.09 82.0633 228.99 82.41 228.79 82.71C228.59 83.0033 228.313 83.2167 227.96 83.35C228.38 83.4633 228.707 83.6733 228.94 83.98C229.173 84.28 229.29 84.6533 229.29 85.1C229.29 85.7067 229.077 86.19 228.65 86.55C228.23 86.91 227.653 87.09 226.92 87.09ZM231.146 87.04C230.979 87.04 230.846 86.99 230.746 86.89C230.646 86.7833 230.596 86.65 230.596 86.49C230.596 86.33 230.646 86.2 230.746 86.1C230.846 85.9933 230.979 85.94 231.146 85.94C231.313 85.94 231.443 85.9933 231.536 86.1C231.636 86.2 231.686 86.33 231.686 86.49C231.686 86.65 231.636 86.7833 231.536 86.89C231.443 86.99 231.313 87.04 231.146 87.04ZM235.421 87.09C235.035 87.09 234.651 87.0333 234.271 86.92C233.898 86.8067 233.561 86.63 233.261 86.39C233.161 86.3233 233.101 86.2433 233.081 86.15C233.068 86.05 233.085 85.96 233.131 85.88C233.178 85.8 233.245 85.7467 233.331 85.72C233.425 85.6933 233.528 85.7167 233.641 85.79C234.168 86.17 234.758 86.36 235.411 86.36C235.898 86.36 236.281 86.2233 236.561 85.95C236.841 85.6767 236.981 85.3167 236.981 84.87C236.981 84.41 236.848 84.0333 236.581 83.74C236.315 83.4467 235.948 83.3 235.481 83.3C235.195 83.3 234.928 83.3533 234.681 83.46C234.441 83.5667 234.225 83.7367 234.031 83.97C233.985 84.0233 233.928 84.07 233.861 84.11C233.801 84.1433 233.731 84.16 233.651 84.16C233.411 84.16 233.291 84.0433 233.291 83.81V80.33C233.291 80.0767 233.418 79.95 233.671 79.95H237.071C237.325 79.95 237.451 80.0667 237.451 80.3C237.451 80.5333 237.325 80.65 237.071 80.65H234.101V83.17C234.488 82.7833 234.998 82.59 235.631 82.59C236.071 82.59 236.455 82.6833 236.781 82.87C237.108 83.0567 237.358 83.32 237.531 83.66C237.711 83.9933 237.801 84.3833 237.801 84.83C237.801 85.27 237.705 85.66 237.511 86C237.318 86.34 237.041 86.6067 236.681 86.8C236.328 86.9933 235.908 87.09 235.421 87.09Z" fill="#231F21"/>
</svg>
