<svg width="306" height="155" viewBox="0 0 306 155" fill="none" xmlns="http://www.w3.org/2000/svg">
<path d="M0 5C0 2.23858 2.23858 0 5 0H301C303.761 0 306 2.23858 306 5V150C306 152.761 303.761 155 301 155H5.00001C2.23859 155 0 152.761 0 150V5Z" fill="#F2F2F2"/>
<path d="M26.37 30.08C25.97 30.08 25.77 29.8733 25.77 29.46V23.51C25.77 23.3033 25.82 23.1467 25.92 23.04C26.0267 22.9267 26.1633 22.87 26.33 22.87C26.4833 22.87 26.5967 22.9 26.67 22.96C26.75 23.0133 26.8433 23.1067 26.95 23.24L30.52 27.87V23.48C30.52 23.0733 30.72 22.87 31.12 22.87C31.5133 22.87 31.71 23.0733 31.71 23.48V29.48C31.71 29.6667 31.6633 29.8133 31.57 29.92C31.4767 30.0267 31.35 30.08 31.19 30.08C31.0367 30.08 30.9133 30.05 30.82 29.99C30.7333 29.93 30.6367 29.8333 30.53 29.7L26.96 25.06V29.46C26.96 29.8733 26.7633 30.08 26.37 30.08ZM34.7405 30.1C34.3871 30.1 34.0705 30.0333 33.7905 29.9C33.5171 29.76 33.3005 29.5733 33.1405 29.34C32.9871 29.1067 32.9105 28.8433 32.9105 28.55C32.9105 28.19 33.0038 27.9067 33.1905 27.7C33.3771 27.4867 33.6805 27.3333 34.1005 27.24C34.5205 27.1467 35.0838 27.1 35.7905 27.1H36.1405V26.89C36.1405 26.5567 36.0671 26.3167 35.9205 26.17C35.7738 26.0233 35.5271 25.95 35.1805 25.95C34.9871 25.95 34.7771 25.9733 34.5505 26.02C34.3305 26.0667 34.0971 26.1467 33.8505 26.26C33.6905 26.3333 33.5571 26.3433 33.4505 26.29C33.3438 26.23 33.2705 26.14 33.2305 26.02C33.1971 25.8933 33.2038 25.7667 33.2505 25.64C33.3038 25.5133 33.4071 25.42 33.5605 25.36C33.8671 25.2333 34.1605 25.1433 34.4405 25.09C34.7271 25.0367 34.9871 25.01 35.2205 25.01C35.9338 25.01 36.4638 25.1767 36.8105 25.51C37.1571 25.8367 37.3305 26.3467 37.3305 27.04V29.44C37.3305 29.8667 37.1371 30.08 36.7505 30.08C36.3571 30.08 36.1605 29.8667 36.1605 29.44V29.22C36.0471 29.4933 35.8671 29.71 35.6205 29.87C35.3738 30.0233 35.0805 30.1 34.7405 30.1ZM35.0005 29.24C35.3271 29.24 35.5971 29.1267 35.8105 28.9C36.0305 28.6733 36.1405 28.3867 36.1405 28.04V27.82H35.8005C35.1738 27.82 34.7371 27.87 34.4905 27.97C34.2505 28.0633 34.1305 28.2367 34.1305 28.49C34.1305 28.71 34.2071 28.89 34.3605 29.03C34.5138 29.17 34.7271 29.24 35.0005 29.24ZM39.2392 30.08C38.8259 30.08 38.6192 29.8667 38.6192 29.44V25.66C38.6192 25.24 38.8226 25.03 39.2292 25.03C39.6359 25.03 39.8392 25.24 39.8392 25.66V25.86C39.9859 25.5933 40.1892 25.3867 40.4492 25.24C40.7092 25.0867 41.0092 25.01 41.3492 25.01C42.0826 25.01 42.5626 25.33 42.7892 25.97C42.9426 25.67 43.1626 25.4367 43.4492 25.27C43.7359 25.0967 44.0626 25.01 44.4292 25.01C45.5292 25.01 46.0792 25.68 46.0792 27.02V29.44C46.0792 29.8667 45.8692 30.08 45.4492 30.08C45.0359 30.08 44.8292 29.8667 44.8292 29.44V27.07C44.8292 26.6967 44.7659 26.4233 44.6392 26.25C44.5192 26.0767 44.3126 25.99 44.0192 25.99C43.6926 25.99 43.4359 26.1067 43.2492 26.34C43.0626 26.5667 42.9692 26.8833 42.9692 27.29V29.44C42.9692 29.8667 42.7626 30.08 42.3492 30.08C41.9292 30.08 41.7192 29.8667 41.7192 29.44V27.07C41.7192 26.6967 41.6559 26.4233 41.5292 26.25C41.4092 26.0767 41.2059 25.99 40.9192 25.99C40.5926 25.99 40.3359 26.1067 40.1492 26.34C39.9626 26.5667 39.8692 26.8833 39.8692 27.29V29.44C39.8692 29.8667 39.6592 30.08 39.2392 30.08ZM49.7788 30.1C49.2254 30.1 48.7488 29.9967 48.3488 29.79C47.9488 29.5833 47.6388 29.29 47.4188 28.91C47.2054 28.53 47.0988 28.08 47.0988 27.56C47.0988 27.0533 47.2021 26.61 47.4088 26.23C47.6221 25.85 47.9121 25.5533 48.2788 25.34C48.6521 25.12 49.0754 25.01 49.5488 25.01C50.2421 25.01 50.7888 25.23 51.1888 25.67C51.5954 26.11 51.7988 26.71 51.7988 27.47C51.7988 27.7167 51.6388 27.84 51.3188 27.84H48.2988C48.3921 28.7133 48.8921 29.15 49.7988 29.15C49.9721 29.15 50.1654 29.13 50.3788 29.09C50.5988 29.0433 50.8054 28.9667 50.9988 28.86C51.1721 28.76 51.3188 28.73 51.4388 28.77C51.5588 28.8033 51.6421 28.8733 51.6888 28.98C51.7421 29.0867 51.7488 29.2067 51.7088 29.34C51.6754 29.4667 51.5821 29.5767 51.4288 29.67C51.1954 29.8167 50.9254 29.9267 50.6188 30C50.3188 30.0667 50.0388 30.1 49.7788 30.1ZM49.5988 25.86C49.2321 25.86 48.9354 25.9733 48.7088 26.2C48.4821 26.4267 48.3454 26.7333 48.2988 27.12H50.7588C50.7321 26.7133 50.6188 26.4033 50.4188 26.19C50.2254 25.97 49.9521 25.86 49.5988 25.86ZM26.32 44C26.02 44 25.87 43.85 25.87 43.55V37.4C25.87 37.1 26.02 36.95 26.32 36.95H28.69C29.4167 36.95 29.9767 37.1133 30.37 37.44C30.77 37.76 30.97 38.21 30.97 38.79C30.97 39.1767 30.87 39.5067 30.67 39.78C30.47 40.0533 30.1933 40.2533 29.84 40.38C30.2467 40.4867 30.5633 40.6833 30.79 40.97C31.0233 41.2567 31.14 41.62 31.14 42.06C31.14 42.6867 30.9367 43.1667 30.53 43.5C30.1233 43.8333 29.55 44 28.81 44H26.32ZM26.67 40.1H28.57C29.63 40.1 30.16 39.6867 30.16 38.86C30.16 38.0267 29.63 37.61 28.57 37.61H26.67V40.1ZM26.67 43.34H28.73C29.7967 43.34 30.33 42.91 30.33 42.05C30.33 41.19 29.7967 40.76 28.73 40.76H26.67V43.34ZM34.5378 44.09C34.0645 44.09 33.6545 43.9867 33.3078 43.78C32.9611 43.5733 32.6911 43.2833 32.4978 42.91C32.3111 42.53 32.2178 42.0833 32.2178 41.57C32.2178 41.0567 32.3111 40.6133 32.4978 40.24C32.6911 39.86 32.9611 39.5667 33.3078 39.36C33.6545 39.1533 34.0645 39.05 34.5378 39.05C35.0045 39.05 35.4111 39.1533 35.7578 39.36C36.1111 39.5667 36.3811 39.86 36.5678 40.24C36.7611 40.6133 36.8578 41.0567 36.8578 41.57C36.8578 42.0833 36.7611 42.53 36.5678 42.91C36.3811 43.2833 36.1111 43.5733 35.7578 43.78C35.4111 43.9867 35.0045 44.09 34.5378 44.09ZM34.5378 43.44C34.9911 43.44 35.3545 43.28 35.6278 42.96C35.9011 42.6333 36.0378 42.17 36.0378 41.57C36.0378 40.9633 35.9011 40.5 35.6278 40.18C35.3545 39.86 34.9911 39.7 34.5378 39.7C34.0778 39.7 33.7111 39.86 33.4378 40.18C33.1711 40.5 33.0378 40.9633 33.0378 41.57C33.0378 42.17 33.1711 42.6333 33.4378 42.96C33.7111 43.28 34.0778 43.44 34.5378 43.44ZM39.6861 44.07C39.4394 44.07 39.2694 43.9433 39.1761 43.69L37.6861 39.64C37.6194 39.4667 37.6194 39.33 37.6861 39.23C37.7594 39.1233 37.8728 39.07 38.0261 39.07C38.1261 39.07 38.2061 39.0933 38.2661 39.14C38.3328 39.1867 38.3861 39.2733 38.4261 39.4L39.7061 43.05L41.0261 39.4C41.1061 39.18 41.2561 39.07 41.4761 39.07C41.6894 39.07 41.8361 39.18 41.9161 39.4L43.2161 43.06L44.5161 39.38C44.5628 39.26 44.6161 39.18 44.6761 39.14C44.7428 39.0933 44.8261 39.07 44.9261 39.07C45.0861 39.07 45.1894 39.13 45.2361 39.25C45.2828 39.3633 45.2761 39.4933 45.2161 39.64L43.7261 43.69C43.6261 43.9433 43.4561 44.07 43.2161 44.07C42.9694 44.07 42.8028 43.9433 42.7161 43.69L41.4561 40.23L40.1961 43.69C40.1028 43.9433 39.9328 44.07 39.6861 44.07ZM48.3659 44.09C47.8926 44.09 47.4826 43.9867 47.1359 43.78C46.7893 43.5733 46.5193 43.2833 46.3259 42.91C46.1393 42.53 46.0459 42.0833 46.0459 41.57C46.0459 41.0567 46.1393 40.6133 46.3259 40.24C46.5193 39.86 46.7893 39.5667 47.1359 39.36C47.4826 39.1533 47.8926 39.05 48.3659 39.05C48.8326 39.05 49.2393 39.1533 49.5859 39.36C49.9393 39.5667 50.2093 39.86 50.3959 40.24C50.5893 40.6133 50.6859 41.0567 50.6859 41.57C50.6859 42.0833 50.5893 42.53 50.3959 42.91C50.2093 43.2833 49.9393 43.5733 49.5859 43.78C49.2393 43.9867 48.8326 44.09 48.3659 44.09ZM48.3659 43.44C48.8193 43.44 49.1826 43.28 49.4559 42.96C49.7293 42.6333 49.8659 42.17 49.8659 41.57C49.8659 40.9633 49.7293 40.5 49.4559 40.18C49.1826 39.86 48.8193 39.7 48.3659 39.7C47.9059 39.7 47.5393 39.86 47.2659 40.18C46.9993 40.5 46.8659 40.9633 46.8659 41.57C46.8659 42.17 46.9993 42.6333 47.2659 42.96C47.5393 43.28 47.9059 43.44 48.3659 43.44ZM26.41 72.08C25.9833 72.08 25.77 71.86 25.77 71.42V65.6C25.77 65.1667 25.9867 64.95 26.42 64.95H28.83C29.6033 64.95 30.2 65.1367 30.62 65.51C31.04 65.8767 31.25 66.3933 31.25 67.06C31.25 67.5867 31.1133 68.0233 30.84 68.37C30.5667 68.71 30.1733 68.94 29.66 69.06C30 69.1667 30.28 69.4233 30.5 69.83L31.25 71.22C31.3633 71.4333 31.3833 71.63 31.31 71.81C31.2433 71.99 31.0733 72.08 30.8 72.08C30.62 72.08 30.4733 72.0433 30.36 71.97C30.2467 71.89 30.1467 71.77 30.06 71.61L29.05 69.75C28.93 69.5233 28.7867 69.3733 28.62 69.3C28.46 69.22 28.2533 69.18 28 69.18H27.05V71.42C27.05 71.86 26.8367 72.08 26.41 72.08ZM27.05 68.23H28.61C29.5433 68.23 30.01 67.85 30.01 67.09C30.01 66.3367 29.5433 65.96 28.61 65.96H27.05V68.23ZM34.7885 72.1C34.2352 72.1 33.7585 71.9967 33.3585 71.79C32.9585 71.5833 32.6485 71.29 32.4285 70.91C32.2152 70.53 32.1085 70.08 32.1085 69.56C32.1085 69.0533 32.2118 68.61 32.4185 68.23C32.6318 67.85 32.9218 67.5533 33.2885 67.34C33.6618 67.12 34.0852 67.01 34.5585 67.01C35.2518 67.01 35.7985 67.23 36.1985 67.67C36.6052 68.11 36.8085 68.71 36.8085 69.47C36.8085 69.7167 36.6485 69.84 36.3285 69.84H33.3085C33.4018 70.7133 33.9018 71.15 34.8085 71.15C34.9818 71.15 35.1752 71.13 35.3885 71.09C35.6085 71.0433 35.8152 70.9667 36.0085 70.86C36.1818 70.76 36.3285 70.73 36.4485 70.77C36.5685 70.8033 36.6518 70.8733 36.6985 70.98C36.7518 71.0867 36.7585 71.2067 36.7185 71.34C36.6852 71.4667 36.5918 71.5767 36.4385 71.67C36.2052 71.8167 35.9352 71.9267 35.6285 72C35.3285 72.0667 35.0485 72.1 34.7885 72.1ZM34.6085 67.86C34.2418 67.86 33.9452 67.9733 33.7185 68.2C33.4918 68.4267 33.3552 68.7333 33.3085 69.12H35.7685C35.7418 68.7133 35.6285 68.4033 35.4285 68.19C35.2352 67.97 34.9618 67.86 34.6085 67.86ZM39.4684 72.1C38.3551 72.1 37.7984 71.4767 37.7984 70.23V65.5C37.7984 65.08 38.0051 64.87 38.4184 64.87C38.8384 64.87 39.0484 65.08 39.0484 65.5V70.17C39.0484 70.77 39.2984 71.07 39.7984 71.07C39.8518 71.07 39.9018 71.07 39.9484 71.07C39.9951 71.0633 40.0418 71.0567 40.0884 71.05C40.1818 71.0367 40.2451 71.0633 40.2784 71.13C40.3118 71.19 40.3284 71.3167 40.3284 71.51C40.3284 71.6767 40.2951 71.8067 40.2284 71.9C40.1618 71.9933 40.0518 72.05 39.8984 72.07C39.7584 72.09 39.6151 72.1 39.4684 72.1ZM42.6018 72.1C42.2485 72.1 41.9318 72.0333 41.6518 71.9C41.3785 71.76 41.1618 71.5733 41.0018 71.34C40.8485 71.1067 40.7718 70.8433 40.7718 70.55C40.7718 70.19 40.8651 69.9067 41.0518 69.7C41.2385 69.4867 41.5418 69.3333 41.9618 69.24C42.3818 69.1467 42.9451 69.1 43.6518 69.1H44.0018V68.89C44.0018 68.5567 43.9285 68.3167 43.7818 68.17C43.6351 68.0233 43.3885 67.95 43.0418 67.95C42.8485 67.95 42.6385 67.9733 42.4118 68.02C42.1918 68.0667 41.9585 68.1467 41.7118 68.26C41.5518 68.3333 41.4185 68.3433 41.3118 68.29C41.2051 68.23 41.1318 68.14 41.0918 68.02C41.0585 67.8933 41.0651 67.7667 41.1118 67.64C41.1651 67.5133 41.2685 67.42 41.4218 67.36C41.7285 67.2333 42.0218 67.1433 42.3018 67.09C42.5885 67.0367 42.8485 67.01 43.0818 67.01C43.7951 67.01 44.3251 67.1767 44.6718 67.51C45.0185 67.8367 45.1918 68.3467 45.1918 69.04V71.44C45.1918 71.8667 44.9985 72.08 44.6118 72.08C44.2185 72.08 44.0218 71.8667 44.0218 71.44V71.22C43.9085 71.4933 43.7285 71.71 43.4818 71.87C43.2351 72.0233 42.9418 72.1 42.6018 72.1ZM42.8618 71.24C43.1885 71.24 43.4585 71.1267 43.6718 70.9C43.8918 70.6733 44.0018 70.3867 44.0018 70.04V69.82H43.6618C43.0351 69.82 42.5985 69.87 42.3518 69.97C42.1118 70.0633 41.9918 70.2367 41.9918 70.49C41.9918 70.71 42.0685 70.89 42.2218 71.03C42.3751 71.17 42.5885 71.24 42.8618 71.24ZM48.7005 72.1C47.4072 72.1 46.7605 71.46 46.7605 70.18V68.05H46.2405C45.9072 68.05 45.7405 67.8933 45.7405 67.58C45.7405 67.2667 45.9072 67.11 46.2405 67.11H46.7605V66.2C46.7605 65.78 46.9705 65.57 47.3905 65.57C47.8039 65.57 48.0105 65.78 48.0105 66.2V67.11H49.0705C49.4039 67.11 49.5705 67.2667 49.5705 67.58C49.5705 67.8933 49.4039 68.05 49.0705 68.05H48.0105V70.11C48.0105 70.43 48.0805 70.67 48.2205 70.83C48.3605 70.99 48.5872 71.07 48.9005 71.07C49.0139 71.07 49.1139 71.06 49.2005 71.04C49.2872 71.02 49.3639 71.0067 49.4305 71C49.5105 70.9933 49.5772 71.02 49.6305 71.08C49.6839 71.1333 49.7105 71.2467 49.7105 71.42C49.7105 71.5533 49.6872 71.6733 49.6405 71.78C49.6005 71.88 49.5239 71.95 49.4105 71.99C49.3239 72.0167 49.2105 72.04 49.0705 72.06C48.9305 72.0867 48.8072 72.1 48.7005 72.1ZM51.0454 66.11C50.8121 66.11 50.6287 66.0533 50.4954 65.94C50.3687 65.82 50.3054 65.6567 50.3054 65.45C50.3054 65.2367 50.3687 65.0733 50.4954 64.96C50.6287 64.8467 50.8121 64.79 51.0454 64.79C51.5387 64.79 51.7854 65.01 51.7854 65.45C51.7854 65.89 51.5387 66.11 51.0454 66.11ZM51.0454 72.07C50.8454 72.07 50.6921 72.01 50.5854 71.89C50.4787 71.77 50.4254 71.6033 50.4254 71.39V67.72C50.4254 67.2667 50.6321 67.04 51.0454 67.04C51.4654 67.04 51.6754 67.2667 51.6754 67.72V71.39C51.6754 71.6033 51.6221 71.77 51.5154 71.89C51.4087 72.01 51.2521 72.07 51.0454 72.07ZM55.2042 72.1C54.6976 72.1 54.2576 71.9967 53.8842 71.79C53.5109 71.5833 53.2209 71.29 53.0142 70.91C52.8076 70.5233 52.7042 70.07 52.7042 69.55C52.7042 69.03 52.8076 68.58 53.0142 68.2C53.2209 67.82 53.5109 67.5267 53.8842 67.32C54.2576 67.1133 54.6976 67.01 55.2042 67.01C55.7109 67.01 56.1509 67.1133 56.5242 67.32C56.8976 67.5267 57.1876 67.82 57.3942 68.2C57.6009 68.58 57.7042 69.03 57.7042 69.55C57.7042 70.07 57.6009 70.5233 57.3942 70.91C57.1876 71.29 56.8976 71.5833 56.5242 71.79C56.1509 71.9967 55.7109 72.1 55.2042 72.1ZM55.2042 71.15C55.5776 71.15 55.8776 71.0167 56.1042 70.75C56.3309 70.4767 56.4442 70.0767 56.4442 69.55C56.4442 69.0167 56.3309 68.62 56.1042 68.36C55.8776 68.0933 55.5776 67.96 55.2042 67.96C54.8309 67.96 54.5309 68.0933 54.3042 68.36C54.0776 68.62 53.9642 69.0167 53.9642 69.55C53.9642 70.0767 54.0776 70.4767 54.3042 70.75C54.5309 71.0167 54.8309 71.15 55.2042 71.15ZM59.3559 72.08C58.9426 72.08 58.7359 71.8667 58.7359 71.44V67.66C58.7359 67.24 58.9393 67.03 59.3459 67.03C59.7526 67.03 59.9559 67.24 59.9559 67.66V67.87C60.1226 67.59 60.3459 67.3767 60.6259 67.23C60.9126 67.0833 61.2326 67.01 61.5859 67.01C62.7393 67.01 63.3159 67.68 63.3159 69.02V71.44C63.3159 71.8667 63.1093 72.08 62.6959 72.08C62.2759 72.08 62.0659 71.8667 62.0659 71.44V69.08C62.0659 68.7 61.9926 68.4233 61.8459 68.25C61.7059 68.0767 61.4859 67.99 61.1859 67.99C60.8193 67.99 60.5259 68.1067 60.3059 68.34C60.0926 68.5667 59.9859 68.87 59.9859 69.25V71.44C59.9859 71.8667 59.7759 72.08 59.3559 72.08ZM66.3755 72.1C66.0889 72.1 65.7855 72.07 65.4655 72.01C65.1455 71.95 64.8589 71.8467 64.6055 71.7C64.4655 71.62 64.3789 71.5233 64.3455 71.41C64.3122 71.29 64.3155 71.18 64.3555 71.08C64.4022 70.9733 64.4755 70.8967 64.5755 70.85C64.6822 70.8033 64.8055 70.8133 64.9455 70.88C65.2122 71.0067 65.4622 71.0967 65.6955 71.15C65.9289 71.1967 66.1589 71.22 66.3855 71.22C66.7055 71.22 66.9422 71.1667 67.0955 71.06C67.2555 70.9467 67.3355 70.8 67.3355 70.62C67.3355 70.34 67.1289 70.16 66.7155 70.08L65.7155 69.89C64.8689 69.73 64.4455 69.29 64.4455 68.57C64.4455 68.25 64.5322 67.9733 64.7055 67.74C64.8855 67.5067 65.1322 67.3267 65.4455 67.2C65.7589 67.0733 66.1189 67.01 66.5255 67.01C67.1122 67.01 67.6355 67.14 68.0955 67.4C68.2222 67.4667 68.2955 67.56 68.3155 67.68C68.3422 67.7933 68.3289 67.9033 68.2755 68.01C68.2289 68.11 68.1522 68.1833 68.0455 68.23C67.9389 68.27 67.8155 68.2567 67.6755 68.19C67.4689 68.0833 67.2689 68.0067 67.0755 67.96C66.8889 67.9133 66.7089 67.89 66.5355 67.89C66.2089 67.89 65.9655 67.9467 65.8055 68.06C65.6522 68.1733 65.5755 68.3233 65.5755 68.51C65.5755 68.8033 65.7655 68.9833 66.1455 69.05L67.1455 69.24C67.5789 69.32 67.9055 69.4667 68.1255 69.68C68.3522 69.8933 68.4655 70.18 68.4655 70.54C68.4655 71.0267 68.2755 71.41 67.8955 71.69C67.5155 71.9633 67.0089 72.1 66.3755 72.1ZM70.0884 72.08C69.675 72.08 69.4684 71.8667 69.4684 71.44V65.5C69.4684 65.08 69.675 64.87 70.0884 64.87C70.5084 64.87 70.7184 65.08 70.7184 65.5V67.82C70.885 67.5533 71.1084 67.3533 71.3884 67.22C71.6684 67.08 71.9784 67.01 72.3184 67.01C73.4717 67.01 74.0484 67.68 74.0484 69.02V71.44C74.0484 71.8667 73.8417 72.08 73.4284 72.08C73.0084 72.08 72.7984 71.8667 72.7984 71.44V69.08C72.7984 68.7 72.725 68.4233 72.5784 68.25C72.4384 68.0767 72.2184 67.99 71.9184 67.99C71.5517 67.99 71.2584 68.1067 71.0384 68.34C70.825 68.5667 70.7184 68.87 70.7184 69.25V71.44C70.7184 71.8667 70.5084 72.08 70.0884 72.08ZM75.938 66.11C75.7046 66.11 75.5213 66.0533 75.388 65.94C75.2613 65.82 75.198 65.6567 75.198 65.45C75.198 65.2367 75.2613 65.0733 75.388 64.96C75.5213 64.8467 75.7046 64.79 75.938 64.79C76.4313 64.79 76.678 65.01 76.678 65.45C76.678 65.89 76.4313 66.11 75.938 66.11ZM75.938 72.07C75.738 72.07 75.5846 72.01 75.478 71.89C75.3713 71.77 75.318 71.6033 75.318 71.39V67.72C75.318 67.2667 75.5246 67.04 75.938 67.04C76.358 67.04 76.568 67.2667 76.568 67.72V71.39C76.568 71.6033 76.5146 71.77 76.408 71.89C76.3013 72.01 76.1446 72.07 75.938 72.07ZM78.4868 73.88C78.0735 73.88 77.8668 73.67 77.8668 73.25V67.66C77.8668 67.24 78.0701 67.03 78.4768 67.03C78.8901 67.03 79.0968 67.24 79.0968 67.66V67.87C79.2368 67.61 79.4468 67.4033 79.7268 67.25C80.0068 67.09 80.3268 67.01 80.6868 67.01C81.1135 67.01 81.4868 67.1133 81.8068 67.32C82.1335 67.5267 82.3868 67.82 82.5668 68.2C82.7468 68.5733 82.8368 69.0233 82.8368 69.55C82.8368 70.07 82.7468 70.5233 82.5668 70.91C82.3868 71.29 82.1368 71.5833 81.8168 71.79C81.4968 71.9967 81.1201 72.1 80.6868 72.1C80.3401 72.1 80.0268 72.0267 79.7468 71.88C79.4735 71.7267 79.2635 71.5233 79.1168 71.27V73.25C79.1168 73.67 78.9068 73.88 78.4868 73.88ZM80.3368 71.15C80.7101 71.15 81.0101 71.0167 81.2368 70.75C81.4635 70.4767 81.5768 70.0767 81.5768 69.55C81.5768 69.0167 81.4635 68.62 81.2368 68.36C81.0101 68.0933 80.7101 67.96 80.3368 67.96C79.9635 67.96 79.6635 68.0933 79.4368 68.36C79.2101 68.62 79.0968 69.0167 79.0968 69.55C79.0968 70.0767 79.2101 70.4767 79.4368 70.75C79.6635 71.0167 79.9635 71.15 80.3368 71.15ZM28.92 86.09C28.2267 86.09 27.6333 85.9433 27.14 85.65C26.6467 85.3567 26.2667 84.94 26 84.4C25.74 83.86 25.61 83.2167 25.61 82.47C25.61 81.73 25.74 81.09 26 80.55C26.2667 80.01 26.6467 79.5933 27.14 79.3C27.6333 79.0067 28.2267 78.86 28.92 78.86C29.3333 78.86 29.7267 78.92 30.1 79.04C30.4733 79.16 30.7967 79.33 31.07 79.55C31.1833 79.63 31.2467 79.7233 31.26 79.83C31.28 79.9367 31.2633 80.0333 31.21 80.12C31.1567 80.2 31.08 80.2533 30.98 80.28C30.8867 80.3 30.78 80.2667 30.66 80.18C30.1867 79.8 29.6133 79.61 28.94 79.61C28.1467 79.61 27.54 79.86 27.12 80.36C26.7 80.86 26.49 81.5633 26.49 82.47C26.49 83.3833 26.7 84.09 27.12 84.59C27.54 85.09 28.1467 85.34 28.94 85.34C29.6133 85.34 30.1933 85.1467 30.68 84.76C30.8 84.68 30.9067 84.65 31 84.67C31.1 84.69 31.1733 84.74 31.22 84.82C31.2733 84.9 31.2933 84.99 31.28 85.09C31.2667 85.19 31.21 85.28 31.11 85.36C30.8233 85.6 30.4933 85.7833 30.12 85.91C29.7467 86.03 29.3467 86.09 28.92 86.09ZM32.8885 86.07C32.6218 86.07 32.4885 85.93 32.4885 85.65V79.29C32.4885 79.0167 32.6218 78.88 32.8885 78.88C33.1618 78.88 33.2985 79.0167 33.2985 79.29V81.94C33.4585 81.6467 33.6818 81.4267 33.9685 81.28C34.2618 81.1267 34.5885 81.05 34.9485 81.05C36.1018 81.05 36.6785 81.69 36.6785 82.97V85.65C36.6785 85.93 36.5452 86.07 36.2785 86.07C36.0052 86.07 35.8685 85.93 35.8685 85.65V83.02C35.8685 82.5667 35.7785 82.2367 35.5985 82.03C35.4252 81.8167 35.1452 81.71 34.7585 81.71C34.3118 81.71 33.9552 81.85 33.6885 82.13C33.4285 82.4033 33.2985 82.77 33.2985 83.23V85.65C33.2985 85.93 33.1618 86.07 32.8885 86.07ZM38.5721 79.97C38.2188 79.97 38.0421 79.8033 38.0421 79.47C38.0421 79.1433 38.2188 78.98 38.5721 78.98C38.9254 78.98 39.1021 79.1433 39.1021 79.47C39.1021 79.8033 38.9254 79.97 38.5721 79.97ZM38.5721 86.05C38.3054 86.05 38.1721 85.9033 38.1721 85.61V81.52C38.1721 81.2333 38.3054 81.09 38.5721 81.09C38.8454 81.09 38.9821 81.2333 38.9821 81.52V85.61C38.9821 85.9033 38.8454 86.05 38.5721 86.05ZM41.9763 86.09C41.4963 86.09 41.1297 85.9467 40.8763 85.66C40.623 85.3667 40.4963 84.9433 40.4963 84.39V79.29C40.4963 79.0167 40.6297 78.88 40.8963 78.88C41.1697 78.88 41.3063 79.0167 41.3063 79.29V84.33C41.3063 85.0433 41.5897 85.4 42.1563 85.4C42.2163 85.4 42.2697 85.3967 42.3163 85.39C42.363 85.3833 42.4097 85.38 42.4563 85.38C42.5297 85.3733 42.5797 85.39 42.6063 85.43C42.6397 85.47 42.6563 85.55 42.6563 85.67C42.6563 85.8967 42.543 86.0267 42.3163 86.06C42.263 86.0733 42.2063 86.08 42.1463 86.08C42.0863 86.0867 42.0297 86.09 41.9763 86.09ZM45.2565 86.09C44.8232 86.09 44.4432 85.9867 44.1165 85.78C43.7965 85.5733 43.5465 85.2833 43.3665 84.91C43.1932 84.53 43.1065 84.0833 43.1065 83.57C43.1065 83.05 43.1932 82.6033 43.3665 82.23C43.5465 81.85 43.7965 81.56 44.1165 81.36C44.4432 81.1533 44.8232 81.05 45.2565 81.05C45.6365 81.05 45.9698 81.1333 46.2565 81.3C46.5498 81.4667 46.7665 81.6967 46.9065 81.99V79.29C46.9065 79.0167 47.0432 78.88 47.3165 78.88C47.5832 78.88 47.7165 79.0167 47.7165 79.29V85.65C47.7165 85.93 47.5832 86.07 47.3165 86.07C47.0498 86.07 46.9165 85.93 46.9165 85.65V85.13C46.7698 85.43 46.5498 85.6667 46.2565 85.84C45.9698 86.0067 45.6365 86.09 45.2565 86.09ZM45.4265 85.44C45.8798 85.44 46.2432 85.28 46.5165 84.96C46.7898 84.6333 46.9265 84.17 46.9265 83.57C46.9265 82.9633 46.7898 82.5 46.5165 82.18C46.2432 81.86 45.8798 81.7 45.4265 81.7C44.9665 81.7 44.5998 81.86 44.3265 82.18C44.0598 82.5 43.9265 82.9633 43.9265 83.57C43.9265 84.17 44.0598 84.6333 44.3265 84.96C44.5998 85.28 44.9665 85.44 45.4265 85.44ZM26.41 114.08C25.9833 114.08 25.77 113.86 25.77 113.42V107.6C25.77 107.167 25.9867 106.95 26.42 106.95H28.83C29.6033 106.95 30.2 107.143 30.62 107.53C31.04 107.917 31.25 108.457 31.25 109.15C31.25 109.843 31.04 110.387 30.62 110.78C30.2 111.167 29.6033 111.36 28.83 111.36H27.05V113.42C27.05 113.86 26.8367 114.08 26.41 114.08ZM27.05 110.35H28.63C29.55 110.35 30.01 109.95 30.01 109.15C30.01 108.357 29.55 107.96 28.63 107.96H27.05V110.35ZM33.8434 114.1C32.7301 114.1 32.1734 113.477 32.1734 112.23V107.5C32.1734 107.08 32.3801 106.87 32.7934 106.87C33.2134 106.87 33.4234 107.08 33.4234 107.5V112.17C33.4234 112.77 33.6734 113.07 34.1734 113.07C34.2268 113.07 34.2768 113.07 34.3234 113.07C34.3701 113.063 34.4168 113.057 34.4634 113.05C34.5568 113.037 34.6201 113.063 34.6534 113.13C34.6868 113.19 34.7034 113.317 34.7034 113.51C34.7034 113.677 34.6701 113.807 34.6034 113.9C34.5368 113.993 34.4268 114.05 34.2734 114.07C34.1334 114.09 33.9901 114.1 33.8434 114.1ZM36.9768 114.1C36.6235 114.1 36.3068 114.033 36.0268 113.9C35.7535 113.76 35.5368 113.573 35.3768 113.34C35.2235 113.107 35.1468 112.843 35.1468 112.55C35.1468 112.19 35.2401 111.907 35.4268 111.7C35.6135 111.487 35.9168 111.333 36.3368 111.24C36.7568 111.147 37.3201 111.1 38.0268 111.1H38.3768V110.89C38.3768 110.557 38.3035 110.317 38.1568 110.17C38.0101 110.023 37.7635 109.95 37.4168 109.95C37.2235 109.95 37.0135 109.973 36.7868 110.02C36.5668 110.067 36.3335 110.147 36.0868 110.26C35.9268 110.333 35.7935 110.343 35.6868 110.29C35.5801 110.23 35.5068 110.14 35.4668 110.02C35.4335 109.893 35.4401 109.767 35.4868 109.64C35.5401 109.513 35.6435 109.42 35.7968 109.36C36.1035 109.233 36.3968 109.143 36.6768 109.09C36.9635 109.037 37.2235 109.01 37.4568 109.01C38.1701 109.01 38.7001 109.177 39.0468 109.51C39.3935 109.837 39.5668 110.347 39.5668 111.04V113.44C39.5668 113.867 39.3735 114.08 38.9868 114.08C38.5935 114.08 38.3968 113.867 38.3968 113.44V113.22C38.2835 113.493 38.1035 113.71 37.8568 113.87C37.6101 114.023 37.3168 114.1 36.9768 114.1ZM37.2368 113.24C37.5635 113.24 37.8335 113.127 38.0468 112.9C38.2668 112.673 38.3768 112.387 38.3768 112.04V111.82H38.0368C37.4101 111.82 36.9735 111.87 36.7268 111.97C36.4868 112.063 36.3668 112.237 36.3668 112.49C36.3668 112.71 36.4435 112.89 36.5968 113.03C36.7501 113.17 36.9635 113.24 37.2368 113.24ZM43.0955 114.1C42.5822 114.1 42.1355 113.997 41.7555 113.79C41.3755 113.577 41.0822 113.277 40.8755 112.89C40.6689 112.503 40.5655 112.05 40.5655 111.53C40.5655 111.01 40.6689 110.563 40.8755 110.19C41.0822 109.81 41.3755 109.52 41.7555 109.32C42.1355 109.113 42.5822 109.01 43.0955 109.01C43.3155 109.01 43.5522 109.04 43.8055 109.1C44.0655 109.16 44.3089 109.26 44.5355 109.4C44.6689 109.48 44.7455 109.583 44.7655 109.71C44.7922 109.837 44.7755 109.953 44.7155 110.06C44.6622 110.167 44.5789 110.243 44.4655 110.29C44.3589 110.337 44.2355 110.32 44.0955 110.24C43.7889 110.067 43.4922 109.98 43.2055 109.98C42.7722 109.98 42.4355 110.117 42.1955 110.39C41.9622 110.657 41.8455 111.04 41.8455 111.54C41.8455 112.033 41.9622 112.423 42.1955 112.71C42.4355 112.99 42.7722 113.13 43.2055 113.13C43.4922 113.13 43.7889 113.047 44.0955 112.88C44.2355 112.8 44.3589 112.783 44.4655 112.83C44.5722 112.877 44.6489 112.957 44.6955 113.07C44.7422 113.177 44.7522 113.293 44.7255 113.42C44.6989 113.54 44.6222 113.64 44.4955 113.72C44.2755 113.853 44.0422 113.95 43.7955 114.01C43.5489 114.07 43.3155 114.1 43.0955 114.1ZM47.8647 114.1C47.3114 114.1 46.8347 113.997 46.4347 113.79C46.0347 113.583 45.7247 113.29 45.5047 112.91C45.2914 112.53 45.1847 112.08 45.1847 111.56C45.1847 111.053 45.288 110.61 45.4947 110.23C45.708 109.85 45.998 109.553 46.3647 109.34C46.738 109.12 47.1614 109.01 47.6347 109.01C48.328 109.01 48.8747 109.23 49.2747 109.67C49.6814 110.11 49.8847 110.71 49.8847 111.47C49.8847 111.717 49.7247 111.84 49.4047 111.84H46.3847C46.478 112.713 46.978 113.15 47.8847 113.15C48.058 113.15 48.2514 113.13 48.4647 113.09C48.6847 113.043 48.8914 112.967 49.0847 112.86C49.258 112.76 49.4047 112.73 49.5247 112.77C49.6447 112.803 49.728 112.873 49.7747 112.98C49.828 113.087 49.8347 113.207 49.7947 113.34C49.7614 113.467 49.668 113.577 49.5147 113.67C49.2814 113.817 49.0114 113.927 48.7047 114C48.4047 114.067 48.1247 114.1 47.8647 114.1ZM47.6847 109.86C47.318 109.86 47.0214 109.973 46.7947 110.2C46.568 110.427 46.4314 110.733 46.3847 111.12H48.8447C48.818 110.713 48.7047 110.403 48.5047 110.19C48.3114 109.97 48.038 109.86 47.6847 109.86ZM55.8195 114.1C55.3128 114.1 54.8728 113.997 54.4995 113.79C54.1261 113.583 53.8361 113.29 53.6295 112.91C53.4228 112.523 53.3195 112.07 53.3195 111.55C53.3195 111.03 53.4228 110.58 53.6295 110.2C53.8361 109.82 54.1261 109.527 54.4995 109.32C54.8728 109.113 55.3128 109.01 55.8195 109.01C56.3261 109.01 56.7661 109.113 57.1395 109.32C57.5128 109.527 57.8028 109.82 58.0095 110.2C58.2161 110.58 58.3195 111.03 58.3195 111.55C58.3195 112.07 58.2161 112.523 58.0095 112.91C57.8028 113.29 57.5128 113.583 57.1395 113.79C56.7661 113.997 56.3261 114.1 55.8195 114.1ZM55.8195 113.15C56.1928 113.15 56.4928 113.017 56.7195 112.75C56.9461 112.477 57.0595 112.077 57.0595 111.55C57.0595 111.017 56.9461 110.62 56.7195 110.36C56.4928 110.093 56.1928 109.96 55.8195 109.96C55.4461 109.96 55.1461 110.093 54.9195 110.36C54.6928 110.62 54.5795 111.017 54.5795 111.55C54.5795 112.077 54.6928 112.477 54.9195 112.75C55.1461 113.017 55.4461 113.15 55.8195 113.15ZM60.2623 114.08C59.8423 114.08 59.6323 113.867 59.6323 113.44V110.05H59.1723C58.839 110.05 58.6723 109.893 58.6723 109.58C58.6723 109.267 58.839 109.11 59.1723 109.11H59.6323V109.1C59.6323 108.413 59.8057 107.9 60.1523 107.56C60.499 107.213 60.999 107.01 61.6523 106.95L61.9923 106.92C62.1657 106.907 62.2923 106.943 62.3723 107.03C62.4523 107.117 62.4923 107.223 62.4923 107.35C62.499 107.47 62.469 107.58 62.4023 107.68C62.3357 107.773 62.239 107.827 62.1123 107.84L61.9723 107.85C61.5923 107.877 61.3157 107.973 61.1423 108.14C60.969 108.307 60.8823 108.56 60.8823 108.9V109.11H61.7323C62.0657 109.11 62.2323 109.267 62.2323 109.58C62.2323 109.893 62.0657 110.05 61.7323 110.05H60.8823V113.44C60.8823 113.867 60.6757 114.08 60.2623 114.08ZM66.4598 114C66.0064 114 65.7798 113.773 65.7798 113.32V107.63C65.7798 107.177 66.0064 106.95 66.4598 106.95H68.8598C69.5998 106.95 70.1731 107.113 70.5798 107.44C70.9864 107.76 71.1898 108.207 71.1898 108.78C71.1898 109.16 71.0931 109.487 70.8998 109.76C70.7064 110.033 70.4398 110.233 70.0998 110.36C70.4998 110.473 70.8098 110.673 71.0298 110.96C71.2564 111.24 71.3698 111.597 71.3698 112.03C71.3698 112.657 71.1564 113.143 70.7298 113.49C70.3098 113.83 69.7231 114 68.9698 114H66.4598ZM67.0098 109.94H68.6398C69.5131 109.94 69.9498 109.603 69.9498 108.93C69.9498 108.257 69.5131 107.92 68.6398 107.92H67.0098V109.94ZM67.0098 113.03H68.8098C69.6898 113.03 70.1298 112.677 70.1298 111.97C70.1298 111.263 69.6898 110.91 68.8098 110.91H67.0098V113.03ZM73.1645 108.11C72.9312 108.11 72.7479 108.053 72.6145 107.94C72.4879 107.82 72.4245 107.657 72.4245 107.45C72.4245 107.237 72.4879 107.073 72.6145 106.96C72.7479 106.847 72.9312 106.79 73.1645 106.79C73.6579 106.79 73.9045 107.01 73.9045 107.45C73.9045 107.89 73.6579 108.11 73.1645 108.11ZM73.1645 114.07C72.9645 114.07 72.8112 114.01 72.7045 113.89C72.5979 113.77 72.5445 113.603 72.5445 113.39V109.72C72.5445 109.267 72.7512 109.04 73.1645 109.04C73.5845 109.04 73.7945 109.267 73.7945 109.72V113.39C73.7945 113.603 73.7412 113.77 73.6345 113.89C73.5279 114.01 73.3712 114.07 73.1645 114.07ZM75.7334 114.08C75.3067 114.08 75.0934 113.867 75.0934 113.44V109.66C75.0934 109.24 75.2967 109.03 75.7034 109.03C76.11 109.03 76.3134 109.24 76.3134 109.66V109.97C76.5534 109.397 77.0667 109.077 77.8534 109.01C78.14 108.977 78.3 109.14 78.3334 109.5C78.3667 109.853 78.1934 110.05 77.8134 110.09L77.5934 110.11C76.7734 110.19 76.3634 110.61 76.3634 111.37V113.44C76.3634 113.867 76.1534 114.08 75.7334 114.08ZM81.5326 114.1C80.2392 114.1 79.5926 113.46 79.5926 112.18V110.05H79.0726C78.7392 110.05 78.5726 109.893 78.5726 109.58C78.5726 109.267 78.7392 109.11 79.0726 109.11H79.5926V108.2C79.5926 107.78 79.8026 107.57 80.2226 107.57C80.6359 107.57 80.8426 107.78 80.8426 108.2V109.11H81.9026C82.2359 109.11 82.4026 109.267 82.4026 109.58C82.4026 109.893 82.2359 110.05 81.9026 110.05H80.8426V112.11C80.8426 112.43 80.9126 112.67 81.0526 112.83C81.1926 112.99 81.4192 113.07 81.7326 113.07C81.8459 113.07 81.9459 113.06 82.0326 113.04C82.1192 113.02 82.1959 113.007 82.2626 113C82.3426 112.993 82.4092 113.02 82.4626 113.08C82.5159 113.133 82.5426 113.247 82.5426 113.42C82.5426 113.553 82.5192 113.673 82.4726 113.78C82.4326 113.88 82.3559 113.95 82.2426 113.99C82.1559 114.017 82.0426 114.04 81.9026 114.06C81.7626 114.087 81.6392 114.1 81.5326 114.1ZM83.8774 114.08C83.4641 114.08 83.2574 113.867 83.2574 113.44V107.5C83.2574 107.08 83.4641 106.87 83.8774 106.87C84.2974 106.87 84.5074 107.08 84.5074 107.5V109.82C84.6741 109.553 84.8974 109.353 85.1774 109.22C85.4574 109.08 85.7674 109.01 86.1074 109.01C87.2608 109.01 87.8374 109.68 87.8374 111.02V113.44C87.8374 113.867 87.6308 114.08 87.2174 114.08C86.7974 114.08 86.5874 113.867 86.5874 113.44V111.08C86.5874 110.7 86.5141 110.423 86.3674 110.25C86.2274 110.077 86.0074 109.99 85.7074 109.99C85.3408 109.99 85.0474 110.107 84.8274 110.34C84.6141 110.567 84.5074 110.87 84.5074 111.25V113.44C84.5074 113.867 84.2974 114.08 83.8774 114.08ZM26.32 128C26.02 128 25.87 127.85 25.87 127.55V121.4C25.87 121.1 26.02 120.95 26.32 120.95H28.25C29.39 120.95 30.27 121.253 30.89 121.86C31.51 122.46 31.82 123.33 31.82 124.47C31.82 125.61 31.51 126.483 30.89 127.09C30.27 127.697 29.39 128 28.25 128H26.32ZM26.69 127.3H28.19C30.03 127.3 30.95 126.357 30.95 124.47C30.95 122.59 30.03 121.65 28.19 121.65H26.69V127.3ZM35.3719 128.09C34.6052 128.09 33.9985 127.867 33.5519 127.42C33.1052 126.967 32.8819 126.353 32.8819 125.58C32.8819 125.08 32.9819 124.64 33.1819 124.26C33.3819 123.873 33.6552 123.577 34.0019 123.37C34.3552 123.157 34.7619 123.05 35.2219 123.05C35.8819 123.05 36.3985 123.263 36.7719 123.69C37.1452 124.11 37.3319 124.69 37.3319 125.43C37.3319 125.637 37.2152 125.74 36.9819 125.74H33.6719C33.6985 126.293 33.8585 126.717 34.1519 127.01C34.4452 127.297 34.8519 127.44 35.3719 127.44C35.5919 127.44 35.8152 127.413 36.0419 127.36C36.2685 127.3 36.4885 127.197 36.7019 127.05C36.8552 126.95 36.9819 126.93 37.0819 126.99C37.1885 127.05 37.2419 127.143 37.2419 127.27C37.2485 127.39 37.1819 127.497 37.0419 127.59C36.8219 127.75 36.5585 127.873 36.2519 127.96C35.9519 128.047 35.6585 128.09 35.3719 128.09ZM35.2419 123.65C34.7819 123.65 34.4185 123.793 34.1519 124.08C33.8852 124.367 33.7285 124.743 33.6819 125.21H36.6319C36.6119 124.717 36.4819 124.333 36.2419 124.06C36.0085 123.787 35.6752 123.65 35.2419 123.65ZM38.9041 128.07C38.6375 128.07 38.5041 127.93 38.5041 127.65V123.48C38.5041 123.207 38.6341 123.07 38.8941 123.07C39.1608 123.07 39.2941 123.207 39.2941 123.48V123.97C39.4541 123.663 39.6808 123.433 39.9741 123.28C40.2675 123.127 40.5975 123.05 40.9641 123.05C42.1175 123.05 42.6941 123.69 42.6941 124.97V127.65C42.6941 127.93 42.5608 128.07 42.2941 128.07C42.0208 128.07 41.8841 127.93 41.8841 127.65V125.02C41.8841 124.567 41.7941 124.237 41.6141 124.03C41.4408 123.817 41.1608 123.71 40.7741 123.71C40.3275 123.71 39.9708 123.85 39.7041 124.13C39.4441 124.403 39.3141 124.77 39.3141 125.23V127.65C39.3141 127.93 39.1775 128.07 38.9041 128.07ZM44.5877 129.87C44.3211 129.87 44.1877 129.733 44.1877 129.46V123.48C44.1877 123.207 44.3177 123.07 44.5777 123.07C44.8511 123.07 44.9877 123.207 44.9877 123.48V124C45.1277 123.707 45.3444 123.477 45.6377 123.31C45.9311 123.137 46.2677 123.05 46.6477 123.05C47.0811 123.05 47.4577 123.153 47.7777 123.36C48.1044 123.56 48.3544 123.85 48.5277 124.23C48.7077 124.603 48.7977 125.05 48.7977 125.57C48.7977 126.083 48.7077 126.53 48.5277 126.91C48.3544 127.283 48.1044 127.573 47.7777 127.78C47.4577 127.987 47.0811 128.09 46.6477 128.09C46.2744 128.09 45.9411 128.007 45.6477 127.84C45.3544 127.673 45.1377 127.443 44.9977 127.15V129.46C44.9977 129.733 44.8611 129.87 44.5877 129.87ZM46.4777 127.44C46.9311 127.44 47.2944 127.28 47.5677 126.96C47.8411 126.633 47.9777 126.17 47.9777 125.57C47.9777 124.963 47.8411 124.5 47.5677 124.18C47.2944 123.86 46.9311 123.7 46.4777 123.7C46.0244 123.7 45.6611 123.86 45.3877 124.18C45.1144 124.5 44.9777 124.963 44.9777 125.57C44.9777 126.17 45.1144 126.633 45.3877 126.96C45.6611 127.28 46.0244 127.44 46.4777 127.44ZM51.5478 128.09C51.2145 128.09 50.9145 128.027 50.6478 127.9C50.3878 127.767 50.1811 127.587 50.0278 127.36C49.8745 127.133 49.7978 126.88 49.7978 126.6C49.7978 126.247 49.8878 125.967 50.0678 125.76C50.2545 125.553 50.5578 125.407 50.9778 125.32C51.4045 125.227 51.9845 125.18 52.7178 125.18H53.0378V124.87C53.0378 124.457 52.9511 124.16 52.7778 123.98C52.6111 123.793 52.3411 123.7 51.9678 123.7C51.7345 123.7 51.4978 123.73 51.2578 123.79C51.0245 123.85 50.7811 123.947 50.5278 124.08C50.4145 124.14 50.3178 124.153 50.2378 124.12C50.1645 124.08 50.1111 124.02 50.0778 123.94C50.0511 123.853 50.0511 123.767 50.0778 123.68C50.1111 123.587 50.1778 123.517 50.2778 123.47C50.5645 123.323 50.8511 123.217 51.1378 123.15C51.4311 123.083 51.7078 123.05 51.9678 123.05C52.5945 123.05 53.0578 123.203 53.3578 123.51C53.6645 123.817 53.8178 124.293 53.8178 124.94V127.65C53.8178 127.93 53.6945 128.07 53.4478 128.07C53.1878 128.07 53.0578 127.93 53.0578 127.65V127.16C52.9311 127.447 52.7345 127.673 52.4678 127.84C52.2078 128.007 51.9011 128.09 51.5478 128.09ZM51.6778 127.48C52.0778 127.48 52.4045 127.343 52.6578 127.07C52.9111 126.79 53.0378 126.437 53.0378 126.01V125.71H52.7278C52.1878 125.71 51.7611 125.737 51.4478 125.79C51.1411 125.837 50.9245 125.923 50.7978 126.05C50.6778 126.17 50.6178 126.337 50.6178 126.55C50.6178 126.823 50.7111 127.047 50.8978 127.22C51.0911 127.393 51.3511 127.48 51.6778 127.48ZM56.9605 128.09C56.6605 128.09 56.3572 128.053 56.0505 127.98C55.7505 127.9 55.4705 127.773 55.2105 127.6C55.0905 127.527 55.0305 127.433 55.0305 127.32C55.0372 127.2 55.0839 127.107 55.1705 127.04C55.2572 126.973 55.3672 126.973 55.5005 127.04C55.7605 127.2 56.0105 127.313 56.2505 127.38C56.4972 127.44 56.7405 127.47 56.9805 127.47C57.3605 127.47 57.6472 127.4 57.8405 127.26C58.0339 127.12 58.1305 126.93 58.1305 126.69C58.1305 126.503 58.0672 126.357 57.9405 126.25C57.8139 126.137 57.6139 126.05 57.3405 125.99L56.4305 125.79C55.6039 125.61 55.1905 125.183 55.1905 124.51C55.1905 124.07 55.3639 123.717 55.7105 123.45C56.0639 123.183 56.5239 123.05 57.0905 123.05C57.3772 123.05 57.6539 123.09 57.9205 123.17C58.1872 123.243 58.4272 123.363 58.6405 123.53C58.7539 123.61 58.8039 123.707 58.7905 123.82C58.7772 123.933 58.7239 124.023 58.6305 124.09C58.5439 124.15 58.4372 124.14 58.3105 124.06C58.1105 123.927 57.9072 123.83 57.7005 123.77C57.4939 123.703 57.2905 123.67 57.0905 123.67C56.7172 123.67 56.4339 123.743 56.2405 123.89C56.0472 124.037 55.9505 124.23 55.9505 124.47C55.9505 124.843 56.1972 125.083 56.6905 125.19L57.6005 125.38C58.0272 125.473 58.3505 125.623 58.5705 125.83C58.7905 126.03 58.9005 126.303 58.9005 126.65C58.9005 127.097 58.7239 127.45 58.3705 127.71C58.0172 127.963 57.5472 128.09 56.9605 128.09ZM61.665 128.09C61.3317 128.09 61.0317 128.027 60.765 127.9C60.505 127.767 60.2983 127.587 60.145 127.36C59.9917 127.133 59.915 126.88 59.915 126.6C59.915 126.247 60.005 125.967 60.185 125.76C60.3717 125.553 60.675 125.407 61.095 125.32C61.5217 125.227 62.1017 125.18 62.835 125.18H63.155V124.87C63.155 124.457 63.0683 124.16 62.895 123.98C62.7283 123.793 62.4583 123.7 62.085 123.7C61.8517 123.7 61.615 123.73 61.375 123.79C61.1417 123.85 60.8983 123.947 60.645 124.08C60.5317 124.14 60.435 124.153 60.355 124.12C60.2817 124.08 60.2283 124.02 60.195 123.94C60.1683 123.853 60.1683 123.767 60.195 123.68C60.2283 123.587 60.295 123.517 60.395 123.47C60.6817 123.323 60.9683 123.217 61.255 123.15C61.5483 123.083 61.825 123.05 62.085 123.05C62.7117 123.05 63.175 123.203 63.475 123.51C63.7817 123.817 63.935 124.293 63.935 124.94V127.65C63.935 127.93 63.8117 128.07 63.565 128.07C63.305 128.07 63.175 127.93 63.175 127.65V127.16C63.0483 127.447 62.8517 127.673 62.585 127.84C62.325 128.007 62.0183 128.09 61.665 128.09ZM61.795 127.48C62.195 127.48 62.5217 127.343 62.775 127.07C63.0283 126.79 63.155 126.437 63.155 126.01V125.71H62.845C62.305 125.71 61.8783 125.737 61.565 125.79C61.2583 125.837 61.0417 125.923 60.915 126.05C60.795 126.17 60.735 126.337 60.735 126.55C60.735 126.823 60.8283 127.047 61.015 127.22C61.2083 127.393 61.4683 127.48 61.795 127.48ZM65.8477 128.07C65.5744 128.07 65.4377 127.93 65.4377 127.65V123.48C65.4377 123.207 65.5677 123.07 65.8277 123.07C66.0944 123.07 66.2277 123.207 66.2277 123.48V124.01C66.3611 123.703 66.5677 123.47 66.8477 123.31C67.1277 123.143 67.4611 123.053 67.8477 123.04C68.0611 123.02 68.1744 123.127 68.1877 123.36C68.2077 123.593 68.0877 123.723 67.8277 123.75L67.6677 123.77C67.2077 123.81 66.8577 123.957 66.6177 124.21C66.3777 124.457 66.2577 124.797 66.2577 125.23V127.65C66.2577 127.93 66.1211 128.07 65.8477 128.07Z" fill="#231F21"/>
<path d="M128.16 30.1C127.38 30.1 126.72 29.9533 126.18 29.66C125.647 29.3667 125.24 28.95 124.96 28.41C124.68 27.87 124.54 27.23 124.54 26.49C124.54 25.7433 124.683 25.1 124.97 24.56C125.257 24.0133 125.67 23.5933 126.21 23.3C126.75 23 127.397 22.85 128.15 22.85C128.523 22.85 128.897 22.8967 129.27 22.99C129.65 23.0767 130.007 23.2267 130.34 23.44C130.487 23.5267 130.57 23.6433 130.59 23.79C130.617 23.93 130.597 24.0633 130.53 24.19C130.463 24.3167 130.363 24.4067 130.23 24.46C130.097 24.5067 129.95 24.4833 129.79 24.39C129.537 24.2433 129.28 24.1367 129.02 24.07C128.76 24.0033 128.47 23.97 128.15 23.97C127.403 23.97 126.837 24.1867 126.45 24.62C126.07 25.0533 125.88 25.6767 125.88 26.49C125.88 27.31 126.077 27.9333 126.47 28.36C126.863 28.7867 127.447 29 128.22 29C128.44 29 128.663 28.9833 128.89 28.95C129.123 28.91 129.353 28.8533 129.58 28.78V27.14H128.48C128.133 27.14 127.96 26.98 127.96 26.66C127.96 26.3467 128.133 26.19 128.48 26.19H130.13C130.477 26.19 130.65 26.3633 130.65 26.71V29.14C130.65 29.4467 130.53 29.6433 130.29 29.73C129.997 29.8367 129.66 29.9267 129.28 30C128.9 30.0667 128.527 30.1 128.16 30.1ZM134.423 30.1C133.87 30.1 133.393 29.9967 132.993 29.79C132.593 29.5833 132.283 29.29 132.063 28.91C131.85 28.53 131.743 28.08 131.743 27.56C131.743 27.0533 131.847 26.61 132.053 26.23C132.267 25.85 132.557 25.5533 132.923 25.34C133.297 25.12 133.72 25.01 134.193 25.01C134.887 25.01 135.433 25.23 135.833 25.67C136.24 26.11 136.443 26.71 136.443 27.47C136.443 27.7167 136.283 27.84 135.963 27.84H132.943C133.037 28.7133 133.537 29.15 134.443 29.15C134.617 29.15 134.81 29.13 135.023 29.09C135.243 29.0433 135.45 28.9667 135.643 28.86C135.817 28.76 135.963 28.73 136.083 28.77C136.203 28.8033 136.287 28.8733 136.333 28.98C136.387 29.0867 136.393 29.2067 136.353 29.34C136.32 29.4667 136.227 29.5767 136.073 29.67C135.84 29.8167 135.57 29.9267 135.263 30C134.963 30.0667 134.683 30.1 134.423 30.1ZM134.243 25.86C133.877 25.86 133.58 25.9733 133.353 26.2C133.127 26.4267 132.99 26.7333 132.943 27.12H135.403C135.377 26.7133 135.263 26.4033 135.063 26.19C134.87 25.97 134.597 25.86 134.243 25.86ZM138.053 30.08C137.64 30.08 137.433 29.8667 137.433 29.44V25.66C137.433 25.24 137.637 25.03 138.043 25.03C138.45 25.03 138.653 25.24 138.653 25.66V25.87C138.82 25.59 139.043 25.3767 139.323 25.23C139.61 25.0833 139.93 25.01 140.283 25.01C141.437 25.01 142.013 25.68 142.013 27.02V29.44C142.013 29.8667 141.807 30.08 141.393 30.08C140.973 30.08 140.763 29.8667 140.763 29.44V27.08C140.763 26.7 140.69 26.4233 140.543 26.25C140.403 26.0767 140.183 25.99 139.883 25.99C139.517 25.99 139.223 26.1067 139.003 26.34C138.79 26.5667 138.683 26.87 138.683 27.25V29.44C138.683 29.8667 138.473 30.08 138.053 30.08ZM145.163 30.1C144.736 30.1 144.359 29.9967 144.033 29.79C143.713 29.5833 143.463 29.29 143.283 28.91C143.103 28.5233 143.013 28.07 143.013 27.55C143.013 27.0233 143.103 26.5733 143.283 26.2C143.463 25.82 143.713 25.5267 144.033 25.32C144.359 25.1133 144.736 25.01 145.163 25.01C145.509 25.01 145.823 25.0867 146.103 25.24C146.383 25.3933 146.593 25.5967 146.733 25.85V23.5C146.733 23.08 146.939 22.87 147.353 22.87C147.773 22.87 147.983 23.08 147.983 23.5V29.44C147.983 29.8667 147.776 30.08 147.363 30.08C146.949 30.08 146.743 29.8667 146.743 29.44V29.23C146.603 29.4967 146.393 29.71 146.113 29.87C145.833 30.0233 145.516 30.1 145.163 30.1ZM145.513 29.15C145.886 29.15 146.186 29.0167 146.413 28.75C146.639 28.4767 146.753 28.0767 146.753 27.55C146.753 27.0167 146.639 26.62 146.413 26.36C146.186 26.0933 145.886 25.96 145.513 25.96C145.139 25.96 144.839 26.0933 144.613 26.36C144.386 26.62 144.273 27.0167 144.273 27.55C144.273 28.0767 144.386 28.4767 144.613 28.75C144.839 29.0167 145.139 29.15 145.513 29.15ZM151.689 30.1C151.136 30.1 150.659 29.9967 150.259 29.79C149.859 29.5833 149.549 29.29 149.329 28.91C149.116 28.53 149.009 28.08 149.009 27.56C149.009 27.0533 149.112 26.61 149.319 26.23C149.532 25.85 149.822 25.5533 150.189 25.34C150.562 25.12 150.986 25.01 151.459 25.01C152.152 25.01 152.699 25.23 153.099 25.67C153.506 26.11 153.709 26.71 153.709 27.47C153.709 27.7167 153.549 27.84 153.229 27.84H150.209C150.302 28.7133 150.802 29.15 151.709 29.15C151.882 29.15 152.076 29.13 152.289 29.09C152.509 29.0433 152.716 28.9667 152.909 28.86C153.082 28.76 153.229 28.73 153.349 28.77C153.469 28.8033 153.552 28.8733 153.599 28.98C153.652 29.0867 153.659 29.2067 153.619 29.34C153.586 29.4667 153.492 29.5767 153.339 29.67C153.106 29.8167 152.836 29.9267 152.529 30C152.229 30.0667 151.949 30.1 151.689 30.1ZM151.509 25.86C151.142 25.86 150.846 25.9733 150.619 26.2C150.392 26.4267 150.256 26.7333 150.209 27.12H152.669C152.642 26.7133 152.529 26.4033 152.329 26.19C152.136 25.97 151.862 25.86 151.509 25.86ZM155.339 30.08C154.912 30.08 154.699 29.8667 154.699 29.44V25.66C154.699 25.24 154.902 25.03 155.309 25.03C155.715 25.03 155.919 25.24 155.919 25.66V25.97C156.159 25.3967 156.672 25.0767 157.459 25.01C157.745 24.9767 157.905 25.14 157.939 25.5C157.972 25.8533 157.799 26.05 157.419 26.09L157.199 26.11C156.379 26.19 155.969 26.61 155.969 27.37V29.44C155.969 29.8667 155.759 30.08 155.339 30.08ZM125.27 44.07C125.017 44.07 124.89 43.9367 124.89 43.67V37.28C124.89 37.0133 125.017 36.88 125.27 36.88C125.377 36.88 125.46 36.9033 125.52 36.95C125.587 36.99 125.647 37.06 125.7 37.16L128.29 42.04L130.87 37.16C130.923 37.06 130.98 36.99 131.04 36.95C131.1 36.9033 131.187 36.88 131.3 36.88C131.547 36.88 131.67 37.0133 131.67 37.28V43.67C131.67 43.9367 131.543 44.07 131.29 44.07C131.037 44.07 130.91 43.9367 130.91 43.67V38.49L128.65 42.74C128.603 42.8267 128.553 42.89 128.5 42.93C128.453 42.9633 128.383 42.98 128.29 42.98C128.197 42.98 128.123 42.96 128.07 42.92C128.017 42.88 127.97 42.82 127.93 42.74L125.64 38.5V43.67C125.64 43.9367 125.517 44.07 125.27 44.07ZM134.845 44.09C134.511 44.09 134.211 44.0267 133.945 43.9C133.685 43.7667 133.478 43.5867 133.325 43.36C133.171 43.1333 133.095 42.88 133.095 42.6C133.095 42.2467 133.185 41.9667 133.365 41.76C133.551 41.5533 133.855 41.4067 134.275 41.32C134.701 41.2267 135.281 41.18 136.015 41.18H136.335V40.87C136.335 40.4567 136.248 40.16 136.075 39.98C135.908 39.7933 135.638 39.7 135.265 39.7C135.031 39.7 134.795 39.73 134.555 39.79C134.321 39.85 134.078 39.9467 133.825 40.08C133.711 40.14 133.615 40.1533 133.535 40.12C133.461 40.08 133.408 40.02 133.375 39.94C133.348 39.8533 133.348 39.7667 133.375 39.68C133.408 39.5867 133.475 39.5167 133.575 39.47C133.861 39.3233 134.148 39.2167 134.435 39.15C134.728 39.0833 135.005 39.05 135.265 39.05C135.891 39.05 136.355 39.2033 136.655 39.51C136.961 39.8167 137.115 40.2933 137.115 40.94V43.65C137.115 43.93 136.991 44.07 136.745 44.07C136.485 44.07 136.355 43.93 136.355 43.65V43.16C136.228 43.4467 136.031 43.6733 135.765 43.84C135.505 44.0067 135.198 44.09 134.845 44.09ZM134.975 43.48C135.375 43.48 135.701 43.3433 135.955 43.07C136.208 42.79 136.335 42.4367 136.335 42.01V41.71H136.025C135.485 41.71 135.058 41.7367 134.745 41.79C134.438 41.8367 134.221 41.9233 134.095 42.05C133.975 42.17 133.915 42.3367 133.915 42.55C133.915 42.8233 134.008 43.0467 134.195 43.22C134.388 43.3933 134.648 43.48 134.975 43.48ZM140.097 44.09C139.617 44.09 139.251 43.9467 138.997 43.66C138.744 43.3667 138.617 42.9433 138.617 42.39V37.29C138.617 37.0167 138.751 36.88 139.017 36.88C139.291 36.88 139.427 37.0167 139.427 37.29V42.33C139.427 43.0433 139.711 43.4 140.277 43.4C140.337 43.4 140.391 43.3967 140.437 43.39C140.484 43.3833 140.531 43.38 140.577 43.38C140.651 43.3733 140.701 43.39 140.727 43.43C140.761 43.47 140.777 43.55 140.777 43.67C140.777 43.8967 140.664 44.0267 140.437 44.06C140.384 44.0733 140.327 44.08 140.267 44.08C140.207 44.0867 140.151 44.09 140.097 44.09ZM143.718 44.09C142.951 44.09 142.344 43.8667 141.898 43.42C141.451 42.9667 141.228 42.3533 141.228 41.58C141.228 41.08 141.328 40.64 141.528 40.26C141.728 39.8733 142.001 39.5767 142.348 39.37C142.701 39.1567 143.108 39.05 143.568 39.05C144.228 39.05 144.744 39.2633 145.118 39.69C145.491 40.11 145.678 40.69 145.678 41.43C145.678 41.6367 145.561 41.74 145.328 41.74H142.018C142.044 42.2933 142.204 42.7167 142.498 43.01C142.791 43.2967 143.198 43.44 143.718 43.44C143.938 43.44 144.161 43.4133 144.388 43.36C144.614 43.3 144.834 43.1967 145.048 43.05C145.201 42.95 145.328 42.93 145.428 42.99C145.534 43.05 145.588 43.1433 145.588 43.27C145.594 43.39 145.528 43.4967 145.388 43.59C145.168 43.75 144.904 43.8733 144.598 43.96C144.298 44.0467 144.004 44.09 143.718 44.09ZM143.588 39.65C143.128 39.65 142.764 39.7933 142.498 40.08C142.231 40.3667 142.074 40.7433 142.028 41.21H144.978C144.958 40.7167 144.828 40.3333 144.588 40.06C144.354 39.7867 144.021 39.65 143.588 39.65ZM125.37 72.08C124.983 72.08 124.79 71.88 124.79 71.48V65.47C124.79 65.07 124.99 64.87 125.39 64.87C125.557 64.87 125.687 64.9033 125.78 64.97C125.88 65.03 125.97 65.1367 126.05 65.29L128.36 69.56L130.67 65.29C130.75 65.1367 130.837 65.03 130.93 64.97C131.023 64.9033 131.153 64.87 131.32 64.87C131.707 64.87 131.9 65.07 131.9 65.47V71.48C131.9 71.88 131.707 72.08 131.32 72.08C130.933 72.08 130.74 71.88 130.74 71.48V67.25L128.86 70.68C128.793 70.7933 128.723 70.8767 128.65 70.93C128.577 70.9833 128.477 71.01 128.35 71.01C128.223 71.01 128.12 70.9833 128.04 70.93C127.96 70.87 127.89 70.7867 127.83 70.68L125.95 67.27V71.48C125.95 71.88 125.757 72.08 125.37 72.08ZM134.942 72.1C134.588 72.1 134.272 72.0333 133.992 71.9C133.718 71.76 133.502 71.5733 133.342 71.34C133.188 71.1067 133.112 70.8433 133.112 70.55C133.112 70.19 133.205 69.9067 133.392 69.7C133.578 69.4867 133.882 69.3333 134.302 69.24C134.722 69.1467 135.285 69.1 135.992 69.1H136.342V68.89C136.342 68.5567 136.268 68.3167 136.122 68.17C135.975 68.0233 135.728 67.95 135.382 67.95C135.188 67.95 134.978 67.9733 134.752 68.02C134.532 68.0667 134.298 68.1467 134.052 68.26C133.892 68.3333 133.758 68.3433 133.652 68.29C133.545 68.23 133.472 68.14 133.432 68.02C133.398 67.8933 133.405 67.7667 133.452 67.64C133.505 67.5133 133.608 67.42 133.762 67.36C134.068 67.2333 134.362 67.1433 134.642 67.09C134.928 67.0367 135.188 67.01 135.422 67.01C136.135 67.01 136.665 67.1767 137.012 67.51C137.358 67.8367 137.532 68.3467 137.532 69.04V71.44C137.532 71.8667 137.338 72.08 136.952 72.08C136.558 72.08 136.362 71.8667 136.362 71.44V71.22C136.248 71.4933 136.068 71.71 135.822 71.87C135.575 72.0233 135.282 72.1 134.942 72.1ZM135.202 71.24C135.528 71.24 135.798 71.1267 136.012 70.9C136.232 70.6733 136.342 70.3867 136.342 70.04V69.82H136.002C135.375 69.82 134.938 69.87 134.692 69.97C134.452 70.0633 134.332 70.2367 134.332 70.49C134.332 70.71 134.408 70.89 134.562 71.03C134.715 71.17 134.928 71.24 135.202 71.24ZM139.44 72.08C139.014 72.08 138.8 71.8667 138.8 71.44V67.66C138.8 67.24 139.004 67.03 139.41 67.03C139.817 67.03 140.02 67.24 140.02 67.66V67.97C140.26 67.3967 140.774 67.0767 141.56 67.01C141.847 66.9767 142.007 67.14 142.04 67.5C142.074 67.8533 141.9 68.05 141.52 68.09L141.3 68.11C140.48 68.19 140.07 68.61 140.07 69.37V71.44C140.07 71.8667 139.86 72.08 139.44 72.08ZM143.336 66.11C143.103 66.11 142.92 66.0533 142.786 65.94C142.66 65.82 142.596 65.6567 142.596 65.45C142.596 65.2367 142.66 65.0733 142.786 64.96C142.92 64.8467 143.103 64.79 143.336 64.79C143.83 64.79 144.076 65.01 144.076 65.45C144.076 65.89 143.83 66.11 143.336 66.11ZM143.336 72.07C143.136 72.07 142.983 72.01 142.876 71.89C142.77 71.77 142.716 71.6033 142.716 71.39V67.72C142.716 67.2667 142.923 67.04 143.336 67.04C143.756 67.04 143.966 67.2667 143.966 67.72V71.39C143.966 71.6033 143.913 71.77 143.806 71.89C143.7 72.01 143.543 72.07 143.336 72.07ZM147.505 72.1C146.212 72.1 145.565 71.46 145.565 70.18V68.05H145.045C144.712 68.05 144.545 67.8933 144.545 67.58C144.545 67.2667 144.712 67.11 145.045 67.11H145.565V66.2C145.565 65.78 145.775 65.57 146.195 65.57C146.609 65.57 146.815 65.78 146.815 66.2V67.11H147.875C148.209 67.11 148.375 67.2667 148.375 67.58C148.375 67.8933 148.209 68.05 147.875 68.05H146.815V70.11C146.815 70.43 146.885 70.67 147.025 70.83C147.165 70.99 147.392 71.07 147.705 71.07C147.819 71.07 147.919 71.06 148.005 71.04C148.092 71.02 148.169 71.0067 148.235 71C148.315 70.9933 148.382 71.02 148.435 71.08C148.489 71.1333 148.515 71.2467 148.515 71.42C148.515 71.5533 148.492 71.6733 148.445 71.78C148.405 71.88 148.329 71.95 148.215 71.99C148.129 72.0167 148.015 72.04 147.875 72.06C147.735 72.0867 147.612 72.1 147.505 72.1ZM150.713 72.1C150.36 72.1 150.043 72.0333 149.763 71.9C149.49 71.76 149.273 71.5733 149.113 71.34C148.96 71.1067 148.883 70.8433 148.883 70.55C148.883 70.19 148.976 69.9067 149.163 69.7C149.35 69.4867 149.653 69.3333 150.073 69.24C150.493 69.1467 151.056 69.1 151.763 69.1H152.113V68.89C152.113 68.5567 152.04 68.3167 151.893 68.17C151.746 68.0233 151.5 67.95 151.153 67.95C150.96 67.95 150.75 67.9733 150.523 68.02C150.303 68.0667 150.07 68.1467 149.823 68.26C149.663 68.3333 149.53 68.3433 149.423 68.29C149.316 68.23 149.243 68.14 149.203 68.02C149.17 67.8933 149.176 67.7667 149.223 67.64C149.276 67.5133 149.38 67.42 149.533 67.36C149.84 67.2333 150.133 67.1433 150.413 67.09C150.7 67.0367 150.96 67.01 151.193 67.01C151.906 67.01 152.436 67.1767 152.783 67.51C153.13 67.8367 153.303 68.3467 153.303 69.04V71.44C153.303 71.8667 153.11 72.08 152.723 72.08C152.33 72.08 152.133 71.8667 152.133 71.44V71.22C152.02 71.4933 151.84 71.71 151.593 71.87C151.346 72.0233 151.053 72.1 150.713 72.1ZM150.973 71.24C151.3 71.24 151.57 71.1267 151.783 70.9C152.003 70.6733 152.113 70.3867 152.113 70.04V69.82H151.773C151.146 69.82 150.71 69.87 150.463 69.97C150.223 70.0633 150.103 70.2367 150.103 70.49C150.103 70.71 150.18 70.89 150.333 71.03C150.486 71.17 150.7 71.24 150.973 71.24ZM156.242 72.1C155.129 72.1 154.572 71.4767 154.572 70.23V65.5C154.572 65.08 154.779 64.87 155.192 64.87C155.612 64.87 155.822 65.08 155.822 65.5V70.17C155.822 70.77 156.072 71.07 156.572 71.07C156.625 71.07 156.675 71.07 156.722 71.07C156.769 71.0633 156.815 71.0567 156.862 71.05C156.955 71.0367 157.019 71.0633 157.052 71.13C157.085 71.19 157.102 71.3167 157.102 71.51C157.102 71.6767 157.069 71.8067 157.002 71.9C156.935 71.9933 156.825 72.05 156.672 72.07C156.532 72.09 156.389 72.1 156.242 72.1ZM163.03 72.1C162.583 72.1 162.147 72.05 161.72 71.95C161.3 71.85 160.933 71.7 160.62 71.5C160.467 71.4 160.373 71.2767 160.34 71.13C160.307 70.9833 160.317 70.8467 160.37 70.72C160.43 70.5867 160.52 70.4967 160.64 70.45C160.767 70.3967 160.91 70.42 161.07 70.52C161.363 70.6933 161.673 70.82 162 70.9C162.327 70.98 162.67 71.02 163.03 71.02C163.557 71.02 163.94 70.9333 164.18 70.76C164.42 70.58 164.54 70.35 164.54 70.07C164.54 69.8367 164.453 69.6533 164.28 69.52C164.113 69.3867 163.823 69.2767 163.41 69.19L162.31 68.96C161.057 68.6933 160.43 68.05 160.43 67.03C160.43 66.59 160.547 66.2067 160.78 65.88C161.013 65.5533 161.337 65.3 161.75 65.12C162.163 64.94 162.64 64.85 163.18 64.85C163.58 64.85 163.96 64.9 164.32 65C164.68 65.1 165.003 65.2467 165.29 65.44C165.423 65.5333 165.503 65.65 165.53 65.79C165.557 65.9233 165.54 66.05 165.48 66.17C165.42 66.2833 165.323 66.3633 165.19 66.41C165.063 66.45 164.913 66.42 164.74 66.32C164.493 66.18 164.243 66.08 163.99 66.02C163.737 65.96 163.463 65.93 163.17 65.93C162.71 65.93 162.35 66.0267 162.09 66.22C161.83 66.4133 161.7 66.6667 161.7 66.98C161.7 67.22 161.78 67.4133 161.94 67.56C162.1 67.7 162.373 67.81 162.76 67.89L163.85 68.12C164.51 68.26 165 68.48 165.32 68.78C165.647 69.08 165.81 69.48 165.81 69.98C165.81 70.4 165.697 70.77 165.47 71.09C165.243 71.41 164.92 71.66 164.5 71.84C164.087 72.0133 163.597 72.1 163.03 72.1ZM168.98 72.1C167.687 72.1 167.04 71.46 167.04 70.18V68.05H166.52C166.187 68.05 166.02 67.8933 166.02 67.58C166.02 67.2667 166.187 67.11 166.52 67.11H167.04V66.2C167.04 65.78 167.25 65.57 167.67 65.57C168.083 65.57 168.29 65.78 168.29 66.2V67.11H169.35C169.683 67.11 169.85 67.2667 169.85 67.58C169.85 67.8933 169.683 68.05 169.35 68.05H168.29V70.11C168.29 70.43 168.36 70.67 168.5 70.83C168.64 70.99 168.867 71.07 169.18 71.07C169.293 71.07 169.393 71.06 169.48 71.04C169.567 71.02 169.643 71.0067 169.71 71C169.79 70.9933 169.857 71.02 169.91 71.08C169.963 71.1333 169.99 71.2467 169.99 71.42C169.99 71.5533 169.967 71.6733 169.92 71.78C169.88 71.88 169.803 71.95 169.69 71.99C169.603 72.0167 169.49 72.04 169.35 72.06C169.21 72.0867 169.087 72.1 168.98 72.1ZM172.188 72.1C171.834 72.1 171.518 72.0333 171.238 71.9C170.964 71.76 170.748 71.5733 170.588 71.34C170.434 71.1067 170.358 70.8433 170.358 70.55C170.358 70.19 170.451 69.9067 170.638 69.7C170.824 69.4867 171.128 69.3333 171.548 69.24C171.968 69.1467 172.531 69.1 173.238 69.1H173.588V68.89C173.588 68.5567 173.514 68.3167 173.368 68.17C173.221 68.0233 172.974 67.95 172.628 67.95C172.434 67.95 172.224 67.9733 171.998 68.02C171.778 68.0667 171.544 68.1467 171.298 68.26C171.138 68.3333 171.004 68.3433 170.898 68.29C170.791 68.23 170.718 68.14 170.678 68.02C170.644 67.8933 170.651 67.7667 170.698 67.64C170.751 67.5133 170.854 67.42 171.008 67.36C171.314 67.2333 171.608 67.1433 171.888 67.09C172.174 67.0367 172.434 67.01 172.668 67.01C173.381 67.01 173.911 67.1767 174.258 67.51C174.604 67.8367 174.778 68.3467 174.778 69.04V71.44C174.778 71.8667 174.584 72.08 174.198 72.08C173.804 72.08 173.608 71.8667 173.608 71.44V71.22C173.494 71.4933 173.314 71.71 173.068 71.87C172.821 72.0233 172.528 72.1 172.188 72.1ZM172.448 71.24C172.774 71.24 173.044 71.1267 173.258 70.9C173.478 70.6733 173.588 70.3867 173.588 70.04V69.82H173.248C172.621 69.82 172.184 69.87 171.938 69.97C171.698 70.0633 171.578 70.2367 171.578 70.49C171.578 70.71 171.654 70.89 171.808 71.03C171.961 71.17 172.174 71.24 172.448 71.24ZM178.286 72.1C176.993 72.1 176.346 71.46 176.346 70.18V68.05H175.826C175.493 68.05 175.326 67.8933 175.326 67.58C175.326 67.2667 175.493 67.11 175.826 67.11H176.346V66.2C176.346 65.78 176.556 65.57 176.976 65.57C177.39 65.57 177.596 65.78 177.596 66.2V67.11H178.656C178.99 67.11 179.156 67.2667 179.156 67.58C179.156 67.8933 178.99 68.05 178.656 68.05H177.596V70.11C177.596 70.43 177.666 70.67 177.806 70.83C177.946 70.99 178.173 71.07 178.486 71.07C178.6 71.07 178.7 71.06 178.786 71.04C178.873 71.02 178.95 71.0067 179.016 71C179.096 70.9933 179.163 71.02 179.216 71.08C179.27 71.1333 179.296 71.2467 179.296 71.42C179.296 71.5533 179.273 71.6733 179.226 71.78C179.186 71.88 179.11 71.95 178.996 71.99C178.91 72.0167 178.796 72.04 178.656 72.06C178.516 72.0867 178.393 72.1 178.286 72.1ZM181.654 72.1C180.454 72.1 179.854 71.4267 179.854 70.08V67.66C179.854 67.24 180.061 67.03 180.474 67.03C180.894 67.03 181.104 67.24 181.104 67.66V70.1C181.104 70.4467 181.174 70.7033 181.314 70.87C181.454 71.0367 181.678 71.12 181.984 71.12C182.318 71.12 182.591 71.0067 182.804 70.78C183.018 70.5467 183.124 70.24 183.124 69.86V67.66C183.124 67.24 183.331 67.03 183.744 67.03C184.164 67.03 184.374 67.24 184.374 67.66V71.44C184.374 71.8667 184.171 72.08 183.764 72.08C183.358 72.08 183.154 71.8667 183.154 71.44V71.27C182.828 71.8233 182.328 72.1 181.654 72.1ZM187.465 72.1C187.179 72.1 186.875 72.07 186.555 72.01C186.235 71.95 185.949 71.8467 185.695 71.7C185.555 71.62 185.469 71.5233 185.435 71.41C185.402 71.29 185.405 71.18 185.445 71.08C185.492 70.9733 185.565 70.8967 185.665 70.85C185.772 70.8033 185.895 70.8133 186.035 70.88C186.302 71.0067 186.552 71.0967 186.785 71.15C187.019 71.1967 187.249 71.22 187.475 71.22C187.795 71.22 188.032 71.1667 188.185 71.06C188.345 70.9467 188.425 70.8 188.425 70.62C188.425 70.34 188.219 70.16 187.805 70.08L186.805 69.89C185.959 69.73 185.535 69.29 185.535 68.57C185.535 68.25 185.622 67.9733 185.795 67.74C185.975 67.5067 186.222 67.3267 186.535 67.2C186.849 67.0733 187.209 67.01 187.615 67.01C188.202 67.01 188.725 67.14 189.185 67.4C189.312 67.4667 189.385 67.56 189.405 67.68C189.432 67.7933 189.419 67.9033 189.365 68.01C189.319 68.11 189.242 68.1833 189.135 68.23C189.029 68.27 188.905 68.2567 188.765 68.19C188.559 68.0833 188.359 68.0067 188.165 67.96C187.979 67.9133 187.799 67.89 187.625 67.89C187.299 67.89 187.055 67.9467 186.895 68.06C186.742 68.1733 186.665 68.3233 186.665 68.51C186.665 68.8033 186.855 68.9833 187.235 69.05L188.235 69.24C188.669 69.32 188.995 69.4667 189.215 69.68C189.442 69.8933 189.555 70.18 189.555 70.54C189.555 71.0267 189.365 71.41 188.985 71.69C188.605 71.9633 188.099 72.1 187.465 72.1ZM125 83.67C124.9 83.67 124.817 83.64 124.75 83.58C124.683 83.5133 124.65 83.4333 124.65 83.34C124.65 83.24 124.683 83.16 124.75 83.1C124.817 83.0333 124.9 83 125 83H127.25C127.343 83 127.423 83.0333 127.49 83.1C127.557 83.16 127.59 83.24 127.59 83.34C127.59 83.4333 127.557 83.5133 127.49 83.58C127.423 83.64 127.343 83.67 127.25 83.67H125ZM125.37 114.08C124.983 114.08 124.79 113.88 124.79 113.48V107.47C124.79 107.07 124.99 106.87 125.39 106.87C125.557 106.87 125.687 106.903 125.78 106.97C125.88 107.03 125.97 107.137 126.05 107.29L128.36 111.56L130.67 107.29C130.75 107.137 130.837 107.03 130.93 106.97C131.023 106.903 131.153 106.87 131.32 106.87C131.707 106.87 131.9 107.07 131.9 107.47V113.48C131.9 113.88 131.707 114.08 131.32 114.08C130.933 114.08 130.74 113.88 130.74 113.48V109.25L128.86 112.68C128.793 112.793 128.723 112.877 128.65 112.93C128.577 112.983 128.477 113.01 128.35 113.01C128.223 113.01 128.12 112.983 128.04 112.93C127.96 112.87 127.89 112.787 127.83 112.68L125.95 109.27V113.48C125.95 113.88 125.757 114.08 125.37 114.08ZM134.942 114.1C134.588 114.1 134.272 114.033 133.992 113.9C133.718 113.76 133.502 113.573 133.342 113.34C133.188 113.107 133.112 112.843 133.112 112.55C133.112 112.19 133.205 111.907 133.392 111.7C133.578 111.487 133.882 111.333 134.302 111.24C134.722 111.147 135.285 111.1 135.992 111.1H136.342V110.89C136.342 110.557 136.268 110.317 136.122 110.17C135.975 110.023 135.728 109.95 135.382 109.95C135.188 109.95 134.978 109.973 134.752 110.02C134.532 110.067 134.298 110.147 134.052 110.26C133.892 110.333 133.758 110.343 133.652 110.29C133.545 110.23 133.472 110.14 133.432 110.02C133.398 109.893 133.405 109.767 133.452 109.64C133.505 109.513 133.608 109.42 133.762 109.36C134.068 109.233 134.362 109.143 134.642 109.09C134.928 109.037 135.188 109.01 135.422 109.01C136.135 109.01 136.665 109.177 137.012 109.51C137.358 109.837 137.532 110.347 137.532 111.04V113.44C137.532 113.867 137.338 114.08 136.952 114.08C136.558 114.08 136.362 113.867 136.362 113.44V113.22C136.248 113.493 136.068 113.71 135.822 113.87C135.575 114.023 135.282 114.1 134.942 114.1ZM135.202 113.24C135.528 113.24 135.798 113.127 136.012 112.9C136.232 112.673 136.342 112.387 136.342 112.04V111.82H136.002C135.375 111.82 134.938 111.87 134.692 111.97C134.452 112.063 134.332 112.237 134.332 112.49C134.332 112.71 134.408 112.89 134.562 113.03C134.715 113.17 134.928 113.24 135.202 113.24ZM139.44 114.08C139.014 114.08 138.8 113.867 138.8 113.44V109.66C138.8 109.24 139.004 109.03 139.41 109.03C139.817 109.03 140.02 109.24 140.02 109.66V109.97C140.26 109.397 140.774 109.077 141.56 109.01C141.847 108.977 142.007 109.14 142.04 109.5C142.074 109.853 141.9 110.05 141.52 110.09L141.3 110.11C140.48 110.19 140.07 110.61 140.07 111.37V113.44C140.07 113.867 139.86 114.08 139.44 114.08ZM143.336 108.11C143.103 108.11 142.92 108.053 142.786 107.94C142.66 107.82 142.596 107.657 142.596 107.45C142.596 107.237 142.66 107.073 142.786 106.96C142.92 106.847 143.103 106.79 143.336 106.79C143.83 106.79 144.076 107.01 144.076 107.45C144.076 107.89 143.83 108.11 143.336 108.11ZM143.336 114.07C143.136 114.07 142.983 114.01 142.876 113.89C142.77 113.77 142.716 113.603 142.716 113.39V109.72C142.716 109.267 142.923 109.04 143.336 109.04C143.756 109.04 143.966 109.267 143.966 109.72V113.39C143.966 113.603 143.913 113.77 143.806 113.89C143.7 114.01 143.543 114.07 143.336 114.07ZM147.505 114.1C146.212 114.1 145.565 113.46 145.565 112.18V110.05H145.045C144.712 110.05 144.545 109.893 144.545 109.58C144.545 109.267 144.712 109.11 145.045 109.11H145.565V108.2C145.565 107.78 145.775 107.57 146.195 107.57C146.609 107.57 146.815 107.78 146.815 108.2V109.11H147.875C148.209 109.11 148.375 109.267 148.375 109.58C148.375 109.893 148.209 110.05 147.875 110.05H146.815V112.11C146.815 112.43 146.885 112.67 147.025 112.83C147.165 112.99 147.392 113.07 147.705 113.07C147.819 113.07 147.919 113.06 148.005 113.04C148.092 113.02 148.169 113.007 148.235 113C148.315 112.993 148.382 113.02 148.435 113.08C148.489 113.133 148.515 113.247 148.515 113.42C148.515 113.553 148.492 113.673 148.445 113.78C148.405 113.88 148.329 113.95 148.215 113.99C148.129 114.017 148.015 114.04 147.875 114.06C147.735 114.087 147.612 114.1 147.505 114.1ZM150.713 114.1C150.36 114.1 150.043 114.033 149.763 113.9C149.49 113.76 149.273 113.573 149.113 113.34C148.96 113.107 148.883 112.843 148.883 112.55C148.883 112.19 148.976 111.907 149.163 111.7C149.35 111.487 149.653 111.333 150.073 111.24C150.493 111.147 151.056 111.1 151.763 111.1H152.113V110.89C152.113 110.557 152.04 110.317 151.893 110.17C151.746 110.023 151.5 109.95 151.153 109.95C150.96 109.95 150.75 109.973 150.523 110.02C150.303 110.067 150.07 110.147 149.823 110.26C149.663 110.333 149.53 110.343 149.423 110.29C149.316 110.23 149.243 110.14 149.203 110.02C149.17 109.893 149.176 109.767 149.223 109.64C149.276 109.513 149.38 109.42 149.533 109.36C149.84 109.233 150.133 109.143 150.413 109.09C150.7 109.037 150.96 109.01 151.193 109.01C151.906 109.01 152.436 109.177 152.783 109.51C153.13 109.837 153.303 110.347 153.303 111.04V113.44C153.303 113.867 153.11 114.08 152.723 114.08C152.33 114.08 152.133 113.867 152.133 113.44V113.22C152.02 113.493 151.84 113.71 151.593 113.87C151.346 114.023 151.053 114.1 150.713 114.1ZM150.973 113.24C151.3 113.24 151.57 113.127 151.783 112.9C152.003 112.673 152.113 112.387 152.113 112.04V111.82H151.773C151.146 111.82 150.71 111.87 150.463 111.97C150.223 112.063 150.103 112.237 150.103 112.49C150.103 112.71 150.18 112.89 150.333 113.03C150.486 113.17 150.7 113.24 150.973 113.24ZM156.242 114.1C155.129 114.1 154.572 113.477 154.572 112.23V107.5C154.572 107.08 154.779 106.87 155.192 106.87C155.612 106.87 155.822 107.08 155.822 107.5V112.17C155.822 112.77 156.072 113.07 156.572 113.07C156.625 113.07 156.675 113.07 156.722 113.07C156.769 113.063 156.815 113.057 156.862 113.05C156.955 113.037 157.019 113.063 157.052 113.13C157.085 113.19 157.102 113.317 157.102 113.51C157.102 113.677 157.069 113.807 157.002 113.9C156.935 113.993 156.825 114.05 156.672 114.07C156.532 114.09 156.389 114.1 156.242 114.1ZM161.28 114C160.827 114 160.6 113.773 160.6 113.32V107.63C160.6 107.177 160.827 106.95 161.28 106.95H163.22C164.4 106.95 165.31 107.253 165.95 107.86C166.597 108.467 166.92 109.337 166.92 110.47C166.92 111.597 166.597 112.467 165.95 113.08C165.31 113.693 164.4 114 163.22 114H161.28ZM161.88 112.94H163.14C164.767 112.94 165.58 112.117 165.58 110.47C165.58 108.83 164.767 108.01 163.14 108.01H161.88V112.94ZM169.707 114.1C169.354 114.1 169.037 114.033 168.757 113.9C168.484 113.76 168.267 113.573 168.107 113.34C167.954 113.107 167.877 112.843 167.877 112.55C167.877 112.19 167.971 111.907 168.157 111.7C168.344 111.487 168.647 111.333 169.067 111.24C169.487 111.147 170.051 111.1 170.757 111.1H171.107V110.89C171.107 110.557 171.034 110.317 170.887 110.17C170.741 110.023 170.494 109.95 170.147 109.95C169.954 109.95 169.744 109.973 169.517 110.02C169.297 110.067 169.064 110.147 168.817 110.26C168.657 110.333 168.524 110.343 168.417 110.29C168.311 110.23 168.237 110.14 168.197 110.02C168.164 109.893 168.171 109.767 168.217 109.64C168.271 109.513 168.374 109.42 168.527 109.36C168.834 109.233 169.127 109.143 169.407 109.09C169.694 109.037 169.954 109.01 170.187 109.01C170.901 109.01 171.431 109.177 171.777 109.51C172.124 109.837 172.297 110.347 172.297 111.04V113.44C172.297 113.867 172.104 114.08 171.717 114.08C171.324 114.08 171.127 113.867 171.127 113.44V113.22C171.014 113.493 170.834 113.71 170.587 113.87C170.341 114.023 170.047 114.1 169.707 114.1ZM169.967 113.24C170.294 113.24 170.564 113.127 170.777 112.9C170.997 112.673 171.107 112.387 171.107 112.04V111.82H170.767C170.141 111.82 169.704 111.87 169.457 111.97C169.217 112.063 169.097 112.237 169.097 112.49C169.097 112.71 169.174 112.89 169.327 113.03C169.481 113.17 169.694 113.24 169.967 113.24ZM175.806 114.1C174.513 114.1 173.866 113.46 173.866 112.18V110.05H173.346C173.013 110.05 172.846 109.893 172.846 109.58C172.846 109.267 173.013 109.11 173.346 109.11H173.866V108.2C173.866 107.78 174.076 107.57 174.496 107.57C174.909 107.57 175.116 107.78 175.116 108.2V109.11H176.176C176.509 109.11 176.676 109.267 176.676 109.58C176.676 109.893 176.509 110.05 176.176 110.05H175.116V112.11C175.116 112.43 175.186 112.67 175.326 112.83C175.466 112.99 175.693 113.07 176.006 113.07C176.119 113.07 176.219 113.06 176.306 113.04C176.393 113.02 176.469 113.007 176.536 113C176.616 112.993 176.683 113.02 176.736 113.08C176.789 113.133 176.816 113.247 176.816 113.42C176.816 113.553 176.793 113.673 176.746 113.78C176.706 113.88 176.629 113.95 176.516 113.99C176.429 114.017 176.316 114.04 176.176 114.06C176.036 114.087 175.913 114.1 175.806 114.1ZM179.765 114.1C179.212 114.1 178.735 113.997 178.335 113.79C177.935 113.583 177.625 113.29 177.405 112.91C177.192 112.53 177.085 112.08 177.085 111.56C177.085 111.053 177.188 110.61 177.395 110.23C177.608 109.85 177.898 109.553 178.265 109.34C178.638 109.12 179.062 109.01 179.535 109.01C180.228 109.01 180.775 109.23 181.175 109.67C181.582 110.11 181.785 110.71 181.785 111.47C181.785 111.717 181.625 111.84 181.305 111.84H178.285C178.378 112.713 178.878 113.15 179.785 113.15C179.958 113.15 180.152 113.13 180.365 113.09C180.585 113.043 180.792 112.967 180.985 112.86C181.158 112.76 181.305 112.73 181.425 112.77C181.545 112.803 181.628 112.873 181.675 112.98C181.728 113.087 181.735 113.207 181.695 113.34C181.662 113.467 181.568 113.577 181.415 113.67C181.182 113.817 180.912 113.927 180.605 114C180.305 114.067 180.025 114.1 179.765 114.1ZM179.585 109.86C179.218 109.86 178.922 109.973 178.695 110.2C178.468 110.427 178.332 110.733 178.285 111.12H180.745C180.718 110.713 180.605 110.403 180.405 110.19C180.212 109.97 179.938 109.86 179.585 109.86ZM125 125.67C124.9 125.67 124.817 125.64 124.75 125.58C124.683 125.513 124.65 125.433 124.65 125.34C124.65 125.24 124.683 125.16 124.75 125.1C124.817 125.033 124.9 125 125 125H127.25C127.343 125 127.423 125.033 127.49 125.1C127.557 125.16 127.59 125.24 127.59 125.34C127.59 125.433 127.557 125.513 127.49 125.58C127.423 125.64 127.343 125.67 127.25 125.67H125Z" fill="#231F21"/>
<path d="M222.45 30C221.997 30 221.77 29.7733 221.77 29.32V23.63C221.77 23.1767 221.997 22.95 222.45 22.95H224.39C225.57 22.95 226.48 23.2533 227.12 23.86C227.767 24.4667 228.09 25.3367 228.09 26.47C228.09 27.5967 227.767 28.4667 227.12 29.08C226.48 29.6933 225.57 30 224.39 30H222.45ZM223.05 28.94H224.31C225.937 28.94 226.75 28.1167 226.75 26.47C226.75 24.83 225.937 24.01 224.31 24.01H223.05V28.94ZM230.877 30.1C230.524 30.1 230.207 30.0333 229.927 29.9C229.654 29.76 229.437 29.5733 229.277 29.34C229.124 29.1067 229.047 28.8433 229.047 28.55C229.047 28.19 229.141 27.9067 229.327 27.7C229.514 27.4867 229.817 27.3333 230.237 27.24C230.657 27.1467 231.221 27.1 231.927 27.1H232.277V26.89C232.277 26.5567 232.204 26.3167 232.057 26.17C231.911 26.0233 231.664 25.95 231.317 25.95C231.124 25.95 230.914 25.9733 230.687 26.02C230.467 26.0667 230.234 26.1467 229.987 26.26C229.827 26.3333 229.694 26.3433 229.587 26.29C229.481 26.23 229.407 26.14 229.367 26.02C229.334 25.8933 229.341 25.7667 229.387 25.64C229.441 25.5133 229.544 25.42 229.697 25.36C230.004 25.2333 230.297 25.1433 230.577 25.09C230.864 25.0367 231.124 25.01 231.357 25.01C232.071 25.01 232.601 25.1767 232.947 25.51C233.294 25.8367 233.467 26.3467 233.467 27.04V29.44C233.467 29.8667 233.274 30.08 232.887 30.08C232.494 30.08 232.297 29.8667 232.297 29.44V29.22C232.184 29.4933 232.004 29.71 231.757 29.87C231.511 30.0233 231.217 30.1 230.877 30.1ZM231.137 29.24C231.464 29.24 231.734 29.1267 231.947 28.9C232.167 28.6733 232.277 28.3867 232.277 28.04V27.82H231.937C231.311 27.82 230.874 27.87 230.627 27.97C230.387 28.0633 230.267 28.2367 230.267 28.49C230.267 28.71 230.344 28.89 230.497 29.03C230.651 29.17 230.864 29.24 231.137 29.24ZM236.976 30.1C235.683 30.1 235.036 29.46 235.036 28.18V26.05H234.516C234.183 26.05 234.016 25.8933 234.016 25.58C234.016 25.2667 234.183 25.11 234.516 25.11H235.036V24.2C235.036 23.78 235.246 23.57 235.666 23.57C236.079 23.57 236.286 23.78 236.286 24.2V25.11H237.346C237.679 25.11 237.846 25.2667 237.846 25.58C237.846 25.8933 237.679 26.05 237.346 26.05H236.286V28.11C236.286 28.43 236.356 28.67 236.496 28.83C236.636 28.99 236.863 29.07 237.176 29.07C237.289 29.07 237.389 29.06 237.476 29.04C237.563 29.02 237.639 29.0067 237.706 29C237.786 28.9933 237.853 29.02 237.906 29.08C237.959 29.1333 237.986 29.2467 237.986 29.42C237.986 29.5533 237.963 29.6733 237.916 29.78C237.876 29.88 237.799 29.95 237.686 29.99C237.599 30.0167 237.486 30.04 237.346 30.06C237.206 30.0867 237.083 30.1 236.976 30.1ZM240.935 30.1C240.382 30.1 239.905 29.9967 239.505 29.79C239.105 29.5833 238.795 29.29 238.575 28.91C238.362 28.53 238.255 28.08 238.255 27.56C238.255 27.0533 238.358 26.61 238.565 26.23C238.778 25.85 239.068 25.5533 239.435 25.34C239.808 25.12 240.232 25.01 240.705 25.01C241.398 25.01 241.945 25.23 242.345 25.67C242.752 26.11 242.955 26.71 242.955 27.47C242.955 27.7167 242.795 27.84 242.475 27.84H239.455C239.548 28.7133 240.048 29.15 240.955 29.15C241.128 29.15 241.322 29.13 241.535 29.09C241.755 29.0433 241.962 28.9667 242.155 28.86C242.328 28.76 242.475 28.73 242.595 28.77C242.715 28.8033 242.798 28.8733 242.845 28.98C242.898 29.0867 242.905 29.2067 242.865 29.34C242.832 29.4667 242.738 29.5767 242.585 29.67C242.352 29.8167 242.082 29.9267 241.775 30C241.475 30.0667 241.195 30.1 240.935 30.1ZM240.755 25.86C240.388 25.86 240.092 25.9733 239.865 26.2C239.638 26.4267 239.502 26.7333 239.455 27.12H241.915C241.888 26.7133 241.775 26.4033 241.575 26.19C241.382 25.97 241.108 25.86 240.755 25.86ZM248.89 30.1C248.383 30.1 247.943 29.9967 247.57 29.79C247.196 29.5833 246.906 29.29 246.7 28.91C246.493 28.5233 246.39 28.07 246.39 27.55C246.39 27.03 246.493 26.58 246.7 26.2C246.906 25.82 247.196 25.5267 247.57 25.32C247.943 25.1133 248.383 25.01 248.89 25.01C249.396 25.01 249.836 25.1133 250.21 25.32C250.583 25.5267 250.873 25.82 251.08 26.2C251.286 26.58 251.39 27.03 251.39 27.55C251.39 28.07 251.286 28.5233 251.08 28.91C250.873 29.29 250.583 29.5833 250.21 29.79C249.836 29.9967 249.396 30.1 248.89 30.1ZM248.89 29.15C249.263 29.15 249.563 29.0167 249.79 28.75C250.016 28.4767 250.13 28.0767 250.13 27.55C250.13 27.0167 250.016 26.62 249.79 26.36C249.563 26.0933 249.263 25.96 248.89 25.96C248.516 25.96 248.216 26.0933 247.99 26.36C247.763 26.62 247.65 27.0167 247.65 27.55C247.65 28.0767 247.763 28.4767 247.99 28.75C248.216 29.0167 248.516 29.15 248.89 29.15ZM253.333 30.08C252.913 30.08 252.703 29.8667 252.703 29.44V26.05H252.243C251.909 26.05 251.743 25.8933 251.743 25.58C251.743 25.2667 251.909 25.11 252.243 25.11H252.703V25.1C252.703 24.4133 252.876 23.9 253.223 23.56C253.569 23.2133 254.069 23.01 254.723 22.95L255.063 22.92C255.236 22.9067 255.363 22.9433 255.443 23.03C255.523 23.1167 255.563 23.2233 255.563 23.35C255.569 23.47 255.539 23.58 255.473 23.68C255.406 23.7733 255.309 23.8267 255.183 23.84L255.043 23.85C254.663 23.8767 254.386 23.9733 254.213 24.14C254.039 24.3067 253.953 24.56 253.953 24.9V25.11H254.803C255.136 25.11 255.303 25.2667 255.303 25.58C255.303 25.8933 255.136 26.05 254.803 26.05H253.953V29.44C253.953 29.8667 253.746 30.08 253.333 30.08ZM259.53 30C259.077 30 258.85 29.7733 258.85 29.32V23.63C258.85 23.1767 259.077 22.95 259.53 22.95H261.93C262.67 22.95 263.243 23.1133 263.65 23.44C264.057 23.76 264.26 24.2067 264.26 24.78C264.26 25.16 264.163 25.4867 263.97 25.76C263.777 26.0333 263.51 26.2333 263.17 26.36C263.57 26.4733 263.88 26.6733 264.1 26.96C264.327 27.24 264.44 27.5967 264.44 28.03C264.44 28.6567 264.227 29.1433 263.8 29.49C263.38 29.83 262.793 30 262.04 30H259.53ZM260.08 25.94H261.71C262.583 25.94 263.02 25.6033 263.02 24.93C263.02 24.2567 262.583 23.92 261.71 23.92H260.08V25.94ZM260.08 29.03H261.88C262.76 29.03 263.2 28.6767 263.2 27.97C263.2 27.2633 262.76 26.91 261.88 26.91H260.08V29.03ZM266.235 24.11C266.002 24.11 265.818 24.0533 265.685 23.94C265.558 23.82 265.495 23.6567 265.495 23.45C265.495 23.2367 265.558 23.0733 265.685 22.96C265.818 22.8467 266.002 22.79 266.235 22.79C266.728 22.79 266.975 23.01 266.975 23.45C266.975 23.89 266.728 24.11 266.235 24.11ZM266.235 30.07C266.035 30.07 265.882 30.01 265.775 29.89C265.668 29.77 265.615 29.6033 265.615 29.39V25.72C265.615 25.2667 265.822 25.04 266.235 25.04C266.655 25.04 266.865 25.2667 266.865 25.72V29.39C266.865 29.6033 266.812 29.77 266.705 29.89C266.598 30.01 266.442 30.07 266.235 30.07ZM268.804 30.08C268.377 30.08 268.164 29.8667 268.164 29.44V25.66C268.164 25.24 268.367 25.03 268.774 25.03C269.18 25.03 269.384 25.24 269.384 25.66V25.97C269.624 25.3967 270.137 25.0767 270.924 25.01C271.21 24.9767 271.37 25.14 271.404 25.5C271.437 25.8533 271.264 26.05 270.884 26.09L270.664 26.11C269.844 26.19 269.434 26.61 269.434 27.37V29.44C269.434 29.8667 269.224 30.08 268.804 30.08ZM274.603 30.1C273.31 30.1 272.663 29.46 272.663 28.18V26.05H272.143C271.81 26.05 271.643 25.8933 271.643 25.58C271.643 25.2667 271.81 25.11 272.143 25.11H272.663V24.2C272.663 23.78 272.873 23.57 273.293 23.57C273.706 23.57 273.913 23.78 273.913 24.2V25.11H274.973C275.306 25.11 275.473 25.2667 275.473 25.58C275.473 25.8933 275.306 26.05 274.973 26.05H273.913V28.11C273.913 28.43 273.983 28.67 274.123 28.83C274.263 28.99 274.49 29.07 274.803 29.07C274.916 29.07 275.016 29.06 275.103 29.04C275.19 29.02 275.266 29.0067 275.333 29C275.413 28.9933 275.48 29.02 275.533 29.08C275.586 29.1333 275.613 29.2467 275.613 29.42C275.613 29.5533 275.59 29.6733 275.543 29.78C275.503 29.88 275.426 29.95 275.313 29.99C275.226 30.0167 275.113 30.04 274.973 30.06C274.833 30.0867 274.71 30.1 274.603 30.1ZM276.948 30.08C276.534 30.08 276.328 29.8667 276.328 29.44V23.5C276.328 23.08 276.534 22.87 276.948 22.87C277.368 22.87 277.578 23.08 277.578 23.5V25.82C277.744 25.5533 277.968 25.3533 278.248 25.22C278.528 25.08 278.838 25.01 279.178 25.01C280.331 25.01 280.908 25.68 280.908 27.02V29.44C280.908 29.8667 280.701 30.08 280.288 30.08C279.868 30.08 279.658 29.8667 279.658 29.44V27.08C279.658 26.7 279.584 26.4233 279.438 26.25C279.298 26.0767 279.078 25.99 278.778 25.99C278.411 25.99 278.118 26.1067 277.898 26.34C277.684 26.5667 277.578 26.87 277.578 27.25V29.44C277.578 29.8667 277.368 30.08 276.948 30.08ZM222.33 44C222.117 44 221.96 43.9533 221.86 43.86C221.767 43.76 221.72 43.6167 221.72 43.43C221.72 43.3167 221.75 43.2067 221.81 43.1C221.87 42.9933 221.957 42.88 222.07 42.76L224.08 40.62C224.387 40.3 224.607 40.01 224.74 39.75C224.873 39.4833 224.94 39.2167 224.94 38.95C224.94 38.27 224.53 37.93 223.71 37.93C223.483 37.93 223.257 37.9633 223.03 38.03C222.803 38.09 222.573 38.1967 222.34 38.35C222.193 38.45 222.057 38.48 221.93 38.44C221.803 38.4 221.707 38.32 221.64 38.2C221.573 38.0733 221.55 37.94 221.57 37.8C221.597 37.66 221.683 37.54 221.83 37.44C222.117 37.2467 222.437 37.1 222.79 37C223.15 36.9 223.51 36.85 223.87 36.85C224.623 36.85 225.2 37.02 225.6 37.36C226.007 37.7 226.21 38.1867 226.21 38.82C226.21 39.2467 226.107 39.6567 225.9 40.05C225.7 40.4433 225.383 40.8667 224.95 41.32L223.4 42.94H226.01C226.377 42.94 226.56 43.1133 226.56 43.46C226.56 43.82 226.377 44 226.01 44H222.33ZM231.126 44.08C230.926 44.08 230.769 44.0267 230.656 43.92C230.543 43.8067 230.486 43.6467 230.486 43.44V42.66H228.016C227.809 42.66 227.643 42.6167 227.516 42.53C227.396 42.4433 227.336 42.31 227.336 42.13C227.336 42.0167 227.363 41.8967 227.416 41.77C227.476 41.6433 227.579 41.4767 227.726 41.27L230.466 37.3C230.559 37.16 230.663 37.0533 230.776 36.98C230.889 36.9067 231.019 36.87 231.166 36.87C231.339 36.87 231.483 36.9233 231.596 37.03C231.709 37.13 231.766 37.29 231.766 37.51V41.6H232.256C232.643 41.6 232.836 41.7767 232.836 42.13C232.836 42.4833 232.643 42.66 232.256 42.66H231.766V43.44C231.766 43.6467 231.709 43.8067 231.596 43.92C231.483 44.0267 231.326 44.08 231.126 44.08ZM230.486 41.6V38.91L228.646 41.6H230.486ZM237.157 44C236.704 44 236.477 43.7733 236.477 43.32V37.63C236.477 37.1767 236.704 36.95 237.157 36.95H239.097C240.277 36.95 241.187 37.2533 241.827 37.86C242.474 38.4667 242.797 39.3367 242.797 40.47C242.797 41.5967 242.474 42.4667 241.827 43.08C241.187 43.6933 240.277 44 239.097 44H237.157ZM237.757 42.94H239.017C240.644 42.94 241.457 42.1167 241.457 40.47C241.457 38.83 240.644 38.01 239.017 38.01H237.757V42.94ZM246.384 44.1C245.831 44.1 245.354 43.9967 244.954 43.79C244.554 43.5833 244.244 43.29 244.024 42.91C243.811 42.53 243.704 42.08 243.704 41.56C243.704 41.0533 243.808 40.61 244.014 40.23C244.228 39.85 244.518 39.5533 244.884 39.34C245.258 39.12 245.681 39.01 246.154 39.01C246.848 39.01 247.394 39.23 247.794 39.67C248.201 40.11 248.404 40.71 248.404 41.47C248.404 41.7167 248.244 41.84 247.924 41.84H244.904C244.998 42.7133 245.498 43.15 246.404 43.15C246.578 43.15 246.771 43.13 246.984 43.09C247.204 43.0433 247.411 42.9667 247.604 42.86C247.778 42.76 247.924 42.73 248.044 42.77C248.164 42.8033 248.248 42.8733 248.294 42.98C248.348 43.0867 248.354 43.2067 248.314 43.34C248.281 43.4667 248.188 43.5767 248.034 43.67C247.801 43.8167 247.531 43.9267 247.224 44C246.924 44.0667 246.644 44.1 246.384 44.1ZM246.204 39.86C245.838 39.86 245.541 39.9733 245.314 40.2C245.088 40.4267 244.951 40.7333 244.904 41.12H247.364C247.338 40.7133 247.224 40.4033 247.024 40.19C246.831 39.97 246.558 39.86 246.204 39.86ZM251.654 44.1C251.141 44.1 250.694 43.9967 250.314 43.79C249.934 43.5767 249.641 43.2767 249.434 42.89C249.227 42.5033 249.124 42.05 249.124 41.53C249.124 41.01 249.227 40.5633 249.434 40.19C249.641 39.81 249.934 39.52 250.314 39.32C250.694 39.1133 251.141 39.01 251.654 39.01C251.874 39.01 252.111 39.04 252.364 39.1C252.624 39.16 252.867 39.26 253.094 39.4C253.227 39.48 253.304 39.5833 253.324 39.71C253.351 39.8367 253.334 39.9533 253.274 40.06C253.221 40.1667 253.137 40.2433 253.024 40.29C252.917 40.3367 252.794 40.32 252.654 40.24C252.347 40.0667 252.051 39.98 251.764 39.98C251.331 39.98 250.994 40.1167 250.754 40.39C250.521 40.6567 250.404 41.04 250.404 41.54C250.404 42.0333 250.521 42.4233 250.754 42.71C250.994 42.99 251.331 43.13 251.764 43.13C252.051 43.13 252.347 43.0467 252.654 42.88C252.794 42.8 252.917 42.7833 253.024 42.83C253.131 42.8767 253.207 42.9567 253.254 43.07C253.301 43.1767 253.311 43.2933 253.284 43.42C253.257 43.54 253.181 43.64 253.054 43.72C252.834 43.8533 252.601 43.95 252.354 44.01C252.107 44.07 251.874 44.1 251.654 44.1ZM257.736 44C257.369 44 257.186 43.82 257.186 43.46C257.186 43.1133 257.369 42.94 257.736 42.94H258.856V38.41L258.006 38.92C257.846 39.0133 257.699 39.0367 257.566 38.99C257.439 38.9433 257.342 38.86 257.276 38.74C257.209 38.62 257.189 38.49 257.216 38.35C257.242 38.2033 257.336 38.0833 257.496 37.99L258.876 37.16C259.009 37.08 259.142 37.0133 259.276 36.96C259.409 36.9 259.532 36.87 259.646 36.87C259.786 36.87 259.902 36.91 259.996 36.99C260.089 37.0633 260.136 37.1867 260.136 37.36V42.94H261.156C261.522 42.94 261.706 43.1133 261.706 43.46C261.706 43.82 261.522 44 261.156 44H257.736ZM264.622 44.1C264.335 44.1 264.039 44.0567 263.732 43.97C263.425 43.8767 263.139 43.74 262.872 43.56C262.745 43.4733 262.669 43.3633 262.642 43.23C262.622 43.09 262.642 42.96 262.702 42.84C262.762 42.7133 262.852 42.63 262.972 42.59C263.099 42.5433 263.242 42.5667 263.402 42.66C263.629 42.7933 263.842 42.8867 264.042 42.94C264.242 42.9933 264.442 43.02 264.642 43.02C265.222 43.02 265.665 42.8167 265.972 42.41C266.279 42.0033 266.432 41.3967 266.432 40.59V40.3C266.292 40.6667 266.065 40.9533 265.752 41.16C265.439 41.3667 265.079 41.47 264.672 41.47C264.272 41.47 263.912 41.3733 263.592 41.18C263.279 40.9867 263.032 40.72 262.852 40.38C262.672 40.0333 262.582 39.6433 262.582 39.21C262.582 38.75 262.679 38.3433 262.872 37.99C263.072 37.6367 263.349 37.36 263.702 37.16C264.055 36.9533 264.459 36.85 264.912 36.85C265.785 36.85 266.459 37.1567 266.932 37.77C267.412 38.3767 267.652 39.2367 267.652 40.35C267.652 41.5433 267.385 42.4667 266.852 43.12C266.319 43.7733 265.575 44.1 264.622 44.1ZM264.992 40.45C265.352 40.45 265.642 40.33 265.862 40.09C266.089 39.85 266.202 39.5367 266.202 39.15C266.202 38.7633 266.089 38.4533 265.862 38.22C265.642 37.98 265.352 37.86 264.992 37.86C264.632 37.86 264.339 37.98 264.112 38.22C263.892 38.4533 263.782 38.7633 263.782 39.15C263.782 39.5367 263.892 39.85 264.112 40.09C264.339 40.33 264.632 40.45 264.992 40.45ZM270.618 44.1C270.331 44.1 270.035 44.0567 269.728 43.97C269.421 43.8767 269.135 43.74 268.868 43.56C268.741 43.4733 268.665 43.3633 268.638 43.23C268.618 43.09 268.638 42.96 268.698 42.84C268.758 42.7133 268.848 42.63 268.968 42.59C269.095 42.5433 269.238 42.5667 269.398 42.66C269.625 42.7933 269.838 42.8867 270.038 42.94C270.238 42.9933 270.438 43.02 270.638 43.02C271.218 43.02 271.661 42.8167 271.968 42.41C272.275 42.0033 272.428 41.3967 272.428 40.59V40.3C272.288 40.6667 272.061 40.9533 271.748 41.16C271.435 41.3667 271.075 41.47 270.668 41.47C270.268 41.47 269.908 41.3733 269.588 41.18C269.275 40.9867 269.028 40.72 268.848 40.38C268.668 40.0333 268.578 39.6433 268.578 39.21C268.578 38.75 268.675 38.3433 268.868 37.99C269.068 37.6367 269.345 37.36 269.698 37.16C270.051 36.9533 270.455 36.85 270.908 36.85C271.781 36.85 272.455 37.1567 272.928 37.77C273.408 38.3767 273.648 39.2367 273.648 40.35C273.648 41.5433 273.381 42.4667 272.848 43.12C272.315 43.7733 271.571 44.1 270.618 44.1ZM270.988 40.45C271.348 40.45 271.638 40.33 271.858 40.09C272.085 39.85 272.198 39.5367 272.198 39.15C272.198 38.7633 272.085 38.4533 271.858 38.22C271.638 37.98 271.348 37.86 270.988 37.86C270.628 37.86 270.335 37.98 270.108 38.22C269.888 38.4533 269.778 38.7633 269.778 39.15C269.778 39.5367 269.888 39.85 270.108 40.09C270.335 40.33 270.628 40.45 270.988 40.45ZM277.164 44.1C276.344 44.1 275.701 43.9233 275.234 43.57C274.774 43.2167 274.544 42.7267 274.544 42.1C274.544 41.6733 274.654 41.31 274.874 41.01C275.101 40.71 275.394 40.5 275.754 40.38C275.434 40.24 275.181 40.0267 274.994 39.74C274.814 39.4533 274.724 39.1233 274.724 38.75C274.724 38.1567 274.944 37.6933 275.384 37.36C275.824 37.02 276.417 36.85 277.164 36.85C277.917 36.85 278.514 37.02 278.954 37.36C279.394 37.6933 279.614 38.1567 279.614 38.75C279.614 39.1233 279.521 39.4567 279.334 39.75C279.154 40.0367 278.907 40.2467 278.594 40.38C278.954 40.5 279.241 40.7133 279.454 41.02C279.674 41.32 279.784 41.68 279.784 42.1C279.784 42.7267 279.551 43.2167 279.084 43.57C278.624 43.9233 277.984 44.1 277.164 44.1ZM277.164 39.93C277.557 39.93 277.864 39.8367 278.084 39.65C278.311 39.4633 278.424 39.2067 278.424 38.88C278.424 38.56 278.311 38.31 278.084 38.13C277.864 37.9433 277.557 37.85 277.164 37.85C276.771 37.85 276.464 37.9433 276.244 38.13C276.024 38.31 275.914 38.56 275.914 38.88C275.914 39.2067 276.024 39.4633 276.244 39.65C276.464 39.8367 276.771 39.93 277.164 39.93ZM277.164 43.1C278.117 43.1 278.594 42.7367 278.594 42.01C278.594 41.29 278.117 40.93 277.164 40.93C276.697 40.93 276.341 41.02 276.094 41.2C275.854 41.38 275.734 41.65 275.734 42.01C275.734 42.37 275.854 42.6433 276.094 42.83C276.341 43.01 276.697 43.1 277.164 43.1Z" fill="#231F21"/>
</svg>
