<svg width="326" height="88" viewBox="0 0 326 88" fill="none" xmlns="http://www.w3.org/2000/svg">
<path d="M275 0H321C323.761 0 326 2.23858 326 5V83C326 85.7614 323.761 88 321 88H275V0Z" fill="#FF3C3C"/>
<path d="M299.167 38V38.8333H295V40.5H295.833V51.3333C295.833 51.7754 296.009 52.1993 296.321 52.5118C296.634 52.8244 297.058 53 297.5 53H305.833C306.275 53 306.699 52.8244 307.012 52.5118C307.324 52.1993 307.5 51.7754 307.5 51.3333V40.5H308.333V38.8333H304.167V38H299.167ZM297.5 40.5H305.833V51.3333H297.5V40.5ZM299.167 42.1667V49.6667H300.833V42.1667H299.167ZM302.5 42.1667V49.6667H304.167V42.1667H302.5Z" fill="white"/>
<path d="M231 0H281V88H231V0Z" fill="url(#paint0_linear_7214_792)"/>
<path d="M-63 5C-63 2.23858 -60.7614 0 -58 0H229C231.761 0 234 2.23858 234 5V31C234 33.7614 231.761 36 229 36H-58C-60.7614 36 -63 33.7614 -63 31V5Z" fill="#F2F2F2"/>
<path d="M-63 31H234V83C234 85.7614 231.761 88 229 88H-58C-60.7614 88 -63 85.7614 -63 83V31Z" fill="white"/>
<path d="M259.217 43L260 43.7833L252.433 51.3333H251.667V50.5667L259.217 43ZM262.217 38C262.008 38 261.792 38.0833 261.633 38.2417L260.108 39.7667L263.233 42.8917L264.758 41.3667C265.083 41.0417 265.083 40.5 264.758 40.1917L262.808 38.2417C262.642 38.075 262.433 38 262.217 38ZM259.217 40.6583L250 49.875V53H253.125L262.342 43.7833L259.217 40.6583Z" fill="white"/>
<path d="M132.667 26L135.017 28.35L127.383 36L228.501 37.6667L127.383 39.3333L135.033 46.9833L132.667 49.3333L121 37.6667L132.667 26Z" fill="#3DC0F0"/>
<path d="M182.994 49.3956L177.254 49.9316C177.055 49.9465 176.846 49.9991 176.652 50.1071L175.863 50.5456L172.915 45.2401C172.024 43.6376 170.063 42.8526 168.391 43.5907C166.507 44.4313 165.779 46.695 166.757 48.4554L172.255 58.3499L169.715 59.1258C169.464 59.2176 168.375 59.6318 167.992 60.9728L167.244 63.6291L176.961 66.476C177.666 66.6877 178.427 66.5986 179.071 66.2411L187.023 61.8224C188.213 61.1612 188.748 59.7515 188.288 58.4659L185.735 51.2408C185.337 50.0955 184.223 49.3482 182.994 49.3956ZM183.121 52.1691L185.674 59.3942L177.722 63.813L170.679 61.7199L176.343 59.9873L169.185 47.1061C168.996 46.7662 169.115 46.3507 169.455 46.1618C169.795 45.9729 170.21 46.0916 170.399 46.4315L174.568 53.9344L176.705 52.7471L183.121 52.1691Z" fill="#3DC0F0"/>
<defs>
<linearGradient id="paint0_linear_7214_792" x1="270.216" y1="33" x2="230.999" y2="33.9612" gradientUnits="userSpaceOnUse">
<stop stop-color="#63D5FF"/>
<stop offset="1" stop-color="#FBFEFF" stop-opacity="0.81"/>
</linearGradient>
</defs>
</svg>
