<svg width="64" height="161" viewBox="0 0 64 161" fill="none" xmlns="http://www.w3.org/2000/svg">
<path d="M0 0H57C60.866 0 64 3.13401 64 7V154C64 157.866 60.866 161 57 161H0V0Z" fill="#63D5FF"/>
<path d="M35.4456 79.6667L36.3333 80.5544L27.7578 89.1111H26.8889V88.2422L35.4456 79.6667ZM38.8456 74C38.6094 74 38.3639 74.0944 38.1844 74.2739L36.4561 76.0022L39.9978 79.5439L41.7261 77.8156C42.0944 77.4472 42.0944 76.8333 41.7261 76.4839L39.5161 74.2739C39.3272 74.085 39.0911 74 38.8456 74ZM35.4456 77.0128L25 87.4583V91H28.5417L38.9872 80.5544L35.4456 77.0128Z" fill="white"/>
</svg>
