<svg width="24" height="24" viewBox="0 0 24 24" fill="none" xmlns="http://www.w3.org/2000/svg">
<path d="M5 13C6.1 13 7 12.1 7 11C7 9.9 6.1 9 5 9C3.9 9 3 9.9 3 11C3 12.1 3.9 13 5 13ZM6.13 14.1C5.76 14.04 5.39 14 5 14C4.01 14 3.07 14.21 2.22 14.58C1.48 14.9 1 15.62 1 16.43V18H5.5V16.39C5.5 15.56 5.73 14.78 6.13 14.1ZM19 13C20.1 13 21 12.1 21 11C21 9.9 20.1 9 19 9C17.9 9 17 9.9 17 11C17 12.1 17.9 13 19 13ZM23 16.43C23 15.62 22.52 14.9 21.78 14.58C20.93 14.21 19.99 14 19 14C18.61 14 18.24 14.04 17.87 14.1C18.27 14.78 18.5 15.56 18.5 16.39V18H23V16.43ZM16.24 13.65C15.07 13.13 13.63 12.75 12 12.75C10.37 12.75 8.93 13.14 7.76 13.65C6.68 14.13 6 15.21 6 16.39V18H18V16.39C18 15.21 17.32 14.13 16.24 13.65ZM8.07 16C8.16 15.77 8.2 15.61 8.98 15.31C9.95 14.93 10.97 14.75 12 14.75C13.03 14.75 14.05 14.93 15.02 15.31C15.79 15.61 15.83 15.77 15.93 16H8.07ZM12 8C12.55 8 13 8.45 13 9C13 9.55 12.55 10 12 10C11.45 10 11 9.55 11 9C11 8.45 11.45 8 12 8ZM12 6C10.34 6 9 7.34 9 9C9 10.66 10.34 12 12 12C13.66 12 15 10.66 15 9C15 7.34 13.66 6 12 6Z" fill="#3DC0F0"/>
<path d="M19.0002 8C19.0002 5.5 15.866 2.5 12 2.5C8.13401 2.5 5.00024 5.5 5.00024 8" stroke="#3DC0F0"/>
</svg>
