<svg width="30" height="40" viewBox="0 0 30 40" fill="none" xmlns="http://www.w3.org/2000/svg">
<path d="M28.8555 3.46687C29.2317 3.88781 29.4197 4.09828 29.5624 4.33251C29.7525 4.64481 29.884 4.98925 29.9503 5.34883C30 5.61852 30 5.90078 30 6.46529V38.7309C29.9999 38.9297 29.936 39.1202 29.8224 39.2608C29.7087 39.4013 29.5546 39.4804 29.3939 39.4805H0.606061C0.445362 39.4804 0.29128 39.4013 0.177649 39.2608C0.0640185 39.1202 0.000127336 38.9297 0 38.7309V0.74963C0.000127069 0.550864 0.0640184 0.360285 0.177649 0.219736C0.29128 0.0791875 0.445362 0.00015717 0.606061 0H23.7438C24.4025 0 24.7318 0 25.0416 0.0661479C25.4546 0.154345 25.8444 0.328752 26.1853 0.577958C26.441 0.764862 26.6605 1.01043 27.0994 1.50157L28.8555 3.46687Z" fill="#3DC0F0" fill-opacity="0.7"/>
<path d="M5.04893 8.18171C4.94929 8.18402 4.8543 8.23976 4.78443 8.33691C4.71457 8.43406 4.67542 8.56485 4.67542 8.7011C4.67542 8.83734 4.71457 8.96814 4.78443 9.06529C4.8543 9.16244 4.94929 9.21818 5.04893 9.22049H15.0668C15.1169 9.2219 15.1666 9.2098 15.2132 9.18486C15.2598 9.15993 15.3023 9.12267 15.3383 9.0752C15.3744 9.02774 15.4032 8.97101 15.4231 8.90829C15.4431 8.84556 15.4538 8.77806 15.4546 8.70966C15.4554 8.64127 15.4463 8.57333 15.4279 8.50974C15.4095 8.44615 15.382 8.38816 15.3472 8.33911C15.3123 8.29005 15.2707 8.2509 15.2247 8.22389C15.1787 8.19688 15.1293 8.18254 15.0793 8.18171C15.0751 8.18162 15.071 8.18162 15.0668 8.18171H5.04893Z" fill="white"/>
<path d="M5.05001 12.5977C4.95008 12.6 4.85482 12.6558 4.78475 12.7529C4.71468 12.8501 4.67542 12.9809 4.67542 13.1172C4.67542 13.2534 4.71468 13.3842 4.78475 13.4814C4.85482 13.5785 4.95008 13.6343 5.05001 13.6366H24.939C25.0398 13.6383 25.1369 13.5855 25.2092 13.4897C25.2815 13.394 25.3231 13.2631 25.3247 13.1256C25.3264 12.9882 25.288 12.8555 25.2181 12.7566C25.1481 12.6576 25.0523 12.6005 24.9515 12.5977C24.9473 12.5976 24.9431 12.5976 24.939 12.5977H5.05001Z" fill="white"/>
<path d="M5.04996 17.1431C4.95004 17.1451 4.8548 17.1939 4.78474 17.2789C4.71468 17.3639 4.67542 17.4784 4.67542 17.5976C4.67542 17.7168 4.71468 17.8313 4.78474 17.9163C4.8548 18.0013 4.95004 18.0501 5.04996 18.0521H24.936C24.9862 18.0533 25.036 18.0427 25.0827 18.0208C25.1294 17.999 25.1721 17.9664 25.2082 17.9249C25.2443 17.8834 25.2732 17.8337 25.2932 17.7788C25.3132 17.724 25.3239 17.6649 25.3247 17.6051C25.3255 17.5453 25.3164 17.4858 25.298 17.4302C25.2795 17.3746 25.252 17.3238 25.217 17.2809C25.1821 17.238 25.1404 17.2037 25.0943 17.1801C25.0482 17.1564 24.9987 17.1439 24.9485 17.1431C24.9444 17.143 24.9402 17.143 24.936 17.1431H5.04996Z" fill="white"/>
<path d="M5.04992 21.4288C4.95002 21.4308 4.85478 21.4796 4.78472 21.5646C4.71467 21.6496 4.67542 21.764 4.67542 21.8832C4.67542 22.0025 4.71467 22.1169 4.78472 22.2019C4.85478 22.2869 4.95002 22.3357 5.04992 22.3377H24.9359C24.9861 22.3389 25.0359 22.3284 25.0827 22.3065C25.1294 22.2847 25.172 22.2521 25.2081 22.2106C25.2443 22.169 25.2732 22.1194 25.2932 22.0645C25.3132 22.0096 25.3239 21.9506 25.3247 21.8907C25.3255 21.8309 25.3164 21.7714 25.298 21.7158C25.2795 21.6602 25.252 21.6094 25.217 21.5665C25.182 21.5236 25.1403 21.4893 25.0942 21.4657C25.0481 21.442 24.9986 21.4295 24.9484 21.4288C24.9443 21.4287 24.9401 21.4287 24.9359 21.4288H5.04992Z" fill="white"/>
<path d="M5.04992 25.8443C4.95002 25.8466 4.85478 25.9024 4.78472 25.9995C4.71467 26.0967 4.67542 26.2275 4.67542 26.3637C4.67542 26.4999 4.71467 26.6307 4.78472 26.7279C4.85478 26.825 4.95002 26.8808 5.04992 26.8831H24.9359C24.9861 26.8845 25.0359 26.8724 25.0827 26.8475C25.1294 26.8225 25.172 26.7853 25.2081 26.7378C25.2443 26.6903 25.2732 26.6336 25.2932 26.5709C25.3132 26.5082 25.3239 26.4407 25.3247 26.3723C25.3255 26.3039 25.3164 26.2359 25.298 26.1723C25.2795 26.1088 25.252 26.0508 25.217 26.0017C25.182 25.9527 25.1403 25.9135 25.0942 25.8865C25.0481 25.8595 24.9986 25.8451 24.9484 25.8443C24.9443 25.8442 24.9401 25.8442 24.9359 25.8443H5.04992Z" fill="white"/>
<path d="M5.04992 30.2598C4.95002 30.2621 4.85478 30.3179 4.78472 30.415C4.71467 30.5122 4.67542 30.643 4.67542 30.7792C4.67542 30.9155 4.71467 31.0463 4.78472 31.1434C4.85478 31.2406 4.95002 31.2963 5.04992 31.2986H24.9359C24.9861 31.3 25.0359 31.2879 25.0827 31.263C25.1294 31.2381 25.172 31.2008 25.2081 31.1533C25.2443 31.1059 25.2732 31.0491 25.2932 30.9864C25.3132 30.9237 25.3239 30.8562 25.3247 30.7878C25.3255 30.7194 25.3164 30.6515 25.298 30.5879C25.2795 30.5243 25.252 30.4663 25.217 30.4172C25.182 30.3682 25.1403 30.329 25.0942 30.302C25.0481 30.275 24.9986 30.2607 24.9484 30.2598C24.9443 30.2597 24.9401 30.2597 24.9359 30.2598H5.04992Z" fill="white"/>
<path d="M29.9999 4.80519H26.1224C26.0141 4.80519 25.9103 4.7519 25.8338 4.65705C25.7572 4.56219 25.7142 4.43353 25.7142 4.29938V0L29.9999 4.80519Z" fill="#3DC0F0" fill-opacity="0.7"/>
<path opacity="0.2" d="M29.9999 4.80519H26.1224C26.0141 4.80519 25.9103 4.7519 25.8338 4.65705C25.7572 4.56219 25.7142 4.43353 25.7142 4.29938V0L29.9999 4.80519Z" fill="black"/>
</svg>
