<svg width="280" height="198" viewBox="0 0 280 198" fill="none" xmlns="http://www.w3.org/2000/svg">
<g clip-path="url(#clip0)">
<path opacity="0.1" d="M242.641 197.233C251.528 197.233 258.733 195.32 258.733 192.961C258.733 190.602 251.528 188.689 242.641 188.689C233.753 188.689 226.549 190.602 226.549 192.961C226.549 195.32 233.753 197.233 242.641 197.233Z" fill="#3DC0F0"/>
<path opacity="0.1" d="M269.18 174.724C263.058 179.803 254.345 181.905 245.92 183.233L244.502 183.449C235.701 184.761 226.803 185.46 217.874 185.885C213.097 186.117 208.319 186.28 203.542 186.426L199.798 186.536C194.937 186.681 190.066 186.822 185.187 186.961C180.409 187.097 175.632 187.225 170.854 187.344C164.736 187.493 158.618 187.617 152.499 187.716C147.722 187.791 142.944 187.843 138.167 187.872C132.047 187.907 125.929 187.895 119.812 187.836C115.031 187.788 110.254 187.704 105.48 187.585C99.3579 187.427 93.2395 187.197 87.1244 186.894C82.974 186.691 78.826 186.447 74.6806 186.162L72.7923 186.029C54.9978 184.746 36.8839 182.446 21.3122 175.174L20.8923 174.975C20.6836 174.877 20.4749 174.779 20.2662 174.676C17.4071 173.309 14.6684 171.703 12.0793 169.876C7.47537 166.592 3.67358 162.584 1.66456 157.829C-1.48348 150.372 0.181057 141.989 3.77667 134.697C7.37228 127.405 12.7707 120.822 17.44 113.955C18.8078 111.944 20.1053 109.857 21.3122 107.717C28.8554 94.2978 32.5969 78.7687 24.689 65.8371C23.6453 64.1884 22.5182 62.5938 21.3122 61.0597C19.3836 58.5453 17.4224 56.0309 16.0973 53.2474C13.0071 46.7703 13.6709 39.4861 14.7973 32.5664C16.306 23.3662 19.0718 13.4568 27.7164 7.7089C36.6853 1.73968 49.4158 2.04141 60.5471 4.18872C77.8538 7.50523 93.8279 14.4475 109.953 20.7084C126.078 26.9693 142.97 32.6946 160.699 33.3107C164.507 33.441 168.32 33.3024 172.109 32.8958C177.16 32.3767 182.143 31.3274 186.974 29.7653C193.952 27.4672 200.301 24.0098 205.008 19.2048C215.103 8.93342 234.074 8.15646 247.753 14.3595C260.805 20.2785 269.246 32.8053 268.622 45.317C267.913 59.2443 257.483 70.695 247.926 82.4398C246.767 83.8629 245.623 85.2911 244.509 86.7294C243.887 87.5323 243.277 88.3369 242.679 89.1432C241.63 90.5664 240.617 91.9971 239.661 93.4454C234.778 100.87 231.326 109.789 234.688 117.805C236.574 122.293 240.172 125.718 244.509 128.708C254.227 135.403 267.642 139.909 273.676 149.283C278.876 157.362 276.95 168.267 269.18 174.724Z" fill="#3DC0F0"/>
<g opacity="0.1">
<path opacity="0.1" d="M139.676 138.129C139.686 138.365 139.703 138.597 139.728 138.823C141.685 138.044 143.605 137.205 145.489 136.309C146.494 136.175 147.429 135.718 148.152 135.006C148.702 134.73 149.25 134.44 149.794 134.151C149.671 133.891 149.531 133.639 149.376 133.397C148.318 131.725 146.708 130.679 144.936 130.737C143.163 130.794 141.629 131.944 140.681 133.676C139.954 135.044 139.607 136.582 139.676 138.129Z" fill="#3F3D56"/>
<path opacity="0.1" d="M139.386 129.336C139.424 130.877 139.871 132.38 140.681 133.691C141.742 135.358 143.352 136.404 145.124 136.346C145.248 136.346 145.376 136.329 145.489 136.319C146.494 136.185 147.429 135.728 148.152 135.016C148.642 134.55 149.055 134.008 149.376 133.412C150.086 132.043 150.432 130.515 150.382 128.975C150.331 127.434 149.887 125.931 149.09 124.612C148.029 122.94 146.419 121.894 144.647 121.951C142.874 122.009 141.343 123.158 140.395 124.891C139.668 126.256 139.32 127.791 139.386 129.336Z" fill="#3F3D56"/>
<path opacity="0.1" d="M144.834 127.554C147.87 127.454 150.224 124.152 150.094 120.179C149.964 116.205 147.397 113.065 144.362 113.164C141.326 113.264 138.971 116.566 139.102 120.54C139.232 124.513 141.799 127.654 144.834 127.554Z" fill="#3F3D56"/>
<path opacity="0.1" d="M144.546 118.763C147.581 118.663 149.936 115.361 149.806 111.388C149.675 107.414 147.109 104.274 144.073 104.373C141.038 104.473 138.683 107.775 138.814 111.749C138.944 115.722 141.51 118.863 144.546 118.763Z" fill="#3F3D56"/>
<path opacity="0.1" d="M144.258 109.969C147.293 109.869 149.648 106.567 149.518 102.594C149.387 98.6202 146.821 95.4797 143.785 95.5794C140.75 95.679 138.395 98.981 138.525 102.955C138.656 106.928 141.222 110.069 144.258 109.969Z" fill="#3F3D56"/>
<path opacity="0.1" d="M162.63 41.9329C163.349 40.9526 163.999 39.9234 164.576 38.8527L150.058 36.9569L165.677 36.5596C167.068 33.2517 167.77 29.6946 167.739 26.1061C167.708 22.5177 166.945 18.9733 165.496 15.69L144.901 27.2437L163.759 12.4087C161.839 9.35432 159.312 6.72695 156.335 4.68948C153.357 2.65202 149.993 1.2479 146.451 0.56421C142.909 -0.119483 139.264 -0.0681753 135.742 0.71495C132.221 1.49808 128.897 2.99632 125.979 5.11678C123.06 7.23724 120.608 9.93469 118.775 13.0419C116.942 16.1491 115.766 19.5997 115.322 23.1799C114.877 26.76 115.173 30.3933 116.191 33.8545C117.208 37.3156 118.926 40.5309 121.237 43.3007C120.117 44.8269 119.163 46.469 118.394 48.1988L137.455 57.3211L117.25 51.2714C115.983 55.4657 115.781 59.9096 116.664 64.2011C117.547 68.4927 119.486 72.4963 122.306 75.8498C119.381 79.8335 117.635 84.5599 117.27 89.4887C116.904 94.4175 117.933 99.3498 120.238 103.722C122.543 108.093 126.032 111.728 130.306 114.211C134.58 116.693 139.466 117.923 144.405 117.759C149.345 117.595 154.139 116.045 158.239 113.285C162.339 110.526 165.58 106.668 167.591 102.153C169.602 97.6386 170.302 92.6491 169.611 87.7553C168.92 82.8615 166.866 78.2609 163.683 74.4795C167.181 69.7214 168.979 63.9262 168.787 58.0239C168.596 52.1217 166.428 46.4548 162.63 41.9329Z" fill="#3DC0F0"/>
<path opacity="0.1" d="M116.138 59.7503C116.322 65.6562 118.495 71.3268 122.306 75.8425C119.38 79.8257 117.634 84.5518 117.267 89.4805C116.9 94.4093 117.928 99.3417 120.233 103.714C122.537 108.086 126.025 111.722 130.299 114.205C134.572 116.688 139.458 117.919 144.397 117.756C149.337 117.593 154.131 116.044 158.232 113.285C162.333 110.526 165.574 106.669 167.586 102.154C169.598 97.6399 170.299 92.6505 169.608 87.7566C168.918 82.8627 166.865 78.2617 163.683 74.4797C167.065 69.8884 116.043 56.7958 116.138 59.7503Z" fill="black"/>
</g>
<g opacity="0.1">
<path opacity="0.1" d="M82.0148 184.447C82.0148 184.613 81.9972 184.779 81.9771 184.95C80.5858 184.397 79.2188 183.804 77.8761 183.172C77.1607 183.079 76.4952 182.755 75.9802 182.249C75.588 182.05 75.1983 181.847 74.811 181.641C74.8984 181.457 74.9975 181.279 75.1077 181.108C75.8621 179.916 77.0036 179.172 78.2658 179.212C79.5281 179.252 80.6193 180.067 81.2831 181.299C81.8028 182.264 82.0554 183.351 82.0148 184.447Z" fill="#3F3D56"/>
<path opacity="0.1" d="M82.211 178.189C82.1862 179.285 81.8703 180.355 81.2957 181.289C80.5414 182.476 79.3974 183.222 78.1376 183.182L77.8862 183.162C77.1708 183.068 76.5053 182.745 75.9903 182.239C75.6406 181.908 75.346 181.522 75.1178 181.098C74.6135 180.125 74.3668 179.038 74.4011 177.943C74.4354 176.847 74.7497 175.779 75.314 174.839C76.0683 173.647 77.2123 172.903 78.472 172.943C79.7318 172.984 80.8255 173.798 81.5019 175.03C82.0155 176.001 82.2603 177.091 82.211 178.189Z" fill="#3F3D56"/>
<path opacity="0.1" d="M82.4144 171.942C82.5037 169.115 80.8254 166.767 78.6657 166.699C76.506 166.631 74.6828 168.867 74.5934 171.695C74.5041 174.522 76.1824 176.869 78.3421 176.938C80.5018 177.006 82.325 174.769 82.4144 171.942Z" fill="#3F3D56"/>
<path opacity="0.1" d="M82.6097 165.685C82.699 162.858 81.0207 160.51 78.861 160.442C76.7013 160.374 74.8781 162.61 74.7887 165.438C74.6994 168.265 76.3777 170.612 78.5374 170.681C80.6971 170.749 82.5203 168.512 82.6097 165.685Z" fill="#3F3D56"/>
<path opacity="0.1" d="M82.8077 159.425C82.897 156.597 81.2187 154.25 79.059 154.182C76.8993 154.114 75.0761 156.35 74.9867 159.178C74.8974 162.005 76.5757 164.352 78.7354 164.42C80.8951 164.489 82.7183 162.252 82.8077 159.425Z" fill="#3F3D56"/>
<path opacity="0.1" d="M65.6034 116.01C65.0907 115.312 64.6261 114.58 64.2129 113.82L74.5421 112.447L63.4259 112.195C62.4324 109.842 61.9298 107.311 61.9488 104.756C61.9679 102.202 62.5081 99.6785 63.5365 97.3403L78.2031 105.545L64.7711 94.9968C66.1304 92.8132 67.9246 90.9327 70.0421 89.4724C72.1596 88.0122 74.5549 87.0034 77.0791 86.5088C79.6033 86.0143 82.2022 86.0446 84.7142 86.5979C87.2261 87.1512 89.5973 88.2156 91.6801 89.7249C93.7629 91.2341 95.5128 93.156 96.8208 95.3707C98.1287 97.5855 98.9669 100.046 99.283 102.598C99.599 105.151 99.3863 107.741 98.658 110.208C97.9297 112.675 96.7015 114.966 95.0497 116.938C95.8496 118.023 96.5299 119.191 97.0788 120.423L83.5211 126.93L97.896 122.605C98.8007 125.59 98.9476 128.752 98.3233 131.808C97.6991 134.863 96.3234 137.715 94.3205 140.105C96.4065 142.937 97.6536 146.299 97.9192 149.806C98.1847 153.313 97.458 156.825 95.8222 159.938C94.1863 163.052 91.7073 165.643 88.6685 167.414C85.6298 169.185 82.1539 170.065 78.6384 169.954C75.1229 169.843 71.7096 168.745 68.7887 166.786C65.8678 164.826 63.5573 162.084 62.1212 158.874C60.6851 155.663 60.1815 152.113 60.6679 148.629C61.1543 145.146 62.6111 141.87 64.8717 139.175C62.379 135.791 61.0959 131.668 61.2286 127.467C61.3613 123.266 62.902 119.232 65.6034 116.012V116.01Z" fill="#3DC0F0"/>
<path opacity="0.1" d="M98.6931 128.647C98.567 132.85 97.0264 136.887 94.3205 140.105C96.4065 142.937 97.6536 146.299 97.9192 149.806C98.1847 153.313 97.458 156.825 95.8222 159.938C94.1863 163.052 91.7073 165.643 88.6685 167.414C85.6298 169.185 82.1539 170.065 78.6384 169.954C75.1229 169.843 71.7096 168.745 68.7887 166.786C65.8678 164.826 63.5573 162.084 62.1212 158.874C60.6851 155.663 60.1815 152.113 60.6679 148.629C61.1543 145.146 62.6111 141.87 64.8717 139.175C62.4604 135.906 98.7635 126.543 98.6931 128.647Z" fill="black"/>
</g>
<g opacity="0.1">
<path opacity="0.1" d="M212.958 151.747C212.958 151.916 212.941 152.079 212.923 152.25C211.53 151.697 210.163 151.104 208.822 150.473C208.106 150.379 207.44 150.055 206.924 149.55C206.534 149.351 206.142 149.147 205.754 148.941C205.843 148.758 205.942 148.58 206.051 148.408C206.805 147.216 207.947 146.472 209.209 146.512C210.471 146.553 211.563 147.367 212.227 148.599C212.746 149.565 212.999 150.652 212.958 151.747Z" fill="#3F3D56"/>
<path opacity="0.1" d="M213.169 145.489C213.144 146.585 212.827 147.655 212.251 148.589C211.497 149.776 210.355 150.523 209.093 150.482L208.842 150.462C208.126 150.368 207.46 150.045 206.943 149.54C206.595 149.207 206.3 148.822 206.071 148.398C205.567 147.425 205.32 146.339 205.354 145.243C205.389 144.148 205.703 143.079 206.267 142.14C207.021 140.95 208.165 140.204 209.425 140.244C210.685 140.284 211.781 141.099 212.455 142.331C212.97 143.301 213.217 144.391 213.169 145.489Z" fill="#3F3D56"/>
<path opacity="0.1" d="M213.366 139.24C213.455 136.413 211.777 134.066 209.617 133.997C207.457 133.929 205.634 136.166 205.545 138.993C205.455 141.82 207.134 144.168 209.294 144.236C211.453 144.304 213.276 142.067 213.366 139.24Z" fill="#3F3D56"/>
<path opacity="0.1" d="M213.564 132.983C213.653 130.155 211.975 127.808 209.815 127.74C207.655 127.672 205.832 129.908 205.743 132.736C205.653 135.563 207.332 137.91 209.491 137.979C211.651 138.047 213.474 135.81 213.564 132.983Z" fill="#3F3D56"/>
<path opacity="0.1" d="M213.762 126.725C213.851 123.898 212.173 121.551 210.013 121.483C207.853 121.414 206.03 123.651 205.941 126.478C205.851 129.306 207.53 131.653 209.69 131.721C211.849 131.789 213.672 129.553 213.762 126.725Z" fill="#3F3D56"/>
<path opacity="0.1" d="M196.547 83.3099C196.033 82.6133 195.569 81.8815 195.159 81.1199L205.488 79.7596L194.372 79.4905C193.379 77.1372 192.876 74.606 192.895 72.0518C192.913 69.4976 193.452 66.974 194.48 64.6354L209.146 72.8399L195.714 62.297C197.071 60.108 198.865 58.2221 200.983 56.7569C203.101 55.2918 205.498 54.2789 208.025 53.7813C210.552 53.2838 213.155 53.3123 215.67 53.8651C218.185 54.4179 220.56 55.4832 222.645 56.9944C224.731 58.5056 226.483 60.4304 227.791 62.6486C229.1 64.8668 229.937 67.3309 230.251 69.8872C230.566 72.4434 230.349 75.037 229.617 77.506C228.884 79.9751 227.65 82.2666 225.993 84.2378C226.792 85.323 227.471 86.4915 228.019 87.7227L214.462 94.23L228.837 89.9052C229.743 92.8891 229.89 96.0519 229.266 99.1072C228.642 102.162 227.265 105.014 225.261 107.403C227.347 110.234 228.595 113.596 228.861 117.103C229.127 120.61 228.4 124.121 226.765 127.234C225.129 130.348 222.651 132.938 219.612 134.71C216.574 136.481 213.098 137.361 209.583 137.25C206.067 137.139 202.654 136.041 199.734 134.082C196.813 132.122 194.503 129.38 193.067 126.17C191.631 122.959 191.128 119.409 191.615 115.926C192.102 112.443 193.559 109.167 195.82 106.473C193.327 103.089 192.044 98.9654 192.177 94.7647C192.309 90.5639 193.85 86.5297 196.552 83.3099H196.547Z" fill="#3DC0F0"/>
<path opacity="0.1" d="M229.639 95.9476C229.513 100.15 227.971 104.187 225.264 107.403C227.35 110.235 228.597 113.596 228.862 117.103C229.128 120.61 228.401 124.12 226.766 127.234C225.13 130.347 222.651 132.938 219.613 134.709C216.575 136.48 213.099 137.36 209.584 137.249C206.069 137.138 202.656 136.04 199.736 134.08C196.815 132.121 194.505 129.38 193.069 126.169C191.633 122.959 191.13 119.409 191.616 115.926C192.103 112.443 193.559 109.167 195.82 106.473C193.406 103.207 229.704 93.8405 229.639 95.9476Z" fill="black"/>
</g>
<path d="M48.6538 191.56C56.5706 191.56 62.9884 190.327 62.9884 188.805C62.9884 187.283 56.5706 186.049 48.6538 186.049C40.7369 186.049 34.3191 187.283 34.3191 188.805C34.3191 190.327 40.7369 191.56 48.6538 191.56Z" fill="#3DC0F0"/>
<path d="M48.4149 189.818C49.337 189.818 50.0845 188.84 50.0845 187.633C50.0845 186.427 49.337 185.448 48.4149 185.448C47.4929 185.448 46.7454 186.427 46.7454 187.633C46.7454 188.84 47.4929 189.818 48.4149 189.818Z" fill="#3F3D56"/>
<path d="M48.4149 187.148C49.337 187.148 50.0845 186.17 50.0845 184.963C50.0845 183.756 49.337 182.778 48.4149 182.778C47.4929 182.778 46.7454 183.756 46.7454 184.963C46.7454 186.17 47.4929 187.148 48.4149 187.148Z" fill="#3F3D56"/>
<path d="M48.4149 184.477C49.337 184.477 50.0845 183.499 50.0845 182.292C50.0845 181.086 49.337 180.107 48.4149 180.107C47.4929 180.107 46.7454 181.086 46.7454 182.292C46.7454 183.499 47.4929 184.477 48.4149 184.477Z" fill="#3F3D56"/>
<path d="M48.4149 181.807C49.337 181.807 50.0845 180.829 50.0845 179.622C50.0845 178.415 49.337 177.437 48.4149 177.437C47.4929 177.437 46.7454 178.415 46.7454 179.622C46.7454 180.829 47.4929 181.807 48.4149 181.807Z" fill="#3F3D56"/>
<path d="M48.4149 179.137C49.337 179.137 50.0845 178.158 50.0845 176.952C50.0845 175.745 49.337 174.767 48.4149 174.767C47.4929 174.767 46.7454 175.745 46.7454 176.952C46.7454 178.158 47.4929 179.137 48.4149 179.137Z" fill="#3F3D56"/>
<path d="M48.4149 176.467C49.337 176.467 50.0845 175.488 50.0845 174.282C50.0845 173.075 49.337 172.097 48.4149 172.097C47.4929 172.097 46.7454 173.075 46.7454 174.282C46.7454 175.488 47.4929 176.467 48.4149 176.467Z" fill="#3F3D56"/>
<path d="M48.4149 173.796C49.337 173.796 50.0845 172.818 50.0845 171.611C50.0845 170.405 49.337 169.426 48.4149 169.426C47.4929 169.426 46.7454 170.405 46.7454 171.611C46.7454 172.818 47.4929 173.796 48.4149 173.796Z" fill="#3F3D56"/>
<path d="M54.6634 153.337C54.8909 153.046 55.0984 152.74 55.2844 152.422L50.8993 151.7L55.6415 151.738C56.0963 150.747 56.3444 149.675 56.3708 148.585C56.3972 147.496 56.2012 146.412 55.7949 145.401L49.4309 148.703L55.2995 144.38C54.7493 143.431 54.0095 142.605 53.1262 141.954C52.2429 141.303 51.2351 140.84 50.1654 140.596C49.0957 140.351 47.9871 140.329 46.9085 140.531C45.8299 140.733 44.8045 141.155 43.8961 141.771C42.9877 142.386 42.2157 143.182 41.6282 144.109C41.0407 145.036 40.6503 146.074 40.4812 147.158C40.3122 148.242 40.3681 149.35 40.6455 150.411C40.923 151.473 41.416 152.466 42.0938 153.329C41.7392 153.781 41.4341 154.27 41.1836 154.788L46.8763 157.745L40.8065 155.708C40.3801 156.968 40.2745 158.314 40.4993 159.625C40.724 160.936 41.2721 162.17 42.0938 163.216C41.1666 164.395 40.5899 165.812 40.4297 167.304C40.2696 168.796 40.5323 170.302 41.188 171.652C41.8437 173.001 42.8659 174.139 44.1376 174.935C45.4094 175.731 46.8795 176.153 48.3799 176.153C49.8802 176.153 51.3503 175.731 52.6221 174.935C53.8939 174.139 54.916 173.001 55.5717 171.652C56.2274 170.302 56.4902 168.796 56.33 167.304C56.1698 165.812 55.5931 164.395 54.6659 163.216C55.7736 161.806 56.3757 160.065 56.3757 158.273C56.3757 156.48 55.7736 154.739 54.6659 153.329L54.6634 153.337Z" fill="#3DC0F0"/>
<path opacity="0.1" d="M40.384 158.28C40.3811 160.073 40.9835 161.815 42.0938 163.223C41.1666 164.403 40.5899 165.819 40.4297 167.311C40.2696 168.803 40.5323 170.31 41.188 171.659C41.8437 173.009 42.8659 174.147 44.1377 174.943C45.4094 175.739 46.8795 176.161 48.3799 176.161C49.8802 176.161 51.3503 175.739 52.6221 174.943C53.8939 174.147 54.916 173.009 55.5717 171.659C56.2274 170.31 56.4902 168.803 56.33 167.311C56.1698 165.819 55.5932 164.403 54.6659 163.223C55.7345 161.863 40.384 157.382 40.384 158.28Z" fill="black"/>
<path d="M87.1244 130.048V186.874C82.9739 186.671 78.826 186.427 74.6806 186.142L72.7922 186.009V130.048C72.7922 129.757 72.8496 129.468 72.9611 129.199C73.0725 128.93 73.2359 128.686 73.4418 128.48C73.6477 128.274 73.8922 128.11 74.1613 127.999C74.4303 127.887 74.7187 127.83 75.01 127.83H84.9067C85.1979 127.83 85.4863 127.887 85.7554 127.999C86.0244 128.11 86.2689 128.274 86.4748 128.48C86.6808 128.686 86.8441 128.93 86.9556 129.199C87.067 129.468 87.1244 129.757 87.1244 130.048Z" fill="#3F3D56"/>
<path d="M105.479 187.58V92.0805C105.479 91.4923 105.713 90.9282 106.129 90.5123C106.545 90.0964 107.109 89.8628 107.697 89.8628H117.594C117.885 89.8628 118.174 89.9202 118.443 90.0316C118.712 90.1431 118.956 90.3064 119.162 90.5123C119.368 90.7183 119.531 90.9628 119.643 91.2318C119.754 91.5009 119.812 91.7893 119.812 92.0805V187.829L105.479 187.58Z" fill="#3F3D56"/>
<path d="M138.167 187.88V111.944C138.167 111.356 138.401 110.792 138.817 110.376C139.232 109.96 139.797 109.727 140.385 109.727H150.281C150.87 109.727 151.434 109.96 151.85 110.376C152.266 110.792 152.499 111.356 152.499 111.944V187.716L138.167 187.88Z" fill="#3F3D56"/>
<path d="M185.187 55.6215V186.962C180.409 187.098 175.632 187.225 170.854 187.344V55.6215C170.854 55.0333 171.088 54.4693 171.504 54.0534C171.92 53.6375 172.484 53.4038 173.072 53.4038H182.969C183.557 53.4038 184.121 53.6375 184.537 54.0534C184.953 54.4693 185.187 55.0333 185.187 55.6215Z" fill="#3F3D56"/>
<path d="M217.874 82.0229V185.868C213.097 186.099 208.319 186.263 203.542 186.409V82.0229C203.542 81.4347 203.775 80.8706 204.191 80.4547C204.607 80.0388 205.171 79.8052 205.759 79.8052H215.656C216.244 79.8052 216.808 80.0388 217.224 80.4547C217.64 80.8706 217.874 81.4347 217.874 82.0229Z" fill="#3F3D56"/>
<path d="M80.084 96.9081L112.771 60.4491L145.459 78.8043L178.146 22.4814L210.833 49.3857" stroke="#3F3D56" stroke-width="7" stroke-miterlimit="10" stroke-linecap="round"/>
<path d="M79.9583 103.948C83.8466 103.948 86.9987 100.796 86.9987 96.908C86.9987 93.0197 83.8466 89.8677 79.9583 89.8677C76.07 89.8677 72.918 93.0197 72.918 96.908C72.918 100.796 76.07 103.948 79.9583 103.948Z" fill="#3DC0F0"/>
<path d="M112.646 67.4894C116.534 67.4894 119.686 64.3373 119.686 60.4491C119.686 56.5608 116.534 53.4087 112.646 53.4087C108.758 53.4087 105.605 56.5608 105.605 60.4491C105.605 64.3373 108.758 67.4894 112.646 67.4894Z" fill="#3DC0F0"/>
<path d="M145.333 85.8444C149.221 85.8444 152.373 82.6923 152.373 78.804C152.373 74.9157 149.221 71.7637 145.333 71.7637C141.445 71.7637 138.293 74.9157 138.293 78.804C138.293 82.6923 141.445 85.8444 145.333 85.8444Z" fill="#3DC0F0"/>
<path d="M178.02 29.5216C181.909 29.5216 185.061 26.3696 185.061 22.4813C185.061 18.593 181.909 15.4409 178.02 15.4409C174.132 15.4409 170.98 18.593 170.98 22.4813C170.98 26.3696 174.132 29.5216 178.02 29.5216Z" fill="#3DC0F0"/>
<path d="M240.881 89.3649C244.769 89.3649 247.921 86.2128 247.921 82.3245C247.921 78.4363 244.769 75.2842 240.881 75.2842C236.992 75.2842 233.84 78.4363 233.84 82.3245C233.84 86.2128 236.992 89.3649 240.881 89.3649Z" fill="#3DC0F0"/>
<path opacity="0.1" d="M58.7567 182.489C61.3508 182.489 63.4537 182.133 63.4537 181.694C63.4537 181.255 61.3508 180.899 58.7567 180.899C56.1627 180.899 54.0598 181.255 54.0598 181.694C54.0598 182.133 56.1627 182.489 58.7567 182.489Z" fill="#3DC0F0"/>
<path d="M55.6038 178.005C55.6038 178.005 58.2816 177.922 59.0887 177.347C59.8959 176.771 63.2099 176.089 63.411 177.007C63.6122 177.925 67.4341 181.593 64.4168 181.619C61.3995 181.644 57.389 181.146 56.5844 180.656C55.7798 180.165 55.6038 178.005 55.6038 178.005Z" fill="#A8A8A8"/>
<path opacity="0.2" d="M64.4646 181.297C61.4473 181.322 57.4393 180.827 56.6322 180.336C56.0186 179.962 55.7747 178.621 55.6918 178.003H55.6038C55.6038 178.003 55.7722 180.163 56.5794 180.653C57.3865 181.143 61.3869 181.641 64.4118 181.616C65.2843 181.616 65.586 181.299 65.5684 180.839C65.4477 181.118 65.1158 181.292 64.4646 181.297Z" fill="black"/>
<path opacity="0.1" d="M267.483 189.891C272.248 189.891 276.11 189.238 276.11 188.433C276.11 187.628 272.248 186.975 267.483 186.975C262.719 186.975 258.856 187.628 258.856 188.433C258.856 189.238 262.719 189.891 267.483 189.891Z" fill="#3DC0F0"/>
<path d="M261.698 181.656C261.698 181.656 266.618 181.506 268.102 180.449C269.585 179.393 275.67 178.134 276.037 179.826C276.404 181.518 283.435 188.249 277.878 188.294C272.321 188.34 264.969 187.429 263.488 186.534C262.007 185.639 261.698 181.656 261.698 181.656Z" fill="#A8A8A8"/>
<path opacity="0.2" d="M277.971 187.706C272.414 187.751 265.062 186.841 263.581 185.946C262.455 185.259 262.004 182.795 261.854 181.671H261.69C261.69 181.671 262.002 185.642 263.48 186.542C264.959 187.442 272.316 188.355 277.87 188.302C279.475 188.302 280.028 187.719 279.998 186.874C279.774 187.377 279.163 187.696 277.971 187.706Z" fill="black"/>
<path d="M213.625 86.6417C213.671 87.0821 213.846 87.4991 214.127 87.8411C214.492 88.2535 215.038 88.4421 215.528 88.6885C216.797 89.3379 217.766 90.4522 218.233 91.7988C219.071 94.2428 219.179 96.8276 220.245 99.1861C221.311 101.545 222.563 103.81 223.484 106.226C224.007 107.597 224.424 109.023 225.191 110.27C225.562 110.883 226.036 111.428 226.591 111.881C226.533 112.766 226.511 113.641 226.516 114.527C226.686 114.523 226.854 114.563 227.004 114.642C227.155 114.721 227.282 114.837 227.376 114.979C227.562 115.266 227.69 115.586 227.753 115.922C228.097 117.348 227.673 118.866 227.982 120.3C228.831 124.286 228.571 128.43 227.227 132.278C226.883 133.254 226.451 136.482 226.818 137.45C228.185 137.312 229.397 138.152 230.677 138.708C230.781 139.466 230.719 140.238 230.496 140.971C230.036 142.296 230.039 143.736 230.046 145.137L230.109 155.511C230.109 156.827 230.127 158.159 230.456 159.434C230.831 160.87 231.618 162.333 231.592 163.817C231.525 167.01 233.033 170.052 232.913 173.221C232.89 173.829 232.807 174.432 232.749 175.036C232.601 176.643 232.641 178.263 232.87 179.861C233.327 183.044 234.537 186.175 234.235 189.376C234.215 189.592 234.142 189.878 233.938 189.961C234.19 190.246 234.456 190.527 234.728 190.796C234.673 190.888 234.598 190.966 234.509 191.025C234.212 191.18 233.884 191.266 233.549 191.277C233.156 191.287 232.774 191.411 232.45 191.634C232.214 191.86 232.054 192.153 231.992 192.473C231.903 192.79 231.884 193.122 231.936 193.447C231.988 193.772 232.11 194.081 232.294 194.354C232.519 194.637 232.812 194.857 233.146 194.993C234.308 195.496 235.641 195.131 236.853 194.764L241.6 193.326C241.889 193.266 242.157 193.126 242.372 192.923C242.47 192.807 242.535 192.666 242.56 192.516C243.609 192.768 244.76 192.458 245.829 192.139L250.576 190.698C250.866 190.639 251.134 190.5 251.348 190.296C251.434 190.192 251.495 190.071 251.529 189.94C251.562 189.81 251.567 189.674 251.542 189.542C251.577 189.526 251.612 189.516 251.647 189.499C252.01 189.335 252.402 189.016 252.314 188.631C252.251 188.38 251.999 188.234 251.891 188.003C251.84 187.852 251.83 187.691 251.861 187.535C251.892 187.38 251.963 187.235 252.067 187.115C252.253 186.864 252.505 186.655 252.676 186.391C253.224 185.551 252.852 184.447 252.646 183.464C252.201 181.365 252.613 179.172 252.331 177.045C252.236 176.328 252.062 175.624 251.924 174.913C251.631 173.231 251.437 171.533 251.343 169.829C251.162 167.395 250.486 164.996 250.873 162.582C251.061 161.165 251.141 159.736 251.112 158.308C251.139 157.397 251.1 156.486 250.994 155.582C250.896 154.908 250.722 154.247 250.647 153.57C250.586 152.81 250.572 152.047 250.606 151.285C250.641 149.586 250.484 147.889 250.139 146.226C249.636 143.94 248.69 141.753 248.288 139.462C248.424 139.492 248.56 139.522 248.69 139.558C248.706 137.797 247.164 133.971 246.593 132.301C246.51 132.096 246.459 131.88 246.443 131.66C246.477 131.369 246.53 131.081 246.601 130.797C246.674 130.189 246.35 129.611 246.262 129.002C246.227 128.574 246.259 128.143 246.355 127.725C246.759 125.474 247.262 123.242 247.765 121.011C247.984 120.203 248.06 119.363 247.989 118.53C247.931 118.088 247.968 117.638 248.098 117.212C248.228 116.785 248.448 116.392 248.743 116.058C248.964 115.854 249.152 115.617 249.301 115.356C249.385 115.132 249.423 114.894 249.412 114.655C249.402 113.621 249.25 112.593 248.96 111.6C249.402 110.798 249.566 109.812 249.694 108.882C249.975 106.827 250.257 104.763 250.247 102.689C250.269 101.582 250.117 100.479 249.794 99.42C249.559 98.766 249.271 98.132 248.934 97.5241C247.612 94.977 246.347 92.2966 244.677 89.9633C244.175 89.2542 244.491 88.2761 244.527 87.4011C244.564 86.345 244.147 85.3317 243.737 84.3612C243.528 83.7638 243.207 83.2117 242.792 82.7343C242.651 82.5797 242.481 82.4553 242.29 82.3688C242.1 82.2824 241.894 82.2356 241.685 82.2314C241.449 82.2604 241.221 82.3398 241.017 82.4643C240.814 82.5887 240.64 82.7554 240.506 82.9531C240.202 83.3673 239.983 83.8376 239.862 84.337C239.74 84.8363 239.719 85.3547 239.8 85.8623C239.967 86.8782 240.409 87.8288 241.079 88.6105C241.403 89.0038 241.774 89.356 242.183 89.659C242.599 90.9799 243.018 92.3 243.44 93.6192C244.104 95.7188 244.768 97.8284 245.703 99.8147C245.977 100.391 246.279 100.976 246.312 101.613C246.347 102.299 246.06 102.953 245.832 103.599C245.35 104.946 245.077 106.358 245.022 107.788C244.948 107.821 244.878 107.859 244.811 107.904C244.019 108.422 243.77 109.551 242.945 110.013C242.465 110.282 241.881 110.265 241.343 110.388C241.296 110.388 241.248 110.413 241.198 110.428C241.177 110.327 241.157 110.229 241.145 110.126C241.137 110.062 241.137 109.997 241.145 109.933C242.427 109.228 243.504 108.202 244.27 106.956C244.432 106.725 244.556 106.47 244.64 106.201C244.708 105.879 244.72 105.547 244.677 105.221C244.635 104.13 244.48 103.048 244.212 101.99C243.944 100.927 243.357 99.9713 242.53 99.2515C242.118 98.9196 241.643 98.6707 241.233 98.3363C240.433 97.6901 239.885 96.7346 238.97 96.2543C238.387 95.9707 237.723 95.9039 237.096 96.0662C236.468 96.2284 235.92 96.6089 235.548 97.1394C235.426 97.3847 235.255 97.6022 235.045 97.7781C234.885 97.8538 234.729 97.9377 234.577 98.0295C234.301 98.2508 234.285 98.6757 234.376 99.0202C234.548 99.728 234.644 100.452 234.663 101.18C233.851 102.132 233.404 103.342 233.401 104.593C233.399 105.844 233.84 107.056 234.647 108.012C234.647 108.479 234.647 108.947 234.63 109.415C234.63 109.503 234.63 109.593 234.612 109.681C234.322 109.58 234.063 109.407 233.858 109.178C233.576 108.826 233.526 108.308 233.182 108.019C232.934 107.856 232.651 107.753 232.357 107.718C231.625 107.551 230.938 107.226 230.345 106.765C229.88 106.405 229.397 105.945 228.854 105.839C227.917 104.081 226.823 102.412 225.586 100.851C225.272 100.481 224.986 100.089 224.731 99.6764C224.19 98.7335 224.029 97.6247 223.687 96.5913C222.732 93.6947 220.348 91.3713 219.767 88.3742C219.556 87.2879 218.867 86.3425 218.394 85.3418C218.075 84.6654 217.723 83.9513 217.084 83.5641C216.262 83.0612 215.126 83.2925 214.442 83.9689C214.111 84.3226 213.865 84.7473 213.723 85.2106C213.582 85.6739 213.548 86.1634 213.625 86.6417ZM243.478 188.397C243.181 188.553 242.853 188.639 242.518 188.649C242.349 188.667 242.181 188.693 242.015 188.729C241.952 188.201 241.917 187.666 241.876 187.145C241.743 185.438 241.477 183.743 241.213 182.051C240.936 180.291 240.805 178.365 240.207 176.675C239.244 173.925 238.268 171.091 238.391 168.177C238.419 167.515 238.502 166.859 238.537 166.2C238.618 164.568 238.389 162.901 238.789 161.315C238.967 160.593 239.272 159.904 239.387 159.17C239.461 158.507 239.469 157.838 239.412 157.174C239.302 154.866 239.494 152.554 239.983 150.297C240.451 150.908 240.604 151.697 240.737 152.454L241.68 157.568C242.241 160.603 242.736 163.822 244.222 166.522C244.014 167.495 243.807 168.534 244.152 169.464C244.3 169.866 244.544 170.218 244.695 170.626C244.947 171.302 244.911 172.046 244.987 172.763C245.15 174.272 245.774 175.755 245.316 177.211C244.845 178.712 244.539 180.26 244.403 181.827C244.378 182.263 244.328 182.697 244.253 183.127C244.172 183.515 244.041 183.882 243.968 184.279C243.868 184.836 243.893 185.409 244.041 185.956C244.154 186.259 244.224 186.576 244.248 186.899C244.248 187.221 243.853 187.452 243.536 187.502C243.629 187.623 243.73 187.739 243.833 187.852C243.772 188.065 243.649 188.255 243.478 188.397Z" fill="url(#paint0_linear)"/>
<path d="M233.549 191.299C233.156 191.309 232.774 191.433 232.45 191.656C232.214 191.88 232.053 192.172 231.992 192.491C231.903 192.805 231.884 193.135 231.936 193.457C231.988 193.78 232.11 194.087 232.294 194.357C232.519 194.639 232.812 194.858 233.146 194.993C234.308 195.496 235.641 195.129 236.853 194.764L241.6 193.336C241.889 193.277 242.157 193.138 242.372 192.936C242.503 192.76 242.575 192.547 242.578 192.328C242.582 192.109 242.517 191.894 242.392 191.714C242.137 191.359 241.789 191.082 241.386 190.912C239.91 190.193 238.246 190.029 236.624 189.999C236.02 189.999 235.425 189.853 235.015 190.319C234.798 190.57 234.839 190.839 234.512 191.053C234.213 191.205 233.884 191.289 233.549 191.299Z" fill="#3F3D56"/>
<path d="M242.518 188.689C242.125 188.7 241.743 188.824 241.419 189.046C241.183 189.27 241.023 189.562 240.961 189.881C240.872 190.195 240.853 190.526 240.905 190.848C240.957 191.171 241.079 191.478 241.263 191.749C241.488 192.029 241.782 192.247 242.115 192.383C243.279 192.886 244.61 192.521 245.822 192.156L250.569 190.726C250.858 190.666 251.125 190.528 251.341 190.326C251.471 190.15 251.543 189.938 251.547 189.719C251.55 189.501 251.485 189.286 251.361 189.106C251.105 188.752 250.758 188.474 250.355 188.304C248.877 187.585 247.212 187.419 245.59 187.389C244.987 187.389 244.393 187.246 243.981 187.711C243.765 187.962 243.805 188.229 243.478 188.443C243.181 188.597 242.852 188.681 242.518 188.689Z" fill="#3F3D56"/>
<path d="M238.391 137.169C241.189 136.888 244.003 136.809 246.812 136.932C246.998 136.931 247.182 136.959 247.358 137.018C247.976 137.269 248.072 138.079 248.13 138.74C248.381 141.426 249.553 143.928 250.141 146.558C250.487 148.211 250.644 149.898 250.609 151.586C250.575 152.341 250.588 153.097 250.649 153.849C250.725 154.521 250.901 155.18 250.996 155.848C251.102 156.747 251.142 157.652 251.114 158.556C251.143 159.974 251.063 161.392 250.875 162.798C250.488 165.194 251.165 167.576 251.346 170C251.436 171.695 251.626 173.383 251.916 175.056C252.055 175.763 252.228 176.462 252.324 177.173C252.605 179.288 252.193 181.465 252.638 183.552C252.844 184.528 253.216 185.624 252.668 186.459C252.497 186.71 252.246 186.924 252.06 187.178C251.955 187.297 251.884 187.441 251.853 187.596C251.822 187.751 251.833 187.911 251.884 188.061C251.992 188.289 252.243 188.44 252.306 188.684C252.404 189.069 252.002 189.383 251.64 189.547C248.912 190.779 245.394 189.911 243.554 187.55C243.87 187.5 244.258 187.271 244.265 186.949C244.241 186.629 244.171 186.314 244.059 186.014C243.911 185.471 243.886 184.903 243.986 184.349C244.059 183.962 244.19 183.595 244.27 183.205C244.346 182.778 244.396 182.346 244.421 181.913C244.557 180.355 244.863 178.817 245.334 177.327C245.791 175.881 245.168 174.417 245.004 172.909C244.929 172.195 244.962 171.458 244.713 170.784C244.562 170.387 244.318 170.03 244.17 169.632C243.825 168.705 244.031 167.674 244.24 166.708C242.754 164.025 242.259 160.827 241.698 157.812L240.755 152.733C240.614 151.979 240.461 151.197 240.001 150.588C239.512 152.831 239.32 155.127 239.43 157.42C239.487 158.08 239.478 158.745 239.405 159.404C239.289 160.133 238.985 160.819 238.806 161.533C238.417 163.11 238.645 164.764 238.555 166.386C238.52 167.043 238.437 167.694 238.409 168.35C238.286 171.247 239.261 174.063 240.224 176.796C240.815 178.473 240.946 180.379 241.23 182.134C241.482 183.816 241.761 185.498 241.894 187.196C242.017 188.755 242.073 190.442 243.043 191.666C242.155 192.242 241.24 192.828 240.202 193.026C238.992 193.216 237.753 192.976 236.702 192.348C235.656 191.722 234.721 190.928 233.936 189.997C234.14 189.926 234.212 189.63 234.233 189.416C234.534 186.233 233.325 183.13 232.867 179.962C232.638 178.374 232.598 176.766 232.747 175.169C232.804 174.568 232.887 173.967 232.91 173.364C233.031 170.218 231.514 167.188 231.57 164.04C231.595 162.564 230.815 161.111 230.433 159.685C230.104 158.428 230.094 157.096 230.086 155.788L230.023 145.479C230.023 144.086 230.023 142.658 230.474 141.343C231.027 139.759 230.393 137.941 230.298 136.266C232.91 137.094 235.66 137.401 238.391 137.169Z" fill="#696791"/>
<path d="M229.427 107.549C228.371 105.388 227.08 103.35 225.578 101.472C225.264 101.105 224.978 100.715 224.723 100.305C224.182 99.3671 224.022 98.2658 223.68 97.2399C222.724 94.3634 220.34 92.0527 219.76 89.0781C219.548 87.9969 218.859 87.0666 218.387 86.0608C218.067 85.3895 217.715 84.6804 217.077 84.3007C216.254 83.7978 215.118 84.0292 214.434 84.703C214.105 85.0537 213.861 85.4752 213.721 85.9352C213.58 86.3951 213.547 86.8811 213.624 87.3557C213.671 87.7937 213.846 88.2082 214.127 88.5476C214.492 88.9574 215.038 89.1435 215.528 89.3899C216.795 90.0321 217.764 91.1394 218.233 92.4801C219.071 94.9065 219.179 97.4763 220.245 99.8197C221.311 102.163 222.563 104.411 223.483 106.807C224.006 108.168 224.424 109.573 225.191 110.83C225.958 112.088 227.154 113.141 228.6 113.33C228.59 112.418 228.729 111.511 229.01 110.644C229.324 109.654 229.883 108.487 229.427 107.549Z" fill="#A0616A"/>
<path d="M244.994 109.43C244.93 107.652 245.207 105.878 245.811 104.205C246.043 103.564 246.314 102.912 246.292 102.231C246.259 101.597 245.957 101.016 245.683 100.443C244.738 98.4694 244.074 96.3774 243.42 94.2904L242.163 90.3554C241.753 90.0548 241.382 89.7043 241.059 89.3119C240.389 88.5371 239.946 87.592 239.779 86.5813C239.699 86.0773 239.72 85.5624 239.842 85.0668C239.963 84.5711 240.182 84.1046 240.486 83.6947C240.62 83.4978 240.794 83.3317 240.998 83.2077C241.201 83.0837 241.429 83.0045 241.665 82.9756C241.874 82.9802 242.08 83.0271 242.27 83.1136C242.46 83.2 242.631 83.3242 242.772 83.4785C243.186 83.9517 243.507 84.4995 243.717 85.0927C244.127 86.0583 244.544 87.064 244.506 88.11C244.471 88.98 244.147 89.9506 244.657 90.6571C246.327 92.9754 247.592 95.6382 248.914 98.1702C249.252 98.7735 249.539 99.4034 249.774 100.053C250.097 101.107 250.25 102.205 250.227 103.307C250.227 105.366 249.955 107.418 249.674 109.46C249.495 110.74 249.261 112.133 248.293 112.98C247.287 111.693 246.277 110.435 244.994 109.43Z" fill="#A0616A"/>
<path d="M238.598 110.41C241.479 110.41 243.815 108.074 243.815 105.193C243.815 102.311 241.479 99.9756 238.598 99.9756C235.716 99.9756 233.38 102.311 233.38 105.193C233.38 108.074 235.716 110.41 238.598 110.41Z" fill="#A0616A"/>
<path d="M241.125 110.687C241.25 111.63 241.756 112.475 242.249 113.289C242.545 113.792 242.925 114.328 243.506 114.383C241.994 115.176 240.406 115.815 238.766 116.289C238.209 116.476 237.624 116.571 237.036 116.568C236.538 116.531 236.05 116.406 235.596 116.199C234.601 115.765 233.718 115.112 233.013 114.288C232.308 113.464 231.799 112.491 231.525 111.441C232.174 111.459 232.824 111.409 233.463 111.293C233.828 111.265 234.169 111.097 234.414 110.825C234.559 110.57 234.628 110.278 234.61 109.985C234.635 109.115 234.638 108.243 234.61 107.373C235.892 107.291 237.178 107.45 238.402 107.841C238.904 108.004 239.407 108.2 239.91 108.328C240.227 108.409 241.1 108.328 241.333 108.512C241.718 108.771 241.037 110.046 241.125 110.687Z" fill="#A0616A"/>
<path d="M238.831 113.858C238.889 113.17 239.161 112.518 239.609 111.994C240.058 111.47 240.66 111.101 241.331 110.939C241.869 110.818 242.452 110.833 242.932 110.566C243.757 110.106 244.006 108.985 244.798 108.469C245.59 107.954 246.714 108.241 247.403 108.892C248.092 109.543 248.442 110.471 248.723 111.379C249.144 112.606 249.372 113.891 249.399 115.188C249.41 115.425 249.372 115.662 249.289 115.884C249.14 116.144 248.952 116.379 248.731 116.581C248.436 116.912 248.216 117.303 248.085 117.727C247.955 118.151 247.918 118.598 247.976 119.037C248.048 119.866 247.972 120.7 247.753 121.502C247.25 123.719 246.747 125.934 246.342 128.172C246.247 128.584 246.216 129.008 246.249 129.43C246.327 130.035 246.661 130.609 246.588 131.215C246.517 131.497 246.464 131.783 246.43 132.072C246.446 132.291 246.497 132.506 246.581 132.708C247.152 134.365 248.693 138.162 248.678 139.917C246 139.231 242.052 139.077 239.287 139.065C238.526 139.057 237.765 139.09 237.008 139.165C235.191 139.361 233.33 139.892 231.567 139.402C229.93 138.947 228.482 137.642 226.79 137.805C226.423 136.845 226.855 133.639 227.2 132.668C228.543 128.846 228.804 124.728 227.954 120.767C227.645 119.344 228.07 117.833 227.725 116.42C227.662 116.086 227.534 115.767 227.348 115.482C227.254 115.341 227.126 115.225 226.976 115.146C226.826 115.068 226.658 115.028 226.488 115.032C226.457 112.759 226.668 110.489 227.117 108.261C227.283 107.469 227.62 106.533 228.432 106.397C229.151 106.274 229.754 106.883 230.333 107.328C230.926 107.787 231.612 108.11 232.344 108.273C232.639 108.308 232.921 108.412 233.169 108.575C233.513 108.862 233.564 109.377 233.845 109.727C234.348 110.353 235.472 110.3 235.829 111.021C235.907 111.236 235.97 111.457 236.018 111.68C236.187 112.109 236.475 112.481 236.848 112.751C237.408 113.278 238.089 113.658 238.831 113.858Z" fill="#F86D70"/>
<path d="M234.358 99.6462C234.268 99.3017 234.283 98.8918 234.559 98.6605C234.698 98.5524 234.879 98.5122 235.027 98.4091C235.236 98.2334 235.407 98.0169 235.53 97.7729C235.905 97.2478 236.454 96.8726 237.08 96.7138C237.705 96.555 238.367 96.6229 238.947 96.9054C239.855 97.3807 240.403 98.3311 241.21 98.9723C241.62 99.3042 242.095 99.5506 242.507 99.8825C243.333 100.596 243.92 101.545 244.19 102.603C244.457 103.653 244.613 104.729 244.655 105.811C244.698 106.136 244.685 106.466 244.617 106.787C244.533 107.056 244.409 107.311 244.247 107.541C243.418 108.799 242.324 109.94 240.953 110.589C239.583 111.238 237.916 111.343 236.563 110.664C236.427 110.609 236.31 110.516 236.226 110.395C236.149 110.212 236.131 110.009 236.174 109.814C236.247 109.046 236.095 108.273 235.736 107.589C235.485 107.086 235.107 106.654 234.906 106.133C234.719 105.551 234.639 104.939 234.67 104.328C234.647 102.746 234.755 101.17 234.358 99.6462Z" fill="#2D293D"/>
</g>
<defs>
<linearGradient id="paint0_linear" x1="252.955" y1="138.735" x2="213.592" y2="138.735" gradientUnits="userSpaceOnUse">
<stop stop-color="#808080" stop-opacity="0.25"/>
<stop offset="0.54" stop-color="#808080" stop-opacity="0.12"/>
<stop offset="1" stop-color="#808080" stop-opacity="0.1"/>
</linearGradient>
<clipPath id="clip0">
<rect width="280" height="197.233" fill="white"/>
</clipPath>
</defs>
</svg>
