<svg width="34" height="30" viewBox="0 0 34 30" fill="none" xmlns="http://www.w3.org/2000/svg">
<path d="M30.8152 7.14286H26.1196L23.4783 4.28571H14.6739V7.14286H22.1576L24.9457 10H30.8152V27.1429H7.33696V14.2857H4.40217V27.1429C4.40217 28.7143 5.72283 30 7.33696 30H30.8152C32.4293 30 33.75 28.7143 33.75 27.1429V10C33.75 8.42857 32.4293 7.14286 30.8152 7.14286ZM11.7391 18.5714C11.7391 24.9286 19.6484 28.1286 24.2707 23.6286C28.8929 19.1286 25.606 11.4286 19.0761 11.4286C15.0261 11.4286 11.7391 14.6286 11.7391 18.5714ZM19.0761 14.2857C21.4826 14.3571 23.4049 16.2286 23.4783 18.5714C23.4049 20.9143 21.4826 22.7857 19.0761 22.8571C16.6696 22.7857 14.7473 20.9143 14.6739 18.5714C14.7473 16.2286 16.6696 14.3571 19.0761 14.2857ZM7.33696 7.14286H11.7391V4.28571H7.33696V0H4.40217V4.28571H0V7.14286H4.40217V11.4286H7.33696" fill="#5B5B5B"/>
</svg>
