<svg width="59" height="60" viewBox="0 0 59 60" fill="none" xmlns="http://www.w3.org/2000/svg">
<rect x="1.5" y="2.32928" width="55.961" height="55.961" rx="16.5" stroke="#3DC0F0" stroke-width="3"/>
<path d="M36.9955 24.9671C36.9955 24.406 36.5406 23.9512 35.9796 23.9512C35.0746 23.9512 34.6214 22.857 35.2613 22.2171L36.7971 20.6813C37.5451 19.9332 38.758 19.9332 39.506 20.6813L41.0418 22.2171C41.6817 22.857 41.2285 23.9512 40.3235 23.9512C39.7625 23.9512 39.3076 24.406 39.3076 24.9671V38.9805C39.3076 39.619 38.79 40.1366 38.1516 40.1366C37.5131 40.1366 36.9955 39.619 36.9955 38.9805V24.9671ZM25.4345 21.639C20.9719 21.639 17.3418 25.2576 17.3418 29.7317C17.3418 34.2058 20.9604 37.8244 25.4345 37.8244C29.897 37.8244 33.5272 34.2058 33.5272 29.7317C33.5272 25.2576 29.9086 21.639 25.4345 21.639ZM25.4345 24.1246C28.5213 24.1246 31.0416 26.6334 31.0416 29.7317C31.0416 32.83 28.5328 35.3388 25.4345 35.3388C22.3361 35.3388 19.8274 32.83 19.8274 29.7317C19.8274 26.6334 22.3361 24.1246 25.4345 24.1246ZM24.2784 26.2634V28.9705C24.2784 29.9351 24.7932 30.8264 25.6287 31.3083L27.2146 32.223C27.6298 32.4625 28.1605 32.3201 28.4 31.9049C28.6394 31.49 28.4973 30.9595 28.0825 30.7198L27.0452 30.1204C26.4061 29.7511 26.0125 29.069 26.0125 28.3309V26.2634" fill="#3DC0F0"/>
</svg>
