<svg width="59" height="59" viewBox="0 0 59 59" fill="none" xmlns="http://www.w3.org/2000/svg">
<rect x="1.5" y="1.5" width="55.961" height="55.961" rx="16.5" stroke="#3DC0F0" stroke-width="3"/>
<path d="M39.5 24H19.5V21.5H39.5V24ZM39.5 36.5H19.5V29H39.5V36.5ZM39.5 19H19.5C18.1125 19 17 20.1125 17 21.5V36.5C17 37.163 17.2634 37.7989 17.7322 38.2678C18.2011 38.7366 18.837 39 19.5 39H39.5C40.163 39 40.7989 38.7366 41.2678 38.2678C41.7366 37.7989 42 37.163 42 36.5V21.5C42 20.1125 40.875 19 39.5 19Z" fill="#3DC0F0"/>
</svg>
