<svg width="59" height="59" viewBox="0 0 59 59" fill="none" xmlns="http://www.w3.org/2000/svg">
<rect x="1.5" y="1.5" width="55.961" height="55.961" rx="16.5" stroke="#3DC0F0" stroke-width="3"/>
<path d="M39.307 31.3805V39.3073H37.2382V35.3439L33.1006 39.3073V36.3348H27.9285V34.3531H33.1006V31.3805L37.2382 35.3439V31.3805H39.307ZM21.7221 36.3348H25.8597V38.3165H21.7221C20.5843 38.3165 19.6533 37.4247 19.6533 36.3348V22.4629C19.6533 21.3631 20.5843 20.4812 21.7221 20.4812H22.7565V18.4976H24.8253V20.4812H33.1006V18.4976H35.1694V20.4812H36.2038C37.352 20.4812 38.2726 21.3631 38.2726 22.4629V29.3989H36.2038V25.4355H21.7221V36.3348Z" fill="#3DC0F0"/>
</svg>
