<svg width="59" height="59" viewBox="0 0 59 59" fill="none" xmlns="http://www.w3.org/2000/svg">
<rect x="1.5" y="1.5" width="55.961" height="55.961" rx="16.5" stroke="#3DC0F0" stroke-width="3"/>
<path fill-rule="evenodd" clip-rule="evenodd" d="M20 31.5652C20 25.7963 24.6807 21.1304 30.4348 21.1304V24.3354C26.4398 24.3354 23.205 27.5702 23.205 31.5652C23.205 35.5603 26.4398 38.795 30.4348 38.795C33.7149 38.795 36.4825 36.6144 37.368 33.6228C37.4912 33.2067 37.5779 32.7749 37.6246 32.3311L40.7743 32.9814C40.6631 33.8007 40.4568 34.5896 40.167 35.3366C38.6536 39.238 34.8619 42 30.4348 42C24.6658 42 20 37.3342 20 31.5652ZM31.6047 24.43C32.0492 24.5027 32.4803 24.616 32.8941 24.7661L34.1835 21.8224C33.5651 21.5847 32.9183 21.4042 32.2494 21.2872L31.6047 24.43ZM34.1835 25.3849L36.1176 22.809C36.672 23.1691 37.1898 23.5806 37.6646 24.0366L35.3725 26.2881C35.0091 25.948 34.6107 25.6449 34.1835 25.3849ZM36.1176 27.0994C36.393 27.4491 36.637 27.8248 36.845 28.2222L39.8706 27.0994C39.5837 26.4935 39.2402 25.9197 38.8469 25.3849L36.1176 27.0994ZM37.368 29.5116L40.5183 28.8669C40.6843 29.4904 40.7942 30.137 40.8421 30.801H37.6246C37.5779 30.358 37.4911 29.927 37.368 29.5116Z" fill="#3DC0F0"/>
<rect x="26.261" y="18" width="8.34783" height="2.08696" fill="#3DC0F0"/>
<rect x="22.542" y="22.1739" width="1.99416" height="2.08696" transform="rotate(46 22.542 22.1739)" fill="#3DC0F0"/>
<path d="M30.2487 32.3422L27.4687 34.9914L26.261 33.8405L29.041 31.1913L26.261 28.5422L27.4687 27.3913L30.2487 30.0405L33.0287 27.3913L34.2364 28.5422L31.4564 31.1913L34.2364 33.8405L33.0287 34.9914L30.2487 32.3422Z" fill="#3DC0F0"/>
</svg>
