<svg width="30" height="22" viewBox="0 0 30 22" fill="none" xmlns="http://www.w3.org/2000/svg">
<path d="M28.4194 21.25H28.4197C28.7439 21.2496 29.0436 21.0953 29.257 20.8407C29.4692 20.5873 29.583 20.2519 29.5833 19.9093V19.9091V2.09091V2.09067C29.583 1.74811 29.4692 1.41268 29.257 1.15933C29.0436 0.904676 28.7439 0.750436 28.4197 0.75H28.4194L1.91398 0.75L1.91363 0.75C1.58943 0.750449 1.28972 0.904691 1.07638 1.15934C0.864115 1.41269 0.750333 1.74811 0.75 2.09067V2.09091L0.75 19.9091L0.75 19.9093C0.750333 20.2519 0.864114 20.5873 1.07637 20.8407C1.28972 21.0953 1.58943 21.2495 1.91363 21.25H1.91398H28.4194ZM28.419 20.5076H1.91431C1.80773 20.5074 1.69444 20.4572 1.60318 20.3482C1.51085 20.238 1.45329 20.0805 1.45311 19.909V2.09103C1.45329 1.91945 1.51085 1.76197 1.60318 1.65177C1.6944 1.54289 1.80762 1.49261 1.91416 1.49242H28.4192C28.5257 1.49262 28.6389 1.54291 28.7301 1.65178C28.8225 1.76201 28.8801 1.91953 28.8802 2.09115V19.9088C28.8801 20.0805 28.8225 20.238 28.7301 20.3482C28.6389 20.4571 28.5256 20.5074 28.419 20.5076Z" fill="white" stroke="white" stroke-width="0.5"/>
<path d="M9.02143 13.3286C11.484 13.3286 13.4804 11.3323 13.4804 8.8697C13.4804 6.4071 11.484 4.41077 9.02143 4.41077C6.55883 4.41077 4.5625 6.4071 4.5625 8.8697C4.5625 11.3323 6.55883 13.3286 9.02143 13.3286Z" fill="#1D99C7"/>
<path d="M26.2016 16.7433L20.9675 7.67759C20.9348 7.62093 20.8877 7.57387 20.831 7.54116C20.7744 7.50844 20.7101 7.49122 20.6447 7.49122C20.5792 7.49122 20.515 7.50844 20.4583 7.54116C20.4016 7.57387 20.3546 7.62093 20.3219 7.67759L17.1276 13.2101L12.3657 4.96221C12.3238 4.88956 12.2634 4.82923 12.1908 4.78729C12.1181 4.74535 12.0357 4.72327 11.9519 4.72327C11.868 4.72327 11.7856 4.74535 11.7129 4.78729C11.6403 4.82923 11.5799 4.88956 11.538 4.96221L4.82721 16.5856C4.78526 16.6583 4.76318 16.7407 4.76318 16.8246C4.76318 16.9084 4.78527 16.9908 4.82721 17.0635C4.86916 17.1361 4.92948 17.1965 5.00213 17.2384C5.07478 17.2804 5.15719 17.3024 5.24108 17.3024H25.8788C25.9442 17.3024 26.0085 17.2852 26.0651 17.2525C26.1218 17.2198 26.1689 17.1727 26.2016 17.1161C26.2343 17.0594 26.2515 16.9951 26.2515 16.9297C26.2515 16.8643 26.2343 16.8 26.2016 16.7433Z" fill="#FAFAFA"/>
</svg>
