<svg width="36" height="27" viewBox="0 0 36 27" fill="none" xmlns="http://www.w3.org/2000/svg">
<path d="M31.4194 24.25H31.4197C31.7439 24.2496 32.0436 24.0953 32.257 23.8407C32.4692 23.5873 32.583 23.2519 32.5833 22.9093V22.9091V5.09091V5.09067C32.583 4.74811 32.4692 4.41268 32.257 4.15933C32.0436 3.90468 31.7439 3.75044 31.4197 3.75H31.4194L4.91398 3.75L4.91363 3.75C4.58943 3.75045 4.28972 3.90469 4.07638 4.15934C3.86411 4.41269 3.75033 4.74811 3.75 5.09067V5.09091L3.75 22.9091L3.75 22.9093C3.75033 23.2519 3.86411 23.5873 4.07637 23.8407C4.28972 24.0953 4.58943 24.2495 4.91363 24.25H4.91398H31.4194ZM31.419 23.5076H4.91431C4.80773 23.5074 4.69444 23.4572 4.60318 23.3482C4.51085 23.238 4.45329 23.0805 4.45311 22.909V5.09103C4.45329 4.91945 4.51085 4.76197 4.60318 4.65177C4.6944 4.54289 4.80762 4.49261 4.91416 4.49242H31.4192C31.5257 4.49262 31.6389 4.54291 31.7301 4.65178C31.8225 4.76201 31.8801 4.91953 31.8802 5.09115V22.9088C31.8801 23.0805 31.8225 23.238 31.7301 23.3482C31.6389 23.4571 31.5256 23.5074 31.419 23.5076Z" fill="white" stroke="white" stroke-width="0.5"/>
<path d="M12.0214 16.3286C14.484 16.3286 16.4804 14.3323 16.4804 11.8697C16.4804 9.4071 14.484 7.41077 12.0214 7.41077C9.55883 7.41077 7.5625 9.4071 7.5625 11.8697C7.5625 14.3323 9.55883 16.3286 12.0214 16.3286Z" fill="#F1F1F1"/>
<path d="M29.2016 19.7433L23.9675 10.6776C23.9348 10.6209 23.8877 10.5739 23.831 10.5412C23.7744 10.5084 23.7101 10.4912 23.6447 10.4912C23.5792 10.4912 23.515 10.5084 23.4583 10.5412C23.4016 10.5739 23.3546 10.6209 23.3219 10.6776L20.1276 16.2101L15.3657 7.96221C15.3238 7.88956 15.2634 7.82923 15.1908 7.78729C15.1181 7.74535 15.0357 7.72327 14.9519 7.72327C14.868 7.72327 14.7856 7.74535 14.7129 7.78729C14.6403 7.82923 14.5799 7.88956 14.538 7.96221L7.82721 19.5856C7.78526 19.6583 7.76318 19.7407 7.76318 19.8246C7.76318 19.9084 7.78527 19.9908 7.82721 20.0635C7.86916 20.1361 7.92948 20.1965 8.00213 20.2384C8.07478 20.2804 8.15719 20.3024 8.24108 20.3024H28.8788C28.9442 20.3024 29.0085 20.2852 29.0651 20.2525C29.1218 20.2198 29.1689 20.1727 29.2016 20.1161C29.2343 20.0594 29.2515 19.9951 29.2515 19.9297C29.2515 19.8643 29.2343 19.8 29.2016 19.7433Z" fill="white"/>
<line x1="0.406867" y1="1.43039" x2="35.4069" y2="26.4304" stroke="white" stroke-width="1.4"/>
</svg>
