<svg width="56" height="56" viewBox="0 0 56 56" fill="none" xmlns="http://www.w3.org/2000/svg">
<rect width="55.6803" height="55.6803" rx="18" fill="#F0933D"/>
<path d="M34.8889 23.4208C34.8889 22.8816 34.4518 22.4444 33.9126 22.4444C33.0428 22.4444 32.6072 21.3928 33.2222 20.7778L34.6983 19.3017C35.4172 18.5828 36.5828 18.5828 37.3017 19.3017L38.7778 20.7778C39.3928 21.3928 38.9572 22.4444 38.0874 22.4444C37.5482 22.4444 37.1111 22.8816 37.1111 23.4208V36.8889C37.1111 37.5025 36.6137 38 36 38C35.3864 38 34.8889 37.5025 34.8889 36.8889V23.4208ZM23.7778 20.2222C19.4889 20.2222 16 23.7 16 28C16 32.3 19.4778 35.7778 23.7778 35.7778C28.0667 35.7778 31.5556 32.3 31.5556 28C31.5556 23.7 28.0778 20.2222 23.7778 20.2222ZM23.7778 22.6111C26.7444 22.6111 29.1667 25.0222 29.1667 28C29.1667 30.9778 26.7556 33.3889 23.7778 33.3889C20.8 33.3889 18.3889 30.9778 18.3889 28C18.3889 25.0222 20.8 22.6111 23.7778 22.6111ZM22.6667 24.6667V27.2684C22.6667 28.1955 23.1614 29.0521 23.9645 29.5153L25.4886 30.3944C25.8877 30.6245 26.3977 30.4877 26.6279 30.0887C26.858 29.6898 26.7214 29.18 26.3227 28.9496L25.3258 28.3735C24.7116 28.0186 24.3333 27.3631 24.3333 26.6537V24.6667" fill="white"/>
</svg>
