<svg width="56" height="56" viewBox="0 0 56 56" fill="none" xmlns="http://www.w3.org/2000/svg">
<rect width="55.6803" height="55.6803" rx="18" fill="#00B2FF"/>
<path fill-rule="evenodd" clip-rule="evenodd" d="M23.7467 29.144V26.936H21.4978V29.144H23.7467ZM37.24 25.832V21.416C37.24 20.2016 36.228 19.208 34.9911 19.208H33.8667V17H31.6178V19.208H22.6222V17H20.3733V19.208H19.2489C18.0008 19.208 17.0112 20.2016 17.0112 21.416L17 36.872C17 38.0864 18.0008 39.08 19.2489 39.08H30.587L29.1815 36.872H19.2489V25.832H34.9911H37.24ZM34.9911 23.624H19.2489V21.416H34.9911V23.624ZM28.2444 29.144H25.9956V26.936H28.2444V29.144Z" fill="white"/>
<path d="M36.3199 27.12C32.7651 27.12 29.8799 30.0051 29.8799 33.56C29.8799 37.1149 32.7651 40 36.3199 40C39.8748 40 42.7599 37.1149 42.7599 33.56C42.7599 30.0051 39.8748 27.12 36.3199 27.12ZM36.3199 38.712C33.4799 38.712 31.1679 36.4 31.1679 33.56C31.1679 30.72 33.4799 28.408 36.3199 28.408C39.16 28.408 41.4719 30.72 41.4719 33.56C41.4719 36.4 39.16 38.712 36.3199 38.712ZM39.0054 35.3374L38.297 34.629C38.7543 33.7725 38.6383 32.6906 37.9171 31.9693C37.4727 31.525 36.8995 31.306 36.3199 31.306C36.3006 31.306 36.2813 31.3124 36.262 31.3124L36.9639 32.0144L36.2813 32.697L34.4588 30.8745L36.2813 29.052L36.9639 29.7346L36.3457 30.3529C37.1636 30.3593 37.975 30.662 38.5997 31.2802C39.6945 32.3815 39.8297 34.0881 39.0054 35.3374ZM38.1811 36.2455L36.3586 38.068L35.6759 37.3854L36.2877 36.7736C35.4763 36.7671 34.6649 36.4516 34.0466 35.8333C32.9454 34.7321 32.8101 33.0319 33.6345 31.7826L34.3429 32.491C33.8856 33.3475 34.0015 34.4294 34.7228 35.1507C35.1736 35.6015 35.7725 35.8204 36.3715 35.8011L35.6759 35.1056L36.3586 34.423L38.1811 36.2455Z" fill="white"/>
</svg>
