<svg width="56" height="56" viewBox="0 0 56 56" fill="none" xmlns="http://www.w3.org/2000/svg">
<rect width="55.6803" height="55.6803" rx="18" fill="#FF5592"/>
<path fill-rule="evenodd" clip-rule="evenodd" d="M17 29.5652C17 23.7963 21.6807 19.1304 27.4348 19.1304V22.3354C23.4398 22.3354 20.205 25.5702 20.205 29.5652C20.205 33.5603 23.4398 36.795 27.4348 36.795C30.7149 36.795 33.4825 34.6144 34.368 31.6228C34.4912 31.2067 34.5779 30.7749 34.6246 30.3311L37.7743 30.9814C37.6631 31.8007 37.4568 32.5896 37.167 33.3366C35.6536 37.238 31.8619 40 27.4348 40C21.6658 40 17 35.3342 17 29.5652ZM28.6047 22.43C29.0492 22.5027 29.4803 22.616 29.8941 22.7661L31.1835 19.8224C30.5651 19.5847 29.9183 19.4042 29.2494 19.2872L28.6047 22.43ZM31.1835 23.3849L33.1176 20.809C33.672 21.1691 34.1898 21.5806 34.6646 22.0366L32.3725 24.2881C32.0091 23.948 31.6107 23.6449 31.1835 23.3849ZM33.1176 25.0994C33.393 25.4491 33.637 25.8248 33.845 26.2222L36.8706 25.0994C36.5837 24.4935 36.2402 23.9197 35.8469 23.3849L33.1176 25.0994ZM34.368 27.5116L37.5183 26.8669C37.6843 27.4904 37.7942 28.137 37.8421 28.801H34.6246C34.5779 28.358 34.4911 27.927 34.368 27.5116Z" fill="white"/>
<rect x="23.2606" y="16" width="8.34783" height="2.08696" fill="white"/>
<rect x="19.542" y="20.1739" width="1.99416" height="2.08696" transform="rotate(46 19.542 20.1739)" fill="white"/>
<path d="M27.2483 30.3422L24.4683 32.9914L23.2606 31.8405L26.0406 29.1913L23.2606 26.5422L24.4683 25.3913L27.2483 28.0405L30.0283 25.3913L31.236 26.5422L28.456 29.1913L31.236 31.8405L30.0283 32.9914L27.2483 30.3422Z" fill="white"/>
</svg>
