<svg width="43" height="43" viewBox="0 0 43 43" fill="none" xmlns="http://www.w3.org/2000/svg">
<rect x="1.5" y="1.5" width="39.8954" height="39.8954" rx="11.5" stroke="#3DC0F0" stroke-width="3"/>
<path d="M21.087 19.8571C21.7835 19.8571 22.4644 19.6561 23.0435 19.2793C23.6227 18.9026 24.0741 18.3671 24.3406 17.7406C24.6072 17.1141 24.6769 16.4248 24.541 15.7597C24.4051 15.0946 24.0697 14.4837 23.5772 14.0042C23.0847 13.5247 22.4572 13.1982 21.774 13.0659C21.0909 12.9336 20.3828 13.0015 19.7392 13.261C19.0957 13.5205 18.5457 13.9599 18.1587 14.5238C17.7718 15.0876 17.5652 15.7505 17.5652 16.4286C17.5652 17.3379 17.9363 18.21 18.5967 18.8529C19.2572 19.4959 20.1529 19.8571 21.087 19.8571ZM21.087 15.2857C21.3191 15.2857 21.5461 15.3527 21.7391 15.4783C21.9322 15.6039 22.0827 15.7824 22.1715 15.9912C22.2604 16.2001 22.2836 16.4298 22.2383 16.6515C22.193 16.8732 22.0812 17.0769 21.917 17.2367C21.7529 17.3965 21.5437 17.5054 21.316 17.5495C21.0883 17.5936 20.8522 17.5709 20.6377 17.4844C20.4232 17.3979 20.2399 17.2515 20.1109 17.0635C19.9819 16.8756 19.913 16.6546 19.913 16.4286C19.913 16.1255 20.0367 15.8348 20.2569 15.6205C20.477 15.4061 20.7756 15.2857 21.087 15.2857ZM25.9117 19.6971C26.5985 18.7383 26.9668 17.5975 26.9668 16.4286C26.9668 15.2596 26.5985 14.1188 25.9117 13.16C26.2494 13.0542 26.6018 13.0002 26.9565 13C27.8905 13 28.7863 13.3612 29.4468 14.0042C30.1072 14.6472 30.4783 15.5193 30.4783 16.4286C30.4783 17.3379 30.1072 18.21 29.4468 18.8529C28.7863 19.4959 27.8905 19.8571 26.9565 19.8571C26.6018 19.8569 26.2494 19.803 25.9117 19.6971ZM21.087 22.1429C14.0435 22.1429 14.0435 26.7143 14.0435 26.7143V29H28.1304V26.7143C28.1304 26.7143 28.1304 22.1429 21.087 22.1429ZM16.3913 26.7143C16.3913 26.3829 16.767 24.4286 21.087 24.4286C25.1957 24.4286 25.7122 26.2114 25.7826 26.7143H16.3913ZM34 26.7143V29H30.4783V26.7143C30.4508 25.8647 30.2498 25.029 29.8871 24.2559C29.5243 23.4828 29.0069 22.7878 28.3652 22.2114C34 22.7714 34 26.7143 34 26.7143ZM14.4426 17.48L15.8043 19.0914L10.2283 24.52L7 21.0914L8.36174 19.7657L10.2283 21.5714L14.4426 17.48Z" fill="#3DC0F0"/>
</svg>
