<svg width="43" height="43" viewBox="0 0 43 43" fill="none" xmlns="http://www.w3.org/2000/svg">
<rect x="1.5" y="1.5" width="39.8954" height="39.8954" rx="11.5" stroke="#3DC0F0" stroke-width="3"/>
<path d="M24.2727 12C25.43 12 26.5399 12.4741 27.3583 13.318C28.1766 14.1619 28.6364 15.3065 28.6364 16.5C28.6364 17.6935 28.1766 18.8381 27.3583 19.682C26.5399 20.5259 25.43 21 24.2727 21C23.1154 21 22.0055 20.5259 21.1872 19.682C20.3688 18.8381 19.9091 17.6935 19.9091 16.5C19.9091 15.3065 20.3688 14.1619 21.1872 13.318C22.0055 12.4741 23.1154 12 24.2727 12ZM24.2727 14.1375C23.6651 14.1375 23.0824 14.3864 22.6528 14.8295C22.2232 15.2725 21.9818 15.8734 21.9818 16.5C21.9818 17.1266 22.2232 17.7275 22.6528 18.1705C23.0824 18.6136 23.6651 18.8625 24.2727 18.8625C25.5382 18.8625 26.5636 17.805 26.5636 16.5C26.5636 15.195 25.5382 14.1375 24.2727 14.1375ZM24.2727 22.125C27.1855 22.125 33 23.6213 33 26.625V30H15.5455V26.625C15.5455 23.6213 21.36 22.125 24.2727 22.125ZM24.2727 24.2625C21 24.2625 17.6182 25.905 17.6182 26.625V27.8625H30.9273V26.625C30.9273 25.905 27.5127 24.2625 24.2727 24.2625ZM13.3636 22.44L10.6364 24.1163L11.3782 20.955L9 18.84L12.1309 18.5588L13.3636 15.5888L14.5745 18.5588L17.7273 18.84L15.3273 20.955L16.0364 24.1163L13.3636 22.44Z" fill="#3DC0F0"/>
</svg>
