<svg width="43" height="43" viewBox="0 0 43 43" fill="none" xmlns="http://www.w3.org/2000/svg">
<rect x="1.5" y="1.5" width="39.8954" height="39.8954" rx="11.5" stroke="#3DC0F0" stroke-width="3"/>
<path d="M27.45 21.8444C29.8875 22.5778 32 23.7778 32 25.4444V31H12V25.4444C12 23.7778 14.1125 22.5778 16.5625 21.8444L17.3375 23.2222L17.625 23.7778C15.75 24.2889 14.375 25.0222 14.375 25.4444V28.8889H19.65L20.75 23.2556L19.575 21.1667C20.35 21.0889 21.1625 21.0333 22 21.0333C22.8375 21.0333 23.65 21.0889 24.425 21.1667L23.25 23.2556L24.35 28.8889H29.625V25.4444C29.625 25.0222 28.25 24.2889 26.375 23.7778L26.6625 23.2222L27.45 21.8444ZM22 13.2222C20.625 13.2222 19.5 14.2222 19.5 15.4444C19.5 16.6667 20.625 17.6667 22 17.6667C23.375 17.6667 24.5 16.6667 24.5 15.4444C24.5 14.2222 23.375 13.2222 22 13.2222ZM22 19.8889C19.2375 19.8889 17 17.9 17 15.4444C17 12.9889 19.2375 11 22 11C24.7625 11 27 12.9889 27 15.4444C27 17.9 24.7625 19.8889 22 19.8889Z" fill="#3DC0F0"/>
</svg>
