<svg width="43" height="43" viewBox="0 0 43 43" fill="none" xmlns="http://www.w3.org/2000/svg">
<rect x="1.5" y="1.5" width="39.8954" height="39.8954" rx="11.5" stroke="#3DC0F0" stroke-width="3"/>
<path d="M29.6364 9L24.1818 14.6098V26.9512L29.6364 21.9024V9ZM31.8182 13.4878V28.6341C30.6182 28.2415 29.3091 28.0732 28 28.0732C26.1455 28.0732 23.4727 28.8024 22 29.7561V14.6098C20.4182 13.3756 18.1273 12.9268 16 12.9268C13.8727 12.9268 11.5818 13.3756 10 14.6098V31.0463C10 31.3268 10.2727 31.6073 10.5455 31.6073C10.6545 31.6073 10.7091 31.5512 10.8182 31.5512C12.2909 30.822 14.4182 30.3171 16 30.3171C18.1273 30.3171 20.4182 30.7659 22 32C23.4727 31.0463 26.1455 30.3171 28 30.3171C29.8 30.3171 31.6545 30.6537 33.1818 31.4951C33.2909 31.5512 33.3455 31.5512 33.4545 31.5512C33.7273 31.5512 34 31.2707 34 30.9902V14.6098C33.3455 14.1049 32.6364 13.7683 31.8182 13.4878ZM19.8182 28.5332C18.4545 28.1741 17.0909 28.0732 16 28.0732C14.8436 28.0732 13.4691 28.2863 12.1818 28.6341V15.8776C13.1745 15.4288 14.5164 15.1707 16 15.1707C17.4836 15.1707 18.8255 15.4288 19.8182 15.8776V28.5332Z" fill="#3DC0F0"/>
</svg>
