<svg width="43" height="43" viewBox="0 0 43 43" fill="none" xmlns="http://www.w3.org/2000/svg">
<rect x="1.5" y="1.5" width="39.8954" height="39.8954" rx="11.5" stroke="#3DC0F0" stroke-width="3"/>
<path d="M31.2221 17.5361C32.5381 16.2202 31.938 14.6833 31.2221 13.9359L28.0639 10.7778C26.7374 9.46198 25.211 10.062 24.4635 10.7778L22.6739 12.5779H19.9473C17.947 12.5779 16.789 13.6306 16.1995 14.8412L11.5253 19.5151V23.7259L10.7779 24.4628C9.46195 25.7891 10.062 27.3155 10.7779 28.0629L13.9361 31.221C14.5046 31.7895 15.1152 32 15.6942 32C16.4416 32 17.1259 31.6316 17.5365 31.221L20.3789 28.3682H24.1582C25.9479 28.3682 26.8532 27.2524 27.1796 26.1576C28.3692 25.8418 29.0219 24.9365 29.2851 24.0522C30.9168 23.6311 31.5274 22.0837 31.5274 20.9994V17.8414H30.9063L31.2221 17.5361ZM29.4219 20.9994C29.4219 21.4731 29.2219 22.0521 28.3692 22.0521H27.3165V23.1048C27.3165 23.5785 27.1164 24.1575 26.2637 24.1575H25.211V25.2102C25.211 25.6839 25.0109 26.2629 24.1582 26.2629H19.5156L16.0626 29.7157C15.7363 30.0209 15.5468 29.842 15.431 29.7262L12.2833 26.5892C11.978 26.2629 12.157 26.0734 12.2728 25.9576L13.6308 24.5891V20.3783L15.7363 18.273V19.9467C15.7363 21.2205 16.5785 23.1048 18.8945 23.1048C21.2106 23.1048 22.0527 21.2205 22.0527 19.9467H29.4219V20.9994ZM29.7272 16.0413L27.9376 17.8414H19.9473V19.9467C19.9473 20.4204 19.7472 20.9994 18.8945 20.9994C18.0418 20.9994 17.8418 20.4204 17.8418 19.9467V16.7887C17.8418 16.3044 18.0207 14.6833 19.9473 14.6833H23.5371L25.9374 12.2832C26.2637 11.9779 26.4532 12.1569 26.569 12.2726L29.7167 15.4097C30.022 15.736 29.843 15.9255 29.7272 16.0413Z" fill="#3DC0F0"/>
</svg>
