<svg width="43" height="43" viewBox="0 0 43 43" fill="none" xmlns="http://www.w3.org/2000/svg">
<rect x="1.5" y="1.5" width="39.8954" height="39.8954" rx="11.5" stroke="#3DC0F0" stroke-width="3"/>
<path d="M24.6 22.4545H26.175V25.1464L28.737 26.4923L27.9495 27.7332L24.6 25.9768V22.4545ZM28.8 17.6818H14.1V28.1818H19.0035C18.552 27.3132 18.3 26.3395 18.3 25.3182C18.3 23.5461 19.0744 21.8465 20.4528 20.5934C21.8312 19.3403 23.7007 18.6364 25.65 18.6364C26.7735 18.6364 27.8445 18.8655 28.8 19.2759V17.6818ZM14.1 30.0909C12.9345 30.0909 12 29.2318 12 28.1818V14.8182C12 13.7586 12.9345 12.9091 14.1 12.9091H15.15V11H17.25V12.9091H25.65V11H27.75V12.9091H28.8C29.357 12.9091 29.8911 13.1102 30.2849 13.4683C30.6787 13.8263 30.9 14.3119 30.9 14.8182V20.6409C32.202 21.8436 33 23.495 33 25.3182C33 27.0903 32.2256 28.7899 30.8472 30.0429C29.4688 31.296 27.5993 32 25.65 32C23.6445 32 21.828 31.2745 20.505 30.0909H14.1ZM25.65 20.6886C24.2994 20.6886 23.0041 21.1764 22.0491 22.0446C21.094 22.9128 20.5575 24.0904 20.5575 25.3182C20.5575 27.8764 22.836 29.9477 25.65 29.9477C26.3188 29.9477 26.981 29.828 27.5988 29.5953C28.2167 29.3627 28.7781 29.0217 29.2509 28.5918C29.7238 28.1619 30.0989 27.6515 30.3549 27.0898C30.6108 26.5281 30.7425 25.9261 30.7425 25.3182C30.7425 22.76 28.464 20.6886 25.65 20.6886Z" fill="#3DC0F0"/>
</svg>
