<svg width="360" height="435" viewBox="0 0 360 435" fill="none" xmlns="http://www.w3.org/2000/svg">
<path opacity="0.6" d="M192 235.77C192 304.933 119.246 361 29.5 361C-60.2463 361 -133 304.933 -133 235.77C-133 166.608 -84.3203 0 5.42592 0C171.311 0 192 166.608 192 235.77Z" fill="white"/>
<path opacity="0.8" d="M284.557 428.031C238.5 446.865 154.399 428.575 103.081 354.036C51.763 279.498 49.81 191.775 98.7188 158.103C147.627 124.431 271.918 98.4851 340 158.103C465.5 268 465.5 354.036 284.557 428.031Z" fill="white"/>
<path d="M130.423 327.558C130.423 327.558 131.478 323.14 138.861 324.613C146.244 326.085 147.299 327.558 147.299 327.558H130.423Z" fill="#3F3D56"/>
<path d="M94.0358 321.774C94.0358 321.774 95.0905 317.356 102.473 318.829C109.856 320.301 110.911 321.774 110.911 321.774H94.0358Z" fill="#3F3D56"/>
<path d="M155.736 327.558C155.736 327.558 149.83 323.982 147.299 327.558H155.736Z" fill="#3F3D56"/>
<path d="M128.209 317.461C128.209 317.461 122.302 313.885 119.771 317.461H128.209Z" fill="#3F3D56"/>
<path d="M95.0749 314.176C96.8333 317.428 100.565 318.824 100.565 318.824C100.565 318.824 101.446 314.947 99.6879 311.695C97.9295 308.443 94.1975 307.047 94.1975 307.047C94.1975 307.047 93.3164 310.924 95.0749 314.176Z" fill="#3F3D56"/>
<path d="M96.2834 313.106C99.4581 315.011 100.681 318.794 100.681 318.794C100.681 318.794 96.7563 319.489 93.5816 317.584C90.4068 315.68 89.1842 311.896 89.1842 311.896C89.1842 311.896 93.1087 311.201 96.2834 313.106Z" fill="#3DC0F0"/>
<path d="M270.594 324.928C270.594 324.928 271.649 320.511 279.032 321.983C286.415 323.456 287.47 324.928 287.47 324.928H270.594Z" fill="#3F3D56"/>
<path d="M253.719 327.558C248.59 326.757 243.658 326.076 238.923 325.515L240.746 321.878C240.114 321.668 237.371 323.772 237.371 323.772L239.692 313.254C236.528 313.675 235.051 324.403 235.051 324.403L231.465 320.827L233.23 324.875C218.742 323.357 206.241 322.884 195.732 322.992L197.292 319.88C196.66 319.67 193.917 321.773 193.917 321.773L196.238 311.256C193.074 311.676 191.597 322.404 191.597 322.404L188.011 318.828L189.881 323.117C182.682 323.325 175.499 323.902 168.36 324.845C169.917 320.008 175.354 315.358 175.354 315.358C171.173 316.655 168.998 318.768 167.872 320.727C167.645 310.789 169.178 300.889 172.401 291.483C172.401 291.483 163.964 310.414 165.229 323.035L165.39 325.277C158.049 326.419 154.366 327.558 154.366 327.558H253.719Z" fill="#3F3D56"/>
<path d="M198.663 337.129C198.663 337.129 237.476 331.449 261.524 337.129Z" fill="#3F3D56"/>
<path d="M141.498 344.912C141.498 344.912 180.311 339.233 204.359 344.912Z" fill="#3F3D56"/>
<path d="M213.429 347C213.429 347 236.418 341.186 250.661 347Z" fill="#3F3D56"/>
<path d="M277.637 323.658L277.263 323.464C282.132 314.078 279.528 301.888 276.487 293.315C274.421 287.552 271.787 282.008 268.623 276.765L268.98 276.541C272.16 281.81 274.808 287.382 276.884 293.174C279.954 301.826 282.575 314.137 277.637 323.658Z" fill="#3F3D56"/>
<path d="M281.248 276.616L278.512 291.552L278.926 291.627L281.663 276.691L281.248 276.616Z" fill="#3F3D56"/>
<path d="M263.049 289.341L262.74 289.628L276.873 304.773L277.182 304.486L263.049 289.341Z" fill="#3F3D56"/>
<path d="M288.457 305.977L281.288 315.866L281.63 316.113L288.799 306.224L288.457 305.977Z" fill="#3F3D56"/>
<path d="M282.512 272.657C283.677 272.657 284.622 271.715 284.622 270.553C284.622 269.391 283.677 268.45 282.512 268.45C281.347 268.45 280.403 269.391 280.403 270.553C280.403 271.715 281.347 272.657 282.512 272.657Z" fill="#3DC0F0"/>
<path d="M259.52 288.853C260.685 288.853 261.629 287.911 261.629 286.75C261.629 285.588 260.685 284.646 259.52 284.646C258.355 284.646 257.41 285.588 257.41 286.75C257.41 287.911 258.355 288.853 259.52 288.853Z" fill="#3F3D56"/>
<path d="M268.801 290.957C269.966 290.957 270.911 290.015 270.911 288.853C270.911 287.692 269.966 286.75 268.801 286.75C267.636 286.75 266.692 287.692 266.692 288.853C266.692 290.015 267.636 290.957 268.801 290.957Z" fill="#3F3D56"/>
<path d="M264.582 299.161C265.747 299.161 266.692 298.219 266.692 297.057C266.692 295.896 265.747 294.954 264.582 294.954C263.417 294.954 262.473 295.896 262.473 297.057C262.473 298.219 263.417 299.161 264.582 299.161Z" fill="#3DC0F0"/>
<path d="M290.95 304.419C292.115 304.419 293.06 303.478 293.06 302.316C293.06 301.154 292.115 300.212 290.95 300.212C289.785 300.212 288.841 301.154 288.841 302.316C288.841 303.478 289.785 304.419 290.95 304.419Z" fill="#3F3D56"/>
<path d="M283.989 306.733C285.154 306.733 286.099 305.791 286.099 304.63C286.099 303.468 285.154 302.526 283.989 302.526C282.824 302.526 281.88 303.468 281.88 304.63C281.88 305.791 282.824 306.733 283.989 306.733Z" fill="#3F3D56"/>
<path d="M288.841 313.465C290.006 313.465 290.95 312.523 290.95 311.361C290.95 310.199 290.006 309.258 288.841 309.258C287.676 309.258 286.731 310.199 286.731 311.361C286.731 312.523 287.676 313.465 288.841 313.465Z" fill="#3F3D56"/>
<path d="M266.692 275.18C267.857 275.18 268.801 274.239 268.801 273.077C268.801 271.915 267.857 270.973 266.692 270.973C265.527 270.973 264.582 271.915 264.582 273.077C264.582 274.239 265.527 275.18 266.692 275.18Z" fill="#3F3D56"/>
<path d="M143.244 261.927C143.244 287.929 127.744 297.007 108.622 297.007C89.5009 297.007 74 287.929 74 261.927C74 235.926 108.622 202.848 108.622 202.848C108.622 202.848 143.244 235.926 143.244 261.927Z" fill="#F2F2F2"/>
<path d="M107.361 293.03L107.715 271.269L122.472 244.348L107.771 267.856L107.93 258.071L118.101 238.594L107.972 255.482L108.259 237.884L119.15 222.377L108.304 235.117L108.483 202.848L107.358 245.566L107.45 243.804L96.3776 226.903L107.273 247.186L106.241 266.84L106.21 266.319L93.4455 248.533L106.172 268.161L106.042 270.619L106.02 270.656L106.03 270.858L103.412 320.722H106.91L107.329 294.966L120.024 275.386L107.361 293.03Z" fill="#3F3D56"/>
<path d="M257.445 254.176C257.445 285.941 238.508 297.032 215.148 297.032C191.788 297.032 172.851 285.941 172.851 254.176C172.851 222.41 215.148 182 215.148 182C215.148 182 257.445 222.41 257.445 254.176Z" fill="#F2F2F2"/>
<path d="M213.607 292.173L214.04 265.588L232.068 232.699L214.108 261.418L214.303 249.464L226.728 225.67L214.354 246.301L214.704 224.802L228.009 205.859L214.759 221.421L214.978 182L213.603 234.187L213.716 232.034L200.189 211.387L213.499 236.167L212.239 260.177L212.201 259.54L196.607 237.812L212.154 261.792L211.996 264.794L211.968 264.84L211.981 265.086L208.783 326.003H213.056L213.568 294.538L229.077 270.617L213.607 292.173Z" fill="#3F3D56"/>
<path d="M180.983 299.926L182.91 305.875C182.91 305.875 181.166 311.458 181.992 317.682C182.819 323.905 182.36 324.088 182.36 324.088C182.36 324.088 174.106 323.614 174.932 326.086C175.758 328.557 183.828 327.109 183.828 327.109C183.828 327.109 185.378 326.692 186.112 322.299C186.846 317.906 188.693 309.444 188.693 309.444L186.957 301.456L180.983 299.926Z" fill="#FFB8B8"/>
<path d="M181.625 287.753C181.625 287.753 178.138 289.035 178.138 292.513C178.138 295.99 179.423 300.75 180.249 301.024C181.075 301.299 186.582 305.051 187.591 302.397C188.601 299.743 181.625 287.753 181.625 287.753Z" fill="#3DC0F0"/>
<path d="M210.812 328.939L218.154 328.664L223.753 327.84L222.101 333.332L208.517 333.698L210.812 328.939Z" fill="#FFB8B8"/>
<path d="M221.367 329.671C221.367 329.671 221.275 327.658 220.449 327.749C219.623 327.841 220.174 327.017 220.908 326.834C221.642 326.651 223.753 325.736 223.753 325.736L232.105 326.285C232.105 326.285 237.52 331.044 235.317 333.607C233.115 336.169 227.424 333.881 227.424 333.881L221.275 333.973C221.275 333.973 219.256 330.678 221.367 329.671Z" fill="#2F2E41"/>
<path d="M224.671 322.623L227.332 335.07L232.839 333.972L229.718 318.413L226.414 316.674L224.671 322.623Z" fill="#FFB8B8"/>
<path d="M193.006 321.068C193.006 321.068 177.587 328.024 184.103 335.071C184.103 335.071 184.103 338.366 190.987 337.725C197.87 337.084 211.179 335.895 211.821 336.261C212.464 336.627 214.483 329.03 212.739 328.664C210.995 328.298 208.884 327.84 208.884 327.84C208.884 327.84 210.72 327.566 210.72 326.01C210.72 326.01 215.951 325.644 217.512 322.349C219.072 319.054 220.54 316.583 220.54 316.583L224.12 325.735C224.12 325.735 228.25 318.139 231.371 321.525C231.371 321.525 227.883 299.651 225.221 297.638C222.56 295.624 220.724 294.984 218.246 296.814C215.768 298.645 213.473 303.312 213.473 303.312L193.006 321.068Z" fill="#2F2E41"/>
<path d="M229.81 331.318C229.169 331.801 228.556 332.321 227.975 332.874C227.24 333.606 226.231 333.24 226.139 332.874C226.047 332.508 224.395 333.149 224.212 335.803C224.028 338.457 222.927 340.837 225.864 341.661C228.801 342.484 228.709 344.864 228.709 344.864C231.033 345.976 233.7 346.14 236.143 345.322C240.273 343.949 238.805 342.484 238.805 342.484L233.298 333.423C233.298 333.423 231.829 330.678 229.81 331.318Z" fill="#2F2E41"/>
<path d="M214.575 285.922C214.575 285.922 223.386 288.943 224.303 289.583C225.221 290.224 229.351 293.244 227.332 294.8C225.313 296.356 223.661 297.363 219.714 296.173C215.768 294.983 211.362 291.322 211.362 291.322L214.575 285.922Z" fill="#FFB8B8"/>
<path d="M205.764 281.895C205.764 281.895 209.251 281.254 211.729 282.627C214.208 284 216.318 286.746 216.318 286.746C216.318 286.746 214.024 291.597 212.372 292.329C210.72 293.061 207.691 289.4 207.691 289.4L205.764 281.895Z" fill="#3DC0F0"/>
<path d="M189.702 279.241C189.702 279.241 189.794 282.811 189.427 283.177C189.059 283.543 193.832 294.343 199.064 289.583C204.295 284.824 200.257 282.902 200.257 282.902C200.257 282.902 198.329 279.333 198.421 278.967C198.513 278.601 189.885 278.967 189.885 278.967L189.702 279.241Z" fill="#FFB8B8"/>
<path opacity="0.1" d="M189.702 279.241C189.702 279.241 189.794 282.811 189.427 283.177C189.059 283.543 193.832 294.343 199.064 289.583C204.295 284.824 200.257 282.902 200.257 282.902C200.257 282.902 198.329 279.333 198.421 278.967C198.513 278.601 189.885 278.967 189.885 278.967L189.702 279.241Z" fill="black"/>
<path d="M191.171 286.106C191.171 286.106 194.658 288.485 196.127 287.936C197.595 287.387 199.431 285.007 199.614 284.824C199.798 284.641 209.16 303.404 209.16 303.404C209.16 303.404 207.783 310.268 204.112 312.282C200.44 314.295 200.486 315.897 200.027 317.27C199.569 318.642 193.649 312.922 193.649 312.922L189.886 296.997V287.296L191.171 286.106Z" fill="#3DC0F0"/>
<path d="M189.656 281.849C189.656 281.849 188.509 281.621 187.316 282.627C186.122 283.634 180.524 287.387 180.799 287.753C181.074 288.119 183.552 293.336 184.103 295.441C184.654 297.546 185.48 297.82 185.48 297.82C185.48 297.82 187.407 299.193 187.132 300.2C186.857 301.207 185.663 314.935 187.316 317.956C188.968 320.976 188.692 323.63 188.233 324.362C187.774 325.094 192.639 322.257 192.639 322.257C192.639 322.257 199.89 316.4 200.44 314.661C200.796 313.465 201.042 312.24 201.174 311C201.174 311 196.494 292.512 195.025 291.505C193.557 290.498 189.656 281.849 189.656 281.849Z" fill="#575A89"/>
<path d="M199.739 281.922C199.739 281.922 202.001 280.522 202.46 280.889C202.919 281.255 207.232 281.255 207.324 281.621C207.416 281.987 207.6 290.773 210.72 293.061C213.841 295.349 211.821 299.925 211.821 299.925L214.116 303.586C214.116 303.586 201.634 315.575 202.46 311.457C202.506 311.229 202.46 311.183 202.46 311.183C202.46 311.183 197.595 290.407 198.238 289.309C198.88 288.21 200.048 283.23 199.739 281.922Z" fill="#575A89"/>
<path d="M218.98 290.316L206.498 294.617C206.498 294.617 194.107 297.546 196.035 300.933C197.962 304.319 206.131 298.553 206.131 298.553L222.753 296.696C222.753 296.696 229.351 291.14 218.98 290.316Z" fill="#FFB8B8"/>
<path d="M194.658 282.628C198.409 282.628 201.45 279.596 201.45 275.855C201.45 272.115 198.409 269.082 194.658 269.082C190.907 269.082 187.867 272.115 187.867 275.855C187.867 279.596 190.907 282.628 194.658 282.628Z" fill="#FFB8B8"/>
<path d="M189.25 269.124L187.993 268.668C187.993 268.668 190.62 266.049 194.275 266.276L193.247 265.251C193.247 265.251 195.76 264.34 198.044 266.732C199.245 267.989 200.634 269.467 201.5 271.132H202.846L202.284 272.252L204.249 273.372L202.232 273.171C202.423 274.138 202.358 275.137 202.041 276.071L201.585 277.324C201.585 277.324 199.757 273.679 199.757 273.224V274.363C199.757 274.363 198.501 273.338 198.501 272.654L197.816 273.452L197.473 272.199L193.247 273.452L193.932 272.427L191.305 272.768L192.333 271.515C192.333 271.515 189.364 272.996 189.25 274.249C189.135 275.502 187.651 277.096 187.651 277.096L186.965 275.957C186.965 275.957 185.937 270.832 189.25 269.124Z" fill="#2F2E41"/>
</svg>
