<svg width="360" height="376" viewBox="0 0 360 376" fill="none" xmlns="http://www.w3.org/2000/svg">
<path opacity="0.8" d="M-75.6048 368.28C-121.662 387.115 -205.763 368.824 -257.081 294.285C-308.399 219.747 -310.352 132.025 -261.443 98.3523C-212.534 64.6799 -88.2442 38.7343 -20.1619 98.3523C105.338 208.249 105.338 294.285 -75.6048 368.28Z" fill="white"/>
<path opacity="0.8" d="M461.529 223.318C353.01 223.318 293.079 369 207.867 369C122.655 369 202.356 227.879 147.253 127.942C120.703 57.6562 199.169 0 284.381 0C441.885 0 539.676 161.987 461.529 223.318Z" fill="white"/>
<path d="M204.819 181.32C213.434 181.32 220.419 174.324 220.419 165.693C220.419 157.062 213.434 150.066 204.819 150.066C196.203 150.066 189.219 157.062 189.219 165.693C189.219 174.324 196.203 181.32 204.819 181.32Z" fill="#A0616A"/>
<path d="M193.176 173.507C193.176 173.507 196.115 195.702 191.593 198.194C187.071 200.685 218.497 200.911 218.497 200.911C218.497 200.911 211.488 181.66 214.654 175.772L193.176 173.507Z" fill="#A0616A"/>
<path d="M241.444 201.024L238.831 212.946L233.305 238.169L233.139 239.55L231.232 255.542L229.963 266.166L229.113 273.302C223.941 275.965 220.192 277.803 220.192 277.803C220.192 277.803 219.87 276.184 219.35 274.112C215.721 275.202 209.004 277.01 203.313 277.372C205.385 279.686 206.338 281.86 205.046 283.465C201.147 288.301 185.05 278.169 179.419 274.39C179.288 275.295 179.239 276.209 179.271 277.123L174.962 273.804L175.389 266.166L176.108 253.243L177.012 237.036C176.727 236.343 176.488 235.63 176.297 234.905C174.977 230.204 173.376 220.817 172.147 212.946C171.159 206.611 170.416 201.258 170.259 200.118C170.238 199.97 170.228 199.893 170.228 199.893L194.078 189.335C195.773 193.273 203.688 194.457 203.688 194.457C210.245 194.004 215.385 190.54 215.385 190.54L241.444 201.024Z" fill="#D0CDE1"/>
<path d="M222.002 273.274C222.002 273.274 220.992 273.621 219.35 274.112C215.72 275.202 209.004 277.01 203.313 277.372C198.412 277.686 194.271 276.93 193.514 273.727C193.189 272.35 193.65 271.217 194.653 270.286C197.648 267.505 205.472 266.508 211.677 266.166C213.429 266.07 215.05 266.026 216.399 266.009C218.69 265.979 220.192 266.026 220.192 266.026L220.228 266.166L222.002 273.274Z" fill="#A0616A"/>
<path d="M191.841 150.911L188.925 149.741C188.925 149.741 195.023 143.015 203.509 143.6L201.122 140.968C201.122 140.968 206.956 138.628 212.259 144.769C215.047 147.998 218.272 151.793 220.283 156.067H223.407L222.103 158.943L226.666 161.819L221.982 161.302C222.262 162.877 222.304 164.485 222.11 166.072C221.909 167.66 221.1 169.108 219.854 170.109C219.854 170.109 216.236 162.609 216.236 161.439V164.363C216.236 164.363 213.319 161.731 213.319 159.977L211.729 162.024L210.933 158.807L201.122 162.024L202.713 159.392L196.614 160.269L199.001 157.052C199.001 157.052 192.107 160.854 191.841 164.071C191.576 167.288 189.558 170.336 189.558 170.336C189.558 170.336 184.152 155.298 191.841 150.911Z" fill="#2F2E41"/>
<path d="M258.4 255.833C256.812 257.559 252.874 260.158 248.101 262.972C246.326 264.017 244.435 265.095 242.507 266.166C237.906 268.722 233.088 271.256 229.113 273.302C223.941 275.965 220.192 277.803 220.192 277.803C220.192 277.803 219.87 276.184 219.35 274.112C218.654 271.338 217.606 267.753 216.514 266.166C216.476 266.111 216.438 266.06 216.399 266.009C216.081 265.59 215.761 265.345 215.445 265.345L231.232 255.542L238.054 251.305L233.139 239.55L226.974 224.806L230.695 212.946L234.435 201.024H241.444C241.444 201.024 243.765 206.099 246.733 213.175C247.176 214.234 247.634 215.337 248.101 216.476C254.207 231.352 261.818 252.125 258.4 255.833Z" fill="#D0CDE1"/>
<path d="M205.046 283.465C201.147 288.301 185.05 278.169 179.419 274.39C178.193 273.568 177.464 273.047 177.464 273.047L182.614 266.166L184.246 263.988C184.246 263.988 185.705 264.763 187.863 266.026C187.941 266.072 188.02 266.119 188.1 266.166C189.961 267.26 192.296 268.69 194.653 270.286C197.905 272.49 201.193 275.004 203.313 277.372C205.385 279.686 206.338 281.86 205.046 283.465Z" fill="#A0616A"/>
<path d="M187.863 266.026C187.287 266.023 186.712 266.07 186.144 266.166C181.267 267.005 179.829 271.428 179.42 274.39C179.288 275.295 179.239 276.209 179.271 277.123L174.962 273.804L173.393 272.594C169.615 271.275 166.248 268.931 163.329 266.166C160.797 263.725 158.525 261.026 156.551 258.114C154.585 255.243 152.832 252.231 151.307 249.103C150.881 248.23 150.653 247.274 150.637 246.303C150.621 245.331 150.819 244.368 151.216 243.482L156.551 231.571L164.349 214.161C164.407 213.747 164.469 213.342 164.538 212.946C166.085 204.063 170.228 200.118 170.228 200.118H173.393L175.51 212.946L178.14 228.882L176.297 234.905L172.037 248.814L176.108 253.243L187.863 266.026Z" fill="#D0CDE1"/>
<path d="M191.445 228.895L194.151 232.057C195.156 231.865 196.206 231.64 197.287 231.386L196.51 228.895L198.41 231.116C209.865 228.293 224.063 222.806 224.063 222.806C224.063 222.806 208.735 223.932 197.29 221.427C192.226 220.319 187.016 222.834 184.938 227.591C183.73 230.356 183.919 232.751 188.203 232.751C189.651 232.726 191.094 232.59 192.521 232.344L191.445 228.895Z" fill="#3EC1F0"/>
<path d="M253.129 280.872V282.162C253.13 282.516 253.064 282.867 252.936 283.197C252.879 283.344 252.81 283.486 252.73 283.622C252.477 284.047 252.119 284.399 251.689 284.643C251.259 284.888 250.774 285.016 250.28 285.016H155.55C155.056 285.016 154.57 284.888 154.141 284.643C153.711 284.399 153.352 284.047 153.1 283.622C153.02 283.486 152.951 283.344 152.894 283.197C152.766 282.867 152.7 282.516 152.701 282.162V280.872C152.701 280.497 152.774 280.126 152.917 279.779C153.061 279.433 153.27 279.118 153.535 278.853C153.8 278.588 154.114 278.378 154.459 278.235C154.805 278.091 155.176 278.018 155.55 278.018H161.01V277.416C161.01 277.401 161.013 277.385 161.019 277.371C161.025 277.356 161.034 277.343 161.045 277.332C161.056 277.321 161.069 277.312 161.084 277.306C161.098 277.3 161.113 277.297 161.129 277.297H163.978C163.994 277.297 164.009 277.3 164.024 277.306C164.038 277.312 164.051 277.321 164.062 277.332C164.073 277.343 164.082 277.356 164.088 277.371C164.094 277.385 164.097 277.401 164.097 277.416V278.018H165.877V277.416C165.877 277.401 165.88 277.385 165.886 277.371C165.892 277.356 165.9 277.343 165.911 277.332C165.922 277.321 165.936 277.312 165.95 277.306C165.964 277.3 165.98 277.297 165.995 277.297H168.844C168.86 277.297 168.876 277.3 168.89 277.306C168.904 277.312 168.917 277.321 168.929 277.332C168.94 277.343 168.948 277.356 168.954 277.371C168.96 277.385 168.963 277.401 168.963 277.416V278.018H170.745V277.416C170.745 277.401 170.748 277.385 170.754 277.371C170.76 277.356 170.769 277.343 170.78 277.332C170.791 277.321 170.804 277.312 170.819 277.306C170.833 277.3 170.848 277.297 170.864 277.297H173.713C173.729 277.297 173.744 277.3 173.759 277.306C173.773 277.312 173.786 277.321 173.797 277.332C173.808 277.343 173.817 277.356 173.823 277.371C173.829 277.385 173.832 277.401 173.832 277.416V278.018H175.612V277.416C175.612 277.401 175.615 277.385 175.621 277.371C175.627 277.356 175.635 277.343 175.646 277.332C175.657 277.321 175.671 277.312 175.685 277.306C175.699 277.3 175.715 277.297 175.73 277.297H178.579C178.595 277.297 178.611 277.3 178.625 277.306C178.639 277.312 178.652 277.321 178.664 277.332C178.675 277.343 178.683 277.356 178.689 277.371C178.695 277.385 178.698 277.401 178.698 277.416V278.018H180.478V277.416C180.478 277.401 180.481 277.385 180.487 277.371C180.493 277.356 180.502 277.343 180.513 277.332C180.524 277.321 180.537 277.312 180.551 277.306C180.566 277.3 180.581 277.297 180.597 277.297H183.446C183.462 277.297 183.477 277.3 183.491 277.306C183.506 277.312 183.519 277.321 183.53 277.332C183.541 277.343 183.55 277.356 183.556 277.371C183.562 277.385 183.565 277.401 183.565 277.416V278.018H185.347V277.416C185.347 277.401 185.35 277.385 185.356 277.371C185.362 277.356 185.37 277.343 185.381 277.332C185.392 277.321 185.406 277.312 185.42 277.306C185.434 277.3 185.45 277.297 185.465 277.297H188.314C188.33 277.297 188.346 277.3 188.36 277.306C188.374 277.312 188.387 277.321 188.399 277.332C188.41 277.343 188.418 277.356 188.424 277.371C188.43 277.385 188.433 277.401 188.433 277.416V278.018H190.213V277.416C190.213 277.401 190.216 277.385 190.222 277.371C190.228 277.356 190.237 277.343 190.248 277.332C190.259 277.321 190.272 277.312 190.286 277.306C190.301 277.3 190.316 277.297 190.332 277.297H212.649C212.664 277.297 212.68 277.3 212.694 277.306C212.709 277.312 212.722 277.321 212.733 277.332C212.744 277.343 212.753 277.356 212.759 277.371C212.765 277.385 212.768 277.401 212.768 277.416V278.018H214.55V277.416C214.55 277.401 214.553 277.385 214.559 277.371C214.564 277.356 214.573 277.343 214.584 277.332C214.595 277.321 214.608 277.312 214.623 277.306C214.637 277.3 214.653 277.297 214.668 277.297H217.517C217.549 277.298 217.579 277.31 217.601 277.332C217.623 277.355 217.636 277.385 217.636 277.416V278.018H219.416V277.416C219.416 277.401 219.419 277.385 219.425 277.371C219.431 277.356 219.44 277.343 219.451 277.332C219.462 277.321 219.475 277.312 219.489 277.306C219.504 277.3 219.519 277.297 219.535 277.297H222.384C222.399 277.297 222.415 277.3 222.429 277.306C222.444 277.312 222.457 277.321 222.468 277.332C222.479 277.343 222.488 277.356 222.494 277.371C222.5 277.385 222.503 277.401 222.503 277.416V278.018H224.282V277.416C224.282 277.401 224.285 277.385 224.291 277.371C224.297 277.356 224.306 277.343 224.317 277.332C224.328 277.321 224.341 277.312 224.356 277.306C224.37 277.3 224.386 277.297 224.401 277.297H227.25C227.266 277.297 227.281 277.3 227.296 277.306C227.31 277.312 227.323 277.321 227.334 277.332C227.345 277.343 227.354 277.356 227.36 277.371C227.366 277.385 227.369 277.401 227.369 277.416V278.018H229.151V277.416C229.151 277.401 229.154 277.385 229.16 277.371C229.166 277.356 229.175 277.343 229.186 277.332C229.197 277.321 229.21 277.312 229.224 277.306C229.239 277.3 229.254 277.297 229.27 277.297H232.119C232.15 277.298 232.18 277.31 232.202 277.333C232.223 277.355 232.236 277.385 232.236 277.416V278.018H234.017V277.416C234.017 277.401 234.02 277.385 234.026 277.371C234.032 277.356 234.041 277.343 234.052 277.332C234.063 277.321 234.076 277.312 234.091 277.306C234.105 277.3 234.121 277.297 234.136 277.297H236.985C237.001 277.297 237.016 277.3 237.031 277.306C237.045 277.312 237.058 277.321 237.069 277.332C237.08 277.343 237.089 277.356 237.095 277.371C237.101 277.385 237.104 277.401 237.104 277.416V278.018H238.884V277.416C238.884 277.401 238.887 277.385 238.893 277.371C238.899 277.356 238.908 277.343 238.919 277.332C238.93 277.321 238.943 277.312 238.957 277.306C238.972 277.3 238.987 277.297 239.003 277.297H241.852C241.867 277.297 241.883 277.3 241.897 277.306C241.912 277.312 241.925 277.321 241.936 277.332C241.947 277.343 241.956 277.356 241.962 277.371C241.967 277.385 241.971 277.401 241.971 277.416V278.018H250.28C250.654 278.018 251.025 278.091 251.37 278.235C251.716 278.378 252.03 278.588 252.295 278.853C252.559 279.118 252.769 279.433 252.912 279.779C253.055 280.126 253.129 280.497 253.129 280.872Z" fill="#3F3D56"/>
<path d="M280.675 283.197H125.178V283.622H280.675V283.197Z" fill="#3F3D56"/>
<path d="M245.501 226.547H210.192V225.818H194.182V226.547H158.728C158.094 226.547 157.487 226.799 157.039 227.248C156.591 227.696 156.339 228.305 156.339 228.939V277.374C156.339 278.009 156.591 278.617 157.039 279.066C157.487 279.515 158.094 279.767 158.728 279.767H245.501C246.135 279.767 246.742 279.515 247.19 279.066C247.638 278.617 247.89 278.009 247.89 277.374V228.939C247.89 228.625 247.828 228.314 247.708 228.024C247.588 227.734 247.412 227.47 247.19 227.248C246.968 227.025 246.705 226.849 246.415 226.729C246.125 226.609 245.815 226.547 245.501 226.547Z" fill="#3F3D56"/>
<path d="M202.184 248.769C205.113 248.769 207.487 246.391 207.487 243.457C207.487 240.522 205.113 238.144 202.184 238.144C199.255 238.144 196.881 240.522 196.881 243.457C196.881 246.391 199.255 248.769 202.184 248.769Z" stroke="#D0CDE1" stroke-width="2" stroke-miterlimit="10"/>
<path d="M200.487 250.682C203.416 250.682 205.79 248.303 205.79 245.369C205.79 242.435 203.416 240.056 200.487 240.056C197.558 240.056 195.183 242.435 195.183 245.369C195.183 248.303 197.558 250.682 200.487 250.682Z" fill="#D0CDE1"/>
<path d="M135.349 281.05H129.409V287H135.349V281.05Z" fill="#D0CDE1"/>
<path d="M131.744 276.374V283.6H138.956V276.374H131.744ZM138.642 283.285H132.055V276.689H138.642V283.285Z" fill="#3F3D56"/>
<path d="M272.814 281.05H266.875V287H272.814V281.05Z" fill="#D0CDE1"/>
<path d="M269.209 276.374V283.6H276.422V276.374H269.209ZM276.108 283.285H269.521V276.689H276.108V283.285Z" fill="#3F3D56"/>
<path d="M144.29 267.987C144.488 274.776 140.528 277.265 135.558 277.41C135.442 277.414 135.328 277.416 135.213 277.416C134.983 277.418 134.754 277.414 134.528 277.405C130.034 277.218 126.476 274.828 126.292 268.513C126.101 261.978 134.198 253.488 134.805 252.86L134.806 252.859C134.829 252.835 134.841 252.823 134.841 252.823C134.841 252.823 144.092 261.197 144.29 267.987Z" fill="#D0CDE1"/>
<path d="M135.2 276.381L138.357 271.678L135.207 276.887L135.213 277.416C134.983 277.418 134.754 277.414 134.528 277.405L134.685 270.602L134.681 270.549L134.687 270.539L134.701 269.896L131.244 264.868L134.697 269.415L134.71 269.551L134.828 264.411L131.842 259.198L134.836 263.508L134.805 252.86L134.805 252.824L134.806 252.859L135.005 261.252L137.726 257.843L135.013 261.975L135.073 266.572L137.577 262.085L135.082 267.248L135.115 269.805L138.757 263.554L135.126 270.696L135.2 276.381Z" fill="#3F3D56"/>
<path d="M281.756 267.987C281.953 274.776 277.993 277.265 273.023 277.41C272.908 277.414 272.793 277.416 272.678 277.416C272.448 277.418 272.22 277.414 271.994 277.405C267.499 277.218 263.941 274.828 263.757 268.513C263.566 261.978 271.663 253.488 272.27 252.86L272.272 252.859C272.295 252.835 272.306 252.823 272.306 252.823C272.306 252.823 281.558 261.197 281.756 267.987Z" fill="#D0CDE1"/>
<path d="M272.665 276.381L275.822 271.678L272.672 276.887L272.678 277.416C272.448 277.418 272.22 277.414 271.994 277.405L272.15 270.602L272.146 270.549L272.152 270.539L272.167 269.896L268.709 264.868L272.163 269.415L272.175 269.551L272.293 264.411L269.307 259.198L272.302 263.508L272.27 252.86L272.271 252.824L272.272 252.859L272.47 261.252L275.191 257.843L272.479 261.975L272.538 266.572L275.043 262.085L272.547 267.248L272.58 269.805L276.222 263.554L272.591 270.696L272.665 276.381Z" fill="#3F3D56"/>
<path d="M146.355 188.67H106.648V159.779C106.648 148.668 115.472 139.779 126.502 139.779C137.531 139.779 146.355 148.668 146.355 159.779V188.67ZM155.179 184.225V159.779C155.179 146.134 145.738 134.712 133.12 131.689V128.667C133.12 126.899 132.422 125.203 131.181 123.953C129.94 122.702 128.257 122 126.502 122C124.746 122 123.063 122.702 121.822 123.953C120.581 125.203 119.884 126.899 119.884 128.667V131.689C107.221 134.712 97.8239 146.134 97.8239 159.779V184.225L89 193.114V197.559H164.003V193.114L155.179 184.225ZM126.502 210.893C128.842 210.893 131.086 209.956 132.741 208.289C134.396 206.622 135.326 204.361 135.326 202.003H117.678C117.678 204.361 118.607 206.622 120.262 208.289C121.917 209.956 124.161 210.893 126.502 210.893Z" fill="white"/>
</svg>
