<svg width="360" height="393" viewBox="0 0 360 393" fill="none" xmlns="http://www.w3.org/2000/svg">
<path opacity="0.8" d="M102.529 223.318C-5.99005 223.318 -65.9214 369 -151.133 369C-236.345 369 -156.644 227.879 -211.747 127.942C-238.297 57.6562 -159.831 0 -74.6189 0C82.8854 0 180.676 161.987 102.529 223.318Z" fill="white"/>
<path opacity="0.8" d="M308.826 347.894C272.642 372.805 218.414 356.838 187.702 312.231C156.991 267.623 161.427 211.267 197.611 186.356C233.794 161.445 337.615 125.631 368.326 170.239C425.092 252.69 345.009 322.983 308.826 347.894Z" fill="white" fill-opacity="0.7"/>
<g clip-path="url(#clip0_10363_62)">
<path d="M126.625 248.829H79.3262V293.307H126.625V248.829Z" fill="#3F3D56"/>
<path d="M145.951 308.772H60V233.364H145.951V308.772ZM60.5086 308.261H145.442V233.875H60.5086V308.261Z" fill="#3F3D56"/>
<path d="M263.795 204.789C256.634 204.789 249.634 202.654 243.681 198.655C237.727 194.656 233.086 188.972 230.346 182.322C227.606 175.672 226.889 168.354 228.286 161.294C229.683 154.234 233.131 147.749 238.194 142.66C243.258 137.57 249.709 134.104 256.732 132.699C263.755 131.295 271.034 132.016 277.65 134.77C284.266 137.525 289.92 142.19 293.898 148.175C297.877 154.16 300 161.196 300 168.394C299.989 178.043 296.171 187.294 289.384 194.117C282.596 200.94 273.394 204.778 263.795 204.789ZM263.795 132.539C256.74 132.539 249.844 134.642 243.979 138.582C238.113 142.522 233.541 148.121 230.842 154.673C228.142 161.225 227.435 168.434 228.812 175.389C230.188 182.344 233.585 188.733 238.574 193.748C243.562 198.762 249.917 202.177 256.836 203.56C263.755 204.944 270.927 204.234 277.445 201.52C283.962 198.806 289.533 194.211 293.452 188.314C297.372 182.418 299.464 175.486 299.464 168.394C299.453 158.888 295.692 149.775 289.005 143.053C282.318 136.331 273.252 132.55 263.795 132.539V132.539Z" fill="#3F3D56"/>
<path d="M262.722 185.917C272.35 185.917 280.154 178.072 280.154 168.394C280.154 158.717 272.35 150.871 262.722 150.871C253.095 150.871 245.29 158.717 245.29 168.394C245.29 178.072 253.095 185.917 262.722 185.917Z" fill="#3F3D56"/>
<path d="M277.35 287.116L266.995 293.126L272.973 303.535L283.328 297.526L277.35 287.116Z" fill="#E5E5E5"/>
<path d="M107.298 266.722H98.6524V275.413H107.298V266.722Z" fill="white"/>
<path d="M262.722 172.708C265.092 172.708 267.013 170.777 267.013 168.394C267.013 166.012 265.092 164.081 262.722 164.081C260.352 164.081 258.431 166.012 258.431 168.394C258.431 170.777 260.352 172.708 262.722 172.708Z" fill="white"/>
<path d="M248.052 226.96L225.84 239.851L238.664 262.18L260.876 249.289L248.052 226.96Z" fill="white"/>
<path d="M256.393 330.341H118.689V331H256.393V330.341Z" fill="#CBCBCB"/>
<path d="M170.947 241.436C170.548 240.92 170.267 240.323 170.122 239.687C169.977 239.05 169.973 238.389 170.11 237.751C170.247 237.112 170.522 236.512 170.915 235.992C171.307 235.471 171.809 235.044 172.384 234.74L171.456 224.574L177.464 222.501L178.574 236.875C179.018 237.879 179.081 239.013 178.749 240.061C178.418 241.109 177.716 241.998 176.776 242.56C175.836 243.122 174.723 243.319 173.649 243.111C172.575 242.904 171.614 242.308 170.947 241.436Z" fill="#FFB8B8"/>
<path d="M177.397 183.091C177.397 183.091 181.52 174.394 185.183 177.453C188.847 180.513 180.161 206.23 180.161 206.23L178.84 231.195L171.877 230.496L169.909 206.172L177.397 183.091Z" fill="#CCCCCC"/>
<path d="M122.095 311.769L127.264 315.974L145.861 297.936L138.232 291.729L122.095 311.769Z" fill="#FFB8B8"/>
<path d="M122.143 309L132.321 317.282L132.322 317.282C134.042 318.682 135.139 320.712 135.37 322.925C135.602 325.137 134.95 327.352 133.557 329.081L133.387 329.293L116.721 315.732L122.143 309Z" fill="#2F2E41"/>
<path d="M193.925 323.443L200.575 323.443L203.738 297.66L193.924 297.661L193.925 323.443Z" fill="#FFB8B8"/>
<path d="M192.229 321.261L205.324 321.26H205.325C207.538 321.261 209.661 322.144 211.226 323.718C212.791 325.291 213.67 327.425 213.67 329.649V329.922L192.229 329.923L192.229 321.261Z" fill="#2F2E41"/>
<path d="M205.593 202.572C205.593 202.572 218.068 217.838 215.356 233.104C212.644 248.371 210.475 259.821 210.475 259.821L206.136 294.17C206.136 294.17 207.763 303.525 205.593 305.935C205.593 305.935 208.848 311.617 202.881 313.798C196.915 315.979 193.696 313.045 193.696 313.045C193.696 313.045 189.321 306.71 192.033 305.074L193.176 237.665L149.727 294.715C149.727 294.715 148.928 301.655 143.361 301.729L136.71 306.71L129.116 302.348L132.913 297.441C132.913 297.441 130.743 291.989 135.625 290.899L163.829 253.823L170.88 234.74C170.88 234.74 174.677 220.019 184.982 214.021V207.64L205.593 202.572Z" fill="#2F2E41"/>
<path d="M184.169 176.128C185.811 174.177 188.11 172.901 190.627 172.544C193.145 172.187 195.705 172.773 197.82 174.19L198.271 174.492C203.085 179.973 206.321 186.67 207.63 193.862L209.661 205.025L184.169 210.576L178.193 189.857C177.434 187.228 177.617 184.414 178.708 181.905C179.8 179.397 181.732 177.353 184.169 176.128V176.128Z" fill="#CCCCCC"/>
<path d="M226.051 243.809C225.344 243.577 224.697 243.192 224.154 242.681C223.612 242.17 223.187 241.545 222.911 240.852C222.634 240.158 222.512 239.412 222.553 238.665C222.595 237.919 222.798 237.191 223.15 236.532L215.796 227.485L220.175 221.652L230.382 234.575C231.443 235.242 232.225 236.277 232.578 237.484C232.93 238.692 232.831 239.987 232.297 241.126C231.763 242.264 230.832 243.166 229.681 243.66C228.53 244.155 227.239 244.208 226.051 243.809Z" fill="#FFB8B8"/>
<path d="M195.017 184.307C195.017 184.307 193.389 173.402 198.813 173.947C204.237 174.492 212.373 204.48 212.373 204.48L227.018 229.015L219.967 232.832L202.61 211.023L195.017 184.307Z" fill="#CCCCCC"/>
<path d="M204.949 168.364H179.121C178.589 168.364 178.08 168.151 177.704 167.774C177.329 167.396 177.117 166.884 177.117 166.35V155.159C177.117 151.182 178.689 147.367 181.486 144.555C184.284 141.743 188.078 140.163 192.035 140.163C195.991 140.163 199.786 141.743 202.584 144.555C205.381 147.367 206.953 151.182 206.953 155.159V166.35C206.952 166.884 206.741 167.396 206.365 167.774C205.99 168.151 205.48 168.364 204.949 168.364Z" fill="#2F2E41"/>
<path d="M204.697 162.383C207.595 157.055 205.647 150.375 200.347 147.462C195.046 144.55 188.401 146.508 185.503 151.836C182.606 157.164 184.554 163.844 189.854 166.757C195.154 169.669 201.8 167.711 204.697 162.383Z" fill="#FFB8B8"/>
<path d="M210.482 156.278H196.718L196.576 153.999L195.871 156.278H193.751L193.472 151.761L192.073 156.278H187.972V156.054C187.972 149.513 192.586 144.192 198.257 144.192H200.197C205.868 144.192 210.482 149.513 210.482 156.054L210.482 156.278Z" fill="#2F2E41"/>
<path d="M197.287 170.454C197.119 170.453 196.951 170.44 196.785 170.415L180.401 167.878V150.724C180.401 149.857 180.571 148.997 180.902 148.196C181.232 147.394 181.716 146.666 182.327 146.052C182.937 145.439 183.662 144.952 184.459 144.62C185.256 144.288 186.111 144.117 186.974 144.117H198.436L197.99 144.574C191.778 150.932 196.458 161.241 199.801 166.82C200.046 167.222 200.157 167.691 200.117 168.16C200.077 168.629 199.888 169.073 199.578 169.426C199.294 169.755 198.941 170.017 198.546 170.194C198.15 170.372 197.721 170.46 197.287 170.454Z" fill="#2F2E41"/>
</g>
<defs>
<clipPath id="clip0_10363_62">
<rect width="240" height="199" fill="white" transform="translate(60 132)"/>
</clipPath>
</defs>
</svg>
