<svg width="26" height="34" viewBox="0 0 26 34" fill="none" xmlns="http://www.w3.org/2000/svg">
<path d="M24.691 2.80782C25.0672 3.22876 25.2553 3.43923 25.3979 3.67346C25.588 3.98576 25.7195 4.3302 25.7858 4.68978C25.8355 4.95947 25.8355 5.24173 25.8355 5.80624V33.3544C25.8354 33.5256 25.7804 33.6897 25.6825 33.8108C25.5847 33.9318 25.452 33.9999 25.3136 34H0.52193C0.383539 33.9999 0.250846 33.9318 0.152989 33.8108C0.0551317 33.6897 0.00010966 33.5256 0 33.3544V0.64557C0.00010943 0.474395 0.0551317 0.310272 0.152989 0.189233C0.250846 0.0681951 0.383539 0.000135352 0.52193 0H20.1683C20.8269 0 21.1563 0 21.466 0.0661479C21.8791 0.154345 22.2688 0.328752 22.6098 0.577958C22.8655 0.764862 23.0849 1.01043 23.5238 1.50157L24.691 2.80782Z" fill="#D3D3D3"/>
<path d="M4.34803 7.04596C4.26222 7.04795 4.18042 7.09595 4.12025 7.17961C4.06008 7.26328 4.02637 7.37592 4.02637 7.49325C4.02637 7.61058 4.06008 7.72322 4.12025 7.80688C4.18042 7.89055 4.26222 7.93855 4.34803 7.94054H12.9753C13.0184 7.94176 13.0612 7.93133 13.1013 7.90986C13.1414 7.88839 13.1781 7.85629 13.2091 7.81542C13.2401 7.77455 13.2649 7.72569 13.2821 7.67167C13.2993 7.61765 13.3085 7.55952 13.3092 7.50062C13.3099 7.44172 13.3021 7.38321 13.2862 7.32845C13.2704 7.27369 13.2467 7.22375 13.2167 7.18151C13.1867 7.13926 13.1508 7.10554 13.1113 7.08228C13.0717 7.05902 13.0291 7.04667 12.986 7.04596C12.9825 7.04588 12.9789 7.04588 12.9753 7.04596H4.34803Z" fill="white"/>
<path d="M4.34896 10.8487C4.26291 10.8507 4.18087 10.8987 4.12053 10.9823C4.06018 11.066 4.02637 11.1787 4.02637 11.296C4.02637 11.4134 4.06018 11.526 4.12053 11.6097C4.18087 11.6934 4.26291 11.7414 4.34896 11.7433H21.477C21.5638 11.7448 21.6475 11.6993 21.7098 11.6169C21.772 11.5344 21.8078 11.4217 21.8092 11.3033C21.8106 11.185 21.7776 11.0707 21.7174 10.9855C21.6571 10.9003 21.5746 10.8511 21.4878 10.8487C21.4842 10.8486 21.4806 10.8486 21.477 10.8487H4.34896Z" fill="white"/>
<path d="M4.34892 14.7632C4.26287 14.765 4.18085 14.807 4.12051 14.8802C4.06018 14.9534 4.02637 15.0519 4.02637 15.1546C4.02637 15.2573 4.06018 15.3558 4.12051 15.4291C4.18085 15.5023 4.26287 15.5443 4.34892 15.546H21.4745C21.5177 15.547 21.5606 15.5379 21.6008 15.5191C21.641 15.5003 21.6778 15.4722 21.7089 15.4365C21.74 15.4007 21.7648 15.358 21.7821 15.3107C21.7993 15.2634 21.8085 15.2126 21.8092 15.1611C21.8099 15.1095 21.8021 15.0584 21.7862 15.0104C21.7703 14.9625 21.7466 14.9188 21.7165 14.8819C21.6864 14.8449 21.6505 14.8154 21.6108 14.7951C21.5711 14.7747 21.5285 14.7639 21.4853 14.7632C21.4817 14.7632 21.4781 14.7632 21.4745 14.7632H4.34892Z" fill="white"/>
<path d="M4.34889 18.4542C4.26285 18.4559 4.18083 18.4979 4.1205 18.5711C4.06017 18.6443 4.02637 18.7429 4.02637 18.8455C4.02637 18.9482 4.06017 19.0468 4.1205 19.12C4.18083 19.1932 4.26285 19.2352 4.34889 19.2369H21.4744C21.5176 19.238 21.5605 19.2289 21.6008 19.2101C21.641 19.1913 21.6777 19.1632 21.7088 19.1274C21.7399 19.0917 21.7648 19.0489 21.782 19.0017C21.7993 18.9544 21.8085 18.9035 21.8092 18.852C21.8099 18.8004 21.8021 18.7493 21.7862 18.7013C21.7703 18.6534 21.7466 18.6097 21.7165 18.5728C21.6863 18.5358 21.6504 18.5063 21.6107 18.4859C21.571 18.4656 21.5284 18.4548 21.4852 18.4542C21.4816 18.4541 21.478 18.4541 21.4744 18.4542H4.34889Z" fill="white"/>
<path d="M4.34889 22.2569C4.26285 22.2589 4.18083 22.3069 4.1205 22.3906C4.06017 22.4742 4.02637 22.5869 4.02637 22.7042C4.02637 22.8215 4.06017 22.9342 4.1205 23.0178C4.18083 23.1015 4.26285 23.1495 4.34889 23.1515H21.4744C21.5176 23.1527 21.5605 23.1423 21.6008 23.1208C21.641 23.0993 21.6777 23.0672 21.7088 23.0264C21.7399 22.9855 21.7648 22.9366 21.782 22.8826C21.7993 22.8286 21.8085 22.7705 21.8092 22.7116C21.8099 22.6527 21.8021 22.5942 21.7862 22.5394C21.7703 22.4846 21.7466 22.4347 21.7165 22.3924C21.6863 22.3502 21.6504 22.3165 21.6107 22.2932C21.571 22.27 21.5284 22.2576 21.4852 22.2569C21.4816 22.2568 21.478 22.2568 21.4744 22.2569H4.34889Z" fill="white"/>
<path d="M4.34889 26.0591C4.26285 26.0611 4.18083 26.1091 4.1205 26.1928C4.06017 26.2765 4.02637 26.3891 4.02637 26.5064C4.02637 26.6238 4.06017 26.7364 4.1205 26.8201C4.18083 26.9037 4.26285 26.9517 4.34889 26.9537H21.4744C21.5176 26.9549 21.5605 26.9445 21.6008 26.923C21.641 26.9016 21.6777 26.8695 21.7088 26.8286C21.7399 26.7877 21.7648 26.7389 21.782 26.6849C21.7993 26.6308 21.8085 26.5727 21.8092 26.5138C21.8099 26.4549 21.8021 26.3964 21.7862 26.3416C21.7703 26.2869 21.7466 26.2369 21.7165 26.1947C21.6863 26.1524 21.6504 26.1187 21.6107 26.0955C21.571 26.0722 21.5284 26.0599 21.4852 26.0591C21.4816 26.0591 21.478 26.0591 21.4744 26.0591H4.34889Z" fill="white"/>
<path d="M25.8353 4.13816H22.496C22.4028 4.13816 22.3134 4.09227 22.2475 4.01058C22.1816 3.92889 22.1445 3.81809 22.1445 3.70256V0L25.8353 4.13816Z" fill="#D3D3D3"/>
<path opacity="0.2" d="M25.8353 4.13816H22.496C22.4028 4.13816 22.3134 4.09227 22.2475 4.01058C22.1816 3.92889 22.1445 3.81809 22.1445 3.70256V0L25.8353 4.13816Z" fill="black"/>
</svg>
