<svg width="285" height="170" viewBox="0 0 285 170" fill="none" xmlns="http://www.w3.org/2000/svg">
<path d="M60.4237 38.5538C27.4877 38.5538 0.81665 63.8112 0.81665 94.9318C0.81665 126.052 27.4877 151.31 60.4237 151.31C93.4193 151.31 120.15 126.052 120.15 94.9318C120.15 63.8112 93.4193 38.5538 60.4237 38.5538ZM60.4833 140.034C34.1107 140.034 12.75 119.851 12.75 94.9318C12.75 70.0127 34.1107 49.8294 60.4833 49.8294C86.856 49.8294 108.217 70.0127 108.217 94.9318C108.217 119.851 86.856 140.034 60.4833 140.034ZM63.4667 66.7428H54.5167V100.57L85.8417 118.329L90.3167 111.394L63.4667 96.3412V66.7428Z" fill="#3DC0F0"/>
<path d="M218.939 168.623C218.712 168.806 218.477 168.985 218.24 169.162H189.428C189.263 168.985 189.098 168.806 188.935 168.623C187.604 167.115 186.433 165.488 185.438 163.765C183.073 159.739 182.258 154.461 182.258 149.085C182.258 148.756 182.26 148.428 182.267 148.1C182.294 146.592 182.383 145.081 182.514 143.596C182.538 143.338 182.562 143.082 182.589 142.826C182.802 140.695 183.102 138.621 183.442 136.682C183.485 136.436 183.528 136.191 183.574 135.949C184.267 132.099 185.197 128.29 186.358 124.543C186.358 124.543 186.397 124.552 186.471 124.57C186.684 124.626 187.195 124.76 187.945 124.971C190.011 125.55 193.891 126.719 198.365 128.456C198.61 128.548 198.856 128.646 199.106 128.745C202.891 130.22 206.555 131.959 210.067 133.947C210.286 134.071 210.501 134.198 210.717 134.325V134.343L210.245 148.784L214.463 136.762C215.323 137.38 216.145 138.021 216.929 138.684C217.144 138.865 217.36 139.051 217.569 139.243C219.349 140.785 220.869 142.576 222.074 144.554C228.384 155.303 225.736 163.206 218.939 168.623Z" fill="#F2F2F2"/>
<path d="M214.877 169.162H214.111C214.106 168.983 214.099 168.804 214.087 168.623C213.778 163.19 211.311 157.192 207.954 151.401C207.834 151.191 207.712 150.976 207.582 150.765C205.953 148.011 204.136 145.317 202.26 142.756C202.116 142.556 201.967 142.355 201.819 142.156C199.321 138.788 196.743 135.672 194.413 133.012C194.25 132.821 194.083 132.636 193.917 132.452C190.464 128.539 187.614 125.688 186.471 124.57C186.301 124.404 186.169 124.278 186.078 124.189C185.994 124.103 185.944 124.058 185.934 124.049L186.203 123.795L186.205 123.789L186.478 123.535C186.488 123.546 186.653 123.696 186.946 123.983C187.192 124.221 187.53 124.554 187.945 124.971C189.393 126.42 191.787 128.886 194.557 132.013C194.718 132.194 194.883 132.382 195.048 132.57C196.939 134.728 198.988 137.174 201.018 139.803C201.529 140.464 202.024 141.12 202.504 141.771C202.655 141.97 202.804 142.169 202.947 142.368C204.977 145.136 206.75 147.797 208.265 150.353L208.644 150.994C212.507 157.651 214.588 163.548 214.856 168.623C214.865 168.804 214.873 168.983 214.877 169.162Z" fill="white"/>
<path d="M198.787 127.926C198.65 128.105 198.511 128.281 198.365 128.456C197.266 129.794 195.986 130.99 194.557 132.013C194.349 132.158 194.135 132.307 193.917 132.452C193.322 132.845 192.706 133.207 192.072 133.539C189.457 134.915 186.558 135.737 183.574 135.949C183.478 135.958 183.38 135.965 183.284 135.969C183.241 136.211 183.2 136.454 183.154 136.7C183.25 136.696 183.346 136.691 183.442 136.682C186.603 136.488 189.678 135.632 192.446 134.176C193.123 133.821 193.78 133.432 194.413 133.012C194.629 132.869 194.84 132.72 195.048 132.57C196.577 131.473 197.941 130.187 199.106 128.745C199.245 128.571 199.381 128.394 199.516 128.218C199.266 128.118 199.024 128.021 198.787 127.926Z" fill="white"/>
<path d="M210.329 133.435C210.245 133.607 210.156 133.777 210.068 133.947C208.359 137.164 205.741 139.872 202.504 141.771C202.279 141.904 202.051 142.033 201.819 142.156C201.749 142.194 201.675 142.235 201.605 142.271C198.712 143.788 195.476 144.63 192.168 144.727C188.86 144.823 185.576 144.172 182.589 142.826C182.517 142.794 182.447 142.762 182.378 142.731C182.351 142.989 182.327 143.247 182.308 143.508C182.375 143.537 182.445 143.569 182.514 143.596C185.587 144.934 188.951 145.57 192.333 145.45C195.714 145.33 199.018 144.459 201.977 142.907C202.073 142.858 202.166 142.808 202.26 142.756C202.492 142.629 202.722 142.5 202.947 142.368C206.265 140.415 208.952 137.639 210.717 134.343C210.811 134.173 210.899 134.001 210.985 133.827C210.767 133.696 210.549 133.564 210.329 133.435Z" fill="white"/>
<path d="M217.056 138.17C217.015 138.342 216.975 138.514 216.929 138.684C215.696 143.465 212.603 147.631 208.265 150.353C208.043 150.496 207.813 150.632 207.582 150.765C207.336 150.906 207.089 151.046 206.835 151.177C202.931 153.219 198.437 154.022 194.014 153.468C189.591 152.914 185.473 151.032 182.268 148.1C182.212 148.052 182.16 148.003 182.107 147.953C182.107 148.29 182.105 148.623 182.109 148.958C182.157 149.001 182.208 149.044 182.258 149.085C185.596 151.942 189.796 153.742 194.27 154.231C198.744 154.72 203.268 153.875 207.209 151.814C207.463 151.682 207.712 151.546 207.954 151.401C208.189 151.27 208.416 151.134 208.644 150.994C213.043 148.244 216.22 144.062 217.569 139.244C217.614 139.081 217.66 138.917 217.701 138.752C217.492 138.553 217.274 138.365 217.056 138.17Z" fill="white"/>
<path d="M196.963 101.296H60.4834V4.54419H196.963V101.296Z" fill="white"/>
<path d="M93.5552 24.737C96.5555 24.737 98.9877 22.4388 98.9877 19.6039C98.9877 16.7689 96.5555 14.4707 93.5552 14.4707C90.5548 14.4707 88.1226 16.7689 88.1226 19.6039C88.1226 22.4388 90.5548 24.737 93.5552 24.737Z" fill="#E6E6E6"/>
<path d="M106.102 16.1816C105.862 16.182 105.632 16.2724 105.463 16.4328C105.293 16.5932 105.198 16.8105 105.198 17.0372C105.198 17.2638 105.293 17.4812 105.463 17.6416C105.632 17.8019 105.862 17.8923 106.102 17.8927H172.209C172.449 17.8923 172.679 17.8019 172.848 17.6416C173.017 17.4812 173.113 17.2638 173.113 17.0372C173.113 16.8105 173.017 16.5932 172.848 16.4328C172.679 16.2724 172.449 16.182 172.209 16.1816H106.102Z" fill="#E6E6E6"/>
<path d="M106.102 21.3148C105.862 21.3143 105.631 21.404 105.461 21.5641C105.291 21.7242 105.195 21.9417 105.194 22.1686C105.194 22.3955 105.289 22.6133 105.458 22.774C105.628 22.9348 105.858 23.0254 106.098 23.0259H147.891C148.01 23.0261 148.128 23.0041 148.238 22.9612C148.348 22.9183 148.448 22.8553 148.533 22.7759C148.617 22.6964 148.684 22.602 148.729 22.4981C148.775 22.3942 148.798 22.2828 148.798 22.1704C148.798 22.0579 148.775 21.9465 148.729 21.8426C148.684 21.7387 148.617 21.6443 148.533 21.5649C148.448 21.4854 148.348 21.4224 148.238 21.3795C148.128 21.3366 148.01 21.3146 147.891 21.3148H106.102Z" fill="#E6E6E6"/>
<path d="M196.963 101.296H60.4834V4.54419H196.963V101.296ZM62.0109 99.8523H195.435V5.98755H62.0109V99.8523Z" fill="#E6E6E6"/>
<path d="M68.1113 34.0494V91.5955H189.334V34.0494H68.1113ZM188.752 48.2982H159.174V34.6001H188.752V48.2982ZM129.014 48.2982V34.6001H158.591V48.2982H129.014ZM158.591 48.8489V62.5471H129.014V48.8489H158.591ZM128.431 48.2982H98.8542V34.6001H128.431V48.2982ZM128.431 48.8489V62.5471H98.8542V48.8489H128.431ZM98.2714 62.5471H68.6941V48.8489H98.2714V62.5471ZM98.2714 63.0978V76.7959H68.6941V63.0978H98.2714ZM98.8542 63.0978H128.431V76.7959H98.8542V63.0978ZM128.431 77.3466V91.0448H98.8542V77.3466H128.431ZM129.014 77.3466H158.591V91.0448H129.014V77.3466ZM129.014 76.7959V63.0978H158.591V76.7959H129.014ZM159.174 63.0978H188.752V76.7959H159.174V63.0978ZM159.174 62.5471V48.8489H188.752V62.5471H159.174ZM98.2714 34.6001V48.2982H68.6941V34.6001H98.2714ZM68.6941 77.3466H98.2714V91.0448H68.6941V77.3466ZM159.174 91.0448V77.3466H188.752V91.0448H159.174Z" fill="#E4E4E4"/>
<path d="M117.875 49.5311L105.813 49.273C104.606 44.8569 105.15 40.6522 106.112 36.7775L118.174 37.0355C116.954 41.1093 116.851 45.4093 117.875 49.5311Z" fill="#00B0FF"/>
<path d="M108.179 39.5391L108.185 39.1054L114.434 39.3163L114.428 39.75L108.179 39.5391Z" fill="white"/>
<path d="M108.153 41.2737L108.159 40.84L114.408 41.0512L114.401 41.4849L108.153 41.2737Z" fill="white"/>
<path d="M108.126 43.0084L108.133 42.5747L114.381 42.7859L114.375 43.2195L108.126 43.0084Z" fill="white"/>
<path d="M108.1 44.743L108.106 44.3093L114.355 44.5205L114.349 44.9541L108.1 44.743Z" fill="white"/>
<path d="M108.074 46.4776L108.08 46.0439L114.329 46.2551L114.323 46.6888L108.074 46.4776Z" fill="white"/>
<path d="M91.6488 81.4706L79.5869 81.2126C78.3804 76.7965 78.9236 72.5917 79.8863 68.717L91.9482 68.9751C90.7282 73.0488 90.6251 77.3489 91.6488 81.4706Z" fill="#F0F0F0"/>
<path d="M81.9526 71.4785L81.959 71.0448L88.2082 71.2557L88.2015 71.6894L81.9526 71.4785Z" fill="white"/>
<path d="M81.9265 73.2132L81.9329 72.7795L88.1817 72.9907L88.1753 73.4244L81.9265 73.2132Z" fill="white"/>
<path d="M81.8999 74.9478L81.9066 74.5142L88.1554 74.7254L88.149 75.159L81.8999 74.9478Z" fill="white"/>
<path d="M81.8738 76.6825L81.8802 76.2488L88.1293 76.46L88.1226 76.8936L81.8738 76.6825Z" fill="white"/>
<path d="M81.8474 78.4172L81.8538 77.9835L88.1029 78.1947L88.0962 78.6284L81.8474 78.4172Z" fill="white"/>
<path d="M154.591 66.8775L142.529 66.6195C141.323 62.2034 141.866 57.9986 142.829 54.1239L154.891 54.3819C153.671 58.4557 153.568 62.7558 154.591 66.8775Z" fill="#F0F0F0"/>
<path d="M144.895 56.8855L144.902 56.4518L151.151 56.6627L151.144 57.0964L144.895 56.8855Z" fill="white"/>
<path d="M144.869 58.6202L144.876 58.1865L151.124 58.3977L151.118 58.8314L144.869 58.6202Z" fill="white"/>
<path d="M144.843 60.3547L144.849 59.921L151.098 60.1322L151.092 60.5659L144.843 60.3547Z" fill="white"/>
<path d="M144.816 62.0894L144.823 61.6558L151.072 61.8669L151.065 62.3006L144.816 62.0894Z" fill="white"/>
<path d="M144.79 63.8241L144.797 63.3904L151.046 63.6016L151.039 64.0352L144.79 63.8241Z" fill="white"/>
<path d="M149.346 64.1241L137.284 63.866C136.078 59.4499 136.621 55.2452 137.584 51.3705L149.645 51.6285C148.425 55.7023 148.322 60.0023 149.346 64.1241Z" fill="#00B0FF"/>
<path d="M139.65 54.1321L139.657 53.6985L145.906 53.9094L145.899 54.343L139.65 54.1321Z" fill="white"/>
<path d="M139.624 55.8666L139.63 55.433L145.879 55.6442L145.873 56.0778L139.624 55.8666Z" fill="white"/>
<path d="M139.597 57.6014L139.604 57.1677L145.853 57.3789L145.847 57.8126L139.597 57.6014Z" fill="white"/>
<path d="M139.571 59.336L139.577 58.9023L145.827 59.1135L145.82 59.5472L139.571 59.336Z" fill="white"/>
<path d="M139.545 61.0706L139.552 60.637L145.801 60.8482L145.794 61.2818L139.545 61.0706Z" fill="white"/>
<path d="M193.834 89.2763L181.772 89.0183C180.565 84.6022 181.108 80.3974 182.071 76.5227L194.133 76.7807C192.913 80.8545 192.81 85.1546 193.834 89.2763Z" fill="#00B0FF"/>
<path d="M184.137 79.2841L184.144 78.8504L190.393 79.0616L190.386 79.4953L184.137 79.2841Z" fill="white"/>
<path d="M184.111 81.0189L184.117 80.5852L190.367 80.7964L190.36 81.23L184.111 81.0189Z" fill="white"/>
<path d="M184.084 82.7538L184.091 82.3201L190.34 82.531L190.334 82.9647L184.084 82.7538Z" fill="white"/>
<path d="M184.058 84.4883L184.065 84.0547L190.314 84.2656L190.307 84.6992L184.058 84.4883Z" fill="white"/>
<path d="M184.032 86.223L184.039 85.7894L190.288 86.0006L190.281 86.4342L184.032 86.223Z" fill="white"/>
<path d="M180.817 51.7338L168.756 51.4758C167.549 47.0597 168.092 42.8549 169.055 38.9802L181.117 39.2383C179.897 43.312 179.794 47.6121 180.817 51.7338Z" fill="#F0F0F0"/>
<path d="M171.122 41.7418L171.128 41.3081L177.377 41.519L177.37 41.9527L171.122 41.7418Z" fill="white"/>
<path d="M171.095 43.4764L171.102 43.0427L177.351 43.2539L177.344 43.6876L171.095 43.4764Z" fill="white"/>
<path d="M171.069 45.2111L171.076 44.7775L177.324 44.9886L177.318 45.4223L171.069 45.2111Z" fill="white"/>
<path d="M171.042 46.9457L171.049 46.5121L177.298 46.7233L177.291 47.1569L171.042 46.9457Z" fill="white"/>
<path d="M171.017 48.6804L171.023 48.2467L177.272 48.4579L177.265 48.8915L171.017 48.6804Z" fill="white"/>
<path d="M193.183 80.0676C193.599 79.9708 193.987 79.7891 194.321 79.5351C194.654 79.2811 194.925 78.9611 195.113 78.5977C195.302 78.2342 195.404 77.8361 195.412 77.4314C195.42 77.0267 195.334 76.6252 195.16 76.2553L202.766 69.5344L197.504 68.3397L191.089 74.9051C190.45 75.2223 189.957 75.7497 189.703 76.3875C189.449 77.0252 189.451 77.7289 189.709 78.3652C189.967 79.0016 190.463 79.5264 191.103 79.8401C191.744 80.1539 192.484 80.2348 193.183 80.0676H193.183Z" fill="#FFB6B6"/>
<path d="M197.112 74.6538L193.565 69.9286L206.887 56.9087L209.981 36.3861C210.133 35.3717 210.521 34.4015 211.115 33.5445C211.71 32.6874 212.496 31.9645 213.42 31.4271C214.343 30.8897 215.38 30.5509 216.458 30.4348C217.535 30.3188 218.626 30.4282 219.654 30.7555C221.509 31.3485 223.04 32.6128 223.91 34.2709C224.78 35.929 224.919 37.8456 224.295 39.6L216.403 61.7258L197.112 74.6538Z" fill="#E4E4E4"/>
<path d="M222.126 162.099L218.189 162.098L216.315 147.749L222.127 147.749L222.126 162.099Z" fill="#FFB6B6"/>
<path d="M224.245 169.163H221.451L220.952 166.67L219.675 169.163H212.265C211.909 169.163 211.564 169.056 211.277 168.857C210.991 168.658 210.78 168.378 210.674 168.057C210.569 167.737 210.574 167.393 210.69 167.076C210.806 166.758 211.026 166.484 211.318 166.294L217.236 162.432V159.912L223.46 160.263L224.245 169.163Z" fill="#2F2E41"/>
<path d="M246.418 158.313L242.959 160.091L234.055 148.332L239.159 145.708L246.418 158.313Z" fill="#FFB6B6"/>
<path d="M251.852 163.561L249.397 164.823L247.699 162.859L247.837 165.625L241.329 168.971C241.017 169.132 240.659 169.194 240.307 169.148C239.955 169.103 239.627 168.952 239.373 168.719C239.118 168.485 238.948 168.18 238.89 167.849C238.831 167.518 238.886 167.178 239.046 166.879L242.29 160.814L241.016 158.601L246.66 156.099L251.852 163.561Z" fill="#2F2E41"/>
<path d="M223.785 156.989H215.648V129.611L210.61 111.761C206.995 98.9966 206.034 85.6904 207.781 72.58L207.788 72.5264L207.832 72.4917C207.961 72.389 220.854 62.3159 229.01 70.0217C234.507 75.2158 229.341 93.8925 229.052 94.9176V127.114L223.785 156.989Z" fill="#2F2E41"/>
<path d="M205.303 77.5531L207.926 52.7725C207.585 52.0968 202.681 47.8164 207.809 40.2906L213.348 28.0056L223.721 27.8533L223.765 27.8945C226.205 30.1954 228.005 33.031 229.004 36.1487C230.003 39.2663 230.17 42.569 229.49 45.7625L226.433 60.2033L229.082 70.213L205.303 77.5531Z" fill="#E4E4E4"/>
<path d="M218.931 129.752L235.647 151.968L242.059 147.66L228.098 120.553L218.931 129.752Z" fill="#2F2E41"/>
<path d="M217.565 25.5084C222.855 25.5084 227.144 21.4564 227.144 16.458C227.144 11.4596 222.855 7.40753 217.565 7.40753C212.275 7.40753 207.987 11.4596 207.987 16.458C207.987 21.4564 212.275 25.5084 217.565 25.5084Z" fill="#FFB6B6"/>
<path opacity="0.1" d="M215.211 49.1931L217.834 64.0614L215.211 76.4517H209.966L212.35 64.0614L215.211 49.1931Z" fill="black"/>
<path d="M217.713 89.218C218.032 88.9476 218.284 88.6144 218.452 88.242C218.619 87.8695 218.699 87.4668 218.684 87.0623C218.669 86.6578 218.561 86.2612 218.366 85.9006C218.172 85.54 217.896 85.224 217.558 84.975L220.918 75.6622L215.681 76.9489L213.293 85.5952C212.888 86.1591 212.716 86.8437 212.809 87.5195C212.903 88.1952 213.255 88.8151 213.8 89.2617C214.345 89.7082 215.044 89.9504 215.765 89.9424C216.487 89.9344 217.18 89.6766 217.713 89.218Z" fill="#FFB6B6"/>
<path d="M218.481 82.694L212.998 80.1032L218.263 62.6899L210.766 43.2082C210.395 42.2452 210.254 41.217 210.351 40.1964C210.448 39.1759 210.782 38.1881 211.329 37.3032C211.876 36.4183 212.622 35.658 213.514 35.0763C214.407 34.4945 215.424 34.1056 216.494 33.9371C218.427 33.6349 220.407 34.0692 222.001 35.145C223.595 36.2207 224.672 37.8499 224.996 39.6751L229.058 62.7062L218.481 82.694Z" fill="#E4E4E4"/>
<path d="M284.009 168.834C284.009 168.877 284 168.92 283.983 168.959C283.965 168.999 283.94 169.035 283.908 169.066C283.875 169.096 283.837 169.12 283.795 169.137C283.753 169.153 283.708 169.162 283.662 169.162H95.0409C94.9489 169.162 94.8607 169.127 94.7957 169.066C94.7306 169.004 94.6941 168.921 94.6941 168.834C94.6941 168.747 94.7306 168.664 94.7957 168.602C94.8607 168.541 94.9489 168.506 95.0409 168.506H283.662C283.754 168.507 283.842 168.541 283.907 168.603C283.972 168.664 284.009 168.747 284.009 168.834Z" fill="#CACACA"/>
<path d="M254.817 16.0154C253.609 17.8691 251.049 18.6862 248.779 18.3151C246.509 17.9439 244.536 16.5593 243.079 14.8729C241.621 13.1865 240.614 11.2014 239.622 9.23637C238.63 7.27134 237.626 5.28474 236.177 3.59272C234.727 1.90068 232.764 0.505443 230.497 0.116825C229.264 -0.0946691 227.866 0.0449603 226.966 0.869725C226.345 1.48791 226.006 2.31171 226.022 3.16367C225.63 3.03314 225.21 2.99581 224.798 3.05498C224.387 3.11415 223.998 3.26799 223.664 3.50295C223.331 3.73791 223.063 4.04677 222.886 4.40231C222.709 4.75785 222.627 5.14915 222.647 5.54172C222.614 5.54112 222.58 5.53901 222.547 5.53901C218.323 3.26976 211.911 4.58801 211.911 7.06607C209.593 7.06607 206.76 9.22895 206.76 12.5133V12.5133C211.553 12.5133 214.374 18.316 211.576 22.4767C210.854 23.5379 210.057 24.5526 209.192 25.5139H215.186C215.689 24.8321 215.992 24.037 216.066 23.2089C216.286 23.9612 216.417 24.7342 216.458 25.5139C216.458 25.5139 232.83 27.5073 228.604 12.0875C228.884 12.0743 229.156 11.9964 229.396 11.8607C230.035 11.4973 230.382 10.7287 230.443 9.94889C230.601 9.98879 230.758 10.0286 230.915 10.0683C232.042 10.3556 233.212 10.7279 233.985 11.5536C235.292 12.9491 235.017 15.0671 235.491 16.8757C236.064 19.0567 237.775 20.8207 239.677 22.17C241.72 23.6197 244.107 24.7211 246.65 24.9498C249.194 25.1784 251.9 24.4475 253.663 22.6996C255.425 20.9517 256.039 18.136 254.817 16.0154Z" fill="#2F2E41"/>
<path d="M67.3848 37.6141C34.4488 37.6141 7.77783 62.8715 7.77783 93.9921C7.77783 125.113 34.4488 150.37 67.3848 150.37C100.381 150.37 127.111 125.113 127.111 93.9921C127.111 62.8715 100.381 37.6141 67.3848 37.6141ZM67.4445 139.094C41.0718 139.094 19.7112 118.911 19.7112 93.9921C19.7112 69.073 41.0718 48.8897 67.4445 48.8897C93.8172 48.8897 115.178 69.073 115.178 93.9921C115.178 118.911 93.8172 139.094 67.4445 139.094ZM70.4278 65.8031H61.4778V99.6299L92.8028 117.389L97.2778 110.454L70.4278 95.4015V65.8031Z" fill="#EDF3F5"/>
</svg>
