<svg width="18" height="16" viewBox="0 0 18 16" fill="none" xmlns="http://www.w3.org/2000/svg">
<path d="M14.6818 4.2134C14.6818 3.7943 14.3421 3.45455 13.923 3.45455C13.2469 3.45455 12.9083 2.63715 13.3864 2.15909L14.5336 1.01181C15.0924 0.453003 15.9985 0.453004 16.5573 1.01181L17.7045 2.15909C18.1826 2.63715 17.844 3.45455 17.1679 3.45455C16.7488 3.45455 16.4091 3.7943 16.4091 4.2134V14.6818C16.4091 15.1588 16.0224 15.5455 15.5455 15.5455C15.0685 15.5455 14.6818 15.1588 14.6818 14.6818V4.2134ZM6.04545 1.72727C2.71182 1.72727 0 4.43045 0 7.77273C0 11.115 2.70318 13.8182 6.04545 13.8182C9.37909 13.8182 12.0909 11.115 12.0909 7.77273C12.0909 4.43045 9.38773 1.72727 6.04545 1.72727ZM6.04545 3.58409C8.35136 3.58409 10.2341 5.45818 10.2341 7.77273C10.2341 10.0873 8.36 11.9614 6.04545 11.9614C3.73091 11.9614 1.85682 10.0873 1.85682 7.77273C1.85682 5.45818 3.73091 3.58409 6.04545 3.58409ZM5.18182 5.18182V7.20409C5.18182 7.92467 5.56639 8.59046 6.19058 8.95049L7.37525 9.63381C7.6854 9.81271 8.08186 9.70632 8.26078 9.39619C8.43963 9.08619 8.33346 8.6899 8.02358 8.51084L7.24871 8.06306C6.77132 7.78719 6.47727 7.27766 6.47727 6.72629V5.18182" fill="#3D8FF0"/>
</svg>
