<svg width="25" height="13" viewBox="0 0 25 13" fill="none" xmlns="http://www.w3.org/2000/svg">
<path d="M17.187 8.52022L18 7.70727V9H19V7.70694L19.8133 8.52022L20.5204 7.81311L19.7073 7H21V6H19.7073L20.5204 5.18689L19.8133 4.47978L19 5.29306V4H18V5.29273L17.187 4.47978L16.4799 5.18689L17.2931 6H16V7H17.2931L16.4799 7.81311L17.187 8.52022Z" fill="#3D8FF0"/>
<path d="M11.187 8.52022L12 7.70727V9H13V7.70694L13.8133 8.52022L14.5204 7.81311L13.7073 7H15V6H13.7073L14.5204 5.18689L13.8133 4.47978L13 5.29306V4H12V5.29273L11.187 4.47978L10.4799 5.18689L11.2931 6H10V7H11.2931L10.4799 7.81311L11.187 8.52022Z" fill="#3D8FF0"/>
<path d="M5.18705 8.52022L6 7.70727V9H7V7.70694L7.81328 8.52022L8.52038 7.81311L7.70727 7H9V6H7.70727L8.52038 5.18689L7.81328 4.47978L7 5.29306V4H6V5.29273L5.18705 4.47978L4.47994 5.18689L5.29306 6H4V7H5.29306L4.47994 7.81311L5.18705 8.52022Z" fill="#3D8FF0"/>
<path fill-rule="evenodd" clip-rule="evenodd" d="M22.5 0.000578489C23.225 0.000578489 23.8125 0.173903 24.275 0.511888C24.75 0.867206 25 1.25719 25 1.73383V11.2667C25 11.7434 24.75 12.1334 24.275 12.4887C23.8125 12.8267 23.225 13 22.5 13H2.5C1.775 13 1.1875 12.8267 0.725 12.4887C0.25 12.1334 0 11.7434 0 11.2667V1.73383C0 1.25719 0.25 0.867206 0.725 0.511888C1.1875 0.173903 1.775 0.000578489 2.5 0.000578489L13.5106 0.000893729C13.5106 0.000893729 14.4045 0.000578489 15.1196 0.00145178L16.8959 0L22.5 0.000578489ZM2.5 1.73383V11.2667H22.5V1.73383H2.5Z" fill="#3D8FF0"/>
</svg>
