<svg width="18" height="16" viewBox="0 0 18 16" fill="none" xmlns="http://www.w3.org/2000/svg">
<path fill-rule="evenodd" clip-rule="evenodd" d="M15.6134 6.96133C15.6134 7.39889 15.2554 7.75691 14.8178 7.75691C14.3762 7.75691 14.0222 7.39889 14.0222 6.96133H15.6134ZM17.2045 3.38122V5.37017L18.0001 6.16575V6.56354H11.6355V6.16575L12.431 5.37017V3.38122C12.431 2.15602 13.0794 1.13768 14.2211 0.867182V0.596685C14.2211 0.266519 14.4876 0 14.8178 0C15.1479 0 15.4145 0.266519 15.4145 0.596685V0.867182C16.5521 1.13768 17.2045 2.16 17.2045 3.38122ZM15.5138 13.9626V8.92064H13.9624V13.9626H1.55138V6.20572L7.75691 10.0842L10.8597 8.14495L10.4718 6.98141L7.75691 8.53279L1.55138 4.65434H11.2475V3.10296H1.55138C0.698122 3.10296 0 3.80108 0 4.65434V13.9626C0 14.8159 0.698122 15.514 1.55138 15.514H13.9624C14.8157 15.514 15.5138 14.8159 15.5138 13.9626Z" fill="#3D8FF0"/>
</svg>
