<svg width="21" height="24" viewBox="0 0 21 24" fill="none" xmlns="http://www.w3.org/2000/svg">
<path fill-rule="evenodd" clip-rule="evenodd" d="M0 13.5652C0 7.79627 4.68075 3.13043 10.4348 3.13043V6.3354C6.43975 6.3354 3.20497 9.57019 3.20497 13.5652C3.20497 17.5603 6.43975 20.795 10.4348 20.795C13.7149 20.795 16.4825 18.6144 17.368 15.6228C17.4912 15.2067 17.5779 14.7749 17.6246 14.3311L20.7743 14.9814C20.6631 15.8007 20.4568 16.5896 20.167 17.3366C18.6536 21.238 14.8619 24 10.4348 24C4.66584 24 0 19.3342 0 13.5652ZM11.6047 6.43002C12.0492 6.50266 12.4803 6.61598 12.8941 6.76606L14.1835 3.82238C13.5651 3.58472 12.9183 3.40418 12.2494 3.2872L11.6047 6.43002ZM14.1835 7.38493L16.1176 4.80896C16.672 5.16915 17.1898 5.58057 17.6646 6.03655L15.3725 8.28807C15.0091 7.94798 14.6107 7.64493 14.1835 7.38493ZM16.1176 9.09945C16.393 9.44911 16.637 9.82479 16.845 10.2222L19.8706 9.09945C19.5837 8.4935 19.2402 7.91972 18.8469 7.38493L16.1176 9.09945ZM17.368 11.5116L20.5183 10.8669C20.6843 11.4904 20.7942 12.137 20.8421 12.801H17.6246C17.5779 12.358 17.4911 11.927 17.368 11.5116Z" fill="#3D8FF0"/>
<rect x="6.26099" width="8.34783" height="2.08696" fill="#3D8FF0"/>
<rect x="2.54199" y="4.17392" width="1.99416" height="2.08696" transform="rotate(46 2.54199 4.17392)" fill="#3D8FF0"/>
<path d="M10.2487 14.3422L7.46869 16.9914L6.26099 15.8405L9.04098 13.1913L6.26099 10.5422L7.46869 9.3913L10.2487 12.0405L13.0287 9.3913L14.2364 10.5422L11.4564 13.1913L14.2364 15.8405L13.0287 16.9914L10.2487 14.3422Z" fill="#3D8FF0"/>
</svg>
