<svg width="17" height="17" viewBox="0 0 17 17" fill="none" xmlns="http://www.w3.org/2000/svg">
<path d="M14.2716 15.3H1.78395V5.95H14.2716V15.3ZM14.2716 1.7H13.3796V0H11.5957V1.7H4.45988V0H2.67593V1.7H1.78395C0.793858 1.7 0 2.465 0 3.4V15.3C0 15.7509 0.187951 16.1833 0.522507 16.5021C0.857063 16.8209 1.31082 17 1.78395 17H14.2716C14.7447 17 15.1985 16.8209 15.533 16.5021C15.8676 16.1833 16.0556 15.7509 16.0556 15.3V3.4C16.0556 2.94913 15.8676 2.51673 15.533 2.19792C15.1985 1.87911 14.7447 1.7 14.2716 1.7ZM5.62836 13.6L7.80478 11.526L9.9812 13.6L10.9267 12.699L8.75028 10.625L10.9267 8.551L9.9812 7.65L7.80478 9.724L5.62836 7.65L4.68287 8.551L6.85929 10.625L4.68287 12.699L5.62836 13.6Z" fill="#3D8FF0"/>
</svg>
