<svg width="19" height="19" viewBox="0 0 19 19" fill="none" xmlns="http://www.w3.org/2000/svg">
<path d="M17.2727 13.8182V6.04545H5.18182V13.8182H17.2727ZM17.2727 1.72727C17.7308 1.72727 18.1702 1.90925 18.4941 2.23318C18.818 2.55711 19 2.99644 19 3.45455V13.8182C19 14.2763 18.818 14.7156 18.4941 15.0395C18.1702 15.3635 17.7308 15.5455 17.2727 15.5455H5.18182C4.22318 15.5455 3.45455 14.7682 3.45455 13.8182V3.45455C3.45455 2.99644 3.63653 2.55711 3.96045 2.23318C4.28438 1.90925 4.72372 1.72727 5.18182 1.72727H6.04545V0H7.77273V1.72727H14.6818V0H16.4091V1.72727H17.2727ZM14.2759 8.68818L10.4414 12.5227L8.12682 10.2082L9.04227 9.29273L10.4414 10.6918L13.3605 7.77273L14.2759 8.68818ZM1.72727 17.2727H13.8182V19H1.72727C0.768636 19 0 18.2227 0 17.2727V6.90909H1.72727V17.2727Z" fill="#3D8FF0"/>
</svg>
