<svg width="17" height="17" viewBox="0 0 17 17" fill="none" xmlns="http://www.w3.org/2000/svg">
<path d="M4.7317 1.34704L3.51254 0.127884C1.4664 1.68806 0.119358 4.09228 0 6.82046H1.70512C1.833 4.56118 2.99248 2.58325 4.7317 1.34704ZM15.2949 6.82046H17C16.8721 4.09228 15.5251 1.68806 13.4875 0.127884L12.2768 1.34704C13.999 2.58325 15.167 4.56118 15.2949 6.82046ZM13.6153 7.24674C13.6153 4.62939 12.2172 2.43831 9.77884 1.85858V1.27884C9.77884 0.571214 9.20762 0 8.5 0C7.79238 0 7.22116 0.571214 7.22116 1.27884V1.85858C4.77432 2.43831 3.38465 4.62086 3.38465 7.24674V11.5095L1.67954 13.2146V14.0672H15.3205V13.2146L13.6153 11.5095V7.24674ZM8.5 16.6249C8.61936 16.6249 8.73019 16.6163 8.84102 16.5908C9.39519 16.4714 9.84704 16.0963 10.0687 15.5848C10.154 15.3801 10.1966 15.1585 10.1966 14.9198H6.78636C6.79489 15.8576 7.55366 16.6249 8.5 16.6249Z" fill="#3D8FF0"/>
</svg>
