<svg width="18" height="17" viewBox="0 0 18 17" fill="none" xmlns="http://www.w3.org/2000/svg">
<path d="M5.14216 7.276L5.69478 6.731L6.05575 6.375L5.69478 6.019L5.14216 5.474L5.34369 5.27525L6.45882 6.375L5.34369 7.47475L5.14216 7.276ZM16.5356 7.70807C16.5647 7.97303 16.5826 8.2364 16.5826 8.5C16.5826 12.8923 12.9345 16.5 8.46371 16.5C4.97999 16.5 2.03168 14.3451 0.871094 11.3368C1.15119 11.4439 1.44603 11.5122 1.73671 11.5381C2.90717 14.0531 5.47729 15.8 8.46371 15.8C12.5428 15.8 15.8588 12.5397 15.8588 8.5C15.8588 8.22908 15.8425 7.96116 15.8123 7.69847C15.9449 7.71549 16.0812 7.725 16.2207 7.725C16.3291 7.725 16.4339 7.71882 16.5356 7.70807ZM4.86502 12.25C5.05555 11.9485 5.28175 11.6763 5.5351 11.444L6.03996 10.9811L5.44514 10.6413L2.88534 9.17933L2.63972 9.03904L2.39295 9.17731C2.1537 9.31138 1.85052 9.32279 1.60249 9.1801C1.22314 8.96187 1.09589 8.51166 1.31229 8.12082C1.5337 7.75224 2.01044 7.62385 2.3956 7.83636C2.65906 7.99587 2.7924 8.25836 2.7924 8.5V8.79006L3.0442 8.93404L6.12113 10.6935L6.35348 10.8264L6.59289 10.7067C7.15088 10.4278 7.78947 10.275 8.46371 10.275C9.98595 10.275 11.3177 11.065 12.0644 12.25H11.702C10.9947 11.229 9.81072 10.55 8.46371 10.55C7.1167 10.55 5.93277 11.229 5.22542 12.25H4.86502ZM11.7853 5.474L11.2326 6.019L10.8717 6.375L11.2326 6.731L11.7853 7.276L11.5837 7.47475L10.4686 6.375L11.5837 5.27525L11.7853 5.474ZM8.46371 1.2C5.47739 1.2 2.90734 2.94679 1.73682 5.46162C1.43626 5.48827 1.14547 5.56007 0.872192 5.67048C2.02837 2.64848 4.98476 0.5 8.46371 0.5C10.3008 0.5 11.9973 1.10515 13.3608 2.12444C13.2512 2.34353 13.1501 2.56616 13.0619 2.78633C11.7984 1.79525 10.206 1.2 8.46371 1.2ZM16.2207 1.75298C16.3519 1.95755 16.5019 2.19823 16.6515 2.45275C16.8624 2.81159 17.0676 3.18938 17.2184 3.52785C17.3787 3.88738 17.4444 4.13154 17.4444 4.25C17.4444 4.90234 16.8992 5.45 16.2207 5.45C15.5422 5.45 14.9969 4.90233 14.9969 4.25C14.9969 4.13154 15.0627 3.88738 15.2229 3.52785C15.3738 3.18938 15.5789 2.81159 15.7898 2.45275C15.9394 2.19823 16.0894 1.95755 16.2207 1.75298Z" fill="#3D8FF0" stroke="#3D8FF0"/>
</svg>
