<svg width="13" height="21" viewBox="0 0 13 21" fill="none" xmlns="http://www.w3.org/2000/svg">
<path fill-rule="evenodd" clip-rule="evenodd" d="M10.5311 7.19931C10.5311 7.65184 10.1608 8.02209 9.7083 8.02209C9.25166 8.02209 8.88552 7.65184 8.88552 7.19931H10.5311ZM12.1766 3.49681V5.55376L12.9994 6.37654V6.78793H6.41719V6.37654L7.23996 5.55376V3.49681C7.23996 2.22973 7.91053 1.17657 9.09122 0.896829V0.617084C9.09122 0.275631 9.36685 0 9.7083 0C10.0498 0 10.3254 0.275631 10.3254 0.617084V0.896829C11.502 1.17657 12.1766 2.23384 12.1766 3.49681ZM6.41767 2.40644H2.00552C0.898474 2.40644 0 3.30492 0 4.41197V18.0495C0 19.1566 0.898474 20.055 2.00552 20.055H8.4232C9.53025 20.055 10.4287 19.1566 10.4287 18.0495V8.82412H8.8243V16.044H1.60442V4.81307H6.41767V2.40644ZM5.21436 19.2528C4.54853 19.2528 4.01105 18.7154 4.01105 18.0495C4.01105 17.3837 4.54853 16.8462 5.21436 16.8462C5.88019 16.8462 6.41767 17.3837 6.41767 18.0495C6.41767 18.7154 5.88019 19.2528 5.21436 19.2528Z" fill="#3D8FF0"/>
</svg>
