<svg width="26" height="23" viewBox="0 0 26 23" fill="none" xmlns="http://www.w3.org/2000/svg">
<path fill-rule="evenodd" clip-rule="evenodd" d="M6.74667 12.144V9.936H4.49778V12.144H6.74667ZM20.24 8.832V4.416C20.24 3.2016 19.228 2.208 17.9911 2.208H16.8667V0H14.6178V2.208H5.62222V0H3.37333V2.208H2.24889C1.00076 2.208 0.0112444 3.2016 0.0112444 4.416L0 19.872C0 21.0864 1.00076 22.08 2.24889 22.08H13.587L12.1815 19.872H2.24889V8.832H17.9911H20.24ZM17.9911 6.624H2.24889V4.416H17.9911V6.624ZM11.2444 12.144H8.99556V9.936H11.2444V12.144Z" fill="#3D8FF0"/>
<path d="M19.3199 10.12C15.765 10.12 12.8799 13.0051 12.8799 16.56C12.8799 20.1149 15.765 23 19.3199 23C22.8748 23 25.7599 20.1149 25.7599 16.56C25.7599 13.0051 22.8748 10.12 19.3199 10.12ZM19.3199 21.712C16.4798 21.712 14.1679 19.4 14.1679 16.56C14.1679 13.72 16.4798 11.408 19.3199 11.408C22.1599 11.408 24.4719 13.72 24.4719 16.56C24.4719 19.4 22.1599 21.712 19.3199 21.712ZM22.0054 18.3374L21.297 17.629C21.7542 16.7725 21.6383 15.6906 20.917 14.9693C20.4726 14.525 19.8995 14.306 19.3199 14.306C19.3006 14.306 19.2812 14.3124 19.2619 14.3124L19.9639 15.0144L19.2812 15.697L17.4587 13.8745L19.2812 12.052L19.9639 12.7346L19.3456 13.3529C20.1635 13.3593 20.975 13.662 21.5996 14.2802C22.6944 15.3815 22.8297 17.0881 22.0054 18.3374ZM21.181 19.2455L19.3585 21.068L18.6759 20.3854L19.2877 19.7736C18.4762 19.7671 17.6648 19.4516 17.0466 18.8333C15.9453 17.7321 15.8101 16.0319 16.6344 14.7826L17.3428 15.491C16.8856 16.3475 17.0015 17.4294 17.7228 18.1507C18.1736 18.6015 18.7725 18.8204 19.3714 18.8011L18.6759 18.1056L19.3585 17.423L21.181 19.2455Z" fill="#3D8FF0"/>
</svg>
