<svg width="55" height="55" viewBox="0 0 55 55" fill="none" xmlns="http://www.w3.org/2000/svg">
<rect x="1.5" y="1.5" width="51.6179" height="51.6179" rx="16.5" stroke="#3DC0F0" stroke-width="3"/>
<path d="M38.2746 13.6545H17.0343C15.3503 13.6545 14 15.0048 14 16.6888V22.7575H17.0343V16.6888H38.2746V37.9291H17.0343V31.8605H14V37.9291C14 38.7339 14.3197 39.5057 14.8887 40.0747C15.4578 40.6438 16.2296 40.9634 17.0343 40.9634H38.2746C39.0794 40.9634 39.8512 40.6438 40.4202 40.0747C40.9893 39.5057 41.309 38.7339 41.309 37.9291V16.6888C41.309 15.0048 39.9435 13.6545 38.2746 13.6545ZM24.7415 32.7404L26.8959 34.8948L34.4817 27.309L26.8959 19.7231L24.7415 21.8623L28.671 25.7918H14V28.8261H28.671L24.7415 32.7404Z" fill="#3DC0F0"/>
</svg>
