<svg width="55" height="55" viewBox="0 0 55 55" fill="none" xmlns="http://www.w3.org/2000/svg">
<rect x="1.5" y="1.5" width="51.6179" height="51.6179" rx="16.5" stroke="#3DC0F0" stroke-width="3"/>
<path d="M30.8102 32.7556L34.7396 28.8261H20.0687V25.7918H34.7396L30.8102 21.8623L32.9646 19.7231L40.5504 27.309L32.9646 34.8948L30.8102 32.7556ZM38.2746 13.6545C39.0794 13.6545 39.8512 13.9742 40.4202 14.5432C40.9893 15.1123 41.309 15.8841 41.309 16.6888V23.774L38.2746 20.7396V16.6888H17.0343V37.9291H38.2746V33.8783L41.309 30.844V37.9291C41.309 38.7339 40.9893 39.5057 40.4202 40.0747C39.8512 40.6438 39.0794 40.9634 38.2746 40.9634H17.0343C15.3503 40.9634 14 39.598 14 37.9291V16.6888C14 15.0048 15.3503 13.6545 17.0343 13.6545H38.2746Z" fill="#3DC0F0"/>
</svg>
