<svg width="59" height="59" viewBox="0 0 59 59" fill="none" xmlns="http://www.w3.org/2000/svg">
<rect x="1.5" y="1.5" width="55.961" height="55.961" rx="16.5" stroke="#3DC0F0" stroke-width="3"/>
<path d="M37.4699 37.7288H22.1837V26.2834H37.4699V37.7288ZM37.4699 21.081H36.378V19H34.1943V21.081H25.4593V19H23.2756V21.081H22.1837C20.9718 21.081 20 22.0174 20 23.162V37.7288C20 38.2807 20.2301 38.81 20.6396 39.2003C21.0491 39.5905 21.6046 39.8098 22.1837 39.8098H37.4699C38.0491 39.8098 38.6045 39.5905 39.0141 39.2003C39.4236 38.81 39.6537 38.2807 39.6537 37.7288V23.162C39.6537 22.61 39.4236 22.0807 39.0141 21.6905C38.6045 21.3002 38.0491 21.081 37.4699 21.081ZM26.8897 35.6478L29.5539 33.109L32.218 35.6478L33.3754 34.5449L30.7112 32.0061L33.3754 29.4673L32.218 28.3644L29.5539 30.9032L26.8897 28.3644L25.7323 29.4673L28.3965 32.0061L25.7323 34.5449L26.8897 35.6478Z" fill="#3DC0F0"/>
</svg>
