<svg width="56" height="55" viewBox="0 0 56 55" fill="none" xmlns="http://www.w3.org/2000/svg">
<rect x="2.14844" y="1.5" width="51.6179" height="51.6179" rx="16.5" stroke="#3DC0F0" stroke-width="3"/>
<path d="M37.5985 19.7231H33.0057L39.1295 13.6545L45.2533 19.7231H40.6605V40.9634H37.5985V19.7231ZM22.289 16.6888C16.3795 16.6888 11.5723 21.4375 11.5723 27.309C11.5723 33.1804 16.3642 37.9291 22.289 37.9291C28.1985 37.9291 33.0057 33.1804 33.0057 27.309C33.0057 21.4375 28.2138 16.6888 22.289 16.6888ZM22.289 19.9507C26.3766 19.9507 29.7141 23.243 29.7141 27.309C29.7141 31.375 26.3919 34.6672 22.289 34.6672C18.186 34.6672 14.8638 31.375 14.8638 27.309C14.8638 23.243 18.186 19.9507 22.289 19.9507ZM20.758 22.7575V28.3558L25.6418 31.1474L26.79 29.1751L23.0544 27.0359V22.7575" fill="#3DC0F0"/>
</svg>
