<svg width="59" height="59" viewBox="0 0 59 59" fill="none" xmlns="http://www.w3.org/2000/svg">
<rect x="1.5" y="1.5" width="55.961" height="55.961" rx="16.5" stroke="#3DC0F0" stroke-width="3"/>
<path fill-rule="evenodd" clip-rule="evenodd" d="M25.7467 31.144V28.936H23.4978V31.144H25.7467ZM39.24 27.832V23.416C39.24 22.2016 38.228 21.208 36.9911 21.208H35.8667V19H33.6178V21.208H24.6222V19H22.3733V21.208H21.2489C20.0008 21.208 19.0112 22.2016 19.0112 23.416L19 38.872C19 40.0864 20.0008 41.08 21.2489 41.08H32.587L31.1815 38.872H21.2489V27.832H36.9911H39.24ZM36.9911 25.624H21.2489V23.416H36.9911V25.624ZM30.2444 31.144H27.9956V28.936H30.2444V31.144Z" fill="#3DC0F0"/>
<path d="M38.3199 29.12C34.765 29.12 31.8799 32.0051 31.8799 35.56C31.8799 39.1149 34.765 42 38.3199 42C41.8748 42 44.7599 39.1149 44.7599 35.56C44.7599 32.0051 41.8748 29.12 38.3199 29.12ZM38.3199 40.712C35.4798 40.712 33.1679 38.4 33.1679 35.56C33.1679 32.72 35.4798 30.408 38.3199 30.408C41.1599 30.408 43.4719 32.72 43.4719 35.56C43.4719 38.4 41.1599 40.712 38.3199 40.712ZM41.0054 37.3374L40.297 36.629C40.7542 35.7725 40.6383 34.6906 39.917 33.9693C39.4726 33.525 38.8995 33.306 38.3199 33.306C38.3006 33.306 38.2812 33.3124 38.2619 33.3124L38.9639 34.0144L38.2812 34.697L36.4587 32.8745L38.2812 31.052L38.9639 31.7346L38.3456 32.3529C39.1635 32.3593 39.975 32.662 40.5996 33.2802C41.6944 34.3815 41.8297 36.0881 41.0054 37.3374ZM40.181 38.2455L38.3585 40.068L37.6759 39.3854L38.2877 38.7736C37.4762 38.7671 36.6648 38.4516 36.0466 37.8333C34.9453 36.7321 34.8101 35.0319 35.6344 33.7826L36.3428 34.491C35.8856 35.3475 36.0015 36.4294 36.7228 37.1507C37.1736 37.6015 37.7725 37.8204 38.3714 37.8011L37.6759 37.1056L38.3585 36.423L40.181 38.2455Z" fill="#3DC0F0"/>
</svg>
