<svg width="59" height="59" viewBox="0 0 59 59" fill="none" xmlns="http://www.w3.org/2000/svg">
<rect x="1.5" y="1.5" width="55.961" height="55.961" rx="16.5" stroke="#3DC0F0" stroke-width="3"/>
<path d="M24.4229 27.9066L25.5412 26.8037L24.4229 25.7007L25.5412 24.5978L27.7779 26.8037L25.5412 29.0095L24.4229 27.9066ZM21.4477 26.2834C21.4793 26.2834 21.5004 26.2834 21.5321 26.2834C22.7876 23.2348 25.8155 21.081 29.3605 21.081C31.671 21.081 33.7494 21.9966 35.2792 23.4741C35.4375 22.8498 35.754 22.1215 36.1338 21.4347C34.298 19.9156 31.9347 19 29.3605 19C24.2013 19 19.9179 22.6417 19 27.4696C19.5908 26.7412 20.4876 26.2834 21.4477 26.2834ZM38.8558 27.8441C38.4127 27.8441 37.9907 27.7505 37.6003 27.6152C37.7269 28.1875 37.8007 28.791 37.8007 29.4049C37.8007 34.0038 34.0237 37.7288 29.3605 37.7288C25.8155 37.7288 22.7876 35.575 21.5321 32.5263C21.5004 32.5263 21.4793 32.5263 21.4477 32.5263C20.9202 32.5263 20.3504 32.3807 19.8651 32.1101C19.5275 31.9229 19.2427 31.6731 19 31.3818C19.939 36.168 24.2013 39.8098 29.3605 39.8098C35.1632 39.8098 39.9108 35.1276 39.9108 29.4049C39.9108 28.8326 39.8475 28.2707 39.7631 27.7193C39.4677 27.7921 39.1723 27.8441 38.8558 27.8441ZM38.8558 20.0405C38.8558 20.0405 36.7457 23.0579 36.7457 24.2024C36.7457 25.347 37.6952 26.2834 38.8558 26.2834C40.0163 26.2834 40.9659 25.347 40.9659 24.2024C40.9659 23.0579 38.8558 20.0405 38.8558 20.0405ZM33.1797 24.5978L30.943 26.8037L33.1797 29.0095L34.298 27.9066L33.1797 26.8037L34.298 25.7007L33.1797 24.5978ZM25.7311 34.6073C26.4591 33.3691 27.8096 32.5263 29.3605 32.5263C30.9114 32.5263 32.2618 33.3691 32.9898 34.6073H34.7622C33.9182 32.4743 31.8187 30.9656 29.3605 30.9656C28.4426 30.9656 27.5669 31.1737 26.7967 31.5587L23.0302 29.4049C23.0302 28.8846 22.7454 28.3644 22.239 28.0626C21.4793 27.636 20.5193 27.8858 20.0761 28.6349C19.6436 29.4049 19.8968 30.3309 20.6564 30.7679C21.1628 31.0593 21.7642 31.028 22.2284 30.7679L25.3619 32.5576C24.7605 33.109 24.2752 33.8165 23.9587 34.6073H25.7311Z" fill="#3DC0F0"/>
</svg>
