<svg width="59" height="59" viewBox="0 0 59 59" fill="none" xmlns="http://www.w3.org/2000/svg">
<rect x="1.5" y="1.5" width="55.961" height="55.961" rx="16.5" stroke="#3DC0F0" stroke-width="3"/>
<path d="M26.4069 27.7337C26.2389 27.7337 26.1029 27.6857 25.9989 27.5897C25.8989 27.4897 25.8489 27.3577 25.8489 27.1937V24.3677H25.0029C24.8269 24.3677 24.6949 24.3317 24.6069 24.2597C24.5229 24.1837 24.4809 24.0697 24.4809 23.9177C24.4809 23.7657 24.5229 23.6537 24.6069 23.5817C24.6949 23.5097 24.8269 23.4737 25.0029 23.4737H27.8109C27.9869 23.4737 28.1169 23.5097 28.2009 23.5817C28.2889 23.6537 28.3329 23.7657 28.3329 23.9177C28.3329 24.0697 28.2889 24.1837 28.2009 24.2597C28.1169 24.3317 27.9869 24.3677 27.8109 24.3677H26.9649V27.1937C26.9649 27.3577 26.9129 27.4897 26.8089 27.5897C26.7089 27.6857 26.5749 27.7337 26.4069 27.7337ZM32.1851 27.0257C32.2211 27.1017 32.2391 27.1757 32.2391 27.2477C32.2391 27.3797 32.1851 27.4917 32.0771 27.5837C31.9731 27.6757 31.8531 27.7217 31.7171 27.7217C31.6251 27.7217 31.5411 27.6977 31.4651 27.6497C31.3891 27.6017 31.3291 27.5297 31.2851 27.4337L31.0151 26.8277H29.0711L28.7951 27.4337C28.7511 27.5297 28.6891 27.6017 28.6091 27.6497C28.5331 27.6977 28.4491 27.7217 28.3571 27.7217C28.2211 27.7217 28.0971 27.6757 27.9851 27.5837C27.8771 27.4917 27.8231 27.3797 27.8231 27.2477C27.8231 27.1757 27.8411 27.1017 27.8771 27.0257L29.4611 23.7737C29.5131 23.6657 29.5891 23.5837 29.6891 23.5277C29.7931 23.4677 29.9071 23.4377 30.0311 23.4377C30.1511 23.4377 30.2631 23.4677 30.3671 23.5277C30.4711 23.5837 30.5491 23.6657 30.6011 23.7737L32.1851 27.0257ZM29.4431 25.9997H30.6431L30.0431 24.6617L29.4431 25.9997ZM36.0737 26.9057C36.1617 27.0057 36.2057 27.1157 36.2057 27.2357C36.2057 27.3717 36.1517 27.4917 36.0437 27.5957C35.9397 27.6957 35.8217 27.7457 35.6897 27.7457C35.5497 27.7457 35.4277 27.6857 35.3237 27.5657L34.2917 26.3297L33.2417 27.5657C33.1377 27.6857 33.0177 27.7457 32.8817 27.7457C32.7497 27.7457 32.6297 27.6937 32.5217 27.5897C32.4177 27.4857 32.3657 27.3657 32.3657 27.2297C32.3657 27.1137 32.4077 27.0057 32.4917 26.9057L33.6437 25.5737L32.5217 24.2717C32.4337 24.1677 32.3897 24.0597 32.3897 23.9477C32.3897 23.8117 32.4417 23.6937 32.5457 23.5937C32.6537 23.4897 32.7757 23.4377 32.9117 23.4377C33.0517 23.4377 33.1737 23.4977 33.2777 23.6177L34.2917 24.8177L35.2997 23.6177C35.3957 23.4977 35.5137 23.4377 35.6537 23.4377C35.7897 23.4377 35.9097 23.4897 36.0137 23.5937C36.1217 23.6937 36.1757 23.8117 36.1757 23.9477C36.1757 24.0637 36.1337 24.1717 36.0497 24.2717L34.9277 25.5737L36.0737 26.9057Z" fill="#3DC0F0"/>
<path fill-rule="evenodd" clip-rule="evenodd" d="M40.1481 21.6111V31.2513H37.5761V21.6111C37.5761 20.9491 36.9974 20.4074 36.2901 20.4074H32.4321H23.43V25.2222V39.6667H32.7028V42.0741H30.5031H28.5741H26.6451H24.716H22.787H20.858V25.2222H17V21.6111C17 19.613 18.7233 18 20.858 18H36.2901C38.4249 18 40.1481 19.613 40.1481 21.6111ZM20.858 20.4074C20.1507 20.4074 19.572 20.9491 19.572 21.6111V22.8148H20.858V20.4074Z" fill="#3DC0F0"/>
<path d="M40.3586 30.037H32.0252C31.4192 30.037 30.8889 30.6042 30.8889 31.2523V41.7847C30.8889 42.4329 31.4192 43 32.0252 43H40.3586C40.9646 43 41.4949 42.4329 41.4949 41.7847V31.2523C41.4949 30.6042 40.9646 30.037 40.3586 30.037ZM33.9192 41.0556C33.9192 41.2176 33.7677 41.3796 33.6162 41.3796H32.7071C32.5556 41.3796 32.404 41.2176 32.404 41.0556V40.0833C32.404 39.9213 32.5556 39.7593 32.7071 39.7593H33.6162C33.7677 39.7593 33.9192 39.9213 33.9192 40.0833V41.0556ZM33.9192 37.8148C33.9192 37.9769 33.7677 38.1389 33.6162 38.1389H32.7071C32.5556 38.1389 32.404 37.9769 32.404 37.8148V36.8426C32.404 36.6806 32.5556 36.5185 32.7071 36.5185H33.6162C33.7677 36.5185 33.9192 36.6806 33.9192 36.8426V37.8148ZM36.9495 41.0556C36.9495 41.2176 36.798 41.3796 36.6465 41.3796H35.7374C35.5859 41.3796 35.4343 41.2176 35.4343 41.0556V40.0833C35.4343 39.9213 35.5859 39.7593 35.7374 39.7593H36.6465C36.798 39.7593 36.9495 39.9213 36.9495 40.0833V41.0556ZM36.9495 37.8148C36.9495 37.9769 36.798 38.1389 36.6465 38.1389H35.7374C35.5859 38.1389 35.4343 37.9769 35.4343 37.8148V36.8426C35.4343 36.6806 35.5859 36.5185 35.7374 36.5185H36.6465C36.798 36.5185 36.9495 36.6806 36.9495 36.8426V37.8148ZM39.9798 41.0556C39.9798 41.2176 39.8283 41.3796 39.6768 41.3796H38.7677C38.6162 41.3796 38.4646 41.2176 38.4646 41.0556V36.8426C38.4646 36.6806 38.6162 36.5185 38.7677 36.5185H39.6768C39.8283 36.5185 39.9798 36.6806 39.9798 36.8426V41.0556ZM39.9798 34.5741C39.9798 34.7361 39.8283 34.8982 39.6768 34.8982H32.7071C32.5556 34.8982 32.404 34.7361 32.404 34.5741V31.9815C32.404 31.8195 32.5556 31.6574 32.7071 31.6574H39.6768C39.8283 31.6574 39.9798 31.8195 39.9798 31.9815V34.5741Z" fill="#3DC0F0"/>
</svg>
