<svg width="161" height="158" viewBox="0 0 161 158" fill="none" xmlns="http://www.w3.org/2000/svg">
<path d="M102.209 35.8407H58.826C57.8374 35.8419 56.8896 36.2352 56.1905 36.9342C55.4915 37.6333 55.0982 38.5811 55.097 39.5697V135.989L54.5998 136.14L43.9573 139.399C43.4529 139.553 42.9081 139.501 42.4425 139.253C41.9769 139.006 41.6285 138.583 41.4739 138.079L9.81725 34.6748C9.66319 34.1704 9.7157 33.6255 9.96323 33.1598C10.2108 32.6941 10.6331 32.3458 11.1373 32.1913L27.5374 27.1696L75.0819 12.6166L91.4819 7.59495C91.7315 7.51814 91.9937 7.49129 92.2537 7.51596C92.5137 7.54063 92.7662 7.61632 92.9969 7.7387C93.2276 7.86108 93.4319 8.02774 93.5981 8.22916C93.7643 8.43058 93.8891 8.6628 93.9654 8.91252L102.057 35.3435L102.209 35.8407Z" fill="#F2F2F2"/>
<path d="M111.676 35.3435L101.923 3.4881C101.761 2.95733 101.495 2.46374 101.142 2.03552C100.789 1.6073 100.355 1.25286 99.8652 0.992442C99.375 0.732025 98.8384 0.570735 98.2859 0.517796C97.7334 0.464857 97.1759 0.521307 96.6453 0.683913L73.5877 7.74163L26.0458 22.2971L2.98831 29.3573C1.91718 29.6862 1.02031 30.4266 0.494558 31.4161C-0.0311933 32.4056 -0.14287 33.5633 0.184045 34.635L33.5162 143.504C33.7817 144.369 34.3176 145.126 35.0451 145.664C35.7726 146.203 36.6535 146.494 37.5584 146.494C37.9773 146.495 38.3938 146.432 38.7939 146.308L54.5998 141.47L55.097 141.316V140.797L54.5998 140.948L38.6473 145.833C37.7018 146.121 36.6806 146.023 35.8077 145.559C34.9348 145.095 34.2815 144.304 33.991 143.36L0.661456 34.4884C0.51754 34.0202 0.467381 33.5283 0.513851 33.0407C0.56032 32.5532 0.702501 32.0796 0.932261 31.6471C1.16202 31.2146 1.47485 30.8316 1.85281 30.5202C2.23078 30.2088 2.66647 29.9749 3.13494 29.8321L26.1925 22.7719L73.7345 8.21894L96.792 1.15874C97.1473 1.0503 97.5168 0.995011 97.8883 0.994665C98.6855 0.996455 99.4613 1.2535 100.102 1.72814C100.743 2.20278 101.214 2.87008 101.448 3.6323L111.156 35.3435L111.31 35.8407H111.827L111.676 35.3435Z" fill="#3F3D56"/>
<path d="M30.4965 32.2725C30.0174 32.2722 29.551 32.1183 29.1657 31.8334C28.7804 31.5486 28.4966 31.1477 28.3558 30.6897L25.1537 20.2308C25.0677 19.9498 25.0378 19.6547 25.0659 19.3622C25.0939 19.0697 25.1793 18.7856 25.3171 18.5261C25.455 18.2666 25.6426 18.0368 25.8693 17.8499C26.0959 17.6629 26.3572 17.5224 26.6382 17.4365L70.3764 4.046C70.9438 3.87286 71.5567 3.93191 72.0806 4.21019C72.6045 4.48847 72.9966 4.96324 73.1708 5.53031L76.3728 15.9894C76.5459 16.5568 76.4868 17.1697 76.2085 17.6935C75.9302 18.2174 75.4555 18.6095 74.8885 18.7838L31.1502 32.1743C30.9384 32.2393 30.7181 32.2724 30.4965 32.2725Z" fill="#3DC0F0"/>
<path d="M47.2708 11.6722C50.0167 11.6722 52.2428 9.44619 52.2428 6.70024C52.2428 3.9543 50.0167 1.72827 47.2708 1.72827C44.5249 1.72827 42.2988 3.9543 42.2988 6.70024C42.2988 9.44619 44.5249 11.6722 47.2708 11.6722Z" fill="#3DC0F0"/>
<path d="M47.2705 9.84857C49.0093 9.84857 50.4189 8.43898 50.4189 6.70016C50.4189 4.96135 49.0093 3.55176 47.2705 3.55176C45.5317 3.55176 44.1221 4.96135 44.1221 6.70016C44.1221 8.43898 45.5317 9.84857 47.2705 9.84857Z" fill="white"/>
<path d="M149.813 145.224H65.7869C65.2267 145.223 64.6896 145.001 64.2934 144.604C63.8973 144.208 63.6745 143.671 63.6738 143.111V42.4285C63.6745 41.8683 63.8973 41.3312 64.2934 40.935C64.6896 40.5389 65.2267 40.3161 65.7869 40.3154H149.813C150.373 40.3161 150.911 40.5389 151.307 40.9351C151.703 41.3312 151.926 41.8683 151.926 42.4285V143.111C151.926 143.671 151.703 144.208 151.307 144.604C150.911 145.001 150.373 145.223 149.813 145.224Z" fill="#E6E6E6"/>
<path d="M111.156 35.3435H58.8258C57.7054 35.3451 56.6314 35.7909 55.8392 36.5831C55.047 37.3753 54.6012 38.4493 54.5996 39.5697V140.948L55.0968 140.797V39.5697C55.098 38.5811 55.4913 37.6333 56.1903 36.9342C56.8894 36.2352 57.8372 35.8419 58.8258 35.8407H111.31L111.156 35.3435ZM156.774 35.3435H58.8258C57.7054 35.3451 56.6314 35.7909 55.8392 36.5831C55.047 37.3753 54.6012 38.4493 54.5996 39.5697V153.428C54.6012 154.548 55.047 155.622 55.8392 156.414C56.6314 157.207 57.7054 157.652 58.8258 157.654H156.774C157.894 157.652 158.968 157.207 159.76 156.414C160.552 155.622 160.998 154.548 161 153.428V39.5697C160.998 38.4493 160.552 37.3753 159.76 36.5831C158.968 35.7909 157.894 35.3451 156.774 35.3435ZM160.503 153.428C160.501 154.416 160.108 155.364 159.409 156.063C158.71 156.762 157.762 157.156 156.774 157.157H58.8258C57.8372 157.156 56.8894 156.762 56.1903 156.063C55.4913 155.364 55.098 154.416 55.0968 153.428V39.5697C55.098 38.5811 55.4913 37.6333 56.1903 36.9342C56.8894 36.2352 57.8372 35.8419 58.8258 35.8407H156.774C157.762 35.8419 158.71 36.2352 159.409 36.9342C160.108 37.6333 160.501 38.5811 160.503 39.5697V153.428Z" fill="#3F3D56"/>
<path d="M130.671 46.2818H84.9288C84.3356 46.2811 83.7669 46.0452 83.3475 45.6257C82.928 45.2063 82.6921 44.6376 82.6914 44.0444V33.106C82.6921 32.5129 82.928 31.9442 83.3475 31.5247C83.7669 31.1053 84.3356 30.8693 84.9288 30.8687H130.671C131.264 30.8693 131.833 31.1053 132.252 31.5247C132.672 31.9442 132.908 32.5129 132.908 33.106V44.0444C132.908 44.6376 132.672 45.2063 132.252 45.6257C131.833 46.0452 131.264 46.2811 130.671 46.2818Z" fill="#3DC0F0"/>
<path d="M107.8 31.6146C110.546 31.6146 112.772 29.3886 112.772 26.6426C112.772 23.8967 110.546 21.6707 107.8 21.6707C105.054 21.6707 102.828 23.8967 102.828 26.6426C102.828 29.3886 105.054 31.6146 107.8 31.6146Z" fill="#3DC0F0"/>
<path d="M107.8 29.671C109.472 29.671 110.828 28.3152 110.828 26.6427C110.828 24.9701 109.472 23.6143 107.8 23.6143C106.127 23.6143 104.771 24.9701 104.771 26.6427C104.771 28.3152 106.127 29.671 107.8 29.671Z" fill="white"/>
</svg>
