<svg width="168" height="199" viewBox="0 0 168 199" fill="none" xmlns="http://www.w3.org/2000/svg">
<path d="M132.706 154.333H53.2941V96.5555C53.2941 74.3333 70.9412 56.5556 93 56.5556C115.059 56.5556 132.706 74.3333 132.706 96.5555V154.333ZM150.353 145.444V96.5555C150.353 69.2667 131.471 46.4222 106.235 40.3778V34.3333C106.235 30.7971 104.841 27.4057 102.359 24.9052C99.8767 22.4048 96.5102 21 93 21C89.4898 21 86.1233 22.4048 83.6412 24.9052C81.1591 27.4057 79.7647 30.7971 79.7647 34.3333V40.3778C54.4412 46.4222 35.6471 69.2667 35.6471 96.5555L35.6471 145.444L18 163.222V172.111H168V163.222L150.353 145.444ZM93 198.778C97.6803 198.778 102.169 196.905 105.478 193.571C108.788 190.237 110.647 185.715 110.647 181H75.3529C75.3529 185.715 77.2122 190.237 80.5216 193.571C83.8311 196.905 88.3197 198.778 93 198.778Z" fill="#3DC0F0"/>
<path d="M114.706 133.333H35.2941V75.5555C35.2941 53.3333 52.9412 35.5556 75 35.5556C97.0588 35.5556 114.706 53.3333 114.706 75.5555V133.333ZM132.353 124.444V75.5555C132.353 48.2667 113.471 25.4222 88.2353 19.3778V13.3333C88.2353 9.79711 86.8409 6.40573 84.3588 3.90524C81.8767 1.40476 78.5102 0 75 0C71.4898 0 68.1233 1.40476 65.6412 3.90524C63.1591 6.40573 61.7647 9.79711 61.7647 13.3333V19.3778C36.4412 25.4222 17.6471 48.2667 17.6471 75.5555V124.444L0 142.222V151.111H150V142.222L132.353 124.444ZM75 177.778C79.6803 177.778 84.1689 175.905 87.4783 172.571C90.7878 169.237 92.6471 164.715 92.6471 160H57.3529C57.3529 164.715 59.2122 169.237 62.5216 172.571C65.8311 175.905 70.3197 177.778 75 177.778Z" fill="#3DC0F0" fill-opacity="0.2"/>
</svg>
