<svg width="17" height="18" viewBox="0 0 17 18" fill="none" xmlns="http://www.w3.org/2000/svg">
<path d="M5.35088 7.67516V9.38076H3.56725V7.67516H5.35088ZM8.91813 7.67516V9.38076H7.1345V7.67516H8.91813ZM12.4854 7.67516V9.38076H10.7018V7.67516H12.4854ZM14.269 1.70559C14.7421 1.70559 15.1957 1.88529 15.5302 2.20515C15.8647 2.52501 16.0526 2.95883 16.0526 3.41118V15.3503C16.0526 15.8027 15.8647 16.2365 15.5302 16.5564C15.1957 16.8762 14.7421 17.0559 14.269 17.0559H1.78363C0.793713 17.0559 0 16.2884 0 15.3503V3.41118C0 2.95883 0.187917 2.52501 0.522412 2.20515C0.856906 1.88529 1.31058 1.70559 1.78363 1.70559H2.67544V0H4.45906V1.70559H11.5936V0H13.3772V1.70559H14.269ZM14.269 15.3503V5.96957H1.78363V15.3503H14.269ZM5.35088 11.0863V12.7919H3.56725V11.0863H5.35088ZM8.91813 11.0863V12.7919H7.1345V11.0863H8.91813ZM12.4854 11.0863V12.7919H10.7018V11.0863H12.4854Z" fill="#AEAEAE"/>
</svg>
