<svg width="110" height="110" viewBox="0 0 110 110" fill="none" xmlns="http://www.w3.org/2000/svg">
<circle cx="55" cy="55" r="53.5" stroke="#3DC0F0" stroke-width="3"/>
<path d="M27.7859 52.5136C27.4262 52.6263 27.0432 52.6421 26.6754 52.5596C26.3076 52.4771 25.968 52.2991 25.6909 52.0436C25.4138 51.7881 25.2089 51.464 25.0969 51.1041C24.9849 50.7442 24.9697 50.3611 25.0529 49.9935C26.3008 44.8017 31.0461 32.1051 48.3332 26.765C55.8214 24.4518 63.0026 24.4123 69.6687 26.6467C75.1526 28.4773 78.7931 31.3419 80.5345 32.7265C80.977 33.0766 81.2623 33.588 81.3276 34.1484C81.393 34.7088 81.233 35.2722 80.883 35.7146C80.8786 35.7201 80.8743 35.7256 80.8699 35.731C80.5104 36.1748 79.991 36.4596 79.4235 36.524C78.856 36.5885 78.2859 36.4273 77.8362 36.0754C74.6811 33.5895 65.1067 26.0373 49.5892 30.8308C34.4374 35.5114 30.3215 46.4594 29.254 50.9386C29.1729 51.3086 28.9939 51.6501 28.7356 51.9271C28.4773 52.2042 28.1493 52.4068 27.7859 52.5136L27.7859 52.5136Z" fill="#3DC0F0"/>
<path d="M74.9039 81.9201C74.7321 81.9756 74.5541 82.0091 74.3739 82.0197C60.8686 82.7471 52.276 71.5273 51.9233 71.0595L51.8579 70.9516C51.6425 70.6176 46.4434 62.7072 48.7322 56.4248C49.7835 53.5527 52.1086 51.5368 55.6626 50.4389C58.9679 49.4179 61.6726 49.7199 63.9748 51.3638C65.8625 52.7032 67.0723 54.7006 68.2448 56.6294C70.6836 60.6343 72.1781 62.6718 76.8135 61.4963C78.8488 60.9797 79.7991 59.3884 80.2333 58.1489C81.4022 54.7758 80.3662 50.1774 77.6254 46.6984C74.0843 42.185 64.1746 34.6883 51.9478 38.4653C46.7266 40.0782 42.4535 43.2566 39.592 47.6331C37.2214 51.2652 35.8433 55.7763 35.813 59.9831C35.7655 67.816 42.185 78.1211 42.2459 78.2144C42.3937 78.4508 42.4935 78.714 42.5396 78.989C42.5857 79.264 42.5772 79.5454 42.5145 79.8171C42.4519 80.0888 42.3363 80.3455 42.1744 80.5725C42.0126 80.7996 41.8076 80.9925 41.5712 81.1403C41.5646 81.1444 41.558 81.1485 41.5514 81.1525C41.067 81.4546 40.4833 81.5541 39.9262 81.4294C39.3691 81.3047 38.8834 80.9659 38.574 80.4862C38.2842 80.0149 31.4295 69.0273 31.4847 59.9744C31.5616 50.1618 37.5245 38.4509 50.6873 34.3848C56.7715 32.5054 63.1653 32.8213 69.1822 35.2882C73.8458 37.212 78.162 40.3966 81.0155 44.033C84.6603 48.6747 85.9444 54.7505 84.2851 59.4926C83.179 62.654 80.889 64.8353 77.8456 65.6152C69.9137 67.6329 66.8064 62.5529 64.5402 58.8471C62.2131 55.0481 60.9259 53.2669 56.904 54.5093C54.6955 55.1915 53.335 56.2847 52.7628 57.8552C51.9841 60.0023 52.7221 62.7542 53.4783 64.6834C53.4861 64.7036 53.4939 64.7237 53.5018 64.7438C54.4712 67.196 55.9841 69.3963 57.9267 71.1794C61.0384 74.053 66.8152 78.1497 74.1779 77.7546C74.7407 77.7197 75.2944 77.9097 75.7172 78.283C76.1399 78.6563 76.397 79.1822 76.432 79.7451C76.4324 79.7519 76.4328 79.7587 76.4332 79.7655C76.4505 80.2428 76.31 80.7124 76.0336 81.1019C75.7572 81.4914 75.3601 81.7789 74.9039 81.9201L74.9039 81.9201Z" fill="#3DC0F0"/>
<path d="M58.5261 85.9537C58.2446 86.0409 57.9484 86.07 57.6553 86.0394C57.3622 86.0087 57.0783 85.919 56.8209 85.7756C50.1599 82.0016 45.4838 76.9255 42.1166 69.811L42.103 69.7671C39.9808 65.0236 38.7033 57.7763 41.5213 51.6509C43.6017 47.1312 47.5067 43.9543 53.1082 42.224C59.7335 40.1773 65.9024 41.6842 70.9654 46.5606C73.268 48.8112 75.1405 51.4632 76.4909 54.3862C76.7062 54.9121 76.7057 55.5016 76.4897 56.0272C76.2737 56.5528 75.8595 56.9723 75.3367 57.1948C74.8138 57.4174 74.2243 57.4252 73.6958 57.2166C73.1672 57.0079 72.742 56.5996 72.5122 56.0799C71.3688 53.6403 69.7902 51.4297 67.8536 49.5565C63.9511 45.8436 59.4144 44.7458 54.3541 46.309C49.9811 47.6598 46.9699 50.0479 45.4284 53.4078C43.2055 58.244 44.35 64.2828 46.0107 67.9993C48.9798 74.2916 53.0981 78.7549 58.9607 82.0706C59.2029 82.2071 59.4158 82.3901 59.5873 82.609C59.7587 82.8278 59.8854 83.0783 59.9601 83.3461C60.0348 83.6139 60.056 83.8938 60.0224 84.1698C59.9889 84.4459 59.9014 84.7126 59.7648 84.9547C59.7594 84.9643 59.7539 84.9739 59.7484 84.9834C59.4753 85.4471 59.0397 85.7929 58.5261 85.9537Z" fill="#3DC0F0"/>
<path d="M59.228 64.6852C60.7497 64.6852 61.9833 63.4516 61.9833 61.9299C61.9833 60.4082 60.7497 59.1746 59.228 59.1746C57.7062 59.1746 56.4727 60.4082 56.4727 61.9299C56.4727 63.4516 57.7062 64.6852 59.228 64.6852Z" fill="#E6E6E6"/>
</svg>
