<svg width="184" height="160" viewBox="0 0 184 160" fill="none" xmlns="http://www.w3.org/2000/svg">
<circle cx="40" cy="50" r="38.5" stroke="#3DC0F0" stroke-width="3"/>
<path d="M20.2079 48.1917C19.9463 48.2737 19.6678 48.2852 19.4003 48.2252C19.1328 48.1652 18.8858 48.0357 18.6843 47.8499C18.4828 47.6641 18.3337 47.4284 18.2523 47.1666C18.1708 46.9049 18.1598 46.6263 18.2203 46.3589C19.1279 42.583 22.579 33.3492 35.1514 29.4654C40.5974 27.7831 45.8201 27.7544 50.6681 29.3794C54.6564 30.7108 57.3041 32.7941 58.5706 33.8011C58.8924 34.0557 59.0998 34.4277 59.1474 34.8352C59.1949 35.2428 59.0786 35.6525 58.824 35.9743C58.8208 35.9783 58.8176 35.9822 58.8145 35.9862C58.553 36.309 58.1753 36.5161 57.7625 36.5629C57.3498 36.6098 56.9352 36.4926 56.6081 36.2366C54.3135 34.4287 47.3503 28.9362 36.0649 32.4224C25.0454 35.8265 22.052 43.7887 21.2756 47.0463C21.2167 47.3154 21.0864 47.5637 20.8986 47.7652C20.7108 47.9667 20.4722 48.114 20.2079 48.1917L20.2079 48.1917Z" fill="#3DC0F0"/>
<path d="M54.4753 69.5782C54.3504 69.6186 54.2209 69.6429 54.0899 69.6507C44.2679 70.1797 38.0187 62.0198 37.7622 61.6796L37.7146 61.6011C37.558 61.3582 33.7768 55.6052 35.4414 51.0362C36.206 48.9474 37.897 47.4813 40.4817 46.6828C42.8856 45.9403 44.8526 46.1599 46.5269 47.3555C47.8998 48.3296 48.7796 49.7822 49.6324 51.185C51.406 54.0976 52.493 55.5795 55.8642 54.7245C57.3444 54.3488 58.0355 53.1915 58.3513 52.29C59.2014 49.8369 58.448 46.4926 56.4546 43.9625C53.8793 40.6799 46.6722 35.2279 37.78 37.9747C33.9828 39.1477 30.8751 41.4593 28.794 44.6423C27.0699 47.2838 26.0676 50.5645 26.0456 53.624C26.0111 59.3207 30.6798 66.8153 30.7241 66.8832C30.8316 67.0551 30.9042 67.2465 30.9377 67.4465C30.9712 67.6465 30.965 67.8512 30.9194 68.0488C30.8739 68.2464 30.7898 68.433 30.6721 68.5982C30.5544 68.7633 30.4053 68.9036 30.2334 69.0111C30.2286 69.0141 30.2238 69.017 30.219 69.02C29.8667 69.2397 29.4422 69.312 29.037 69.2213C28.6318 69.1307 28.2786 68.8843 28.0536 68.5354C27.8428 68.1927 22.8576 60.2016 22.8978 53.6177C22.9537 46.4813 27.2904 37.9643 36.8633 35.0071C41.2881 33.6402 45.9382 33.87 50.3141 35.6641C53.7059 37.0632 56.8449 39.3793 58.9202 42.024C61.5709 45.3997 62.5048 49.8185 61.2981 53.2673C60.4936 55.5665 58.8281 57.1529 56.6148 57.7201C50.8461 59.1875 48.5863 55.493 46.9381 52.7979C45.2457 50.0349 44.3096 48.7395 41.3845 49.6431C39.7784 50.1392 38.7889 50.9343 38.3727 52.0765C37.8064 53.638 38.3431 55.6394 38.8931 57.0425C38.8988 57.0571 38.9045 57.0718 38.9102 57.0864C39.6152 58.8698 40.7155 60.47 42.1283 61.7668C44.3913 63.8567 48.5926 66.8361 53.9473 66.5488C54.3567 66.5234 54.7594 66.6616 55.0668 66.9331C55.3743 67.2045 55.5613 67.587 55.5867 67.9964C55.587 68.0013 55.5873 68.0063 55.5876 68.0112C55.6001 68.3583 55.498 68.6999 55.297 68.9832C55.0959 69.2664 54.8072 69.4756 54.4753 69.5782L54.4753 69.5782Z" fill="#3DC0F0"/>
<path d="M42.5648 72.5118C42.3601 72.5752 42.1446 72.5964 41.9315 72.5741C41.7183 72.5518 41.5119 72.4866 41.3247 72.3822C36.4803 69.6375 33.0795 65.9459 30.6306 60.7717L30.6207 60.7398C29.0773 57.2899 28.1482 52.0191 30.1977 47.5643C31.7107 44.2772 34.5507 41.9668 38.6245 40.7083C43.4429 39.2199 47.9294 40.3158 51.6116 43.8623C53.2862 45.4991 54.648 47.4278 55.6301 49.5536C55.7867 49.9361 55.7864 50.3648 55.6293 50.7471C55.4722 51.1293 55.1709 51.4344 54.7907 51.5963C54.4104 51.7581 53.9817 51.7638 53.5973 51.6121C53.2129 51.4603 52.9037 51.1633 52.7365 50.7854C51.905 49.0111 50.7568 47.4034 49.3485 46.0411C46.5102 43.3408 43.2109 42.5424 39.5306 43.6793C36.3502 44.6617 34.1603 46.3985 33.0392 48.8421C31.4225 52.3593 32.2549 56.7511 33.4627 59.4541C35.622 64.0302 38.6172 67.2763 42.8809 69.6877C43.057 69.787 43.2119 69.9201 43.3366 70.0793C43.4613 70.2384 43.5534 70.4206 43.6077 70.6154C43.662 70.8102 43.6774 71.0137 43.6531 71.2145C43.6287 71.4152 43.565 71.6092 43.4657 71.7853C43.4618 71.7923 43.4578 71.7992 43.4537 71.8061C43.2551 72.1434 42.9383 72.3949 42.5648 72.5118Z" fill="#3DC0F0"/>
<path d="M43.075 57.0438C44.1817 57.0438 45.0788 56.1466 45.0788 55.0399C45.0788 53.9332 44.1817 53.0361 43.075 53.0361C41.9683 53.0361 41.0711 53.9332 41.0711 55.0399C41.0711 56.1466 41.9683 57.0438 43.075 57.0438Z" fill="#E6E6E6"/>
<path d="M155.333 74H169.778H170.8C174.72 74 176.681 74 178.178 74.763C179.495 75.4341 180.566 76.5049 181.237 77.8221C182 79.3194 182 81.2796 182 85.2V89.3125V100.25" stroke="#3DC0F0" stroke-width="3"/>
<path d="M138.667 74H124.222H123.2C119.28 74 117.319 74 115.822 74.763C114.505 75.4341 113.434 76.5049 112.763 77.8221C112 79.3194 112 81.2796 112 85.2V89.3125V100.25" stroke="#3DC0F0" stroke-width="3"/>
<path d="M155.333 144H169.778H170.8C174.72 144 176.681 144 178.178 143.237C179.495 142.566 180.566 141.495 181.237 140.178C182 138.681 182 136.72 182 132.8V128.688V117.75" stroke="#3DC0F0" stroke-width="3"/>
<path d="M138.667 144H124.222H123.2C119.28 144 117.319 144 115.822 143.237C114.505 142.566 113.434 141.495 112.763 140.178C112 138.681 112 136.72 112 132.8V128.688V117.75" stroke="#3DC0F0" stroke-width="3"/>
<path fill-rule="evenodd" clip-rule="evenodd" d="M132.4 113.3C131.102 115.094 129.849 116.081 128.501 116.552C127.159 117.02 125.58 117.026 123.483 116.594L123.185 118.415C124.927 118.773 126.51 118.895 127.974 118.665C128.726 120.407 130.226 122.025 132.123 123.402C134.47 125.105 137.542 126.527 140.946 127.428C147.721 129.221 156.11 129.014 162.853 124.446L161.4 122.611C155.625 126.523 148.215 126.827 141.907 125.157C138.771 124.327 135.98 123.025 133.893 121.51C132.249 120.317 131.11 119.044 130.527 117.825C131.901 117.099 133.093 115.962 134.218 114.407L132.4 113.3Z" fill="#3DC0F0"/>
<rect x="132" y="95.875" width="4.44444" height="9.84375" rx="2" fill="#3DC0F0"/>
<rect x="158.667" y="95.875" width="4.44444" height="9.84375" rx="2" fill="#3DC0F0"/>
<path d="M148.667 95.875L150.889 114.469L143.111 114.469" stroke="#3DC0F0" stroke-width="2"/>
<path fill-rule="evenodd" clip-rule="evenodd" d="M98 0L58 14.5L72.56 26.5088L98 17.52L146 34.48V70.5H162V24L98 0ZM128.5 143.36L116 142.5L112.5 136.344C107.969 139.31 103.108 141.687 98 143.36C74.5284 135.672 56.2639 113.173 51.3251 86.8836L35.2956 88C41.1162 122.273 65.9659 151.974 98 160C103.877 158.528 116 152.5 128.5 143.36ZM72.56 68.72L68.5 76L61.2 80L89.52 108.32L112.5 85.68L113.5 75.5L123.52 74.32L134.8 63.04L123.52 51.76L89.6 85.68L72.56 68.72Z" fill="#3DC0F0" fill-opacity="0.43"/>
</svg>
