<svg width="15" height="15" viewBox="0 0 15 15" fill="none" xmlns="http://www.w3.org/2000/svg">
<rect width="15" height="15" rx="2" fill="white"/>
<path d="M5.64286 3.07143C5.64286 2.47969 6.12277 2 6.71429 2H8.14286C8.73438 2 9.21429 2.47969 9.21429 3.07143V4.5C9.21429 5.09152 8.73438 5.57143 8.14286 5.57143H7.96429V6.46429H11.3571C12.0469 6.46429 12.6071 7.02455 12.6071 7.71429V8.42857H12.7857C13.3772 8.42857 13.8571 8.90848 13.8571 9.5V10.9286C13.8571 11.5201 13.3772 12 12.7857 12H11.3571C10.7656 12 10.2857 11.5201 10.2857 10.9286V9.5C10.2857 8.90848 10.7656 8.42857 11.3571 8.42857H11.5357V7.71429C11.5357 7.61607 11.4554 7.53571 11.3571 7.53571H7.96429V8.42857H8.14286C8.73438 8.42857 9.21429 8.90848 9.21429 9.5V10.9286C9.21429 11.5201 8.73438 12 8.14286 12H6.71429C6.12277 12 5.64286 11.5201 5.64286 10.9286V9.5C5.64286 8.90848 6.12277 8.42857 6.71429 8.42857H6.89286V7.53571H3.5C3.40179 7.53571 3.32143 7.61607 3.32143 7.71429V8.42857H3.5C4.09152 8.42857 4.57143 8.90848 4.57143 9.5V10.9286C4.57143 11.5201 4.09152 12 3.5 12H2.07143C1.47969 12 1 11.5201 1 10.9286V9.5C1 8.90848 1.47969 8.42857 2.07143 8.42857H2.25V7.71429C2.25 7.02455 2.8096 6.46429 3.5 6.46429H6.89286V5.57143H6.71429C6.12277 5.57143 5.64286 5.09152 5.64286 4.5V3.07143Z" fill="#3D96F0"/>
</svg>
