<svg width="30" height="22" viewBox="0 0 30 22" fill="none" xmlns="http://www.w3.org/2000/svg">
<path d="M28.4194 21.25H28.4197C28.7439 21.2496 29.0436 21.0953 29.257 20.8407C29.4692 20.5873 29.583 20.2519 29.5833 19.9093V19.9091V2.09091V2.09067C29.583 1.74811 29.4692 1.41268 29.257 1.15933C29.0436 0.904676 28.7439 0.750436 28.4197 0.75H28.4194L1.91398 0.75L1.91363 0.75C1.58943 0.750449 1.28972 0.904691 1.07638 1.15934C0.864115 1.41269 0.750333 1.74811 0.75 2.09067V2.09091L0.75 19.9091L0.75 19.9093C0.750333 20.2519 0.864114 20.5873 1.07637 20.8407C1.28972 21.0953 1.58943 21.2495 1.91363 21.25H1.91398H28.4194ZM28.419 20.5076H1.91431C1.80773 20.5074 1.69444 20.4572 1.60318 20.3482C1.51085 20.238 1.45329 20.0805 1.45311 19.909V2.09103C1.45329 1.91945 1.51085 1.76197 1.60318 1.65177C1.6944 1.54289 1.80762 1.49261 1.91416 1.49242H28.4192C28.5257 1.49262 28.6389 1.54291 28.7301 1.65178C28.8225 1.76201 28.8801 1.91953 28.8802 2.09115V19.9088C28.8801 20.0805 28.8225 20.238 28.7301 20.3482C28.6389 20.4571 28.5256 20.5074 28.419 20.5076Z" fill="#E6E6E6" stroke="#DADADA" stroke-width="0.5"/>
<path d="M9.02192 13.3285C11.4845 13.3285 13.4809 11.3322 13.4809 8.86958C13.4809 6.40698 11.4845 4.41064 9.02192 4.41064C6.55932 4.41064 4.56299 6.40698 4.56299 8.86958C4.56299 11.3322 6.55932 13.3285 9.02192 13.3285Z" fill="#DBDBDB"/>
<path d="M26.204 16.7432L20.9699 7.67747C20.9372 7.6208 20.8901 7.57375 20.8335 7.54104C20.7768 7.50832 20.7125 7.4911 20.6471 7.4911C20.5817 7.4911 20.5174 7.50832 20.4607 7.54104C20.4041 7.57375 20.357 7.6208 20.3243 7.67747L17.1301 13.21L12.3682 4.96209C12.3262 4.88944 12.2659 4.82911 12.1932 4.78717C12.1206 4.74523 12.0382 4.72314 11.9543 4.72314C11.8704 4.72314 11.788 4.74523 11.7153 4.78717C11.6427 4.82911 11.5824 4.88944 11.5404 4.96209L4.82965 16.5855C4.78771 16.6581 4.76562 16.7405 4.76563 16.8244C4.76563 16.9083 4.78771 16.9907 4.82965 17.0634C4.8716 17.136 4.93193 17.1964 5.00457 17.2383C5.07722 17.2802 5.15964 17.3023 5.24352 17.3023H25.8812C25.9466 17.3023 26.0109 17.2851 26.0676 17.2524C26.1243 17.2197 26.1713 17.1726 26.204 17.116C26.2367 17.0593 26.254 16.995 26.254 16.9296C26.254 16.8642 26.2367 16.7999 26.204 16.7432Z" fill="#3DC0F0"/>
</svg>
