<svg width="23" height="28" viewBox="0 0 23 28" fill="none" xmlns="http://www.w3.org/2000/svg">
<path d="M11.2023 5.6C12.7487 5.6 14.0023 4.3464 14.0023 2.8C14.0023 1.2536 12.7487 0 11.2023 0C9.65595 0 8.40234 1.2536 8.40234 2.8C8.40234 4.3464 9.65595 5.6 11.2023 5.6Z" fill="#3DC0F0"/>
<path d="M16.646 8.554C16.1 8.008 15.162 7 13.342 7C13.048 7 11.354 7 9.786 7C5.936 6.986 2.8 3.85 2.8 0H0C0 4.424 2.954 8.176 7 9.394V28H9.8V19.6H12.6V28H15.4V11.27L20.93 16.8L22.904 14.826L16.646 8.554Z" fill="#3DC0F0"/>
<path d="M12.4368 11.5703C12.3718 11.898 12.0463 12.1124 11.71 12.049C11.3735 11.9857 11.1535 11.6686 11.2184 11.341C11.2835 11.0132 11.6089 10.7989 11.9453 10.8621C12.2818 10.9256 12.5018 11.2426 12.4368 11.5703Z" fill="white"/>
<path d="M11.442 13.3971C10.3428 13.1902 9.62159 12.1508 9.83397 11.0802C10.0464 10.0096 11.1134 9.30668 12.2124 9.51371C12.4512 9.55867 12.6074 9.7838 12.5614 10.0164C12.5152 10.2493 12.2841 10.4013 12.0452 10.3564C11.4232 10.2394 10.8192 10.6371 10.6989 11.2431C10.5787 11.8491 10.987 12.4372 11.6092 12.5545C11.8479 12.5994 12.0043 12.8246 11.9582 13.0571C11.9117 13.2898 11.6807 13.4422 11.442 13.3971Z" fill="white"/>
<path d="M11.8311 14.6133C11.7664 14.941 11.4407 15.1553 11.1044 15.092C10.7679 15.0286 10.5477 14.7116 10.613 14.3839C10.6778 14.0561 11.0035 13.8418 11.3399 13.9052C11.6762 13.9686 11.8962 14.2854 11.8311 14.6133Z" fill="white"/>
<path d="M10.8415 16.441C10.6026 16.3962 10.4464 16.1709 10.4924 15.9383C10.5386 15.7055 10.7697 15.5534 11.0086 15.5983C11.6307 15.7155 12.2345 15.3177 12.3548 14.7118C12.4751 14.1057 12.0667 13.5173 11.4447 13.4004C11.2059 13.3553 11.0496 13.1302 11.0956 12.8977C11.1419 12.6649 11.373 12.5127 11.6119 12.5577C12.711 12.7645 13.4323 13.804 13.2198 14.8746C13.0073 15.9453 11.9406 16.648 10.8415 16.441Z" fill="white"/>
</svg>
