<svg width="34" height="34" viewBox="0 0 34 34" fill="none" xmlns="http://www.w3.org/2000/svg">
<rect width="33.1086" height="33.1086" rx="5" fill="#3DC0F0"/>
<path d="M14.6191 9.0296C16.1015 9.0296 17.5233 9.61852 18.5716 10.6668C19.6199 11.7151 20.2088 13.1369 20.2088 14.6194C20.2088 16.0039 19.7014 17.2766 18.8673 18.257L19.0995 18.4892H19.7788L24.0786 22.789L22.7887 24.0789L18.4889 19.7791V19.0998L18.2567 18.8676C17.2763 19.7017 16.0036 20.2091 14.6191 20.2091C13.1366 20.2091 11.7148 19.6202 10.6665 18.5719C9.61822 17.5236 9.0293 16.1019 9.0293 14.6194C9.0293 13.1369 9.61822 11.7151 10.6665 10.6668C11.7148 9.61852 13.1366 9.0296 14.6191 9.0296ZM14.6191 10.7495C12.4691 10.7495 10.7492 12.4695 10.7492 14.6194C10.7492 16.7693 12.4691 18.4892 14.6191 18.4892C16.769 18.4892 18.4889 16.7693 18.4889 14.6194C18.4889 12.4695 16.769 10.7495 14.6191 10.7495Z" fill="white"/>
</svg>
