<svg width="16" height="20" viewBox="0 0 16 20" fill="none" xmlns="http://www.w3.org/2000/svg">
<path fill-rule="evenodd" clip-rule="evenodd" d="M7.27615 0C4.65763 0 2.53981 1.95299 2.53981 4.36772C2.53981 4.92154 2.67519 5.51995 2.90018 6.13204L0.304479 6.9415C0.126866 6.9961 0 7.13649 0 7.31588V19.1087C0 19.3271 0.186071 19.4987 0.422888 19.4987L0.558212 19.4753L5.07465 17.8608L10.1493 19.4987L14.9195 18.0168C15.0971 17.9622 15.224 17.8218 15.224 17.6424V5.84957C15.224 5.63118 15.0379 5.45959 14.8011 5.45959L14.6657 5.48299L11.4522 6.62797C11.7945 5.84486 12.0125 5.0704 12.0125 4.36772C12.0125 1.95299 9.89466 0 7.27615 0ZM7.37485 10.4163C8.79826 8.73204 10.6592 6.12382 10.6592 4.36772C10.6592 2.64559 9.14362 1.24792 7.27615 1.24792C5.40868 1.24792 3.89305 2.64559 3.89305 4.36772C3.89305 6.12358 5.81927 8.79802 7.22265 10.4689L7.37485 10.4163ZM5.92043 10.9506C6.68502 11.8757 7.27615 12.4792 7.27615 12.4792C7.27615 12.4792 8.2433 11.4917 9.30353 10.107V17.5722L5.92043 16.4803V10.9506ZM3.56887 7.57539C3.77255 7.94691 3.99593 8.31463 4.22888 8.6717V16.4959L1.69155 17.4007V8.15823L3.56887 7.57539ZM7.27985 5.92755C8.21407 5.92755 8.97141 5.22917 8.97141 4.36768C8.97141 3.50618 8.21407 2.8078 7.27985 2.8078C6.34564 2.8078 5.5883 3.50618 5.5883 4.36768C5.5883 5.22917 6.34564 5.92755 7.27985 5.92755ZM10.9951 17.5878L13.5324 16.8001V7.56546L10.9951 8.47021V17.5878Z" fill="white"/>
</svg>