<svg width="19" height="13" viewBox="0 0 19 13" fill="none" xmlns="http://www.w3.org/2000/svg">
<path fill-rule="evenodd" clip-rule="evenodd" d="M6.6013 0.753567C6.87825 0.572992 7.05344 0.583713 7.16103 0.627413C7.28784 0.678922 7.41386 0.813293 7.51127 1.03243C7.5593 1.14049 7.59566 1.25921 7.6199 1.37911C7.33689 1.11618 6.98751 0.895961 6.6013 0.753567ZM5.87072 0.583039C5.95719 0.488682 6.08026 0.379693 6.25506 0.26318C6.65229 -0.00157631 7.04149 -0.068745 7.38682 0.0715191C7.71465 0.204679 7.92963 0.49646 8.05954 0.788709C8.19157 1.08571 8.2559 1.42594 8.2559 1.72738C8.2559 1.8788 8.23969 2.0289 8.20264 2.16434L8.20163 2.16802C8.23779 2.24873 8.2677 2.33019 8.29084 2.41177C8.39316 2.77238 8.43555 3.28845 8.44357 3.8617H9.83572C9.84375 3.28845 9.88614 2.77238 9.98845 2.41177C10.0111 2.332 10.0402 2.25235 10.0753 2.17341C10.0744 2.17038 10.0736 2.16736 10.0727 2.16434C10.0357 2.0289 10.0195 1.8788 10.0195 1.72738C10.0195 1.42594 10.0838 1.08571 10.2159 0.788709C10.3458 0.49646 10.5607 0.204679 10.8886 0.0715191C11.2339 -0.068745 11.6231 -0.00157631 12.0203 0.26318C12.1954 0.379871 12.3186 0.489014 12.4051 0.58347C13.1271 0.494575 13.8101 0.62551 14.3361 1.12127C15.3998 2.12397 16.344 3.64006 17.0173 4.88823C17.3555 5.51538 17.6285 6.08088 17.817 6.48973C17.9113 6.69423 17.9845 6.85974 18.0343 6.97441C18.0592 7.03175 18.0782 7.07639 18.0911 7.10686L18.1058 7.14175L18.1096 7.15087L18.1106 7.1533L18.1109 7.15397L18.1109 7.15416C18.1109 7.15419 18.111 7.15422 18.0847 7.16512C18.211 7.56137 18.2793 7.98436 18.2793 8.42365C18.2793 10.667 16.4982 12.4856 14.3011 12.4856C12.3263 12.4856 10.6875 11.0163 10.3762 9.08997L10.2383 9.1091L10.2382 9.1089L10.2381 9.10814L10.2377 9.10527L10.2362 9.09414L10.2304 9.05103C10.2254 9.01329 10.2181 8.95787 10.209 8.88687C10.1908 8.74489 10.1652 8.54055 10.136 8.29061C10.0779 7.79468 10.0051 7.1184 9.94555 6.39295H8.33374C8.31935 6.56832 8.30418 6.74081 8.28864 6.90858H9.94808V7.40858H8.23996C8.20639 7.73789 8.17295 8.0377 8.14334 8.29061C8.11408 8.54055 8.08854 8.74489 8.0703 8.88687C8.06118 8.95787 8.05388 9.01329 8.04885 9.05103L8.04307 9.09414L8.04155 9.10527L8.04116 9.10814L8.04106 9.1089L8.04103 9.1091L7.90314 9.08997C7.5918 11.0163 5.95305 12.4856 3.9782 12.4856C1.7811 12.4856 0 10.667 0 8.42365C0 7.98436 0.0682941 7.56137 0.194633 7.16512L0.168361 7.15416L0.168443 7.15397L0.16872 7.1533L0.169724 7.15087L0.173522 7.14175L0.188186 7.10686C0.201063 7.07639 0.220099 7.03175 0.244993 6.97441C0.294775 6.85974 0.368009 6.69423 0.462292 6.48973C0.650787 6.08088 0.923777 5.51538 1.26205 4.88823C1.93528 3.64006 2.87951 2.12397 3.94324 1.12127C4.46831 0.626314 5.14994 0.495001 5.87072 0.583039ZM11.6755 0.75449C11.3977 0.572955 11.2221 0.583639 11.1144 0.627413C10.9876 0.678922 10.8615 0.813293 10.7641 1.03243C10.7155 1.14183 10.6788 1.26217 10.6546 1.38358C10.9378 1.11925 11.2881 0.89772 11.6755 0.75449ZM10.6294 2.19176L10.7021 2.11902C10.6997 2.11659 10.6949 2.11082 10.6888 2.10064C10.9957 1.65884 11.5502 1.25295 12.2057 1.12191C12.9474 0.973666 13.557 1.07459 13.9928 1.48542C14.9809 2.41678 15.882 3.84462 16.547 5.07045C15.9078 4.6233 15.1344 4.3617 14.3011 4.3617C12.5342 4.3617 11.0363 5.53784 10.5175 7.16518C10.4915 6.90137 10.4659 6.62179 10.4425 6.33476C10.3833 5.6099 10.338 4.84071 10.3345 4.15905C10.3309 3.46953 10.3706 2.89594 10.4694 2.54754C10.5026 2.43057 10.5568 2.31048 10.6294 2.19176ZM8.44266 4.3617H9.83664C9.84448 4.85326 9.87125 5.37844 9.9074 5.89295H8.3719C8.40804 5.37844 8.43482 4.85326 8.44266 4.3617ZM7.58833 2.09759C7.58139 2.10969 7.57593 2.11636 7.57327 2.11902L7.65594 2.20169C7.72546 2.31717 7.77762 2.43383 7.80988 2.54754C7.90874 2.89594 7.94841 3.46953 7.94483 4.15905C7.94129 4.84071 7.89602 5.6099 7.8368 6.33476C7.81335 6.62179 7.78776 6.90137 7.76179 7.16518C7.24295 5.53784 5.7451 4.3617 3.9782 4.3617C3.14491 4.3617 2.37145 4.6233 1.73231 5.07045C2.39731 3.84462 3.29842 2.41678 4.28647 1.48542C4.7223 1.07459 5.33187 0.973666 6.07355 1.12191C6.72764 1.25265 7.28106 1.65698 7.58833 2.09759ZM3.9782 11.7856C5.77503 11.7856 7.2564 10.2942 7.2564 8.42365C7.2564 6.55308 5.77503 5.0617 3.9782 5.0617C2.18138 5.0617 0.7 6.55308 0.7 8.42365C0.7 10.2942 2.18138 11.7856 3.9782 11.7856ZM3.97779 10.8702C5.28252 10.8702 6.36144 9.78677 6.36144 8.42378C6.36144 7.0608 5.28252 5.97733 3.97779 5.97733C2.67306 5.97733 1.59414 7.0608 1.59414 8.42378C1.59414 9.78677 2.67306 10.8702 3.97779 10.8702ZM3.97779 11.4702C5.62562 11.4702 6.96144 10.1063 6.96144 8.42378C6.96144 6.74127 5.62562 5.37733 3.97779 5.37733C2.32997 5.37733 0.994141 6.74127 0.994141 8.42378C0.994141 10.1063 2.32997 11.4702 3.97779 11.4702ZM14.3015 10.8702C12.9968 10.8702 11.9179 9.78677 11.9179 8.42378C11.9179 7.0608 12.9968 5.97733 14.3015 5.97733C15.6062 5.97733 16.6852 7.0608 16.6852 8.42378C16.6852 9.78677 15.6062 10.8702 14.3015 10.8702ZM14.3015 11.4702C12.6537 11.4702 11.3179 10.1063 11.3179 8.42378C11.3179 6.74127 12.6537 5.37733 14.3015 5.37733C15.9493 5.37733 17.2852 6.74127 17.2852 8.42378C17.2852 10.1063 15.9493 11.4702 14.3015 11.4702ZM11.0229 8.42365C11.0229 10.2942 12.5043 11.7856 14.3011 11.7856C16.0979 11.7856 17.5793 10.2942 17.5793 8.42365C17.5793 6.55308 16.0979 5.0617 14.3011 5.0617C12.5043 5.0617 11.0229 6.55308 11.0229 8.42365Z" fill="white"/>
</svg>
