<svg width="25" height="19" viewBox="0 0 25 19" fill="none" xmlns="http://www.w3.org/2000/svg">
<path fill-rule="evenodd" clip-rule="evenodd" d="M1.92966 17.8827C3.95015 18.5112 5.92735 17.8996 7.03711 17.4115C9.83342 18.4079 13.0357 18.6044 16.0189 17.9625C19.0021 17.3207 21.552 15.8867 23.1711 13.9404C24.7901 11.9941 25.362 9.67517 24.7752 7.43628C24.1883 5.1974 22.4848 3.19924 19.9971 1.83182C17.5095 0.464402 14.4163 -0.174126 11.3212 0.0408692C8.22612 0.255865 5.35138 1.30895 3.25809 2.99458C1.1648 4.68021 0.00318846 6.87739 6.55423e-06 9.15727C-0.00317535 11.4371 1.1523 13.6361 3.24088 15.3248L0.623571 17.4764L1.92966 17.8827ZM2.87659 12.2081C2.30741 11.2436 2.01656 10.2031 2.02233 9.15213C2.02233 4.91185 6.72651 1.46212 12.5087 1.46212C18.2909 1.46212 22.9951 4.91185 22.9951 9.15213C22.9951 13.3924 18.2909 16.8421 12.5087 16.8421C10.7467 16.8423 9.01303 16.5171 7.46753 15.8965L6.90841 15.6712L6.38854 15.9425C6.00967 16.1402 5.26248 16.4805 4.40459 16.6081L6.05157 15.2543L5.32962 14.7567C4.28096 14.0404 3.44577 13.1727 2.87659 12.2081ZM7.9158 10.8331C8.60615 10.8331 9.16579 10.2735 9.16579 9.58313C9.16579 8.89277 8.60615 8.33313 7.9158 8.33313C7.22544 8.33313 6.6658 8.89277 6.6658 9.58313C6.6658 10.2735 7.22544 10.8331 7.9158 10.8331ZM19.1663 9.58313C19.1663 10.2735 18.6066 10.8331 17.9163 10.8331C17.2259 10.8331 16.6663 10.2735 16.6663 9.58313C16.6663 8.89277 17.2259 8.33313 17.9163 8.33313C18.6066 8.33313 19.1663 8.89277 19.1663 9.58313ZM12.9156 10.8331C13.6059 10.8331 14.1656 10.2735 14.1656 9.58313C14.1656 8.89277 13.6059 8.33313 12.9156 8.33313C12.2252 8.33313 11.6656 8.89277 11.6656 9.58313C11.6656 10.2735 12.2252 10.8331 12.9156 10.8331Z" fill="#F36366"/>
</svg>
