<svg width="16" height="15" viewBox="0 0 16 15" fill="none" xmlns="http://www.w3.org/2000/svg">
<path d="M14.0306 0H1.68367C1.23714 0 0.808887 0.169324 0.493137 0.470721C0.177387 0.772119 0 1.1809 0 1.60714L0 13.3929C0 13.8191 0.177387 14.2279 0.493137 14.5293C0.808887 14.8307 1.23714 15 1.68367 15H6.49793V9.90033H4.28811V7.5H6.49793V5.67054C6.49793 3.58962 7.79576 2.44018 9.78355 2.44018C10.7355 2.44018 11.731 2.60223 11.731 2.60223V4.64464H10.6342C9.55344 4.64464 9.21636 5.28482 9.21636 5.94141V7.5H11.6289L11.2431 9.90033H9.21636V15H14.0306C14.4772 15 14.9054 14.8307 15.2212 14.5293C15.5369 14.2279 15.7143 13.8191 15.7143 13.3929V1.60714C15.7143 1.1809 15.5369 0.772119 15.2212 0.470721C14.9054 0.169324 14.4772 0 14.0306 0Z" fill="white"/>
</svg>
