<svg width="25" height="26" viewBox="0 0 25 26" fill="none" xmlns="http://www.w3.org/2000/svg">
<path fill-rule="evenodd" clip-rule="evenodd" d="M16.9962 15.5821C16.9962 19.447 13.863 22.5802 9.99809 22.5802C6.13315 22.5802 3 19.447 3 15.5821C3 11.7171 6.13315 8.58398 9.99809 8.58398C13.863 8.58398 16.9962 11.7171 16.9962 15.5821ZM19.9962 15.5821C19.9962 21.1039 15.5199 25.5802 9.99809 25.5802C4.4763 25.5802 0 21.1039 0 15.5821C0 10.0603 4.4763 5.58398 9.99809 5.58398C15.5199 5.58398 19.9962 10.0603 19.9962 15.5821ZM13.4257 15.5822C13.4257 17.4752 11.8911 19.0098 9.99814 19.0098C8.10516 19.0098 6.5706 17.4752 6.5706 15.5822C6.5706 13.6893 8.10516 12.1547 9.99814 12.1547C11.8911 12.1547 13.4257 13.6893 13.4257 15.5822ZM15.4257 15.5822C15.4257 18.5798 12.9957 21.0098 9.99814 21.0098C7.00059 21.0098 4.5706 18.5798 4.5706 15.5822C4.5706 12.5847 7.00059 10.1547 9.99814 10.1547C12.9957 10.1547 15.4257 12.5847 15.4257 15.5822Z" fill="#FFC24A"/>
<path d="M11.552 15.2442C11.552 15.2442 12.1732 15.8373 11.6202 16.8459C11.0672 17.8546 10.3044 17.546 9.26176 16.5699C8.21912 15.5937 7.93922 14.926 8.90931 14.3079C9.87941 13.6897 10.3989 14.1761 10.3989 14.1761L19.5057 4.34034L20.6587 5.40851L11.552 15.2442Z" fill="#FFC24A"/>
<path d="M17.5886 7.03477L17.3894 5.35064L19.9522 2.5131L19.4899 5.51472L22.4546 4.85595L19.8417 7.64668L18.2159 7.54391" stroke="#FFC24A"/>
<ellipse cx="10.0239" cy="15.7564" rx="1.99962" ry="1.95" transform="rotate(43.1143 10.0239 15.7564)" fill="#FFC24A"/>
</svg>
