<svg width="23" height="21" viewBox="0 0 23 21" fill="none" xmlns="http://www.w3.org/2000/svg">
<path fill-rule="evenodd" clip-rule="evenodd" d="M12.9045 1.42957L13.7418 1.87088C11.9691 4.29746 8.50897 6.45803 3.31393 6.27352L3.31393 6.95886C9.05012 6.95886 12.9797 4.31953 14.3541 2.06871L15.2375 2.47905L15.2375 0L12.9045 1.42957ZM0 0.210684V18.682V19.822V20.082L23 20.082L23 18.682L1.4 18.682V0.210684H0ZM3.03043 11.3329C3.03043 10.7806 3.47814 10.3329 4.03043 10.3329H6.14317C6.69546 10.3329 7.14317 10.7806 7.14317 11.3329V16.0809C7.14317 16.6332 6.69546 17.0809 6.14317 17.0809H4.03043C3.47815 17.0809 3.03043 16.6332 3.03043 16.0809V11.3329ZM10.7409 7.59135C10.1886 7.59135 9.74086 8.03906 9.74086 8.59135V16.0807C9.74086 16.633 10.1886 17.0807 10.7409 17.0807H12.8536C13.4059 17.0807 13.8536 16.633 13.8536 16.0807V8.59135C13.8536 8.03906 13.4059 7.59135 12.8536 7.59135H10.7409ZM16.4513 4.37408C16.4513 3.8218 16.899 3.37408 17.4513 3.37408H19.564C20.1163 3.37408 20.564 3.8218 20.564 4.37408V16.0809C20.564 16.6332 20.1163 17.0809 19.564 17.0809H17.4513C16.899 17.0809 16.4513 16.6332 16.4513 16.0809V4.37408Z" fill="#00DF16"/>
</svg>
