<svg width="1150" height="1150" viewBox="0 0 1150 1150" fill="none" xmlns="http://www.w3.org/2000/svg">
<circle cx="575" cy="575" r="575" fill="#E87AEA" fill-opacity="0.9"/>
<path d="M385.438 265.385V341.209H309.614V391.758H385.438V467.582H435.988V391.758H511.812V341.209H435.988V265.385H385.438ZM562.362 341.209V391.758H789.834V442.308H638.186C610.383 442.308 587.636 465.055 587.636 492.857V644.505C587.636 672.308 610.383 695.055 638.186 695.055H789.834V745.604H435.988V518.132H385.438V745.604C385.438 773.406 407.933 796.154 435.988 796.154H789.834C817.636 796.154 840.383 773.406 840.383 745.604V687.978C855.296 679.132 865.658 663.209 865.658 644.505V492.857C865.658 474.154 855.296 458.231 840.383 449.385V391.758C840.383 363.956 817.636 341.209 789.834 341.209H562.362ZM638.186 492.857H815.109V644.505H638.186V492.857ZM714.01 530.769C703.955 530.769 694.312 534.763 687.202 541.873C680.092 548.983 676.098 558.626 676.098 568.681C676.098 578.736 680.092 588.379 687.202 595.489C694.312 602.599 703.955 606.593 714.01 606.593C724.065 606.593 733.708 602.599 740.818 595.489C747.928 588.379 751.922 578.736 751.922 568.681C751.922 558.626 747.928 548.983 740.818 541.873C733.708 534.763 724.065 530.769 714.01 530.769Z" fill="white"/>
</svg>
