<svg width="1150" height="1150" viewBox="0 0 1150 1150" fill="none" xmlns="http://www.w3.org/2000/svg">
<circle cx="575" cy="575" r="575" fill="#11F944"/>
<path d="M792.132 651.399V434.266H454.37V651.399H792.132ZM792.132 313.636C804.929 313.636 817.202 318.72 826.251 327.769C835.3 336.818 840.384 349.091 840.384 361.888V651.399C840.384 664.196 835.3 676.469 826.251 685.518C817.202 694.567 804.929 699.65 792.132 699.65H454.37C427.59 699.65 406.118 677.937 406.118 651.399V361.888C406.118 349.091 411.201 336.818 420.25 327.769C429.299 318.72 441.572 313.636 454.37 313.636H478.495V265.385H526.747V313.636H719.754V265.385H768.006V313.636H792.132ZM708.415 508.091L601.296 615.21L536.639 550.552L562.212 524.979L601.296 564.063L682.842 482.517L708.415 508.091ZM357.866 747.902H695.628V796.154H357.866C331.086 796.154 309.614 774.44 309.614 747.902V458.392H357.866V747.902Z" fill="white"/>
</svg>
