<svg width="1150" height="1150" viewBox="0 0 1150 1150" fill="none" xmlns="http://www.w3.org/2000/svg">
<circle cx="575" cy="575" r="575" fill="#DF0996"/>
<path d="M575.004 265.385C610.196 265.385 643.947 279.365 668.831 304.249C693.716 329.134 707.696 362.885 707.696 398.077C707.696 433.269 693.716 467.02 668.831 491.904C643.947 516.789 610.196 530.769 575.004 530.769C539.812 530.769 506.061 516.789 481.176 491.904C456.291 467.02 442.311 433.269 442.311 398.077C442.311 362.885 456.291 329.134 481.176 304.249C506.061 279.365 539.812 265.385 575.004 265.385V265.385ZM575.004 331.731C557.408 331.731 540.532 338.721 528.09 351.163C515.648 363.605 508.658 380.481 508.658 398.077C508.658 415.673 515.648 432.548 528.09 444.991C540.532 457.433 557.408 464.423 575.004 464.423C592.6 464.423 609.475 457.433 621.918 444.991C634.36 432.548 641.35 415.673 641.35 398.077C641.35 380.481 634.36 363.605 621.918 351.163C609.475 338.721 592.6 331.731 575.004 331.731V331.731ZM575.004 563.942C663.576 563.942 840.388 608.062 840.388 696.635V796.154H309.619V696.635C309.619 608.062 486.432 563.942 575.004 563.942ZM575.004 626.971C476.48 626.971 372.648 675.404 372.648 696.635V733.125H777.36V696.635C777.36 675.404 673.528 626.971 575.004 626.971Z" fill="white"/>
</svg>
