<svg width="1150" height="1150" viewBox="0 0 1150 1150" fill="none" xmlns="http://www.w3.org/2000/svg">
<circle cx="575" cy="575" r="575" fill="#FFB341"/>
<path fill-rule="evenodd" clip-rule="evenodd" d="M433.09 375.216C406.736 375.216 385.173 396.778 385.173 423.132V614.799C385.173 641.153 406.736 662.716 433.09 662.716H768.507C794.861 662.716 816.423 641.153 816.423 614.799V578.862H768.507V614.799H433.09V423.132H768.507V459.07H816.423V423.132C816.423 396.778 794.861 375.216 768.507 375.216H433.09ZM672.673 518.966C672.673 479.195 640.569 447.091 600.798 447.091C561.027 447.091 528.923 479.195 528.923 518.966C528.923 558.737 561.027 590.841 600.798 590.841C640.569 590.841 672.673 558.737 672.673 518.966ZM337.257 758.549C310.902 758.549 289.34 736.987 289.34 710.632V447.091H337.257V710.632H744.548V758.549H337.257Z" fill="white"/>
<path d="M888.302 423.135L854.521 456.916L892.375 495.01H696.636V542.926H892.375L854.521 580.78L888.302 614.801L984.136 518.968L888.302 423.135Z" fill="white"/>
</svg>
