<svg width="1150" height="1150" viewBox="0 0 1150 1150" fill="none" xmlns="http://www.w3.org/2000/svg">
<circle cx="575" cy="575" r="575" fill="#FF7193" fill-opacity="0.9"/>
<path fill-rule="evenodd" clip-rule="evenodd" d="M843.005 226.415L837.734 259.264L828.671 315.752L833.686 320.212L891.706 307.835L924.413 300.858L901.731 324.116L832.248 395.362L829.041 398.65L824.281 398.361L784.19 395.928L611.162 575.334C619.966 593.458 617.219 615.386 602.421 630.559C582.848 650.63 549.601 651.279 528.163 632.01C506.724 612.741 505.213 580.85 524.786 560.78C539.246 545.953 561.167 541.725 580.277 548.295L753.913 368.258L749.309 330.907L748.775 326.574L751.784 323.375L819.937 250.934L843.005 226.415ZM812.238 288.699L808.565 311.592L772.128 349.372L770.162 333.422L812.238 288.699ZM801.995 377.467L838.881 339.221L863.918 333.88L820.325 378.579L801.995 377.467Z" fill="white"/>
<path d="M564 325C414.879 325 294 445.879 294 595C294 744.121 414.879 865 564 865C713.121 865 834 744.121 834 595C834 445.879 713.121 325 564 325ZM564 795.323C453.289 795.323 363.677 705.733 363.677 595C363.677 484.289 453.267 394.677 564 394.677C674.711 394.677 764.323 484.267 764.323 595C764.323 705.711 674.733 795.323 564 795.323ZM564 455.645C487.039 455.645 424.645 518.039 424.645 595C424.645 671.961 487.039 734.355 564 734.355C640.961 734.355 703.355 671.961 703.355 595C703.355 518.039 640.961 455.645 564 455.645ZM564 664.677C525.579 664.677 494.323 633.421 494.323 595C494.323 556.579 525.579 525.323 564 525.323C602.421 525.323 633.677 556.579 633.677 595C633.677 633.421 602.421 664.677 564 664.677Z" fill="white"/>
</svg>
