<svg width="1150" height="1150" viewBox="0 0 1150 1150" fill="none" xmlns="http://www.w3.org/2000/svg">
<circle cx="575" cy="575" r="575" fill="#F03D3D" fill-opacity="0.9"/>
<path d="M755.2 743.077H365.313V451.154H755.2V743.077ZM755.2 318.461H727.351V265.385H671.653V318.461H448.86V265.385H393.162V318.461H365.313C334.401 318.461 309.615 342.346 309.615 371.538V743.077C309.615 757.154 315.484 770.654 325.929 780.608C336.374 790.562 350.541 796.154 365.313 796.154H755.2C769.972 796.154 784.139 790.562 794.584 780.608C805.029 770.654 810.898 757.154 810.898 743.077V371.538C810.898 357.461 805.029 343.961 794.584 334.007C784.139 324.053 769.972 318.461 755.2 318.461ZM485.343 690L553.294 625.246L621.246 690L650.766 661.869L582.814 597.115L650.766 532.361L621.246 504.231L553.294 568.985L485.343 504.231L455.823 532.361L523.774 597.115L455.823 661.869L485.343 690Z" fill="white"/>
</svg>
