<svg width="1150" height="1150" viewBox="0 0 1150 1150" fill="none" xmlns="http://www.w3.org/2000/svg">
<circle cx="575" cy="575" r="575" fill="#763DF0" fill-opacity="0.8"/>
<path d="M678.205 575C678.205 539.095 707.102 509.955 742.708 509.955C778.314 509.955 807.211 539.095 807.211 575C807.211 610.905 778.314 640.046 742.708 640.046C707.102 640.046 678.205 610.905 678.205 575ZM600.801 353.846V796.154H884.615V353.846H600.801ZM833.013 692.082C804.631 692.082 781.41 715.498 781.41 744.118H704.006C704.006 715.498 681.043 692.082 652.404 692.082V457.919C681.043 457.919 704.006 434.763 704.006 405.883H781.41C781.41 434.763 804.631 457.919 833.013 457.919V692.082ZM445.994 431.901C474.375 431.901 497.596 455.317 497.596 483.937C497.596 512.557 474.375 535.973 445.994 535.973C417.612 535.973 394.391 512.557 394.391 483.937C394.391 455.317 417.612 431.901 445.994 431.901ZM445.994 379.865C388.973 379.865 342.788 426.437 342.788 483.937C342.788 541.437 388.973 588.009 445.994 588.009C503.014 588.009 549.199 541.437 549.199 483.937C549.199 426.437 503.014 379.865 445.994 379.865ZM445.994 640.046C346.143 640.046 265.385 686.618 265.385 744.118V796.154H549.199V744.118H316.987C316.987 729.027 362.139 692.082 445.994 692.082C493.21 692.082 527.784 703.79 549.199 716.799V658.779C520.043 647.07 484.695 640.046 445.994 640.046Z" fill="white"/>
</svg>
