<svg width="23" height="22" viewBox="0 0 23 22" fill="none" xmlns="http://www.w3.org/2000/svg">
<path d="M15.5481 15.1891V9.80448C15.5481 6.49833 13.7267 3.73063 10.5505 2.99833V2.26602C10.5505 1.37217 9.8064 0.650635 8.88462 0.650635C7.96284 0.650635 7.21875 1.37217 7.21875 2.26602V2.99833C4.03139 3.73063 2.22115 6.48756 2.22115 9.80448V15.1891L0 17.3429V18.4199H17.7692V17.3429L15.5481 15.1891ZM8.88462 21.6506C10.1063 21.6506 11.1058 20.6814 11.1058 19.4968H6.66346C6.66346 20.6814 7.65188 21.6506 8.88462 21.6506Z" fill="#3DC0F0"/>
<path d="M20.6233 1.92685L20.2924 1.51157L19.8978 1.86683L9.84028 10.9205L6.72271 6.98927L6.392 6.57224L5.99642 6.92833L4.60334 8.18238L4.25466 8.49626L4.54572 8.8642L9.15609 14.6922L9.4867 15.1101L9.88275 14.7536L21.7388 4.08084L22.0887 3.76585L21.7953 3.39764L20.6233 1.92685Z" fill="white" stroke="#3DC0F0"/>
</svg>
