<svg width="23" height="22" viewBox="0 0 23 22" fill="none" xmlns="http://www.w3.org/2000/svg">
<path d="M15.5481 15.5385V10.1538C15.5481 6.84769 13.7267 4.08 10.5505 3.34769V2.61538C10.5505 1.72154 9.8064 1 8.88462 1C7.96284 1 7.21875 1.72154 7.21875 2.61538V3.34769C4.03139 4.08 2.22115 6.83692 2.22115 10.1538V15.5385L0 17.6923V18.7692H17.7692V17.6923L15.5481 15.5385ZM8.88462 22C10.1063 22 11.1058 21.0308 11.1058 19.8462H6.66346C6.66346 21.0308 7.65188 22 8.88462 22Z" fill="#8F9091"/>
<path d="M20.6233 1.92685L20.2924 1.51157L19.8978 1.86683L9.84028 10.9205L6.72271 6.98927L6.392 6.57224L5.99642 6.92833L4.60334 8.18238L4.25466 8.49626L4.54572 8.8642L9.15609 14.6922L9.4867 15.1101L9.88275 14.7536L21.7388 4.08084L22.0887 3.76585L21.7953 3.39764L20.6233 1.92685Z" fill="white" stroke="#8F9090"/>
</svg>
