<svg width="1150" height="1150" viewBox="0 0 1150 1150" fill="none" xmlns="http://www.w3.org/2000/svg">
<circle cx="575" cy="575" r="575" fill="#FF9029"/>
<path d="M766.667 445.564C766.667 435.623 758.608 427.564 748.667 427.564H721.661C705.625 427.564 697.594 408.176 708.933 396.836L783.426 322.343C790.455 315.314 801.852 315.314 808.882 322.343L883.375 396.836C894.714 408.176 886.683 427.564 870.647 427.564H843.641C833.7 427.564 825.641 435.623 825.641 445.564V822.385C825.641 832.326 817.582 840.385 807.641 840.385H784.667C774.726 840.385 766.667 832.326 766.667 822.385V445.564ZM471.795 368.59C357.974 368.59 265.385 460.885 265.385 575C265.385 689.115 357.68 781.41 471.795 781.41C585.615 781.41 678.205 689.115 678.205 575C678.205 460.885 585.91 368.59 471.795 368.59ZM471.795 431.987C550.526 431.987 614.808 495.974 614.808 575C614.808 654.026 550.821 718.013 471.795 718.013C392.769 718.013 328.782 654.026 328.782 575C328.782 495.974 392.769 431.987 471.795 431.987ZM442.308 486.539V584.949C442.308 591.382 445.741 597.327 451.314 600.541L520.781 640.61C529.392 645.577 540.399 642.623 545.366 634.013L549.499 626.85C554.464 618.243 551.516 607.241 542.913 602.27L495.532 574.89C489.967 571.673 486.539 565.733 486.539 559.305V486.539" fill="white"/>
</svg>
