<svg width="1150" height="1150" viewBox="0 0 1150 1150" fill="none" xmlns="http://www.w3.org/2000/svg">
<path d="M575 1150C892.564 1150 1150 892.564 1150 575C1150 257.436 892.564 0 575 0C257.436 0 0 257.436 0 575C0 892.564 257.436 1150 575 1150Z" fill="#3DC0F0"/>
<path d="M680.451 883H362.283V819.322H680.451V883ZM903.168 309.678L752.516 499.278L745.516 507.875L566.388 736.796C560.476 742.712 553.457 747.405 545.732 750.607C538.007 753.809 529.728 755.457 521.367 755.457C513.006 755.457 504.727 753.809 497.002 750.607C489.277 747.405 482.259 742.712 476.346 736.796C470.434 730.88 465.744 723.856 462.545 716.126C459.345 708.396 457.698 700.111 457.698 691.744C457.698 683.377 459.345 675.092 462.545 667.362C465.744 659.632 470.434 652.608 476.346 646.692L903.168 309.678ZM287.355 412.645C241.397 486.305 224.867 574.592 241.062 659.905H266.833V628.066C266.486 565.375 285.243 504.067 320.603 452.316L287.355 412.645ZM585.001 246C536.343 245.989 488.221 256.171 443.732 275.889C399.243 295.608 359.371 324.427 326.68 360.493L363.079 403.921C406.271 364.177 462.692 341.934 521.367 341.517C580.358 341.928 637.065 364.39 680.355 404.494L793.305 315.281C733.159 270.301 660.087 245.998 585.001 246V246ZM802.309 538.917L794.896 548.055L771.733 577.665C774.44 594.33 775.834 611.183 775.901 628.066V659.905H928.94C944.038 580.225 930.718 497.77 891.3 426.908L802.309 538.917Z" fill="white"/>
</svg>
