<svg width="26" height="26" viewBox="0 0 26 26" fill="none" xmlns="http://www.w3.org/2000/svg">
<circle cx="13" cy="13" r="13" fill="#00B2FF"/>
<path fill-rule="evenodd" clip-rule="evenodd" d="M10.9831 13.3039V12.2621H9.922V13.3039H10.9831ZM17.3497 11.7412V9.65758C17.3497 9.08459 16.8722 8.61578 16.2886 8.61578H15.758V7.57397H14.6969V8.61578H10.4525V7.57397H9.39145V8.61578H8.8609C8.27199 8.61578 7.80511 9.08459 7.80511 9.65758L7.7998 16.9502C7.7998 17.5232 8.27199 17.992 8.8609 17.992H14.2106L13.5474 16.9502H8.8609V11.7412H16.2886H17.3497ZM16.2886 10.6994H8.8609V9.65758H16.2886V10.6994ZM13.1053 13.3039H12.0442V12.2621H13.1053V13.3039Z" fill="white"/>
<path d="M16.9165 12.3489C15.2392 12.3489 13.8779 13.7102 13.8779 15.3875C13.8779 17.0648 15.2392 18.4261 16.9165 18.4261C18.5938 18.4261 19.9551 17.0648 19.9551 15.3875C19.9551 13.7102 18.5938 12.3489 16.9165 12.3489ZM16.9165 17.8183C15.5765 17.8183 14.4856 16.7275 14.4856 15.3875C14.4856 14.0475 15.5765 12.9566 16.9165 12.9566C18.2565 12.9566 19.3474 14.0475 19.3474 15.3875C19.3474 16.7275 18.2565 17.8183 16.9165 17.8183ZM18.1836 16.2261L17.8494 15.8919C18.0651 15.4877 18.0104 14.9773 17.6701 14.6369C17.4604 14.4273 17.19 14.324 16.9165 14.324C16.9074 14.324 16.8983 14.327 16.8892 14.327L17.2204 14.6582L16.8983 14.9803L16.0384 14.1204L16.8983 13.2605L17.2204 13.5825L16.9287 13.8743C17.3146 13.8773 17.6974 14.0201 17.9922 14.3118C18.5087 14.8314 18.5726 15.6366 18.1836 16.2261ZM17.7947 16.6546L16.9348 17.5145L16.6127 17.1924L16.9013 16.9037C16.5185 16.9007 16.1356 16.7518 15.8439 16.4601C15.3243 15.9405 15.2605 15.1383 15.6494 14.5488L15.9837 14.8831C15.7679 15.2872 15.8226 15.7977 16.163 16.138C16.3757 16.3507 16.6582 16.454 16.9408 16.4449L16.6127 16.1167L16.9348 15.7946L17.7947 16.6546Z" fill="white"/>
</svg>
