<svg width="1150" height="1150" viewBox="0 0 1150 1150" fill="none" xmlns="http://www.w3.org/2000/svg">
<circle cx="575" cy="575" r="575" fill="#0EA46F" fill-opacity="0.9"/>
<path d="M447.93 536.785L476.455 508.654L447.93 480.523L476.455 452.392L533.503 508.654L476.455 564.915L447.93 536.785ZM372.046 495.385C372.853 495.385 373.391 495.385 374.198 495.385C406.221 417.627 483.451 362.692 573.867 362.692C632.799 362.692 685.811 386.046 724.83 423.731C728.866 407.808 736.939 389.231 746.626 371.715C699.804 332.969 639.526 309.615 573.867 309.615C442.279 309.615 333.027 402.5 309.615 525.639C324.685 507.062 347.558 495.385 372.046 495.385ZM816.053 535.192C804.751 535.192 793.987 532.804 784.03 529.354C787.26 543.95 789.143 559.342 789.143 575C789.143 692.3 692.807 787.308 573.867 787.308C483.451 787.308 406.221 732.373 374.198 654.615C373.391 654.615 372.853 654.615 372.046 654.615C358.591 654.615 344.06 650.9 331.681 644C323.07 639.223 315.805 632.854 309.615 625.423C333.565 747.5 442.279 840.385 573.867 840.385C721.869 840.385 842.962 720.962 842.962 575C842.962 560.404 841.348 546.073 839.195 532.008C831.66 533.865 824.126 535.192 816.053 535.192ZM816.053 336.154C816.053 336.154 762.234 413.115 762.234 442.308C762.234 471.5 786.452 495.385 816.053 495.385C845.653 495.385 869.872 471.5 869.872 442.308C869.872 413.115 816.053 336.154 816.053 336.154ZM671.28 452.392L614.231 508.654L671.28 564.915L699.804 536.785L671.28 508.654L699.804 480.523L671.28 452.392ZM481.298 707.692C499.866 676.112 534.31 654.615 573.867 654.615C613.424 654.615 647.868 676.112 666.436 707.692H711.644C690.116 653.289 636.566 614.808 573.867 614.808C550.456 614.808 528.121 620.115 508.477 629.935L412.41 575C412.41 561.731 405.144 548.462 392.228 540.765C372.853 529.885 348.365 536.254 337.063 555.362C326.03 575 332.489 598.619 351.863 609.765C364.78 617.196 380.118 616.4 391.959 609.765L471.88 655.412C456.542 669.477 444.163 687.523 436.09 707.692H481.298Z" fill="white"/>
</svg>
