<svg width="26" height="26" viewBox="0 0 26 26" fill="none" xmlns="http://www.w3.org/2000/svg">
<circle cx="13" cy="13" r="13" fill="#FF649C"/>
<path fill-rule="evenodd" clip-rule="evenodd" d="M8.11621 13.9158C8.11621 11.1515 10.3591 8.91577 13.1162 8.91577V10.4515C11.2019 10.4515 9.65193 12.0015 9.65193 13.9158C9.65193 15.8301 11.2019 17.3801 13.1162 17.3801C14.6879 17.3801 16.0141 16.3352 16.4384 14.9017C16.4974 14.7023 16.539 14.4954 16.5613 14.2828L18.0706 14.5944C18.0173 14.9869 17.9185 15.3649 17.7796 15.7229C17.0544 17.5923 15.2376 18.9158 13.1162 18.9158C10.3519 18.9158 8.11621 16.6801 8.11621 13.9158ZM13.6768 10.4968C13.8898 10.5316 14.0964 10.5859 14.2946 10.6578L14.9125 9.24733C14.6162 9.13345 14.3062 9.04694 13.9857 8.99089L13.6768 10.4968ZM14.9125 10.9544L15.8393 9.72007C16.1049 9.89266 16.353 10.0898 16.5805 10.3083L15.4822 11.3871C15.3081 11.2242 15.1172 11.079 14.9125 10.9544ZM15.8393 11.7759C15.9712 11.9435 16.0881 12.1235 16.1878 12.3139L17.6376 11.7759C17.5001 11.4856 17.3355 11.2106 17.1471 10.9544L15.8393 11.7759ZM16.4384 12.9318L17.9479 12.6228C18.0275 12.9216 18.0801 13.2315 18.1031 13.5496H16.5613C16.539 13.3373 16.4974 13.1308 16.4384 12.9318Z" fill="white"/>
<rect x="11.1162" y="7.41577" width="4.00001" height="1" fill="white"/>
<rect x="9.33496" y="9.41577" width="0.955538" height="1" transform="rotate(46 9.33496 9.41577)" fill="white"/>
<path d="M13.027 14.2881L11.6949 15.5575L11.1162 15.006L12.4483 13.7366L11.1162 12.4672L11.6949 11.9158L13.027 13.1852L14.3591 11.9158L14.9378 12.4672L13.6057 13.7366L14.9378 15.006L14.3591 15.5575L13.027 14.2881Z" fill="white"/>
</svg>
