<svg width="1150" height="1150" viewBox="0 0 1150 1150" fill="none" xmlns="http://www.w3.org/2000/svg">
<circle cx="575" cy="575" r="575" fill="#36C6C6"/>
<path d="M792.014 639.335H782.578V622.179H763.706V639.335H669.347V622.179H650.476V639.335H641.04C630.66 639.335 622.168 647.055 622.168 656.491V793.741C622.168 803.177 630.66 810.897 641.04 810.897H792.014C802.394 810.897 810.886 803.177 810.886 793.741V656.491C810.886 647.055 802.394 639.335 792.014 639.335ZM792.014 793.741H641.04V699.382H792.014V793.741ZM792.014 682.226H641.04V656.491H792.014V682.226Z" fill="white"/>
<path d="M781.414 339.103V516.026H722.44V398.077H663.465V575H604.491V368.59H427.568V781.41H575.004V840.385H309.619V781.41H368.594V309.615H663.465V339.103H781.414ZM575.004 604.487H516.029V545.513H575.004V604.487Z" fill="white"/>
</svg>
