<svg width="375" height="321" viewBox="0 0 375 321" fill="none" xmlns="http://www.w3.org/2000/svg">
<path fill-rule="evenodd" clip-rule="evenodd" d="M-93 310.843L-71.1667 283.237C-49.3333 255.632 -5.66667 231.934 38 238.836C81.6667 245.737 125.333 283.237 169 310.843C240.82 342.876 256.333 290.139 300 276.336C343.667 262.533 387.333 283.237 409.167 276.336L431 269.435V-25H409.167C387.333 -25 343.667 -25 300 -25C256.333 -25 212.667 -25 169 -25C125.333 -25 81.6667 -25 38 -25C-5.66667 -25 -49.3333 -25 -71.1667 -25L-93 20.9845V310.843Z" fill="white"/>
<path d="M146.151 102.33C145.351 102.33 144.511 102.27 143.631 102.15C142.771 102.05 141.951 101.89 141.171 101.67C140.391 101.45 139.691 101.19 139.071 100.89C138.531 100.63 138.151 100.29 137.931 99.87C137.711 99.43 137.631 98.97 137.691 98.49C137.751 98.01 137.921 97.59 138.201 97.23C138.481 96.85 138.851 96.6 139.311 96.48C139.771 96.34 140.291 96.4 140.871 96.66C141.631 97.02 142.491 97.3 143.451 97.5C144.411 97.7 145.311 97.8 146.151 97.8C147.471 97.8 148.391 97.63 148.911 97.29C149.451 96.93 149.721 96.49 149.721 95.97C149.721 95.51 149.531 95.14 149.151 94.86C148.791 94.58 148.141 94.34 147.201 94.14L143.691 93.39C141.771 92.99 140.341 92.29 139.401 91.29C138.461 90.29 137.991 89 137.991 87.42C137.991 86.38 138.201 85.44 138.621 84.6C139.061 83.74 139.671 83.01 140.451 82.41C141.251 81.81 142.191 81.35 143.271 81.03C144.371 80.69 145.591 80.52 146.931 80.52C147.971 80.52 149.021 80.64 150.081 80.88C151.161 81.1 152.091 81.44 152.871 81.9C153.331 82.14 153.661 82.47 153.861 82.89C154.061 83.31 154.141 83.75 154.101 84.21C154.061 84.65 153.901 85.04 153.621 85.38C153.361 85.72 153.001 85.95 152.541 86.07C152.101 86.17 151.571 86.09 150.951 85.83C150.371 85.57 149.711 85.38 148.971 85.26C148.251 85.12 147.551 85.05 146.871 85.05C146.131 85.05 145.501 85.14 144.981 85.32C144.461 85.48 144.061 85.72 143.781 86.04C143.521 86.36 143.391 86.73 143.391 87.15C143.391 87.57 143.561 87.93 143.901 88.23C144.261 88.51 144.911 88.75 145.851 88.95L149.331 89.7C151.271 90.12 152.721 90.81 153.681 91.77C154.641 92.73 155.121 93.98 155.121 95.52C155.121 96.56 154.911 97.5 154.491 98.34C154.071 99.18 153.471 99.9 152.691 100.5C151.911 101.08 150.971 101.53 149.871 101.85C148.771 102.17 147.531 102.33 146.151 102.33ZM164.978 102.33C163.478 102.33 162.238 102.1 161.258 101.64C160.298 101.18 159.578 100.49 159.098 99.57C158.618 98.63 158.378 97.46 158.378 96.06V91.17H157.358C156.718 91.17 156.218 91 155.858 90.66C155.518 90.32 155.348 89.83 155.348 89.19C155.348 88.55 155.518 88.07 155.858 87.75C156.218 87.41 156.718 87.24 157.358 87.24H158.378V85.38C158.378 84.5 158.608 83.83 159.068 83.37C159.528 82.91 160.188 82.68 161.048 82.68C161.908 82.68 162.568 82.91 163.028 83.37C163.488 83.83 163.718 84.5 163.718 85.38V87.24H166.178C166.838 87.24 167.338 87.41 167.678 87.75C168.038 88.07 168.218 88.55 168.218 89.19C168.218 89.83 168.038 90.32 167.678 90.66C167.338 91 166.838 91.17 166.178 91.17H163.718V95.88C163.718 96.62 163.888 97.17 164.228 97.53C164.588 97.87 165.148 98.04 165.908 98.04C166.188 98.04 166.458 98.01 166.718 97.95C166.978 97.89 167.218 97.86 167.438 97.86C167.758 97.84 168.018 97.94 168.218 98.16C168.418 98.36 168.518 98.83 168.518 99.57C168.518 100.17 168.428 100.68 168.248 101.1C168.068 101.5 167.748 101.79 167.288 101.97C167.008 102.07 166.628 102.15 166.148 102.21C165.668 102.29 165.278 102.33 164.978 102.33ZM175.141 102.33C174.001 102.33 172.991 102.12 172.111 101.7C171.251 101.28 170.571 100.71 170.071 99.99C169.591 99.25 169.351 98.41 169.351 97.47C169.351 96.39 169.631 95.54 170.191 94.92C170.751 94.3 171.651 93.86 172.891 93.6C174.131 93.32 175.781 93.18 177.841 93.18H179.491V95.7H177.841C177.061 95.7 176.411 95.76 175.891 95.88C175.391 95.98 175.021 96.15 174.781 96.39C174.541 96.61 174.421 96.9 174.421 97.26C174.421 97.72 174.581 98.1 174.901 98.4C175.241 98.7 175.721 98.85 176.341 98.85C176.841 98.85 177.281 98.74 177.661 98.52C178.061 98.3 178.381 98 178.621 97.62C178.861 97.22 178.981 96.76 178.981 96.24V92.76C178.981 92.04 178.791 91.53 178.411 91.23C178.051 90.93 177.421 90.78 176.521 90.78C176.041 90.78 175.501 90.84 174.901 90.96C174.301 91.06 173.631 91.25 172.891 91.53C172.351 91.73 171.891 91.76 171.511 91.62C171.131 91.48 170.831 91.24 170.611 90.9C170.411 90.56 170.311 90.19 170.311 89.79C170.331 89.39 170.461 89.01 170.701 88.65C170.961 88.29 171.351 88.01 171.871 87.81C172.831 87.45 173.711 87.21 174.511 87.09C175.331 86.97 176.081 86.91 176.761 86.91C178.401 86.91 179.751 87.15 180.811 87.63C181.891 88.09 182.691 88.81 183.211 89.79C183.751 90.75 184.021 91.99 184.021 93.51V99.57C184.021 100.45 183.811 101.12 183.391 101.58C182.971 102.04 182.361 102.27 181.561 102.27C180.741 102.27 180.111 102.04 179.671 101.58C179.251 101.12 179.041 100.45 179.041 99.57V98.79L179.221 99.21C179.121 99.85 178.891 100.4 178.531 100.86C178.171 101.32 177.701 101.68 177.121 101.94C176.541 102.2 175.881 102.33 175.141 102.33ZM189.792 102.27C188.912 102.27 188.232 102.04 187.752 101.58C187.292 101.12 187.062 100.45 187.062 99.57V89.64C187.062 88.78 187.282 88.12 187.722 87.66C188.182 87.2 188.832 86.97 189.672 86.97C190.512 86.97 191.152 87.2 191.592 87.66C192.032 88.12 192.252 88.78 192.252 89.64V90.87H191.952C192.152 89.67 192.662 88.72 193.482 88.02C194.322 87.32 195.362 86.95 196.602 86.91C197.182 86.89 197.612 87.04 197.892 87.36C198.192 87.66 198.352 88.23 198.372 89.07C198.372 89.79 198.222 90.36 197.922 90.78C197.622 91.2 197.052 91.45 196.212 91.53L195.522 91.59C194.462 91.69 193.692 91.99 193.212 92.49C192.732 92.97 192.492 93.69 192.492 94.65V99.57C192.492 100.45 192.262 101.12 191.802 101.58C191.342 102.04 190.672 102.27 189.792 102.27ZM148.971 129.33C146.631 129.33 144.621 128.88 142.941 127.98C141.261 127.08 139.971 125.81 139.071 124.17C138.191 122.53 137.751 120.61 137.751 118.41C137.751 116.77 138.001 115.28 138.501 113.94C139.021 112.6 139.761 111.45 140.721 110.49C141.701 109.53 142.881 108.8 144.261 108.3C145.661 107.78 147.231 107.52 148.971 107.52C149.891 107.52 150.841 107.63 151.821 107.85C152.821 108.05 153.701 108.36 154.461 108.78C155.021 109.08 155.411 109.46 155.631 109.92C155.851 110.38 155.921 110.85 155.841 111.33C155.781 111.81 155.611 112.24 155.331 112.62C155.051 113 154.691 113.26 154.251 113.4C153.811 113.52 153.331 113.45 152.811 113.19C152.211 112.91 151.611 112.7 151.011 112.56C150.431 112.4 149.821 112.32 149.181 112.32C147.941 112.32 146.901 112.56 146.061 113.04C145.241 113.5 144.621 114.18 144.201 115.08C143.781 115.98 143.571 117.09 143.571 118.41C143.571 119.73 143.781 120.85 144.201 121.77C144.621 122.67 145.241 123.36 146.061 123.84C146.901 124.3 147.941 124.53 149.181 124.53C149.701 124.53 150.261 124.47 150.861 124.35C151.461 124.21 152.051 124 152.631 123.72C153.231 123.46 153.761 123.39 154.221 123.51C154.701 123.63 155.081 123.87 155.361 124.23C155.661 124.59 155.851 125.01 155.931 125.49C156.011 125.95 155.941 126.41 155.721 126.87C155.521 127.33 155.161 127.7 154.641 127.98C153.941 128.4 153.071 128.73 152.031 128.97C151.011 129.21 149.991 129.33 148.971 129.33ZM165.001 129.33C163.361 129.33 161.931 129.02 160.711 128.4C159.491 127.78 158.541 126.89 157.861 125.73C157.181 124.57 156.841 123.2 156.841 121.62C156.841 120.42 157.031 119.35 157.411 118.41C157.791 117.45 158.341 116.64 159.061 115.98C159.781 115.3 160.641 114.79 161.641 114.45C162.641 114.09 163.761 113.91 165.001 113.91C166.641 113.91 168.071 114.22 169.291 114.84C170.511 115.46 171.451 116.35 172.111 117.51C172.791 118.65 173.131 120.02 173.131 121.62C173.131 122.8 172.941 123.87 172.561 124.83C172.181 125.79 171.631 126.61 170.911 127.29C170.211 127.95 169.351 128.46 168.331 128.82C167.331 129.16 166.221 129.33 165.001 129.33ZM165.001 125.4C165.541 125.4 166.021 125.27 166.441 125.01C166.861 124.73 167.181 124.32 167.401 123.78C167.641 123.22 167.761 122.5 167.761 121.62C167.761 120.28 167.501 119.32 166.981 118.74C166.461 118.14 165.801 117.84 165.001 117.84C164.461 117.84 163.981 117.97 163.561 118.23C163.141 118.49 162.811 118.9 162.571 119.46C162.331 120 162.211 120.72 162.211 121.62C162.211 122.94 162.471 123.9 162.991 124.5C163.511 125.1 164.181 125.4 165.001 125.4ZM178.218 129.27C177.378 129.27 176.728 129.04 176.268 128.58C175.808 128.12 175.578 127.45 175.578 126.57V116.64C175.578 115.78 175.798 115.12 176.238 114.66C176.698 114.2 177.348 113.97 178.188 113.97C179.028 113.97 179.668 114.2 180.108 114.66C180.548 115.12 180.768 115.78 180.768 116.64V118.05L180.438 116.82C180.918 115.88 181.598 115.16 182.478 114.66C183.378 114.16 184.398 113.91 185.538 113.91C186.718 113.91 187.688 114.14 188.448 114.6C189.208 115.04 189.778 115.74 190.158 116.7C190.538 117.64 190.728 118.83 190.728 120.27V126.57C190.728 127.45 190.498 128.12 190.038 128.58C189.578 129.04 188.918 129.27 188.058 129.27C187.198 129.27 186.538 129.04 186.078 128.58C185.618 128.12 185.388 127.45 185.388 126.57V120.48C185.388 119.58 185.228 118.94 184.908 118.56C184.608 118.18 184.158 117.99 183.558 117.99C182.758 117.99 182.118 118.25 181.638 118.77C181.158 119.27 180.918 119.95 180.918 120.81V126.57C180.918 128.37 180.018 129.27 178.218 129.27ZM196.411 129.27C195.571 129.27 194.921 129.04 194.461 128.58C194.001 128.12 193.771 127.45 193.771 126.57V116.64C193.771 115.78 193.991 115.12 194.431 114.66C194.891 114.2 195.541 113.97 196.381 113.97C197.221 113.97 197.861 114.2 198.301 114.66C198.741 115.12 198.961 115.78 198.961 116.64V118.05L198.631 116.82C199.111 115.88 199.791 115.16 200.671 114.66C201.571 114.16 202.591 113.91 203.731 113.91C204.911 113.91 205.881 114.14 206.641 114.6C207.401 115.04 207.971 115.74 208.351 116.7C208.731 117.64 208.921 118.83 208.921 120.27V126.57C208.921 127.45 208.691 128.12 208.231 128.58C207.771 129.04 207.111 129.27 206.251 129.27C205.391 129.27 204.731 129.04 204.271 128.58C203.811 128.12 203.581 127.45 203.581 126.57V120.48C203.581 119.58 203.421 118.94 203.101 118.56C202.801 118.18 202.351 117.99 201.751 117.99C200.951 117.99 200.311 118.25 199.831 118.77C199.351 119.27 199.111 119.95 199.111 120.81V126.57C199.111 128.37 198.211 129.27 196.411 129.27ZM220.004 129.33C218.204 129.33 216.644 129.02 215.324 128.4C214.024 127.76 213.024 126.86 212.324 125.7C211.624 124.54 211.274 123.17 211.274 121.59C211.274 120.07 211.604 118.74 212.264 117.6C212.944 116.44 213.864 115.54 215.024 114.9C216.204 114.24 217.544 113.91 219.044 113.91C220.144 113.91 221.144 114.09 222.044 114.45C222.944 114.79 223.714 115.3 224.354 115.98C224.994 116.64 225.474 117.44 225.794 118.38C226.134 119.32 226.304 120.37 226.304 121.53C226.304 121.93 226.194 122.23 225.974 122.43C225.754 122.61 225.404 122.7 224.924 122.7H215.744V120.18H222.404L221.924 120.57C221.924 119.83 221.824 119.23 221.624 118.77C221.424 118.31 221.124 117.96 220.724 117.72C220.344 117.48 219.864 117.36 219.284 117.36C218.664 117.36 218.124 117.51 217.664 117.81C217.224 118.09 216.884 118.51 216.644 119.07C216.404 119.63 216.284 120.33 216.284 121.17V121.44C216.284 122.86 216.594 123.88 217.214 124.5C217.854 125.1 218.834 125.4 220.154 125.4C220.594 125.4 221.094 125.35 221.654 125.25C222.234 125.13 222.784 124.97 223.304 124.77C223.824 124.57 224.274 124.54 224.654 124.68C225.034 124.8 225.324 125.02 225.524 125.34C225.744 125.64 225.864 125.99 225.884 126.39C225.904 126.77 225.814 127.15 225.614 127.53C225.414 127.89 225.084 128.17 224.624 128.37C223.924 128.69 223.174 128.93 222.374 129.09C221.594 129.25 220.804 129.33 220.004 129.33ZM236.135 129.33C234.475 129.33 233.025 129.02 231.785 128.4C230.565 127.78 229.615 126.89 228.935 125.73C228.255 124.55 227.915 123.17 227.915 121.59C227.915 120.39 228.105 119.32 228.485 118.38C228.865 117.42 229.415 116.61 230.135 115.95C230.875 115.29 231.745 114.79 232.745 114.45C233.765 114.09 234.895 113.91 236.135 113.91C236.715 113.91 237.325 113.97 237.965 114.09C238.605 114.19 239.265 114.39 239.945 114.69C240.425 114.87 240.755 115.15 240.935 115.53C241.135 115.89 241.215 116.28 241.175 116.7C241.155 117.12 241.035 117.5 240.815 117.84C240.615 118.18 240.325 118.41 239.945 118.53C239.585 118.65 239.175 118.6 238.715 118.38C238.395 118.22 238.055 118.11 237.695 118.05C237.355 117.97 237.025 117.93 236.705 117.93C236.165 117.93 235.685 118.01 235.265 118.17C234.865 118.33 234.525 118.57 234.245 118.89C233.965 119.19 233.745 119.57 233.585 120.03C233.445 120.49 233.375 121.01 233.375 121.59C233.375 122.75 233.665 123.66 234.245 124.32C234.825 124.98 235.645 125.31 236.705 125.31C237.025 125.31 237.355 125.28 237.695 125.22C238.035 125.14 238.375 125.02 238.715 124.86C239.175 124.64 239.585 124.6 239.945 124.74C240.305 124.86 240.595 125.09 240.815 125.43C241.035 125.77 241.155 126.15 241.175 126.57C241.195 126.97 241.105 127.36 240.905 127.74C240.705 128.1 240.365 128.37 239.885 128.55C239.225 128.85 238.575 129.05 237.935 129.15C237.315 129.27 236.715 129.33 236.135 129.33ZM250.993 129.33C249.493 129.33 248.253 129.1 247.273 128.64C246.313 128.18 245.593 127.49 245.113 126.57C244.633 125.63 244.393 124.46 244.393 123.06V118.17H243.373C242.733 118.17 242.233 118 241.873 117.66C241.533 117.32 241.363 116.83 241.363 116.19C241.363 115.55 241.533 115.07 241.873 114.75C242.233 114.41 242.733 114.24 243.373 114.24H244.393V112.38C244.393 111.5 244.623 110.83 245.083 110.37C245.543 109.91 246.203 109.68 247.063 109.68C247.923 109.68 248.583 109.91 249.043 110.37C249.503 110.83 249.733 111.5 249.733 112.38V114.24H252.193C252.853 114.24 253.353 114.41 253.693 114.75C254.053 115.07 254.233 115.55 254.233 116.19C254.233 116.83 254.053 117.32 253.693 117.66C253.353 118 252.853 118.17 252.193 118.17H249.733V122.88C249.733 123.62 249.903 124.17 250.243 124.53C250.603 124.87 251.163 125.04 251.923 125.04C252.203 125.04 252.473 125.01 252.733 124.95C252.993 124.89 253.233 124.86 253.453 124.86C253.773 124.84 254.033 124.94 254.233 125.16C254.433 125.36 254.533 125.83 254.533 126.57C254.533 127.17 254.443 127.68 254.263 128.1C254.083 128.5 253.763 128.79 253.303 128.97C253.023 129.07 252.643 129.15 252.163 129.21C251.683 129.29 251.293 129.33 250.993 129.33Z" fill="#3DC0F0"/>
<path d="M142.265 151.207C141.852 151.207 141.532 151.093 141.305 150.867C141.078 150.627 140.965 150.3 140.965 149.887V138.347C140.965 137.92 141.072 137.6 141.285 137.387C141.512 137.16 141.832 137.047 142.245 137.047C142.658 137.047 142.972 137.16 143.185 137.387C143.412 137.6 143.525 137.92 143.525 138.347V149.027H149.325C149.685 149.027 149.958 149.12 150.145 149.307C150.345 149.493 150.445 149.76 150.445 150.107C150.445 150.453 150.345 150.727 150.145 150.927C149.958 151.113 149.685 151.207 149.325 151.207H142.265ZM153.195 151.347C152.795 151.347 152.489 151.227 152.275 150.987C152.062 150.747 151.955 150.413 151.955 149.987V142.647C151.955 142.207 152.062 141.873 152.275 141.647C152.489 141.407 152.795 141.287 153.195 141.287C153.595 141.287 153.902 141.407 154.115 141.647C154.342 141.873 154.455 142.207 154.455 142.647V149.987C154.455 150.413 154.349 150.747 154.135 150.987C153.922 151.227 153.609 151.347 153.195 151.347ZM153.195 139.427C152.729 139.427 152.362 139.313 152.095 139.087C151.842 138.847 151.715 138.52 151.715 138.107C151.715 137.68 151.842 137.353 152.095 137.127C152.362 136.9 152.729 136.787 153.195 136.787C153.675 136.787 154.042 136.9 154.295 137.127C154.549 137.353 154.675 137.68 154.675 138.107C154.675 138.52 154.549 138.847 154.295 139.087C154.042 139.313 153.675 139.427 153.195 139.427ZM161.533 151.407C160.666 151.407 159.94 151.26 159.353 150.967C158.78 150.673 158.353 150.247 158.073 149.687C157.793 149.113 157.653 148.407 157.653 147.567V143.307H156.613C156.293 143.307 156.046 143.227 155.873 143.067C155.7 142.893 155.613 142.66 155.613 142.367C155.613 142.06 155.7 141.827 155.873 141.667C156.046 141.507 156.293 141.427 156.613 141.427H157.653V139.607C157.653 139.193 157.76 138.88 157.973 138.667C158.2 138.453 158.513 138.347 158.913 138.347C159.313 138.347 159.62 138.453 159.833 138.667C160.046 138.88 160.153 139.193 160.153 139.607V141.427H162.273C162.593 141.427 162.84 141.507 163.013 141.667C163.186 141.827 163.273 142.06 163.273 142.367C163.273 142.66 163.186 142.893 163.013 143.067C162.84 143.227 162.593 143.307 162.273 143.307H160.153V147.427C160.153 148.067 160.293 148.547 160.573 148.867C160.853 149.187 161.306 149.347 161.933 149.347C162.16 149.347 162.36 149.327 162.533 149.287C162.706 149.247 162.86 149.22 162.993 149.207C163.153 149.193 163.286 149.247 163.393 149.367C163.5 149.473 163.553 149.7 163.553 150.047C163.553 150.313 163.506 150.553 163.413 150.767C163.333 150.967 163.18 151.107 162.953 151.187C162.78 151.24 162.553 151.287 162.273 151.327C161.993 151.38 161.746 151.407 161.533 151.407ZM169.451 151.407C168.345 151.407 167.391 151.2 166.591 150.787C165.791 150.373 165.171 149.787 164.731 149.027C164.305 148.267 164.091 147.367 164.091 146.327C164.091 145.313 164.298 144.427 164.711 143.667C165.138 142.907 165.718 142.313 166.451 141.887C167.198 141.447 168.045 141.227 168.991 141.227C169.685 141.227 170.305 141.34 170.851 141.567C171.411 141.793 171.885 142.12 172.271 142.547C172.671 142.973 172.971 143.493 173.171 144.107C173.385 144.707 173.491 145.387 173.491 146.147C173.491 146.387 173.405 146.573 173.231 146.707C173.071 146.827 172.838 146.887 172.531 146.887H166.111V145.447H171.731L171.411 145.747C171.411 145.133 171.318 144.62 171.131 144.207C170.958 143.793 170.698 143.48 170.351 143.267C170.018 143.04 169.598 142.927 169.091 142.927C168.531 142.927 168.051 143.06 167.651 143.327C167.265 143.58 166.965 143.947 166.751 144.427C166.551 144.893 166.451 145.453 166.451 146.107V146.247C166.451 147.34 166.705 148.16 167.211 148.707C167.731 149.24 168.491 149.507 169.491 149.507C169.838 149.507 170.225 149.467 170.651 149.387C171.091 149.293 171.505 149.14 171.891 148.927C172.171 148.767 172.418 148.7 172.631 148.727C172.845 148.74 173.011 148.813 173.131 148.947C173.265 149.08 173.345 149.247 173.371 149.447C173.398 149.633 173.358 149.827 173.251 150.027C173.158 150.227 172.991 150.4 172.751 150.547C172.285 150.84 171.745 151.06 171.131 151.207C170.531 151.34 169.971 151.407 169.451 151.407Z" fill="#3DC0F0"/>
<path d="M121.745 100.656C121.185 104.108 118.38 106.366 115.481 105.699C112.582 105.032 110.686 101.692 111.245 98.241C111.806 94.7885 114.61 92.5308 117.509 93.1972C120.41 93.8656 122.306 97.2048 121.745 100.656Z" fill="#3DC0F0"/>
<path d="M113.177 119.9C103.705 117.721 97.4894 106.774 99.3197 95.4972C101.15 84.2207 110.346 76.8165 119.816 78.9972C121.875 79.4707 123.221 81.842 122.825 84.2925C122.426 86.7451 120.435 88.3459 118.376 87.8734C113.016 86.6406 107.811 90.8302 106.774 97.2127C105.737 103.596 109.256 109.791 114.618 111.026C116.676 111.499 118.023 113.87 117.626 116.32C117.225 118.771 115.235 120.376 113.177 119.9Z" fill="#3DC0F0"/>
<path d="M116.54 132.722C115.982 136.175 113.175 138.432 110.277 137.765C107.377 137.098 105.48 133.759 106.043 130.307C106.601 126.854 109.407 124.596 112.306 125.264C115.205 125.932 117.101 129.269 116.54 132.722Z" fill="#3DC0F0"/>
<path d="M107.974 151.966C105.915 151.494 104.569 149.121 104.966 146.672C105.364 144.219 107.355 142.618 109.414 143.09C114.775 144.324 119.979 140.135 121.015 133.753C122.052 127.369 118.533 121.172 113.172 119.94C111.114 119.465 109.767 117.094 110.164 114.644C110.563 112.193 112.554 110.59 114.613 111.063C124.085 113.242 130.301 124.191 128.47 135.468C126.639 146.745 117.446 154.146 107.974 151.966Z" fill="#3DC0F0"/>
<path d="M103.376 178C103.112 178 102.908 177.934 102.764 177.802C102.632 177.658 102.566 177.454 102.566 177.19V166.12C102.566 165.856 102.632 165.658 102.764 165.526C102.908 165.382 103.112 165.31 103.376 165.31H106.85C108.902 165.31 110.486 165.85 111.602 166.93C112.718 168.01 113.276 169.582 113.276 171.646C113.276 172.678 113.132 173.59 112.844 174.382C112.568 175.162 112.154 175.822 111.602 176.362C111.05 176.902 110.378 177.31 109.586 177.586C108.794 177.862 107.882 178 106.85 178H103.376ZM104.042 176.74H106.742C107.582 176.74 108.308 176.632 108.92 176.416C109.544 176.2 110.06 175.882 110.468 175.462C110.888 175.042 111.2 174.514 111.404 173.878C111.608 173.23 111.71 172.486 111.71 171.646C111.71 169.954 111.296 168.688 110.468 167.848C109.64 166.996 108.398 166.57 106.742 166.57H104.042V176.74ZM116.447 178.09C116.207 178.09 116.027 178.024 115.907 177.892C115.787 177.748 115.727 177.55 115.727 177.298V169.936C115.727 169.684 115.787 169.492 115.907 169.36C116.027 169.228 116.207 169.162 116.447 169.162C116.675 169.162 116.855 169.228 116.987 169.36C117.119 169.492 117.185 169.684 117.185 169.936V177.298C117.185 177.55 117.119 177.748 116.987 177.892C116.867 178.024 116.687 178.09 116.447 178.09ZM116.447 167.146C116.147 167.146 115.913 167.068 115.745 166.912C115.577 166.744 115.493 166.522 115.493 166.246C115.493 165.958 115.577 165.742 115.745 165.598C115.913 165.442 116.147 165.364 116.447 165.364C116.759 165.364 116.993 165.442 117.149 165.598C117.317 165.742 117.401 165.958 117.401 166.246C117.401 166.522 117.317 166.744 117.149 166.912C116.993 167.068 116.759 167.146 116.447 167.146ZM123.781 181.402C123.145 181.402 122.521 181.324 121.909 181.168C121.309 181.024 120.763 180.79 120.271 180.466C120.127 180.382 120.031 180.28 119.983 180.16C119.947 180.04 119.941 179.92 119.965 179.8C119.989 179.692 120.043 179.59 120.127 179.494C120.211 179.41 120.307 179.356 120.415 179.332C120.535 179.308 120.655 179.326 120.775 179.386C121.303 179.71 121.807 179.932 122.287 180.052C122.767 180.172 123.241 180.232 123.709 180.232C124.561 180.232 125.203 180.004 125.635 179.548C126.079 179.092 126.301 178.432 126.301 177.568V175.534H126.481C126.301 176.23 125.917 176.782 125.329 177.19C124.753 177.598 124.075 177.802 123.295 177.802C122.491 177.802 121.795 177.622 121.207 177.262C120.619 176.89 120.163 176.374 119.839 175.714C119.527 175.054 119.371 174.292 119.371 173.428C119.371 172.78 119.461 172.192 119.641 171.664C119.821 171.124 120.079 170.668 120.415 170.296C120.763 169.912 121.177 169.618 121.657 169.414C122.149 169.198 122.695 169.09 123.295 169.09C124.087 169.09 124.771 169.294 125.347 169.702C125.923 170.098 126.295 170.638 126.463 171.322L126.283 171.538V169.864C126.283 169.624 126.343 169.444 126.463 169.324C126.595 169.192 126.775 169.126 127.003 169.126C127.243 169.126 127.423 169.192 127.543 169.324C127.663 169.444 127.723 169.624 127.723 169.864V177.37C127.723 178.702 127.387 179.704 126.715 180.376C126.055 181.06 125.077 181.402 123.781 181.402ZM123.565 176.614C124.129 176.614 124.615 176.488 125.023 176.236C125.431 175.972 125.743 175.6 125.959 175.12C126.187 174.64 126.301 174.076 126.301 173.428C126.301 172.456 126.055 171.688 125.563 171.124C125.071 170.548 124.405 170.26 123.565 170.26C123.013 170.26 122.533 170.392 122.125 170.656C121.717 170.908 121.399 171.274 121.171 171.754C120.955 172.222 120.847 172.78 120.847 173.428C120.847 174.4 121.093 175.174 121.585 175.75C122.077 176.326 122.737 176.614 123.565 176.614ZM131.178 178.09C130.938 178.09 130.758 178.024 130.638 177.892C130.518 177.748 130.458 177.55 130.458 177.298V169.936C130.458 169.684 130.518 169.492 130.638 169.36C130.758 169.228 130.938 169.162 131.178 169.162C131.406 169.162 131.586 169.228 131.718 169.36C131.85 169.492 131.916 169.684 131.916 169.936V177.298C131.916 177.55 131.85 177.748 131.718 177.892C131.598 178.024 131.418 178.09 131.178 178.09ZM131.178 167.146C130.878 167.146 130.644 167.068 130.476 166.912C130.308 166.744 130.224 166.522 130.224 166.246C130.224 165.958 130.308 165.742 130.476 165.598C130.644 165.442 130.878 165.364 131.178 165.364C131.49 165.364 131.724 165.442 131.88 165.598C132.048 165.742 132.132 165.958 132.132 166.246C132.132 166.522 132.048 166.744 131.88 166.912C131.724 167.068 131.49 167.146 131.178 167.146ZM138.151 178.162C137.467 178.162 136.891 178.042 136.423 177.802C135.967 177.55 135.625 177.19 135.397 176.722C135.169 176.242 135.055 175.66 135.055 174.976V170.386H133.849C133.645 170.386 133.489 170.338 133.381 170.242C133.273 170.134 133.219 169.99 133.219 169.81C133.219 169.63 133.273 169.492 133.381 169.396C133.489 169.3 133.645 169.252 133.849 169.252H135.055V167.182C135.055 166.942 135.121 166.762 135.253 166.642C135.385 166.51 135.565 166.444 135.793 166.444C136.021 166.444 136.195 166.51 136.315 166.642C136.447 166.762 136.513 166.942 136.513 167.182V169.252H138.781C138.985 169.252 139.141 169.3 139.249 169.396C139.357 169.492 139.411 169.63 139.411 169.81C139.411 169.99 139.357 170.134 139.249 170.242C139.141 170.338 138.985 170.386 138.781 170.386H136.513V174.832C136.513 175.516 136.657 176.038 136.945 176.398C137.233 176.746 137.701 176.92 138.349 176.92C138.577 176.92 138.769 176.896 138.925 176.848C139.093 176.8 139.231 176.776 139.339 176.776C139.447 176.764 139.537 176.8 139.609 176.884C139.681 176.968 139.717 177.112 139.717 177.316C139.717 177.46 139.687 177.592 139.627 177.712C139.579 177.832 139.489 177.916 139.357 177.964C139.213 178.012 139.021 178.054 138.781 178.09C138.553 178.138 138.343 178.162 138.151 178.162ZM143.688 178.162C143.088 178.162 142.548 178.048 142.068 177.82C141.6 177.58 141.228 177.256 140.952 176.848C140.676 176.44 140.538 175.984 140.538 175.48C140.538 174.832 140.7 174.322 141.024 173.95C141.36 173.578 141.906 173.314 142.662 173.158C143.43 173.002 144.474 172.924 145.794 172.924H146.604V173.878H145.812C144.84 173.878 144.072 173.926 143.508 174.022C142.956 174.106 142.566 174.256 142.338 174.472C142.122 174.688 142.014 174.994 142.014 175.39C142.014 175.882 142.182 176.284 142.518 176.596C142.866 176.908 143.334 177.064 143.922 177.064C144.402 177.064 144.822 176.95 145.182 176.722C145.554 176.494 145.842 176.182 146.046 175.786C146.262 175.39 146.37 174.934 146.37 174.418V172.366C146.37 171.622 146.22 171.088 145.92 170.764C145.62 170.428 145.128 170.26 144.444 170.26C144.024 170.26 143.604 170.314 143.184 170.422C142.764 170.53 142.32 170.704 141.852 170.944C141.684 171.028 141.54 171.058 141.42 171.034C141.3 170.998 141.204 170.932 141.132 170.836C141.06 170.74 141.018 170.632 141.006 170.512C140.994 170.38 141.018 170.254 141.078 170.134C141.15 170.014 141.258 169.918 141.402 169.846C141.93 169.582 142.452 169.39 142.968 169.27C143.484 169.15 143.976 169.09 144.444 169.09C145.2 169.09 145.824 169.216 146.316 169.468C146.808 169.708 147.174 170.08 147.414 170.584C147.654 171.076 147.774 171.712 147.774 172.492V177.37C147.774 177.61 147.714 177.796 147.594 177.928C147.486 178.06 147.324 178.126 147.108 178.126C146.88 178.126 146.706 178.06 146.586 177.928C146.466 177.796 146.406 177.61 146.406 177.37V175.966H146.568C146.472 176.422 146.286 176.812 146.01 177.136C145.746 177.46 145.416 177.712 145.02 177.892C144.624 178.072 144.18 178.162 143.688 178.162ZM153.143 178.162C152.279 178.162 151.619 177.898 151.163 177.37C150.707 176.842 150.479 176.086 150.479 175.102V165.922C150.479 165.682 150.539 165.502 150.659 165.382C150.779 165.25 150.959 165.184 151.199 165.184C151.427 165.184 151.607 165.25 151.739 165.382C151.871 165.502 151.937 165.682 151.937 165.922V174.994C151.937 175.642 152.063 176.128 152.315 176.452C152.579 176.764 152.963 176.92 153.467 176.92C153.575 176.92 153.671 176.914 153.755 176.902C153.839 176.89 153.923 176.884 154.007 176.884C154.139 176.872 154.229 176.902 154.277 176.974C154.337 177.046 154.367 177.19 154.367 177.406C154.367 177.622 154.319 177.784 154.223 177.892C154.127 178 153.971 178.072 153.755 178.108C153.659 178.12 153.557 178.132 153.449 178.144C153.341 178.156 153.239 178.162 153.143 178.162ZM161.382 178.126C161.142 178.126 160.956 178.06 160.824 177.928C160.704 177.784 160.644 177.592 160.644 177.352V165.958C160.644 165.706 160.704 165.514 160.824 165.382C160.956 165.25 161.142 165.184 161.382 165.184C161.622 165.184 161.802 165.25 161.922 165.382C162.054 165.514 162.12 165.706 162.12 165.958V170.926H169.734V165.958C169.734 165.706 169.794 165.514 169.914 165.382C170.046 165.25 170.232 165.184 170.472 165.184C170.712 165.184 170.892 165.25 171.012 165.382C171.144 165.514 171.21 165.706 171.21 165.958V177.352C171.21 177.592 171.144 177.784 171.012 177.928C170.892 178.06 170.712 178.126 170.472 178.126C170.232 178.126 170.046 178.06 169.914 177.928C169.794 177.784 169.734 177.592 169.734 177.352V172.204H162.12V177.352C162.12 177.592 162.06 177.784 161.94 177.928C161.82 178.06 161.634 178.126 161.382 178.126ZM175.075 178.126C174.835 178.126 174.649 178.06 174.517 177.928C174.397 177.784 174.337 177.592 174.337 177.352V166.066C174.337 165.814 174.403 165.628 174.535 165.508C174.667 165.376 174.853 165.31 175.093 165.31H179.359C180.715 165.31 181.759 165.628 182.491 166.264C183.223 166.9 183.589 167.806 183.589 168.982C183.589 169.726 183.421 170.374 183.085 170.926C182.761 171.466 182.281 171.88 181.645 172.168C181.009 172.444 180.247 172.582 179.359 172.582L179.539 172.348H179.899C180.367 172.348 180.775 172.468 181.123 172.708C181.471 172.948 181.789 173.332 182.077 173.86L183.805 177.082C183.901 177.25 183.943 177.418 183.931 177.586C183.931 177.742 183.877 177.874 183.769 177.982C183.661 178.078 183.505 178.126 183.301 178.126C183.097 178.126 182.929 178.078 182.797 177.982C182.665 177.886 182.551 177.748 182.455 177.568L180.493 173.932C180.217 173.416 179.899 173.074 179.539 172.906C179.179 172.726 178.705 172.636 178.117 172.636H175.813V177.352C175.813 177.592 175.753 177.784 175.633 177.928C175.513 178.06 175.327 178.126 175.075 178.126ZM175.813 171.466H179.143C180.127 171.466 180.871 171.262 181.375 170.854C181.879 170.434 182.131 169.81 182.131 168.982C182.131 168.178 181.879 167.572 181.375 167.164C180.871 166.744 180.127 166.534 179.143 166.534H175.813V171.466ZM195.123 178.162C194.559 178.162 194.007 178.114 193.467 178.018C192.927 177.922 192.423 177.784 191.955 177.604C191.499 177.424 191.085 177.196 190.713 176.92C190.569 176.812 190.467 176.692 190.407 176.56C190.359 176.416 190.347 176.278 190.371 176.146C190.407 176.002 190.467 175.882 190.551 175.786C190.647 175.69 190.761 175.636 190.893 175.624C191.025 175.612 191.169 175.654 191.325 175.75C191.865 176.134 192.441 176.416 193.053 176.596C193.665 176.764 194.355 176.848 195.123 176.848C196.203 176.848 197.001 176.65 197.517 176.254C198.045 175.846 198.309 175.312 198.309 174.652C198.309 174.112 198.117 173.692 197.733 173.392C197.361 173.08 196.731 172.834 195.843 172.654L193.971 172.276C192.843 172.036 191.997 171.646 191.433 171.106C190.881 170.554 190.605 169.822 190.605 168.91C190.605 168.346 190.719 167.836 190.947 167.38C191.175 166.912 191.493 166.516 191.901 166.192C192.309 165.856 192.795 165.598 193.359 165.418C193.923 165.238 194.547 165.148 195.231 165.148C195.987 165.148 196.689 165.256 197.337 165.472C197.997 165.676 198.591 165.988 199.119 166.408C199.251 166.516 199.341 166.642 199.389 166.786C199.437 166.918 199.443 167.05 199.407 167.182C199.371 167.302 199.305 167.404 199.209 167.488C199.125 167.572 199.011 167.62 198.867 167.632C198.735 167.644 198.585 167.596 198.417 167.488C197.937 167.128 197.439 166.87 196.923 166.714C196.407 166.546 195.837 166.462 195.213 166.462C194.577 166.462 194.025 166.558 193.557 166.75C193.101 166.942 192.741 167.224 192.477 167.596C192.225 167.956 192.099 168.376 192.099 168.856C192.099 169.432 192.273 169.888 192.621 170.224C192.981 170.56 193.563 170.806 194.367 170.962L196.239 171.358C197.451 171.61 198.345 171.994 198.921 172.51C199.509 173.014 199.803 173.704 199.803 174.58C199.803 175.108 199.695 175.594 199.479 176.038C199.263 176.482 198.951 176.866 198.543 177.19C198.135 177.502 197.643 177.742 197.067 177.91C196.491 178.078 195.843 178.162 195.123 178.162ZM205.531 178.162C204.679 178.162 203.941 177.976 203.317 177.604C202.693 177.232 202.207 176.71 201.859 176.038C201.523 175.354 201.355 174.55 201.355 173.626C201.355 172.93 201.451 172.306 201.643 171.754C201.835 171.19 202.117 170.71 202.489 170.314C202.861 169.918 203.299 169.618 203.803 169.414C204.319 169.198 204.895 169.09 205.531 169.09C206.383 169.09 207.121 169.276 207.745 169.648C208.369 170.02 208.849 170.548 209.185 171.232C209.533 171.904 209.707 172.702 209.707 173.626C209.707 174.322 209.611 174.946 209.419 175.498C209.227 176.05 208.945 176.53 208.573 176.938C208.201 177.334 207.757 177.64 207.241 177.856C206.737 178.06 206.167 178.162 205.531 178.162ZM205.531 176.992C206.071 176.992 206.545 176.86 206.953 176.596C207.361 176.332 207.673 175.948 207.889 175.444C208.117 174.94 208.231 174.334 208.231 173.626C208.231 172.534 207.985 171.7 207.493 171.124C207.013 170.548 206.359 170.26 205.531 170.26C204.979 170.26 204.499 170.392 204.091 170.656C203.695 170.908 203.383 171.286 203.155 171.79C202.939 172.282 202.831 172.894 202.831 173.626C202.831 174.706 203.077 175.54 203.569 176.128C204.061 176.704 204.715 176.992 205.531 176.992ZM214.561 178.162C213.697 178.162 213.037 177.898 212.581 177.37C212.125 176.842 211.897 176.086 211.897 175.102V165.922C211.897 165.682 211.957 165.502 212.077 165.382C212.197 165.25 212.377 165.184 212.617 165.184C212.845 165.184 213.025 165.25 213.157 165.382C213.289 165.502 213.355 165.682 213.355 165.922V174.994C213.355 175.642 213.481 176.128 213.733 176.452C213.997 176.764 214.381 176.92 214.885 176.92C214.993 176.92 215.089 176.914 215.173 176.902C215.257 176.89 215.341 176.884 215.425 176.884C215.557 176.872 215.647 176.902 215.695 176.974C215.755 177.046 215.785 177.19 215.785 177.406C215.785 177.622 215.737 177.784 215.641 177.892C215.545 178 215.389 178.072 215.173 178.108C215.077 178.12 214.975 178.132 214.867 178.144C214.759 178.156 214.657 178.162 214.561 178.162ZM220.319 178.162C219.611 178.162 219.023 178.036 218.555 177.784C218.099 177.52 217.751 177.13 217.511 176.614C217.283 176.098 217.169 175.456 217.169 174.688V169.864C217.169 169.612 217.229 169.426 217.349 169.306C217.481 169.186 217.661 169.126 217.889 169.126C218.129 169.126 218.309 169.186 218.429 169.306C218.561 169.426 218.627 169.612 218.627 169.864V174.67C218.627 175.438 218.783 176.014 219.095 176.398C219.419 176.77 219.923 176.956 220.607 176.956C221.351 176.956 221.957 176.704 222.425 176.2C222.893 175.696 223.127 175.036 223.127 174.22V169.864C223.127 169.612 223.187 169.426 223.307 169.306C223.439 169.186 223.625 169.126 223.865 169.126C224.093 169.126 224.267 169.186 224.387 169.306C224.519 169.426 224.585 169.612 224.585 169.864V177.37C224.585 177.874 224.351 178.126 223.883 178.126C223.655 178.126 223.475 178.06 223.343 177.928C223.223 177.796 223.163 177.61 223.163 177.37V175.732L223.397 175.984C223.157 176.692 222.761 177.232 222.209 177.604C221.669 177.976 221.039 178.162 220.319 178.162ZM230.823 178.162C230.139 178.162 229.563 178.042 229.095 177.802C228.639 177.55 228.297 177.19 228.069 176.722C227.841 176.242 227.727 175.66 227.727 174.976V170.386H226.521C226.317 170.386 226.161 170.338 226.053 170.242C225.945 170.134 225.891 169.99 225.891 169.81C225.891 169.63 225.945 169.492 226.053 169.396C226.161 169.3 226.317 169.252 226.521 169.252H227.727V167.182C227.727 166.942 227.793 166.762 227.925 166.642C228.057 166.51 228.237 166.444 228.465 166.444C228.693 166.444 228.867 166.51 228.987 166.642C229.119 166.762 229.185 166.942 229.185 167.182V169.252H231.453C231.657 169.252 231.813 169.3 231.921 169.396C232.029 169.492 232.083 169.63 232.083 169.81C232.083 169.99 232.029 170.134 231.921 170.242C231.813 170.338 231.657 170.386 231.453 170.386H229.185V174.832C229.185 175.516 229.329 176.038 229.617 176.398C229.905 176.746 230.373 176.92 231.021 176.92C231.249 176.92 231.441 176.896 231.597 176.848C231.765 176.8 231.903 176.776 232.011 176.776C232.119 176.764 232.209 176.8 232.281 176.884C232.353 176.968 232.389 177.112 232.389 177.316C232.389 177.46 232.359 177.592 232.299 177.712C232.251 177.832 232.161 177.916 232.029 177.964C231.885 178.012 231.693 178.054 231.453 178.09C231.225 178.138 231.015 178.162 230.823 178.162ZM234.432 178.09C234.192 178.09 234.012 178.024 233.892 177.892C233.772 177.748 233.712 177.55 233.712 177.298V169.936C233.712 169.684 233.772 169.492 233.892 169.36C234.012 169.228 234.192 169.162 234.432 169.162C234.66 169.162 234.84 169.228 234.972 169.36C235.104 169.492 235.17 169.684 235.17 169.936V177.298C235.17 177.55 235.104 177.748 234.972 177.892C234.852 178.024 234.672 178.09 234.432 178.09ZM234.432 167.146C234.132 167.146 233.898 167.068 233.73 166.912C233.562 166.744 233.478 166.522 233.478 166.246C233.478 165.958 233.562 165.742 233.73 165.598C233.898 165.442 234.132 165.364 234.432 165.364C234.744 165.364 234.978 165.442 235.134 165.598C235.302 165.742 235.386 165.958 235.386 166.246C235.386 166.522 235.302 166.744 235.134 166.912C234.978 167.068 234.744 167.146 234.432 167.146ZM241.531 178.162C240.679 178.162 239.941 177.976 239.317 177.604C238.693 177.232 238.207 176.71 237.859 176.038C237.523 175.354 237.355 174.55 237.355 173.626C237.355 172.93 237.451 172.306 237.643 171.754C237.835 171.19 238.117 170.71 238.489 170.314C238.861 169.918 239.299 169.618 239.803 169.414C240.319 169.198 240.895 169.09 241.531 169.09C242.383 169.09 243.121 169.276 243.745 169.648C244.369 170.02 244.849 170.548 245.185 171.232C245.533 171.904 245.707 172.702 245.707 173.626C245.707 174.322 245.611 174.946 245.419 175.498C245.227 176.05 244.945 176.53 244.573 176.938C244.201 177.334 243.757 177.64 243.241 177.856C242.737 178.06 242.167 178.162 241.531 178.162ZM241.531 176.992C242.071 176.992 242.545 176.86 242.953 176.596C243.361 176.332 243.673 175.948 243.889 175.444C244.117 174.94 244.231 174.334 244.231 173.626C244.231 172.534 243.985 171.7 243.493 171.124C243.013 170.548 242.359 170.26 241.531 170.26C240.979 170.26 240.499 170.392 240.091 170.656C239.695 170.908 239.383 171.286 239.155 171.79C238.939 172.282 238.831 172.894 238.831 173.626C238.831 174.706 239.077 175.54 239.569 176.128C240.061 176.704 240.715 176.992 241.531 176.992ZM248.617 178.126C248.377 178.126 248.197 178.06 248.077 177.928C247.957 177.796 247.897 177.61 247.897 177.37V169.864C247.897 169.624 247.957 169.444 248.077 169.324C248.197 169.192 248.371 169.126 248.599 169.126C248.827 169.126 249.001 169.192 249.121 169.324C249.253 169.444 249.319 169.624 249.319 169.864V171.412L249.121 171.196C249.373 170.5 249.781 169.978 250.345 169.63C250.921 169.27 251.581 169.09 252.325 169.09C253.021 169.09 253.597 169.216 254.053 169.468C254.521 169.72 254.869 170.104 255.097 170.62C255.325 171.124 255.439 171.766 255.439 172.546V177.37C255.439 177.61 255.373 177.796 255.241 177.928C255.121 178.06 254.947 178.126 254.719 178.126C254.479 178.126 254.293 178.06 254.161 177.928C254.041 177.796 253.981 177.61 253.981 177.37V172.636C253.981 171.82 253.819 171.226 253.495 170.854C253.183 170.47 252.679 170.278 251.983 170.278C251.179 170.278 250.537 170.53 250.057 171.034C249.589 171.526 249.355 172.186 249.355 173.014V177.37C249.355 177.874 249.109 178.126 248.617 178.126Z" fill="#3DC0F0"/>
<mask id="mask0_10363_62" style="mask-type:alpha" maskUnits="userSpaceOnUse" x="-24" y="-14" width="406" height="315">
<g clip-path="url(#clip0_10363_62)">
<path d="M178.299 223.769C155.597 223.841 133.51 216.385 115.484 202.564C97.834 189.057 84.9395 170.27 78.6709 148.927L79.5685 148.666C92.2457 192.335 132.845 222.833 178.299 222.833C191.89 222.859 205.349 220.169 217.889 214.921L218.249 215.785C205.595 221.081 192.013 223.795 178.299 223.769Z" fill="#E6E6E6"/>
<path d="M276.435 89.0861C262.95 45.9042 223.512 16.8912 178.299 16.8912C164.901 16.8669 151.629 19.4807 139.238 24.5839L138.882 23.7182C155.458 16.9188 173.508 14.5272 191.279 16.7755C209.049 19.0238 225.938 25.8358 240.305 36.55C257.79 49.6703 270.736 67.9437 277.327 88.8068L276.435 89.0861Z" fill="#E6E6E6"/>
<path d="M304.471 256.533C261.955 256.533 227.366 221.889 227.366 179.305C227.366 136.721 261.955 102.077 304.471 102.077C346.987 102.077 381.576 136.721 381.576 179.305C381.576 221.889 346.987 256.533 304.471 256.533ZM304.471 103.013C262.47 103.013 228.3 137.237 228.3 179.305C228.3 221.373 262.47 255.597 304.471 255.597C346.471 255.597 380.641 221.373 380.641 179.305C380.641 137.237 346.471 103.013 304.471 103.013Z" fill="#3F3D56"/>
<path d="M53.5292 140.457C11.0133 140.457 -23.5757 105.812 -23.5757 63.2283C-23.5757 20.6444 11.0133 -14 53.5292 -14C96.0451 -14 130.634 20.6444 130.634 63.2283C130.634 105.812 96.0451 140.457 53.5292 140.457ZM53.5292 -13.0639C11.5288 -13.0639 -22.6411 21.1607 -22.6411 63.2283C-22.6411 105.296 11.5288 139.52 53.5292 139.52C95.5296 139.52 129.7 105.296 129.7 63.2283C129.7 21.1607 95.5296 -13.0639 53.5292 -13.0639Z" fill="#3F3D56"/>
<path d="M47.5342 63.6624L40.7253 76.9075L47.4483 80.7677C47.4483 80.7677 52.0604 65.8899 52.1962 65.3253C52.8916 65.0406 53.4844 64.5512 53.8961 63.9218C54.3077 63.2923 54.5189 62.5525 54.5017 61.8003C54.4845 61.048 54.2396 60.3187 53.7996 59.7088C53.3595 59.0989 52.745 58.6372 52.0372 58.3848C51.3295 58.1323 50.5619 58.1011 49.8361 58.2951C49.1102 58.4891 48.4602 58.8992 47.9721 59.4712C47.484 60.0433 47.1808 60.7503 47.1026 61.4986C47.0244 62.247 47.1749 63.0016 47.5342 63.6624V63.6624Z" fill="#A0616A"/>
<path d="M12.5914 65.4639C15.6286 76.7347 26.5456 83.8932 35.611 92.4754C36.7273 92.8678 37.913 93.0225 39.0924 92.9297C40.2718 92.8369 41.4189 92.4986 42.4603 91.9365C43.5018 91.3744 44.4147 90.6008 45.1406 89.6652C45.8666 88.7296 46.3896 87.6526 46.6763 86.503L49.7318 74.5265L41.9659 74.3185L38.752 77.8169L28.3532 70.395L12.5914 65.4639Z" fill="#3F3D56"/>
<path d="M293.008 191.305C294.326 191.391 295.559 191.989 296.444 192.972C297.329 193.955 297.796 195.245 297.746 196.568C297.731 196.836 297.695 197.103 297.636 197.366L312.609 206.814L304.331 210.481L291.382 200.947C290.313 200.62 289.383 199.948 288.736 199.036C288.089 198.123 287.762 197.022 287.805 195.904C287.836 195.268 287.992 194.644 288.263 194.069C288.535 193.493 288.917 192.976 289.387 192.548C289.858 192.121 290.409 191.79 291.007 191.575C291.605 191.36 292.24 191.265 292.875 191.296C292.92 191.298 292.964 191.301 293.008 191.305Z" fill="#FFB6B6"/>
<path d="M307.447 202.52L303.736 210.189L318.408 219.646C319.452 220.325 320.652 220.725 321.894 220.808C323.136 220.891 324.378 220.655 325.503 220.122C326.871 219.466 327.989 218.383 328.689 217.035C329.388 215.688 329.632 214.149 329.382 212.651L324.621 185.427C324.302 183.522 323.265 181.812 321.725 180.649C320.185 179.485 318.259 178.957 316.342 179.173C314.457 179.38 312.731 180.328 311.543 181.809C310.356 183.291 309.805 185.184 310.011 187.072C310.019 187.146 310.028 187.22 310.038 187.293C310.074 187.555 310.124 187.814 310.188 188.071L315.386 207.432L307.447 202.52Z" fill="#00B0FF"/>
<path d="M294.111 205.629L288.586 191.349C288.398 190.86 288.41 190.317 288.622 189.837C288.833 189.358 289.225 188.982 289.713 188.792L292.82 187.586C293.308 187.397 293.851 187.41 294.329 187.622C294.808 187.833 295.183 188.226 295.373 188.715L300.898 202.994C301.087 203.483 301.074 204.027 300.863 204.506C300.651 204.986 300.259 205.361 299.771 205.551L296.664 206.758C296.176 206.946 295.633 206.934 295.155 206.722C294.676 206.51 294.301 206.117 294.111 205.629Z" fill="#3F3D56"/>
<path d="M290.358 189.379C290.095 189.482 289.884 189.684 289.77 189.942C289.656 190.201 289.649 190.494 289.751 190.757L295.276 205.037C295.378 205.3 295.581 205.512 295.839 205.626C296.096 205.74 296.389 205.747 296.652 205.645L299.759 204.439C300.022 204.337 300.233 204.134 300.347 203.876C300.461 203.618 300.468 203.325 300.366 203.061L294.841 188.781C294.739 188.518 294.537 188.306 294.279 188.192C294.021 188.078 293.728 188.071 293.465 188.173L290.358 189.379Z" fill="#00B0FF"/>
<path d="M306.404 235.425H327.387V214.408H306.404V235.425Z" fill="#FFB8B8"/>
<path d="M256.642 276.305L248.628 273.604L244.165 295.453L249.595 297.282L256.642 276.305Z" fill="#FFB6B6"/>
<path d="M270.854 272.148L262.626 274.097L270.364 295.008L275.939 293.687L270.854 272.148Z" fill="#FFB6B6"/>
<path d="M326.635 240.916C330.84 268.999 274.834 252.396 274.834 252.396L257.273 276.659L246.993 274.787C246.993 274.787 251.618 260.221 259.88 240.695C263.549 232.023 305.208 234.142 305.208 234.142L306.073 227.343L329.906 226.875L326.635 240.916Z" fill="#2F2E41"/>
<path d="M273.066 246.371L257.812 246.723C260.258 267.788 262.414 276.191 262.414 276.191L271.292 273.383L273.066 246.371Z" fill="#2F2E41"/>
<path d="M314.647 180.256L318.871 174.818L324.896 174.557L325.497 179.671L328.482 181.05C331.463 192.392 331.923 204.251 329.831 215.791C329.431 216.169 329.138 216.646 328.984 217.174C328.829 217.703 328.819 218.262 328.952 218.796L329.146 219.569L329.128 219.597C328.493 220.601 328.277 221.815 328.528 222.977L329.953 225.514C330.465 226.427 330.772 227.44 330.853 228.483C330.934 229.526 330.788 230.575 330.423 231.556C330.059 232.536 329.485 233.426 328.743 234.162C328.001 234.899 327.107 235.464 326.124 235.82C317.361 239.001 309.146 240.186 303.069 231.259L301.158 200.147L314.647 180.256Z" fill="#00B0FF"/>
<path d="M319.072 176.262C325.224 176.262 330.211 171.267 330.211 165.105C330.211 158.943 325.224 153.947 319.072 153.947C312.92 153.947 307.932 158.943 307.932 165.105C307.932 171.267 312.92 176.262 319.072 176.262Z" fill="#FFB8B8"/>
<path d="M324.664 151.655C329.381 151.746 333.121 156.128 333.02 161.442C336.51 165.09 335.356 169.554 332.439 174.327C327.104 174.947 325.859 175.206 321.18 177.117L320.564 174.232L319.167 177.989C317.978 178.538 316.798 179.14 315.626 179.797C314.785 175.93 314.994 172.172 317.256 168.899C319.265 165.991 314.375 162.538 310.878 163.026L310.929 160.355L310.05 163.01C308.687 164.014 307.179 163.65 305.633 162.925V162.925C303.125 149.872 322.54 146.302 324.664 151.655Z" fill="#2F2E41"/>
<path d="M252.064 300.978L248.493 300.511L248.296 297.051L246.224 300.214L236.754 298.975C236.3 298.915 235.877 298.712 235.547 298.395C235.216 298.078 234.996 297.663 234.917 297.211C234.839 296.759 234.907 296.294 235.111 295.884C235.315 295.474 235.644 295.139 236.052 294.93L244.296 290.688L244.741 287.275L252.633 288.791L252.064 300.978Z" fill="#2F2E41"/>
<path d="M277.988 299.008L274.417 299.468L273.345 296.174L272.147 299.761L262.675 300.982C262.221 301.04 261.76 300.952 261.36 300.73C260.959 300.507 260.64 300.163 260.449 299.746C260.259 299.329 260.206 298.862 260.299 298.413C260.391 297.964 260.625 297.557 260.965 297.25L267.857 291.043L267.419 287.629L275.436 287.079L277.988 299.008Z" fill="#2F2E41"/>
<path d="M294.351 193.915C295.67 194.001 296.903 194.6 297.787 195.583C298.672 196.566 299.139 197.855 299.089 199.178C299.075 199.447 299.038 199.714 298.979 199.976L313.953 209.424L305.675 213.091L292.725 203.557C291.657 203.23 290.726 202.558 290.079 201.646C289.432 200.734 289.105 199.633 289.148 198.514C289.179 197.878 289.335 197.255 289.606 196.679C289.878 196.103 290.26 195.587 290.731 195.159C291.202 194.731 291.752 194.4 292.35 194.185C292.949 193.97 293.584 193.876 294.219 193.907C294.263 193.909 294.307 193.912 294.351 193.915Z" fill="#FFB6B6"/>
<path d="M308.79 205.13L305.079 212.799L319.752 222.256C320.796 222.934 321.995 223.334 323.237 223.418C324.479 223.501 325.722 223.265 326.847 222.732C328.215 222.076 329.332 220.993 330.032 219.645C330.732 218.298 330.975 216.759 330.725 215.261L325.964 188.037C325.645 186.132 324.608 184.422 323.069 183.258C321.529 182.095 319.602 181.567 317.686 181.783C316.752 181.885 315.848 182.171 315.024 182.623C314.201 183.075 313.475 183.686 312.887 184.419C312.299 185.153 311.861 185.995 311.598 186.898C311.335 187.801 311.252 188.747 311.354 189.682C311.362 189.756 311.371 189.83 311.382 189.903C311.418 190.165 311.468 190.424 311.532 190.68L316.729 210.041L308.79 205.13Z" fill="#00B0FF"/>
<path d="M28.0215 203.651L32.7282 205.777L43.1574 188.607L36.211 185.468L28.0215 203.651Z" fill="#A0616A"/>
<path d="M25.6406 208.493L40.1137 215.033L40.1963 214.85C40.8702 213.353 40.9232 211.65 40.3434 210.115C39.7636 208.579 38.5986 207.337 37.1046 206.662L37.1043 206.662L35.3655 203.458L29.528 203.238L28.2646 202.667L25.6406 208.493Z" fill="#2F2E41"/>
<path d="M86.3147 180.299L91.2854 178.902L88.2685 159.031L80.9314 161.094L86.3147 180.299Z" fill="#A0616A"/>
<path d="M87.5953 185.543L102.882 181.244L102.828 181.051C102.385 179.47 101.333 178.131 99.9041 177.327C98.475 176.523 96.7857 176.32 95.2076 176.764L95.2073 176.764L91.8203 175.427L87.205 179.014L85.8706 179.389L87.5953 185.543Z" fill="#2F2E41"/>
<path d="M11.0787 122.238C11.2058 125.922 19.0274 135.86 23.141 137.285C23.8402 137.527 24.2488 137.661 24.2488 137.661L25.6806 137.227L43.0189 131.973C46.0549 133.762 55.1114 134.671 62.5426 135.126C68.4572 135.487 71.754 138.584 71.754 138.584C73.4989 151.876 78.5293 161.566 84.3304 173.475L91.2924 172.262L84.7153 127.901C84.5733 126.943 84.1533 126.048 83.5077 125.328C82.862 124.607 82.0191 124.092 81.0836 123.847L33.7716 111.451C33.7716 111.451 31.1623 110.978 25.6594 113.637C16.5998 118.015 10.9879 119.558 11.0787 122.238Z" fill="#2F2E41"/>
<path d="M20.1191 121.526C18.5324 124.851 20.8838 137.285 23.8744 140.453L24.6683 140.993L24.9367 141.133C26.7307 147.211 45.9827 164.989 45.9827 164.989C39.4797 173.286 33.6845 183.409 31.0986 194.751L38.618 197.502L59.7842 165.854C60.3386 165.025 60.6295 164.047 60.6186 163.05C60.6077 162.052 60.2956 161.081 59.7232 160.264L51.0882 147.945L37.0179 120.647C26.9638 120.336 21.2751 119.107 20.1191 121.526Z" fill="#2F2E41"/>
<path d="M11.3616 123.686C11.3383 123.686 10.7872 122.241 10.776 122.238C10.5886 122.186 8.05175 121.935 8.62225 117.728L9.35218 113.099L8.63959 109.011L7.44099 107.81L9.36735 105.881L8.18679 97.1301L7.73354 79.6099C6.59597 73.5918 6.89304 68.0875 12.4038 65.4369L18.7216 59.5676L25.9107 59.4805L34.0667 64.3234L38.0184 72.2139L39.5511 93.5981L40.6955 96.2727L40.5975 96.3615C40.5899 96.3684 39.8275 97.0589 39.485 97.4387C39.3191 97.6747 39.6303 99.437 40.0147 100.933L40.5076 104.627L39.2655 105.516L40.8804 107.427L45.283 114.88L45.0193 114.815C44.7221 114.741 41.9534 118.903 11.565 123.532C11.4248 123.553 11.4199 123.686 11.3616 123.686Z" fill="#3F3D56"/>
<path d="M46.1583 77.4065L43.6426 76.0917C43.2479 75.8849 42.9513 75.5297 42.8177 75.104C42.6842 74.6784 42.7247 74.2171 42.9303 73.8213L48.9533 62.2601C49.1598 61.8648 49.5145 61.5677 49.9394 61.4339C50.3644 61.3002 50.825 61.3407 51.2201 61.5467L53.7358 62.8615C54.1305 63.0683 54.4271 63.4235 54.5607 63.8492C54.6942 64.2748 54.6537 64.7361 54.448 65.1319L48.425 76.693C48.2185 77.0884 47.8639 77.3855 47.4389 77.5192C47.014 77.653 46.5534 77.6124 46.1583 77.4065Z" fill="#3F3D56"/>
<path d="M50.6185 61.9824C50.4056 61.8714 50.1574 61.8496 49.9284 61.9216C49.6994 61.9937 49.5083 62.1538 49.397 62.3668L43.3739 73.928C43.2631 74.1413 43.2413 74.3899 43.3133 74.6193C43.3853 74.8486 43.5451 75.04 43.7578 75.1515L46.2735 76.4663C46.4864 76.5773 46.7346 76.5991 46.9636 76.527C47.1926 76.455 47.3837 76.2948 47.495 76.0818L53.518 64.5207C53.6288 64.3074 53.6506 64.0588 53.5787 63.8294C53.5067 63.6 53.3469 63.4086 53.1342 63.2972L50.6185 61.9824Z" fill="#00B0FF"/>
<path d="M23.936 57.9023C29.6128 57.9023 34.2147 53.293 34.2147 47.6072C34.2147 41.9213 29.6128 37.312 23.936 37.312C18.2592 37.312 13.6573 41.9213 13.6573 47.6072C13.6573 53.293 18.2592 57.9023 23.936 57.9023Z" fill="#A0616A"/>
<path d="M18.8806 54.2382C18.43 53.8792 17.8678 53.6902 17.2922 53.7039C17.1136 53.7333 16.9433 53.8004 16.7926 53.9007C16.6418 54.0009 16.514 54.1321 16.4177 54.2856C16.3641 54.353 16.2947 54.406 16.2155 54.4397C16.1363 54.4735 16.05 54.4869 15.9644 54.4788C14.8676 54.5188 12.5299 52.4809 12.3701 48.5487C12.2941 46.68 11.1778 43.5177 12.9549 41.8051C13.074 41.1139 14.4617 33.9703 20.717 33.7734C27.1212 33.5696 31.3843 34.8581 32.4084 37.3027C33.1196 39.2436 33.6603 41.243 34.0243 43.2781L34.239 44.4881L33.7373 43.3666C33.7278 43.3456 32.8126 41.3376 31.1155 40.6678C31.0879 40.9946 31.005 41.3143 30.8701 41.6131C30.3163 42.8152 28.9204 43.5996 27.3136 43.6117C26.2034 43.5775 25.1086 43.3417 24.0824 42.9158C24.1986 43.0838 24.2639 43.2818 24.2703 43.486C24.2767 43.6902 24.224 43.892 24.1185 44.0669C24.0131 44.2418 23.8593 44.3824 23.6759 44.4718C23.4925 44.5612 23.2871 44.5955 23.0846 44.5707L22.7876 44.5337C22.694 44.522 22.5992 44.5435 22.5198 44.5944C22.4403 44.6454 22.3812 44.7226 22.3526 44.8126C22.3241 44.9027 22.3279 44.9999 22.3634 45.0874C22.3989 45.1749 22.4639 45.2473 22.5471 45.2918L22.8087 45.4318L22.4912 45.5857C21.2134 46.1566 20.1605 47.1357 19.4971 48.3696C18.8338 49.6036 18.5974 51.023 18.8249 52.4058L19.195 54.491L18.8806 54.2382Z" fill="#2F2E41"/>
<path d="M46.1286 74.6223L36.3015 85.8053L41.8821 91.1906C41.8821 91.1906 49.9761 77.8877 50.2452 77.3733C50.989 77.267 51.683 76.9371 52.2354 76.4272C52.7879 75.9173 53.1728 75.2514 53.3392 74.5176C53.5056 73.7838 53.4456 73.0167 53.1673 72.3178C52.8889 71.6188 52.4053 71.021 51.7804 70.6034C51.1554 70.1858 50.4186 69.968 49.6674 69.9789C48.9162 69.9898 48.186 70.2289 47.5734 70.6645C46.9608 71.1001 46.4947 71.7117 46.2367 72.4184C45.9787 73.1251 45.941 73.8937 46.1286 74.6223Z" fill="#A0616A"/>
<path d="M11.8015 67.8374C12.0039 79.5098 20.8492 89.1179 27.5522 99.6547C28.5394 100.308 29.6517 100.747 30.8181 100.945C31.9845 101.143 33.1793 101.095 34.3262 100.804C35.473 100.514 36.5466 99.9863 37.4784 99.2561C38.4101 98.526 39.1796 97.6092 39.7374 96.5643L45.6156 85.6952L38.1347 83.5973L34.1663 86.2055L25.8877 76.4684L11.8015 67.8374Z" fill="#3F3D56"/>
</g>
</mask>
<g mask="url(#mask0_10363_62)">
<path opacity="0.15" fill-rule="evenodd" clip-rule="evenodd" d="M-96.875 304.239L-74.1319 274.822C-51.3889 245.405 -5.90279 220.153 39.5833 227.507C85.0694 234.861 130.556 274.822 176.042 304.239C250.854 338.374 267.014 282.177 312.5 267.468C357.986 252.76 403.472 274.822 426.215 267.468L448.958 260.114V-53.6406H426.215C403.472 -53.6406 357.986 -53.6406 312.5 -53.6406C267.014 -53.6406 221.528 -53.6406 176.042 -53.6406C130.556 -53.6406 85.0694 -53.6406 39.5833 -53.6406C-5.90279 -53.6406 -51.3889 -53.6406 -74.1319 -53.6406L-96.875 -4.63882V304.239Z" fill="#67647E"/>
</g>
<defs>
<clipPath id="clip0_10363_62">
<rect width="405.152" height="315" fill="white" transform="translate(-23.5757 -14)"/>
</clipPath>
</defs>
</svg>
