<svg width="57" height="56" viewBox="0 0 57 56" fill="none" xmlns="http://www.w3.org/2000/svg">
<rect x="0.450684" width="55.6803" height="55.6803" rx="18" fill="#3DC0F0"/>
<path d="M36.3364 32.1083V23.609H23.1154V32.1083H36.3364ZM36.3364 18.8873C36.8373 18.8873 37.3177 19.0862 37.6719 19.4404C38.0261 19.7946 38.2251 20.275 38.2251 20.776V32.1083C38.2251 32.6092 38.0261 33.0896 37.6719 33.4438C37.3177 33.798 36.8373 33.997 36.3364 33.997H23.1154C22.0671 33.997 21.2267 33.1471 21.2267 32.1083V20.776C21.2267 20.275 21.4256 19.7946 21.7798 19.4404C22.134 19.0862 22.6144 18.8873 23.1154 18.8873H24.0597V16.9985H25.9484V18.8873H33.5033V16.9985H35.392V18.8873H36.3364ZM33.0595 26.4988L28.8665 30.6917L26.3356 28.1608L27.3366 27.1598L28.8665 28.6897L32.0584 25.4978L33.0595 26.4988ZM19.3379 35.8857H32.5589V37.7744H19.3379C18.2897 37.7744 17.4492 36.9245 17.4492 35.8857V24.5534H19.3379V35.8857Z" fill="white"/>
</svg>
