<svg width="56" height="56" viewBox="0 0 56 56" fill="none" xmlns="http://www.w3.org/2000/svg">
<rect width="55.6803" height="55.6803" rx="18" fill="#3DC0F0"/>
<path d="M35.4979 35.6867H21.0622V24.8782H35.4979V35.6867ZM35.4979 19.9652H34.4667V18H32.4045V19.9652H24.1556V18H22.0933V19.9652H21.0622C19.9177 19.9652 19 20.8495 19 21.9304V35.6867C19 36.2079 19.2173 36.7077 19.604 37.0763C19.9908 37.4448 20.5153 37.6519 21.0622 37.6519H35.4979C36.0448 37.6519 36.5693 37.4448 36.9561 37.0763C37.3428 36.7077 37.5601 36.2079 37.5601 35.6867V21.9304C37.5601 21.4092 37.3428 20.9093 36.9561 20.5408C36.5693 20.1722 36.0448 19.9652 35.4979 19.9652ZM25.5063 33.7215L28.0223 31.324L30.5382 33.7215L31.6312 32.6799L29.1152 30.2824L31.6312 27.8849L30.5382 26.8433L28.0223 29.2409L25.5063 26.8433L24.4134 27.8849L26.9293 30.2824L24.4134 32.6799L25.5063 33.7215Z" fill="white"/>
</svg>
