<svg width="56" height="56" viewBox="0 0 56 56" fill="none" xmlns="http://www.w3.org/2000/svg">
<rect width="55.6803" height="55.6803" rx="18" fill="#3DC0F0"/>
<path d="M22.2119 26.56L23.2867 25.5L22.2119 24.44L23.2867 23.38L25.4363 25.5L23.2867 27.62L22.2119 26.56ZM19.3524 25C19.3829 25 19.4031 25 19.4336 25C20.6402 22.07 23.5503 20 26.9573 20C29.1779 20 31.1755 20.88 32.6457 22.3C32.7978 21.7 33.102 21 33.4671 20.34C31.7027 18.88 29.4314 18 26.9573 18C21.9989 18 17.8822 21.5 17 26.14C17.5678 25.44 18.4297 25 19.3524 25ZM36.0831 26.5C35.6573 26.5 35.2517 26.41 34.8765 26.28C34.9982 26.83 35.0692 27.41 35.0692 28C35.0692 32.42 31.4391 36 26.9573 36C23.5503 36 20.6402 33.93 19.4336 31C19.4031 31 19.3829 31 19.3524 31C18.8454 31 18.2979 30.86 17.8315 30.6C17.507 30.42 17.2332 30.18 17 29.9C17.9024 34.5 21.9989 38 26.9573 38C32.5342 38 37.0971 33.5 37.0971 28C37.0971 27.45 37.0363 26.91 36.9552 26.38C36.6713 26.45 36.3873 26.5 36.0831 26.5ZM36.0831 19C36.0831 19 34.0552 21.9 34.0552 23C34.0552 24.1 34.9678 25 36.0831 25C37.1985 25 38.1111 24.1 38.1111 23C38.1111 21.9 36.0831 19 36.0831 19ZM30.6279 23.38L28.4783 25.5L30.6279 27.62L31.7027 26.56L30.6279 25.5L31.7027 24.44L30.6279 23.38ZM23.4692 33C24.1689 31.81 25.4668 31 26.9573 31C28.4479 31 29.7458 31.81 30.4454 33H32.1489C31.3377 30.95 29.3199 29.5 26.9573 29.5C26.0751 29.5 25.2335 29.7 24.4933 30.07L20.8734 28C20.8734 27.5 20.5996 27 20.1129 26.71C19.3829 26.3 18.4601 26.54 18.0343 27.26C17.6185 28 17.8619 28.89 18.592 29.31C19.0787 29.59 19.6566 29.56 20.1028 29.31L23.1143 31.03C22.5363 31.56 22.0699 32.24 21.7657 33H23.4692Z" fill="white"/>
</svg>
