<svg width="359" height="281" viewBox="0 0 359 281" fill="none" xmlns="http://www.w3.org/2000/svg">
<g clip-path="url(#clip0)">
<rect width="360" height="762" fill="white"/>
<g style="mix-blend-mode:luminosity" opacity="0.45">
<path opacity="0.1" d="M374.311 64.8393C374.251 65.1718 374.195 65.5042 374.128 65.8332C372.063 77.1351 368.444 88.0791 362.861 98.2033C362.675 98.5399 362.49 98.8765 362.3 99.2132C358.614 105.73 354.146 111.771 348.995 117.203C346.148 120.207 343.029 123.076 339.277 125.193C334.021 128.164 327.807 129.503 321.693 130.631C315.344 131.808 308.9 132.828 302.478 133.91C300.195 134.289 297.927 134.686 295.672 135.101C289.47 136.228 283.316 137.498 277.322 139.113C269.913 141.104 262.75 143.629 256.019 147.072C255.481 147.337 254.95 147.617 254.425 147.911C253.9 148.196 253.372 148.484 252.854 148.776C252.337 149.067 251.827 149.359 251.322 149.658C251.059 149.811 250.797 149.964 250.539 150.125C250.281 150.286 250.026 150.428 249.775 150.585C249.019 151.04 248.277 151.506 247.536 151.976L247.507 151.996C247.016 152.305 246.533 152.622 246.053 152.938C243.315 154.728 240.638 156.591 237.962 158.465L236.278 159.634L233.67 161.446C233.163 161.8 232.644 162.155 232.132 162.506C231.77 162.763 231.407 163.02 231.011 163.285C229.11 164.573 227.181 165.839 225.199 167.051C224.73 167.342 224.257 167.632 223.781 167.915C219.775 170.327 215.57 172.392 211.214 174.089L211.155 174.113C208.963 174.959 206.722 175.672 204.444 176.248C203.13 176.581 201.812 176.861 200.476 177.087C196.907 177.713 193.273 177.882 189.661 177.592C182.568 177.002 175.857 174.503 168.765 173.817C154.163 172.436 140.237 178.873 126.716 184.001C123.391 185.261 120.039 186.449 116.661 187.564C114.415 188.309 112.16 189.018 109.886 189.705C95.9546 193.881 81.6943 196.867 67.2586 198.631C61.2259 199.422 55.142 199.756 49.059 199.629C46.7459 199.564 44.4557 199.408 42.2018 199.11C34.4926 198.173 27.2596 195.917 21.3377 191.546C16.4873 187.957 12.945 183.188 10.2031 178.168C7.39695 173.045 5.35403 167.538 4.13921 161.824C3.97287 161.045 3.82123 160.263 3.69182 159.48C3.46266 158.141 3.28019 156.792 3.14442 155.435C2.40934 148.2 3.03667 140.892 4.99383 133.89C7.18635 126.049 11.0195 118.466 12.5579 110.587C12.6212 110.253 12.6808 109.921 12.7368 109.59C12.943 108.394 13.0857 107.188 13.1643 105.977C13.7661 96.3383 9.95144 87.0851 6.89171 77.7776C6.78472 77.4543 6.6776 77.1273 6.5742 76.8001C6.24371 75.766 5.92561 74.7328 5.61991 73.7004C2.74644 63.8483 1.69176 53.235 3.63982 43.2442C3.69945 42.9117 3.77391 42.5788 3.84479 42.2496C5.16103 35.9316 7.8294 29.9743 11.6661 24.7881C15.7459 19.307 21.185 14.6766 27.0236 10.5755C29.8691 8.5762 32.8175 6.69861 35.8688 4.94269C38.0534 3.68299 40.2944 2.48459 42.5918 1.34748C61.008 -7.79514 82.1976 -12.657 103.316 -12.4247C104.429 -12.4127 105.543 -12.3896 106.657 -12.3443C107.771 -12.2989 108.99 -12.2421 110.157 -12.1725C123.785 -11.2948 137.106 -8.53908 150.345 -5.48353C154.782 -4.45836 159.212 -3.40327 163.638 -2.37031C165.607 -1.91461 167.573 -1.45879 169.543 -1.01794C179.187 1.14466 188.965 3.06893 198.847 4.42159C201.135 4.74063 203.424 5.02497 205.715 5.2746C213.67 6.18126 221.673 6.59868 229.678 6.52451C232.791 6.4849 235.901 6.35621 239.01 6.13844C240.579 6.03031 242.149 5.8937 243.719 5.7286C259.93 4.05225 275.509 -0.296044 291.123 -4.39291C293.381 -4.98651 295.643 -5.57281 297.909 -6.15181C300.882 -6.90984 303.855 -7.64561 306.845 -8.33363C325.449 -12.6283 342.208 -11.0543 359.864 -4.02042C363.878 -2.42437 367.9 -0.468345 370.429 2.69139C372.958 5.85113 373.695 9.80837 374.273 13.6334C375.092 19.081 375.692 24.6063 376.032 30.1697C376.043 30.4962 376.054 30.8264 376.087 31.1558C376.706 42.3962 376.239 53.7796 374.311 64.8393Z" fill="black"/>
<path opacity="0.1" d="M251.181 101.846L249.959 101.886L249.973 102.323L249.991 102.876L251.377 102.831L251.181 101.846ZM237.312 102.298C237.31 102.307 237.31 102.316 237.312 102.324C237.288 102.596 237.26 102.868 237.232 103.144L237.234 103.218L237.236 103.292L247.834 102.947L247.832 102.887L248.543 101.932L237.312 102.298ZM208.908 103.225L207.866 71.2559L220.057 70.8583C219.925 70.7772 219.788 70.6925 219.649 70.6154L219.467 70.5062L219.233 70.3727C219.097 70.2991 218.961 70.2256 218.817 70.156C218.674 70.0863 218.587 70.0372 218.467 69.978L218.384 69.9361L218.365 69.9367L207.834 70.2802L207.776 68.518L207.495 68.6386L207.199 68.7894L207.177 68.7901L207.115 68.8255L206.929 68.9319L206.744 69.0382C206.562 69.1444 206.38 69.2618 206.198 69.3828L206.025 69.5073L205.662 69.7568C205.194 70.0915 204.734 70.4407 204.259 70.7682C204.139 70.8501 204.02 70.932 203.896 71.0066C203.638 71.171 203.372 71.3282 203.099 71.4708C202.982 71.5341 202.869 71.5898 202.733 71.6425L202.536 71.7269L202.353 71.796C201.923 71.9617 201.48 72.0928 201.03 72.1882L202.049 103.441L183.77 104.037C183.771 104.074 183.798 104.103 183.81 104.14C183.92 104.433 184.03 104.723 184.136 105.017L202.108 104.431L203.225 138.696C203.319 138.693 203.412 138.69 203.503 138.687L203.826 138.695L204.409 138.709L205.343 138.79L205.77 138.817L206.235 138.85L206.305 138.848L207.127 138.921L207.302 138.938L207.701 138.98L208.27 139.044L209.628 138.94L209.815 138.967C209.889 138.965 209.967 138.984 210.046 138.997L208.911 104.216L237.199 103.293L237.197 103.219L237.194 103.145C237.223 102.869 237.251 102.597 237.275 102.325C237.273 102.317 237.273 102.308 237.274 102.299L208.908 103.225ZM251.181 101.846L249.959 101.886L249.973 102.323L249.991 102.876L251.377 102.831L251.181 101.846ZM236.548 102.323C236.515 102.655 236.484 102.986 236.451 103.318L248.268 102.932L249.04 101.916L236.548 102.323ZM208.908 103.225L207.866 71.2559L220.057 70.8583C219.925 70.7772 219.788 70.6925 219.649 70.6154L219.467 70.5062L219.233 70.3727C219.097 70.2991 218.961 70.2256 218.817 70.156C218.674 70.0863 218.587 70.0372 218.467 69.978L218.384 69.9361L218.358 69.937L207.834 70.2802L207.776 68.518L207.495 68.6386L207.199 68.7894L207.177 68.7901L207.115 68.8255L206.929 68.9319L206.744 69.0382C206.562 69.1444 206.38 69.2618 206.198 69.3828L206.025 69.5073L205.662 69.7568C205.194 70.0915 204.734 70.4407 204.259 70.7682C204.139 70.8501 204.02 70.932 203.896 71.0066C203.638 71.171 203.372 71.3282 203.099 71.4708C202.982 71.5341 202.869 71.5898 202.733 71.6425L202.536 71.7269L202.353 71.796C201.923 71.9617 201.48 72.0928 201.03 72.1882L202.049 103.441L183.77 104.037C183.771 104.074 183.798 104.103 183.81 104.14C183.92 104.43 184.033 104.723 184.139 105.017L202.108 104.431L203.225 138.692L203.503 138.683L203.826 138.691L204.409 138.705L205.343 138.79L205.77 138.817L206.235 138.85L206.305 138.848L207.127 138.921L207.302 138.938L207.701 138.98L208.27 139.044L209.628 138.94L209.815 138.967C209.889 138.965 209.967 138.984 210.046 138.997L208.911 104.216L236.458 103.318C236.492 102.986 236.522 102.654 236.556 102.323L208.908 103.225ZM299.206 33.6373L376.085 31.1298C376.074 30.7996 376.063 30.4694 376.03 30.1437L299.173 32.6505L297.907 -6.163C295.641 -5.59389 293.379 -5.00759 291.121 -4.40409L292.337 32.8734L208.725 35.6006L208.507 35.4182L208.817 35.1259L239.005 6.13109C235.896 6.35133 232.785 6.48002 229.673 6.51716L206.477 28.792L205.71 5.27467C203.417 5.02512 201.127 4.74078 198.842 4.42165L199.609 27.9316L163.644 -2.37061C159.218 -3.40357 154.788 -4.45866 150.351 -5.48383L199.262 35.7198L199.057 35.9159L111.828 38.761L110.168 -12.1395C109.001 -12.2104 107.834 -12.2677 106.668 -12.3113C105.554 -12.3567 104.44 -12.3798 103.327 -12.3918L105.002 38.9836L43.883 40.9771L42.5915 1.38081C40.3187 2.51464 38.0777 3.71304 35.8684 4.97602L37.0499 41.1999L3.84447 42.283C3.77359 42.6121 3.69913 42.9451 3.6395 43.2775L37.0821 42.1868L38.1785 75.8026L6.57388 76.8334C6.67728 77.1606 6.7844 77.4876 6.89139 77.811L38.2107 76.7894L39.2534 108.758L12.7365 109.623C12.6805 109.954 12.6209 110.287 12.5576 110.62L39.2857 109.749L42.2011 199.132C44.4357 199.405 46.7447 199.571 49.0583 199.651L46.1188 109.526L107.227 107.533L109.908 189.719C112.181 189.032 114.436 188.323 116.682 187.578L114.064 107.31L202.108 104.438L204.45 176.244C206.728 175.668 208.969 174.955 211.161 174.109L211.22 174.084L208.941 104.215L294.572 101.422L295.671 135.101C297.933 134.693 300.201 134.298 302.476 133.917L301.409 101.199L362.299 99.2131C362.488 98.8764 362.674 98.5398 362.859 98.2032L301.377 100.209L300.334 68.24L374.127 65.8331C374.194 65.5041 374.25 65.1718 374.309 64.8393L300.302 67.2531L299.206 33.6373ZM43.9152 41.9639L105.023 39.9708L106.12 73.5866L45.0116 75.5797L43.9152 41.9639ZM46.0865 108.535L45.0438 76.5666L106.152 74.5735L107.195 106.542L46.0865 108.535ZM111.86 39.7478L199.904 36.8761L201.001 70.492L112.957 73.3636L111.86 39.7478ZM114.031 106.319L112.989 74.3505L201.033 71.4788L202.075 103.447L114.031 106.319ZM294.54 100.432L208.908 103.225L207.866 71.2559L293.497 68.463L294.54 100.432ZM293.465 67.4761L207.834 70.2691L206.767 37.5548L207.938 36.6141L292.369 33.8603L293.465 67.4761ZM237.312 102.298C237.31 102.307 237.31 102.316 237.312 102.324C237.288 102.596 237.26 102.868 237.232 103.144L237.234 103.218L237.236 103.292L247.834 102.947L247.832 102.887L248.543 101.932L237.312 102.298ZM251.181 101.846L249.959 101.886L249.973 102.323L249.991 102.876L251.377 102.831L251.181 101.846ZM208.908 103.225L207.866 71.2559L220.057 70.8583C219.925 70.7772 219.788 70.6925 219.649 70.6154L219.467 70.5062L219.233 70.3727C219.097 70.2991 218.961 70.2256 218.817 70.156C218.674 70.0863 218.587 70.0372 218.467 69.978L218.384 69.9361L218.365 69.9367L207.834 70.2802L207.776 68.518L207.495 68.6386L207.199 68.7894L207.177 68.7901L207.115 68.8255L206.929 68.9319L206.744 69.0382C206.562 69.1444 206.38 69.2618 206.198 69.3828L206.025 69.5073L205.662 69.7568C205.194 70.0915 204.734 70.4407 204.259 70.7682C204.139 70.8501 204.02 70.932 203.896 71.0066C203.638 71.171 203.372 71.3282 203.099 71.4708C202.982 71.5341 202.869 71.5898 202.733 71.6425L202.536 71.7269L202.353 71.796C201.923 71.9617 201.48 72.0928 201.03 72.1882L202.049 103.441L183.77 104.037C183.771 104.074 183.798 104.103 183.81 104.14C183.92 104.433 184.03 104.723 184.136 105.017L202.108 104.431L203.225 138.696C203.319 138.693 203.412 138.69 203.503 138.687L203.826 138.695L204.409 138.709L205.343 138.79L205.77 138.817L206.235 138.85L206.305 138.848L207.127 138.921L207.302 138.938L207.701 138.98L208.27 139.044L209.628 138.94L209.815 138.967C209.889 138.965 209.967 138.984 210.046 138.997L208.911 104.216L237.199 103.293L237.197 103.219L237.194 103.145C237.223 102.869 237.251 102.597 237.275 102.325C237.273 102.317 237.273 102.308 237.274 102.299L208.908 103.225Z" fill="black"/>
<path opacity="0.1" d="M72.5419 17.8629L73.0718 17.8457C72.8947 17.7774 72.7388 17.6634 72.62 17.5153C72.5011 17.3672 72.4236 17.1902 72.3951 17.0024C72.3729 16.3198 73.3737 15.73 74.6188 15.6894L90.4637 15.1726C91.7088 15.132 92.7423 15.6554 92.7645 16.338C92.7867 17.0169 91.7896 17.6103 90.5446 17.6509L90.0147 17.6682C90.1919 17.7351 90.348 17.8483 90.4669 17.9959C90.5859 18.1435 90.6633 18.3202 90.6912 18.5077C90.7102 19.0902 89.9851 19.6041 88.9999 19.7662L93.5615 19.6174C94.8028 19.5769 95.84 20.1002 95.8623 20.7828C95.8845 21.4654 94.8837 22.0551 93.6423 22.0956L77.7936 22.6126C76.5523 22.653 75.515 22.1261 75.4928 21.4472C75.4738 20.8647 76.1991 20.3545 77.1841 20.1887L72.6226 20.3375C71.3775 20.3781 70.3441 19.8547 70.3218 19.1721C70.2995 18.4895 71.2968 17.9036 72.5419 17.8629Z" fill="#3EC1F0"/>
<path opacity="0.1" d="M244.657 24.0483L245.187 24.031C245.011 23.9622 244.855 23.848 244.737 23.6999C244.619 23.5518 244.542 23.3751 244.514 23.1876C244.492 22.505 245.489 21.9154 246.734 21.8748L262.579 21.358C263.824 21.3174 264.861 21.8406 264.883 22.5233C264.906 23.2022 263.905 23.7919 262.66 23.8325L262.134 23.8497C262.31 23.9185 262.465 24.0327 262.583 24.1808C262.701 24.3289 262.778 24.5056 262.806 24.6931C262.825 25.2755 262.1 25.7894 261.115 25.9515L265.677 25.8028C266.922 25.7621 267.955 26.2855 267.978 26.9682C268 27.6508 267.003 28.2404 265.758 28.281L249.913 28.7978C248.668 28.8384 247.63 28.3114 247.608 27.6325C247.589 27.0501 248.314 26.5362 249.299 26.3741L244.738 26.5228C243.496 26.5633 242.459 26.0401 242.437 25.3574C242.415 24.6748 243.416 24.0888 244.657 24.0483Z" fill="#231F21"/>
<path opacity="0.1" d="M50.2526 80.8831L50.7788 80.8659C50.6022 80.7974 50.4469 80.6833 50.3287 80.5351C50.2105 80.387 50.1336 80.2101 50.1058 80.0225C50.0837 79.3436 51.0845 78.7502 52.3258 78.7097L68.1745 78.1928C69.4158 78.1523 70.4531 78.6792 70.4753 79.3582C70.4975 80.0408 69.4967 80.6305 68.2553 80.671L67.7254 80.6883C67.9021 80.7555 68.0577 80.8688 68.176 81.0164C68.2943 81.1641 68.371 81.3407 68.3982 81.528C68.4172 82.1104 67.6921 82.6243 66.707 82.7864L71.2685 82.6377C72.5136 82.597 73.5509 83.124 73.573 83.8029C73.5951 84.4818 72.5944 85.0753 71.3493 85.1159L55.5192 85.6322C54.2741 85.6728 53.2407 85.1494 53.2184 84.4668C53.1995 83.8881 53.9247 83.3742 54.9097 83.2084L50.3333 83.3576C49.0883 83.3982 48.0511 82.875 48.0288 82.1923C48.0066 81.5097 49.0224 80.9232 50.2526 80.8831Z" fill="#3EC1F0"/>
<path opacity="0.1" d="M352.918 203.357C355.154 190.23 321.988 173.612 278.84 166.241C235.691 158.869 198.899 163.534 196.663 176.662C194.426 189.789 227.592 206.407 270.741 213.779C313.889 221.15 350.681 216.485 352.918 203.357Z" fill="#3EC1F0"/>
<path d="M263.634 122.624C263.634 122.624 267.172 101.781 283.321 103.174C283.321 103.174 294.462 103.576 296.986 110.788L297.512 126.893L263.634 122.624Z" fill="#3A3768"/>
<path d="M351.976 127.423L208.342 120.204L190.084 124.64L192.071 150.294L193.328 150.405L196.013 188.938L329.201 207.344L350.565 188.938L350.565 154.695L352.441 153.509L351.976 127.423Z" fill="#D48A9B"/>
<path opacity="0.05" d="M352.17 127.416L352.635 153.502L337.361 161.295L336.28 134.074L352.17 127.416Z" fill="black"/>
<path opacity="0.05" d="M350.566 154.721L352.094 195.747L337.569 208.889L336.978 161.307L350.566 154.721Z" fill="black"/>
<path opacity="0.05" d="M193.572 151.935L337.206 164.746L337.172 161.427L193.422 150.633L193.572 151.935Z" fill="black"/>
<path opacity="0.05" d="M350.615 156.227L350.566 154.721L336.597 161.446L336.705 164.77L350.615 156.227Z" fill="black"/>
<path d="M189.893 124.646L208.151 120.211L351.784 127.429L335.898 134.086L189.893 124.646Z" fill="#EFC6CD"/>
<path opacity="0.1" d="M336.548 128.665L343.592 128.896L332.056 132.767L326.109 132.534L336.548 128.665Z" fill="black"/>
<path d="M336.538 128.357L343.582 128.588L332.046 132.462L326.099 132.226L336.538 128.357Z" fill="white"/>
<path d="M335.722 129.175C335.996 129.047 336.296 129.263 336.594 129.309C336.766 129.337 336.939 129.298 337.11 129.326C337.456 129.359 337.805 129.578 338.131 129.452" fill="#D3DAE1"/>
<path d="M335.366 129.398C335.637 129.27 335.94 129.483 336.239 129.533C336.41 129.557 336.583 129.522 336.755 129.546C337.101 129.583 337.449 129.802 337.775 129.676" fill="#D3DAE1"/>
<path d="M334.542 129.848C334.816 129.72 335.12 129.933 335.418 129.979C335.586 130.007 335.763 129.968 335.931 129.996C336.28 130.033 336.629 130.252 336.951 130.122" fill="#D3DAE1"/>
<path opacity="0.1" d="M306.05 126.191L313.094 126.425L301.558 130.296L295.611 130.06L306.05 126.191Z" fill="black"/>
<path d="M306.04 125.887L313.084 126.117L301.548 129.988L295.601 129.755L306.04 125.887Z" fill="white"/>
<path d="M305.224 126.704C305.498 126.577 305.798 126.79 306.096 126.839C306.268 126.863 306.441 126.828 306.612 126.852C306.958 126.889 307.307 127.108 307.633 126.982" fill="#D3DAE1"/>
<path d="M304.868 126.928C305.139 126.8 305.442 127.013 305.741 127.059C305.912 127.087 306.085 127.048 306.257 127.075C306.603 127.112 306.951 127.331 307.277 127.202" fill="#D3DAE1"/>
<path d="M304.044 127.374C304.318 127.246 304.622 127.463 304.92 127.509C305.088 127.537 305.265 127.498 305.433 127.526C305.782 127.559 306.131 127.781 306.453 127.652" fill="#D3DAE1"/>
<path opacity="0.1" d="M320.68 127.448L327.729 127.679L316.192 131.553L310.242 131.317L320.68 127.448Z" fill="black"/>
<path d="M320.671 127.144L327.719 127.374L316.182 131.245L310.232 131.009L320.671 127.144Z" fill="white"/>
<path d="M319.855 127.961C320.129 127.834 320.432 128.047 320.731 128.093C320.898 128.12 321.072 128.081 321.243 128.109C321.589 128.143 321.941 128.365 322.264 128.236" fill="#D3DAE1"/>
<path d="M319.499 128.181C319.773 128.053 320.077 128.27 320.375 128.316C320.543 128.344 320.716 128.305 320.888 128.333C321.234 128.366 321.586 128.588 321.908 128.459" fill="#D3DAE1"/>
<path d="M318.679 128.631C318.949 128.504 319.253 128.716 319.551 128.766C319.723 128.79 319.896 128.755 320.067 128.779C320.414 128.816 320.762 129.035 321.088 128.909" fill="#D3DAE1"/>
<path opacity="0.1" d="M166.232 276.77C207.67 275.419 241.036 267.4 240.758 258.86C240.479 250.32 206.661 244.493 165.223 245.844C123.785 247.196 90.4192 255.214 90.6977 263.754C90.9762 272.294 124.794 278.122 166.232 276.77Z" fill="#3EC1F0"/>
<path d="M243.76 131.999C242.73 124.984 239.343 118.369 239.343 118.369L239.506 115.987C239.506 115.987 239.519 114.798 239.383 113.019C239.356 111.907 239.465 110.796 239.71 109.711C240.291 107.631 238.748 105.148 238.578 104.92C238.407 104.691 238.504 100.168 236.972 98.0011C235.44 95.8339 225.582 92.033 225.582 92.033C225.582 92.033 225.024 90.9556 224.245 89.6997L224.307 89.5677C223.668 88.4916 222.888 87.5065 221.986 86.6388C221.369 86.0202 220.782 85.6753 220.325 85.8685C220.117 85.2589 219.952 84.635 219.834 84.0016C219.931 84.0244 220.032 84.0471 220.129 84.0625C220.533 84.1427 220.95 84.1392 221.353 84.0523C222.25 83.8188 222.824 82.9867 223.303 82.2061C225.691 78.3029 227.718 74.04 228.012 69.5032C228.1 68.5763 228.025 67.6411 227.792 66.7399C227.56 66.0408 227.247 65.3716 226.859 64.7462C226.166 63.4596 225.304 62.2722 224.295 61.2162C222.505 59.4474 220.082 58.4085 217.608 57.8281C214.82 57.1742 211.934 57.0529 209.101 57.4705C208.363 57.58 207.626 57.7266 206.886 57.799C205.948 57.8711 205.005 57.8857 204.065 57.8428L199.205 57.719L199.18 57.6455L198.371 57.6236C198.073 58.2684 198.416 59.0112 198.832 59.5918C199.248 60.1725 199.724 60.7772 199.713 61.4795C199.703 62.1817 199.214 62.7622 198.836 63.365C198.459 63.9678 198.184 64.7493 198.6 65.3151C198.658 65.3933 198.726 65.4635 198.803 65.5239C199.236 65.9443 199.967 65.9687 200.601 65.9406L200.712 65.937C199.185 68.0932 198.406 70.6912 198.494 73.3331C198.578 75.5905 199.281 77.7812 200.527 79.6651C201.772 81.5491 203.51 83.0538 205.553 84.0143C205.631 84.2532 205.709 84.4994 205.784 84.7495C206.604 87.3315 206.956 90.0392 206.824 92.7451L206.745 92.9333L206.687 92.7384C206.687 92.7384 201.099 96.8054 199.436 97.8884C197.772 98.9714 196.181 102.511 196.131 103.463C196.08 104.415 193.872 118.827 193.872 118.827C193.375 120.287 192.975 121.779 192.675 123.293L189.36 126.405C189.36 126.405 182.34 127.27 180.286 126.861L180.358 127.252C178.548 126.9 176.709 126.712 174.865 126.689C173.855 126.592 172.837 126.762 171.913 127.182L171.844 127.218L171.789 127.246C170.721 127.428 169.683 127.757 168.705 128.223C168.588 128.275 168.482 128.327 168.38 128.378L168.387 127.892L160.755 127.747L156.838 127.084C156.838 127.084 155.424 126.016 154.618 126.205C153.811 126.395 152.074 125.338 152.074 125.338C151.676 125.046 151.248 124.798 150.796 124.599C150.637 123.706 150.538 123.163 150.538 123.163C150.538 123.163 147.118 111.234 144.62 104.237C142.947 99.5637 140.684 97.3089 139.362 96.3381C138.755 95.3552 138.356 94.722 138.356 94.722C138.079 93.8619 136.652 91.9513 136.302 91.9144C136.243 91.8272 136.201 91.784 136.179 91.7847C136.104 91.7792 136.029 91.7931 135.961 91.8252C135.22 88.6703 134.72 84.7016 135.581 81.201C136.88 80.0599 137.91 78.6454 138.598 77.0589C139.287 75.4724 139.616 73.7531 139.563 72.0241C139.561 71.9722 139.56 71.9203 139.558 71.8683C139.556 71.8164 139.554 71.7607 139.553 71.7088C139.462 68.9517 138.4 66.3156 136.554 64.2674L136.423 64.1305C136.456 64.1055 136.487 64.0785 136.517 64.0495C136.788 63.8143 136.99 63.51 137.103 63.169C137.215 62.8279 137.233 62.4628 137.155 62.1123C136.965 61.4054 136.391 60.8634 136.083 60.1975C135.895 59.6833 135.74 59.1573 135.62 58.623C135.377 57.8665 134.954 57.1805 134.387 56.6243L134.447 56.7709C132.941 55.1822 130.417 54.4512 128.18 54.8881C126.517 55.2098 124.986 56.0396 123.316 56.3355C122.117 56.5454 120.887 56.4741 119.679 56.6361C118.558 56.7885 117.474 57.1408 116.478 57.6764C116.217 57.7977 115.988 57.9781 115.809 58.2033C115.646 58.5025 115.541 58.8297 115.499 59.1679C115.137 60.6838 113.868 61.7985 112.964 63.0833C111.931 64.5512 111.362 66.2957 111.331 68.0909C111.309 68.5476 111.368 69.0046 111.505 69.4408C111.595 69.7015 111.73 69.946 111.798 70.2112C112.009 71.0213 111.61 71.8477 111.429 72.6632C111.201 73.7035 111.329 74.7902 111.793 75.7488C113.363 78.9806 118.205 79.9183 119.318 83.3285C120.095 83.6558 120.912 83.8789 121.747 83.992C121.825 84.3312 121.895 84.6743 121.955 85.0214C121.933 85.0317 121.912 85.0449 121.893 85.0606C120.638 86.368 120.395 88.8233 120.395 88.8233L120.243 88.9545C119.728 89.4096 117.964 90.9378 116.363 92.1228C114.461 93.533 111.366 98.15 109.142 99.5707C106.918 100.991 105.321 109.351 105.909 112.352C106.496 115.352 108.795 123.745 108.085 126.858C107.374 129.971 109.86 143.991 109.86 143.991C111.229 144.206 112.572 144.558 113.871 145.042L113.85 145.659L113.789 147.518C113.789 147.518 110.55 160.934 112.288 171.124C114.027 181.314 112.008 182.434 112.008 182.434C112.008 182.434 112.586 186.958 111.559 188.577C110.533 190.196 110.427 193.683 110.427 193.683C110.427 193.683 110.575 201.496 110.862 203.697C111.149 205.897 111.387 209.915 110.662 210.89C109.937 211.864 108.736 218.131 108.905 220.027C109.075 221.923 106.407 226.345 108.101 231.886C109.795 237.428 103.84 237.73 103.84 237.73C103.84 237.73 104.878 246.238 106.577 248.626L106.826 248.967C106.79 249.109 106.754 249.259 106.715 249.42C106.176 251.666 105.453 255.207 106.062 256.037C106.967 257.278 107.394 257.048 107.394 257.048L107.902 262.736C107.902 262.736 114.566 268.012 119.532 267.642C124.498 267.272 123.358 262.232 123.358 262.232L118.764 251.374L118.607 251.008L123.023 241.951C123.023 241.951 124.192 238.005 124.47 236.622C124.748 235.239 126.349 230.318 126.349 230.318C126.349 230.318 130.452 219.622 130.503 218.35C130.554 217.078 130.671 210.215 131.49 208.81C132.308 207.406 134.43 199.43 134.43 199.43L134.491 199.48C134.907 199.863 135.212 200.353 135.372 200.897C135.532 201.44 135.542 202.017 135.4 202.566C134.921 204.587 135.381 208.691 135.381 208.691C135.381 208.691 135.28 212.181 134.905 213.991C134.53 215.801 134.904 230.47 135.774 233.925C136.469 236.691 136.62 241.908 136.655 243.883C136.216 245.996 135.856 248.614 136.692 248.895C138.118 249.38 145.247 249.04 145.247 249.04C145.247 249.04 148.237 247.884 152.467 251.445C156.697 255.006 169.181 249.845 169.181 249.845C169.181 249.845 173.038 248.661 165.264 245.854C159.84 243.895 156.336 242.587 154.026 241.14C154.075 241.038 154.127 240.936 154.172 240.827C154.172 240.827 150.94 237.961 153.362 232.616C155.785 227.271 155.532 222.826 155.532 222.826L155.387 205.082L153.323 181.588L151.513 156.92L151.689 156.855C152.007 161.39 153.246 172.172 157.813 169.925C163.563 167.097 158.367 160.399 158.367 160.399L155.58 155.373L156.353 155.08L153.113 145.693C152.771 143.851 152.672 141.973 152.819 140.106C152.842 139.015 152.784 137.925 152.646 136.843C156.463 136.046 160.116 135.214 160.781 135.356C161.565 135.52 165.92 135.415 167.632 135.366C167.087 135.822 166.653 136.271 166.653 136.271L173.776 140.741C173.776 140.741 176.098 139.369 176.546 137.98C177.027 137.841 177.467 137.587 177.828 137.24C177.955 138.859 178.442 140.6 179.94 140.592C180.315 140.587 180.684 140.502 181.023 140.341L192.347 137.71L191.569 143.859L192.29 145.05C192.114 150.222 191.896 155.714 191.705 160.545L191.58 161.604L191.662 161.62C191.363 169.057 191.113 174.692 191.113 174.692C191.711 173.453 192.669 172.424 193.862 171.739L194.295 182.748C194.295 182.748 195.433 200.14 195.511 202.514C195.588 204.889 195.839 210.188 195.839 210.188C195.839 210.188 197.27 216.636 198.066 218.75C198.862 220.863 199.75 230.579 199.75 230.579C199.75 230.579 201.542 233.213 200.845 234.257C200.149 235.301 203.79 237.407 203.79 237.407C203.79 237.407 201.619 240.568 201.523 242.632C201.512 242.87 201.754 243.115 202.185 243.354C202.055 243.466 201.921 243.578 201.773 243.686C200.743 244.426 199.218 244.966 196.891 244.841C190.548 244.491 186.281 250.494 190.211 251.554C194.14 252.615 205.82 252.471 205.82 252.471C205.82 252.471 209.284 250.149 212.08 251.053C212.115 253.377 212.3 255.502 212.327 255.784L212.295 255.811C210.691 257.349 207.609 260.004 204.553 261.148C200.155 262.795 199.368 268.923 205.149 269.525C210.929 270.128 219.303 268.113 219.303 268.113C219.303 268.113 223.573 264.728 226.874 263.907C230.175 263.086 232.961 261.409 232.332 259.528C231.922 258.327 230.866 255.179 230.152 253.063C230.111 252.936 230.069 252.813 230.029 252.696C230.121 252.47 230.214 252.237 230.299 251.996C230.299 251.996 228.309 243.189 229.615 240.929C230.921 238.669 229.468 216.53 229.468 216.53C229.468 216.53 226.932 210.989 228.04 207.548C229.149 204.106 225.826 199.379 225.826 199.379C225.826 199.379 225.855 189.688 226.606 184.264C226.64 184.032 226.674 183.809 226.706 183.592C228.242 183.081 229.735 182.447 231.17 181.697C231.17 181.697 231.584 169.48 231.979 166.696C232.019 166.435 232.072 166.014 232.136 165.466L232.442 163.498L232.807 161.258L234.042 153.623L236.604 150.071L243.267 142.797C243.267 142.797 244.801 139.018 243.76 131.999ZM136.05 91.9375L136 91.9763C135.991 91.9497 135.984 91.9227 135.979 91.8953C136.001 91.9123 136.025 91.9265 136.05 91.9375ZM204.429 98.3569L204.181 98.948L205.124 97.9442L203.85 99.4714L204.264 98.522L204.429 98.3569ZM198.292 112.187C198.059 112.874 197.808 113.618 197.548 114.391L198.02 112.812L198.292 112.187Z" fill="url(#paint0_linear)"/>
<path d="M177.751 135.077C177.751 135.077 177.04 141.158 179.766 141.147C182.492 141.136 184.157 136.332 184.157 136.332L182.922 132.573L177.751 135.077Z" fill="#585B8A"/>
<path opacity="0.2" d="M177.751 135.077C177.751 135.077 177.04 141.158 179.766 141.147C182.492 141.136 184.157 136.332 184.157 136.332L182.922 132.573L177.751 135.077Z" fill="black"/>
<path d="M121.016 268.043C116.176 268.413 109.676 263.135 109.676 263.135L109.175 257.451C109.175 257.451 108.763 257.676 107.877 256.439C107.282 255.607 107.983 252.06 108.507 249.826C108.761 248.733 108.973 247.954 108.973 247.954L119.701 250.456L120.252 251.786L124.739 262.64C124.739 262.64 125.852 267.674 121.016 268.043Z" fill="#636992"/>
<path d="M169.356 250.318C169.356 250.318 157.19 255.465 153.086 251.904C148.982 248.342 146.049 249.493 146.049 249.493C146.049 249.493 139.101 249.827 137.712 249.341C136.894 249.06 137.246 246.408 137.681 244.291C137.975 242.83 138.306 241.619 138.306 241.619C138.306 241.619 150.282 237.11 152.261 239.578C152.856 240.303 153.558 240.932 154.344 241.442C156.589 242.958 160.064 244.286 165.557 246.324C173.113 249.137 169.356 250.318 169.356 250.318Z" fill="#636992"/>
<path d="M155.155 154.298L158.744 160.937C158.744 160.937 163.814 167.635 158.212 170.454C152.61 173.274 152.136 155.455 152.136 155.455L155.155 154.298Z" fill="#FFD6D6"/>
<path d="M139.133 96.2381C139.133 96.2381 142.875 97.8058 145.318 104.797C147.76 111.789 151.102 123.717 151.102 123.717C151.102 123.717 153.547 137.252 153.338 140.639C153.196 142.505 153.293 144.381 153.628 146.222L156.779 155.62L151.157 157.808L141.322 124.563L139.133 96.2381Z" fill="#DCE6F2"/>
<path opacity="0.05" d="M139.133 96.2381C139.133 96.2381 142.875 97.8058 145.318 104.797C147.76 111.789 151.102 123.717 151.102 123.717C151.102 123.717 153.547 137.252 153.338 140.639C153.196 142.505 153.293 144.381 153.628 146.222L156.779 155.62L151.157 157.808L141.322 124.563L139.133 96.2381Z" fill="black"/>
<path opacity="0.1" d="M119.703 250.46L120.254 251.79L119.67 253.001C117.281 254.134 111.251 253.487 111.251 253.487C111.251 253.487 110.093 252.11 108.498 249.834C108.752 248.741 108.964 247.961 108.964 247.961L119.703 250.46Z" fill="black"/>
<path opacity="0.1" d="M154.745 241.926C151.9 248.994 141.374 246.748 138.444 245.971C137.961 245.842 137.695 245.754 137.695 245.754C137.695 245.754 137.695 245.186 137.673 244.292C137.967 242.83 138.298 241.62 138.298 241.62C138.298 241.62 150.274 237.11 152.254 239.578C152.848 240.303 153.55 240.932 154.336 241.442C154.458 241.615 154.595 241.777 154.745 241.926Z" fill="black"/>
<path d="M153.926 233.088C151.571 238.438 154.724 241.295 154.724 241.295C151.879 248.359 141.353 246.118 138.423 245.337C137.94 245.211 137.674 245.123 137.674 245.123C137.674 245.123 137.648 237.838 136.797 234.382C135.946 230.926 135.572 216.268 135.936 214.462C136.3 212.657 136.394 209.166 136.394 209.166C136.394 209.166 135.945 205.066 136.405 203.046C136.546 202.499 136.538 201.925 136.382 201.383C136.226 200.84 135.928 200.35 135.518 199.962L135.461 199.908C135.461 199.908 133.403 207.893 132.603 209.286C131.802 210.679 131.715 217.549 131.649 218.818C131.582 220.086 127.609 230.774 127.609 230.774C127.609 230.774 126.085 235.678 125.815 237.057C125.545 238.437 124.405 242.385 124.405 242.385L119.648 252.359C117.259 253.492 111.229 252.846 111.229 252.846C111.229 252.846 110.024 251.399 108.363 249.032C106.702 246.665 105.689 238.145 105.689 238.145C105.689 238.145 111.478 237.848 109.821 232.309C108.164 226.77 110.761 222.355 110.595 220.459C110.429 218.563 111.594 212.3 112.3 211.326C113.007 210.353 112.769 206.349 112.485 204.141C112.202 201.933 112.055 194.128 112.055 194.128C112.055 194.128 112.152 190.641 113.153 189.026C114.154 187.412 113.587 182.888 113.587 182.888C113.587 182.888 115.55 181.769 113.849 171.585C112.148 161.402 115.306 147.999 115.306 147.999L115.368 146.14L115.462 143.129C115.462 143.129 145.523 140.247 148.022 142.487C148.676 143.11 149.221 143.839 149.632 144.644C150.519 146.401 151.166 148.27 151.556 150.2L153.862 182.109L155.892 205.582L156.048 223.31C156.048 223.31 156.285 227.73 153.926 233.088Z" fill="#565988"/>
<path opacity="0.1" d="M142.94 170.321L142.015 238.962L138.424 245.333C137.941 245.208 137.675 245.12 137.675 245.12C137.675 245.12 137.649 237.834 136.798 234.378C135.947 230.922 135.573 216.264 135.937 214.459C136.301 212.653 136.395 209.163 136.395 209.163C136.395 209.163 135.946 205.062 136.406 203.042C136.547 202.495 136.539 201.921 136.383 201.379C136.227 200.837 135.929 200.346 135.519 199.958L135.559 199.586L142.94 170.321Z" fill="black"/>
<path opacity="0.1" d="M111.3 245.033C111.3 245.033 119.409 241.496 120.707 242.498C122.004 243.499 111.106 245.448 111.106 245.448L111.3 245.033Z" fill="black"/>
<path opacity="0.1" d="M151.569 235.063C151.258 235.18 143.347 238.302 144.183 241.32C145.02 244.338 151.569 235.063 151.569 235.063Z" fill="black"/>
<path d="M121.469 79.8751C121.469 79.8751 124.363 86.2726 123.052 89.643C121.741 93.0134 138.669 98.1584 138.669 98.1584C138.669 98.1584 133.361 85.6634 137.868 78.3894C142.375 71.1155 121.469 79.8751 121.469 79.8751Z" fill="#FFD6D6"/>
<path d="M225.618 264.42C222.402 265.238 218.243 268.619 218.243 268.619C218.243 268.619 210.085 270.627 204.449 270.02C198.813 269.413 199.566 263.29 203.86 261.646C206.839 260.509 209.842 257.844 211.406 256.323C212.096 255.643 212.504 255.173 212.504 255.173L228.123 251.495C228.123 251.495 228.407 252.366 228.803 253.568C229.503 255.688 230.536 258.833 230.931 260.031C231.546 261.931 228.833 263.602 225.618 264.42Z" fill="#505484"/>
<path d="M221.194 252.371C221.194 252.371 214.581 253.3 211.765 251.81C208.949 250.319 205.081 252.978 205.081 252.978C205.081 252.978 193.697 253.112 189.868 252.048C186.038 250.985 190.19 244.982 196.371 245.345C198.623 245.475 200.126 244.932 201.13 244.194C202.178 243.423 202.889 242.277 203.114 240.995L216.48 241.35L218.487 246.023L221.194 252.371Z" fill="#505484"/>
<path opacity="0.1" d="M218.761 248.176C218.761 248.176 203.174 246.144 201.129 244.194C202.178 243.423 202.888 242.277 203.114 240.995L216.479 241.35L218.487 246.023L218.761 248.176Z" fill="black"/>
<path d="M192.877 160.117L193.792 183.28C193.792 183.28 194.912 200.662 194.989 203.036C195.067 205.411 195.317 210.702 195.317 210.702C195.317 210.702 196.715 217.149 197.496 219.262C198.277 221.376 199.147 231.093 199.147 231.093C199.147 231.093 200.894 233.729 200.216 234.772C199.538 235.815 203.086 237.924 203.086 237.924C203.086 237.924 200.964 241.083 200.886 243.144C200.809 245.204 218.739 247.542 218.739 247.542L209.464 176.437L203.349 158.747L192.877 160.117Z" fill="#575988"/>
<path opacity="0.1" d="M192.877 160.117L193.792 183.28C193.792 183.28 194.912 200.662 194.989 203.036C195.067 205.411 195.317 210.702 195.317 210.702C195.317 210.702 196.715 217.149 197.496 219.262C198.277 221.376 199.147 231.093 199.147 231.093C199.147 231.093 200.894 233.729 200.216 234.772C199.538 235.815 203.086 237.924 203.086 237.924C203.086 237.924 200.964 241.083 200.886 243.144C200.809 245.204 218.739 247.542 218.739 247.542L209.464 176.437L203.349 158.747L192.877 160.117Z" fill="black"/>
<path opacity="0.1" d="M228.804 253.586C224.044 266.076 211.458 256.967 211.458 256.967C211.458 256.967 211.45 256.73 211.407 256.323C212.097 255.643 212.505 255.173 212.505 255.173L228.124 251.495C228.124 251.495 228.409 252.385 228.804 253.586Z" fill="black"/>
<path d="M228.946 252.516C224.312 265.665 211.436 256.333 211.436 256.333C211.436 256.333 210.82 249.623 211.512 246.514C212.205 243.406 210.239 234.203 210.239 234.203C210.239 234.203 209.022 226.009 208.093 224.142C207.164 222.274 207.118 218.473 207.108 218.158C207.098 217.842 207.33 215.298 206.562 213.581C205.794 211.865 205.254 207.607 205.254 207.607C205.254 207.607 205.058 201.597 204.231 198.063L201.382 185.9L196.14 160.972L197.514 160.69L222.137 155.534C222.137 155.534 227.573 179.126 226.07 181.611C225.746 182.156 225.484 183.335 225.285 184.849C224.557 190.265 224.535 199.948 224.535 199.948C224.535 199.948 227.772 204.671 226.7 208.111C225.629 211.552 228.106 217.09 228.106 217.09C228.106 217.09 229.54 239.212 228.267 241.47C226.994 243.729 228.946 252.516 228.946 252.516Z" fill="#575988"/>
<path d="M221.295 90.7096C221.295 90.7096 199.378 107.257 204.174 99.1823C206.759 94.8345 206.081 89.4268 204.881 85.3659C204.273 83.3003 203.462 81.3001 202.46 79.3949C202.46 79.3949 221.257 70.6558 218.967 78.0134C218.43 79.7277 218.237 81.5313 218.398 83.3206C218.637 86.0104 219.643 88.575 221.295 90.7096Z" fill="#D28690"/>
<path d="M182.085 128.247C182.085 128.247 172.517 125.815 171.026 128.556C169.535 131.297 171.781 137.133 174.672 137.989C177.564 138.845 183.994 134.465 183.994 134.465L182.085 128.247Z" fill="#D28690"/>
<path d="M192.784 123.23L188.952 126.998C188.952 126.998 182.099 127.853 180.108 127.442C180.108 127.442 182.325 139.563 179.765 141.15L195.616 137.388L192.784 123.23Z" fill="#585B8A"/>
<path opacity="0.1" d="M192.784 123.23L188.952 126.998C188.952 126.998 182.099 127.853 180.108 127.442C180.108 127.442 182.325 139.563 179.765 141.15L195.616 137.388L192.784 123.23Z" fill="black"/>
<path opacity="0.1" d="M140.364 72.6072C140.466 75.7558 139.316 78.8162 137.164 81.1151C135.013 83.414 132.038 84.7632 128.893 84.8658C122.713 82.1371 116.862 79.9436 116.648 73.3807C116.533 71.7855 116.741 70.1834 117.259 68.6706C117.777 67.1578 118.595 65.7653 119.664 64.5768C120.733 63.3882 122.031 62.4281 123.479 61.7539C124.928 61.0797 126.497 60.7053 128.094 60.6532C129.691 60.6011 131.281 60.8724 132.771 61.4508C134.26 62.0292 135.618 62.9028 136.762 64.0191C137.906 65.1355 138.813 66.4716 139.429 67.9475C140.044 69.4233 140.356 71.0084 140.345 72.6078L140.364 72.6072Z" fill="black"/>
<path d="M140.354 72.2881C140.447 75.08 139.552 77.815 137.828 80.0108C136.103 82.2065 133.659 83.722 130.927 84.2899C128.195 84.8578 125.351 84.4417 122.895 83.1149C120.44 81.7881 118.531 79.6359 117.506 77.0379C116.48 74.4398 116.404 71.5627 117.291 68.9141C118.177 66.2654 119.969 64.0152 122.351 62.5604C124.733 61.1056 127.551 60.5396 130.309 60.9622C133.068 61.3848 135.588 62.7689 137.427 64.8704C139.227 66.9313 140.261 69.5517 140.354 72.2881Z" fill="#FFD6D6"/>
<path opacity="0.1" d="M149.632 144.655C148.483 145.423 147.276 146.101 146.022 146.682C146.022 146.682 139.991 146.006 139.157 147.062C138.324 148.118 130.681 148.764 130.681 148.764C130.681 148.764 118.972 148.593 117.185 147.147C116.634 146.729 116.024 146.394 115.376 146.151L115.47 143.14C115.47 143.14 145.531 140.258 148.03 142.498C148.682 143.121 149.224 143.851 149.632 144.655Z" fill="black"/>
<path d="M151.027 142.482C150.834 143.832 146.002 146.047 146.002 146.047C146.002 146.047 139.971 145.375 139.137 146.431C138.304 147.487 130.661 148.134 130.661 148.134C130.661 148.134 118.952 147.958 117.165 146.513C115.378 145.067 111.482 144.47 111.482 144.47C111.482 144.47 109.048 130.459 109.74 127.35C110.433 124.241 108.178 115.839 107.606 112.85C107.033 109.86 108.578 101.498 110.747 100.083C112.915 98.6678 115.929 94.0534 117.779 92.6486C119.339 91.465 121.055 89.942 121.555 89.4838L121.703 89.3527C121.703 89.3527 121.942 86.89 123.164 85.5911C124.387 84.2922 136.298 93.1588 136.298 93.1588C136.298 93.1588 136.403 93.8684 137.148 92.4997C137.316 92.1934 138.919 94.3546 139.216 95.2808C139.216 95.2808 145.895 106.149 146.366 108.418C146.837 110.686 148.736 118.078 149.111 119.886C149.207 120.35 149.394 121.986 149.622 124.177C149.665 124.607 149.706 125.062 149.755 125.536C150.107 129.171 150.511 133.815 150.778 137.327C150.791 137.728 150.837 138.113 150.86 138.484C150.983 139.813 151.039 141.147 151.027 142.482Z" fill="#DCE6F2"/>
<path opacity="0.1" d="M109.982 115.238C109.982 115.238 114.498 120.394 115.921 120.348C117.344 120.301 109.982 115.238 109.982 115.238Z" fill="black"/>
<path opacity="0.1" d="M119.503 126.329C119.503 126.329 112.645 134.311 113.64 135.705C114.635 137.099 119.503 126.329 119.503 126.329Z" fill="black"/>
<path opacity="0.1" d="M114.792 141.922C114.792 141.922 122.653 132.718 122.923 129.623L114.792 141.922Z" fill="black"/>
<path opacity="0.1" d="M125.082 142.217C125.082 142.217 134.32 136.928 134.98 132.948C135.641 128.967 125.082 142.217 125.082 142.217Z" fill="black"/>
<path opacity="0.1" d="M135.442 93.7475L134.24 96.9509L136.445 97.9077L138.774 103.811C138.774 103.811 145.043 115.402 145.006 121.539C144.969 127.675 146.573 136.844 146.573 136.844L149.947 136.103L147.758 118.129C147.418 115.346 146.631 112.636 145.427 110.105C142.512 103.975 137.09 92.6612 136.772 92.6716C136.338 92.6858 136.647 92.8354 136.647 92.8354L135.442 93.7475Z" fill="black"/>
<path d="M135.746 93.4181L134.545 96.6252L136.754 97.582L139.079 103.485C139.079 103.485 145.348 115.076 145.311 121.213C145.273 127.349 146.878 136.519 146.878 136.519L150.256 135.777L148.063 117.803C147.726 115.02 146.94 112.31 145.735 109.779C142.82 103.646 137.399 92.3355 137.084 92.3458C136.646 92.36 136.955 92.5096 136.955 92.5096L135.746 93.4181Z" fill="#575989"/>
<path d="M175.728 138.642C174.072 138.569 170.041 136.692 168.439 135.908L167.76 135.559L167.642 129.431C168.024 129.189 168.42 128.972 168.83 128.78C170.905 127.791 175.181 126.4 177.476 130.355C180.572 135.657 177.827 138.714 175.728 138.642Z" fill="#FFD6D6"/>
<path opacity="0.1" d="M137.427 64.8704C137.261 64.9824 137.076 65.065 136.882 65.1147C135.517 65.46 133.915 64.3276 132.761 65.1265C132.058 65.6174 131.922 66.5912 131.854 67.4476C131.734 68.9371 131.614 70.4166 131.494 71.8863C131.476 72.4087 131.383 72.9258 131.218 73.4217C130.68 74.7726 129.103 75.4516 127.646 75.4769C127.077 75.5361 126.507 75.3678 126.062 75.0086C125.797 74.7572 125.648 74.3981 125.359 74.1699C123.456 72.6758 123.017 76.5043 123.541 77.5717C124.384 79.3157 127.23 80.9313 126.133 83.2177C125.948 83.5895 125.659 83.8995 125.301 84.1101C123.519 83.6144 121.876 82.7082 120.506 81.4638C119.135 80.2195 118.074 78.6715 117.408 76.9435C116.741 75.2156 116.488 73.3556 116.667 71.512C116.847 69.6685 117.454 67.8926 118.442 66.3262C119.429 64.7597 120.768 63.4462 122.353 62.4905C123.938 61.5347 125.724 60.9633 127.569 60.8219C129.413 60.6804 131.265 60.9729 132.977 61.6758C134.689 62.3787 136.213 63.4727 137.427 64.8704Z" fill="black"/>
<path d="M125.042 74.1653C125.328 74.39 125.48 74.749 125.745 75.0003C126.191 75.3592 126.76 75.5275 127.329 75.4686C128.786 75.4434 130.363 74.768 130.897 73.4099C131.066 72.9159 131.16 72.3997 131.177 71.878L131.537 67.4393C131.606 66.5829 131.737 65.6093 132.444 65.1183C133.598 64.3379 135.2 65.4518 136.565 65.1064C137.057 64.9642 137.476 64.6399 137.737 64.1996C137.998 63.7592 138.082 63.2358 137.972 62.7357C137.789 62.0323 137.23 61.4897 136.93 60.8236C136.745 60.3102 136.592 59.7855 136.474 59.2526C135.613 56.3987 132.185 54.8913 129.266 55.4693C127.644 55.7933 126.154 56.6218 124.528 56.9125C123.362 57.1214 122.162 57.0491 120.984 57.2138C119.889 57.3631 118.832 57.7136 117.864 58.2477C117.61 58.3706 117.387 58.5507 117.214 58.774C117.056 59.0732 116.953 59.3987 116.911 59.7347C116.563 61.2316 115.324 62.3676 114.442 63.6479C113.434 65.1209 112.879 66.8577 112.847 68.6432C112.826 69.0996 112.883 69.5564 113.017 69.9932C113.103 70.2503 113.234 70.4986 113.302 70.7638C113.51 71.5704 113.122 72.3964 112.944 73.2118C112.725 74.2521 112.851 75.3358 113.304 76.2974C114.834 79.5269 119.557 80.4685 120.644 83.8758C121.523 84.263 122.466 84.4841 123.425 84.5279C124.382 84.5152 125.399 84.0698 125.816 83.2057C126.91 80.9417 124.067 79.3037 123.224 77.5634C122.696 76.4925 123.124 72.6681 125.042 74.1653Z" fill="#353045"/>
<path opacity="0.1" d="M218.984 78.0128C218.447 79.7271 218.254 81.5307 218.416 83.32C217.861 83.8246 217.191 82.3906 216.543 82.7868C214.769 83.892 212.76 86.4495 210.522 86.5225C208.581 86.5871 206.653 86.1906 204.894 85.3654C204.287 83.2998 203.476 81.2996 202.474 79.3944C202.474 79.3944 221.274 70.6552 218.984 78.0128Z" fill="black"/>
<path d="M222.409 73.151C222.489 75.5915 221.844 78.0007 220.556 80.0741C219.268 82.1474 217.394 83.7917 215.173 84.7991C212.951 85.8065 210.481 86.1317 208.075 85.7336C205.669 85.3354 203.434 84.2319 201.654 82.5624C199.874 80.8929 198.629 78.7326 198.075 76.3545C197.522 73.9764 197.685 71.4874 198.544 69.2023C199.403 66.9172 200.92 64.9385 202.903 63.5166C204.885 62.0946 207.245 61.2932 209.682 61.2137C211.301 61.1604 212.914 61.4269 214.43 61.9981C215.945 62.5693 217.334 63.4338 218.516 64.5424C219.698 65.651 220.65 66.9818 221.318 68.4589C221.986 69.936 222.357 71.5304 222.409 73.151Z" fill="#D28690"/>
<path d="M222.545 93.4134C222.545 93.4134 220.308 96.0192 220 96.2372C219.692 96.4553 213.891 125.033 213.783 125.368C213.675 125.702 206.621 151.565 206.621 151.565L194.185 158.199L194.219 126.845L202.641 100.714C202.641 100.714 205.584 97.1345 206.488 95.8386C207.392 94.5427 218.942 86.5636 218.942 86.5636L221.094 90.6567L222.545 93.4134Z" fill="#F0F3F7"/>
<path opacity="0.1" d="M220.803 91.3013L206.609 102.193L206.189 96.4797C207.097 95.1837 218.644 87.2084 218.644 87.2084L220.803 91.3013Z" fill="black"/>
<path d="M221.096 90.6566L206.903 101.548L206.49 95.8385C207.397 94.5387 218.945 86.5635 218.945 86.5635L221.096 90.6566Z" fill="#F0F3F7"/>
<path d="M205.923 93.3093L206.491 95.8385L203.349 99.2501L205.754 93.352C205.754 93.352 200.322 97.4102 198.688 98.4922C197.054 99.5742 195.5 103.109 195.468 104.06C195.436 105.012 193.279 119.411 193.279 119.411C193.279 119.411 191.477 124.773 192.082 126.257C192.687 127.742 190.674 175.23 190.674 175.23C191.12 174.295 191.766 173.469 192.566 172.812C193.367 172.155 194.302 171.682 195.306 171.428L193.126 143.474C193.126 143.474 194.06 124.8 194.13 124.56C194.2 124.32 197.364 113.41 197.364 113.41L205.923 93.3093Z" fill="#585B8A"/>
<path opacity="0.1" d="M206.82 96.1434L206.738 101.346C206.738 101.346 203.584 112.572 202.461 114.428C201.338 116.284 198.094 127.238 198.094 127.238L196.681 146.129L193.256 147.826L191.442 144.725L193.694 126.453C193.694 126.453 198.563 110.938 199.305 109.328L202.994 100.844L206.82 96.1434Z" fill="black"/>
<path d="M206.492 95.8385L206.413 101.041C206.413 101.041 203.259 112.267 202.132 114.123C201.006 115.98 197.769 126.933 197.769 126.933L196.367 145.82L192.942 147.514L191.101 144.409L193.354 126.138C193.354 126.138 198.223 110.618 198.961 109.012L202.68 100.538L206.492 95.8385Z" fill="#663D5C"/>
<path d="M166.816 136.819L173.762 141.306C173.762 141.306 178.465 138.46 175.618 136.811C172.771 135.162 170.287 134.979 169.391 135.008C168.494 135.038 166.816 136.819 166.816 136.819Z" fill="#D28690"/>
<path d="M171.605 127.95C171.457 128.05 171.336 128.185 171.255 128.345C171.174 128.504 171.135 128.682 171.141 128.86C171.188 130.303 171.476 134.119 172.628 132.355C174.041 130.196 173.709 128.309 176.018 129.604C177.453 130.435 178.722 131.527 179.758 132.824L178.98 128.311C178.98 128.311 174.251 126.163 171.605 127.95Z" fill="#D28690"/>
<path opacity="0.1" d="M226.077 181.596C225.753 182.141 225.491 183.32 225.292 184.834C211.576 189.445 201.155 180.983 201.155 180.983C199.793 176.863 198.653 172.672 197.741 168.43C197.445 166.976 197.408 164.14 197.525 160.675L222.147 155.519C222.147 155.519 227.579 179.092 226.077 181.596Z" fill="black"/>
<path d="M237.987 110.35C237.424 112.43 237.798 116.61 237.798 116.61L232.987 143.686C232.987 143.686 230.899 164.496 230.515 167.279C230.131 170.062 229.739 182.268 229.739 182.268C213.881 190.703 201.113 180.353 201.113 180.353C199.751 176.231 198.612 172.04 197.699 167.796C196.753 163.125 198.473 144.232 199.305 135.838C199.554 133.352 199.726 131.787 199.726 131.787L203.369 116.229C203.369 116.229 208.04 103.052 209.813 99.1952C211.587 95.338 218.927 86.5641 218.927 86.5641C219.853 85.9323 221.434 88.005 222.62 89.9013C223.516 91.3353 224.194 92.6725 224.194 92.6725C224.194 92.6725 233.807 96.474 235.297 98.624C236.788 100.774 236.702 105.308 236.87 105.54C237.037 105.772 238.554 108.274 237.987 110.35Z" fill="#585B8A"/>
<path opacity="0.1" d="M215.323 101.511C215.323 101.511 216.171 105.68 214.389 107.005C212.669 108.286 200.407 134.509 199.645 136.146C199.894 133.657 200.065 132.091 200.065 132.091L203.709 116.538C203.709 116.538 208.383 103.36 210.153 99.4997C211.923 95.639 219.271 86.8685 219.271 86.8685C220.196 86.2367 221.773 88.3096 222.959 90.2059C221.381 93.7818 218.066 100.553 215.323 101.511Z" fill="black"/>
<path d="M214.998 101.206C214.998 101.206 215.843 105.375 214.064 106.7C212.286 108.024 200.086 134.2 199.313 135.837C199.562 133.352 199.733 131.787 199.733 131.787L203.377 116.229C203.377 116.229 208.047 103.052 209.821 99.195C211.594 95.3378 218.935 86.5639 218.935 86.5639C219.86 85.932 221.441 88.0048 222.627 89.9011C221.056 93.4731 217.738 100.248 214.998 101.206Z" fill="#585B8A"/>
<path d="M235.03 138.475L231.33 161.841L231.33 161.845L230.977 164.081L230.977 164.085L230.18 169.113L226.057 168.379L224.135 168.037L197.543 163.296L195.588 162.948L191.126 162.153L191.805 156.36L192.086 153.952L194.59 132.589L235.03 138.475Z" fill="#3EC1F0"/>
<path d="M211.005 158.259C211.005 158.259 200.623 162.397 203.06 166.83C205.497 171.263 219.929 162.796 219.929 162.796L211.005 158.259Z" fill="#D28690"/>
<path opacity="0.1" d="M219.562 190.358C219.573 190.673 220.101 194.697 221.726 196.066C223.351 197.436 219.562 190.358 219.562 190.358Z" fill="black"/>
<path opacity="0.1" d="M209.447 205.016C209.447 205.016 211.511 210.174 219.084 212.066C226.658 213.959 209.447 205.016 209.447 205.016Z" fill="black"/>
<path opacity="0.1" d="M222.411 73.1511C222.482 75.3202 221.981 77.4698 220.958 79.383C219.935 81.2962 218.425 82.9054 216.583 84.0483C215.862 83.6749 215.217 83.1708 214.68 82.5617C214.121 81.9263 213.673 81.0496 213.97 80.26C214.209 79.6245 214.882 79.2052 215.027 78.5505C215.093 78.1509 215.059 77.7413 214.929 77.3579C214.772 76.7502 214.622 76.1423 214.469 75.5382C214.337 75.0225 214.113 74.4171 213.594 74.3077C213.075 74.1984 212.659 74.6428 212.266 74.975C211.302 75.79 209.422 76.3825 208.212 75.7794C207.001 75.1764 207.265 73.0175 207.034 71.8625C207.028 71.7617 207.001 71.6634 206.953 71.5745C206.905 71.4856 206.838 71.4082 206.758 71.3479C206.583 71.296 206.397 71.2893 206.219 71.3283C205.578 71.3492 205.044 70.791 204.839 70.1812C204.687 69.5567 204.594 68.9194 204.562 68.2776C204.47 67.638 204.215 66.9667 203.655 66.6544C203.211 66.4645 202.722 66.4008 202.243 66.4702L199.921 66.572C201.394 64.4355 203.503 62.8184 205.947 61.9507C208.391 61.0829 211.046 61.0088 213.535 61.7387C216.024 62.4686 218.219 63.9655 219.809 66.0164C221.4 68.0674 222.304 70.568 222.393 73.1628L222.411 73.1511Z" fill="black"/>
<path d="M212.595 74.9641C212.988 74.6319 213.419 74.1945 213.923 74.3006C214.428 74.4067 214.663 75.0192 214.794 75.5275L215.254 77.3434C215.385 77.7279 215.42 78.1386 215.356 78.5397C215.189 79.1988 214.52 79.6143 214.277 80.2499C213.98 81.0395 214.431 81.9161 214.986 82.5479C215.998 83.6905 217.37 84.4519 218.874 84.7051C219.267 84.7863 219.673 84.7819 220.064 84.6923C220.939 84.4595 221.513 83.6275 221.962 82.8514C224.287 78.9503 226.259 74.693 226.542 70.1603C226.629 69.2348 226.556 68.301 226.325 67.4005C226.102 66.702 225.796 66.0325 225.415 65.4061C224.741 64.1229 223.9 62.9351 222.914 61.874C221.169 60.1112 218.805 59.0704 216.394 58.488C213.681 57.8288 210.867 57.6999 208.105 58.1084C207.367 58.2179 206.66 58.3635 205.931 58.4355C205.016 58.5081 204.097 58.5232 203.18 58.4807L197.715 58.3321C197.424 58.9767 197.76 59.7196 198.15 60.3011C198.54 60.8827 199.02 61.4835 199.013 62.1894C199.006 62.8952 198.524 63.468 198.158 64.0742C197.792 64.6804 197.525 65.4579 197.929 66.0241C198.333 66.5902 199.12 66.6017 199.801 66.572L202.55 66.4527C203.027 66.3878 203.513 66.4554 203.955 66.6483C204.514 66.9606 204.77 67.6356 204.861 68.2714C204.897 68.9129 204.99 69.5499 205.138 70.175C205.347 70.7847 205.878 71.3505 206.518 71.3222C206.697 71.2805 206.883 71.2885 207.057 71.3454C207.138 71.405 207.204 71.4817 207.252 71.57C207.3 71.6583 207.328 71.7561 207.333 71.8564C207.564 73.0113 207.278 75.1673 208.511 75.7733C209.744 76.3793 211.631 75.7792 212.595 74.9641Z" fill="#663D5C"/>
<path opacity="0.1" d="M229.053 98.824C227.686 98.7235 226.326 99.0914 225.195 99.8673C224.064 100.643 223.231 101.781 222.831 103.094C221.486 107.368 219.263 115.072 219.981 118.064C220.991 122.306 222.249 129.392 222.249 129.392C222.249 129.392 226.836 131.842 224.643 134.536C222.449 137.229 221.925 140.96 221.925 140.96C221.925 140.96 219.043 142.321 218.501 145.031C217.959 147.741 213.811 151.594 213.811 151.594L207.624 158.21C207.624 158.21 218.558 168.623 220.71 169.103L227.015 161.217L234.421 150.684L240.906 143.416C240.906 143.416 242.363 139.655 241.344 132.632C240.325 125.609 237.023 118.998 237.023 118.998L237.182 116.616C237.182 116.616 237.354 99.582 229.053 98.824Z" fill="black"/>
<path d="M229.682 98.8034C228.316 98.7047 226.958 99.0734 225.828 99.849C224.699 100.625 223.867 101.761 223.467 103.073C222.123 107.347 219.9 115.051 220.617 118.044C221.623 122.286 222.882 129.371 222.882 129.371C222.882 129.371 227.469 131.822 225.275 134.515C223.082 137.209 222.562 140.939 222.562 140.939C222.562 140.939 219.68 142.3 219.134 145.01C218.588 147.721 214.447 151.573 214.447 151.573L208.257 158.189C208.257 158.189 219.191 168.603 221.343 169.082L227.648 161.196L235.035 150.664L241.52 143.396C241.52 143.396 242.981 139.635 241.958 132.612C240.935 125.589 237.641 118.978 237.641 118.978L237.8 116.596C237.8 116.596 237.983 99.5614 229.682 98.8034Z" fill="#585B8A"/>
<path opacity="0.1" d="M223.854 123.086C223.854 123.086 230.836 131.088 233.623 129.177C236.409 127.266 223.854 123.086 223.854 123.086Z" fill="black"/>
<path opacity="0.1" d="M226.174 116.674C226.893 116.888 233.006 124.844 235.976 123.782C238.946 122.719 226.174 116.674 226.174 116.674Z" fill="black"/>
<path opacity="0.1" d="M228.291 130.614C228.291 130.614 228.84 135.268 233.636 134.476C238.433 133.685 228.291 130.614 228.291 130.614Z" fill="black"/>
<path opacity="0.1" d="M205.775 93.6671L203.36 99.5655L206.505 96.1539L205.775 93.6671Z" fill="black"/>
<path d="M205.763 93.3517L203.348 99.2501L206.493 95.8384L205.763 93.3517Z" fill="#F0F3F7"/>
<path opacity="0.3" d="M197.543 163.296L195.588 162.948L191.805 156.36L192.086 153.952L197.543 163.296Z" fill="black"/>
<path opacity="0.3" d="M231.332 161.845L230.979 164.081L230.979 164.085L226.059 168.379L224.137 168.037L231.332 161.845Z" fill="black"/>
<path opacity="0.1" d="M150.848 138.499C149.875 138.694 148.932 138.873 148.068 139.013C143.272 139.804 131.628 134.483 131.628 134.483C131.628 134.483 117.265 123.234 112.876 112.295C108.487 101.356 117.278 99.4057 117.278 99.4057C120.551 97.3974 127.976 102.459 129.031 103.297C130.086 104.135 131.029 106.318 130.994 107.745C130.958 109.173 133.471 110.911 133.471 110.911C133.471 110.911 137.895 118.049 138.948 118.806C140 119.563 140.26 120.267 140.619 121.604C140.978 122.94 143.778 123.956 144.962 123.835C146.145 123.715 147.568 124.148 147.589 124.778C147.605 125.287 148.774 125.501 149.729 125.552C150.142 129.597 150.594 134.901 150.848 138.499Z" fill="black"/>
<path opacity="0.1" d="M150.765 137.343C150.028 137.486 149.32 137.616 148.656 137.727C143.86 138.519 132.22 133.198 132.22 133.198C132.22 133.198 117.857 121.949 113.468 111.01C109.079 100.07 117.87 98.1199 117.87 98.1199C121.143 96.1117 128.564 101.173 129.619 102.011C130.674 102.85 131.617 105.033 131.585 106.46C131.554 107.887 134.059 109.625 134.059 109.625C134.059 109.625 138.484 116.764 139.536 117.52C140.588 118.277 140.848 118.982 141.211 120.318C141.574 121.654 144.37 122.666 145.553 122.549C146.737 122.433 148.16 122.862 148.181 123.493C148.193 123.864 148.861 124.091 149.598 124.189C149.642 124.618 149.683 125.074 149.732 125.548C150.095 129.187 150.499 133.831 150.765 137.343Z" fill="black"/>
<path opacity="0.1" d="M168.831 128.78L168.762 135.898L168.44 135.908L167.761 135.559L167.643 129.431C168.024 129.189 168.421 128.972 168.831 128.78Z" fill="black"/>
<path d="M117.259 98.7712C117.259 98.7712 108.468 100.722 112.857 111.661C117.246 122.6 131.609 133.853 131.609 133.853C131.609 133.853 143.248 139.17 148.049 138.382C152.849 137.594 160.135 135.693 161.092 135.899C162.048 136.106 168.448 135.897 168.448 135.897L168.521 128.467L161.097 128.312L157.28 127.645C157.28 127.645 155.899 126.576 155.115 126.765C154.331 126.954 152.638 125.895 152.638 125.895C152.638 125.895 151.337 124.909 150.381 124.94C149.425 124.971 147.609 124.792 147.589 124.162C147.568 123.531 146.129 123.095 144.961 123.219C143.793 123.342 140.959 122.32 140.588 120.97C140.218 119.619 139.969 118.932 138.917 118.176C137.865 117.419 133.44 110.276 133.44 110.276C133.44 110.276 130.931 108.538 130.963 107.115C130.994 105.692 130.055 103.501 129 102.663C127.945 101.825 120.51 96.7674 117.259 98.7712Z" fill="#DCE6F2"/>
<path opacity="0.1" d="M140.84 123.494C140.84 123.494 137.553 127.007 138.441 127.609L140.84 123.494Z" fill="black"/>
<path opacity="0.1" d="M144.56 126.065C144.56 126.065 140.246 129.612 141.44 129.811C142.633 130.009 144.56 126.065 144.56 126.065Z" fill="black"/>
<path opacity="0.1" d="M137.217 131.356C137.861 131.654 147.441 136.965 150.996 136.767L137.217 131.356Z" fill="black"/>
<path opacity="0.1" d="M136.629 93.7867C136.629 93.7867 135.147 99.2981 134.513 99.3188C134.017 99.335 125.459 92.8474 121.887 90.1191L122.035 89.988C122.035 89.988 122.27 87.5254 123.492 86.2266C124.715 84.9277 136.629 93.7867 136.629 93.7867Z" fill="black"/>
<path d="M136.291 93.1626C136.291 93.1626 134.813 98.674 134.179 98.6946C133.679 98.7109 125.121 92.2234 121.549 89.495L121.697 89.3639C121.697 89.3639 121.935 86.9013 123.158 85.6024C124.381 84.3035 136.291 93.1626 136.291 93.1626Z" fill="#DCE6F2"/>
<g opacity="0.15">
<path opacity="0.15" d="M113.346 76.2554C114.54 78.7604 117.641 79.8923 119.482 81.86C118.345 79.4051 115.218 78.2852 113.346 76.2554Z" fill="black"/>
<path opacity="0.15" d="M124.865 81.7402C124.452 82.6042 123.424 83.0499 122.475 83.0623C121.629 83.0292 120.797 82.8451 120.016 82.5186C120.308 82.9213 120.536 83.3676 120.69 83.841C121.568 84.229 122.511 84.4501 123.471 84.4931C124.431 84.484 125.448 84.0386 125.861 83.171C126.525 81.7938 125.75 80.6603 124.85 79.594C125.022 79.9251 125.113 80.2923 125.116 80.6654C125.118 81.0385 125.032 81.4069 124.865 81.7402Z" fill="black"/>
<path opacity="0.15" d="M138.01 62.6974C137.827 61.9903 137.268 61.4477 136.968 60.7853C136.781 60.2712 136.629 59.7451 136.512 59.2106C136.277 58.457 135.864 57.7712 135.308 57.2109C135.389 57.3911 135.458 57.5761 135.515 57.765C135.637 58.3017 135.793 58.8301 135.983 59.3467C136.282 60.0091 136.842 60.5517 137.024 61.2588C137.135 61.7589 137.051 62.2824 136.789 62.7227C136.528 63.1631 136.109 63.4873 135.618 63.6296C134.256 63.9748 132.654 62.8386 131.501 63.6413C130.793 64.1286 130.658 65.1023 130.589 65.9588C130.472 67.4482 130.352 68.929 130.23 70.4012C130.213 70.9226 130.12 71.4387 129.953 71.9329C129.415 73.2874 127.838 73.9665 126.381 73.9918C125.814 74.0484 125.246 73.8803 124.801 73.5234C124.58 73.2315 124.345 72.9516 124.095 72.6848C122.191 71.187 121.752 75.0155 122.277 76.0866C122.537 76.5676 122.856 77.0149 123.225 77.4186C122.778 76.2077 123.233 72.6646 125.091 74.1156C125.341 74.3815 125.575 74.6615 125.793 74.9543C126.241 75.3106 126.809 75.4786 127.378 75.4225C128.835 75.3973 130.411 74.7182 130.95 73.3637C131.117 72.8683 131.21 72.3509 131.226 71.8282C131.346 70.3388 131.465 68.8592 131.586 67.3896C131.654 66.5331 131.789 65.5594 132.493 65.0722C133.65 64.2694 135.253 65.4056 136.614 65.0566C137.101 64.913 137.516 64.5898 137.775 64.152C138.034 63.7142 138.118 63.1945 138.01 62.6974Z" fill="black"/>
</g>
<path opacity="0.1" d="M220.823 83.7206C220.431 83.807 220.026 83.8101 219.633 83.7297C218.131 83.4766 216.76 82.7166 215.749 81.5761C215.191 80.9406 214.739 80.064 215.04 79.2743C215.279 78.6389 215.948 78.2234 216.097 77.5649C216.161 77.1638 216.126 76.753 215.995 76.3686L215.535 74.5527C215.403 74.037 215.183 73.4314 214.664 73.3258C214.145 73.2201 213.729 73.6571 213.335 73.9893C212.372 74.8044 210.488 75.4006 209.281 74.7938C208.074 74.1869 208.334 72.0318 208.104 70.8769C208.097 70.7768 208.069 70.6793 208.021 70.5911C207.974 70.5029 207.908 70.4261 207.827 70.366C207.652 70.3111 207.465 70.3031 207.285 70.3428C206.644 70.3637 206.114 69.8053 205.905 69.1956C205.756 68.5707 205.664 67.9335 205.631 67.2919C205.536 66.6562 205.284 65.9811 204.721 65.6689C204.279 65.4779 203.794 65.4103 203.317 65.4733L200.568 65.5927C199.89 65.6148 199.084 65.5965 198.695 65.0447C198.306 64.4929 198.554 63.6826 198.925 63.0948C199.295 62.5071 199.769 61.9197 199.78 61.21C199.79 60.5003 199.31 59.9032 198.917 59.3218C198.692 59.0042 198.522 58.6505 198.415 58.276L197.624 58.2535C197.337 58.8942 197.67 59.6373 198.06 60.2225C198.45 60.8077 198.933 61.4048 198.922 62.107C198.912 62.8093 198.437 63.3893 198.067 63.9918C197.698 64.5944 197.437 65.3754 197.842 65.9416C198.246 66.5078 199.029 66.5231 199.714 66.4933L202.463 66.3702C202.941 66.3082 203.426 66.377 203.868 66.5695C204.431 66.8817 204.687 67.5567 204.778 68.1925C204.81 68.8343 204.903 69.4717 205.055 70.0961C205.26 70.7022 205.794 71.2716 206.435 71.2396C206.614 71.2019 206.799 71.2099 206.974 71.2628C207.054 71.3235 207.121 71.401 207.168 71.4898C207.216 71.5787 207.244 71.6768 207.25 71.7775C207.481 72.9287 207.195 75.0884 208.428 75.6944C209.66 76.3004 211.533 75.7045 212.482 74.8899C212.875 74.5577 213.31 74.1201 213.814 74.2225C214.318 74.3249 214.554 74.9412 214.681 75.4495L215.145 77.2691C215.275 77.6538 215.309 78.0646 215.243 78.4655C215.079 79.1208 214.407 79.5401 214.168 80.1718C213.871 80.9614 214.319 81.8419 214.877 82.4736C215.895 83.619 217.275 84.3791 218.787 84.6264C219.18 84.7068 219.585 84.7037 219.977 84.6173C220.608 84.4021 221.141 83.9685 221.48 83.3946C221.283 83.5417 221.06 83.6521 220.823 83.7206Z" fill="black"/>
<path opacity="0.1" d="M56.1672 253.111C61.1136 252.95 65.1034 252.203 65.0786 251.443C65.0538 250.683 61.0239 250.197 56.0774 250.359C51.131 250.52 47.1412 251.267 47.166 252.027C47.1908 252.787 51.2208 253.273 56.1672 253.111Z" fill="#3EC1F0"/>
<path opacity="0.1" d="M367.718 207.126C372.664 206.964 376.654 206.217 376.629 205.457C376.605 204.697 372.575 204.211 367.628 204.373C362.682 204.534 358.692 205.281 358.717 206.041C358.742 206.801 362.772 207.287 367.718 207.126Z" fill="#3EC1F0"/>
<path opacity="0.1" d="M278.304 268.175C292.63 267.708 304.185 265.546 304.113 263.345C304.041 261.144 292.37 259.739 278.044 260.206C263.719 260.674 252.164 262.836 252.235 265.037C252.307 267.238 263.979 268.643 278.304 268.175Z" fill="#3EC1F0"/>
<path opacity="0.1" d="M351.462 248.015C362.637 247.65 371.649 245.963 371.593 244.246C371.537 242.529 362.434 241.432 351.26 241.797C340.086 242.161 331.073 243.849 331.129 245.566C331.185 247.283 340.288 248.379 351.462 248.015Z" fill="#3EC1F0"/>
<path opacity="0.1" d="M349.21 281.264C368.159 280.646 383.443 277.785 383.348 274.873C383.253 271.962 367.815 270.102 348.866 270.72C329.918 271.339 314.634 274.2 314.729 277.111C314.824 280.023 330.262 281.882 349.21 281.264Z" fill="#3EC1F0"/>
<path d="M55.0996 207.885C55.0996 207.885 56.1582 209.18 54.7416 211.239C53.3249 213.298 52.1575 215.037 52.6797 216.261C52.6797 216.261 54.782 212.478 56.6326 212.351C58.4832 212.224 57.1774 210.06 55.0996 207.885Z" fill="#3EC1F0"/>
<path opacity="0.1" d="M55.1001 207.885C55.1948 208.009 55.2694 208.147 55.3212 208.294C57.1681 210.328 58.1766 212.245 56.4696 212.341C54.8814 212.438 53.066 215.349 52.6337 216.084C52.6494 216.139 52.6685 216.193 52.6909 216.246C52.6909 216.246 54.7932 212.463 56.6438 212.336C58.4944 212.209 57.1779 210.06 55.1001 207.885Z" fill="black"/>
<path d="M57.0438 209.515C57.0591 209.982 57.0158 210.363 56.9528 210.365C56.8899 210.367 56.8222 209.998 56.8067 209.523C56.7912 209.048 56.8654 209.276 56.9284 209.274C56.9914 209.272 57.0286 209.048 57.0438 209.515Z" fill="#FFD037"/>
<path d="M57.7077 210.054C57.3073 210.29 56.9527 210.45 56.9208 210.381C56.8888 210.311 57.1858 210.09 57.5897 209.85C57.9937 209.61 57.8361 209.783 57.8676 209.841C57.8992 209.899 58.1116 209.814 57.7077 210.054Z" fill="#FFD037"/>
<path d="M49.7422 208.06C49.7422 208.06 48.7702 209.421 50.318 211.383C51.8658 213.346 53.1478 215.005 52.7028 216.26C52.7028 216.26 50.3585 212.623 48.522 212.616C46.6856 212.609 47.7995 210.366 49.7422 208.06Z" fill="#3EC1F0"/>
<path opacity="0.1" d="M49.7425 208.06C49.6581 208.19 49.5928 208.333 49.5485 208.482C47.8381 210.632 46.9567 212.611 48.6663 212.596C50.2574 212.589 52.2587 215.376 52.7417 216.08C52.7283 216.136 52.7115 216.192 52.6914 216.245C52.6914 216.245 50.3471 212.608 48.5106 212.601C46.6742 212.594 47.7997 210.366 49.7425 208.06Z" fill="black"/>
<path d="M47.9102 209.813C47.9254 210.28 47.9897 210.657 48.0527 210.655C48.1156 210.653 48.1591 210.28 48.1436 209.805C48.1281 209.33 48.069 209.563 48.006 209.565C47.943 209.567 47.8949 209.345 47.9102 209.813Z" fill="#FFD037"/>
<path d="M47.2793 210.394C47.6979 210.603 48.0584 210.74 48.0895 210.669C48.1205 210.597 47.8024 210.396 47.3837 210.183C46.965 209.97 47.1335 210.132 47.1057 210.192C47.078 210.252 46.8606 210.181 47.2793 210.394Z" fill="#FFD037"/>
<path opacity="0.1" d="M53.0219 226.418C58.8811 226.227 63.6071 225.343 63.5778 224.444C63.5484 223.544 58.7748 222.97 52.9156 223.161C47.0565 223.352 42.3304 224.236 42.3598 225.136C42.3891 226.035 47.1627 226.609 53.0219 226.418Z" fill="#3EC1F0"/>
<path d="M58.0948 214.287L58.0565 214.704L58.0052 215.292L57.9836 215.538L57.9323 216.127L57.9069 216.373L57.8556 216.961L57.2619 223.665C57.2109 224.261 56.2552 224.757 55.0731 224.795L50.871 224.932C49.7 224.971 48.714 224.538 48.6132 223.948L47.5838 217.296L47.4943 216.712L47.4567 216.468L47.3635 215.885L47.3258 215.641L47.2363 215.057L47.1709 214.643C47.1191 214.307 47.6361 214.008 48.2994 213.986L56.9296 213.704C57.5892 213.683 58.1246 213.948 58.0948 214.287Z" fill="#65617D"/>
<path d="M58.0566 214.704L58.0053 215.292L47.3258 215.641L47.2363 215.057L58.0566 214.704Z" fill="#9D9CB5"/>
<path d="M57.9834 215.538L57.9321 216.127L47.4565 216.468L47.3633 215.884L57.9834 215.538Z" fill="#9D9CB5"/>
<path d="M57.9105 216.372L57.8555 216.961L47.5837 217.296L47.4941 216.712L57.9105 216.372Z" fill="#9D9CB5"/>
<path d="M360.184 192.791C360.184 192.791 359.11 198.738 364.769 199.252L365.096 198.584C365.096 198.584 360.593 194.612 360.184 192.791Z" fill="#3EC1F0"/>
<path opacity="0.1" d="M360.184 192.791C360.184 192.791 359.11 198.738 364.769 199.252L365.096 198.584C365.096 198.584 360.593 194.612 360.184 192.791Z" fill="black"/>
</g>
</g>
<defs>
<linearGradient id="paint0_linear" x1="176.719" y1="270.661" x2="169.634" y2="53.4432" gradientUnits="userSpaceOnUse">
<stop stop-color="#808080" stop-opacity="0.25"/>
<stop offset="0.54" stop-color="#808080" stop-opacity="0.12"/>
<stop offset="1" stop-color="#808080" stop-opacity="0.1"/>
</linearGradient>
<clipPath id="clip0">
<rect width="360" height="762" fill="white"/>
</clipPath>
</defs>
</svg>
