<svg width="44" height="44" viewBox="0 0 44 44" fill="none" xmlns="http://www.w3.org/2000/svg">
<circle cx="1.81176" cy="1.81176" r="1.81176" fill="white"/>
<circle cx="11.9055" cy="1.81176" r="1.81176" fill="white"/>
<circle cx="21.9993" cy="1.81176" r="1.81176" fill="white"/>
<circle cx="32.095" cy="1.81176" r="1.81176" fill="white"/>
<circle cx="42.1887" cy="1.81176" r="1.81176" fill="white"/>
<circle cx="1.81176" cy="11.9059" r="1.81176" fill="white"/>
<circle cx="11.9055" cy="11.9059" r="1.81176" fill="white"/>
<circle cx="21.9993" cy="11.9059" r="1.81176" fill="white"/>
<circle cx="32.095" cy="11.9059" r="1.81176" fill="white"/>
<circle cx="42.1887" cy="11.9059" r="1.81176" fill="white"/>
<circle cx="1.81176" cy="22" r="1.81176" fill="white"/>
<circle cx="11.9055" cy="22" r="1.81176" fill="white"/>
<circle cx="21.9993" cy="22" r="1.81176" fill="white"/>
<circle cx="32.095" cy="22" r="1.81176" fill="white"/>
<circle cx="42.1887" cy="22" r="1.81176" fill="white"/>
<circle cx="1.81176" cy="32.0941" r="1.81176" fill="white"/>
<circle cx="11.9055" cy="32.0941" r="1.81176" fill="white"/>
<circle cx="21.9993" cy="32.0941" r="1.81176" fill="white"/>
<circle cx="32.095" cy="32.0941" r="1.81176" fill="white"/>
<circle cx="42.1887" cy="32.0941" r="1.81176" fill="white"/>
<circle cx="1.81176" cy="42.1882" r="1.81176" fill="white"/>
<circle cx="11.9055" cy="42.1882" r="1.81176" fill="white"/>
<circle cx="21.9993" cy="42.1882" r="1.81176" fill="white"/>
<circle cx="32.095" cy="42.1882" r="1.81176" fill="white"/>
<circle cx="42.1887" cy="42.1882" r="1.81176" fill="white"/>
</svg>
