<svg width="28" height="28" viewBox="0 0 28 28" fill="none" xmlns="http://www.w3.org/2000/svg">
<path fill-rule="evenodd" clip-rule="evenodd" d="M10 0C4.47715 0 0 4.47715 0 10V18C0 23.5228 4.47715 28 10 28H18C23.5228 28 28 23.5228 28 18V10C28 4.47715 23.5228 0 18 0H10ZM14.7 18.9H12.6V21H14.7V18.9ZM17.15 13.769C19.376 10.934 17.745 7.154 14 7C12.8861 7 11.8178 7.4425 11.0302 8.23015C10.2425 9.0178 9.8 10.0861 9.8 11.2H11.9C11.9 10.643 12.1212 10.1089 12.5151 9.71508C12.9089 9.32125 13.443 9.1 14 9.1C16.324 9.282 16.744 11.501 15.05 13.069C14.8644 13.2166 14.6423 13.3592 14.411 13.5078C13.9182 13.8242 13.3834 14.1676 13.069 14.644C12.6 15.344 12.6 16.331 12.6 17.5H14.7C14.7 16.8 14.7 16.1 15.169 15.519C15.3949 15.2315 15.7347 14.974 16.0909 14.7042C16.463 14.4222 16.8531 14.1267 17.15 13.769Z" fill="white"/>
</svg>
