<svg width="34" height="34" viewBox="0 0 34 34" fill="none" xmlns="http://www.w3.org/2000/svg">
<path d="M20.5 1H27V1C28.3956 1 29.0933 1 29.6611 1.17224C30.9395 1.56004 31.94 2.56046 32.3278 3.83886C32.5 4.40666 32.5 5.10444 32.5 6.5V8V13" stroke="#FFFFFF" stroke-width="2"/>
<path d="M13 1H6.5V1C5.10444 1 4.40666 1 3.83886 1.17224C2.56046 1.56004 1.56004 2.56046 1.17224 3.83886C1 4.40666 1 5.10444 1 6.5V8V13" stroke="#FFFFFF" stroke-width="2"/>
<path d="M20.5 33H27V33C28.3956 33 29.0933 33 29.6611 32.8278C30.9395 32.44 31.94 31.4395 32.3278 30.1611C32.5 29.5933 32.5 28.8956 32.5 27.5V26V21" stroke="#FFFFFF" stroke-width="2"/>
<path d="M13 33H6.5V33C5.10444 33 4.40666 33 3.83886 32.8278C2.56046 32.44 1.56004 31.4395 1.17224 30.1611C1 29.5933 1 28.8956 1 27.5V26V21" stroke="#FFFFFF" stroke-width="2"/>
<path fill-rule="evenodd" clip-rule="evenodd" d="M10.0462 18.8879C9.47048 19.696 8.92716 20.1235 8.35918 20.3248C7.79538 20.5246 7.1208 20.5322 6.19437 20.3385L6.00621 21.437C6.7338 21.5892 7.41084 21.6515 8.0456 21.5777C8.40993 22.3736 9.08968 23.1025 9.92579 23.719C11.0017 24.5122 12.4057 25.1717 13.9586 25.5892C17.0448 26.4189 20.893 26.3302 23.9967 24.1944L23.1171 23.0889C20.5877 24.8295 17.3264 24.9741 14.5255 24.2211C13.1347 23.8472 11.9008 23.2614 10.9816 22.5837C10.3047 22.0847 9.83349 21.5626 9.57211 21.0688C10.153 20.7231 10.6584 20.2143 11.1321 19.5494L10.0462 18.8879Z" fill="#FFFFFF"/>
<rect x="10" y="11" width="2" height="4.5" rx="1" fill="#FFFFFF"/>
<rect x="22" y="11" width="2" height="4.5" rx="1" fill="#FFFFFF"/>
<path d="M17.5 11L18.5 19.5L15 19.5" stroke="#FFFFFF"/>
</svg>
