<svg width="269" height="121" viewBox="0 0 269 121" fill="none" xmlns="http://www.w3.org/2000/svg">
<path d="M84.88 53C83.728 53 83.152 52.43 83.152 51.29V42.02C83.152 40.88 83.728 40.31 84.88 40.31H90.982C91.846 40.31 92.278 40.73 92.278 41.57C92.278 42.434 91.846 42.866 90.982 42.866H86.32V45.278H90.586C91.45 45.278 91.882 45.704 91.882 46.556C91.882 47.408 91.45 47.834 90.586 47.834H86.32V50.444H90.982C91.846 50.444 92.278 50.87 92.278 51.722C92.278 52.574 91.846 53 90.982 53H84.88ZM97.8112 53.162C96.9832 53.162 96.3832 52.742 96.0112 51.902L93.4372 46.016C93.2092 45.476 93.2092 45.002 93.4372 44.594C93.6652 44.186 94.1272 43.982 94.8232 43.982C95.1952 43.982 95.5012 44.072 95.7412 44.252C95.9812 44.42 96.1972 44.756 96.3892 45.26L97.9012 49.166L99.5032 45.242C99.6952 44.75 99.9112 44.42 100.151 44.252C100.391 44.072 100.721 43.982 101.141 43.982C101.489 43.982 101.771 44.078 101.987 44.27C102.215 44.45 102.353 44.696 102.401 45.008C102.461 45.32 102.407 45.656 102.239 46.016L99.6112 51.92C99.2512 52.748 98.6512 53.162 97.8112 53.162ZM108.239 53.198C107.159 53.198 106.223 53.012 105.431 52.64C104.651 52.256 104.051 51.716 103.631 51.02C103.211 50.324 103.001 49.502 103.001 48.554C103.001 47.654 103.199 46.856 103.595 46.16C104.003 45.464 104.555 44.924 105.251 44.54C105.959 44.144 106.763 43.946 107.663 43.946C108.551 43.946 109.319 44.132 109.967 44.504C110.627 44.876 111.131 45.41 111.479 46.106C111.839 46.79 112.019 47.594 112.019 48.518C112.019 48.986 111.743 49.22 111.191 49.22H106.061C106.169 49.796 106.409 50.21 106.781 50.462C107.153 50.714 107.669 50.84 108.329 50.84C108.581 50.84 108.881 50.81 109.229 50.75C109.577 50.69 109.907 50.594 110.219 50.462C110.603 50.318 110.927 50.318 111.191 50.462C111.455 50.594 111.629 50.804 111.713 51.092C111.809 51.368 111.797 51.656 111.677 51.956C111.569 52.244 111.347 52.466 111.011 52.622C110.591 52.826 110.141 52.97 109.661 53.054C109.193 53.15 108.719 53.198 108.239 53.198ZM107.807 46.016C107.327 46.016 106.931 46.16 106.619 46.448C106.319 46.736 106.127 47.156 106.043 47.708H109.391C109.355 47.144 109.199 46.724 108.923 46.448C108.659 46.16 108.287 46.016 107.807 46.016ZM115.037 53.162C113.945 53.162 113.399 52.622 113.399 51.542V45.584C113.399 44.516 113.921 43.982 114.965 43.982C115.457 43.982 115.835 44.12 116.099 44.396C116.375 44.672 116.513 45.068 116.513 45.584V45.638C116.717 45.122 117.047 44.714 117.503 44.414C117.959 44.114 118.499 43.958 119.123 43.946C119.471 43.934 119.729 44.024 119.897 44.216C120.077 44.396 120.173 44.738 120.185 45.242C120.185 45.674 120.095 46.016 119.915 46.268C119.735 46.52 119.393 46.67 118.889 46.718L118.475 46.754C117.839 46.814 117.377 46.994 117.089 47.294C116.801 47.582 116.657 48.014 116.657 48.59V51.542C116.657 52.622 116.117 53.162 115.037 53.162ZM124.323 56.402C123.951 56.402 123.645 56.306 123.405 56.114C123.177 55.922 123.039 55.67 122.991 55.358C122.943 55.058 122.997 54.728 123.153 54.368L124.071 52.388L121.281 46.016C121.041 45.476 121.041 45.002 121.281 44.594C121.521 44.186 121.989 43.982 122.685 43.982C123.057 43.982 123.363 44.072 123.603 44.252C123.843 44.42 124.059 44.756 124.251 45.26L125.763 49.166L127.347 45.242C127.539 44.75 127.755 44.42 127.995 44.252C128.247 44.072 128.583 43.982 129.003 43.982C129.531 43.982 129.903 44.186 130.119 44.594C130.347 45.002 130.341 45.476 130.101 46.016L126.015 55.196C125.799 55.664 125.559 55.982 125.295 56.15C125.043 56.318 124.719 56.402 124.323 56.402ZM136.447 53.198C135.103 53.198 134.107 52.886 133.459 52.262C132.811 51.638 132.487 50.696 132.487 49.436V46.502H131.875C131.071 46.502 130.669 46.106 130.669 45.314C130.669 44.534 131.071 44.144 131.875 44.144H132.487V43.028C132.487 42.5 132.625 42.098 132.901 41.822C133.177 41.546 133.573 41.408 134.089 41.408C135.157 41.408 135.691 41.948 135.691 43.028V44.144H137.167C137.983 44.144 138.391 44.534 138.391 45.314C138.391 46.106 137.983 46.502 137.167 46.502H135.691V49.328C135.691 50.192 136.129 50.624 137.005 50.624C137.173 50.624 137.335 50.606 137.491 50.57C137.647 50.534 137.791 50.516 137.923 50.516C138.115 50.504 138.271 50.564 138.391 50.696C138.511 50.816 138.571 51.098 138.571 51.542C138.571 51.902 138.517 52.208 138.409 52.46C138.301 52.7 138.109 52.874 137.833 52.982C137.665 53.042 137.437 53.09 137.149 53.126C136.861 53.174 136.627 53.198 136.447 53.198ZM141.35 53.162C140.834 53.162 140.438 53.024 140.162 52.748C139.898 52.472 139.766 52.07 139.766 51.542V41.768C139.766 40.688 140.294 40.148 141.35 40.148C141.866 40.148 142.262 40.286 142.538 40.562C142.826 40.838 142.97 41.24 142.97 41.768V45.242C143.606 44.378 144.53 43.946 145.742 43.946C146.798 43.946 147.578 44.258 148.082 44.882C148.598 45.506 148.856 46.466 148.856 47.762V51.542C148.856 52.07 148.718 52.472 148.442 52.748C148.166 53.024 147.77 53.162 147.254 53.162C146.738 53.162 146.342 53.024 146.066 52.748C145.79 52.472 145.652 52.07 145.652 51.542V47.888C145.652 47.348 145.556 46.964 145.364 46.736C145.184 46.508 144.914 46.394 144.554 46.394C144.074 46.394 143.69 46.55 143.402 46.862C143.114 47.162 142.97 47.57 142.97 48.086V51.542C142.97 52.622 142.43 53.162 141.35 53.162ZM152.266 42.704C151.702 42.704 151.264 42.572 150.952 42.308C150.652 42.044 150.502 41.66 150.502 41.156C150.502 40.664 150.652 40.286 150.952 40.022C151.264 39.758 151.702 39.626 152.266 39.626C153.454 39.626 154.048 40.136 154.048 41.156C154.048 41.66 153.892 42.044 153.58 42.308C153.28 42.572 152.842 42.704 152.266 42.704ZM152.266 53.162C151.75 53.162 151.354 53.012 151.078 52.712C150.814 52.412 150.682 51.98 150.682 51.416V45.728C150.682 45.164 150.814 44.732 151.078 44.432C151.354 44.132 151.75 43.982 152.266 43.982C152.782 43.982 153.178 44.132 153.454 44.432C153.742 44.732 153.886 45.164 153.886 45.728V51.416C153.886 51.98 153.748 52.412 153.472 52.712C153.196 53.012 152.794 53.162 152.266 53.162ZM157.329 53.162C156.813 53.162 156.417 53.024 156.141 52.748C155.877 52.472 155.745 52.07 155.745 51.542V45.584C155.745 44.516 156.267 43.982 157.311 43.982C158.259 43.982 158.775 44.444 158.859 45.368C159.159 44.912 159.555 44.564 160.047 44.324C160.551 44.072 161.109 43.946 161.721 43.946C162.777 43.946 163.557 44.258 164.061 44.882C164.577 45.506 164.835 46.466 164.835 47.762V51.542C164.835 52.07 164.697 52.472 164.421 52.748C164.145 53.024 163.749 53.162 163.233 53.162C162.717 53.162 162.321 53.024 162.045 52.748C161.769 52.472 161.631 52.07 161.631 51.542V47.888C161.631 47.348 161.535 46.964 161.343 46.736C161.163 46.508 160.893 46.394 160.533 46.394C160.053 46.394 159.669 46.55 159.381 46.862C159.093 47.162 158.949 47.57 158.949 48.086V51.542C158.949 52.622 158.409 53.162 157.329 53.162ZM171.053 56.438C169.697 56.438 168.581 56.264 167.705 55.916C167.273 55.76 166.991 55.532 166.859 55.232C166.739 54.932 166.727 54.626 166.823 54.314C166.919 54.014 167.087 53.78 167.327 53.612C167.579 53.456 167.873 53.438 168.209 53.558C168.737 53.774 169.211 53.912 169.631 53.972C170.063 54.044 170.435 54.08 170.747 54.08C171.479 54.08 172.025 53.924 172.385 53.612C172.757 53.312 172.943 52.838 172.943 52.19V51.362C172.691 51.794 172.313 52.136 171.809 52.388C171.305 52.64 170.765 52.766 170.189 52.766C169.397 52.766 168.707 52.586 168.119 52.226C167.531 51.854 167.069 51.338 166.733 50.678C166.409 50.018 166.247 49.244 166.247 48.356C166.247 47.468 166.409 46.694 166.733 46.034C167.069 45.374 167.531 44.864 168.119 44.504C168.707 44.132 169.397 43.946 170.189 43.946C170.777 43.946 171.317 44.072 171.809 44.324C172.313 44.564 172.679 44.894 172.907 45.314C173.015 44.426 173.543 43.982 174.491 43.982C175.535 43.982 176.057 44.516 176.057 45.584V51.812C176.057 53.36 175.625 54.518 174.761 55.286C173.897 56.054 172.661 56.438 171.053 56.438ZM171.179 50.408C171.707 50.408 172.127 50.228 172.439 49.868C172.751 49.508 172.907 49.004 172.907 48.356C172.907 47.708 172.751 47.204 172.439 46.844C172.127 46.484 171.707 46.304 171.179 46.304C170.663 46.304 170.249 46.484 169.937 46.844C169.625 47.204 169.469 47.708 169.469 48.356C169.469 49.004 169.625 49.508 169.937 49.868C170.249 50.228 170.663 50.408 171.179 50.408ZM187.939 53.162C187.411 53.162 187.003 53.018 186.715 52.73C186.427 52.43 186.283 52.004 186.283 51.452V47.384L182.827 42.38C182.623 42.092 182.533 41.774 182.557 41.426C182.593 41.078 182.737 40.778 182.989 40.526C183.253 40.274 183.625 40.148 184.105 40.148C184.441 40.148 184.747 40.232 185.023 40.4C185.299 40.568 185.557 40.838 185.797 41.21L187.993 44.432L190.189 41.192C190.441 40.82 190.699 40.556 190.963 40.4C191.227 40.232 191.539 40.148 191.899 40.148C192.355 40.148 192.709 40.262 192.961 40.49C193.213 40.718 193.345 41.006 193.357 41.354C193.381 41.702 193.273 42.056 193.033 42.416L189.595 47.384V51.452C189.595 52.592 189.043 53.162 187.939 53.162ZM197.598 53.198C196.614 53.198 195.756 53.012 195.024 52.64C194.292 52.268 193.722 51.734 193.314 51.038C192.906 50.342 192.702 49.52 192.702 48.572C192.702 47.612 192.906 46.79 193.314 46.106C193.722 45.41 194.292 44.876 195.024 44.504C195.756 44.132 196.614 43.946 197.598 43.946C198.582 43.946 199.44 44.132 200.172 44.504C200.904 44.876 201.468 45.41 201.864 46.106C202.272 46.79 202.476 47.612 202.476 48.572C202.476 49.52 202.272 50.342 201.864 51.038C201.468 51.734 200.904 52.268 200.172 52.64C199.44 53.012 198.582 53.198 197.598 53.198ZM197.598 50.84C198.078 50.84 198.474 50.66 198.786 50.3C199.098 49.94 199.254 49.364 199.254 48.572C199.254 47.768 199.098 47.192 198.786 46.844C198.474 46.484 198.078 46.304 197.598 46.304C197.106 46.304 196.704 46.484 196.392 46.844C196.08 47.192 195.924 47.768 195.924 48.572C195.924 49.364 196.08 49.94 196.392 50.3C196.704 50.66 197.106 50.84 197.598 50.84ZM207.256 53.198C206.104 53.198 205.252 52.886 204.7 52.262C204.16 51.626 203.89 50.66 203.89 49.364V45.584C203.89 44.516 204.424 43.982 205.492 43.982C206.008 43.982 206.404 44.12 206.68 44.396C206.956 44.672 207.094 45.068 207.094 45.584V49.454C207.094 50.318 207.466 50.75 208.21 50.75C208.642 50.75 208.996 50.594 209.272 50.282C209.548 49.97 209.686 49.556 209.686 49.04V45.584C209.686 44.516 210.22 43.982 211.288 43.982C211.804 43.982 212.2 44.12 212.476 44.396C212.752 44.672 212.89 45.068 212.89 45.584V51.542C212.89 52.622 212.374 53.162 211.342 53.162C210.418 53.162 209.896 52.73 209.776 51.866C209.2 52.754 208.36 53.198 207.256 53.198ZM221.669 53.162C220.637 53.162 220.121 52.64 220.121 51.596V41.786C220.121 41.258 220.253 40.856 220.517 40.58C220.781 40.292 221.129 40.148 221.561 40.148C221.945 40.148 222.239 40.22 222.443 40.364C222.659 40.508 222.905 40.748 223.181 41.084L228.383 47.582V41.696C228.383 40.664 228.893 40.148 229.913 40.148C230.417 40.148 230.795 40.286 231.047 40.562C231.311 40.826 231.443 41.204 231.443 41.696V51.668C231.443 52.124 231.323 52.49 231.083 52.766C230.843 53.03 230.519 53.162 230.111 53.162C229.703 53.162 229.379 53.09 229.139 52.946C228.911 52.802 228.665 52.562 228.401 52.226L223.199 45.728V51.596C223.199 52.64 222.689 53.162 221.669 53.162ZM238.369 53.198C237.289 53.198 236.353 53.012 235.561 52.64C234.781 52.256 234.181 51.716 233.761 51.02C233.341 50.324 233.131 49.502 233.131 48.554C233.131 47.654 233.329 46.856 233.725 46.16C234.133 45.464 234.685 44.924 235.381 44.54C236.089 44.144 236.893 43.946 237.793 43.946C238.681 43.946 239.449 44.132 240.097 44.504C240.757 44.876 241.261 45.41 241.609 46.106C241.969 46.79 242.149 47.594 242.149 48.518C242.149 48.986 241.873 49.22 241.321 49.22H236.191C236.299 49.796 236.539 50.21 236.911 50.462C237.283 50.714 237.799 50.84 238.459 50.84C238.711 50.84 239.011 50.81 239.359 50.75C239.707 50.69 240.037 50.594 240.349 50.462C240.733 50.318 241.057 50.318 241.321 50.462C241.585 50.594 241.759 50.804 241.843 51.092C241.939 51.368 241.927 51.656 241.807 51.956C241.699 52.244 241.477 52.466 241.141 52.622C240.721 52.826 240.271 52.97 239.791 53.054C239.323 53.15 238.849 53.198 238.369 53.198ZM237.937 46.016C237.457 46.016 237.061 46.16 236.749 46.448C236.449 46.736 236.257 47.156 236.173 47.708H239.521C239.485 47.144 239.329 46.724 239.053 46.448C238.789 46.16 238.417 46.016 237.937 46.016ZM248.354 53.198C247.274 53.198 246.338 53.012 245.546 52.64C244.766 52.256 244.166 51.716 243.746 51.02C243.326 50.324 243.116 49.502 243.116 48.554C243.116 47.654 243.314 46.856 243.71 46.16C244.118 45.464 244.67 44.924 245.366 44.54C246.074 44.144 246.878 43.946 247.778 43.946C248.666 43.946 249.434 44.132 250.082 44.504C250.742 44.876 251.246 45.41 251.594 46.106C251.954 46.79 252.134 47.594 252.134 48.518C252.134 48.986 251.858 49.22 251.306 49.22H246.176C246.284 49.796 246.524 50.21 246.896 50.462C247.268 50.714 247.784 50.84 248.444 50.84C248.696 50.84 248.996 50.81 249.344 50.75C249.692 50.69 250.022 50.594 250.334 50.462C250.718 50.318 251.042 50.318 251.306 50.462C251.57 50.594 251.744 50.804 251.828 51.092C251.924 51.368 251.912 51.656 251.792 51.956C251.684 52.244 251.462 52.466 251.126 52.622C250.706 52.826 250.256 52.97 249.776 53.054C249.308 53.15 248.834 53.198 248.354 53.198ZM247.922 46.016C247.442 46.016 247.046 46.16 246.734 46.448C246.434 46.736 246.242 47.156 246.158 47.708H249.506C249.47 47.144 249.314 46.724 249.038 46.448C248.774 46.16 248.402 46.016 247.922 46.016ZM256.97 53.198C256.214 53.198 255.542 53.012 254.954 52.64C254.378 52.268 253.922 51.734 253.586 51.038C253.262 50.342 253.1 49.52 253.1 48.572C253.1 47.612 253.262 46.79 253.586 46.106C253.922 45.41 254.378 44.876 254.954 44.504C255.542 44.132 256.214 43.946 256.97 43.946C257.534 43.946 258.05 44.066 258.518 44.306C258.998 44.534 259.364 44.834 259.616 45.206V41.768C259.616 40.688 260.15 40.148 261.218 40.148C261.734 40.148 262.13 40.286 262.406 40.562C262.682 40.838 262.82 41.24 262.82 41.768V51.542C262.82 52.622 262.292 53.162 261.236 53.162C260.288 53.162 259.766 52.712 259.67 51.812C259.43 52.232 259.064 52.568 258.572 52.82C258.092 53.072 257.558 53.198 256.97 53.198ZM257.996 50.84C258.476 50.84 258.872 50.66 259.184 50.3C259.496 49.94 259.652 49.364 259.652 48.572C259.652 47.768 259.496 47.192 259.184 46.844C258.872 46.484 258.476 46.304 257.996 46.304C257.504 46.304 257.102 46.484 256.79 46.844C256.478 47.192 256.322 47.768 256.322 48.572C256.322 49.364 256.478 49.94 256.79 50.3C257.102 50.66 257.504 50.84 257.996 50.84ZM84.808 78.162C84.28 78.162 83.872 78.018 83.584 77.73C83.296 77.442 83.152 77.022 83.152 76.47V66.84C83.152 66.288 83.296 65.868 83.584 65.58C83.872 65.292 84.28 65.148 84.808 65.148C85.336 65.148 85.744 65.292 86.032 65.58C86.32 65.868 86.464 66.288 86.464 66.84V76.47C86.464 77.022 86.32 77.442 86.032 77.73C85.756 78.018 85.348 78.162 84.808 78.162ZM90.1274 78.162C89.6114 78.162 89.2154 78.024 88.9394 77.748C88.6754 77.472 88.5434 77.07 88.5434 76.542V70.584C88.5434 69.516 89.0654 68.982 90.1094 68.982C91.0574 68.982 91.5734 69.444 91.6574 70.368C91.9574 69.912 92.3534 69.564 92.8454 69.324C93.3494 69.072 93.9074 68.946 94.5194 68.946C95.5754 68.946 96.3554 69.258 96.8594 69.882C97.3754 70.506 97.6334 71.466 97.6334 72.762V76.542C97.6334 77.07 97.4954 77.472 97.2194 77.748C96.9434 78.024 96.5474 78.162 96.0314 78.162C95.5154 78.162 95.1194 78.024 94.8434 77.748C94.5674 77.472 94.4294 77.07 94.4294 76.542V72.888C94.4294 72.348 94.3334 71.964 94.1414 71.736C93.9614 71.508 93.6914 71.394 93.3314 71.394C92.8514 71.394 92.4674 71.55 92.1794 71.862C91.8914 72.162 91.7474 72.57 91.7474 73.086V76.542C91.7474 77.622 91.2074 78.162 90.1274 78.162ZM110.946 78.198C109.662 78.198 108.534 77.928 107.562 77.388C106.602 76.836 105.852 76.068 105.312 75.084C104.772 74.1 104.502 72.954 104.502 71.646C104.502 70.326 104.766 69.18 105.294 68.208C105.834 67.224 106.59 66.462 107.562 65.922C108.534 65.382 109.662 65.112 110.946 65.112C112.23 65.112 113.352 65.382 114.312 65.922C115.284 66.462 116.04 67.224 116.58 68.208C117.12 69.18 117.39 70.326 117.39 71.646C117.39 72.954 117.12 74.1 116.58 75.084C116.04 76.068 115.284 76.836 114.312 77.388C113.352 77.928 112.23 78.198 110.946 78.198ZM110.946 75.426C111.882 75.426 112.614 75.096 113.142 74.436C113.682 73.764 113.952 72.834 113.952 71.646C113.952 70.458 113.688 69.534 113.16 68.874C112.632 68.214 111.894 67.884 110.946 67.884C109.998 67.884 109.26 68.214 108.732 68.874C108.204 69.534 107.94 70.458 107.94 71.646C107.94 72.834 108.204 73.764 108.732 74.436C109.26 75.096 109.998 75.426 110.946 75.426ZM120.713 78.162C120.197 78.162 119.801 78.024 119.525 77.748C119.261 77.472 119.129 77.07 119.129 76.542V70.584C119.129 69.516 119.651 68.982 120.695 68.982C121.643 68.982 122.159 69.444 122.243 70.368C122.543 69.912 122.939 69.564 123.431 69.324C123.935 69.072 124.493 68.946 125.105 68.946C126.161 68.946 126.941 69.258 127.445 69.882C127.961 70.506 128.219 71.466 128.219 72.762V76.542C128.219 77.07 128.081 77.472 127.805 77.748C127.529 78.024 127.133 78.162 126.617 78.162C126.101 78.162 125.705 78.024 125.429 77.748C125.153 77.472 125.015 77.07 125.015 76.542V72.888C125.015 72.348 124.919 71.964 124.727 71.736C124.547 71.508 124.277 71.394 123.917 71.394C123.437 71.394 123.053 71.55 122.765 71.862C122.477 72.162 122.333 72.57 122.333 73.086V76.542C122.333 77.622 121.793 78.162 120.713 78.162ZM134.869 78.198C133.789 78.198 132.853 78.012 132.061 77.64C131.281 77.256 130.681 76.716 130.261 76.02C129.841 75.324 129.631 74.502 129.631 73.554C129.631 72.654 129.829 71.856 130.225 71.16C130.633 70.464 131.185 69.924 131.881 69.54C132.589 69.144 133.393 68.946 134.293 68.946C135.181 68.946 135.949 69.132 136.597 69.504C137.257 69.876 137.761 70.41 138.109 71.106C138.469 71.79 138.649 72.594 138.649 73.518C138.649 73.986 138.373 74.22 137.821 74.22H132.691C132.799 74.796 133.039 75.21 133.411 75.462C133.783 75.714 134.299 75.84 134.959 75.84C135.211 75.84 135.511 75.81 135.859 75.75C136.207 75.69 136.537 75.594 136.849 75.462C137.233 75.318 137.557 75.318 137.821 75.462C138.085 75.594 138.259 75.804 138.343 76.092C138.439 76.368 138.427 76.656 138.307 76.956C138.199 77.244 137.977 77.466 137.641 77.622C137.221 77.826 136.771 77.97 136.291 78.054C135.823 78.15 135.349 78.198 134.869 78.198ZM134.437 71.016C133.957 71.016 133.561 71.16 133.249 71.448C132.949 71.736 132.757 72.156 132.673 72.708H136.021C135.985 72.144 135.829 71.724 135.553 71.448C135.289 71.16 134.917 71.016 134.437 71.016ZM145.99 78.162C145.426 78.162 145.012 77.97 144.748 77.586C144.484 77.202 144.484 76.722 144.748 76.146L149.23 66.498C149.446 66.03 149.71 65.688 150.022 65.472C150.334 65.256 150.7 65.148 151.12 65.148C151.528 65.148 151.888 65.256 152.2 65.472C152.512 65.688 152.776 66.03 152.992 66.498L157.474 76.146C157.75 76.734 157.762 77.22 157.51 77.604C157.258 77.976 156.862 78.162 156.322 78.162C155.842 78.162 155.47 78.054 155.206 77.838C154.954 77.622 154.726 77.274 154.522 76.794L153.946 75.426H148.276L147.7 76.794C147.484 77.274 147.262 77.622 147.034 77.838C146.806 78.054 146.458 78.162 145.99 78.162ZM151.084 68.766L149.356 72.888H152.848L151.12 68.766H151.084ZM160.493 81.402C159.437 81.402 158.909 80.862 158.909 79.782V70.584C158.909 69.516 159.431 68.982 160.475 68.982C161.423 68.982 161.945 69.426 162.041 70.314C162.281 69.894 162.641 69.564 163.121 69.324C163.613 69.072 164.153 68.946 164.741 68.946C165.497 68.946 166.163 69.132 166.739 69.504C167.327 69.876 167.783 70.41 168.107 71.106C168.443 71.79 168.611 72.612 168.611 73.572C168.611 74.52 168.449 75.342 168.125 76.038C167.801 76.734 167.345 77.268 166.757 77.64C166.181 78.012 165.509 78.198 164.741 78.198C164.189 78.198 163.673 78.084 163.193 77.856C162.725 77.628 162.365 77.322 162.113 76.938V79.782C162.113 80.31 161.969 80.712 161.681 80.988C161.405 81.264 161.009 81.402 160.493 81.402ZM163.733 75.84C164.213 75.84 164.609 75.66 164.921 75.3C165.233 74.94 165.389 74.364 165.389 73.572C165.389 72.768 165.233 72.192 164.921 71.844C164.609 71.484 164.213 71.304 163.733 71.304C163.241 71.304 162.839 71.484 162.527 71.844C162.215 72.192 162.059 72.768 162.059 73.572C162.059 74.364 162.215 74.94 162.527 75.3C162.839 75.66 163.241 75.84 163.733 75.84ZM171.655 81.402C170.599 81.402 170.071 80.862 170.071 79.782V70.584C170.071 69.516 170.593 68.982 171.637 68.982C172.585 68.982 173.107 69.426 173.203 70.314C173.443 69.894 173.803 69.564 174.283 69.324C174.775 69.072 175.315 68.946 175.903 68.946C176.659 68.946 177.325 69.132 177.901 69.504C178.489 69.876 178.945 70.41 179.269 71.106C179.605 71.79 179.773 72.612 179.773 73.572C179.773 74.52 179.611 75.342 179.287 76.038C178.963 76.734 178.507 77.268 177.919 77.64C177.343 78.012 176.671 78.198 175.903 78.198C175.351 78.198 174.835 78.084 174.355 77.856C173.887 77.628 173.527 77.322 173.275 76.938V79.782C173.275 80.31 173.131 80.712 172.843 80.988C172.567 81.264 172.171 81.402 171.655 81.402ZM174.895 75.84C175.375 75.84 175.771 75.66 176.083 75.3C176.395 74.94 176.551 74.364 176.551 73.572C176.551 72.768 176.395 72.192 176.083 71.844C175.771 71.484 175.375 71.304 174.895 71.304C174.403 71.304 174.001 71.484 173.689 71.844C173.377 72.192 173.221 72.768 173.221 73.572C173.221 74.364 173.377 74.94 173.689 75.3C174.001 75.66 174.403 75.84 174.895 75.84Z" fill="white"/>
<circle cx="20.8118" cy="1.81176" r="1.81176" fill="white"/>
<circle cx="30.9055" cy="1.81176" r="1.81176" fill="white"/>
<circle cx="41.0002" cy="1.81176" r="1.81176" fill="white"/>
<circle cx="51.094" cy="1.81176" r="1.81176" fill="white"/>
<circle cx="61.1887" cy="1.81176" r="1.81176" fill="white"/>
<circle cx="20.8118" cy="11.9059" r="1.81176" fill="white"/>
<circle cx="30.9055" cy="11.9059" r="1.81176" fill="white"/>
<circle cx="41.0002" cy="11.9059" r="1.81176" fill="white"/>
<circle cx="51.094" cy="11.9059" r="1.81176" fill="white"/>
<circle cx="61.1887" cy="11.9059" r="1.81176" fill="white"/>
<circle cx="20.8118" cy="22" r="1.81176" fill="white"/>
<circle cx="30.9055" cy="22" r="1.81176" fill="white"/>
<circle cx="41.0002" cy="22" r="1.81176" fill="white"/>
<circle cx="51.094" cy="22" r="1.81176" fill="white"/>
<circle cx="61.1887" cy="22" r="1.81176" fill="white"/>
<circle cx="20.8118" cy="32.0941" r="1.81176" fill="white"/>
<circle cx="30.9055" cy="32.0941" r="1.81176" fill="white"/>
<circle cx="41.0002" cy="32.0941" r="1.81176" fill="white"/>
<circle cx="51.094" cy="32.0941" r="1.81176" fill="white"/>
<circle cx="61.1887" cy="32.0941" r="1.81176" fill="white"/>
<circle cx="20.8118" cy="42.1882" r="1.81176" fill="white"/>
<circle cx="30.9055" cy="42.1882" r="1.81176" fill="white"/>
<circle cx="41.0002" cy="42.1882" r="1.81176" fill="white"/>
<circle cx="51.094" cy="42.1882" r="1.81176" fill="white"/>
<circle cx="61.1887" cy="42.1882" r="1.81176" fill="white"/>
<path d="M56.5066 33.93H55.8837V16.8723C55.8837 14.254 54.8436 11.7429 52.9922 9.89152C51.1408 8.04011 48.6298 7 46.0115 7H9.87227C7.25398 7 4.74294 8.04011 2.89153 9.89152C1.04012 11.7429 0 14.254 0 16.8723V110.452C0 113.071 1.04012 115.582 2.89153 117.433C4.74294 119.285 7.25398 120.325 9.87227 120.325H46.0113C48.6296 120.325 51.1407 119.285 52.9921 117.433C54.8435 115.582 55.8836 113.071 55.8836 110.452V46.0719H56.5064L56.5066 33.93Z" fill="#3F3D56"/>
<path d="M46.4093 9.56821H41.692C41.909 10.1001 41.9919 10.6772 41.9333 11.2487C41.8748 11.8202 41.6765 12.3685 41.3561 12.8453C41.0357 13.3222 40.6029 13.7129 40.0959 13.983C39.5889 14.2531 39.0232 14.3944 38.4487 14.3944H17.7452C17.1708 14.3944 16.6052 14.253 16.0982 13.9829C15.5913 13.7128 15.1586 13.3222 14.8382 12.8454C14.5178 12.3687 14.3196 11.8204 14.2609 11.249C14.2023 10.6776 14.2852 10.1005 14.5021 9.56867H10.0954C8.14002 9.56867 6.26474 10.3454 4.88208 11.7281C3.49942 13.1108 2.72266 14.986 2.72266 16.9414V110.384C2.72266 112.339 3.49942 114.214 4.88208 115.597C6.26474 116.98 8.14002 117.756 10.0954 117.756H46.4079C48.3633 117.756 50.2386 116.98 51.6212 115.597C53.0039 114.214 53.7807 112.339 53.7807 110.384V16.941C53.7807 14.9856 53.0039 13.1103 51.6212 11.7276C50.2386 10.345 48.3633 9.56821 46.4079 9.56821H46.4093Z" fill="white"/>
<path d="M49.1634 27.9414H7.34375V99.3833H49.1634V27.9414Z" fill="#E6E6E6"/>
<path d="M28.3152 112.535C30.5511 112.535 32.3637 110.722 32.3637 108.486C32.3637 106.25 30.5511 104.438 28.3152 104.438C26.0792 104.438 24.2666 106.25 24.2666 108.486C24.2666 110.722 26.0792 112.535 28.3152 112.535Z" fill="#E6E6E6"/>
<path d="M47.6685 107.031L47.2061 111.502L49.8269 111.193L50.1352 107.493L47.6685 107.031Z" fill="#FFB9B9"/>
<path d="M40.731 73.113C40.731 73.113 27.3181 86.0633 35.7975 90.0719H38.4184C38.4184 90.0719 44.1226 80.6667 46.8978 80.8217L47.6686 89.7635L47.2061 107.801L50.5979 107.956C50.5979 107.956 52.6021 98.8596 52.4479 93.7719L55.9938 74.9631L40.731 73.113Z" fill="#2F2E41"/>
<path d="M36.5684 89.4553L38.4184 90.0719C38.4184 90.0719 45.6644 88.3761 46.1262 88.5304L47.5608 88.5204L47.5141 84.83H41.3478L36.5684 89.4553Z" fill="#2F2E41"/>
<path d="M50.135 110.577C50.135 110.577 47.3599 109.343 46.8974 110.577C46.435 111.81 46.5891 115.356 46.5891 115.356C46.959 116.067 47.0681 116.885 46.8974 117.669C46.5891 118.902 48.1308 119.519 50.135 118.902C52.1392 118.285 52.1392 116.744 52.1392 116.744L50.135 110.577Z" fill="#2F2E41"/>
<path d="M52.4473 84.521C52.4473 84.521 54.6056 83.2876 54.4515 85.1376C54.3236 86.3594 54.0117 87.5549 53.5264 88.6835C53.5264 88.6835 55.5306 93.9253 53.5264 94.3878C51.5222 94.8503 49.9805 93.7712 49.9805 93.0002C49.9805 92.2293 52.4473 84.521 52.4473 84.521Z" fill="#2F2E41"/>
<path d="M45.6641 42.279L45.9725 48.1376L48.5934 50.4498L51.5226 46.2873V42.1249L45.6641 42.279Z" fill="#FFB9B9"/>
<path d="M47.6687 48.1375L45.9039 46.8261L44.7396 48.6L39.4978 51.6831L42.5809 59.6999L42.7351 67.5627C42.7351 67.5627 37.0308 73.4211 40.4226 74.1921C43.8143 74.963 55.8397 76.6587 56.4563 75.2713C57.0729 73.8839 55.6855 59.5459 55.6855 59.5459L56.148 47.3664L51.5233 45.6942L47.6687 48.1375Z" fill="#3DC0F0"/>
<path d="M38.2641 57.9017C38.2641 57.9017 37.0307 66.6373 39.3434 66.6373C40.7168 66.642 42.078 66.3802 43.3518 65.8665L41.5017 61.0872L42.2725 57.8495L38.2641 57.9017Z" fill="#FFB9B9"/>
<path d="M41.8103 65.5589L43.5062 65.8672C43.5062 65.8672 48.4396 62.784 48.748 62.6296C49.0563 62.4751 43.8145 59.8544 43.8145 59.8544L40.2686 61.242L41.8103 65.5589Z" fill="#FFB9B9"/>
<path opacity="0.1" d="M43.8141 59.8543L41.5874 60.7255L42.2725 57.8501L38.2641 57.9016C38.2641 57.9016 37.0307 66.6372 39.3434 66.6372C40.7168 66.6419 42.078 66.3801 43.3518 65.8664L43.3401 65.8362L43.5059 65.8664C43.5059 65.8664 48.4394 62.7832 48.7477 62.6288C49.056 62.4743 43.8141 59.8543 43.8141 59.8543Z" fill="black"/>
<path d="M49.2305 45.2022C51.6618 45.2022 53.6328 43.2312 53.6328 40.7999C53.6328 38.3686 51.6618 36.3976 49.2305 36.3976C46.7991 36.3976 44.8281 38.3686 44.8281 40.7999C44.8281 43.2312 46.7991 45.2022 49.2305 45.2022Z" fill="#FFB9B9"/>
<path d="M45.3384 35.8335L44.4782 35.4892C44.4782 35.4892 46.2767 33.5091 48.7789 33.6813L48.0751 32.9065C48.0751 32.9065 49.7954 32.2178 51.3592 34.0256C52.1814 34.9755 53.1325 36.093 53.7261 37.3514H54.6473L54.2628 38.1978L55.6081 39.0448L54.2269 38.8926C54.3577 39.6235 54.3129 40.3749 54.0962 41.0851L54.1333 41.7546C54.1333 41.7546 52.5324 39.2777 52.5324 38.9334V39.7944C52.5324 39.7944 51.6722 39.0195 51.6722 38.503L51.2031 39.1056L50.9678 38.1572L48.0746 39.1041L48.5438 38.3292L46.7453 38.5876L47.4491 37.6407C47.4491 37.6407 45.4161 38.7598 45.3378 39.7068C45.2595 40.6539 44.2431 41.859 44.2431 41.859L43.7739 40.998C43.7739 40.998 43.0707 37.1248 45.3384 35.8335Z" fill="#2F2E41"/>
<path d="M53.0638 55.2294C52.2857 56.1907 51.8516 57.3846 51.8304 58.6212L43.6593 58.3128C43.6593 58.3128 41.501 58.0045 41.501 59.5462V61.0878C41.501 61.0878 42.5802 60.6253 43.1969 61.0878C43.8135 61.5503 50.4429 65.5588 53.6805 64.0171C56.9181 62.4754 57.6889 56.4628 57.6889 56.4628C57.6889 56.4628 54.7597 53.996 53.0638 55.2294Z" fill="#FFB9B9"/>
<path d="M54.9148 47.5207L56.1482 47.3666C56.1482 47.3666 58.6148 47.6749 58.3065 52.4542C57.9982 57.2336 57.8441 57.5419 57.8441 57.5419C57.8441 57.5419 54.6065 54.6126 52.2939 56.0003L54.9148 47.5207Z" fill="#3DC0F0"/>
<path d="M40.1142 51.6838H39.4976C38.6986 52.693 38.264 53.9426 38.2642 55.2298C38.25 56.6084 38.0688 57.9802 37.7246 59.3152L42.581 58.4674L40.1142 51.6838Z" fill="#3DC0F0"/>
</svg>
