<?xml version="1.0" encoding="utf-8"?>
<!-- Generator: Adobe Illustrator 16.0.0, SVG Export Plug-In . SVG Version: 6.00 Build 0)  -->
<!DOCTYPE svg PUBLIC "-//W3C//DTD SVG 1.1//EN" "http://www.w3.org/Graphics/SVG/1.1/DTD/svg11.dtd">
<svg version="1.1" id="Layer_1" xmlns="http://www.w3.org/2000/svg" xmlns:xlink="http://www.w3.org/1999/xlink" x="0px" y="0px"
	 width="500px" height="500px" viewBox="0 0 500 500" enable-background="new 0 0 500 500" xml:space="preserve">
<g>
	<path fill="#3EC1F0" d="M482.043,423.415c0,32.379-26.247,58.627-58.629,58.627H76.585c-32.381,0-58.628-26.248-58.628-58.627
		V76.585c0-32.38,26.247-58.627,58.628-58.627h346.829c32.382,0,58.629,26.247,58.629,58.627V423.415z"/>
	<g>
		<path fill="#FFFFFF" d="M283.911,196.231c-2.423,12.52-14.533,20.712-27.052,18.288c-12.521-2.42-20.71-14.532-18.294-27.05
			c2.422-12.521,14.533-20.712,27.055-18.295C278.142,171.602,286.329,183.711,283.911,196.231z"/>
		<path fill="#FFFFFF" d="M246.905,266.028c-40.908-7.903-67.749-47.609-59.846-88.514c7.906-40.9,47.615-67.755,88.515-59.847
			c8.889,1.717,14.702,10.318,12.993,19.206c-1.72,8.896-10.321,14.704-19.211,12.988c-23.148-4.472-45.631,10.725-50.104,33.874
			c-4.478,23.153,10.718,45.621,33.872,50.103c8.889,1.715,14.706,10.316,12.991,19.201
			C264.389,261.931,255.79,267.753,246.905,266.028z"/>
		<path fill="#FFFFFF" d="M261.429,312.535c-2.411,12.522-14.531,20.707-27.049,18.289c-12.522-2.419-20.717-14.53-18.287-27.049
			c2.413-12.525,14.534-20.715,27.051-18.293C255.666,287.908,263.852,300.011,261.429,312.535z"/>
		<path fill="#FFFFFF" d="M224.43,382.333c-8.893-1.713-14.707-10.318-12.992-19.204c1.719-8.896,10.319-14.705,19.206-12.99
			c23.151,4.477,45.629-10.719,50.102-33.866c4.479-23.155-10.72-45.634-33.866-50.102c-8.888-1.723-14.707-10.321-12.992-19.207
			c1.719-8.893,10.319-14.708,19.212-12.988c40.904,7.904,67.749,47.614,59.842,88.518
			C305.034,363.396,265.328,390.238,224.43,382.333z"/>
	</g>
</g>
</svg>
