<?xml version="1.0" encoding="utf-8"?>
<!-- Generator: Adobe Illustrator 16.0.0, SVG Export Plug-In . SVG Version: 6.00 Build 0)  -->
<!DOCTYPE svg PUBLIC "-//W3C//DTD SVG 1.1//EN" "http://www.w3.org/Graphics/SVG/1.1/DTD/svg11.dtd">
<svg version="1.1" id="Layer_1" xmlns="http://www.w3.org/2000/svg" xmlns:xlink="http://www.w3.org/1999/xlink" x="0px" y="0px"
	 width="755px" height="500px" viewBox="0 0 755 500" enable-background="new 0 0 755 500" xml:space="preserve">
<g>
	<g>
		<path d="M268.639,244.871c-4.451,0-9.029-0.457-13.734-1.367c-4.707-0.912-8.738-2.207-12.094-3.885
			c-1.971-0.947-3.357-2.227-4.158-3.832c-0.805-1.604-1.096-3.264-0.877-4.979s0.838-3.246,1.861-4.598
			c1.021-1.35,2.369-2.26,4.049-2.736c1.678-0.473,3.574-0.234,5.691,0.713c2.771,1.387,5.91,2.426,9.412,3.119
			s6.785,1.039,9.85,1.039c4.816,0,8.189-0.639,10.123-1.916c1.934-1.275,2.9-2.861,2.9-4.76c0-1.678-0.674-3.027-2.023-4.049
			c-1.352-1.021-3.74-1.896-7.17-2.627l-12.805-2.736c-13.863-2.991-20.793-10.25-20.793-21.779c0-5.035,1.367-9.448,4.104-13.242
			c2.736-3.793,6.547-6.731,11.438-8.811c4.887-2.08,10.578-3.119,17.072-3.119c3.793,0,7.643,0.42,11.547,1.258
			c3.902,0.84,7.277,2.099,10.123,3.776c2.189,1.168,3.574,2.755,4.158,4.761c0.584,2.008,0.51,3.959-0.219,5.855
			c-0.73,1.898-2.023,3.283-3.885,4.158c-1.861,0.876-4.213,0.73-7.059-0.438c-2.189-0.947-4.598-1.658-7.225-2.134
			c-2.625-0.474-5.18-0.712-7.66-0.712c-4.088,0-7.223,0.712-9.412,2.135c-2.189,1.422-3.283,3.266-3.283,5.527
			c0,1.605,0.656,2.918,1.971,3.939c1.313,1.022,3.646,1.898,7.004,2.627l12.695,2.735c14.08,2.993,21.123,10.069,21.123,21.231
			c0,5.035-1.352,9.412-4.051,13.135c-2.699,3.721-6.494,6.604-11.381,8.645C281.043,243.85,275.277,244.871,268.639,244.871z"/>
		<path d="M337.26,244.871c-8.174,0-14.229-1.896-18.168-5.691c-3.939-3.793-5.91-9.521-5.91-17.182v-17.84h-3.721
			c-4.889,0-7.334-2.407-7.334-7.223c0-4.742,2.445-7.113,7.334-7.113h3.721v-6.786c0-3.21,0.838-5.653,2.518-7.333
			c1.678-1.678,4.084-2.517,7.223-2.517c6.492,0,9.74,3.283,9.74,9.85v6.786h8.975c4.961,0,7.441,2.371,7.441,7.113
			c0,4.815-2.48,7.223-7.441,7.223h-8.975v17.184c0,5.252,2.662,7.879,7.99,7.879c1.02,0,2.006-0.109,2.955-0.328
			c0.947-0.219,1.822-0.328,2.627-0.328c1.166-0.072,2.115,0.273,2.844,1.039c0.729,0.768,1.096,2.5,1.096,5.199
			c0,2.189-0.328,4.033-0.986,5.527c-0.656,1.496-1.824,2.572-3.502,3.229c-1.021,0.363-2.406,0.674-4.158,0.93
			S338.354,244.871,337.26,244.871z"/>
		<path d="M374.359,244.871c-4.158,0-7.824-0.766-10.998-2.297c-3.174-1.533-5.656-3.629-7.443-6.293
			c-1.789-2.664-2.682-5.709-2.682-9.139c0-3.867,1.021-6.951,3.064-9.248c2.043-2.299,5.326-3.94,9.85-4.926
			c4.523-0.984,10.543-1.477,18.059-1.477h4.16v-1.533c0-2.627-0.676-4.486-2.025-5.581c-1.352-1.095-3.666-1.642-6.949-1.642
			c-1.826,0-3.814,0.201-5.965,0.602c-2.154,0.402-4.58,1.113-7.279,2.135c-2.406,0.875-4.414,0.84-6.018-0.109
			c-1.607-0.947-2.646-2.316-3.119-4.104c-0.477-1.787-0.293-3.574,0.547-5.362c0.838-1.787,2.461-3.119,4.869-3.995
			c3.502-1.24,6.73-2.097,9.686-2.572c2.955-0.474,5.674-0.712,8.154-0.712c8.975,0,15.631,1.935,19.973,5.801
			c4.342,3.869,6.512,9.96,6.512,18.277v22.107c0,6.566-2.992,9.85-8.973,9.85c-5.691,0-8.721-2.916-9.084-8.756
			c-1.023,2.775-2.773,4.963-5.254,6.566C380.963,244.068,377.934,244.871,374.359,244.871z M378.736,232.176
			c2.699,0,4.98-0.875,6.842-2.627c1.859-1.75,2.791-4.049,2.791-6.895v-1.969h-4.16c-4.305,0-7.461,0.455-9.467,1.367
			c-2.008,0.912-3.01,2.354-3.01,4.322c0,1.68,0.602,3.064,1.807,4.16C374.742,231.629,376.475,232.176,378.736,232.176z"/>
		<path d="M427.768,244.652c-6.641,0-9.959-3.283-9.959-9.85v-36.226c0-6.493,3.174-9.74,9.521-9.74c2.99,0,5.307,0.839,6.949,2.517
			c1.641,1.68,2.463,4.088,2.463,7.224v0.329c1.238-3.137,3.244-5.618,6.02-7.443c2.771-1.822,6.055-2.771,9.85-2.846
			c2.115-0.071,3.701,0.457,4.76,1.588c1.057,1.132,1.623,3.229,1.697,6.293c0,2.627-0.547,4.706-1.643,6.238
			c-1.094,1.531-3.174,2.445-6.238,2.736l-2.518,0.219c-3.867,0.365-6.676,1.441-8.426,3.229c-1.752,1.789-2.627,4.432-2.627,7.935
			v17.948C437.617,241.369,434.334,244.652,427.768,244.652z"/>
		<path d="M278.926,354.315c-8.535,0-15.869-1.642-21.998-4.925s-10.816-7.916-14.063-13.899
			c-3.248-5.982-4.871-12.986-4.871-21.014c0-8.024,1.623-15.011,4.871-20.958c3.246-5.946,7.934-10.562,14.063-13.845
			s13.463-4.925,21.998-4.925c3.355,0,6.842,0.383,10.453,1.148c3.611,0.767,6.803,1.916,9.576,3.447
			c2.041,1.096,3.465,2.482,4.268,4.16c0.803,1.679,1.096,3.393,0.877,5.143c-0.221,1.752-0.859,3.322-1.916,4.707
			c-1.059,1.387-2.391,2.316-3.994,2.791c-1.605,0.475-3.357,0.237-5.254-0.712c-4.307-2.115-8.719-3.174-13.242-3.174
			c-6.785,0-11.895,1.915-15.322,5.745c-3.432,3.831-5.145,9.322-5.145,16.472c0,7.224,1.713,12.75,5.145,16.581
			c3.428,3.83,8.537,5.746,15.322,5.746c1.896,0,3.939-0.236,6.129-0.712c2.188-0.474,4.34-1.221,6.457-2.243
			c2.188-0.947,4.139-1.204,5.855-0.767c1.713,0.438,3.119,1.313,4.213,2.627s1.768,2.828,2.025,4.542
			c0.254,1.715,0.016,3.411-0.713,5.089c-0.729,1.68-2.078,3.028-4.049,4.05c-2.555,1.532-5.709,2.735-9.467,3.611
			C286.387,353.877,282.648,354.315,278.926,354.315z"/>
		<path d="M337.369,354.315c-5.982,0-11.201-1.132-15.65-3.393c-4.451-2.261-7.916-5.509-10.396-9.741
			c-2.48-4.23-3.721-9.229-3.721-14.993c0-5.837,1.24-10.853,3.721-15.049c2.48-4.195,5.945-7.423,10.396-9.686
			c4.449-2.261,9.668-3.394,15.65-3.394s11.199,1.133,15.65,3.394c4.451,2.263,7.898,5.49,10.344,9.686
			c2.443,4.196,3.666,9.212,3.666,15.049c0,5.765-1.223,10.763-3.666,14.993c-2.445,4.232-5.893,7.48-10.344,9.741
			S343.352,354.315,337.369,354.315z M337.369,339.979c2.918,0,5.326-1.095,7.225-3.284c1.896-2.188,2.846-5.69,2.846-10.506
			c0-4.888-0.949-8.408-2.846-10.562c-1.898-2.151-4.307-3.229-7.225-3.229c-2.992,0-5.436,1.077-7.332,3.229
			c-1.898,2.153-2.846,5.674-2.846,10.562c0,4.815,0.947,8.317,2.846,10.506C331.934,338.884,334.377,339.979,337.369,339.979z"/>
		<path d="M385.633,354.097c-3.137,0-5.527-0.84-7.168-2.518c-1.643-1.678-2.463-4.121-2.463-7.333v-36.226
			c0-6.493,3.174-9.74,9.521-9.74c5.764,0,8.9,2.81,9.412,8.427c1.822-2.771,4.25-4.906,7.277-6.402
			c3.027-1.494,6.404-2.244,10.125-2.244c6.42,0,11.18,1.898,14.281,5.691c3.102,3.795,4.652,9.632,4.652,17.512v22.982
			c0,3.212-0.84,5.655-2.518,7.333c-1.68,1.678-4.088,2.518-7.223,2.518c-3.139,0-5.547-0.84-7.225-2.518s-2.516-4.121-2.516-7.333
			v-22.217c0-3.283-0.566-5.617-1.697-7.004c-1.133-1.386-2.791-2.08-4.98-2.08c-2.918,0-5.252,0.931-7.004,2.791
			c-1.75,1.86-2.627,4.36-2.627,7.497v21.013C395.482,350.813,392.199,354.097,385.633,354.097z"/>
		<path d="M451.955,354.097c-3.139,0-5.527-0.84-7.17-2.518c-1.641-1.678-2.461-4.121-2.461-7.333v-36.226
			c0-6.493,3.174-9.74,9.521-9.74c5.762,0,8.9,2.81,9.412,8.427c1.822-2.771,4.248-4.906,7.277-6.402
			c3.027-1.494,6.402-2.244,10.123-2.244c6.42,0,11.182,1.898,14.283,5.691c3.1,3.795,4.65,9.632,4.65,17.512v22.982
			c0,3.212-0.84,5.655-2.518,7.333s-4.086,2.518-7.223,2.518s-5.545-0.84-7.223-2.518c-1.68-1.678-2.518-4.121-2.518-7.333v-22.217
			c0-3.283-0.566-5.617-1.695-7.004c-1.133-1.386-2.791-2.08-4.98-2.08c-2.92,0-5.254,0.931-7.004,2.791
			c-1.752,1.86-2.627,4.36-2.627,7.497v21.013C461.805,350.813,458.521,354.097,451.955,354.097z"/>
		<path d="M537.975,354.315c-6.566,0-12.24-1.149-17.018-3.447c-4.779-2.299-8.445-5.563-11-9.796
			c-2.555-4.23-3.83-9.229-3.83-14.993c0-5.473,1.221-10.324,3.666-14.557c2.445-4.23,5.801-7.532,10.07-9.904
			c4.268-2.37,9.139-3.558,14.609-3.558c5.398,0,10.086,1.133,14.064,3.394c3.977,2.263,7.041,5.49,9.193,9.686
			c2.15,4.196,3.229,9.103,3.229,14.721c0,2.845-1.68,4.268-5.035,4.268h-31.191c0.656,3.503,2.115,6.02,4.379,7.552
			c2.26,1.532,5.398,2.299,9.412,2.299c1.531,0,3.354-0.182,5.471-0.548c2.115-0.364,4.121-0.947,6.02-1.751
			c2.334-0.875,4.305-0.893,5.91-0.055c1.605,0.84,2.682,2.117,3.229,3.831c0.547,1.715,0.475,3.466-0.219,5.253
			c-0.693,1.789-2.063,3.156-4.104,4.104c-2.555,1.241-5.271,2.134-8.154,2.681C543.793,354.042,540.893,354.315,537.975,354.315z
			 M535.35,310.647c-2.92,0-5.309,0.875-7.17,2.626c-1.859,1.752-3.047,4.307-3.557,7.661h20.357c-0.219-3.429-1.15-6-2.791-7.716
			C540.547,311.506,538.266,310.647,535.35,310.647z"/>
		<path d="M596.855,354.315c-6.057,0-11.328-1.132-15.814-3.393c-4.488-2.261-7.973-5.509-10.453-9.741
			c-2.48-4.23-3.721-9.265-3.721-15.103c0-5.837,1.24-10.853,3.721-15.049c2.48-4.195,5.965-7.404,10.453-9.631
			c4.486-2.226,9.758-3.339,15.814-3.339c2.115,0,4.34,0.203,6.676,0.603c2.334,0.401,4.742,1.149,7.223,2.243
			c1.678,0.657,2.883,1.661,3.611,3.01c0.729,1.352,1.041,2.791,0.932,4.323s-0.547,2.919-1.314,4.159
			c-0.766,1.241-1.824,2.079-3.174,2.518c-1.35,0.438-2.863,0.256-4.541-0.548c-2.408-1.095-4.854-1.642-7.332-1.642
			c-3.869,0-6.859,1.168-8.975,3.502c-2.117,2.336-3.174,5.619-3.174,9.851c0,4.306,1.057,7.644,3.174,10.014
			c2.115,2.372,5.105,3.557,8.975,3.557c1.166,0,2.369-0.126,3.611-0.383c1.238-0.255,2.479-0.674,3.721-1.259
			c1.75-0.802,3.264-0.966,4.541-0.492c1.277,0.476,2.299,1.313,3.064,2.518c0.768,1.203,1.205,2.571,1.314,4.104
			s-0.203,2.974-0.932,4.323c-0.729,1.351-1.969,2.354-3.721,3.01c-2.48,1.095-4.854,1.842-7.113,2.243
			C601.16,354.113,598.971,354.315,596.855,354.315z"/>
		<path d="M651.029,354.315c-8.172,0-14.227-1.896-18.168-5.691c-3.939-3.793-5.91-9.521-5.91-17.183v-17.839h-3.721
			c-4.889,0-7.332-2.408-7.332-7.224c0-4.742,2.443-7.113,7.332-7.113h3.721v-6.786c0-3.21,0.838-5.653,2.518-7.333
			c1.678-1.678,4.086-2.517,7.225-2.517c6.492,0,9.74,3.283,9.74,9.85v6.786h8.975c4.959,0,7.441,2.371,7.441,7.113
			c0,4.815-2.482,7.224-7.441,7.224h-8.975v17.183c0,5.253,2.662,7.88,7.988,7.88c1.021,0,2.006-0.109,2.955-0.328
			c0.947-0.22,1.824-0.329,2.627-0.329c1.166-0.071,2.115,0.273,2.846,1.04c0.729,0.766,1.094,2.5,1.094,5.198
			c0,2.189-0.328,4.032-0.984,5.527c-0.656,1.496-1.824,2.572-3.502,3.229c-1.023,0.364-2.408,0.674-4.16,0.931
			C653.547,354.187,652.123,354.315,651.029,354.315z"/>
	</g>
	<g>
		<path d="M168.033,207.865c-1.895,9.811-11.389,16.23-21.197,14.332c-9.813-1.896-16.229-11.389-14.336-21.197
			c1.898-9.813,11.389-16.23,21.199-14.336C163.514,188.564,169.93,198.055,168.033,207.865z"/>
		<path d="M139.035,262.561c-32.057-6.193-53.09-37.309-46.896-69.362c6.195-32.05,37.313-53.095,69.363-46.897
			c6.965,1.346,11.521,8.086,10.18,15.051c-1.348,6.971-8.088,11.521-15.055,10.178c-18.139-3.504-35.754,8.404-39.262,26.545
			c-3.508,18.143,8.4,35.75,26.545,39.262c6.963,1.344,11.523,8.084,10.18,15.047C152.734,259.35,145.998,263.912,139.035,262.561z"
			/>
		<path d="M150.416,299.004c-1.889,9.813-11.387,16.227-21.195,14.332c-9.813-1.896-16.234-11.387-14.33-21.197
			c1.889-9.814,11.387-16.232,21.197-14.334C145.898,279.705,152.314,289.189,150.416,299.004z"/>
		<path d="M121.422,353.699c-6.967-1.342-11.523-8.086-10.18-15.049c1.348-6.971,8.086-11.523,15.053-10.18
			c18.143,3.508,35.754-8.4,39.26-26.539c3.51-18.145-8.4-35.76-26.541-39.26c-6.965-1.35-11.523-8.088-10.182-15.051
			c1.35-6.969,8.09-11.525,15.057-10.178c32.055,6.193,53.09,37.311,46.895,69.363C184.586,338.859,153.475,359.895,121.422,353.699
			z"/>
	</g>
</g>
</svg>
