<?xml version="1.0" encoding="utf-8"?>
<!-- Generator: Adobe Illustrator 16.0.0, SVG Export Plug-In . SVG Version: 6.00 Build 0)  -->
<!DOCTYPE svg PUBLIC "-//W3C//DTD SVG 1.1//EN" "http://www.w3.org/Graphics/SVG/1.1/DTD/svg11.dtd">
<svg version="1.1" id="Layer_1" xmlns="http://www.w3.org/2000/svg" xmlns:xlink="http://www.w3.org/1999/xlink" x="0px" y="0px"
	 width="500px" height="500px" viewBox="0 0 500 500" enable-background="new 0 0 500 500" xml:space="preserve">
<g>
	<path fill="#3EC1F0" d="M307.613,158.646c-4.109,21.271-24.691,35.19-45.959,31.074c-21.277-4.112-35.188-24.692-31.084-45.959
		c4.115-21.275,24.693-35.19,45.965-31.083C297.813,116.799,311.725,137.375,307.613,158.646z"/>
	<path fill="#3EC1F0" d="M244.742,277.233c-69.504-13.428-115.109-80.891-101.682-150.39c13.436-69.49,80.9-115.116,150.393-101.68
		c15.102,2.916,24.98,17.529,22.072,32.633c-2.924,15.113-17.537,24.98-32.643,22.066c-39.326-7.597-77.52,18.223-85.125,57.554
		c-7.605,39.336,18.213,77.512,57.555,85.126c15.096,2.913,24.984,17.527,22.068,32.624
		C274.443,270.271,259.836,280.164,244.742,277.233z"/>
	<path fill="#3EC1F0" d="M269.418,356.248c-4.098,21.275-24.689,35.183-45.957,31.074c-21.273-4.111-35.197-24.688-31.07-45.959
		c4.098-21.279,24.689-35.194,45.961-31.078C259.623,314.405,273.531,334.969,269.418,356.248z"/>
	<path fill="#3EC1F0" d="M206.551,474.837c-15.105-2.91-24.984-17.532-22.068-32.629c2.92-15.113,17.531-24.984,32.635-22.071
		c39.336,7.605,77.52-18.213,85.123-57.54c7.607-39.341-18.213-77.533-57.547-85.122c-15.1-2.926-24.982-17.535-22.074-32.632
		c2.928-15.109,17.539-24.989,32.645-22.067c69.498,13.429,115.105,80.896,101.674,150.391
		C343.504,442.661,276.047,488.269,206.551,474.837z"/>
</g>
</svg>
